<?xml version="1.0" encoding="UTF-8" standalone="no"?><svg xmlns="http://www.w3.org/2000/svg" xmlns:xlink="http://www.w3.org/1999/xlink" clip-rule="evenodd" stroke-miterlimit="10" viewBox="0 0 1024 768"><desc>SVG generated by Keynote</desc><defs></defs><g transform="matrix(1.00, 0.00, -0.00, -1.00, 0.0, 768.0)"><path d="M 0.0 768.0 L 1024.0 768.0 L 1024.0 0.0 L 0.0 0.0 Z M 0.0 768.0 " fill="#FEFFFF"></path><g><clipPath id="clip0x60000b4af840"><path d="M 433.0 699.0 L 591.0 699.0 L 591.0 759.0 L 433.0 759.0 Z M 433.0 699.0 "></path></clipPath><g clip-path="url(#clip0x60000b4af840)"><image xlink:href="../../5FB20884-37B2-4313-A05C-172F932F094B/assets/546EE277C2A67DFC60D3E28E3956A6F6.png" width="158.00" height="60.00" transform="matrix(1.00, 0.00, -0.00, -1.00, 433.0, 759.0)"></image></g></g><g><clipPath id="clip0x60800b2a4e00"><path d="M 15.0 691.5 L 1009.0 691.5 L 1009.0 694.5 L 15.0 694.5 Z M 15.0 691.5 "></path></clipPath><g clip-path="url(#clip0x60800b2a4e00)"><path d="M 0.0 0.5 L 992.0 0.5 " fill="none" stroke="#CACACA" stroke-width="1.00" transform="matrix(1.00, 0.00, 0.00, -1.00, 16.0, 693.0)"></path></g></g><path d="M 0.5 767.5 L 1024.5 767.5 L 1024.5 -0.5 L 0.5 -0.5 Z M 0.0 768.0 " fill="#FEFFFF"></path><path d="M 0.5 0.5 L 1024.5 0.5 L 1024.5 768.5 L 0.5 768.5 Z M 0.0 0.0 " fill="none" stroke="#000000" stroke-width="1.00" transform="matrix(1.00, 0.00, 0.00, -1.00, 0.0, 768.0)"></path><g><clipPath id="clip0x60800b2a5220"><path d="M 433.0 699.0 L 591.0 699.0 L 591.0 759.0 L 433.0 759.0 Z M 433.0 699.0 "></path></clipPath><g clip-path="url(#clip0x60800b2a5220)"><image xlink:href="../../5FB20884-37B2-4313-A05C-172F932F094B/assets/546EE277C2A67DFC60D3E28E3956A6F6.png" width="158.00" height="60.00" transform="matrix(1.00, 0.00, -0.00, -1.00, 433.0, 759.0)"></image></g></g><g><clipPath id="clip0x60800b2a5280"><path d="M 15.0 691.5 L 1009.0 691.5 L 1009.0 694.5 L 15.0 694.5 Z M 15.0 691.5 "></path></clipPath><g clip-path="url(#clip0x60800b2a5280)"><path d="M 0.0 0.5 L 992.0 0.5 " fill="none" stroke="#CACACA" stroke-width="1.00" transform="matrix(1.00, 0.00, 0.00, -1.00, 16.0, 693.0)"></path></g></g><text xml:space="preserve" font-family="Arial-BoldMT,Arial" font-weight="bold" font-size="24.0" fill="#000000" transform="matrix(1.00, 0.00, -0.00, -1.00, 30.6, 655.9)">Q</text><text xml:space="preserve" font-family="Arial-BoldMT,Arial" font-weight="bold" font-size="24.0" fill="#000000" transform="matrix(1.00, 0.00, -0.00, -1.00, 49.2, 655.9)">u</text><text xml:space="preserve" font-family="Arial-BoldMT,Arial" font-weight="bold" font-size="24.0" fill="#000000" transform="matrix(1.00, 0.00, -0.00, -1.00, 63.9, 655.9)">i</text><text xml:space="preserve" font-family="Arial-BoldMT,Arial" font-weight="bold" font-size="24.0" fill="#000000" transform="matrix(1.00, 0.00, -0.00, -1.00, 70.6, 655.9)">c</text><text xml:space="preserve" font-family="Arial-BoldMT,Arial" font-weight="bold" font-size="24.0" fill="#000000" transform="matrix(1.00, 0.00, -0.00, -1.00, 83.9, 655.9)">k</text><text xml:space="preserve" font-family="Arial-BoldMT,Arial" font-weight="bold" font-size="24.0" fill="#000000" transform="matrix(1.00, 0.00, -0.00, -1.00, 97.3, 655.9)"> </text><text xml:space="preserve" font-family="Arial-BoldMT,Arial" font-weight="bold" font-size="24.0" fill="#000000" transform="matrix(1.00, 0.00, -0.00, -1.00, 103.9, 655.9)">P</text><text xml:space="preserve" font-family="Arial-BoldMT,Arial" font-weight="bold" font-size="24.0" fill="#000000" transform="matrix(1.00, 0.00, -0.00, -1.00, 119.9, 655.9)">a</text><text xml:space="preserve" font-family="Arial-BoldMT,Arial" font-weight="bold" font-size="24.0" fill="#000000" transform="matrix(1.00, 0.00, -0.00, -1.00, 133.3, 655.9)">r</text><text xml:space="preserve" font-family="Arial-BoldMT,Arial" font-weight="bold" font-size="24.0" fill="#000000" transform="matrix(1.00, 0.00, -0.00, -1.00, 142.6, 655.9)">a</text><text xml:space="preserve" font-family="Arial-BoldMT,Arial" font-weight="bold" font-size="24.0" fill="#000000" transform="matrix(1.00, 0.00, -0.00, -1.00, 156.0, 655.9)">v</text><text xml:space="preserve" font-family="Arial-BoldMT,Arial" font-weight="bold" font-size="24.0" fill="#000000" transform="matrix(1.00, 0.00, -0.00, -1.00, 169.3, 655.9)">i</text><text xml:space="preserve" font-family="Arial-BoldMT,Arial" font-weight="bold" font-size="24.0" fill="#000000" transform="matrix(1.00, 0.00, -0.00, -1.00, 176.0, 655.9)">e</text><text xml:space="preserve" font-family="Arial-BoldMT,Arial" font-weight="bold" font-size="24.0" fill="#000000" transform="matrix(1.00, 0.00, -0.00, -1.00, 189.3, 655.9)">w</text><text xml:space="preserve" font-family="Arial-BoldMT,Arial" font-weight="bold" font-size="24.0" fill="#000000" transform="matrix(1.00, 0.00, -0.00, -1.00, 208.0, 655.9)"> </text><text xml:space="preserve" font-family="Arial-BoldMT,Arial" font-weight="bold" font-size="24.0" fill="#000000" transform="matrix(1.00, 0.00, -0.00, -1.00, 214.7, 655.9)">p</text><text xml:space="preserve" font-family="Arial-BoldMT,Arial" font-weight="bold" font-size="24.0" fill="#000000" transform="matrix(1.00, 0.00, -0.00, -1.00, 229.3, 655.9)">r</text><text xml:space="preserve" font-family="Arial-BoldMT,Arial" font-weight="bold" font-size="24.0" fill="#000000" transform="matrix(1.00, 0.00, -0.00, -1.00, 238.7, 655.9)">i</text><text xml:space="preserve" font-family="Arial-BoldMT,Arial" font-weight="bold" font-size="24.0" fill="#000000" transform="matrix(1.00, 0.00, -0.00, -1.00, 245.3, 655.9)">m</text><text xml:space="preserve" font-family="Arial-BoldMT,Arial" font-weight="bold" font-size="24.0" fill="#000000" transform="matrix(1.00, 0.00, -0.00, -1.00, 266.7, 655.9)">e</text><text xml:space="preserve" font-family="Arial-BoldMT,Arial" font-weight="bold" font-size="24.0" fill="#000000" transform="matrix(1.00, 0.00, -0.00, -1.00, 280.0, 655.9)">r</text><image xlink:href="7A0452ABABBAB2D01CED9F5460279F71.png" width="1226.00" height="768.00" transform="matrix(0.81, 0.00, -0.00, -0.81, 14.0, 626.0)"></image></g></svg>