<?xml version="1.0" encoding="UTF-8" standalone="no"?><svg xmlns="http://www.w3.org/2000/svg" xmlns:xlink="http://www.w3.org/1999/xlink" clip-rule="evenodd" stroke-miterlimit="10" viewBox="0 0 1680 1050"><desc>SVG generated by Keynote</desc><defs></defs><g transform="matrix(1.00, 0.00, -0.00, -1.00, 0.0, 1050.0)"><path d="M 0.0 1050.0 L 1680.0 1050.0 L 1680.0 0.0 L 0.0 0.0 Z M 0.0 1050.0 " fill="#FFFFFF"></path><path d="M 0.5 1049.5 L 1678.5 1049.5 L 1678.5 965.5 L 0.5 965.5 Z M 0.0 1050.0 " fill="#DDDDDD"></path><path d="M 0.5 0.5 L 1678.5 0.5 L 1678.5 84.5 L 0.5 84.5 Z M 0.0 0.0 " fill="none" stroke="#DDDDDD" stroke-width="0.74" transform="matrix(1.00, 0.00, 0.00, -1.00, 0.0, 1050.0)"></path><image xlink:href="../../A70E7955-C823-4774-98D9-5AD7EAC92CD7/assets/DE4D6CC4C8164ED4061BA9372A701904.png" width="21.00" height="30.00" transform="matrix(1.00, 0.00, -0.00, -1.00, 429.0, 1027.0)"></image><text xml:space="preserve" font-family="Verdana,Verdana" font-size="30.0" fill="#000099" transform="matrix(1.00, 0.00, -0.00, -1.00, 428.0, 1003.3)">3</text><image xlink:href="../../A70E7955-C823-4774-98D9-5AD7EAC92CD7/assets/26CFF8D30B7B615A8CD35617FF0575E4.png" width="25.00" height="22.00" transform="matrix(1.00, 0.00, -0.00, -1.00, 447.0, 1029.0)"></image><text xml:space="preserve" font-family="Verdana,Verdana" font-size="20.0" fill="#000099" transform="matrix(1.00, 0.00, -0.00, -1.00, 447.1, 1012.8)">r</text><text xml:space="preserve" font-family="Verdana,Verdana" font-size="20.0" fill="#000099" transform="matrix(1.00, 0.00, -0.00, -1.00, 455.6, 1012.8)">d</text><image xlink:href="../../A70E7955-C823-4774-98D9-5AD7EAC92CD7/assets/69B0800E27D7230940336CCF70756F8C.png" width="615.00" height="36.00" transform="matrix(1.00, 0.00, -0.00, -1.00, 478.0, 1028.0)"></image><text xml:space="preserve" font-family="Verdana,Verdana" font-size="30.0" fill="#000099" transform="matrix(1.00, 0.00, -0.00, -1.00, 468.1, 1003.3)"> </text><text xml:space="preserve" font-family="Verdana,Verdana" font-size="30.0" fill="#000099" transform="matrix(1.00, 0.00, -0.00, -1.00, 478.6, 1003.3)">V</text><text xml:space="preserve" font-family="Verdana,Verdana" font-size="30.0" fill="#000099" transform="matrix(1.00, 0.00, -0.00, -1.00, 499.1, 1003.3)">P</text><text xml:space="preserve" font-family="Verdana,Verdana" font-size="30.0" fill="#000099" transform="matrix(1.00, 0.00, -0.00, -1.00, 517.2, 1003.3)">H</text><text xml:space="preserve" font-family="Verdana,Verdana" font-size="30.0" fill="#000099" transform="matrix(1.00, 0.00, -0.00, -1.00, 539.8, 1003.3)"> </text><text xml:space="preserve" font-family="Verdana,Verdana" font-size="30.0" fill="#000099" transform="matrix(1.00, 0.00, -0.00, -1.00, 550.3, 1003.3)">s</text><text xml:space="preserve" font-family="Verdana,Verdana" font-size="30.0" fill="#000099" transform="matrix(1.00, 0.00, -0.00, -1.00, 566.0, 1003.3)">t</text><text xml:space="preserve" font-family="Verdana,Verdana" font-size="30.0" fill="#000099" transform="matrix(1.00, 0.00, -0.00, -1.00, 577.8, 1003.3)">u</text><text xml:space="preserve" font-family="Verdana,Verdana" font-size="30.0" fill="#000099" transform="matrix(1.00, 0.00, -0.00, -1.00, 596.8, 1003.3)">d</text><text xml:space="preserve" font-family="Verdana,Verdana" font-size="30.0" fill="#000099" transform="matrix(1.00, 0.00, -0.00, -1.00, 615.5, 1003.3)">y</text><text xml:space="preserve" font-family="Verdana,Verdana" font-size="30.0" fill="#000099" transform="matrix(1.00, 0.00, -0.00, -1.00, 633.2, 1003.3)"> </text><text xml:space="preserve" font-family="Verdana,Verdana" font-size="30.0" fill="#000099" transform="matrix(1.00, 0.00, -0.00, -1.00, 643.7, 1003.3)">g</text><text xml:space="preserve" font-family="Verdana,Verdana" font-size="30.0" fill="#000099" transform="matrix(1.00, 0.00, -0.00, -1.00, 662.4, 1003.3)">r</text><text xml:space="preserve" font-family="Verdana,Verdana" font-size="30.0" fill="#000099" transform="matrix(1.00, 0.00, -0.00, -1.00, 675.2, 1003.3)">o</text><text xml:space="preserve" font-family="Verdana,Verdana" font-size="30.0" fill="#000099" transform="matrix(1.00, 0.00, -0.00, -1.00, 693.4, 1003.3)">u</text><text xml:space="preserve" font-family="Verdana,Verdana" font-size="30.0" fill="#000099" transform="matrix(1.00, 0.00, -0.00, -1.00, 712.4, 1003.3)">p</text><text xml:space="preserve" font-family="Verdana,Verdana" font-size="30.0" fill="#000099" transform="matrix(1.00, 0.00, -0.00, -1.00, 731.1, 1003.3)"> </text><text xml:space="preserve" font-family="Verdana,Verdana" font-size="30.0" fill="#000099" transform="matrix(1.00, 0.00, -0.00, -1.00, 741.6, 1003.3)">o</text><text xml:space="preserve" font-family="Verdana,Verdana" font-size="30.0" fill="#000099" transform="matrix(1.00, 0.00, -0.00, -1.00, 759.8, 1003.3)">n</text><text xml:space="preserve" font-family="Verdana,Verdana" font-size="30.0" fill="#000099" transform="matrix(1.00, 0.00, -0.00, -1.00, 778.8, 1003.3)"> </text><text xml:space="preserve" font-family="Verdana,Verdana" font-size="30.0" fill="#000099" transform="matrix(1.00, 0.00, -0.00, -1.00, 789.3, 1003.3)">V</text><text xml:space="preserve" font-family="Verdana,Verdana" font-size="30.0" fill="#000099" transform="matrix(1.00, 0.00, -0.00, -1.00, 809.8, 1003.3)">P</text><text xml:space="preserve" font-family="Verdana,Verdana" font-size="30.0" fill="#000099" transform="matrix(1.00, 0.00, -0.00, -1.00, 827.9, 1003.3)">H</text><text xml:space="preserve" font-family="Verdana,Verdana" font-size="30.0" fill="#000099" transform="matrix(1.00, 0.00, -0.00, -1.00, 850.5, 1003.3)"> </text><text xml:space="preserve" font-family="Verdana,Verdana" font-size="30.0" fill="#000099" transform="matrix(1.00, 0.00, -0.00, -1.00, 861.0, 1003.3)">T</text><text xml:space="preserve" font-family="Verdana,Verdana" font-size="30.0" fill="#000099" transform="matrix(1.00, 0.00, -0.00, -1.00, 876.3, 1003.3)">o</text><text xml:space="preserve" font-family="Verdana,Verdana" font-size="30.0" fill="#000099" transform="matrix(1.00, 0.00, -0.00, -1.00, 894.5, 1003.3)">o</text><text xml:space="preserve" font-family="Verdana,Verdana" font-size="30.0" fill="#000099" transform="matrix(1.00, 0.00, -0.00, -1.00, 912.7, 1003.3)">l</text><text xml:space="preserve" font-family="Verdana,Verdana" font-size="30.0" fill="#000099" transform="matrix(1.00, 0.00, -0.00, -1.00, 921.0, 1003.3)">k</text><text xml:space="preserve" font-family="Verdana,Verdana" font-size="30.0" fill="#000099" transform="matrix(1.00, 0.00, -0.00, -1.00, 938.7, 1003.3)">i</text><text xml:space="preserve" font-family="Verdana,Verdana" font-size="30.0" fill="#000099" transform="matrix(1.00, 0.00, -0.00, -1.00, 946.9, 1003.3)">t</text><text xml:space="preserve" font-family="Verdana,Verdana" font-size="30.0" fill="#000099" transform="matrix(1.00, 0.00, -0.00, -1.00, 958.8, 1003.3)"> </text><text xml:space="preserve" font-family="Verdana,Verdana" font-size="30.0" fill="#000099" transform="matrix(1.00, 0.00, -0.00, -1.00, 969.3, 1003.3)">–</text><text xml:space="preserve" font-family="Verdana,Verdana" font-size="30.0" fill="#000099" transform="matrix(1.00, 0.00, -0.00, -1.00, 988.4, 1003.3)"> </text><text xml:space="preserve" font-family="Verdana,Verdana" font-size="30.0" fill="#000099" transform="matrix(1.00, 0.00, -0.00, -1.00, 998.9, 1003.3)">M</text><text xml:space="preserve" font-family="Verdana,Verdana" font-size="30.0" fill="#000099" transform="matrix(1.00, 0.00, -0.00, -1.00, 1024.2, 1003.3)">a</text><text xml:space="preserve" font-family="Verdana,Verdana" font-size="30.0" fill="#000099" transform="matrix(1.00, 0.00, -0.00, -1.00, 1042.0, 1003.3)">y</text><text xml:space="preserve" font-family="Verdana,Verdana" font-size="30.0" fill="#000099" transform="matrix(1.00, 0.00, -0.00, -1.00, 1059.7, 1003.3)"> </text><text xml:space="preserve" font-family="Verdana,Verdana" font-size="30.0" fill="#000099" transform="matrix(1.00, 0.00, -0.00, -1.00, 1070.2, 1003.3)">7</text><image xlink:href="../../A70E7955-C823-4774-98D9-5AD7EAC92CD7/assets/63529583B424716FCA336AAED841E8B5.png" width="25.00" height="22.00" transform="matrix(1.00, 0.00, -0.00, -1.00, 1089.0, 1029.0)"></image><text xml:space="preserve" font-family="Verdana,Verdana" font-size="20.0" fill="#000099" transform="matrix(1.00, 0.00, -0.00, -1.00, 1089.5, 1012.8)">t</text><text xml:space="preserve" font-family="Verdana,Verdana" font-size="20.0" fill="#000099" transform="matrix(1.00, 0.00, -0.00, -1.00, 1097.3, 1012.8)">h</text><image xlink:href="../../A70E7955-C823-4774-98D9-5AD7EAC92CD7/assets/E4ADBF7B06572E7A52FA7E1DE10D777B.png" width="38.00" height="29.00" transform="matrix(1.00, 0.00, -0.00, -1.00, 1123.0, 1027.0)"></image><text xml:space="preserve" font-family="Verdana,Verdana" font-size="30.0" fill="#000099" transform="matrix(1.00, 0.00, -0.00, -1.00, 1110.0, 1003.3)"> </text><text xml:space="preserve" font-family="Verdana,Verdana" font-size="30.0" fill="#000099" transform="matrix(1.00, 0.00, -0.00, -1.00, 1120.5, 1003.3)">1</text><text xml:space="preserve" font-family="Verdana,Verdana" font-size="30.0" fill="#000099" transform="matrix(1.00, 0.00, -0.00, -1.00, 1139.6, 1003.3)">1</text><image xlink:href="../../A70E7955-C823-4774-98D9-5AD7EAC92CD7/assets/5EA0E79C6D0953D94D8D9E2D1A08193B.png" width="25.00" height="23.00" transform="matrix(1.00, 0.00, -0.00, -1.00, 1158.0, 1030.0)"></image><text xml:space="preserve" font-family="Verdana,Verdana" font-size="20.0" fill="#000099" transform="matrix(1.00, 0.00, -0.00, -1.00, 1158.7, 1013.1)">t</text><text xml:space="preserve" font-family="Verdana,Verdana" font-size="20.0" fill="#000099" transform="matrix(1.00, 0.00, -0.00, -1.00, 1166.6, 1013.1)">h</text><image xlink:href="../../A70E7955-C823-4774-98D9-5AD7EAC92CD7/assets/2BCAA918472AF21544606490F6B543C1.png" width="101.00" height="35.00" transform="matrix(1.00, 0.00, -0.00, -1.00, 1180.0, 1027.0)"></image><text xml:space="preserve" font-family="Verdana,Verdana" font-size="30.0" fill="#000099" transform="matrix(1.00, 0.00, -0.00, -1.00, 1179.2, 1003.3)">,</text><text xml:space="preserve" font-family="Verdana,Verdana" font-size="30.0" fill="#000099" transform="matrix(1.00, 0.00, -0.00, -1.00, 1190.1, 1003.3)"> </text><text xml:space="preserve" font-family="Verdana,Verdana" font-size="30.0" fill="#000099" transform="matrix(1.00, 0.00, -0.00, -1.00, 1200.7, 1003.3)">2</text><text xml:space="preserve" font-family="Verdana,Verdana" font-size="30.0" fill="#000099" transform="matrix(1.00, 0.00, -0.00, -1.00, 1219.7, 1003.3)">0</text><text xml:space="preserve" font-family="Verdana,Verdana" font-size="30.0" fill="#000099" transform="matrix(1.00, 0.00, -0.00, -1.00, 1238.8, 1003.3)">1</text><text xml:space="preserve" font-family="Verdana,Verdana" font-size="30.0" fill="#000099" transform="matrix(1.00, 0.00, -0.00, -1.00, 1257.9, 1003.3)">2</text><image xlink:href="../../A70E7955-C823-4774-98D9-5AD7EAC92CD7/assets/54E75F949A5044270FED238C2CEEB5B3.png" width="454.00" height="239.00" transform="matrix(0.36, 0.00, -0.00, -0.36, 1499.4, 1052.9)"></image><image xlink:href="../../A70E7955-C823-4774-98D9-5AD7EAC92CD7/assets/6E693E7FD526D55BDF6C3C4C6886309E.png" width="306.00" height="102.00" transform="matrix(0.46, 0.00, -0.00, -0.46, 6.5, 1042.9)"></image><text xml:space="preserve" font-family="Verdana,Verdana" font-size="22.0" fill="#1E487D" transform="matrix(1.00, 0.00, -0.00, -1.00, 4.0, 975.3)">h</text><text xml:space="preserve" font-family="Verdana,Verdana" font-size="22.0" fill="#1E487D" transform="matrix(1.00, 0.00, -0.00, -1.00, 18.0, 975.3)">t</text><text xml:space="preserve" font-family="Verdana,Verdana" font-size="22.0" fill="#1E487D" transform="matrix(1.00, 0.00, -0.00, -1.00, 26.6, 975.3)">t</text><text xml:space="preserve" font-family="Verdana,Verdana" font-size="22.0" fill="#1E487D" transform="matrix(1.00, 0.00, -0.00, -1.00, 35.3, 975.3)">p</text><text xml:space="preserve" font-family="Verdana,Verdana" font-size="22.0" fill="#1E487D" transform="matrix(1.00, 0.00, -0.00, -1.00, 49.0, 975.3)">:</text><text xml:space="preserve" font-family="Verdana,Verdana" font-size="22.0" fill="#1E487D" transform="matrix(1.00, 0.00, -0.00, -1.00, 59.0, 975.3)">/</text><text xml:space="preserve" font-family="Verdana,Verdana" font-size="22.0" fill="#1E487D" transform="matrix(1.00, 0.00, -0.00, -1.00, 69.0, 975.3)">/</text><text xml:space="preserve" font-family="Verdana,Verdana" font-size="22.0" fill="#1E487D" transform="matrix(1.00, 0.00, -0.00, -1.00, 79.0, 975.3)">w</text><text xml:space="preserve" font-family="Verdana,Verdana" font-size="22.0" fill="#1E487D" transform="matrix(1.00, 0.00, -0.00, -1.00, 97.0, 975.3)">w</text><text xml:space="preserve" font-family="Verdana,Verdana" font-size="22.0" fill="#1E487D" transform="matrix(1.00, 0.00, -0.00, -1.00, 115.0, 975.3)">w</text><text xml:space="preserve" font-family="Verdana,Verdana" font-size="22.0" fill="#1E487D" transform="matrix(1.00, 0.00, -0.00, -1.00, 132.3, 975.3)">.</text><text xml:space="preserve" font-family="Verdana,Verdana" font-size="22.0" fill="#1E487D" transform="matrix(1.00, 0.00, -0.00, -1.00, 140.3, 975.3)">v</text><text xml:space="preserve" font-family="Verdana,Verdana" font-size="22.0" fill="#1E487D" transform="matrix(1.00, 0.00, -0.00, -1.00, 153.3, 975.3)">m</text><text xml:space="preserve" font-family="Verdana,Verdana" font-size="22.0" fill="#1E487D" transform="matrix(1.00, 0.00, -0.00, -1.00, 174.7, 975.3)">t</text><text xml:space="preserve" font-family="Verdana,Verdana" font-size="22.0" fill="#1E487D" transform="matrix(1.00, 0.00, -0.00, -1.00, 183.3, 975.3)">k</text><text xml:space="preserve" font-family="Verdana,Verdana" font-size="22.0" fill="#1E487D" transform="matrix(1.00, 0.00, -0.00, -1.00, 196.4, 975.3)">.</text><text xml:space="preserve" font-family="Verdana,Verdana" font-size="22.0" fill="#1E487D" transform="matrix(1.00, 0.00, -0.00, -1.00, 204.4, 975.3)">o</text><text xml:space="preserve" font-family="Verdana,Verdana" font-size="22.0" fill="#1E487D" transform="matrix(1.00, 0.00, -0.00, -1.00, 217.7, 975.3)">r</text><text xml:space="preserve" font-family="Verdana,Verdana" font-size="22.0" fill="#1E487D" transform="matrix(1.00, 0.00, -0.00, -1.00, 227.1, 975.3)">g</text><text xml:space="preserve" font-family="Verdana,Verdana" font-size="22.0" fill="#1E487D" transform="matrix(1.00, 0.00, -0.00, -1.00, 240.8, 975.3)">/</text><image xlink:href="../../A70E7955-C823-4774-98D9-5AD7EAC92CD7/assets/FB6266B32BB174147E27FE28865338B0.png" width="450.00" height="176.00" transform="matrix(0.42, 0.00, -0.00, -0.42, 1310.6, 1046.6)"></image><text xml:space="preserve" font-family="TimesNewRomanPS-BoldMT,Times New Roman" font-weight="bold" font-size="46.0" fill="#000000" transform="matrix(1.00, 0.00, -0.00, -1.00, 15.8, 905.5)">1</text><text xml:space="preserve" font-family="TimesNewRomanPS-BoldMT,Times New Roman" font-weight="bold" font-size="46.0" fill="#000000" transform="matrix(1.00, 0.00, -0.00, -1.00, 38.8, 905.5)">.</text><text xml:space="preserve" font-family="TimesNewRomanPS-BoldMT,Times New Roman" font-weight="bold" font-size="46.0" fill="#000000" transform="matrix(1.00, 0.00, -0.00, -1.00, 50.3, 905.5)"> </text><text xml:space="preserve" font-family="TimesNewRomanPS-BoldMT,Times New Roman" font-weight="bold" font-size="46.0" fill="#000000" transform="matrix(1.00, 0.00, -0.00, -1.00, 61.8, 905.5)">S</text><text xml:space="preserve" font-family="TimesNewRomanPS-BoldMT,Times New Roman" font-weight="bold" font-size="46.0" fill="#000000" transform="matrix(1.00, 0.00, -0.00, -1.00, 87.4, 905.5)">e</text><text xml:space="preserve" font-family="TimesNewRomanPS-BoldMT,Times New Roman" font-weight="bold" font-size="46.0" fill="#000000" transform="matrix(1.00, 0.00, -0.00, -1.00, 107.8, 905.5)">g</text><text xml:space="preserve" font-family="TimesNewRomanPS-BoldMT,Times New Roman" font-weight="bold" font-size="46.0" fill="#000000" transform="matrix(1.00, 0.00, -0.00, -1.00, 130.8, 905.5)">m</text><text xml:space="preserve" font-family="TimesNewRomanPS-BoldMT,Times New Roman" font-weight="bold" font-size="46.0" fill="#000000" transform="matrix(1.00, 0.00, -0.00, -1.00, 169.1, 905.5)">e</text><text xml:space="preserve" font-family="TimesNewRomanPS-BoldMT,Times New Roman" font-weight="bold" font-size="46.0" fill="#000000" transform="matrix(1.00, 0.00, -0.00, -1.00, 189.5, 905.5)">n</text><text xml:space="preserve" font-family="TimesNewRomanPS-BoldMT,Times New Roman" font-weight="bold" font-size="46.0" fill="#000000" transform="matrix(1.00, 0.00, -0.00, -1.00, 215.1, 905.5)">t</text><text xml:space="preserve" font-family="TimesNewRomanPS-BoldMT,Times New Roman" font-weight="bold" font-size="46.0" fill="#000000" transform="matrix(1.00, 0.00, -0.00, -1.00, 230.4, 905.5)">a</text><text xml:space="preserve" font-family="TimesNewRomanPS-BoldMT,Times New Roman" font-weight="bold" font-size="46.0" fill="#000000" transform="matrix(1.00, 0.00, -0.00, -1.00, 253.4, 905.5)">t</text><text xml:space="preserve" font-family="TimesNewRomanPS-BoldMT,Times New Roman" font-weight="bold" font-size="46.0" fill="#000000" transform="matrix(1.00, 0.00, -0.00, -1.00, 268.7, 905.5)">i</text><text xml:space="preserve" font-family="TimesNewRomanPS-BoldMT,Times New Roman" font-weight="bold" font-size="46.0" fill="#000000" transform="matrix(1.00, 0.00, -0.00, -1.00, 281.5, 905.5)">o</text><text xml:space="preserve" font-family="TimesNewRomanPS-BoldMT,Times New Roman" font-weight="bold" font-size="46.0" fill="#000000" transform="matrix(1.00, 0.00, -0.00, -1.00, 304.5, 905.5)">n</text><image xlink:href="../../5F7523A2-A2E7-4915-A7BC-6F56E7258E50/assets/AE05DFFE9A3DB6626908D075E1E90F20.png" width="357.00" height="452.00" transform="matrix(1.48, 0.00, -0.00, -1.48, 29.2, 785.8)"></image><image xlink:href="../../5F7523A2-A2E7-4915-A7BC-6F56E7258E50/assets/E6D321462C416004CD34366CCBE9737F.png" width="1099.00" height="634.00" transform="matrix(0.72, 0.00, -0.00, -0.72, 624.5, 610.0)"></image><text xml:space="preserve" font-family="TimesNewRomanPSMT,Times New Roman" font-size="36.0" fill="#000000" transform="matrix(1.00, 0.00, -0.00, -1.00, 645.2, 794.9)">D</text><text xml:space="preserve" font-family="TimesNewRomanPSMT,Times New Roman" font-size="36.0" fill="#000000" transform="matrix(1.00, 0.00, -0.00, -1.00, 671.2, 794.9)">i</text><text xml:space="preserve" font-family="TimesNewRomanPSMT,Times New Roman" font-size="36.0" fill="#000000" transform="matrix(1.00, 0.00, -0.00, -1.00, 681.2, 794.9)">s</text><text xml:space="preserve" font-family="TimesNewRomanPSMT,Times New Roman" font-size="36.0" fill="#000000" transform="matrix(1.00, 0.00, -0.00, -1.00, 695.2, 794.9)">t</text><text xml:space="preserve" font-family="TimesNewRomanPSMT,Times New Roman" font-size="36.0" fill="#000000" transform="matrix(1.00, 0.00, -0.00, -1.00, 705.2, 794.9)">i</text><text xml:space="preserve" font-family="TimesNewRomanPSMT,Times New Roman" font-size="36.0" fill="#000000" transform="matrix(1.00, 0.00, -0.00, -1.00, 715.2, 794.9)">n</text><text xml:space="preserve" font-family="TimesNewRomanPSMT,Times New Roman" font-size="36.0" fill="#000000" transform="matrix(1.00, 0.00, -0.00, -1.00, 733.2, 794.9)">g</text><text xml:space="preserve" font-family="TimesNewRomanPSMT,Times New Roman" font-size="36.0" fill="#000000" transform="matrix(1.00, 0.00, -0.00, -1.00, 751.2, 794.9)">u</text><text xml:space="preserve" font-family="TimesNewRomanPSMT,Times New Roman" font-size="36.0" fill="#000000" transform="matrix(1.00, 0.00, -0.00, -1.00, 769.2, 794.9)">i</text><text xml:space="preserve" font-family="TimesNewRomanPSMT,Times New Roman" font-size="36.0" fill="#000000" transform="matrix(1.00, 0.00, -0.00, -1.00, 779.2, 794.9)">s</text><text xml:space="preserve" font-family="TimesNewRomanPSMT,Times New Roman" font-size="36.0" fill="#000000" transform="matrix(1.00, 0.00, -0.00, -1.00, 793.2, 794.9)">h</text><text xml:space="preserve" font-family="TimesNewRomanPSMT,Times New Roman" font-size="36.0" fill="#000000" transform="matrix(1.00, 0.00, -0.00, -1.00, 811.2, 794.9)">i</text><text xml:space="preserve" font-family="TimesNewRomanPSMT,Times New Roman" font-size="36.0" fill="#000000" transform="matrix(1.00, 0.00, -0.00, -1.00, 821.2, 794.9)">n</text><text xml:space="preserve" font-family="TimesNewRomanPSMT,Times New Roman" font-size="36.0" fill="#000000" transform="matrix(1.00, 0.00, -0.00, -1.00, 839.2, 794.9)">g</text><text xml:space="preserve" font-family="TimesNewRomanPSMT,Times New Roman" font-size="36.0" fill="#000000" transform="matrix(1.00, 0.00, -0.00, -1.00, 857.2, 794.9)"> </text><text xml:space="preserve" font-family="TimesNewRomanPSMT,Times New Roman" font-size="36.0" fill="#000000" transform="matrix(1.00, 0.00, -0.00, -1.00, 866.2, 794.9)">c</text><text xml:space="preserve" font-family="TimesNewRomanPSMT,Times New Roman" font-size="36.0" fill="#000000" transform="matrix(1.00, 0.00, -0.00, -1.00, 882.1, 794.9)">o</text><text xml:space="preserve" font-family="TimesNewRomanPSMT,Times New Roman" font-size="36.0" fill="#000000" transform="matrix(1.00, 0.00, -0.00, -1.00, 900.1, 794.9)">n</text><text xml:space="preserve" font-family="TimesNewRomanPSMT,Times New Roman" font-size="36.0" fill="#000000" transform="matrix(1.00, 0.00, -0.00, -1.00, 918.1, 794.9)">t</text><text xml:space="preserve" font-family="TimesNewRomanPSMT,Times New Roman" font-size="36.0" fill="#000000" transform="matrix(1.00, 0.00, -0.00, -1.00, 928.1, 794.9)">e</text><text xml:space="preserve" font-family="TimesNewRomanPSMT,Times New Roman" font-size="36.0" fill="#000000" transform="matrix(1.00, 0.00, -0.00, -1.00, 944.1, 794.9)">n</text><text xml:space="preserve" font-family="TimesNewRomanPSMT,Times New Roman" font-size="36.0" fill="#000000" transform="matrix(1.00, 0.00, -0.00, -1.00, 962.1, 794.9)">t</text><text xml:space="preserve" font-family="TimesNewRomanPSMT,Times New Roman" font-size="36.0" fill="#000000" transform="matrix(1.00, 0.00, -0.00, -1.00, 972.1, 794.9)"> </text><text xml:space="preserve" font-family="TimesNewRomanPSMT,Times New Roman" font-size="36.0" fill="#000000" transform="matrix(1.00, 0.00, -0.00, -1.00, 981.1, 794.9)">i</text><text xml:space="preserve" font-family="TimesNewRomanPSMT,Times New Roman" font-size="36.0" fill="#000000" transform="matrix(1.00, 0.00, -0.00, -1.00, 991.1, 794.9)">n</text><text xml:space="preserve" font-family="TimesNewRomanPSMT,Times New Roman" font-size="36.0" fill="#000000" transform="matrix(1.00, 0.00, -0.00, -1.00, 1009.1, 794.9)"> </text><text xml:space="preserve" font-family="TimesNewRomanPSMT,Times New Roman" font-size="36.0" fill="#000000" transform="matrix(1.00, 0.00, -0.00, -1.00, 1018.1, 794.9)">a</text><text xml:space="preserve" font-family="TimesNewRomanPSMT,Times New Roman" font-size="36.0" fill="#000000" transform="matrix(1.00, 0.00, -0.00, -1.00, 1034.1, 794.9)">n</text><text xml:space="preserve" font-family="TimesNewRomanPSMT,Times New Roman" font-size="36.0" fill="#000000" transform="matrix(1.00, 0.00, -0.00, -1.00, 1052.1, 794.9)"> </text><text xml:space="preserve" font-family="TimesNewRomanPSMT,Times New Roman" font-size="36.0" fill="#000000" transform="matrix(1.00, 0.00, -0.00, -1.00, 1061.1, 794.9)">i</text><text xml:space="preserve" font-family="TimesNewRomanPSMT,Times New Roman" font-size="36.0" fill="#000000" transform="matrix(1.00, 0.00, -0.00, -1.00, 1071.1, 794.9)">m</text><text xml:space="preserve" font-family="TimesNewRomanPSMT,Times New Roman" font-size="36.0" fill="#000000" transform="matrix(1.00, 0.00, -0.00, -1.00, 1099.1, 794.9)">a</text><text xml:space="preserve" font-family="TimesNewRomanPSMT,Times New Roman" font-size="36.0" fill="#000000" transform="matrix(1.00, 0.00, -0.00, -1.00, 1115.0, 794.9)">g</text><text xml:space="preserve" font-family="TimesNewRomanPSMT,Times New Roman" font-size="36.0" fill="#000000" transform="matrix(1.00, 0.00, -0.00, -1.00, 1133.0, 794.9)">e</text><text xml:space="preserve" font-family="TimesNewRomanPSMT,Times New Roman" font-size="36.0" fill="#000000" transform="matrix(1.00, 0.00, -0.00, -1.00, 1149.0, 794.9)">.</text><text xml:space="preserve" font-family="TimesNewRomanPSMT,Times New Roman" font-size="46.0" fill="#FFFFFF" transform="matrix(1.00, 0.00, -0.00, -1.00, 1158.1, 794.9)"> </text><text xml:space="preserve" font-family="TimesNewRomanPSMT,Times New Roman" font-size="36.0" fill="#000000" transform="matrix(1.00, 0.00, -0.00, -1.00, 645.2, 752.9)">T</text><text xml:space="preserve" font-family="TimesNewRomanPSMT,Times New Roman" font-size="36.0" fill="#000000" transform="matrix(1.00, 0.00, -0.00, -1.00, 667.1, 752.9)">h</text><text xml:space="preserve" font-family="TimesNewRomanPSMT,Times New Roman" font-size="36.0" fill="#000000" transform="matrix(1.00, 0.00, -0.00, -1.00, 685.1, 752.9)">i</text><text xml:space="preserve" font-family="TimesNewRomanPSMT,Times New Roman" font-size="36.0" fill="#000000" transform="matrix(1.00, 0.00, -0.00, -1.00, 695.1, 752.9)">s</text><text xml:space="preserve" font-family="TimesNewRomanPSMT,Times New Roman" font-size="36.0" fill="#000000" transform="matrix(1.00, 0.00, -0.00, -1.00, 709.1, 752.9)"> </text><text xml:space="preserve" font-family="TimesNewRomanPSMT,Times New Roman" font-size="36.0" fill="#000000" transform="matrix(1.00, 0.00, -0.00, -1.00, 718.1, 752.9)">a</text><text xml:space="preserve" font-family="TimesNewRomanPSMT,Times New Roman" font-size="36.0" fill="#000000" transform="matrix(1.00, 0.00, -0.00, -1.00, 734.1, 752.9)">l</text><text xml:space="preserve" font-family="TimesNewRomanPSMT,Times New Roman" font-size="36.0" fill="#000000" transform="matrix(1.00, 0.00, -0.00, -1.00, 744.1, 752.9)">s</text><text xml:space="preserve" font-family="TimesNewRomanPSMT,Times New Roman" font-size="36.0" fill="#000000" transform="matrix(1.00, 0.00, -0.00, -1.00, 758.1, 752.9)">o</text><text xml:space="preserve" font-family="TimesNewRomanPSMT,Times New Roman" font-size="36.0" fill="#000000" transform="matrix(1.00, 0.00, -0.00, -1.00, 776.1, 752.9)"> </text><text xml:space="preserve" font-family="TimesNewRomanPSMT,Times New Roman" font-size="36.0" fill="#000000" transform="matrix(1.00, 0.00, -0.00, -1.00, 785.1, 752.9)">i</text><text xml:space="preserve" font-family="TimesNewRomanPSMT,Times New Roman" font-size="36.0" fill="#000000" transform="matrix(1.00, 0.00, -0.00, -1.00, 795.1, 752.9)">m</text><text xml:space="preserve" font-family="TimesNewRomanPSMT,Times New Roman" font-size="36.0" fill="#000000" transform="matrix(1.00, 0.00, -0.00, -1.00, 823.1, 752.9)">p</text><text xml:space="preserve" font-family="TimesNewRomanPSMT,Times New Roman" font-size="36.0" fill="#000000" transform="matrix(1.00, 0.00, -0.00, -1.00, 841.1, 752.9)">l</text><text xml:space="preserve" font-family="TimesNewRomanPSMT,Times New Roman" font-size="36.0" fill="#000000" transform="matrix(1.00, 0.00, -0.00, -1.00, 851.1, 752.9)">i</text><text xml:space="preserve" font-family="TimesNewRomanPSMT,Times New Roman" font-size="36.0" fill="#000000" transform="matrix(1.00, 0.00, -0.00, -1.00, 861.1, 752.9)">e</text><text xml:space="preserve" font-family="TimesNewRomanPSMT,Times New Roman" font-size="36.0" fill="#000000" transform="matrix(1.00, 0.00, -0.00, -1.00, 877.1, 752.9)">s</text><text xml:space="preserve" font-family="TimesNewRomanPSMT,Times New Roman" font-size="36.0" fill="#000000" transform="matrix(1.00, 0.00, -0.00, -1.00, 891.1, 752.9)"> </text><text xml:space="preserve" font-family="TimesNewRomanPSMT,Times New Roman" font-size="36.0" fill="#000000" transform="matrix(1.00, 0.00, -0.00, -1.00, 900.1, 752.9)">d</text><text xml:space="preserve" font-family="TimesNewRomanPSMT,Times New Roman" font-size="36.0" fill="#000000" transform="matrix(1.00, 0.00, -0.00, -1.00, 918.1, 752.9)">e</text><text xml:space="preserve" font-family="TimesNewRomanPSMT,Times New Roman" font-size="36.0" fill="#000000" transform="matrix(1.00, 0.00, -0.00, -1.00, 934.1, 752.9)">t</text><text xml:space="preserve" font-family="TimesNewRomanPSMT,Times New Roman" font-size="36.0" fill="#000000" transform="matrix(1.00, 0.00, -0.00, -1.00, 944.1, 752.9)">e</text><text xml:space="preserve" font-family="TimesNewRomanPSMT,Times New Roman" font-size="36.0" fill="#000000" transform="matrix(1.00, 0.00, -0.00, -1.00, 960.0, 752.9)">r</text><text xml:space="preserve" font-family="TimesNewRomanPSMT,Times New Roman" font-size="36.0" fill="#000000" transform="matrix(1.00, 0.00, -0.00, -1.00, 972.0, 752.9)">m</text><text xml:space="preserve" font-family="TimesNewRomanPSMT,Times New Roman" font-size="36.0" fill="#000000" transform="matrix(1.00, 0.00, -0.00, -1.00, 1000.0, 752.9)">i</text><text xml:space="preserve" font-family="TimesNewRomanPSMT,Times New Roman" font-size="36.0" fill="#000000" transform="matrix(1.00, 0.00, -0.00, -1.00, 1010.0, 752.9)">n</text><text xml:space="preserve" font-family="TimesNewRomanPSMT,Times New Roman" font-size="36.0" fill="#000000" transform="matrix(1.00, 0.00, -0.00, -1.00, 1028.0, 752.9)">i</text><text xml:space="preserve" font-family="TimesNewRomanPSMT,Times New Roman" font-size="36.0" fill="#000000" transform="matrix(1.00, 0.00, -0.00, -1.00, 1038.0, 752.9)">n</text><text xml:space="preserve" font-family="TimesNewRomanPSMT,Times New Roman" font-size="36.0" fill="#000000" transform="matrix(1.00, 0.00, -0.00, -1.00, 1056.0, 752.9)">g</text><text xml:space="preserve" font-family="TimesNewRomanPSMT,Times New Roman" font-size="36.0" fill="#000000" transform="matrix(1.00, 0.00, -0.00, -1.00, 1074.0, 752.9)"> </text><text xml:space="preserve" font-family="TimesNewRomanPSMT,Times New Roman" font-size="36.0" fill="#000000" transform="matrix(1.00, 0.00, -0.00, -1.00, 1083.0, 752.9)">t</text><text xml:space="preserve" font-family="TimesNewRomanPSMT,Times New Roman" font-size="36.0" fill="#000000" transform="matrix(1.00, 0.00, -0.00, -1.00, 1093.0, 752.9)">h</text><text xml:space="preserve" font-family="TimesNewRomanPSMT,Times New Roman" font-size="36.0" fill="#000000" transform="matrix(1.00, 0.00, -0.00, -1.00, 1111.0, 752.9)">e</text><text xml:space="preserve" font-family="TimesNewRomanPSMT,Times New Roman" font-size="36.0" fill="#000000" transform="matrix(1.00, 0.00, -0.00, -1.00, 1127.0, 752.9)"> </text><text xml:space="preserve" font-family="TimesNewRomanPSMT,Times New Roman" font-size="36.0" fill="#000000" transform="matrix(1.00, 0.00, -0.00, -1.00, 1136.0, 752.9)">l</text><text xml:space="preserve" font-family="TimesNewRomanPSMT,Times New Roman" font-size="36.0" fill="#000000" transform="matrix(1.00, 0.00, -0.00, -1.00, 1146.0, 752.9)">o</text><text xml:space="preserve" font-family="TimesNewRomanPSMT,Times New Roman" font-size="36.0" fill="#000000" transform="matrix(1.00, 0.00, -0.00, -1.00, 1164.0, 752.9)">c</text><text xml:space="preserve" font-family="TimesNewRomanPSMT,Times New Roman" font-size="36.0" fill="#000000" transform="matrix(1.00, 0.00, -0.00, -1.00, 1179.9, 752.9)">a</text><text xml:space="preserve" font-family="TimesNewRomanPSMT,Times New Roman" font-size="36.0" fill="#000000" transform="matrix(1.00, 0.00, -0.00, -1.00, 1195.9, 752.9)">t</text><text xml:space="preserve" font-family="TimesNewRomanPSMT,Times New Roman" font-size="36.0" fill="#000000" transform="matrix(1.00, 0.00, -0.00, -1.00, 1205.9, 752.9)">i</text><text xml:space="preserve" font-family="TimesNewRomanPSMT,Times New Roman" font-size="36.0" fill="#000000" transform="matrix(1.00, 0.00, -0.00, -1.00, 1215.9, 752.9)">o</text><text xml:space="preserve" font-family="TimesNewRomanPSMT,Times New Roman" font-size="36.0" fill="#000000" transform="matrix(1.00, 0.00, -0.00, -1.00, 1233.9, 752.9)">n</text><text xml:space="preserve" font-family="TimesNewRomanPSMT,Times New Roman" font-size="36.0" fill="#000000" transform="matrix(1.00, 0.00, -0.00, -1.00, 1251.9, 752.9)"> </text><text xml:space="preserve" font-family="TimesNewRomanPSMT,Times New Roman" font-size="36.0" fill="#000000" transform="matrix(1.00, 0.00, -0.00, -1.00, 1260.9, 752.9)">o</text><text xml:space="preserve" font-family="TimesNewRomanPSMT,Times New Roman" font-size="36.0" fill="#000000" transform="matrix(1.00, 0.00, -0.00, -1.00, 1278.9, 752.9)">f</text><text xml:space="preserve" font-family="TimesNewRomanPSMT,Times New Roman" font-size="36.0" fill="#000000" transform="matrix(1.00, 0.00, -0.00, -1.00, 1290.9, 752.9)"> </text><text xml:space="preserve" font-family="TimesNewRomanPSMT,Times New Roman" font-size="36.0" fill="#000000" transform="matrix(1.00, 0.00, -0.00, -1.00, 1299.9, 752.9)">b</text><text xml:space="preserve" font-family="TimesNewRomanPSMT,Times New Roman" font-size="36.0" fill="#000000" transform="matrix(1.00, 0.00, -0.00, -1.00, 1317.9, 752.9)">o</text><text xml:space="preserve" font-family="TimesNewRomanPSMT,Times New Roman" font-size="36.0" fill="#000000" transform="matrix(1.00, 0.00, -0.00, -1.00, 1335.9, 752.9)">u</text><text xml:space="preserve" font-family="TimesNewRomanPSMT,Times New Roman" font-size="36.0" fill="#000000" transform="matrix(1.00, 0.00, -0.00, -1.00, 1353.9, 752.9)">n</text><text xml:space="preserve" font-family="TimesNewRomanPSMT,Times New Roman" font-size="36.0" fill="#000000" transform="matrix(1.00, 0.00, -0.00, -1.00, 1371.9, 752.9)">d</text><text xml:space="preserve" font-family="TimesNewRomanPSMT,Times New Roman" font-size="36.0" fill="#000000" transform="matrix(1.00, 0.00, -0.00, -1.00, 1389.9, 752.9)">a</text><text xml:space="preserve" font-family="TimesNewRomanPSMT,Times New Roman" font-size="36.0" fill="#000000" transform="matrix(1.00, 0.00, -0.00, -1.00, 1405.9, 752.9)">r</text><text xml:space="preserve" font-family="TimesNewRomanPSMT,Times New Roman" font-size="36.0" fill="#000000" transform="matrix(1.00, 0.00, -0.00, -1.00, 1417.8, 752.9)">i</text><text xml:space="preserve" font-family="TimesNewRomanPSMT,Times New Roman" font-size="36.0" fill="#000000" transform="matrix(1.00, 0.00, -0.00, -1.00, 1427.8, 752.9)">e</text><text xml:space="preserve" font-family="TimesNewRomanPSMT,Times New Roman" font-size="36.0" fill="#000000" transform="matrix(1.00, 0.00, -0.00, -1.00, 1443.8, 752.9)">s</text><text xml:space="preserve" font-family="TimesNewRomanPSMT,Times New Roman" font-size="36.0" fill="#000000" transform="matrix(1.00, 0.00, -0.00, -1.00, 1457.8, 752.9)"> </text><text xml:space="preserve" font-family="TimesNewRomanPSMT,Times New Roman" font-size="36.0" fill="#000000" transform="matrix(1.00, 0.00, -0.00, -1.00, 1466.8, 752.9)">o</text><text xml:space="preserve" font-family="TimesNewRomanPSMT,Times New Roman" font-size="36.0" fill="#000000" transform="matrix(1.00, 0.00, -0.00, -1.00, 1484.8, 752.9)">f</text><text xml:space="preserve" font-family="TimesNewRomanPSMT,Times New Roman" font-size="36.0" fill="#000000" transform="matrix(1.00, 0.00, -0.00, -1.00, 1496.8, 752.9)"> </text><text xml:space="preserve" font-family="TimesNewRomanPSMT,Times New Roman" font-size="36.0" fill="#000000" transform="matrix(1.00, 0.00, -0.00, -1.00, 645.2, 710.9)">i</text><text xml:space="preserve" font-family="TimesNewRomanPSMT,Times New Roman" font-size="36.0" fill="#000000" transform="matrix(1.00, 0.00, -0.00, -1.00, 655.1, 710.9)">n</text><text xml:space="preserve" font-family="TimesNewRomanPSMT,Times New Roman" font-size="36.0" fill="#000000" transform="matrix(1.00, 0.00, -0.00, -1.00, 673.1, 710.9)">d</text><text xml:space="preserve" font-family="TimesNewRomanPSMT,Times New Roman" font-size="36.0" fill="#000000" transform="matrix(1.00, 0.00, -0.00, -1.00, 691.1, 710.9)">i</text><text xml:space="preserve" font-family="TimesNewRomanPSMT,Times New Roman" font-size="36.0" fill="#000000" transform="matrix(1.00, 0.00, -0.00, -1.00, 701.1, 710.9)">v</text><text xml:space="preserve" font-family="TimesNewRomanPSMT,Times New Roman" font-size="36.0" fill="#000000" transform="matrix(1.00, 0.00, -0.00, -1.00, 719.1, 710.9)">i</text><text xml:space="preserve" font-family="TimesNewRomanPSMT,Times New Roman" font-size="36.0" fill="#000000" transform="matrix(1.00, 0.00, -0.00, -1.00, 729.1, 710.9)">d</text><text xml:space="preserve" font-family="TimesNewRomanPSMT,Times New Roman" font-size="36.0" fill="#000000" transform="matrix(1.00, 0.00, -0.00, -1.00, 747.1, 710.9)">u</text><text xml:space="preserve" font-family="TimesNewRomanPSMT,Times New Roman" font-size="36.0" fill="#000000" transform="matrix(1.00, 0.00, -0.00, -1.00, 765.1, 710.9)">a</text><text xml:space="preserve" font-family="TimesNewRomanPSMT,Times New Roman" font-size="36.0" fill="#000000" transform="matrix(1.00, 0.00, -0.00, -1.00, 781.1, 710.9)">l</text><text xml:space="preserve" font-family="TimesNewRomanPSMT,Times New Roman" font-size="36.0" fill="#000000" transform="matrix(1.00, 0.00, -0.00, -1.00, 791.1, 710.9)"> </text><text xml:space="preserve" font-family="TimesNewRomanPSMT,Times New Roman" font-size="36.0" fill="#000000" transform="matrix(1.00, 0.00, -0.00, -1.00, 800.1, 710.9)">s</text><text xml:space="preserve" font-family="TimesNewRomanPSMT,Times New Roman" font-size="36.0" fill="#000000" transform="matrix(1.00, 0.00, -0.00, -1.00, 814.1, 710.9)">t</text><text xml:space="preserve" font-family="TimesNewRomanPSMT,Times New Roman" font-size="36.0" fill="#000000" transform="matrix(1.00, 0.00, -0.00, -1.00, 824.1, 710.9)">r</text><text xml:space="preserve" font-family="TimesNewRomanPSMT,Times New Roman" font-size="36.0" fill="#000000" transform="matrix(1.00, 0.00, -0.00, -1.00, 836.1, 710.9)">u</text><text xml:space="preserve" font-family="TimesNewRomanPSMT,Times New Roman" font-size="36.0" fill="#000000" transform="matrix(1.00, 0.00, -0.00, -1.00, 854.1, 710.9)">c</text><text xml:space="preserve" font-family="TimesNewRomanPSMT,Times New Roman" font-size="36.0" fill="#000000" transform="matrix(1.00, 0.00, -0.00, -1.00, 870.1, 710.9)">t</text><text xml:space="preserve" font-family="TimesNewRomanPSMT,Times New Roman" font-size="36.0" fill="#000000" transform="matrix(1.00, 0.00, -0.00, -1.00, 880.1, 710.9)">u</text><text xml:space="preserve" font-family="TimesNewRomanPSMT,Times New Roman" font-size="36.0" fill="#000000" transform="matrix(1.00, 0.00, -0.00, -1.00, 898.1, 710.9)">r</text><text xml:space="preserve" font-family="TimesNewRomanPSMT,Times New Roman" font-size="36.0" fill="#000000" transform="matrix(1.00, 0.00, -0.00, -1.00, 910.1, 710.9)">e</text><text xml:space="preserve" font-family="TimesNewRomanPSMT,Times New Roman" font-size="36.0" fill="#000000" transform="matrix(1.00, 0.00, -0.00, -1.00, 926.0, 710.9)">s</text><text xml:space="preserve" font-family="TimesNewRomanPSMT,Times New Roman" font-size="36.0" fill="#000000" transform="matrix(1.00, 0.00, -0.00, -1.00, 940.0, 710.9)"> </text><text xml:space="preserve" font-family="TimesNewRomanPSMT,Times New Roman" font-size="36.0" fill="#000000" transform="matrix(1.00, 0.00, -0.00, -1.00, 949.0, 710.9)">i</text><text xml:space="preserve" font-family="TimesNewRomanPSMT,Times New Roman" font-size="36.0" fill="#000000" transform="matrix(1.00, 0.00, -0.00, -1.00, 959.0, 710.9)">n</text><text xml:space="preserve" font-family="TimesNewRomanPSMT,Times New Roman" font-size="36.0" fill="#000000" transform="matrix(1.00, 0.00, -0.00, -1.00, 977.0, 710.9)"> </text><text xml:space="preserve" font-family="TimesNewRomanPSMT,Times New Roman" font-size="36.0" fill="#000000" transform="matrix(1.00, 0.00, -0.00, -1.00, 986.0, 710.9)">t</text><text xml:space="preserve" font-family="TimesNewRomanPSMT,Times New Roman" font-size="36.0" fill="#000000" transform="matrix(1.00, 0.00, -0.00, -1.00, 996.0, 710.9)">h</text><text xml:space="preserve" font-family="TimesNewRomanPSMT,Times New Roman" font-size="36.0" fill="#000000" transform="matrix(1.00, 0.00, -0.00, -1.00, 1014.0, 710.9)">e</text><text xml:space="preserve" font-family="TimesNewRomanPSMT,Times New Roman" font-size="36.0" fill="#000000" transform="matrix(1.00, 0.00, -0.00, -1.00, 1030.0, 710.9)"> </text><text xml:space="preserve" font-family="TimesNewRomanPSMT,Times New Roman" font-size="36.0" fill="#000000" transform="matrix(1.00, 0.00, -0.00, -1.00, 1039.0, 710.9)">i</text><text xml:space="preserve" font-family="TimesNewRomanPSMT,Times New Roman" font-size="36.0" fill="#000000" transform="matrix(1.00, 0.00, -0.00, -1.00, 1049.0, 710.9)">m</text><text xml:space="preserve" font-family="TimesNewRomanPSMT,Times New Roman" font-size="36.0" fill="#000000" transform="matrix(1.00, 0.00, -0.00, -1.00, 1077.0, 710.9)">a</text><text xml:space="preserve" font-family="TimesNewRomanPSMT,Times New Roman" font-size="36.0" fill="#000000" transform="matrix(1.00, 0.00, -0.00, -1.00, 1093.0, 710.9)">g</text><text xml:space="preserve" font-family="TimesNewRomanPSMT,Times New Roman" font-size="36.0" fill="#000000" transform="matrix(1.00, 0.00, -0.00, -1.00, 1111.0, 710.9)">e</text><text xml:space="preserve" font-family="TimesNewRomanPSMT,Times New Roman" font-size="36.0" fill="#000000" transform="matrix(1.00, 0.00, -0.00, -1.00, 1126.9, 710.9)">,</text><text xml:space="preserve" font-family="TimesNewRomanPSMT,Times New Roman" font-size="36.0" fill="#000000" transform="matrix(1.00, 0.00, -0.00, -1.00, 1135.9, 710.9)"> </text><text xml:space="preserve" font-family="TimesNewRomanPSMT,Times New Roman" font-size="36.0" fill="#000000" transform="matrix(1.00, 0.00, -0.00, -1.00, 1144.9, 710.9)">b</text><text xml:space="preserve" font-family="TimesNewRomanPSMT,Times New Roman" font-size="36.0" fill="#000000" transform="matrix(1.00, 0.00, -0.00, -1.00, 1162.9, 710.9)">e</text><text xml:space="preserve" font-family="TimesNewRomanPSMT,Times New Roman" font-size="36.0" fill="#000000" transform="matrix(1.00, 0.00, -0.00, -1.00, 1178.9, 710.9)">y</text><text xml:space="preserve" font-family="TimesNewRomanPSMT,Times New Roman" font-size="36.0" fill="#000000" transform="matrix(1.00, 0.00, -0.00, -1.00, 1196.9, 710.9)">o</text><text xml:space="preserve" font-family="TimesNewRomanPSMT,Times New Roman" font-size="36.0" fill="#000000" transform="matrix(1.00, 0.00, -0.00, -1.00, 1214.9, 710.9)">n</text><text xml:space="preserve" font-family="TimesNewRomanPSMT,Times New Roman" font-size="36.0" fill="#000000" transform="matrix(1.00, 0.00, -0.00, -1.00, 1232.9, 710.9)">d</text><text xml:space="preserve" font-family="TimesNewRomanPSMT,Times New Roman" font-size="36.0" fill="#000000" transform="matrix(1.00, 0.00, -0.00, -1.00, 1250.9, 710.9)"> </text><text xml:space="preserve" font-family="TimesNewRomanPSMT,Times New Roman" font-size="36.0" fill="#000000" transform="matrix(1.00, 0.00, -0.00, -1.00, 1259.9, 710.9)">v</text><text xml:space="preserve" font-family="TimesNewRomanPSMT,Times New Roman" font-size="36.0" fill="#000000" transform="matrix(1.00, 0.00, -0.00, -1.00, 1277.9, 710.9)">o</text><text xml:space="preserve" font-family="TimesNewRomanPSMT,Times New Roman" font-size="36.0" fill="#000000" transform="matrix(1.00, 0.00, -0.00, -1.00, 1295.9, 710.9)">x</text><text xml:space="preserve" font-family="TimesNewRomanPSMT,Times New Roman" font-size="36.0" fill="#000000" transform="matrix(1.00, 0.00, -0.00, -1.00, 1313.9, 710.9)">e</text><text xml:space="preserve" font-family="TimesNewRomanPSMT,Times New Roman" font-size="36.0" fill="#000000" transform="matrix(1.00, 0.00, -0.00, -1.00, 1329.9, 710.9)">l</text><text xml:space="preserve" font-family="TimesNewRomanPSMT,Times New Roman" font-size="36.0" fill="#000000" transform="matrix(1.00, 0.00, -0.00, -1.00, 1339.9, 710.9)"> </text><text xml:space="preserve" font-family="TimesNewRomanPSMT,Times New Roman" font-size="36.0" fill="#000000" transform="matrix(1.00, 0.00, -0.00, -1.00, 1348.9, 710.9)">c</text><text xml:space="preserve" font-family="TimesNewRomanPSMT,Times New Roman" font-size="36.0" fill="#000000" transform="matrix(1.00, 0.00, -0.00, -1.00, 1364.8, 710.9)">l</text><text xml:space="preserve" font-family="TimesNewRomanPSMT,Times New Roman" font-size="36.0" fill="#000000" transform="matrix(1.00, 0.00, -0.00, -1.00, 1374.8, 710.9)">a</text><text xml:space="preserve" font-family="TimesNewRomanPSMT,Times New Roman" font-size="36.0" fill="#000000" transform="matrix(1.00, 0.00, -0.00, -1.00, 1390.8, 710.9)">s</text><text xml:space="preserve" font-family="TimesNewRomanPSMT,Times New Roman" font-size="36.0" fill="#000000" transform="matrix(1.00, 0.00, -0.00, -1.00, 1404.8, 710.9)">s</text><text xml:space="preserve" font-family="TimesNewRomanPSMT,Times New Roman" font-size="36.0" fill="#000000" transform="matrix(1.00, 0.00, -0.00, -1.00, 1418.8, 710.9)">i</text><text xml:space="preserve" font-family="TimesNewRomanPSMT,Times New Roman" font-size="36.0" fill="#000000" transform="matrix(1.00, 0.00, -0.00, -1.00, 1428.8, 710.9)">f</text><text xml:space="preserve" font-family="TimesNewRomanPSMT,Times New Roman" font-size="36.0" fill="#000000" transform="matrix(1.00, 0.00, -0.00, -1.00, 1440.8, 710.9)">i</text><text xml:space="preserve" font-family="TimesNewRomanPSMT,Times New Roman" font-size="36.0" fill="#000000" transform="matrix(1.00, 0.00, -0.00, -1.00, 1450.8, 710.9)">c</text><text xml:space="preserve" font-family="TimesNewRomanPSMT,Times New Roman" font-size="36.0" fill="#000000" transform="matrix(1.00, 0.00, -0.00, -1.00, 1466.8, 710.9)">a</text><text xml:space="preserve" font-family="TimesNewRomanPSMT,Times New Roman" font-size="36.0" fill="#000000" transform="matrix(1.00, 0.00, -0.00, -1.00, 1482.8, 710.9)">t</text><text xml:space="preserve" font-family="TimesNewRomanPSMT,Times New Roman" font-size="36.0" fill="#000000" transform="matrix(1.00, 0.00, -0.00, -1.00, 1492.8, 710.9)">i</text><text xml:space="preserve" font-family="TimesNewRomanPSMT,Times New Roman" font-size="36.0" fill="#000000" transform="matrix(1.00, 0.00, -0.00, -1.00, 1502.8, 710.9)">o</text><text xml:space="preserve" font-family="TimesNewRomanPSMT,Times New Roman" font-size="36.0" fill="#000000" transform="matrix(1.00, 0.00, -0.00, -1.00, 1520.8, 710.9)">n</text><text xml:space="preserve" font-family="TimesNewRomanPSMT,Times New Roman" font-size="36.0" fill="#000000" transform="matrix(1.00, 0.00, -0.00, -1.00, 1538.8, 710.9)">.</text><g><clipPath id="clip0x7f9d653cbf10"><path d="M 651.4 168.9 L 1444.4 168.9 L 1444.4 626.9 L 651.4 626.9 Z M 651.4 168.9 "></path></clipPath><g clip-path="url(#clip0x7f9d653cbf10)"><path d="M 651.4 626.9 L 1444.4 626.9 L 1444.4 168.9 L 651.4 168.9 Z M 651.4 626.9 " fill="#FEFFFF" fill-opacity="0.00"></path></g></g><g><clipPath id="clip0x7f9d653cd160"><path d="M 651.9 625.9 L 1443.9 625.9 L 1443.9 168.9 L 651.9 168.9 Z M 651.9 625.9 "></path></clipPath><g clip-path="url(#clip0x7f9d653cd160)"><g><clipPath id="clip0x7f9d653cd8a0"><path d="M 651.9 168.9 L 1443.9 168.9 L 1443.9 625.9 L 651.9 625.9 Z M 651.9 168.9 "></path></clipPath><g clip-path="url(#clip0x7f9d653cd8a0)"><path d="M 651.9 168.9 L 1443.9 168.9 L 1443.9 625.9 L 651.9 625.9 Z M 651.9 168.9 " fill="#000000" fill-opacity="0.00"></path></g></g></g></g><g><clipPath id="clip0x7f9d653ce900"><path d="M 651.9 625.9 L 1443.9 625.9 L 1443.9 168.9 L 651.9 168.9 Z M 651.9 625.9 "></path></clipPath><g clip-path="url(#clip0x7f9d653ce900)"><g><clipPath id="clip0x7f9d653cf060"><path d="M 651.9 172.9 L 1023.8 172.9 L 1023.8 614.9 L 651.9 614.9 Z M 651.9 172.9 "></path></clipPath><g clip-path="url(#clip0x7f9d653cf060)"><image xlink:href="../../5F7523A2-A2E7-4915-A7BC-6F56E7258E50/assets/492497924AA3FF08BE9C1C24CCFB2007.png" width="668.00" height="893.00" transform="matrix(0.56, 0.00, -0.00, -0.56, 651.9, 668.9)"></image></g></g></g></g><g><clipPath id="clip0x7f9d65d40580"><path d="M 651.9 625.9 L 1443.9 625.9 L 1443.9 168.9 L 651.9 168.9 Z M 651.9 625.9 "></path></clipPath><g clip-path="url(#clip0x7f9d65d40580)"><g><clipPath id="clip0x7f9d65d474e0"><path d="M 651.9 168.9 L 1443.9 168.9 L 1443.9 625.9 L 651.9 625.9 Z M 651.9 168.9 "></path></clipPath><g clip-path="url(#clip0x7f9d65d474e0)"><image xlink:href="../../5F7523A2-A2E7-4915-A7BC-6F56E7258E50/assets/2EE77192617A4FD8167B3F9A3C47D61F.png" width="664.00" height="815.00" transform="matrix(0.56, 0.00, -0.00, -0.56, 1071.7, 625.9)"></image></g></g></g></g></g></svg>