<?xml version="1.0" encoding="UTF-8" standalone="no"?><svg xmlns="http://www.w3.org/2000/svg" xmlns:xlink="http://www.w3.org/1999/xlink" clip-rule="evenodd" stroke-miterlimit="10" viewBox="0 0 1024 768"><desc>SVG generated by Keynote</desc><defs></defs><g transform="matrix(1.00, 0.00, -0.00, -1.00, 0.0, 768.0)"><path d="M 0.0 768.0 L 1024.0 768.0 L 1024.0 0.0 L 0.0 0.0 Z M 0.0 768.0 " fill="#FEFFFF"></path><g><clipPath id="clip0x60000b2b0080"><path d="M 433.0 699.0 L 591.0 699.0 L 591.0 759.0 L 433.0 759.0 Z M 433.0 699.0 "></path></clipPath><g clip-path="url(#clip0x60000b2b0080)"><image xlink:href="../../5FB20884-37B2-4313-A05C-172F932F094B/assets/546EE277C2A67DFC60D3E28E3956A6F6.png" width="158.00" height="60.00" transform="matrix(1.00, 0.00, -0.00, -1.00, 433.0, 759.0)"></image></g></g><g><clipPath id="clip0x60000b2b00e0"><path d="M 15.0 691.5 L 1009.0 691.5 L 1009.0 694.5 L 15.0 694.5 Z M 15.0 691.5 "></path></clipPath><g clip-path="url(#clip0x60000b2b00e0)"><path d="M 0.0 0.5 L 992.0 0.5 " fill="none" stroke="#CACACA" stroke-width="1.00" transform="matrix(1.00, 0.00, 0.00, -1.00, 16.0, 693.0)"></path></g></g><path d="M 0.5 767.5 L 1024.5 767.5 L 1024.5 -0.5 L 0.5 -0.5 Z M 0.0 768.0 " fill="#FEFFFF"></path><path d="M 0.5 0.5 L 1024.5 0.5 L 1024.5 768.5 L 0.5 768.5 Z M 0.0 0.0 " fill="none" stroke="#000000" stroke-width="1.00" transform="matrix(1.00, 0.00, 0.00, -1.00, 0.0, 768.0)"></path><g><clipPath id="clip0x60000b2b0680"><path d="M 433.0 699.0 L 591.0 699.0 L 591.0 759.0 L 433.0 759.0 Z M 433.0 699.0 "></path></clipPath><g clip-path="url(#clip0x60000b2b0680)"><image xlink:href="../../5FB20884-37B2-4313-A05C-172F932F094B/assets/546EE277C2A67DFC60D3E28E3956A6F6.png" width="158.00" height="60.00" transform="matrix(1.00, 0.00, -0.00, -1.00, 433.0, 759.0)"></image></g></g><g><clipPath id="clip0x60000b2b06e0"><path d="M 15.0 691.5 L 1009.0 691.5 L 1009.0 694.5 L 15.0 694.5 Z M 15.0 691.5 "></path></clipPath><g clip-path="url(#clip0x60000b2b06e0)"><path d="M 0.0 0.5 L 992.0 0.5 " fill="none" stroke="#CACACA" stroke-width="1.00" transform="matrix(1.00, 0.00, 0.00, -1.00, 16.0, 693.0)"></path></g></g><text xml:space="preserve" font-family="Arial-BoldMT,Arial" font-weight="bold" font-size="24.0" fill="#000000" transform="matrix(1.00, 0.00, -0.00, -1.00, 41.0, 645.9)">v</text><text xml:space="preserve" font-family="Arial-BoldMT,Arial" font-weight="bold" font-size="24.0" fill="#000000" transform="matrix(1.00, 0.00, -0.00, -1.00, 54.4, 645.9)">m</text><text xml:space="preserve" font-family="Arial-BoldMT,Arial" font-weight="bold" font-size="24.0" fill="#000000" transform="matrix(1.00, 0.00, -0.00, -1.00, 75.7, 645.9)">t</text><text xml:space="preserve" font-family="Arial-BoldMT,Arial" font-weight="bold" font-size="24.0" fill="#000000" transform="matrix(1.00, 0.00, -0.00, -1.00, 83.7, 645.9)">k</text><text xml:space="preserve" font-family="Arial-BoldMT,Arial" font-weight="bold" font-size="24.0" fill="#000000" transform="matrix(1.00, 0.00, -0.00, -1.00, 97.0, 645.9)">m</text><text xml:space="preserve" font-family="Arial-BoldMT,Arial" font-weight="bold" font-size="24.0" fill="#000000" transform="matrix(1.00, 0.00, -0.00, -1.00, 118.4, 645.9)">e</text><text xml:space="preserve" font-family="Arial-BoldMT,Arial" font-weight="bold" font-size="24.0" fill="#000000" transform="matrix(1.00, 0.00, -0.00, -1.00, 131.7, 645.9)">s</text><text xml:space="preserve" font-family="Arial-BoldMT,Arial" font-weight="bold" font-size="24.0" fill="#000000" transform="matrix(1.00, 0.00, -0.00, -1.00, 145.1, 645.9)">h</text><text xml:space="preserve" font-family="Arial-BoldMT,Arial" font-weight="bold" font-size="24.0" fill="#000000" transform="matrix(1.00, 0.00, -0.00, -1.00, 159.7, 645.9)">l</text><text xml:space="preserve" font-family="Arial-BoldMT,Arial" font-weight="bold" font-size="24.0" fill="#000000" transform="matrix(1.00, 0.00, -0.00, -1.00, 166.4, 645.9)">a</text><text xml:space="preserve" font-family="Arial-BoldMT,Arial" font-weight="bold" font-size="24.0" fill="#000000" transform="matrix(1.00, 0.00, -0.00, -1.00, 179.8, 645.9)">m</text><text xml:space="preserve" font-family="Arial-BoldMT,Arial" font-weight="bold" font-size="24.0" fill="#000000" transform="matrix(1.00, 0.00, -0.00, -1.00, 201.1, 645.9)">b</text><text xml:space="preserve" font-family="Arial-BoldMT,Arial" font-weight="bold" font-size="24.0" fill="#000000" transform="matrix(1.00, 0.00, -0.00, -1.00, 215.8, 645.9)">d</text><text xml:space="preserve" font-family="Arial-BoldMT,Arial" font-weight="bold" font-size="24.0" fill="#000000" transform="matrix(1.00, 0.00, -0.00, -1.00, 230.4, 645.9)">a</text><text xml:space="preserve" font-family="Arial-BoldMT,Arial" font-weight="bold" font-size="24.0" fill="#000000" transform="matrix(1.00, 0.00, -0.00, -1.00, 243.8, 645.9)">2</text><g><clipPath id="clip0x60000b2b1100"><path d="M 40.0 587.0 L 624.0 587.0 L 624.0 65.0 L 40.0 65.0 Z M 40.0 586.7 "></path></clipPath><g clip-path="url(#clip0x60000b2b1100)"><image xlink:href="../../3EB13E66-7584-4124-8D6F-840113A1E13A/assets/E0CE8CA42637996C67CF3D5056A8EC63.png" width="800.00" height="633.00" transform="matrix(0.82, 0.00, -0.00, -0.82, 13.9, 586.7)"></image></g></g><g><clipPath id="clip0x60800aeb0f20"><path d="M 634.3 64.7 L 984.4 64.7 L 984.4 586.7 L 634.3 586.7 Z M 634.3 64.7 "></path></clipPath><g clip-path="url(#clip0x60800aeb0f20)"><image xlink:href="../../3EB13E66-7584-4124-8D6F-840113A1E13A/assets/C9E0E4A175B6277D51005491DD3F885F.png" width="481.00" height="717.00" transform="matrix(0.73, 0.00, -0.00, -0.73, 634.3, 586.7)"></image></g></g></g></svg>