<?xml version="1.0" encoding="UTF-8" standalone="no"?>
<!DOCTYPE svg PUBLIC "-//W3C//DTD SVG 1.1//EN"
 "http://www.w3.org/Graphics/SVG/1.1/DTD/svg11.dtd">
<!-- Generated by graphviz version 2.38.0 (20140413.2041)
 -->
<!-- Title: vtkvmtkStencils Pages: 1 -->
<svg width="118pt" height="137pt"
 viewBox="0.00 0.00 118.47 137.00" xmlns="http://www.w3.org/2000/svg" xmlns:xlink="http://www.w3.org/1999/xlink">
<g id="graph0" class="graph" transform="scale(1 1) rotate(0) translate(4 133)">
<title>vtkvmtkStencils</title>
<polygon fill="white" stroke="none" points="-4,4 -4,-133 114.468,-133 114.468,4 -4,4"/>
<!-- Node0 -->
<g id="node1" class="node"><title>Node0</title>
<polygon fill="#bfbfbf" stroke="black" points="12.7832,-0.5 12.7832,-18.5 97.6846,-18.5 97.6846,-0.5 12.7832,-0.5"/>
<text text-anchor="middle" x="55.2339" y="-6.5" font-family="Helvetica,sans-Serif" font-size="10.00">vtkvmtkStencils</text>
</g>
<!-- Node1 -->
<g id="node2" class="node"><title>Node1</title>
<g id="a_node2"><a xlink:href="classvtkvmtkDataSetItems.html" target="_top" xlink:title="Create a collection of data set items, one for every point within the data set. ">
<polygon fill="white" stroke="black" points="0,-55.5 0,-73.5 110.468,-73.5 110.468,-55.5 0,-55.5"/>
<text text-anchor="middle" x="55.2339" y="-61.5" font-family="Helvetica,sans-Serif" font-size="10.00">vtkvmtkDataSetItems</text>
</a>
</g>
</g>
<!-- Node1&#45;&gt;Node0 -->
<g id="edge1" class="edge"><title>Node1&#45;&gt;Node0</title>
<path fill="none" stroke="midnightblue" d="M55.2339,-45.1746C55.2339,-36.0945 55.2339,-25.5949 55.2339,-18.5496"/>
<polygon fill="midnightblue" stroke="midnightblue" points="51.734,-45.2187 55.2339,-55.2188 58.734,-45.2188 51.734,-45.2187"/>
</g>
<!-- Node2 -->
<g id="node3" class="node"><title>Node2</title>
<g id="a_node3"><a xlink:href="classvtkvmtkItems.html" target="_top" xlink:title="Control allocation and memory footprint of item instances. ">
<polygon fill="white" stroke="black" points="18.0664,-110.5 18.0664,-128.5 92.4014,-128.5 92.4014,-110.5 18.0664,-110.5"/>
<text text-anchor="middle" x="55.2339" y="-116.5" font-family="Helvetica,sans-Serif" font-size="10.00">vtkvmtkItems</text>
</a>
</g>
</g>
<!-- Node2&#45;&gt;Node1 -->
<g id="edge2" class="edge"><title>Node2&#45;&gt;Node1</title>
<path fill="none" stroke="midnightblue" d="M55.2339,-100.175C55.2339,-91.0945 55.2339,-80.5949 55.2339,-73.5496"/>
<polygon fill="midnightblue" stroke="midnightblue" points="51.734,-100.219 55.2339,-110.219 58.734,-100.219 51.734,-100.219"/>
</g>
</g>
</svg>
