<?xml version="1.0" encoding="UTF-8" standalone="no"?>
<!DOCTYPE svg PUBLIC "-//W3C//DTD SVG 1.1//EN"
 "http://www.w3.org/Graphics/SVG/1.1/DTD/svg11.dtd">
<!-- Generated by graphviz version 2.38.0 (20140413.2041)
 -->
<!-- Title: vtkvmtkNeighborhood Pages: 1 -->
<svg width="121pt" height="192pt"
 viewBox="0.00 0.00 120.71 192.00" xmlns="http://www.w3.org/2000/svg" xmlns:xlink="http://www.w3.org/1999/xlink">
<g id="graph0" class="graph" transform="scale(1 1) rotate(0) translate(4 188)">
<title>vtkvmtkNeighborhood</title>
<polygon fill="white" stroke="none" points="-4,4 -4,-188 116.714,-188 116.714,4 -4,4"/>
<!-- Node18 -->
<g id="node1" class="node"><title>Node18</title>
<polygon fill="#bfbfbf" stroke="black" points="0,-0.5 0,-18.5 112.714,-18.5 112.714,-0.5 0,-0.5"/>
<text text-anchor="middle" x="56.3569" y="-6.5" font-family="Helvetica,sans-Serif" font-size="10.00">vtkvmtkNeighborhood</text>
</g>
<!-- Node19 -->
<g id="node2" class="node"><title>Node19</title>
<g id="a_node2"><a xlink:href="classvtkvmtkDataSetItem.html" target="_top" xlink:title="create an item instance with a data set and particular point id. ">
<polygon fill="white" stroke="black" points="3.62305,-55.5 3.62305,-73.5 109.091,-73.5 109.091,-55.5 3.62305,-55.5"/>
<text text-anchor="middle" x="56.3569" y="-61.5" font-family="Helvetica,sans-Serif" font-size="10.00">vtkvmtkDataSetItem</text>
</a>
</g>
</g>
<!-- Node19&#45;&gt;Node18 -->
<g id="edge1" class="edge"><title>Node19&#45;&gt;Node18</title>
<path fill="none" stroke="midnightblue" d="M56.3569,-45.1746C56.3569,-36.0945 56.3569,-25.5949 56.3569,-18.5496"/>
<polygon fill="midnightblue" stroke="midnightblue" points="52.857,-45.2187 56.3569,-55.2188 59.857,-45.2188 52.857,-45.2187"/>
</g>
<!-- Node20 -->
<g id="node3" class="node"><title>Node20</title>
<g id="a_node3"><a xlink:href="classvtkvmtkItem.html" target="_top" xlink:title="Base class for the construction of neighborhoods and stencil from a set of points. ">
<polygon fill="white" stroke="black" points="21.6895,-110.5 21.6895,-128.5 91.0244,-128.5 91.0244,-110.5 21.6895,-110.5"/>
<text text-anchor="middle" x="56.3569" y="-116.5" font-family="Helvetica,sans-Serif" font-size="10.00">vtkvmtkItem</text>
</a>
</g>
</g>
<!-- Node20&#45;&gt;Node19 -->
<g id="edge2" class="edge"><title>Node20&#45;&gt;Node19</title>
<path fill="none" stroke="midnightblue" d="M56.3569,-100.175C56.3569,-91.0945 56.3569,-80.5949 56.3569,-73.5496"/>
<polygon fill="midnightblue" stroke="midnightblue" points="52.857,-100.219 56.3569,-110.219 59.857,-100.219 52.857,-100.219"/>
</g>
<!-- Node21 -->
<g id="node4" class="node"><title>Node21</title>
<polygon fill="white" stroke="#bfbfbf" points="27.5171,-165.5 27.5171,-183.5 85.1968,-183.5 85.1968,-165.5 27.5171,-165.5"/>
<text text-anchor="middle" x="56.3569" y="-171.5" font-family="Helvetica,sans-Serif" font-size="10.00">vtkObject</text>
</g>
<!-- Node21&#45;&gt;Node20 -->
<g id="edge3" class="edge"><title>Node21&#45;&gt;Node20</title>
<path fill="none" stroke="midnightblue" d="M56.3569,-155.175C56.3569,-146.094 56.3569,-135.595 56.3569,-128.55"/>
<polygon fill="midnightblue" stroke="midnightblue" points="52.857,-155.219 56.3569,-165.219 59.857,-155.219 52.857,-155.219"/>
</g>
</g>
</svg>
