<?xml version="1.0" encoding="UTF-8" standalone="no"?>
<!DOCTYPE svg PUBLIC "-//W3C//DTD SVG 1.1//EN"
 "http://www.w3.org/Graphics/SVG/1.1/DTD/svg11.dtd">
<!-- Generated by graphviz version 2.38.0 (20140413.2041)
 -->
<!-- Title: vtkvmtkOpenNLLinearSystemSolver Pages: 1 -->
<svg width="156pt" height="147pt"
 viewBox="0.00 0.00 156.27 147.00" xmlns="http://www.w3.org/2000/svg" xmlns:xlink="http://www.w3.org/1999/xlink">
<g id="graph0" class="graph" transform="scale(1 1) rotate(0) translate(4 143)">
<title>vtkvmtkOpenNLLinearSystemSolver</title>
<polygon fill="white" stroke="none" points="-4,4 -4,-143 152.271,-143 152.271,4 -4,4"/>
<!-- Node0 -->
<g id="node1" class="node"><title>Node0</title>
<polygon fill="#bfbfbf" stroke="black" points="0,-0.5 0,-28.5 148.271,-28.5 148.271,-0.5 0,-0.5"/>
<text text-anchor="start" x="8" y="-16.5" font-family="Helvetica,sans-Serif" font-size="10.00">vtkvmtkOpenNLLinearSystem</text>
<text text-anchor="middle" x="74.1353" y="-6.5" font-family="Helvetica,sans-Serif" font-size="10.00">Solver</text>
</g>
<!-- Node1 -->
<g id="node2" class="node"><title>Node1</title>
<g id="a_node2"><a xlink:href="classvtkvmtkLinearSystemSolver.html" target="_top" xlink:title="Base class for linear system of equation solver implementations. ">
<polygon fill="white" stroke="black" points="4.45068,-65.5 4.45068,-83.5 143.82,-83.5 143.82,-65.5 4.45068,-65.5"/>
<text text-anchor="middle" x="74.1353" y="-71.5" font-family="Helvetica,sans-Serif" font-size="10.00">vtkvmtkLinearSystemSolver</text>
</a>
</g>
</g>
<!-- Node1&#45;&gt;Node0 -->
<g id="edge1" class="edge"><title>Node1&#45;&gt;Node0</title>
<path fill="none" stroke="midnightblue" d="M74.1353,-55.3209C74.1353,-46.747 74.1353,-36.6999 74.1353,-28.8428"/>
<polygon fill="midnightblue" stroke="midnightblue" points="70.6354,-55.4353 74.1353,-65.4353 77.6354,-55.4354 70.6354,-55.4353"/>
</g>
<!-- Node2 -->
<g id="node3" class="node"><title>Node2</title>
<polygon fill="white" stroke="#bfbfbf" points="45.2954,-120.5 45.2954,-138.5 102.975,-138.5 102.975,-120.5 45.2954,-120.5"/>
<text text-anchor="middle" x="74.1353" y="-126.5" font-family="Helvetica,sans-Serif" font-size="10.00">vtkObject</text>
</g>
<!-- Node2&#45;&gt;Node1 -->
<g id="edge2" class="edge"><title>Node2&#45;&gt;Node1</title>
<path fill="none" stroke="midnightblue" d="M74.1353,-110.175C74.1353,-101.094 74.1353,-90.5949 74.1353,-83.5496"/>
<polygon fill="midnightblue" stroke="midnightblue" points="70.6354,-110.219 74.1353,-120.219 77.6354,-110.219 70.6354,-110.219"/>
</g>
</g>
</svg>
