<?xml version="1.0" encoding="UTF-8" standalone="no"?>
<!DOCTYPE svg PUBLIC "-//W3C//DTD SVG 1.1//EN"
 "http://www.w3.org/Graphics/SVG/1.1/DTD/svg11.dtd">
<!-- Generated by graphviz version 2.38.0 (20140413.2041)
 -->
<!-- Title: vtkvmtkPolyDataFELaplaceAssembler Pages: 1 -->
<svg width="254pt" height="233pt"
 viewBox="0.00 0.00 254.36 233.00" xmlns="http://www.w3.org/2000/svg" xmlns:xlink="http://www.w3.org/1999/xlink">
<g id="graph0" class="graph" transform="scale(1 1) rotate(0) translate(4 229)">
<title>vtkvmtkPolyDataFELaplaceAssembler</title>
<polygon fill="white" stroke="none" points="-4,4 -4,-229 250.364,-229 250.364,4 -4,4"/>
<!-- Node2 -->
<g id="node1" class="node"><title>Node2</title>
<polygon fill="#bfbfbf" stroke="black" points="90.2637,-0.5 90.2637,-28.5 228.534,-28.5 228.534,-0.5 90.2637,-0.5"/>
<text text-anchor="start" x="98.2637" y="-16.5" font-family="Helvetica,sans-Serif" font-size="10.00">vtkvmtkPolyDataFELaplace</text>
<text text-anchor="middle" x="159.399" y="-6.5" font-family="Helvetica,sans-Serif" font-size="10.00">Assembler</text>
</g>
<!-- Node3 -->
<g id="node2" class="node"><title>Node3</title>
<g id="a_node2"><a xlink:href="classvtkvmtkFEAssembler.html" target="_top" xlink:title="Base class on which to build to build specific finite element routines. ">
<polygon fill="white" stroke="black" points="104.448,-66.5 104.448,-84.5 214.35,-84.5 214.35,-66.5 104.448,-66.5"/>
<text text-anchor="middle" x="159.399" y="-72.5" font-family="Helvetica,sans-Serif" font-size="10.00">vtkvmtkFEAssembler</text>
</a>
</g>
</g>
<!-- Node3&#45;&gt;Node2 -->
<g id="edge1" class="edge"><title>Node3&#45;&gt;Node2</title>
<path fill="none" stroke="midnightblue" d="M159.399,-56.1543C159.399,-47.2359 159.399,-36.7225 159.399,-28.6215"/>
<polygon fill="midnightblue" stroke="midnightblue" points="155.899,-56.2963 159.399,-66.2963 162.899,-56.2963 155.899,-56.2963"/>
</g>
<!-- Node4 -->
<g id="node3" class="node"><title>Node4</title>
<g id="a_node3"><a xlink:href="classvtkvmtkSparseMatrix.html" target="_top" xlink:title=".. ">
<polygon fill="white" stroke="black" points="10.0024,-141.5 10.0024,-159.5 118.795,-159.5 118.795,-141.5 10.0024,-141.5"/>
<text text-anchor="middle" x="64.3989" y="-147.5" font-family="Helvetica,sans-Serif" font-size="10.00">vtkvmtkSparseMatrix</text>
</a>
</g>
</g>
<!-- Node4&#45;&gt;Node3 -->
<g id="edge2" class="edge"><title>Node4&#45;&gt;Node3</title>
<path fill="none" stroke="#9a32cd" stroke-dasharray="5,2" d="M82.8598,-135.314C102.499,-120.223 132.887,-96.8727 148.822,-84.6274"/>
<polygon fill="#9a32cd" stroke="#9a32cd" points="80.7253,-132.54 74.9286,-141.409 84.9905,-138.091 80.7253,-132.54"/>
<text text-anchor="middle" x="138.399" y="-110" font-family="Helvetica,sans-Serif" font-size="10.00"> Matrix</text>
</g>
<!-- Node5 -->
<g id="node4" class="node"><title>Node5</title>
<g id="a_node4"><a xlink:href="classvtkvmtkSparseMatrixRow.html" target="_top" xlink:title=".. ">
<polygon fill="white" stroke="black" points="0,-206.5 0,-224.5 128.798,-224.5 128.798,-206.5 0,-206.5"/>
<text text-anchor="middle" x="64.3989" y="-212.5" font-family="Helvetica,sans-Serif" font-size="10.00">vtkvmtkSparseMatrixRow</text>
</a>
</g>
</g>
<!-- Node5&#45;&gt;Node4 -->
<g id="edge3" class="edge"><title>Node5&#45;&gt;Node4</title>
<path fill="none" stroke="#9a32cd" stroke-dasharray="5,2" d="M64.3989,-195.907C64.3989,-183.815 64.3989,-168.653 64.3989,-159.539"/>
<polygon fill="#9a32cd" stroke="#9a32cd" points="60.899,-196.264 64.3989,-206.264 67.899,-196.264 60.899,-196.264"/>
<text text-anchor="middle" x="77.4604" y="-180" font-family="Helvetica,sans-Serif" font-size="10.00"> Array</text>
</g>
<!-- Node6 -->
<g id="node5" class="node"><title>Node6</title>
<g id="a_node5"><a xlink:href="classvtkvmtkDoubleVector.html" target="_top" xlink:title="Base class for vectors utilized in finite&#45;element and other PDE evaluations. ">
<polygon fill="white" stroke="black" points="136.434,-141.5 136.434,-159.5 246.364,-159.5 246.364,-141.5 136.434,-141.5"/>
<text text-anchor="middle" x="191.399" y="-147.5" font-family="Helvetica,sans-Serif" font-size="10.00">vtkvmtkDoubleVector</text>
</a>
</g>
</g>
<!-- Node6&#45;&gt;Node3 -->
<g id="edge4" class="edge"><title>Node6&#45;&gt;Node3</title>
<path fill="none" stroke="#9a32cd" stroke-dasharray="5,2" d="M183.823,-132.218C177.276,-117.281 168.095,-96.3374 163.06,-84.8518"/>
<polygon fill="#9a32cd" stroke="#9a32cd" points="180.632,-133.655 187.852,-141.409 187.043,-130.845 180.632,-133.655"/>
<text text-anchor="middle" x="212.034" y="-115" font-family="Helvetica,sans-Serif" font-size="10.00"> SolutionVector</text>
<text text-anchor="middle" x="212.034" y="-105" font-family="Helvetica,sans-Serif" font-size="10.00">RHSVector</text>
</g>
</g>
</svg>
