<?xml version="1.0" encoding="UTF-8" standalone="no"?>
<!DOCTYPE svg PUBLIC "-//W3C//DTD SVG 1.1//EN"
 "http://www.w3.org/Graphics/SVG/1.1/DTD/svg11.dtd">
<!-- Generated by graphviz version 2.38.0 (20140413.2041)
 -->
<!-- Title: vtkvmtkPolyDataUmbrellaStencil Pages: 1 -->
<svg width="168pt" height="302pt"
 viewBox="0.00 0.00 168.49 302.00" xmlns="http://www.w3.org/2000/svg" xmlns:xlink="http://www.w3.org/1999/xlink">
<g id="graph0" class="graph" transform="scale(1 1) rotate(0) translate(4 298)">
<title>vtkvmtkPolyDataUmbrellaStencil</title>
<polygon fill="white" stroke="none" points="-4,4 -4,-298 164.487,-298 164.487,4 -4,4"/>
<!-- Node0 -->
<g id="node1" class="node"><title>Node0</title>
<polygon fill="#bfbfbf" stroke="black" points="0,-0.5 0,-18.5 160.487,-18.5 160.487,-0.5 0,-0.5"/>
<text text-anchor="middle" x="80.2437" y="-6.5" font-family="Helvetica,sans-Serif" font-size="10.00">vtkvmtkPolyDataUmbrellaStencil</text>
</g>
<!-- Node1 -->
<g id="node2" class="node"><title>Node1</title>
<g id="a_node2"><a xlink:href="classvtkvmtkPolyDataManifoldStencil.html" target="_top" xlink:title=".. ">
<polygon fill="white" stroke="black" points="1.10596,-55.5 1.10596,-73.5 159.381,-73.5 159.381,-55.5 1.10596,-55.5"/>
<text text-anchor="middle" x="80.2437" y="-61.5" font-family="Helvetica,sans-Serif" font-size="10.00">vtkvmtkPolyDataManifoldStencil</text>
</a>
</g>
</g>
<!-- Node1&#45;&gt;Node0 -->
<g id="edge1" class="edge"><title>Node1&#45;&gt;Node0</title>
<path fill="none" stroke="midnightblue" d="M80.2437,-45.1746C80.2437,-36.0945 80.2437,-25.5949 80.2437,-18.5496"/>
<polygon fill="midnightblue" stroke="midnightblue" points="76.7438,-45.2187 80.2437,-55.2188 83.7438,-45.2188 76.7438,-45.2187"/>
</g>
<!-- Node2 -->
<g id="node3" class="node"><title>Node2</title>
<g id="a_node3"><a xlink:href="classvtkvmtkStencil.html" target="_top" xlink:title="Apply a weighting matrix to a single neighborhood of a data set. ">
<polygon fill="white" stroke="black" points="40.293,-110.5 40.293,-128.5 120.194,-128.5 120.194,-110.5 40.293,-110.5"/>
<text text-anchor="middle" x="80.2437" y="-116.5" font-family="Helvetica,sans-Serif" font-size="10.00">vtkvmtkStencil</text>
</a>
</g>
</g>
<!-- Node2&#45;&gt;Node1 -->
<g id="edge2" class="edge"><title>Node2&#45;&gt;Node1</title>
<path fill="none" stroke="midnightblue" d="M80.2437,-100.175C80.2437,-91.0945 80.2437,-80.5949 80.2437,-73.5496"/>
<polygon fill="midnightblue" stroke="midnightblue" points="76.7438,-100.219 80.2437,-110.219 83.7438,-100.219 76.7438,-100.219"/>
</g>
<!-- Node3 -->
<g id="node4" class="node"><title>Node3</title>
<g id="a_node4"><a xlink:href="classvtkvmtkNeighborhood.html" target="_top" xlink:title="Query the neighborhood surrounding the set point id in an data set item. ">
<polygon fill="white" stroke="black" points="23.8867,-165.5 23.8867,-183.5 136.601,-183.5 136.601,-165.5 23.8867,-165.5"/>
<text text-anchor="middle" x="80.2437" y="-171.5" font-family="Helvetica,sans-Serif" font-size="10.00">vtkvmtkNeighborhood</text>
</a>
</g>
</g>
<!-- Node3&#45;&gt;Node2 -->
<g id="edge3" class="edge"><title>Node3&#45;&gt;Node2</title>
<path fill="none" stroke="midnightblue" d="M80.2437,-155.175C80.2437,-146.094 80.2437,-135.595 80.2437,-128.55"/>
<polygon fill="midnightblue" stroke="midnightblue" points="76.7438,-155.219 80.2437,-165.219 83.7438,-155.219 76.7438,-155.219"/>
</g>
<!-- Node4 -->
<g id="node5" class="node"><title>Node4</title>
<g id="a_node5"><a xlink:href="classvtkvmtkDataSetItem.html" target="_top" xlink:title="create an item instance with a data set and particular point id. ">
<polygon fill="white" stroke="black" points="27.5098,-220.5 27.5098,-238.5 132.978,-238.5 132.978,-220.5 27.5098,-220.5"/>
<text text-anchor="middle" x="80.2437" y="-226.5" font-family="Helvetica,sans-Serif" font-size="10.00">vtkvmtkDataSetItem</text>
</a>
</g>
</g>
<!-- Node4&#45;&gt;Node3 -->
<g id="edge4" class="edge"><title>Node4&#45;&gt;Node3</title>
<path fill="none" stroke="midnightblue" d="M80.2437,-210.175C80.2437,-201.094 80.2437,-190.595 80.2437,-183.55"/>
<polygon fill="midnightblue" stroke="midnightblue" points="76.7438,-210.219 80.2437,-220.219 83.7438,-210.219 76.7438,-210.219"/>
</g>
<!-- Node5 -->
<g id="node6" class="node"><title>Node5</title>
<g id="a_node6"><a xlink:href="classvtkvmtkItem.html" target="_top" xlink:title="Base class for the construction of neighborhoods and stencil from a set of points. ">
<polygon fill="white" stroke="black" points="45.5762,-275.5 45.5762,-293.5 114.911,-293.5 114.911,-275.5 45.5762,-275.5"/>
<text text-anchor="middle" x="80.2437" y="-281.5" font-family="Helvetica,sans-Serif" font-size="10.00">vtkvmtkItem</text>
</a>
</g>
</g>
<!-- Node5&#45;&gt;Node4 -->
<g id="edge5" class="edge"><title>Node5&#45;&gt;Node4</title>
<path fill="none" stroke="midnightblue" d="M80.2437,-265.175C80.2437,-256.094 80.2437,-245.595 80.2437,-238.55"/>
<polygon fill="midnightblue" stroke="midnightblue" points="76.7438,-265.219 80.2437,-275.219 83.7438,-265.219 76.7438,-265.219"/>
</g>
</g>
</svg>
