<?xml version="1.0" encoding="UTF-8" standalone="no"?>
<!DOCTYPE svg PUBLIC "-//W3C//DTD SVG 1.1//EN"
 "http://www.w3.org/Graphics/SVG/1.1/DTD/svg11.dtd">
<!-- Generated by graphviz version 2.38.0 (20140413.2041)
 -->
<!-- Title: vtkvmtkLinearSystem Pages: 1 -->
<svg width="243pt" height="223pt"
 viewBox="0.00 0.00 242.92 223.00" xmlns="http://www.w3.org/2000/svg" xmlns:xlink="http://www.w3.org/1999/xlink">
<g id="graph0" class="graph" transform="scale(1 1) rotate(0) translate(4 219)">
<title>vtkvmtkLinearSystem</title>
<polygon fill="white" stroke="none" points="-4,4 -4,-219 238.917,-219 238.917,4 -4,4"/>
<!-- Node2 -->
<g id="node1" class="node"><title>Node2</title>
<polygon fill="#bfbfbf" stroke="black" points="15.4393,-0.5 15.4393,-18.5 126.464,-18.5 126.464,-0.5 15.4393,-0.5"/>
<text text-anchor="middle" x="70.9515" y="-6.5" font-family="Helvetica,sans-Serif" font-size="10.00">vtkvmtkLinearSystem</text>
</g>
<!-- Node3 -->
<g id="node2" class="node"><title>Node3</title>
<polygon fill="white" stroke="#bfbfbf" points="3.11166,-196.5 3.11166,-214.5 60.7913,-214.5 60.7913,-196.5 3.11166,-196.5"/>
<text text-anchor="middle" x="31.9515" y="-202.5" font-family="Helvetica,sans-Serif" font-size="10.00">vtkObject</text>
</g>
<!-- Node3&#45;&gt;Node2 -->
<g id="edge1" class="edge"><title>Node3&#45;&gt;Node2</title>
<path fill="none" stroke="midnightblue" d="M22.7666,-187.162C9.6741,-159.934 -10.8033,-106.023 7.9515,-65 17.6928,-43.6924 40.3337,-27.5276 55.6473,-18.5295"/>
<polygon fill="midnightblue" stroke="midnightblue" points="19.6997,-188.854 27.3256,-196.209 25.9508,-185.704 19.6997,-188.854"/>
</g>
<!-- Node4 -->
<g id="node3" class="node"><title>Node4</title>
<g id="a_node3"><a xlink:href="classvtkvmtkSparseMatrix.html" target="_top" xlink:title="Class for constructing sparse matrices from a dataset and performing basic mathematical operations on...">
<polygon fill="white" stroke="black" points="16.555,-66 16.555,-84 125.348,-84 125.348,-66 16.555,-66"/>
<text text-anchor="middle" x="70.9515" y="-72" font-family="Helvetica,sans-Serif" font-size="10.00">vtkvmtkSparseMatrix</text>
</a>
</g>
</g>
<!-- Node3&#45;&gt;Node4 -->
<g id="edge3" class="edge"><title>Node3&#45;&gt;Node4</title>
<path fill="none" stroke="midnightblue" d="M24.7133,-186.638C20.4386,-173.466 16.7806,-155.26 21.9515,-140 29.8557,-116.674 50.0518,-95.1711 61.9024,-84.0099"/>
<polygon fill="midnightblue" stroke="midnightblue" points="21.5424,-188.158 28.2687,-196.344 28.1152,-185.75 21.5424,-188.158"/>
</g>
<!-- Node5 -->
<g id="node4" class="node"><title>Node5</title>
<g id="a_node4"><a xlink:href="classvtkvmtkSparseMatrixRow.html" target="_top" xlink:title="Class to handle operating on rows of a sparse matrix. ">
<polygon fill="white" stroke="black" points="30.5526,-140.5 30.5526,-158.5 159.35,-158.5 159.35,-140.5 30.5526,-140.5"/>
<text text-anchor="middle" x="94.9515" y="-146.5" font-family="Helvetica,sans-Serif" font-size="10.00">vtkvmtkSparseMatrixRow</text>
</a>
</g>
</g>
<!-- Node3&#45;&gt;Node5 -->
<g id="edge5" class="edge"><title>Node3&#45;&gt;Node5</title>
<path fill="none" stroke="midnightblue" d="M49.2754,-189.651C60.8813,-179.703 75.7313,-166.974 85.2931,-158.779"/>
<polygon fill="midnightblue" stroke="midnightblue" points="46.8347,-187.133 41.5198,-196.299 51.3902,-192.448 46.8347,-187.133"/>
</g>
<!-- Node6 -->
<g id="node5" class="node"><title>Node6</title>
<g id="a_node5"><a xlink:href="classvtkvmtkDoubleVector.html" target="_top" xlink:title="Base class for vectors utilized in finite&#45;element and other PDE evaluations. ">
<polygon fill="white" stroke="black" points="124.986,-103.5 124.986,-121.5 234.917,-121.5 234.917,-103.5 124.986,-103.5"/>
<text text-anchor="middle" x="179.952" y="-109.5" font-family="Helvetica,sans-Serif" font-size="10.00">vtkvmtkDoubleVector</text>
</a>
</g>
</g>
<!-- Node3&#45;&gt;Node6 -->
<g id="edge7" class="edge"><title>Node3&#45;&gt;Node6</title>
<path fill="none" stroke="midnightblue" d="M71.2181,-201.317C101.714,-196.768 142.901,-185.734 167.952,-159 177.559,-148.747 179.674,-131.732 180.027,-121.67"/>
<polygon fill="midnightblue" stroke="midnightblue" points="70.3796,-197.897 60.9212,-202.671 71.2922,-204.837 70.3796,-197.897"/>
</g>
<!-- Node4&#45;&gt;Node2 -->
<g id="edge2" class="edge"><title>Node4&#45;&gt;Node2</title>
<path fill="none" stroke="#9a32cd" stroke-dasharray="5,2" d="M70.9515,-55.9195C70.9515,-43.6597 70.9515,-28.0389 70.9515,-18.6776"/>
<polygon fill="#9a32cd" stroke="#9a32cd" points="67.4516,-55.9576 70.9515,-65.9577 74.4516,-55.9577 67.4516,-55.9576"/>
<text text-anchor="middle" x="75.4022" y="-39" font-family="Helvetica,sans-Serif" font-size="10.00"> A</text>
</g>
<!-- Node5&#45;&gt;Node4 -->
<g id="edge4" class="edge"><title>Node5&#45;&gt;Node4</title>
<path fill="none" stroke="#9a32cd" stroke-dasharray="5,2" d="M89.1275,-130.907C84.2268,-116.103 77.4371,-95.5919 73.6973,-84.2946"/>
<polygon fill="#9a32cd" stroke="#9a32cd" points="85.826,-132.071 92.2914,-140.464 92.4714,-129.871 85.826,-132.071"/>
<text text-anchor="middle" x="99.013" y="-109.5" font-family="Helvetica,sans-Serif" font-size="10.00"> Array</text>
</g>
<!-- Node6&#45;&gt;Node2 -->
<g id="edge6" class="edge"><title>Node6&#45;&gt;Node2</title>
<path fill="none" stroke="#9a32cd" stroke-dasharray="5,2" d="M165.313,-96.1101C156.415,-86.9062 144.728,-75.0792 133.952,-65 115.785,-48.008 93.5903,-29.2468 80.9812,-18.7643"/>
<polygon fill="#9a32cd" stroke="#9a32cd" points="162.872,-98.6212 172.321,-103.413 167.923,-93.7746 162.872,-98.6212"/>
<text text-anchor="middle" x="159.676" y="-77" font-family="Helvetica,sans-Serif" font-size="10.00"> X</text>
<text text-anchor="middle" x="159.676" y="-67" font-family="Helvetica,sans-Serif" font-size="10.00">B</text>
</g>
</g>
</svg>
