<?xml version="1.0" encoding="UTF-8" standalone="no"?>
<!DOCTYPE svg PUBLIC "-//W3C//DTD SVG 1.1//EN"
 "http://www.w3.org/Graphics/SVG/1.1/DTD/svg11.dtd">
<!-- Generated by graphviz version 2.38.0 (20140413.2041)
 -->
<!-- Title: vtkvmtkUnstructuredGridFEGradientAssembler Pages: 1 -->
<svg width="261pt" height="289pt"
 viewBox="0.00 0.00 260.54 289.00" xmlns="http://www.w3.org/2000/svg" xmlns:xlink="http://www.w3.org/1999/xlink">
<g id="graph0" class="graph" transform="scale(1 1) rotate(0) translate(4 285)">
<title>vtkvmtkUnstructuredGridFEGradientAssembler</title>
<polygon fill="white" stroke="none" points="-4,4 -4,-285 256.544,-285 256.544,4 -4,4"/>
<!-- Node3 -->
<g id="node1" class="node"><title>Node3</title>
<polygon fill="#bfbfbf" stroke="black" points="0,-0.5 0,-28.5 177.157,-28.5 177.157,-0.5 0,-0.5"/>
<text text-anchor="start" x="8" y="-16.5" font-family="Helvetica,sans-Serif" font-size="10.00">vtkvmtkUnstructuredGridFEGradient</text>
<text text-anchor="middle" x="88.5786" y="-6.5" font-family="Helvetica,sans-Serif" font-size="10.00">Assembler</text>
</g>
<!-- Node4 -->
<g id="node2" class="node"><title>Node4</title>
<g id="a_node2"><a xlink:href="classvtkvmtkFEAssembler.html" target="_top" xlink:title="Base class on which to build to build specific finite element routines. ">
<polygon fill="white" stroke="black" points="33.6279,-66.5 33.6279,-84.5 143.529,-84.5 143.529,-66.5 33.6279,-66.5"/>
<text text-anchor="middle" x="88.5786" y="-72.5" font-family="Helvetica,sans-Serif" font-size="10.00">vtkvmtkFEAssembler</text>
</a>
</g>
</g>
<!-- Node4&#45;&gt;Node3 -->
<g id="edge1" class="edge"><title>Node4&#45;&gt;Node3</title>
<path fill="none" stroke="midnightblue" d="M88.5786,-56.1543C88.5786,-47.2359 88.5786,-36.7225 88.5786,-28.6215"/>
<polygon fill="midnightblue" stroke="midnightblue" points="85.0787,-56.2963 88.5786,-66.2963 92.0787,-56.2963 85.0787,-56.2963"/>
</g>
<!-- Node5 -->
<g id="node3" class="node"><title>Node5</title>
<polygon fill="white" stroke="#bfbfbf" points="20.7388,-262.5 20.7388,-280.5 78.4185,-280.5 78.4185,-262.5 20.7388,-262.5"/>
<text text-anchor="middle" x="49.5786" y="-268.5" font-family="Helvetica,sans-Serif" font-size="10.00">vtkObject</text>
</g>
<!-- Node5&#45;&gt;Node4 -->
<g id="edge2" class="edge"><title>Node5&#45;&gt;Node4</title>
<path fill="none" stroke="midnightblue" d="M40.3937,-253.162C27.3012,-225.934 6.82386,-172.023 25.5786,-131 35.3199,-109.692 57.9609,-93.5276 73.2744,-84.5295"/>
<polygon fill="midnightblue" stroke="midnightblue" points="37.3268,-254.854 44.9527,-262.209 43.5779,-251.704 37.3268,-254.854"/>
</g>
<!-- Node6 -->
<g id="node4" class="node"><title>Node6</title>
<g id="a_node4"><a xlink:href="classvtkvmtkSparseMatrix.html" target="_top" xlink:title="Class for constructing sparse matrices from a dataset and performing basic mathematical operations on...">
<polygon fill="white" stroke="black" points="34.1821,-132 34.1821,-150 142.975,-150 142.975,-132 34.1821,-132"/>
<text text-anchor="middle" x="88.5786" y="-138" font-family="Helvetica,sans-Serif" font-size="10.00">vtkvmtkSparseMatrix</text>
</a>
</g>
</g>
<!-- Node5&#45;&gt;Node6 -->
<g id="edge4" class="edge"><title>Node5&#45;&gt;Node6</title>
<path fill="none" stroke="midnightblue" d="M42.3404,-252.638C38.0657,-239.466 34.4077,-221.26 39.5786,-206 47.4828,-182.674 67.6789,-161.171 79.5296,-150.01"/>
<polygon fill="midnightblue" stroke="midnightblue" points="39.1695,-254.158 45.8958,-262.344 45.7424,-251.75 39.1695,-254.158"/>
</g>
<!-- Node7 -->
<g id="node5" class="node"><title>Node7</title>
<g id="a_node5"><a xlink:href="classvtkvmtkSparseMatrixRow.html" target="_top" xlink:title="Class to handle operating on rows of a sparse matrix. ">
<polygon fill="white" stroke="black" points="48.1797,-206.5 48.1797,-224.5 176.978,-224.5 176.978,-206.5 48.1797,-206.5"/>
<text text-anchor="middle" x="112.579" y="-212.5" font-family="Helvetica,sans-Serif" font-size="10.00">vtkvmtkSparseMatrixRow</text>
</a>
</g>
</g>
<!-- Node5&#45;&gt;Node7 -->
<g id="edge6" class="edge"><title>Node5&#45;&gt;Node7</title>
<path fill="none" stroke="midnightblue" d="M66.9025,-255.651C78.5084,-245.703 93.3584,-232.974 102.92,-224.779"/>
<polygon fill="midnightblue" stroke="midnightblue" points="64.4618,-253.133 59.147,-262.299 69.0173,-258.448 64.4618,-253.133"/>
</g>
<!-- Node8 -->
<g id="node6" class="node"><title>Node8</title>
<g id="a_node6"><a xlink:href="classvtkvmtkDoubleVector.html" target="_top" xlink:title="Base class for vectors utilized in finite&#45;element and other PDE evaluations. ">
<polygon fill="white" stroke="black" points="142.613,-169.5 142.613,-187.5 252.544,-187.5 252.544,-169.5 142.613,-169.5"/>
<text text-anchor="middle" x="197.579" y="-175.5" font-family="Helvetica,sans-Serif" font-size="10.00">vtkvmtkDoubleVector</text>
</a>
</g>
</g>
<!-- Node5&#45;&gt;Node8 -->
<g id="edge8" class="edge"><title>Node5&#45;&gt;Node8</title>
<path fill="none" stroke="midnightblue" d="M88.8453,-267.317C119.341,-262.768 160.528,-251.734 185.579,-225 195.186,-214.747 197.301,-197.732 197.654,-187.67"/>
<polygon fill="midnightblue" stroke="midnightblue" points="88.0067,-263.897 78.5484,-268.671 88.9193,-270.837 88.0067,-263.897"/>
</g>
<!-- Node6&#45;&gt;Node4 -->
<g id="edge3" class="edge"><title>Node6&#45;&gt;Node4</title>
<path fill="none" stroke="#9a32cd" stroke-dasharray="5,2" d="M88.5786,-121.919C88.5786,-109.66 88.5786,-94.0389 88.5786,-84.6776"/>
<polygon fill="#9a32cd" stroke="#9a32cd" points="85.0787,-121.958 88.5786,-131.958 92.0787,-121.958 85.0787,-121.958"/>
<text text-anchor="middle" x="103.579" y="-105" font-family="Helvetica,sans-Serif" font-size="10.00"> Matrix</text>
</g>
<!-- Node7&#45;&gt;Node6 -->
<g id="edge5" class="edge"><title>Node7&#45;&gt;Node6</title>
<path fill="none" stroke="#9a32cd" stroke-dasharray="5,2" d="M106.755,-196.907C101.854,-182.103 95.0642,-161.592 91.3244,-150.295"/>
<polygon fill="#9a32cd" stroke="#9a32cd" points="103.453,-198.071 109.918,-206.464 110.098,-195.871 103.453,-198.071"/>
<text text-anchor="middle" x="115.64" y="-175.5" font-family="Helvetica,sans-Serif" font-size="10.00"> Array</text>
</g>
<!-- Node8&#45;&gt;Node4 -->
<g id="edge7" class="edge"><title>Node8&#45;&gt;Node4</title>
<path fill="none" stroke="#9a32cd" stroke-dasharray="5,2" d="M182.822,-161.648C168.098,-146.123 144.562,-122.086 122.579,-103 115.119,-96.5236 106.313,-89.6805 99.5315,-84.5707"/>
<polygon fill="#9a32cd" stroke="#9a32cd" points="180.629,-164.425 190.03,-169.311 185.728,-159.629 180.629,-164.425"/>
<text text-anchor="middle" x="205.214" y="-143" font-family="Helvetica,sans-Serif" font-size="10.00"> SolutionVector</text>
<text text-anchor="middle" x="205.214" y="-133" font-family="Helvetica,sans-Serif" font-size="10.00">RHSVector</text>
</g>
</g>
</svg>
