<?xml version="1.0" encoding="UTF-8" standalone="no"?>
<!DOCTYPE svg PUBLIC "-//W3C//DTD SVG 1.1//EN"
 "http://www.w3.org/Graphics/SVG/1.1/DTD/svg11.dtd">
<!-- Generated by graphviz version 2.38.0 (20140413.2041)
 -->
<!-- Title: vtkvmtkCenterlineSplittingAndGroupingFilter Pages: 1 -->
<svg width="342pt" height="111pt"
 viewBox="0.00 0.00 342.21 111.00" xmlns="http://www.w3.org/2000/svg" xmlns:xlink="http://www.w3.org/1999/xlink">
<g id="graph0" class="graph" transform="scale(1 1) rotate(0) translate(4 107)">
<title>vtkvmtkCenterlineSplittingAndGroupingFilter</title>
<polygon fill="white" stroke="none" points="-4,4 -4,-107 338.206,-107 338.206,4 -4,4"/>
<!-- Node0 -->
<g id="node1" class="node"><title>Node0</title>
<polygon fill="#bfbfbf" stroke="black" points="0,-37.5 0,-65.5 131.044,-65.5 131.044,-37.5 0,-37.5"/>
<text text-anchor="start" x="8" y="-53.5" font-family="Helvetica,sans-Serif" font-size="10.00">vtkvmtkCenterlineSplitting</text>
<text text-anchor="middle" x="65.522" y="-43.5" font-family="Helvetica,sans-Serif" font-size="10.00">AndGroupingFilter</text>
</g>
<!-- Node1 -->
<g id="node2" class="node"><title>Node1</title>
<g id="a_node2"><a xlink:href="classvtkvmtkCenterlineBranchExtractor.html" target="_top" xlink:title="Split and group centerlines. ">
<polygon fill="white" stroke="black" points="167.044,-84.5 167.044,-102.5 334.206,-102.5 334.206,-84.5 167.044,-84.5"/>
<text text-anchor="middle" x="250.625" y="-90.5" font-family="Helvetica,sans-Serif" font-size="10.00">vtkvmtkCenterlineBranchExtractor</text>
</a>
</g>
</g>
<!-- Node0&#45;&gt;Node1 -->
<g id="edge1" class="edge"><title>Node0&#45;&gt;Node1</title>
<path fill="none" stroke="midnightblue" d="M134.348,-67.8866C145.272,-70.4702 156.464,-73.0842 167.044,-75.5 180.062,-78.4725 194.26,-81.6062 207.154,-84.4108"/>
<polygon fill="midnightblue" stroke="midnightblue" points="134.954,-64.4333 124.416,-65.5289 133.337,-71.244 134.954,-64.4333"/>
</g>
<!-- Node2 -->
<g id="node3" class="node"><title>Node2</title>
<g id="a_node3"><a xlink:href="classvtkvmtkCenterlineEndpointExtractor.html" target="_top" xlink:title="Split a centerline into tracts which can be used to mark endpoints of the centerline. ">
<polygon fill="white" stroke="black" points="183.152,-37.5 183.152,-65.5 318.098,-65.5 318.098,-37.5 183.152,-37.5"/>
<text text-anchor="start" x="191.152" y="-53.5" font-family="Helvetica,sans-Serif" font-size="10.00">vtkvmtkCenterlineEndpoint</text>
<text text-anchor="middle" x="250.625" y="-43.5" font-family="Helvetica,sans-Serif" font-size="10.00">Extractor</text>
</a>
</g>
</g>
<!-- Node0&#45;&gt;Node2 -->
<g id="edge2" class="edge"><title>Node0&#45;&gt;Node2</title>
<path fill="none" stroke="midnightblue" d="M141.447,-51.5C155.168,-51.5 169.404,-51.5 182.866,-51.5"/>
<polygon fill="midnightblue" stroke="midnightblue" points="141.077,-48.0001 131.077,-51.5 141.077,-55.0001 141.077,-48.0001"/>
</g>
<!-- Node3 -->
<g id="node4" class="node"><title>Node3</title>
<g id="a_node4"><a xlink:href="classvtkvmtkCenterlineSplitExtractor.html" target="_top" xlink:title="Split a centerline into three tracts with the middle (blanked) tract being initialized between any tw...">
<polygon fill="white" stroke="black" points="173.16,-0.5 173.16,-18.5 328.09,-18.5 328.09,-0.5 173.16,-0.5"/>
<text text-anchor="middle" x="250.625" y="-6.5" font-family="Helvetica,sans-Serif" font-size="10.00">vtkvmtkCenterlineSplitExtractor</text>
</a>
</g>
</g>
<!-- Node0&#45;&gt;Node3 -->
<g id="edge3" class="edge"><title>Node0&#45;&gt;Node3</title>
<path fill="none" stroke="midnightblue" d="M137.8,-35.1503C162.454,-29.4951 189.174,-23.3662 210.311,-18.5179"/>
<polygon fill="midnightblue" stroke="midnightblue" points="136.712,-31.809 127.747,-37.4562 138.277,-38.6318 136.712,-31.809"/>
</g>
</g>
</svg>
