<?xml version="1.0" encoding="UTF-8" standalone="no"?>
<!DOCTYPE svg PUBLIC "-//W3C//DTD SVG 1.1//EN"
 "http://www.w3.org/Graphics/SVG/1.1/DTD/svg11.dtd">
<!-- Generated by graphviz version 2.38.0 (20140413.2041)
 -->
<!-- Title: vtkvmtkPolyDataFEGradientAssembler Pages: 1 -->
<svg width="243pt" height="289pt"
 viewBox="0.00 0.00 242.92 289.00" xmlns="http://www.w3.org/2000/svg" xmlns:xlink="http://www.w3.org/1999/xlink">
<g id="graph0" class="graph" transform="scale(1 1) rotate(0) translate(4 285)">
<title>vtkvmtkPolyDataFEGradientAssembler</title>
<polygon fill="white" stroke="none" points="-4,4 -4,-285 238.917,-285 238.917,4 -4,4"/>
<!-- Node3 -->
<g id="node1" class="node"><title>Node3</title>
<polygon fill="#bfbfbf" stroke="black" points="0.153649,-0.5 0.153649,-28.5 141.749,-28.5 141.749,-0.5 0.153649,-0.5"/>
<text text-anchor="start" x="8.15365" y="-16.5" font-family="Helvetica,sans-Serif" font-size="10.00">vtkvmtkPolyDataFEGradient</text>
<text text-anchor="middle" x="70.9515" y="-6.5" font-family="Helvetica,sans-Serif" font-size="10.00">Assembler</text>
</g>
<!-- Node4 -->
<g id="node2" class="node"><title>Node4</title>
<g id="a_node2"><a xlink:href="classvtkvmtkFEAssembler.html" target="_top" xlink:title="Base class on which to build to build specific finite element routines. ">
<polygon fill="white" stroke="black" points="16.0008,-66.5 16.0008,-84.5 125.902,-84.5 125.902,-66.5 16.0008,-66.5"/>
<text text-anchor="middle" x="70.9515" y="-72.5" font-family="Helvetica,sans-Serif" font-size="10.00">vtkvmtkFEAssembler</text>
</a>
</g>
</g>
<!-- Node4&#45;&gt;Node3 -->
<g id="edge1" class="edge"><title>Node4&#45;&gt;Node3</title>
<path fill="none" stroke="midnightblue" d="M70.9515,-56.1543C70.9515,-47.2359 70.9515,-36.7225 70.9515,-28.6215"/>
<polygon fill="midnightblue" stroke="midnightblue" points="67.4516,-56.2963 70.9515,-66.2963 74.4516,-56.2963 67.4516,-56.2963"/>
</g>
<!-- Node5 -->
<g id="node3" class="node"><title>Node5</title>
<polygon fill="white" stroke="#bfbfbf" points="3.11166,-262.5 3.11166,-280.5 60.7913,-280.5 60.7913,-262.5 3.11166,-262.5"/>
<text text-anchor="middle" x="31.9515" y="-268.5" font-family="Helvetica,sans-Serif" font-size="10.00">vtkObject</text>
</g>
<!-- Node5&#45;&gt;Node4 -->
<g id="edge2" class="edge"><title>Node5&#45;&gt;Node4</title>
<path fill="none" stroke="midnightblue" d="M22.7666,-253.162C9.6741,-225.934 -10.8033,-172.023 7.9515,-131 17.6928,-109.692 40.3337,-93.5276 55.6473,-84.5295"/>
<polygon fill="midnightblue" stroke="midnightblue" points="19.6997,-254.854 27.3256,-262.209 25.9508,-251.704 19.6997,-254.854"/>
</g>
<!-- Node6 -->
<g id="node4" class="node"><title>Node6</title>
<g id="a_node4"><a xlink:href="classvtkvmtkSparseMatrix.html" target="_top" xlink:title="Class for constructing sparse matrices from a dataset and performing basic mathematical operations on...">
<polygon fill="white" stroke="black" points="16.555,-132 16.555,-150 125.348,-150 125.348,-132 16.555,-132"/>
<text text-anchor="middle" x="70.9515" y="-138" font-family="Helvetica,sans-Serif" font-size="10.00">vtkvmtkSparseMatrix</text>
</a>
</g>
</g>
<!-- Node5&#45;&gt;Node6 -->
<g id="edge4" class="edge"><title>Node5&#45;&gt;Node6</title>
<path fill="none" stroke="midnightblue" d="M24.7133,-252.638C20.4386,-239.466 16.7806,-221.26 21.9515,-206 29.8557,-182.674 50.0518,-161.171 61.9024,-150.01"/>
<polygon fill="midnightblue" stroke="midnightblue" points="21.5424,-254.158 28.2687,-262.344 28.1152,-251.75 21.5424,-254.158"/>
</g>
<!-- Node7 -->
<g id="node5" class="node"><title>Node7</title>
<g id="a_node5"><a xlink:href="classvtkvmtkSparseMatrixRow.html" target="_top" xlink:title="Class to handle operating on rows of a sparse matrix. ">
<polygon fill="white" stroke="black" points="30.5526,-206.5 30.5526,-224.5 159.35,-224.5 159.35,-206.5 30.5526,-206.5"/>
<text text-anchor="middle" x="94.9515" y="-212.5" font-family="Helvetica,sans-Serif" font-size="10.00">vtkvmtkSparseMatrixRow</text>
</a>
</g>
</g>
<!-- Node5&#45;&gt;Node7 -->
<g id="edge6" class="edge"><title>Node5&#45;&gt;Node7</title>
<path fill="none" stroke="midnightblue" d="M49.2754,-255.651C60.8813,-245.703 75.7313,-232.974 85.2931,-224.779"/>
<polygon fill="midnightblue" stroke="midnightblue" points="46.8347,-253.133 41.5198,-262.299 51.3902,-258.448 46.8347,-253.133"/>
</g>
<!-- Node8 -->
<g id="node6" class="node"><title>Node8</title>
<g id="a_node6"><a xlink:href="classvtkvmtkDoubleVector.html" target="_top" xlink:title="Base class for vectors utilized in finite&#45;element and other PDE evaluations. ">
<polygon fill="white" stroke="black" points="124.986,-169.5 124.986,-187.5 234.917,-187.5 234.917,-169.5 124.986,-169.5"/>
<text text-anchor="middle" x="179.952" y="-175.5" font-family="Helvetica,sans-Serif" font-size="10.00">vtkvmtkDoubleVector</text>
</a>
</g>
</g>
<!-- Node5&#45;&gt;Node8 -->
<g id="edge8" class="edge"><title>Node5&#45;&gt;Node8</title>
<path fill="none" stroke="midnightblue" d="M71.2181,-267.317C101.714,-262.768 142.901,-251.734 167.952,-225 177.559,-214.747 179.674,-197.732 180.027,-187.67"/>
<polygon fill="midnightblue" stroke="midnightblue" points="70.3796,-263.897 60.9212,-268.671 71.2922,-270.837 70.3796,-263.897"/>
</g>
<!-- Node6&#45;&gt;Node4 -->
<g id="edge3" class="edge"><title>Node6&#45;&gt;Node4</title>
<path fill="none" stroke="#9a32cd" stroke-dasharray="5,2" d="M70.9515,-121.919C70.9515,-109.66 70.9515,-94.0389 70.9515,-84.6776"/>
<polygon fill="#9a32cd" stroke="#9a32cd" points="67.4516,-121.958 70.9515,-131.958 74.4516,-121.958 67.4516,-121.958"/>
<text text-anchor="middle" x="85.9515" y="-105" font-family="Helvetica,sans-Serif" font-size="10.00"> Matrix</text>
</g>
<!-- Node7&#45;&gt;Node6 -->
<g id="edge5" class="edge"><title>Node7&#45;&gt;Node6</title>
<path fill="none" stroke="#9a32cd" stroke-dasharray="5,2" d="M89.1275,-196.907C84.2268,-182.103 77.4371,-161.592 73.6973,-150.295"/>
<polygon fill="#9a32cd" stroke="#9a32cd" points="85.826,-198.071 92.2914,-206.464 92.4714,-195.871 85.826,-198.071"/>
<text text-anchor="middle" x="98.013" y="-175.5" font-family="Helvetica,sans-Serif" font-size="10.00"> Array</text>
</g>
<!-- Node8&#45;&gt;Node4 -->
<g id="edge7" class="edge"><title>Node8&#45;&gt;Node4</title>
<path fill="none" stroke="#9a32cd" stroke-dasharray="5,2" d="M165.195,-161.648C150.471,-146.123 126.935,-122.086 104.952,-103 97.4918,-96.5236 88.6854,-89.6805 81.9043,-84.5707"/>
<polygon fill="#9a32cd" stroke="#9a32cd" points="163.002,-164.425 172.402,-169.311 168.101,-159.629 163.002,-164.425"/>
<text text-anchor="middle" x="187.587" y="-143" font-family="Helvetica,sans-Serif" font-size="10.00"> SolutionVector</text>
<text text-anchor="middle" x="187.587" y="-133" font-family="Helvetica,sans-Serif" font-size="10.00">RHSVector</text>
</g>
</g>
</svg>
