<?xml version="1.0" encoding="UTF-8" standalone="no"?>
<!DOCTYPE svg PUBLIC "-//W3C//DTD SVG 1.1//EN"
 "http://www.w3.org/Graphics/SVG/1.1/DTD/svg11.dtd">
<!-- Generated by graphviz version 2.38.0 (20140413.2041)
 -->
<!-- Title: vtkvmtkDataSetItem Pages: 1 -->
<svg width="113pt" height="137pt"
 viewBox="0.00 0.00 113.47 137.00" xmlns="http://www.w3.org/2000/svg" xmlns:xlink="http://www.w3.org/1999/xlink">
<g id="graph0" class="graph" transform="scale(1 1) rotate(0) translate(4 133)">
<title>vtkvmtkDataSetItem</title>
<polygon fill="white" stroke="none" points="-4,4 -4,-133 109.468,-133 109.468,4 -4,4"/>
<!-- Node18 -->
<g id="node1" class="node"><title>Node18</title>
<polygon fill="#bfbfbf" stroke="black" points="0,-0.5 0,-18.5 105.468,-18.5 105.468,-0.5 0,-0.5"/>
<text text-anchor="middle" x="52.7339" y="-6.5" font-family="Helvetica,sans-Serif" font-size="10.00">vtkvmtkDataSetItem</text>
</g>
<!-- Node19 -->
<g id="node2" class="node"><title>Node19</title>
<g id="a_node2"><a xlink:href="classvtkvmtkItem.html" target="_top" xlink:title="Base class for the construction of neighborhoods and stencil from a set of points. ">
<polygon fill="white" stroke="black" points="18.0664,-55.5 18.0664,-73.5 87.4014,-73.5 87.4014,-55.5 18.0664,-55.5"/>
<text text-anchor="middle" x="52.7339" y="-61.5" font-family="Helvetica,sans-Serif" font-size="10.00">vtkvmtkItem</text>
</a>
</g>
</g>
<!-- Node19&#45;&gt;Node18 -->
<g id="edge1" class="edge"><title>Node19&#45;&gt;Node18</title>
<path fill="none" stroke="midnightblue" d="M52.7339,-45.1746C52.7339,-36.0945 52.7339,-25.5949 52.7339,-18.5496"/>
<polygon fill="midnightblue" stroke="midnightblue" points="49.234,-45.2187 52.7339,-55.2188 56.234,-45.2188 49.234,-45.2187"/>
</g>
<!-- Node20 -->
<g id="node3" class="node"><title>Node20</title>
<polygon fill="white" stroke="#bfbfbf" points="23.894,-110.5 23.894,-128.5 81.5737,-128.5 81.5737,-110.5 23.894,-110.5"/>
<text text-anchor="middle" x="52.7339" y="-116.5" font-family="Helvetica,sans-Serif" font-size="10.00">vtkObject</text>
</g>
<!-- Node20&#45;&gt;Node19 -->
<g id="edge2" class="edge"><title>Node20&#45;&gt;Node19</title>
<path fill="none" stroke="midnightblue" d="M52.7339,-100.175C52.7339,-91.0945 52.7339,-80.5949 52.7339,-73.5496"/>
<polygon fill="midnightblue" stroke="midnightblue" points="49.234,-100.219 52.7339,-110.219 56.234,-100.219 49.234,-100.219"/>
</g>
</g>
</svg>
