<?xml version="1.0" encoding="UTF-8" standalone="no"?>
<!DOCTYPE svg PUBLIC "-//W3C//DTD SVG 1.1//EN"
 "http://www.w3.org/Graphics/SVG/1.1/DTD/svg11.dtd">
<!-- Generated by graphviz version 2.38.0 (20140413.2041)
 -->
<!-- Title: vtkvmtkNonManifoldSteepestDescent Pages: 1 -->
<svg width="332pt" height="157pt"
 viewBox="0.00 0.00 332.01 157.00" xmlns="http://www.w3.org/2000/svg" xmlns:xlink="http://www.w3.org/1999/xlink">
<g id="graph0" class="graph" transform="scale(1 1) rotate(0) translate(4 153)">
<title>vtkvmtkNonManifoldSteepestDescent</title>
<polygon fill="white" stroke="none" points="-4,4 -4,-153 328.009,-153 328.009,4 -4,4"/>
<!-- Node0 -->
<g id="node1" class="node"><title>Node0</title>
<polygon fill="#bfbfbf" stroke="black" points="84.7241,-65.5 84.7241,-93.5 230.226,-93.5 230.226,-65.5 84.7241,-65.5"/>
<text text-anchor="start" x="92.7241" y="-81.5" font-family="Helvetica,sans-Serif" font-size="10.00">vtkvmtkNonManifoldSteepest</text>
<text text-anchor="middle" x="157.475" y="-71.5" font-family="Helvetica,sans-Serif" font-size="10.00">Descent</text>
</g>
<!-- Node2 -->
<g id="node3" class="node"><title>Node2</title>
<g id="a_node3"><a xlink:href="classvtkvmtkSteepestDescentLineTracer.html" target="_top" xlink:title="Trace the steepest descent line over a polygonal non&#45;manifold. ">
<polygon fill="white" stroke="black" points="0,-0.5 0,-28.5 144.95,-28.5 144.95,-0.5 0,-0.5"/>
<text text-anchor="start" x="8" y="-16.5" font-family="Helvetica,sans-Serif" font-size="10.00">vtkvmtkSteepestDescentLine</text>
<text text-anchor="middle" x="72.4751" y="-6.5" font-family="Helvetica,sans-Serif" font-size="10.00">Tracer</text>
</a>
</g>
</g>
<!-- Node0&#45;&gt;Node2 -->
<g id="edge2" class="edge"><title>Node0&#45;&gt;Node2</title>
<path fill="none" stroke="midnightblue" d="M131.484,-59.2361C118.057,-49.2841 102.026,-37.4026 90.0646,-28.5369"/>
<polygon fill="midnightblue" stroke="midnightblue" points="129.745,-62.3037 139.863,-65.4464 133.913,-56.6799 129.745,-62.3037"/>
</g>
<!-- Node3 -->
<g id="node4" class="node"><title>Node3</title>
<g id="a_node4"><a xlink:href="classvtkvmtkSteepestDescentShooter.html" target="_top" xlink:title="experimental method attempting movement across voronoi vertices; implement with caution. ">
<polygon fill="white" stroke="black" points="162.941,-5.5 162.941,-23.5 324.009,-23.5 324.009,-5.5 162.941,-5.5"/>
<text text-anchor="middle" x="243.475" y="-11.5" font-family="Helvetica,sans-Serif" font-size="10.00">vtkvmtkSteepestDescentShooter</text>
</a>
</g>
</g>
<!-- Node0&#45;&gt;Node3 -->
<g id="edge3" class="edge"><title>Node0&#45;&gt;Node3</title>
<path fill="none" stroke="midnightblue" d="M183.449,-59.4727C199.851,-47.4572 220.195,-32.554 232.489,-23.548"/>
<polygon fill="midnightblue" stroke="midnightblue" points="181.293,-56.7133 175.294,-65.4464 185.43,-62.3602 181.293,-56.7133"/>
</g>
<!-- Node1 -->
<g id="node2" class="node"><title>Node1</title>
<polygon fill="white" stroke="#bfbfbf" points="101.68,-130.5 101.68,-148.5 213.271,-148.5 213.271,-130.5 101.68,-130.5"/>
<text text-anchor="middle" x="157.475" y="-136.5" font-family="Helvetica,sans-Serif" font-size="10.00">vtkPolyDataAlgorithm</text>
</g>
<!-- Node1&#45;&gt;Node0 -->
<g id="edge1" class="edge"><title>Node1&#45;&gt;Node0</title>
<path fill="none" stroke="midnightblue" d="M157.475,-120.321C157.475,-111.747 157.475,-101.7 157.475,-93.8428"/>
<polygon fill="midnightblue" stroke="midnightblue" points="153.975,-120.435 157.475,-130.435 160.975,-120.435 153.975,-120.435"/>
</g>
</g>
</svg>
