<?xml version="1.0" encoding="UTF-8" standalone="no"?>
<!DOCTYPE svg PUBLIC "-//W3C//DTD SVG 1.1//EN"
 "http://www.w3.org/Graphics/SVG/1.1/DTD/svg11.dtd">
<!-- Generated by graphviz version 2.38.0 (20140413.2041)
 -->
<!-- Title: vtkvmtkPolyDataGradientStencil Pages: 1 -->
<svg width="167pt" height="302pt"
 viewBox="0.00 0.00 166.83 302.00" xmlns="http://www.w3.org/2000/svg" xmlns:xlink="http://www.w3.org/1999/xlink">
<g id="graph0" class="graph" transform="scale(1 1) rotate(0) translate(4 298)">
<title>vtkvmtkPolyDataGradientStencil</title>
<polygon fill="white" stroke="none" points="-4,4 -4,-298 162.832,-298 162.832,4 -4,4"/>
<!-- Node0 -->
<g id="node1" class="node"><title>Node0</title>
<polygon fill="#bfbfbf" stroke="black" points="0,-0.5 0,-18.5 158.832,-18.5 158.832,-0.5 0,-0.5"/>
<text text-anchor="middle" x="79.416" y="-6.5" font-family="Helvetica,sans-Serif" font-size="10.00">vtkvmtkPolyDataGradientStencil</text>
</g>
<!-- Node1 -->
<g id="node2" class="node"><title>Node1</title>
<g id="a_node2"><a xlink:href="classvtkvmtkPolyDataManifoldStencil.html" target="_top" xlink:title=".. ">
<polygon fill="white" stroke="black" points="0.27832,-55.5 0.27832,-73.5 158.554,-73.5 158.554,-55.5 0.27832,-55.5"/>
<text text-anchor="middle" x="79.416" y="-61.5" font-family="Helvetica,sans-Serif" font-size="10.00">vtkvmtkPolyDataManifoldStencil</text>
</a>
</g>
</g>
<!-- Node1&#45;&gt;Node0 -->
<g id="edge1" class="edge"><title>Node1&#45;&gt;Node0</title>
<path fill="none" stroke="midnightblue" d="M79.416,-45.1746C79.416,-36.0945 79.416,-25.5949 79.416,-18.5496"/>
<polygon fill="midnightblue" stroke="midnightblue" points="75.9161,-45.2187 79.416,-55.2188 82.9161,-45.2188 75.9161,-45.2187"/>
</g>
<!-- Node2 -->
<g id="node3" class="node"><title>Node2</title>
<g id="a_node3"><a xlink:href="classvtkvmtkStencil.html" target="_top" xlink:title="Apply a weighting matrix to a single neighborhood of a data set. ">
<polygon fill="white" stroke="black" points="39.4653,-110.5 39.4653,-128.5 119.367,-128.5 119.367,-110.5 39.4653,-110.5"/>
<text text-anchor="middle" x="79.416" y="-116.5" font-family="Helvetica,sans-Serif" font-size="10.00">vtkvmtkStencil</text>
</a>
</g>
</g>
<!-- Node2&#45;&gt;Node1 -->
<g id="edge2" class="edge"><title>Node2&#45;&gt;Node1</title>
<path fill="none" stroke="midnightblue" d="M79.416,-100.175C79.416,-91.0945 79.416,-80.5949 79.416,-73.5496"/>
<polygon fill="midnightblue" stroke="midnightblue" points="75.9161,-100.219 79.416,-110.219 82.9161,-100.219 75.9161,-100.219"/>
</g>
<!-- Node3 -->
<g id="node4" class="node"><title>Node3</title>
<g id="a_node4"><a xlink:href="classvtkvmtkNeighborhood.html" target="_top" xlink:title="Query the neighborhood surrounding the set point id in an data set item. ">
<polygon fill="white" stroke="black" points="23.0591,-165.5 23.0591,-183.5 135.773,-183.5 135.773,-165.5 23.0591,-165.5"/>
<text text-anchor="middle" x="79.416" y="-171.5" font-family="Helvetica,sans-Serif" font-size="10.00">vtkvmtkNeighborhood</text>
</a>
</g>
</g>
<!-- Node3&#45;&gt;Node2 -->
<g id="edge3" class="edge"><title>Node3&#45;&gt;Node2</title>
<path fill="none" stroke="midnightblue" d="M79.416,-155.175C79.416,-146.094 79.416,-135.595 79.416,-128.55"/>
<polygon fill="midnightblue" stroke="midnightblue" points="75.9161,-155.219 79.416,-165.219 82.9161,-155.219 75.9161,-155.219"/>
</g>
<!-- Node4 -->
<g id="node5" class="node"><title>Node4</title>
<g id="a_node5"><a xlink:href="classvtkvmtkDataSetItem.html" target="_top" xlink:title="create an item instance with a data set and particular point id. ">
<polygon fill="white" stroke="black" points="26.6821,-220.5 26.6821,-238.5 132.15,-238.5 132.15,-220.5 26.6821,-220.5"/>
<text text-anchor="middle" x="79.416" y="-226.5" font-family="Helvetica,sans-Serif" font-size="10.00">vtkvmtkDataSetItem</text>
</a>
</g>
</g>
<!-- Node4&#45;&gt;Node3 -->
<g id="edge4" class="edge"><title>Node4&#45;&gt;Node3</title>
<path fill="none" stroke="midnightblue" d="M79.416,-210.175C79.416,-201.094 79.416,-190.595 79.416,-183.55"/>
<polygon fill="midnightblue" stroke="midnightblue" points="75.9161,-210.219 79.416,-220.219 82.9161,-210.219 75.9161,-210.219"/>
</g>
<!-- Node5 -->
<g id="node6" class="node"><title>Node5</title>
<g id="a_node6"><a xlink:href="classvtkvmtkItem.html" target="_top" xlink:title="Base class for the construction of neighborhoods and stencil from a set of points. ">
<polygon fill="white" stroke="black" points="44.7485,-275.5 44.7485,-293.5 114.083,-293.5 114.083,-275.5 44.7485,-275.5"/>
<text text-anchor="middle" x="79.416" y="-281.5" font-family="Helvetica,sans-Serif" font-size="10.00">vtkvmtkItem</text>
</a>
</g>
</g>
<!-- Node5&#45;&gt;Node4 -->
<g id="edge5" class="edge"><title>Node5&#45;&gt;Node4</title>
<path fill="none" stroke="midnightblue" d="M79.416,-265.175C79.416,-256.094 79.416,-245.595 79.416,-238.55"/>
<polygon fill="midnightblue" stroke="midnightblue" points="75.9161,-265.219 79.416,-275.219 82.9161,-265.219 75.9161,-265.219"/>
</g>
</g>
</svg>
