<?xml version="1.0" encoding="UTF-8" standalone="no"?>
<!DOCTYPE svg PUBLIC "-//W3C//DTD SVG 1.1//EN"
 "http://www.w3.org/Graphics/SVG/1.1/DTD/svg11.dtd">
<!-- Generated by graphviz version 2.38.0 (20140413.2041)
 -->
<!-- Title: vtkvmtkFEAssembler Pages: 1 -->
<svg width="254pt" height="167pt"
 viewBox="0.00 0.00 254.36 167.00" xmlns="http://www.w3.org/2000/svg" xmlns:xlink="http://www.w3.org/1999/xlink">
<g id="graph0" class="graph" transform="scale(1 1) rotate(0) translate(4 163)">
<title>vtkvmtkFEAssembler</title>
<polygon fill="white" stroke="none" points="-4,4 -4,-163 250.364,-163 250.364,4 -4,4"/>
<!-- Node6 -->
<g id="node1" class="node"><title>Node6</title>
<polygon fill="#bfbfbf" stroke="black" points="104.448,-0.5 104.448,-18.5 214.35,-18.5 214.35,-0.5 104.448,-0.5"/>
<text text-anchor="middle" x="159.399" y="-6.5" font-family="Helvetica,sans-Serif" font-size="10.00">vtkvmtkFEAssembler</text>
</g>
<!-- Node7 -->
<g id="node2" class="node"><title>Node7</title>
<g id="a_node2"><a xlink:href="classvtkvmtkSparseMatrix.html" target="_top" xlink:title=".. ">
<polygon fill="white" stroke="black" points="10.0024,-75.5 10.0024,-93.5 118.795,-93.5 118.795,-75.5 10.0024,-75.5"/>
<text text-anchor="middle" x="64.3989" y="-81.5" font-family="Helvetica,sans-Serif" font-size="10.00">vtkvmtkSparseMatrix</text>
</a>
</g>
</g>
<!-- Node7&#45;&gt;Node6 -->
<g id="edge1" class="edge"><title>Node7&#45;&gt;Node6</title>
<path fill="none" stroke="#9a32cd" stroke-dasharray="5,2" d="M82.8598,-69.3143C102.499,-54.2227 132.887,-30.8727 148.822,-18.6274"/>
<polygon fill="#9a32cd" stroke="#9a32cd" points="80.7253,-66.5404 74.9286,-75.4088 84.9905,-72.091 80.7253,-66.5404"/>
<text text-anchor="middle" x="138.399" y="-44" font-family="Helvetica,sans-Serif" font-size="10.00"> Matrix</text>
</g>
<!-- Node8 -->
<g id="node3" class="node"><title>Node8</title>
<g id="a_node3"><a xlink:href="classvtkvmtkSparseMatrixRow.html" target="_top" xlink:title=".. ">
<polygon fill="white" stroke="black" points="0,-140.5 0,-158.5 128.798,-158.5 128.798,-140.5 0,-140.5"/>
<text text-anchor="middle" x="64.3989" y="-146.5" font-family="Helvetica,sans-Serif" font-size="10.00">vtkvmtkSparseMatrixRow</text>
</a>
</g>
</g>
<!-- Node8&#45;&gt;Node7 -->
<g id="edge2" class="edge"><title>Node8&#45;&gt;Node7</title>
<path fill="none" stroke="#9a32cd" stroke-dasharray="5,2" d="M64.3989,-129.907C64.3989,-117.815 64.3989,-102.653 64.3989,-93.539"/>
<polygon fill="#9a32cd" stroke="#9a32cd" points="60.899,-130.264 64.3989,-140.264 67.899,-130.264 60.899,-130.264"/>
<text text-anchor="middle" x="77.4604" y="-114" font-family="Helvetica,sans-Serif" font-size="10.00"> Array</text>
</g>
<!-- Node9 -->
<g id="node4" class="node"><title>Node9</title>
<g id="a_node4"><a xlink:href="classvtkvmtkDoubleVector.html" target="_top" xlink:title="Base class for vectors utilized in finite&#45;element and other PDE evaluations. ">
<polygon fill="white" stroke="black" points="136.434,-75.5 136.434,-93.5 246.364,-93.5 246.364,-75.5 136.434,-75.5"/>
<text text-anchor="middle" x="191.399" y="-81.5" font-family="Helvetica,sans-Serif" font-size="10.00">vtkvmtkDoubleVector</text>
</a>
</g>
</g>
<!-- Node9&#45;&gt;Node6 -->
<g id="edge3" class="edge"><title>Node9&#45;&gt;Node6</title>
<path fill="none" stroke="#9a32cd" stroke-dasharray="5,2" d="M183.823,-66.2177C177.276,-51.281 168.095,-30.3374 163.06,-18.8518"/>
<polygon fill="#9a32cd" stroke="#9a32cd" points="180.632,-67.6553 187.852,-75.4088 187.043,-64.8449 180.632,-67.6553"/>
<text text-anchor="middle" x="212.034" y="-49" font-family="Helvetica,sans-Serif" font-size="10.00"> SolutionVector</text>
<text text-anchor="middle" x="212.034" y="-39" font-family="Helvetica,sans-Serif" font-size="10.00">RHSVector</text>
</g>
</g>
</svg>
