<?xml version="1.0" encoding="UTF-8" standalone="no"?>
<!DOCTYPE svg PUBLIC "-//W3C//DTD SVG 1.1//EN"
 "http://www.w3.org/Graphics/SVG/1.1/DTD/svg11.dtd">
<!-- Generated by graphviz version 2.38.0 (20140413.2041)
 -->
<!-- Title: vtkvmtkPolyDataFVFELaplaceBeltramiStencil Pages: 1 -->
<svg width="170pt" height="377pt"
 viewBox="0.00 0.00 170.17 377.00" xmlns="http://www.w3.org/2000/svg" xmlns:xlink="http://www.w3.org/1999/xlink">
<g id="graph0" class="graph" transform="scale(1 1) rotate(0) translate(4 373)">
<title>vtkvmtkPolyDataFVFELaplaceBeltramiStencil</title>
<polygon fill="white" stroke="none" points="-4,4 -4,-373 166.167,-373 166.167,4 -4,4"/>
<!-- Node0 -->
<g id="node1" class="node"><title>Node0</title>
<polygon fill="#bfbfbf" stroke="black" points="5.55908,-0.5 5.55908,-28.5 156.608,-28.5 156.608,-0.5 5.55908,-0.5"/>
<text text-anchor="start" x="13.5591" y="-16.5" font-family="Helvetica,sans-Serif" font-size="10.00">vtkvmtkPolyDataFVFELaplace</text>
<text text-anchor="middle" x="81.0835" y="-6.5" font-family="Helvetica,sans-Serif" font-size="10.00">BeltramiStencil</text>
</g>
<!-- Node1 -->
<g id="node2" class="node"><title>Node1</title>
<g id="a_node2"><a xlink:href="classvtkvmtkPolyDataLaplaceBeltramiStencil.html" target="_top" xlink:title="Apply LB weighting to the neighborhood connections of a surface. ">
<polygon fill="white" stroke="black" points="0,-65.5 0,-93.5 162.167,-93.5 162.167,-65.5 0,-65.5"/>
<text text-anchor="start" x="8" y="-81.5" font-family="Helvetica,sans-Serif" font-size="10.00">vtkvmtkPolyDataLaplaceBeltrami</text>
<text text-anchor="middle" x="81.0835" y="-71.5" font-family="Helvetica,sans-Serif" font-size="10.00">Stencil</text>
</a>
</g>
</g>
<!-- Node1&#45;&gt;Node0 -->
<g id="edge1" class="edge"><title>Node1&#45;&gt;Node0</title>
<path fill="none" stroke="midnightblue" d="M81.0835,-55.1641C81.0835,-46.1693 81.0835,-36.2205 81.0835,-28.5369"/>
<polygon fill="midnightblue" stroke="midnightblue" points="77.5836,-55.4463 81.0835,-65.4464 84.5836,-55.4464 77.5836,-55.4463"/>
</g>
<!-- Node2 -->
<g id="node3" class="node"><title>Node2</title>
<g id="a_node3"><a xlink:href="classvtkvmtkPolyDataManifoldStencil.html" target="_top" xlink:title=".. ">
<polygon fill="white" stroke="black" points="1.9458,-130.5 1.9458,-148.5 160.221,-148.5 160.221,-130.5 1.9458,-130.5"/>
<text text-anchor="middle" x="81.0835" y="-136.5" font-family="Helvetica,sans-Serif" font-size="10.00">vtkvmtkPolyDataManifoldStencil</text>
</a>
</g>
</g>
<!-- Node2&#45;&gt;Node1 -->
<g id="edge2" class="edge"><title>Node2&#45;&gt;Node1</title>
<path fill="none" stroke="midnightblue" d="M81.0835,-120.321C81.0835,-111.747 81.0835,-101.7 81.0835,-93.8428"/>
<polygon fill="midnightblue" stroke="midnightblue" points="77.5836,-120.435 81.0835,-130.435 84.5836,-120.435 77.5836,-120.435"/>
</g>
<!-- Node3 -->
<g id="node4" class="node"><title>Node3</title>
<g id="a_node4"><a xlink:href="classvtkvmtkStencil.html" target="_top" xlink:title="Apply a weighting matrix to a single neighborhood of a data set. ">
<polygon fill="white" stroke="black" points="41.1328,-185.5 41.1328,-203.5 121.034,-203.5 121.034,-185.5 41.1328,-185.5"/>
<text text-anchor="middle" x="81.0835" y="-191.5" font-family="Helvetica,sans-Serif" font-size="10.00">vtkvmtkStencil</text>
</a>
</g>
</g>
<!-- Node3&#45;&gt;Node2 -->
<g id="edge3" class="edge"><title>Node3&#45;&gt;Node2</title>
<path fill="none" stroke="midnightblue" d="M81.0835,-175.175C81.0835,-166.094 81.0835,-155.595 81.0835,-148.55"/>
<polygon fill="midnightblue" stroke="midnightblue" points="77.5836,-175.219 81.0835,-185.219 84.5836,-175.219 77.5836,-175.219"/>
</g>
<!-- Node4 -->
<g id="node5" class="node"><title>Node4</title>
<g id="a_node5"><a xlink:href="classvtkvmtkNeighborhood.html" target="_top" xlink:title="Query the neighborhood surrounding the set point id in an data set item. ">
<polygon fill="white" stroke="black" points="24.7266,-240.5 24.7266,-258.5 137.44,-258.5 137.44,-240.5 24.7266,-240.5"/>
<text text-anchor="middle" x="81.0835" y="-246.5" font-family="Helvetica,sans-Serif" font-size="10.00">vtkvmtkNeighborhood</text>
</a>
</g>
</g>
<!-- Node4&#45;&gt;Node3 -->
<g id="edge4" class="edge"><title>Node4&#45;&gt;Node3</title>
<path fill="none" stroke="midnightblue" d="M81.0835,-230.175C81.0835,-221.094 81.0835,-210.595 81.0835,-203.55"/>
<polygon fill="midnightblue" stroke="midnightblue" points="77.5836,-230.219 81.0835,-240.219 84.5836,-230.219 77.5836,-230.219"/>
</g>
<!-- Node5 -->
<g id="node6" class="node"><title>Node5</title>
<g id="a_node6"><a xlink:href="classvtkvmtkDataSetItem.html" target="_top" xlink:title="create an item instance with a data set and particular point id. ">
<polygon fill="white" stroke="black" points="28.3496,-295.5 28.3496,-313.5 133.817,-313.5 133.817,-295.5 28.3496,-295.5"/>
<text text-anchor="middle" x="81.0835" y="-301.5" font-family="Helvetica,sans-Serif" font-size="10.00">vtkvmtkDataSetItem</text>
</a>
</g>
</g>
<!-- Node5&#45;&gt;Node4 -->
<g id="edge5" class="edge"><title>Node5&#45;&gt;Node4</title>
<path fill="none" stroke="midnightblue" d="M81.0835,-285.175C81.0835,-276.094 81.0835,-265.595 81.0835,-258.55"/>
<polygon fill="midnightblue" stroke="midnightblue" points="77.5836,-285.219 81.0835,-295.219 84.5836,-285.219 77.5836,-285.219"/>
</g>
<!-- Node6 -->
<g id="node7" class="node"><title>Node6</title>
<g id="a_node7"><a xlink:href="classvtkvmtkItem.html" target="_top" xlink:title="Base class for the construction of neighborhoods and stencil from a set of points. ">
<polygon fill="white" stroke="black" points="46.416,-350.5 46.416,-368.5 115.751,-368.5 115.751,-350.5 46.416,-350.5"/>
<text text-anchor="middle" x="81.0835" y="-356.5" font-family="Helvetica,sans-Serif" font-size="10.00">vtkvmtkItem</text>
</a>
</g>
</g>
<!-- Node6&#45;&gt;Node5 -->
<g id="edge6" class="edge"><title>Node6&#45;&gt;Node5</title>
<path fill="none" stroke="midnightblue" d="M81.0835,-340.175C81.0835,-331.094 81.0835,-320.595 81.0835,-313.55"/>
<polygon fill="midnightblue" stroke="midnightblue" points="77.5836,-340.219 81.0835,-350.219 84.5836,-340.219 77.5836,-340.219"/>
</g>
</g>
</svg>
