<?xml version="1.0" encoding="UTF-8" standalone="no"?>
<!DOCTYPE svg PUBLIC "-//W3C//DTD SVG 1.1//EN"
 "http://www.w3.org/Graphics/SVG/1.1/DTD/svg11.dtd">
<!-- Generated by graphviz version 2.38.0 (20140413.2041)
 -->
<!-- Title: vtkvmtkDataSetItems Pages: 1 -->
<svg width="145pt" height="204pt"
 viewBox="0.00 0.00 144.90 204.00" xmlns="http://www.w3.org/2000/svg" xmlns:xlink="http://www.w3.org/1999/xlink">
<g id="graph0" class="graph" transform="scale(1 1) rotate(0) translate(4 200)">
<title>vtkvmtkDataSetItems</title>
<polygon fill="white" stroke="none" points="-4,4 -4,-200 140.901,-200 140.901,4 -4,4"/>
<!-- Node5 -->
<g id="node1" class="node"><title>Node5</title>
<polygon fill="#bfbfbf" stroke="black" points="0,-0.5 0,-18.5 110.468,-18.5 110.468,-0.5 0,-0.5"/>
<text text-anchor="middle" x="55.2339" y="-6.5" font-family="Helvetica,sans-Serif" font-size="10.00">vtkvmtkDataSetItems</text>
</g>
<!-- Node6 -->
<g id="node2" class="node"><title>Node6</title>
<g id="a_node2"><a xlink:href="classvtkvmtkItems.html" target="_top" xlink:title="Control allocation and memory footprint of item instances. ">
<polygon fill="white" stroke="black" points="18.0664,-56.5 18.0664,-74.5 92.4014,-74.5 92.4014,-56.5 18.0664,-56.5"/>
<text text-anchor="middle" x="55.2339" y="-62.5" font-family="Helvetica,sans-Serif" font-size="10.00">vtkvmtkItems</text>
</a>
</g>
</g>
<!-- Node6&#45;&gt;Node5 -->
<g id="edge1" class="edge"><title>Node6&#45;&gt;Node5</title>
<path fill="none" stroke="midnightblue" d="M55.2339,-45.8288C55.2339,-36.5774 55.2339,-25.8798 55.2339,-18.7014"/>
<polygon fill="midnightblue" stroke="midnightblue" points="51.734,-46.0625 55.2339,-56.0625 58.734,-46.0625 51.734,-46.0625"/>
</g>
<!-- Node7 -->
<g id="node3" class="node"><title>Node7</title>
<polygon fill="white" stroke="#bfbfbf" points="32.394,-177.5 32.394,-195.5 90.0737,-195.5 90.0737,-177.5 32.394,-177.5"/>
<text text-anchor="middle" x="61.2339" y="-183.5" font-family="Helvetica,sans-Serif" font-size="10.00">vtkObject</text>
</g>
<!-- Node7&#45;&gt;Node6 -->
<g id="edge2" class="edge"><title>Node7&#45;&gt;Node6</title>
<path fill="none" stroke="midnightblue" d="M59.9346,-167.378C59.3638,-159.042 58.7154,-149.022 58.2339,-140 56.968,-116.28 55.9579,-88.2278 55.5002,-74.6605"/>
<polygon fill="midnightblue" stroke="midnightblue" points="56.4498,-167.719 60.6419,-177.449 63.4326,-167.228 56.4498,-167.719"/>
</g>
<!-- Node8 -->
<g id="node4" class="node"><title>Node8</title>
<g id="a_node4"><a xlink:href="classvtkvmtkItem.html" target="_top" xlink:title="Base class for the construction of neighborhoods and stencil from a set of points. ">
<polygon fill="white" stroke="black" points="67.5664,-121.5 67.5664,-139.5 136.901,-139.5 136.901,-121.5 67.5664,-121.5"/>
<text text-anchor="middle" x="102.234" y="-127.5" font-family="Helvetica,sans-Serif" font-size="10.00">vtkvmtkItem</text>
</a>
</g>
</g>
<!-- Node7&#45;&gt;Node8 -->
<g id="edge4" class="edge"><title>Node7&#45;&gt;Node8</title>
<path fill="none" stroke="midnightblue" d="M73.8104,-168.936C81.169,-159.244 90.1374,-147.432 96.0069,-139.701"/>
<polygon fill="midnightblue" stroke="midnightblue" points="70.8997,-166.982 67.6401,-177.062 76.4748,-171.215 70.8997,-166.982"/>
</g>
<!-- Node8&#45;&gt;Node6 -->
<g id="edge3" class="edge"><title>Node8&#45;&gt;Node6</title>
<path fill="none" stroke="#9a32cd" stroke-dasharray="5,2" d="M90.0095,-113.114C80.7582,-100.713 68.4511,-84.2167 61.2312,-74.539"/>
<polygon fill="#9a32cd" stroke="#9a32cd" points="87.3045,-115.341 96.0895,-121.264 92.9151,-111.156 87.3045,-115.341"/>
<text text-anchor="middle" x="95.2954" y="-95" font-family="Helvetica,sans-Serif" font-size="10.00"> Array</text>
</g>
</g>
</svg>
