<?xml version="1.0" encoding="UTF-8" standalone="no"?>
<!DOCTYPE svg PUBLIC "-//W3C//DTD SVG 1.1//EN"
 "http://www.w3.org/Graphics/SVG/1.1/DTD/svg11.dtd">
<!-- Generated by graphviz version 2.38.0 (20140413.2041)
 -->
<!-- Title: vtkvmtkPolyDataStencilFlowFilter Pages: 1 -->
<svg width="261pt" height="335pt"
 viewBox="0.00 0.00 261.46 335.00" xmlns="http://www.w3.org/2000/svg" xmlns:xlink="http://www.w3.org/1999/xlink">
<g id="graph0" class="graph" transform="scale(1 1) rotate(0) translate(4 331)">
<title>vtkvmtkPolyDataStencilFlowFilter</title>
<polygon fill="white" stroke="none" points="-4,4 -4,-331 257.463,-331 257.463,4 -4,4"/>
<!-- Node2 -->
<g id="node1" class="node"><title>Node2</title>
<polygon fill="#bfbfbf" stroke="black" points="22,-0.5 22,-28.5 163.591,-28.5 163.591,-0.5 22,-0.5"/>
<text text-anchor="start" x="30" y="-16.5" font-family="Helvetica,sans-Serif" font-size="10.00">vtkvmtkPolyDataStencilFlow</text>
<text text-anchor="middle" x="92.7954" y="-6.5" font-family="Helvetica,sans-Serif" font-size="10.00">Filter</text>
</g>
<!-- Node3 -->
<g id="node2" class="node"><title>Node3</title>
<polygon fill="white" stroke="#bfbfbf" points="0,-75.5 0,-93.5 111.591,-93.5 111.591,-75.5 0,-75.5"/>
<text text-anchor="middle" x="55.7954" y="-81.5" font-family="Helvetica,sans-Serif" font-size="10.00">vtkPolyDataAlgorithm</text>
</g>
<!-- Node3&#45;&gt;Node2 -->
<g id="edge1" class="edge"><title>Node3&#45;&gt;Node2</title>
<path fill="none" stroke="midnightblue" d="M64.9733,-66.6325C71.3513,-54.9109 79.7304,-39.5114 85.6203,-28.6867"/>
<polygon fill="midnightblue" stroke="midnightblue" points="61.8902,-64.9757 60.1851,-75.4325 68.039,-68.3214 61.8902,-64.9757"/>
</g>
<!-- Node4 -->
<g id="node3" class="node"><title>Node4</title>
<g id="a_node3"><a xlink:href="classvtkvmtkStencils.html" target="_top" xlink:title="Create an empty, umbrella, area weighted umbrella, finite&#45;element LP, or finite&#45;volume finite&#45;element...">
<polygon fill="white" stroke="black" points="129.345,-75.5 129.345,-93.5 214.246,-93.5 214.246,-75.5 129.345,-75.5"/>
<text text-anchor="middle" x="171.795" y="-81.5" font-family="Helvetica,sans-Serif" font-size="10.00">vtkvmtkStencils</text>
</a>
</g>
</g>
<!-- Node4&#45;&gt;Node2 -->
<g id="edge2" class="edge"><title>Node4&#45;&gt;Node2</title>
<path fill="none" stroke="#9a32cd" stroke-dasharray="5,2" d="M154.602,-68.7009C140.748,-56.7753 121.446,-40.1609 108.115,-28.6867"/>
<polygon fill="#9a32cd" stroke="#9a32cd" points="152.561,-71.5614 162.423,-75.4325 157.127,-66.2561 152.561,-71.5614"/>
<text text-anchor="middle" x="157.692" y="-49" font-family="Helvetica,sans-Serif" font-size="10.00"> Stencils</text>
</g>
<!-- Node5 -->
<g id="node4" class="node"><title>Node5</title>
<g id="a_node4"><a xlink:href="classvtkvmtkDataSetItems.html" target="_top" xlink:title="Create a collection of data set items, one for every point within the data set. ">
<polygon fill="white" stroke="black" points="116.562,-131.5 116.562,-149.5 227.029,-149.5 227.029,-131.5 116.562,-131.5"/>
<text text-anchor="middle" x="171.795" y="-137.5" font-family="Helvetica,sans-Serif" font-size="10.00">vtkvmtkDataSetItems</text>
</a>
</g>
</g>
<!-- Node5&#45;&gt;Node4 -->
<g id="edge3" class="edge"><title>Node5&#45;&gt;Node4</title>
<path fill="none" stroke="midnightblue" d="M171.795,-120.829C171.795,-111.577 171.795,-100.88 171.795,-93.7014"/>
<polygon fill="midnightblue" stroke="midnightblue" points="168.296,-121.062 171.795,-131.062 175.296,-121.063 168.296,-121.062"/>
</g>
<!-- Node6 -->
<g id="node5" class="node"><title>Node6</title>
<g id="a_node5"><a xlink:href="classvtkvmtkItems.html" target="_top" xlink:title="Control allocation and memory footprint of item instances. ">
<polygon fill="white" stroke="black" points="134.628,-187.5 134.628,-205.5 208.963,-205.5 208.963,-187.5 134.628,-187.5"/>
<text text-anchor="middle" x="171.795" y="-193.5" font-family="Helvetica,sans-Serif" font-size="10.00">vtkvmtkItems</text>
</a>
</g>
</g>
<!-- Node6&#45;&gt;Node5 -->
<g id="edge4" class="edge"><title>Node6&#45;&gt;Node5</title>
<path fill="none" stroke="midnightblue" d="M171.795,-176.829C171.795,-167.577 171.795,-156.88 171.795,-149.701"/>
<polygon fill="midnightblue" stroke="midnightblue" points="168.296,-177.062 171.795,-187.062 175.296,-177.063 168.296,-177.062"/>
</g>
<!-- Node7 -->
<g id="node6" class="node"><title>Node7</title>
<polygon fill="white" stroke="#bfbfbf" points="148.956,-308.5 148.956,-326.5 206.635,-326.5 206.635,-308.5 148.956,-308.5"/>
<text text-anchor="middle" x="177.795" y="-314.5" font-family="Helvetica,sans-Serif" font-size="10.00">vtkObject</text>
</g>
<!-- Node7&#45;&gt;Node6 -->
<g id="edge5" class="edge"><title>Node7&#45;&gt;Node6</title>
<path fill="none" stroke="midnightblue" d="M176.496,-298.378C175.925,-290.042 175.277,-280.022 174.795,-271 173.53,-247.28 172.519,-219.228 172.062,-205.66"/>
<polygon fill="midnightblue" stroke="midnightblue" points="173.011,-298.719 177.203,-308.449 179.994,-298.228 173.011,-298.719"/>
</g>
<!-- Node8 -->
<g id="node7" class="node"><title>Node8</title>
<g id="a_node7"><a xlink:href="classvtkvmtkItem.html" target="_top" xlink:title="Base class for the construction of neighborhoods and stencil from a set of points. ">
<polygon fill="white" stroke="black" points="184.128,-252.5 184.128,-270.5 253.463,-270.5 253.463,-252.5 184.128,-252.5"/>
<text text-anchor="middle" x="218.795" y="-258.5" font-family="Helvetica,sans-Serif" font-size="10.00">vtkvmtkItem</text>
</a>
</g>
</g>
<!-- Node7&#45;&gt;Node8 -->
<g id="edge7" class="edge"><title>Node7&#45;&gt;Node8</title>
<path fill="none" stroke="midnightblue" d="M190.372,-299.936C197.731,-290.244 206.699,-278.432 212.568,-270.701"/>
<polygon fill="midnightblue" stroke="midnightblue" points="187.461,-297.982 184.202,-308.062 193.036,-302.215 187.461,-297.982"/>
</g>
<!-- Node8&#45;&gt;Node6 -->
<g id="edge6" class="edge"><title>Node8&#45;&gt;Node6</title>
<path fill="none" stroke="#9a32cd" stroke-dasharray="5,2" d="M206.571,-244.114C197.32,-231.713 185.013,-215.217 177.793,-205.539"/>
<polygon fill="#9a32cd" stroke="#9a32cd" points="203.866,-246.341 212.651,-252.264 209.477,-242.156 203.866,-246.341"/>
<text text-anchor="middle" x="210.857" y="-226" font-family="Helvetica,sans-Serif" font-size="10.00"> Array</text>
</g>
</g>
</svg>
