<?xml version="1.0" encoding="UTF-8" standalone="no"?>
<!DOCTYPE svg PUBLIC "-//W3C//DTD SVG 1.1//EN"
 "http://www.w3.org/Graphics/SVG/1.1/DTD/svg11.dtd">
<!-- Generated by graphviz version 2.38.0 (20140413.2041)
 -->
<!-- Title: vtkvmtkPolyDataBoundaryExtractor Pages: 1 -->
<svg width="181pt" height="82pt"
 viewBox="0.00 0.00 181.28 82.00" xmlns="http://www.w3.org/2000/svg" xmlns:xlink="http://www.w3.org/1999/xlink">
<g id="graph0" class="graph" transform="scale(1 1) rotate(0) translate(4 78)">
<title>vtkvmtkPolyDataBoundaryExtractor</title>
<polygon fill="white" stroke="none" points="-4,4 -4,-78 177.28,-78 177.28,4 -4,4"/>
<!-- Node0 -->
<g id="node1" class="node"><title>Node0</title>
<polygon fill="#bfbfbf" stroke="black" points="0,-0.5 0,-18.5 173.28,-18.5 173.28,-0.5 0,-0.5"/>
<text text-anchor="middle" x="86.6401" y="-6.5" font-family="Helvetica,sans-Serif" font-size="10.00">vtkvmtkPolyDataBoundaryExtractor</text>
</g>
<!-- Node1 -->
<g id="node2" class="node"><title>Node1</title>
<polygon fill="white" stroke="#bfbfbf" points="30.8447,-55.5 30.8447,-73.5 142.436,-73.5 142.436,-55.5 30.8447,-55.5"/>
<text text-anchor="middle" x="86.6401" y="-61.5" font-family="Helvetica,sans-Serif" font-size="10.00">vtkPolyDataAlgorithm</text>
</g>
<!-- Node1&#45;&gt;Node0 -->
<g id="edge1" class="edge"><title>Node1&#45;&gt;Node0</title>
<path fill="none" stroke="midnightblue" d="M80.1841,-45.1746C79.5113,-36.0945 79.9935,-25.5949 81.6308,-18.5496"/>
<polygon fill="midnightblue" stroke="midnightblue" points="76.7365,-45.7947 81.5776,-55.2188 83.6701,-44.8326 76.7365,-45.7947"/>
</g>
<!-- Node1&#45;&gt;Node0 -->
<g id="edge2" class="edge"><title>Node1&#45;&gt;Node0</title>
<path fill="none" stroke="midnightblue" d="M93.0962,-45.1746C93.769,-36.0945 93.2868,-25.5949 91.6495,-18.5496"/>
<polygon fill="midnightblue" stroke="midnightblue" points="89.6102,-44.8326 91.7026,-55.2188 96.5438,-45.7947 89.6102,-44.8326"/>
</g>
</g>
</svg>
