<?xml version="1.0" encoding="UTF-8" standalone="no"?>
<!DOCTYPE svg PUBLIC "-//W3C//DTD SVG 1.1//EN"
 "http://www.w3.org/Graphics/SVG/1.1/DTD/svg11.dtd">
<!-- Generated by graphviz version 2.38.0 (20140413.2041)
 -->
<!-- Title: vtkvmtkPolyDataPotentialFit Pages: 1 -->
<svg width="278pt" height="325pt"
 viewBox="0.00 0.00 278.46 325.00" xmlns="http://www.w3.org/2000/svg" xmlns:xlink="http://www.w3.org/1999/xlink">
<g id="graph0" class="graph" transform="scale(1 1) rotate(0) translate(4 321)">
<title>vtkvmtkPolyDataPotentialFit</title>
<polygon fill="white" stroke="none" points="-4,4 -4,-321 274.463,-321 274.463,4 -4,4"/>
<!-- Node2 -->
<g id="node1" class="node"><title>Node2</title>
<polygon fill="#bfbfbf" stroke="black" points="26.5518,-0.5 26.5518,-18.5 167.039,-18.5 167.039,-0.5 26.5518,-0.5"/>
<text text-anchor="middle" x="96.7954" y="-6.5" font-family="Helvetica,sans-Serif" font-size="10.00">vtkvmtkPolyDataPotentialFit</text>
</g>
<!-- Node3 -->
<g id="node2" class="node"><title>Node3</title>
<polygon fill="white" stroke="#bfbfbf" points="0,-65.5 0,-83.5 111.591,-83.5 111.591,-65.5 0,-65.5"/>
<text text-anchor="middle" x="55.7954" y="-71.5" font-family="Helvetica,sans-Serif" font-size="10.00">vtkPolyDataAlgorithm</text>
</g>
<!-- Node3&#45;&gt;Node2 -->
<g id="edge1" class="edge"><title>Node3&#45;&gt;Node2</title>
<path fill="none" stroke="midnightblue" d="M66.695,-56.7518C74.7376,-44.3937 85.3266,-28.1227 91.5637,-18.539"/>
<polygon fill="midnightblue" stroke="midnightblue" points="63.6766,-54.9733 61.1554,-65.2639 69.5435,-58.7916 63.6766,-54.9733"/>
</g>
<!-- Node4 -->
<g id="node3" class="node"><title>Node4</title>
<g id="a_node3"><a xlink:href="classvtkvmtkNeighborhoods.html" target="_top" xlink:title="Create an empty, polydata, polydata manifold, polydata manifold extended, or unstructured grid neighb...">
<polygon fill="white" stroke="black" points="129.938,-65.5 129.938,-83.5 247.652,-83.5 247.652,-65.5 129.938,-65.5"/>
<text text-anchor="middle" x="188.795" y="-71.5" font-family="Helvetica,sans-Serif" font-size="10.00">vtkvmtkNeighborhoods</text>
</a>
</g>
</g>
<!-- Node4&#45;&gt;Node2 -->
<g id="edge2" class="edge"><title>Node4&#45;&gt;Node2</title>
<path fill="none" stroke="#9a32cd" stroke-dasharray="5,2" d="M168.471,-59.5823C150.078,-46.9872 123.628,-28.8744 108.535,-18.539"/>
<polygon fill="#9a32cd" stroke="#9a32cd" points="166.54,-62.5016 176.768,-65.2639 170.495,-56.7259 166.54,-62.5016"/>
<text text-anchor="middle" x="183.098" y="-39" font-family="Helvetica,sans-Serif" font-size="10.00"> Neighborhoods</text>
</g>
<!-- Node5 -->
<g id="node4" class="node"><title>Node5</title>
<g id="a_node4"><a xlink:href="classvtkvmtkDataSetItems.html" target="_top" xlink:title="Create a collection of data set items, one for every point within the data set. ">
<polygon fill="white" stroke="black" points="133.562,-121.5 133.562,-139.5 244.029,-139.5 244.029,-121.5 133.562,-121.5"/>
<text text-anchor="middle" x="188.795" y="-127.5" font-family="Helvetica,sans-Serif" font-size="10.00">vtkvmtkDataSetItems</text>
</a>
</g>
</g>
<!-- Node5&#45;&gt;Node4 -->
<g id="edge3" class="edge"><title>Node5&#45;&gt;Node4</title>
<path fill="none" stroke="midnightblue" d="M188.795,-110.829C188.795,-101.577 188.795,-90.8798 188.795,-83.7014"/>
<polygon fill="midnightblue" stroke="midnightblue" points="185.296,-111.062 188.795,-121.062 192.296,-111.063 185.296,-111.062"/>
</g>
<!-- Node6 -->
<g id="node5" class="node"><title>Node6</title>
<g id="a_node5"><a xlink:href="classvtkvmtkItems.html" target="_top" xlink:title="Control allocation and memory footprint of item instances. ">
<polygon fill="white" stroke="black" points="151.628,-177.5 151.628,-195.5 225.963,-195.5 225.963,-177.5 151.628,-177.5"/>
<text text-anchor="middle" x="188.795" y="-183.5" font-family="Helvetica,sans-Serif" font-size="10.00">vtkvmtkItems</text>
</a>
</g>
</g>
<!-- Node6&#45;&gt;Node5 -->
<g id="edge4" class="edge"><title>Node6&#45;&gt;Node5</title>
<path fill="none" stroke="midnightblue" d="M188.795,-166.829C188.795,-157.577 188.795,-146.88 188.795,-139.701"/>
<polygon fill="midnightblue" stroke="midnightblue" points="185.296,-167.062 188.795,-177.062 192.296,-167.063 185.296,-167.062"/>
</g>
<!-- Node7 -->
<g id="node6" class="node"><title>Node7</title>
<polygon fill="white" stroke="#bfbfbf" points="165.956,-298.5 165.956,-316.5 223.635,-316.5 223.635,-298.5 165.956,-298.5"/>
<text text-anchor="middle" x="194.795" y="-304.5" font-family="Helvetica,sans-Serif" font-size="10.00">vtkObject</text>
</g>
<!-- Node7&#45;&gt;Node6 -->
<g id="edge5" class="edge"><title>Node7&#45;&gt;Node6</title>
<path fill="none" stroke="midnightblue" d="M193.496,-288.378C192.925,-280.042 192.277,-270.022 191.795,-261 190.53,-237.28 189.519,-209.228 189.062,-195.66"/>
<polygon fill="midnightblue" stroke="midnightblue" points="190.011,-288.719 194.203,-298.449 196.994,-288.228 190.011,-288.719"/>
</g>
<!-- Node8 -->
<g id="node7" class="node"><title>Node8</title>
<g id="a_node7"><a xlink:href="classvtkvmtkItem.html" target="_top" xlink:title="Base class for the construction of neighborhoods and stencil from a set of points. ">
<polygon fill="white" stroke="black" points="201.128,-242.5 201.128,-260.5 270.463,-260.5 270.463,-242.5 201.128,-242.5"/>
<text text-anchor="middle" x="235.795" y="-248.5" font-family="Helvetica,sans-Serif" font-size="10.00">vtkvmtkItem</text>
</a>
</g>
</g>
<!-- Node7&#45;&gt;Node8 -->
<g id="edge7" class="edge"><title>Node7&#45;&gt;Node8</title>
<path fill="none" stroke="midnightblue" d="M207.372,-289.936C214.731,-280.244 223.699,-268.432 229.568,-260.701"/>
<polygon fill="midnightblue" stroke="midnightblue" points="204.461,-287.982 201.202,-298.062 210.036,-292.215 204.461,-287.982"/>
</g>
<!-- Node8&#45;&gt;Node6 -->
<g id="edge6" class="edge"><title>Node8&#45;&gt;Node6</title>
<path fill="none" stroke="#9a32cd" stroke-dasharray="5,2" d="M223.571,-234.114C214.32,-221.713 202.013,-205.217 194.793,-195.539"/>
<polygon fill="#9a32cd" stroke="#9a32cd" points="220.866,-236.341 229.651,-242.264 226.477,-232.156 220.866,-236.341"/>
<text text-anchor="middle" x="227.857" y="-216" font-family="Helvetica,sans-Serif" font-size="10.00"> Array</text>
</g>
</g>
</svg>
