<?xml version="1.0" encoding="UTF-8" standalone="no"?>
<!DOCTYPE svg PUBLIC "-//W3C//DTD SVG 1.1//EN"
 "http://www.w3.org/Graphics/SVG/1.1/DTD/svg11.dtd">
<!-- Generated by graphviz version 2.38.0 (20140413.2041)
 -->
<!-- Title: vtkvmtkStencils Pages: 1 -->
<svg width="118pt" height="204pt"
 viewBox="0.00 0.00 118.47 204.00" xmlns="http://www.w3.org/2000/svg" xmlns:xlink="http://www.w3.org/1999/xlink">
<g id="graph0" class="graph" transform="scale(1 1) rotate(0) translate(4 200)">
<title>vtkvmtkStencils</title>
<polygon fill="white" stroke="none" points="-4,4 -4,-200 114.468,-200 114.468,4 -4,4"/>
<!-- Node3 -->
<g id="node1" class="node"><title>Node3</title>
<polygon fill="#bfbfbf" stroke="black" points="12.7832,-0.5 12.7832,-18.5 97.6846,-18.5 97.6846,-0.5 12.7832,-0.5"/>
<text text-anchor="middle" x="55.2339" y="-6.5" font-family="Helvetica,sans-Serif" font-size="10.00">vtkvmtkStencils</text>
</g>
<!-- Node4 -->
<g id="node2" class="node"><title>Node4</title>
<g id="a_node2"><a xlink:href="classvtkvmtkDataSetItems.html" target="_top" xlink:title="Create a collection of data set items, one for every point within the data set. ">
<polygon fill="white" stroke="black" points="0,-56.5 0,-74.5 110.468,-74.5 110.468,-56.5 0,-56.5"/>
<text text-anchor="middle" x="55.2339" y="-62.5" font-family="Helvetica,sans-Serif" font-size="10.00">vtkvmtkDataSetItems</text>
</a>
</g>
</g>
<!-- Node4&#45;&gt;Node3 -->
<g id="edge1" class="edge"><title>Node4&#45;&gt;Node3</title>
<path fill="none" stroke="midnightblue" d="M55.2339,-45.8288C55.2339,-36.5774 55.2339,-25.8798 55.2339,-18.7014"/>
<polygon fill="midnightblue" stroke="midnightblue" points="51.734,-46.0625 55.2339,-56.0625 58.734,-46.0625 51.734,-46.0625"/>
</g>
<!-- Node5 -->
<g id="node3" class="node"><title>Node5</title>
<g id="a_node3"><a xlink:href="classvtkvmtkItems.html" target="_top" xlink:title="Control allocation and memory footprint of item instances. ">
<polygon fill="white" stroke="black" points="18.0664,-112.5 18.0664,-130.5 92.4014,-130.5 92.4014,-112.5 18.0664,-112.5"/>
<text text-anchor="middle" x="55.2339" y="-118.5" font-family="Helvetica,sans-Serif" font-size="10.00">vtkvmtkItems</text>
</a>
</g>
</g>
<!-- Node5&#45;&gt;Node4 -->
<g id="edge2" class="edge"><title>Node5&#45;&gt;Node4</title>
<path fill="none" stroke="midnightblue" d="M55.2339,-101.829C55.2339,-92.5774 55.2339,-81.8798 55.2339,-74.7014"/>
<polygon fill="midnightblue" stroke="midnightblue" points="51.734,-102.062 55.2339,-112.062 58.734,-102.063 51.734,-102.062"/>
</g>
<!-- Node6 -->
<g id="node4" class="node"><title>Node6</title>
<g id="a_node4"><a xlink:href="classvtkvmtkItem.html" target="_top" xlink:title="Base class for the construction of neighborhoods and stencil from a set of points. ">
<polygon fill="white" stroke="black" points="20.5664,-177.5 20.5664,-195.5 89.9014,-195.5 89.9014,-177.5 20.5664,-177.5"/>
<text text-anchor="middle" x="55.2339" y="-183.5" font-family="Helvetica,sans-Serif" font-size="10.00">vtkvmtkItem</text>
</a>
</g>
</g>
<!-- Node6&#45;&gt;Node5 -->
<g id="edge3" class="edge"><title>Node6&#45;&gt;Node5</title>
<path fill="none" stroke="#9a32cd" stroke-dasharray="5,2" d="M55.2339,-166.907C55.2339,-154.815 55.2339,-139.653 55.2339,-130.539"/>
<polygon fill="#9a32cd" stroke="#9a32cd" points="51.734,-167.264 55.2339,-177.264 58.734,-167.264 51.734,-167.264"/>
<text text-anchor="middle" x="68.2954" y="-151" font-family="Helvetica,sans-Serif" font-size="10.00"> Array</text>
</g>
</g>
</svg>
