<?xml version="1.0" encoding="UTF-8" standalone="no"?>
<!DOCTYPE svg PUBLIC "-//W3C//DTD SVG 1.1//EN"
 "http://www.w3.org/Graphics/SVG/1.1/DTD/svg11.dtd">
<!-- Generated by graphviz version 2.38.0 (20140413.2041)
 -->
<!-- Title: vtkvmtkOpenNLLinearSystemSolver Pages: 1 -->
<svg width="254pt" height="298pt"
 viewBox="0.00 0.00 254.36 298.00" xmlns="http://www.w3.org/2000/svg" xmlns:xlink="http://www.w3.org/1999/xlink">
<g id="graph0" class="graph" transform="scale(1 1) rotate(0) translate(4 294)">
<title>vtkvmtkOpenNLLinearSystemSolver</title>
<polygon fill="white" stroke="none" points="-4,4 -4,-294 250.364,-294 250.364,4 -4,4"/>
<!-- Node2 -->
<g id="node1" class="node"><title>Node2</title>
<polygon fill="#bfbfbf" stroke="black" points="85.2637,-0.5 85.2637,-28.5 233.534,-28.5 233.534,-0.5 85.2637,-0.5"/>
<text text-anchor="start" x="93.2637" y="-16.5" font-family="Helvetica,sans-Serif" font-size="10.00">vtkvmtkOpenNLLinearSystem</text>
<text text-anchor="middle" x="159.399" y="-6.5" font-family="Helvetica,sans-Serif" font-size="10.00">Solver</text>
</g>
<!-- Node3 -->
<g id="node2" class="node"><title>Node3</title>
<g id="a_node2"><a xlink:href="classvtkvmtkLinearSystemSolver.html" target="_top" xlink:title="Base class for linear system of equation solver implementations. ">
<polygon fill="white" stroke="black" points="89.7144,-66.5 89.7144,-84.5 229.083,-84.5 229.083,-66.5 89.7144,-66.5"/>
<text text-anchor="middle" x="159.399" y="-72.5" font-family="Helvetica,sans-Serif" font-size="10.00">vtkvmtkLinearSystemSolver</text>
</a>
</g>
</g>
<!-- Node3&#45;&gt;Node2 -->
<g id="edge1" class="edge"><title>Node3&#45;&gt;Node2</title>
<path fill="none" stroke="midnightblue" d="M159.399,-56.1543C159.399,-47.2359 159.399,-36.7225 159.399,-28.6215"/>
<polygon fill="midnightblue" stroke="midnightblue" points="155.899,-56.2963 159.399,-66.2963 162.899,-56.2963 155.899,-56.2963"/>
</g>
<!-- Node4 -->
<g id="node3" class="node"><title>Node4</title>
<g id="a_node3"><a xlink:href="classvtkvmtkLinearSystem.html" target="_top" xlink:title="Base container to hold sparse matrice objects representing a linear system of equations Ax = B...">
<polygon fill="white" stroke="black" points="103.887,-131.5 103.887,-149.5 214.911,-149.5 214.911,-131.5 103.887,-131.5"/>
<text text-anchor="middle" x="159.399" y="-137.5" font-family="Helvetica,sans-Serif" font-size="10.00">vtkvmtkLinearSystem</text>
</a>
</g>
</g>
<!-- Node4&#45;&gt;Node3 -->
<g id="edge2" class="edge"><title>Node4&#45;&gt;Node3</title>
<path fill="none" stroke="#9a32cd" stroke-dasharray="5,2" d="M159.399,-120.907C159.399,-108.815 159.399,-93.6529 159.399,-84.539"/>
<polygon fill="#9a32cd" stroke="#9a32cd" points="155.899,-121.264 159.399,-131.264 162.899,-121.264 155.899,-121.264"/>
<text text-anchor="middle" x="191.357" y="-105" font-family="Helvetica,sans-Serif" font-size="10.00"> LinearSystem</text>
</g>
<!-- Node5 -->
<g id="node4" class="node"><title>Node5</title>
<g id="a_node4"><a xlink:href="classvtkvmtkSparseMatrix.html" target="_top" xlink:title=".. ">
<polygon fill="white" stroke="black" points="10.0024,-206.5 10.0024,-224.5 118.795,-224.5 118.795,-206.5 10.0024,-206.5"/>
<text text-anchor="middle" x="64.3989" y="-212.5" font-family="Helvetica,sans-Serif" font-size="10.00">vtkvmtkSparseMatrix</text>
</a>
</g>
</g>
<!-- Node5&#45;&gt;Node4 -->
<g id="edge3" class="edge"><title>Node5&#45;&gt;Node4</title>
<path fill="none" stroke="#9a32cd" stroke-dasharray="5,2" d="M82.8598,-200.314C102.499,-185.223 132.887,-161.873 148.822,-149.627"/>
<polygon fill="#9a32cd" stroke="#9a32cd" points="80.7253,-197.54 74.9286,-206.409 84.9905,-203.091 80.7253,-197.54"/>
<text text-anchor="middle" x="127.85" y="-175" font-family="Helvetica,sans-Serif" font-size="10.00"> A</text>
</g>
<!-- Node6 -->
<g id="node5" class="node"><title>Node6</title>
<g id="a_node5"><a xlink:href="classvtkvmtkSparseMatrixRow.html" target="_top" xlink:title=".. ">
<polygon fill="white" stroke="black" points="0,-271.5 0,-289.5 128.798,-289.5 128.798,-271.5 0,-271.5"/>
<text text-anchor="middle" x="64.3989" y="-277.5" font-family="Helvetica,sans-Serif" font-size="10.00">vtkvmtkSparseMatrixRow</text>
</a>
</g>
</g>
<!-- Node6&#45;&gt;Node5 -->
<g id="edge4" class="edge"><title>Node6&#45;&gt;Node5</title>
<path fill="none" stroke="#9a32cd" stroke-dasharray="5,2" d="M64.3989,-260.907C64.3989,-248.815 64.3989,-233.653 64.3989,-224.539"/>
<polygon fill="#9a32cd" stroke="#9a32cd" points="60.899,-261.264 64.3989,-271.264 67.899,-261.264 60.899,-261.264"/>
<text text-anchor="middle" x="77.4604" y="-245" font-family="Helvetica,sans-Serif" font-size="10.00"> Array</text>
</g>
<!-- Node7 -->
<g id="node6" class="node"><title>Node7</title>
<g id="a_node6"><a xlink:href="classvtkvmtkDoubleVector.html" target="_top" xlink:title="Base class for vectors utilized in finite&#45;element and other PDE evaluations. ">
<polygon fill="white" stroke="black" points="136.434,-206.5 136.434,-224.5 246.364,-224.5 246.364,-206.5 136.434,-206.5"/>
<text text-anchor="middle" x="191.399" y="-212.5" font-family="Helvetica,sans-Serif" font-size="10.00">vtkvmtkDoubleVector</text>
</a>
</g>
</g>
<!-- Node7&#45;&gt;Node4 -->
<g id="edge5" class="edge"><title>Node7&#45;&gt;Node4</title>
<path fill="none" stroke="#9a32cd" stroke-dasharray="5,2" d="M183.823,-197.218C177.276,-182.281 168.095,-161.337 163.06,-149.852"/>
<polygon fill="#9a32cd" stroke="#9a32cd" points="180.632,-198.655 187.852,-206.409 187.043,-195.845 180.632,-198.655"/>
<text text-anchor="middle" x="184.123" y="-180" font-family="Helvetica,sans-Serif" font-size="10.00"> X</text>
<text text-anchor="middle" x="184.123" y="-170" font-family="Helvetica,sans-Serif" font-size="10.00">B</text>
</g>
</g>
</svg>
