<?xml version="1.0" encoding="UTF-8" standalone="no"?>
<!DOCTYPE svg PUBLIC "-//W3C//DTD SVG 1.1//EN"
 "http://www.w3.org/Graphics/SVG/1.1/DTD/svg11.dtd">
<!-- Generated by graphviz version 2.38.0 (20140413.2041)
 -->
<!-- Title: vtkvmtkFEAssembler Pages: 1 -->
<svg width="331pt" height="225pt"
 viewBox="0.00 0.00 331.06 225.00" xmlns="http://www.w3.org/2000/svg" xmlns:xlink="http://www.w3.org/1999/xlink">
<g id="graph0" class="graph" transform="scale(1 1) rotate(0) translate(4 221)">
<title>vtkvmtkFEAssembler</title>
<polygon fill="white" stroke="none" points="-4,4 -4,-221 327.059,-221 327.059,4 -4,4"/>
<!-- Node0 -->
<g id="node1" class="node"><title>Node0</title>
<polygon fill="#bfbfbf" stroke="black" points="0,-99.5 0,-117.5 109.901,-117.5 109.901,-99.5 0,-99.5"/>
<text text-anchor="middle" x="54.9507" y="-105.5" font-family="Helvetica,sans-Serif" font-size="10.00">vtkvmtkFEAssembler</text>
</g>
<!-- Node1 -->
<g id="node2" class="node"><title>Node1</title>
<g id="a_node2"><a xlink:href="classvtkvmtkPolyDataFEGradientAssembler.html" target="_top" xlink:title="Construct a gradient based finite element calculation. ">
<polygon fill="white" stroke="black" points="163.682,-188.5 163.682,-216.5 305.278,-216.5 305.278,-188.5 163.682,-188.5"/>
<text text-anchor="start" x="171.682" y="-204.5" font-family="Helvetica,sans-Serif" font-size="10.00">vtkvmtkPolyDataFEGradient</text>
<text text-anchor="middle" x="234.48" y="-194.5" font-family="Helvetica,sans-Serif" font-size="10.00">Assembler</text>
</a>
</g>
</g>
<!-- Node0&#45;&gt;Node1 -->
<g id="edge1" class="edge"><title>Node0&#45;&gt;Node1</title>
<path fill="none" stroke="midnightblue" d="M72.4433,-125.02C89.4533,-141.16 117.442,-165.311 145.901,-179.5 152.795,-182.937 160.258,-185.901 167.82,-188.447"/>
<polygon fill="midnightblue" stroke="midnightblue" points="74.6352,-122.27 65.0208,-117.819 69.7609,-127.294 74.6352,-122.27"/>
</g>
<!-- Node2 -->
<g id="node3" class="node"><title>Node2</title>
<g id="a_node3"><a xlink:href="classvtkvmtkPolyDataFELaplaceAssembler.html" target="_top" xlink:title="construct a laplacian based finite element calculation. ">
<polygon fill="white" stroke="black" points="165.345,-141.5 165.345,-169.5 303.615,-169.5 303.615,-141.5 165.345,-141.5"/>
<text text-anchor="start" x="173.345" y="-157.5" font-family="Helvetica,sans-Serif" font-size="10.00">vtkvmtkPolyDataFELaplace</text>
<text text-anchor="middle" x="234.48" y="-147.5" font-family="Helvetica,sans-Serif" font-size="10.00">Assembler</text>
</a>
</g>
</g>
<!-- Node0&#45;&gt;Node2 -->
<g id="edge2" class="edge"><title>Node0&#45;&gt;Node2</title>
<path fill="none" stroke="midnightblue" d="M99.5485,-120.169C114.268,-124.099 130.794,-128.501 145.901,-132.5 156.843,-135.396 168.558,-138.483 179.745,-141.424"/>
<polygon fill="midnightblue" stroke="midnightblue" points="100.251,-116.734 89.6868,-117.535 98.4447,-123.497 100.251,-116.734"/>
</g>
<!-- Node3 -->
<g id="node4" class="node"><title>Node3</title>
<g id="a_node4"><a xlink:href="classvtkvmtkUnstructuredGridFEGradientAssembler.html" target="_top" xlink:title=".. ">
<polygon fill="white" stroke="black" points="145.901,-94.5 145.901,-122.5 323.059,-122.5 323.059,-94.5 145.901,-94.5"/>
<text text-anchor="start" x="153.901" y="-110.5" font-family="Helvetica,sans-Serif" font-size="10.00">vtkvmtkUnstructuredGridFEGradient</text>
<text text-anchor="middle" x="234.48" y="-100.5" font-family="Helvetica,sans-Serif" font-size="10.00">Assembler</text>
</a>
</g>
</g>
<!-- Node0&#45;&gt;Node3 -->
<g id="edge3" class="edge"><title>Node0&#45;&gt;Node3</title>
<path fill="none" stroke="midnightblue" d="M120.196,-108.5C128.553,-108.5 137.225,-108.5 145.881,-108.5"/>
<polygon fill="midnightblue" stroke="midnightblue" points="120.18,-105 110.18,-108.5 120.18,-112 120.18,-105"/>
</g>
<!-- Node4 -->
<g id="node5" class="node"><title>Node4</title>
<g id="a_node5"><a xlink:href="classvtkvmtkUnstructuredGridFELaplaceAssembler.html" target="_top" xlink:title=".. ">
<polygon fill="white" stroke="black" points="147.564,-47.5 147.564,-75.5 321.396,-75.5 321.396,-47.5 147.564,-47.5"/>
<text text-anchor="start" x="155.564" y="-63.5" font-family="Helvetica,sans-Serif" font-size="10.00">vtkvmtkUnstructuredGridFELaplace</text>
<text text-anchor="middle" x="234.48" y="-53.5" font-family="Helvetica,sans-Serif" font-size="10.00">Assembler</text>
</a>
</g>
</g>
<!-- Node0&#45;&gt;Node4 -->
<g id="edge4" class="edge"><title>Node0&#45;&gt;Node4</title>
<path fill="none" stroke="midnightblue" d="M99.8832,-96.8691C124.271,-90.4125 154.781,-82.3351 180.486,-75.5299"/>
<polygon fill="midnightblue" stroke="midnightblue" points="98.9513,-93.4951 90.1801,-99.4379 100.743,-100.262 98.9513,-93.4951"/>
</g>
<!-- Node5 -->
<g id="node6" class="node"><title>Node5</title>
<g id="a_node6"><a xlink:href="classvtkvmtkUnstructuredGridFEVorticityAssembler.html" target="_top" xlink:title=".. ">
<polygon fill="white" stroke="black" points="147.571,-0.5 147.571,-28.5 321.389,-28.5 321.389,-0.5 147.571,-0.5"/>
<text text-anchor="start" x="155.571" y="-16.5" font-family="Helvetica,sans-Serif" font-size="10.00">vtkvmtkUnstructuredGridFEVorticity</text>
<text text-anchor="middle" x="234.48" y="-6.5" font-family="Helvetica,sans-Serif" font-size="10.00">Assembler</text>
</a>
</g>
</g>
<!-- Node0&#45;&gt;Node5 -->
<g id="edge5" class="edge"><title>Node0&#45;&gt;Node5</title>
<path fill="none" stroke="midnightblue" d="M72.5194,-92.2873C89.5884,-76.4324 117.621,-52.6663 145.901,-38.5 153.513,-34.6871 161.81,-31.4149 170.165,-28.625"/>
<polygon fill="midnightblue" stroke="midnightblue" points="69.9124,-89.9361 65.0677,-99.3584 74.7308,-95.0139 69.9124,-89.9361"/>
</g>
</g>
</svg>
