<?xml version="1.0" encoding="UTF-8" standalone="no"?>
<!DOCTYPE svg PUBLIC "-//W3C//DTD SVG 1.1//EN"
 "http://www.w3.org/Graphics/SVG/1.1/DTD/svg11.dtd">
<!-- Generated by graphviz version 2.38.0 (20140413.2041)
 -->
<!-- Title: vtkvmtkEllipticProblem Pages: 1 -->
<svg width="379pt" height="428pt"
 viewBox="0.00 0.00 378.98 428.00" xmlns="http://www.w3.org/2000/svg" xmlns:xlink="http://www.w3.org/1999/xlink">
<g id="graph0" class="graph" transform="scale(1 1) rotate(0) translate(4 424)">
<title>vtkvmtkEllipticProblem</title>
<polygon fill="white" stroke="none" points="-4,4 -4,-424 374.975,-424 374.975,4 -4,4"/>
<!-- Node2 -->
<g id="node1" class="node"><title>Node2</title>
<polygon fill="#bfbfbf" stroke="black" points="0,-0.5 0,-18.5 116.02,-18.5 116.02,-0.5 0,-0.5"/>
<text text-anchor="middle" x="58.0098" y="-6.5" font-family="Helvetica,sans-Serif" font-size="10.00">vtkvmtkEllipticProblem</text>
</g>
<!-- Node3 -->
<g id="node2" class="node"><title>Node3</title>
<polygon fill="white" stroke="#bfbfbf" points="98.1699,-401.5 98.1699,-419.5 155.85,-419.5 155.85,-401.5 98.1699,-401.5"/>
<text text-anchor="middle" x="127.01" y="-407.5" font-family="Helvetica,sans-Serif" font-size="10.00">vtkObject</text>
</g>
<!-- Node3&#45;&gt;Node2 -->
<g id="edge1" class="edge"><title>Node3&#45;&gt;Node2</title>
<path fill="none" stroke="midnightblue" d="M87.9399,-407.858C52.5821,-404.022 6.00977,-392.035 6.00977,-355.5 6.00977,-355.5 6.00977,-355.5 6.00977,-78.5 6.00977,-52.3433 30.5879,-30.0114 45.9492,-18.6084"/>
<polygon fill="midnightblue" stroke="midnightblue" points="87.7523,-411.355 98.0273,-408.771 88.3836,-404.384 87.7523,-411.355"/>
</g>
<!-- Node5 -->
<g id="node4" class="node"><title>Node5</title>
<g id="a_node4"><a xlink:href="classvtkvmtkBoundaryConditions.html" target="_top" xlink:title="Base class to store nodes, value, and linear system composing a boundary condition. ">
<polygon fill="white" stroke="black" points="34.0371,-140.5 34.0371,-158.5 173.982,-158.5 173.982,-140.5 34.0371,-140.5"/>
<text text-anchor="middle" x="104.01" y="-146.5" font-family="Helvetica,sans-Serif" font-size="10.00">vtkvmtkBoundaryConditions</text>
</a>
</g>
</g>
<!-- Node3&#45;&gt;Node5 -->
<g id="edge4" class="edge"><title>Node3&#45;&gt;Node5</title>
<path fill="none" stroke="midnightblue" d="M99.7358,-396.362C85.0891,-387.22 70.0098,-373.449 70.0098,-355.5 70.0098,-355.5 70.0098,-355.5 70.0098,-213.5 70.0098,-191.626 86.0801,-170.051 96.124,-158.703"/>
<polygon fill="midnightblue" stroke="midnightblue" points="98.2403,-399.538 108.661,-401.452 101.708,-393.458 98.2403,-399.538"/>
</g>
<!-- Node6 -->
<g id="node5" class="node"><title>Node6</title>
<g id="a_node5"><a xlink:href="classvtkvmtkLinearSystem.html" target="_top" xlink:title="Base container to hold sparse matrice objects representing a linear system of equations Ax = B...">
<polygon fill="white" stroke="black" points="141.498,-205.5 141.498,-223.5 252.522,-223.5 252.522,-205.5 141.498,-205.5"/>
<text text-anchor="middle" x="197.01" y="-211.5" font-family="Helvetica,sans-Serif" font-size="10.00">vtkvmtkLinearSystem</text>
</a>
</g>
</g>
<!-- Node3&#45;&gt;Node6 -->
<g id="edge6" class="edge"><title>Node3&#45;&gt;Node6</title>
<path fill="none" stroke="midnightblue" d="M123.576,-391.213C119.285,-363.439 114.659,-309.665 134.01,-270 144.282,-248.943 166.782,-232.712 181.92,-223.631"/>
<polygon fill="midnightblue" stroke="midnightblue" points="120.184,-392.142 125.323,-401.407 127.083,-390.96 120.184,-392.142"/>
</g>
<!-- Node7 -->
<g id="node6" class="node"><title>Node7</title>
<g id="a_node6"><a xlink:href="classvtkvmtkSparseMatrix.html" target="_top" xlink:title="Class for constructing sparse matrices from a dataset and performing basic mathematical operations on...">
<polygon fill="white" stroke="black" points="142.613,-271 142.613,-289 251.406,-289 251.406,-271 142.613,-271"/>
<text text-anchor="middle" x="197.01" y="-277" font-family="Helvetica,sans-Serif" font-size="10.00">vtkvmtkSparseMatrix</text>
</a>
</g>
</g>
<!-- Node3&#45;&gt;Node7 -->
<g id="edge8" class="edge"><title>Node3&#45;&gt;Node7</title>
<path fill="none" stroke="midnightblue" d="M136.296,-392.452C151.576,-364.404 181.438,-309.585 192.633,-289.035"/>
<polygon fill="midnightblue" stroke="midnightblue" points="133.099,-391.006 131.389,-401.462 139.246,-394.354 133.099,-391.006"/>
</g>
<!-- Node8 -->
<g id="node7" class="node"><title>Node8</title>
<g id="a_node7"><a xlink:href="classvtkvmtkSparseMatrixRow.html" target="_top" xlink:title="Class to handle operating on rows of a sparse matrix. ">
<polygon fill="white" stroke="black" points="173.611,-345.5 173.611,-363.5 302.409,-363.5 302.409,-345.5 173.611,-345.5"/>
<text text-anchor="middle" x="238.01" y="-351.5" font-family="Helvetica,sans-Serif" font-size="10.00">vtkvmtkSparseMatrixRow</text>
</a>
</g>
</g>
<!-- Node3&#45;&gt;Node8 -->
<g id="edge10" class="edge"><title>Node3&#45;&gt;Node8</title>
<path fill="none" stroke="midnightblue" d="M152.935,-396.888C174.053,-386.614 203.242,-372.414 221.356,-363.602"/>
<polygon fill="midnightblue" stroke="midnightblue" points="151.329,-393.777 143.868,-401.299 154.392,-400.071 151.329,-393.777"/>
</g>
<!-- Node9 -->
<g id="node8" class="node"><title>Node9</title>
<g id="a_node8"><a xlink:href="classvtkvmtkDoubleVector.html" target="_top" xlink:title="Base class for vectors utilized in finite&#45;element and other PDE evaluations. ">
<polygon fill="white" stroke="black" points="261.044,-308.5 261.044,-326.5 370.975,-326.5 370.975,-308.5 261.044,-308.5"/>
<text text-anchor="middle" x="316.01" y="-314.5" font-family="Helvetica,sans-Serif" font-size="10.00">vtkvmtkDoubleVector</text>
</a>
</g>
</g>
<!-- Node3&#45;&gt;Node9 -->
<g id="edge12" class="edge"><title>Node3&#45;&gt;Node9</title>
<path fill="none" stroke="midnightblue" d="M165.955,-405.09C214.152,-398.783 292.183,-385.513 311.01,-364 320.011,-353.714 319.174,-336.71 317.656,-326.659"/>
<polygon fill="midnightblue" stroke="midnightblue" points="165.344,-401.639 155.862,-406.366 166.223,-408.584 165.344,-401.639"/>
</g>
<!-- Node4 -->
<g id="node3" class="node"><title>Node4</title>
<g id="a_node3"><a xlink:href="classvtkvmtkDirichletBoundaryConditions.html" target="_top" xlink:title="Set up a Dirichlet (or first&#45;type) boundary conditions that a linear system needs to take along the b...">
<polygon fill="white" stroke="black" points="35.6035,-65.5 35.6035,-93.5 164.416,-93.5 164.416,-65.5 35.6035,-65.5"/>
<text text-anchor="start" x="43.6035" y="-81.5" font-family="Helvetica,sans-Serif" font-size="10.00">vtkvmtkDirichletBoundary</text>
<text text-anchor="middle" x="100.01" y="-71.5" font-family="Helvetica,sans-Serif" font-size="10.00">Conditions</text>
</a>
</g>
</g>
<!-- Node4&#45;&gt;Node2 -->
<g id="edge2" class="edge"><title>Node4&#45;&gt;Node2</title>
<path fill="none" stroke="#9a32cd" stroke-dasharray="5,2" d="M67.9877,-58.7923C64.4236,-55.3005 61.2821,-51.3644 59.0547,-47 54.5016,-38.0784 55.1707,-26.2658 56.3502,-18.5292"/>
<polygon fill="#9a32cd" stroke="#9a32cd" points="65.8391,-61.5588 75.7397,-65.3307 70.3522,-56.2079 65.8391,-61.5588"/>
<text text-anchor="middle" x="124.487" y="-39" font-family="Helvetica,sans-Serif" font-size="10.00"> DirichletBoundaryConditions</text>
</g>
<!-- Node5&#45;&gt;Node4 -->
<g id="edge3" class="edge"><title>Node5&#45;&gt;Node4</title>
<path fill="none" stroke="midnightblue" d="M102.934,-130.209C102.256,-118.686 101.397,-104.078 100.785,-93.6867"/>
<polygon fill="midnightblue" stroke="midnightblue" points="99.4539,-130.655 103.535,-140.432 106.442,-130.244 99.4539,-130.655"/>
</g>
<!-- Node6&#45;&gt;Node2 -->
<g id="edge13" class="edge"><title>Node6&#45;&gt;Node2</title>
<path fill="none" stroke="#9a32cd" stroke-dasharray="5,2" d="M202.511,-195.4C211.978,-160.222 226.825,-82.1285 188.01,-37 178.435,-25.8674 146.151,-19.2506 116.153,-15.4128"/>
<polygon fill="#9a32cd" stroke="#9a32cd" points="199.088,-194.64 199.701,-205.217 205.818,-196.566 199.088,-194.64"/>
<text text-anchor="middle" x="245.968" y="-114" font-family="Helvetica,sans-Serif" font-size="10.00"> LinearSystem</text>
</g>
<!-- Node6&#45;&gt;Node5 -->
<g id="edge5" class="edge"><title>Node6&#45;&gt;Node5</title>
<path fill="none" stroke="#9a32cd" stroke-dasharray="5,2" d="M149.847,-201.999C140.634,-198.263 131.535,-193.372 124.094,-187 115.194,-179.379 109.515,-166.787 106.545,-158.567"/>
<polygon fill="#9a32cd" stroke="#9a32cd" points="148.832,-205.354 159.426,-205.489 151.228,-198.777 148.832,-205.354"/>
<text text-anchor="middle" x="156.968" y="-179" font-family="Helvetica,sans-Serif" font-size="10.00"> LinearSystem</text>
</g>
<!-- Node7&#45;&gt;Node6 -->
<g id="edge7" class="edge"><title>Node7&#45;&gt;Node6</title>
<path fill="none" stroke="#9a32cd" stroke-dasharray="5,2" d="M197.01,-260.919C197.01,-248.66 197.01,-233.039 197.01,-223.678"/>
<polygon fill="#9a32cd" stroke="#9a32cd" points="193.51,-260.958 197.01,-270.958 200.51,-260.958 193.51,-260.958"/>
<text text-anchor="middle" x="201.46" y="-244" font-family="Helvetica,sans-Serif" font-size="10.00"> A</text>
</g>
<!-- Node8&#45;&gt;Node7 -->
<g id="edge9" class="edge"><title>Node8&#45;&gt;Node7</title>
<path fill="none" stroke="#9a32cd" stroke-dasharray="5,2" d="M228.303,-336.336C219.914,-321.502 208.151,-300.702 201.7,-289.295"/>
<polygon fill="#9a32cd" stroke="#9a32cd" points="225.496,-338.483 233.465,-345.464 231.589,-335.037 225.496,-338.483"/>
<text text-anchor="middle" x="236.071" y="-314.5" font-family="Helvetica,sans-Serif" font-size="10.00"> Array</text>
</g>
<!-- Node9&#45;&gt;Node6 -->
<g id="edge11" class="edge"><title>Node9&#45;&gt;Node6</title>
<path fill="none" stroke="#9a32cd" stroke-dasharray="5,2" d="M298.497,-301.636C273,-279.996 226.524,-240.55 206.55,-223.597"/>
<polygon fill="#9a32cd" stroke="#9a32cd" points="296.383,-304.432 306.271,-308.235 300.912,-299.095 296.383,-304.432"/>
<text text-anchor="middle" x="288.734" y="-282" font-family="Helvetica,sans-Serif" font-size="10.00"> X</text>
<text text-anchor="middle" x="288.734" y="-272" font-family="Helvetica,sans-Serif" font-size="10.00">B</text>
</g>
</g>
</svg>
