<?xml version="1.0" encoding="UTF-8" standalone="no"?>
<!DOCTYPE svg PUBLIC "-//W3C//DTD SVG 1.1//EN"
 "http://www.w3.org/Graphics/SVG/1.1/DTD/svg11.dtd">
<!-- Generated by graphviz version 2.38.0 (20140413.2041)
 -->
<!-- Title: vtkvmtkCenterlineSplittingAndGroupingFilter Pages: 1 -->
<svg width="490pt" height="111pt"
 viewBox="0.00 0.00 489.80 111.00" xmlns="http://www.w3.org/2000/svg" xmlns:xlink="http://www.w3.org/1999/xlink">
<g id="graph0" class="graph" transform="scale(1 1) rotate(0) translate(4 107)">
<title>vtkvmtkCenterlineSplittingAndGroupingFilter</title>
<polygon fill="white" stroke="none" points="-4,4 -4,-107 485.797,-107 485.797,4 -4,4"/>
<!-- Node0 -->
<g id="node1" class="node"><title>Node0</title>
<polygon fill="#bfbfbf" stroke="black" points="147.591,-37.5 147.591,-65.5 278.635,-65.5 278.635,-37.5 147.591,-37.5"/>
<text text-anchor="start" x="155.591" y="-53.5" font-family="Helvetica,sans-Serif" font-size="10.00">vtkvmtkCenterlineSplitting</text>
<text text-anchor="middle" x="213.113" y="-43.5" font-family="Helvetica,sans-Serif" font-size="10.00">AndGroupingFilter</text>
</g>
<!-- Node2 -->
<g id="node3" class="node"><title>Node2</title>
<g id="a_node3"><a xlink:href="classvtkvmtkCenterlineBranchExtractor.html" target="_top" xlink:title="Split and group centerlines. ">
<polygon fill="white" stroke="black" points="314.635,-84.5 314.635,-102.5 481.797,-102.5 481.797,-84.5 314.635,-84.5"/>
<text text-anchor="middle" x="398.216" y="-90.5" font-family="Helvetica,sans-Serif" font-size="10.00">vtkvmtkCenterlineBranchExtractor</text>
</a>
</g>
</g>
<!-- Node0&#45;&gt;Node2 -->
<g id="edge2" class="edge"><title>Node0&#45;&gt;Node2</title>
<path fill="none" stroke="midnightblue" d="M281.939,-67.8866C292.863,-70.4702 304.055,-73.0842 314.635,-75.5 327.653,-78.4725 341.85,-81.6062 354.744,-84.4108"/>
<polygon fill="midnightblue" stroke="midnightblue" points="282.545,-64.4333 272.007,-65.5289 280.928,-71.244 282.545,-64.4333"/>
</g>
<!-- Node3 -->
<g id="node4" class="node"><title>Node3</title>
<g id="a_node4"><a xlink:href="classvtkvmtkCenterlineEndpointExtractor.html" target="_top" xlink:title="Split a centerline into tracts which can be used to mark endpoints of the centerline. ">
<polygon fill="white" stroke="black" points="330.743,-37.5 330.743,-65.5 465.688,-65.5 465.688,-37.5 330.743,-37.5"/>
<text text-anchor="start" x="338.743" y="-53.5" font-family="Helvetica,sans-Serif" font-size="10.00">vtkvmtkCenterlineEndpoint</text>
<text text-anchor="middle" x="398.216" y="-43.5" font-family="Helvetica,sans-Serif" font-size="10.00">Extractor</text>
</a>
</g>
</g>
<!-- Node0&#45;&gt;Node3 -->
<g id="edge3" class="edge"><title>Node0&#45;&gt;Node3</title>
<path fill="none" stroke="midnightblue" d="M289.038,-51.5C302.759,-51.5 316.994,-51.5 330.457,-51.5"/>
<polygon fill="midnightblue" stroke="midnightblue" points="288.668,-48.0001 278.668,-51.5 288.668,-55.0001 288.668,-48.0001"/>
</g>
<!-- Node4 -->
<g id="node5" class="node"><title>Node4</title>
<g id="a_node5"><a xlink:href="classvtkvmtkCenterlineSplitExtractor.html" target="_top" xlink:title="Split a centerline into three tracts with the middle (blanked) tract being initialized between any tw...">
<polygon fill="white" stroke="black" points="320.75,-0.5 320.75,-18.5 475.681,-18.5 475.681,-0.5 320.75,-0.5"/>
<text text-anchor="middle" x="398.216" y="-6.5" font-family="Helvetica,sans-Serif" font-size="10.00">vtkvmtkCenterlineSplitExtractor</text>
</a>
</g>
</g>
<!-- Node0&#45;&gt;Node4 -->
<g id="edge4" class="edge"><title>Node0&#45;&gt;Node4</title>
<path fill="none" stroke="midnightblue" d="M281.939,-35.1134C292.863,-32.5298 304.055,-29.9158 314.635,-27.5 327.653,-24.5275 341.85,-21.3938 354.744,-18.5892"/>
<polygon fill="midnightblue" stroke="midnightblue" points="280.928,-31.756 272.007,-37.4711 282.545,-38.5667 280.928,-31.756"/>
</g>
<!-- Node1 -->
<g id="node2" class="node"><title>Node1</title>
<polygon fill="white" stroke="#bfbfbf" points="0,-42.5 0,-60.5 111.591,-60.5 111.591,-42.5 0,-42.5"/>
<text text-anchor="middle" x="55.7954" y="-48.5" font-family="Helvetica,sans-Serif" font-size="10.00">vtkPolyDataAlgorithm</text>
</g>
<!-- Node1&#45;&gt;Node0 -->
<g id="edge1" class="edge"><title>Node1&#45;&gt;Node0</title>
<path fill="none" stroke="midnightblue" d="M122.126,-51.5C130.537,-51.5 139.146,-51.5 147.544,-51.5"/>
<polygon fill="midnightblue" stroke="midnightblue" points="121.992,-48.0001 111.992,-51.5 121.992,-55.0001 121.992,-48.0001"/>
</g>
</g>
</svg>
