<?xml version="1.0" encoding="UTF-8" standalone="no"?>
<!DOCTYPE svg PUBLIC "-//W3C//DTD SVG 1.1//EN"
 "http://www.w3.org/Graphics/SVG/1.1/DTD/svg11.dtd">
<!-- Generated by graphviz version 2.38.0 (20140413.2041)
 -->
<!-- Title: vtkvmtkPolyDataStencilFlowFilter Pages: 1 -->
<svg width="150pt" height="279pt"
 viewBox="0.00 0.00 149.59 279.00" xmlns="http://www.w3.org/2000/svg" xmlns:xlink="http://www.w3.org/1999/xlink">
<g id="graph0" class="graph" transform="scale(1 1) rotate(0) translate(4 275)">
<title>vtkvmtkPolyDataStencilFlowFilter</title>
<polygon fill="white" stroke="none" points="-4,4 -4,-275 145.591,-275 145.591,4 -4,4"/>
<!-- Node1 -->
<g id="node1" class="node"><title>Node1</title>
<polygon fill="#bfbfbf" stroke="black" points="0,-0.5 0,-28.5 141.591,-28.5 141.591,-0.5 0,-0.5"/>
<text text-anchor="start" x="8" y="-16.5" font-family="Helvetica,sans-Serif" font-size="10.00">vtkvmtkPolyDataStencilFlow</text>
<text text-anchor="middle" x="70.7954" y="-6.5" font-family="Helvetica,sans-Serif" font-size="10.00">Filter</text>
</g>
<!-- Node2 -->
<g id="node2" class="node"><title>Node2</title>
<g id="a_node2"><a xlink:href="classvtkvmtkStencils.html" target="_top" xlink:title="Create an empty, umbrella, area weighted umbrella, finite&#45;element LP, or finite&#45;volume finite&#45;element...">
<polygon fill="white" stroke="black" points="28.3447,-75.5 28.3447,-93.5 113.246,-93.5 113.246,-75.5 28.3447,-75.5"/>
<text text-anchor="middle" x="70.7954" y="-81.5" font-family="Helvetica,sans-Serif" font-size="10.00">vtkvmtkStencils</text>
</a>
</g>
</g>
<!-- Node2&#45;&gt;Node1 -->
<g id="edge1" class="edge"><title>Node2&#45;&gt;Node1</title>
<path fill="none" stroke="#9a32cd" stroke-dasharray="5,2" d="M70.7954,-65.2088C70.7954,-53.6862 70.7954,-39.0784 70.7954,-28.6867"/>
<polygon fill="#9a32cd" stroke="#9a32cd" points="67.2955,-65.4324 70.7954,-75.4325 74.2955,-65.4325 67.2955,-65.4324"/>
<text text-anchor="middle" x="89.6919" y="-49" font-family="Helvetica,sans-Serif" font-size="10.00"> Stencils</text>
</g>
<!-- Node3 -->
<g id="node3" class="node"><title>Node3</title>
<g id="a_node3"><a xlink:href="classvtkvmtkDataSetItems.html" target="_top" xlink:title="Create a collection of data set items, one for every point within the data set. ">
<polygon fill="white" stroke="black" points="15.5615,-131.5 15.5615,-149.5 126.029,-149.5 126.029,-131.5 15.5615,-131.5"/>
<text text-anchor="middle" x="70.7954" y="-137.5" font-family="Helvetica,sans-Serif" font-size="10.00">vtkvmtkDataSetItems</text>
</a>
</g>
</g>
<!-- Node3&#45;&gt;Node2 -->
<g id="edge2" class="edge"><title>Node3&#45;&gt;Node2</title>
<path fill="none" stroke="midnightblue" d="M70.7954,-120.829C70.7954,-111.577 70.7954,-100.88 70.7954,-93.7014"/>
<polygon fill="midnightblue" stroke="midnightblue" points="67.2955,-121.062 70.7954,-131.062 74.2955,-121.063 67.2955,-121.062"/>
</g>
<!-- Node4 -->
<g id="node4" class="node"><title>Node4</title>
<g id="a_node4"><a xlink:href="classvtkvmtkItems.html" target="_top" xlink:title="Control allocation and memory footprint of item instances. ">
<polygon fill="white" stroke="black" points="33.6279,-187.5 33.6279,-205.5 107.963,-205.5 107.963,-187.5 33.6279,-187.5"/>
<text text-anchor="middle" x="70.7954" y="-193.5" font-family="Helvetica,sans-Serif" font-size="10.00">vtkvmtkItems</text>
</a>
</g>
</g>
<!-- Node4&#45;&gt;Node3 -->
<g id="edge3" class="edge"><title>Node4&#45;&gt;Node3</title>
<path fill="none" stroke="midnightblue" d="M70.7954,-176.829C70.7954,-167.577 70.7954,-156.88 70.7954,-149.701"/>
<polygon fill="midnightblue" stroke="midnightblue" points="67.2955,-177.062 70.7954,-187.062 74.2955,-177.063 67.2955,-177.062"/>
</g>
<!-- Node5 -->
<g id="node5" class="node"><title>Node5</title>
<g id="a_node5"><a xlink:href="classvtkvmtkItem.html" target="_top" xlink:title="Base class for the construction of neighborhoods and stencil from a set of points. ">
<polygon fill="white" stroke="black" points="36.1279,-252.5 36.1279,-270.5 105.463,-270.5 105.463,-252.5 36.1279,-252.5"/>
<text text-anchor="middle" x="70.7954" y="-258.5" font-family="Helvetica,sans-Serif" font-size="10.00">vtkvmtkItem</text>
</a>
</g>
</g>
<!-- Node5&#45;&gt;Node4 -->
<g id="edge4" class="edge"><title>Node5&#45;&gt;Node4</title>
<path fill="none" stroke="#9a32cd" stroke-dasharray="5,2" d="M70.7954,-241.907C70.7954,-229.815 70.7954,-214.653 70.7954,-205.539"/>
<polygon fill="#9a32cd" stroke="#9a32cd" points="67.2955,-242.264 70.7954,-252.264 74.2955,-242.264 67.2955,-242.264"/>
<text text-anchor="middle" x="83.8569" y="-226" font-family="Helvetica,sans-Serif" font-size="10.00"> Array</text>
</g>
</g>
</svg>
