<?xml version="1.0" encoding="UTF-8" standalone="no"?>
<!DOCTYPE svg PUBLIC "-//W3C//DTD SVG 1.1//EN"
 "http://www.w3.org/Graphics/SVG/1.1/DTD/svg11.dtd">
<!-- Generated by graphviz version 2.38.0 (20140413.2041)
 -->
<!-- Title: vtkvmtkCenterlineEndpointExtractor Pages: 1 -->
<svg width="143pt" height="102pt"
 viewBox="0.00 0.00 142.95 102.00" xmlns="http://www.w3.org/2000/svg" xmlns:xlink="http://www.w3.org/1999/xlink">
<g id="graph0" class="graph" transform="scale(1 1) rotate(0) translate(4 98)">
<title>vtkvmtkCenterlineEndpointExtractor</title>
<polygon fill="white" stroke="none" points="-4,4 -4,-98 138.945,-98 138.945,4 -4,4"/>
<!-- Node2 -->
<g id="node1" class="node"><title>Node2</title>
<polygon fill="#bfbfbf" stroke="black" points="0,-0.5 0,-28.5 134.945,-28.5 134.945,-0.5 0,-0.5"/>
<text text-anchor="start" x="8" y="-16.5" font-family="Helvetica,sans-Serif" font-size="10.00">vtkvmtkCenterlineEndpoint</text>
<text text-anchor="middle" x="67.4727" y="-6.5" font-family="Helvetica,sans-Serif" font-size="10.00">Extractor</text>
</g>
<!-- Node3 -->
<g id="node2" class="node"><title>Node3</title>
<g id="a_node2"><a xlink:href="classvtkvmtkCenterlineSplittingAndGroupingFilter.html" target="_top" xlink:title="Multipurpose filter used to bundle and blank split tracts in all &quot;branch extractor&quot; like methods...">
<polygon fill="white" stroke="black" points="1.95068,-65.5 1.95068,-93.5 132.995,-93.5 132.995,-65.5 1.95068,-65.5"/>
<text text-anchor="start" x="9.95068" y="-81.5" font-family="Helvetica,sans-Serif" font-size="10.00">vtkvmtkCenterlineSplitting</text>
<text text-anchor="middle" x="67.4727" y="-71.5" font-family="Helvetica,sans-Serif" font-size="10.00">AndGroupingFilter</text>
</a>
</g>
</g>
<!-- Node3&#45;&gt;Node2 -->
<g id="edge1" class="edge"><title>Node3&#45;&gt;Node2</title>
<path fill="none" stroke="midnightblue" d="M67.4727,-55.1641C67.4727,-46.1693 67.4727,-36.2205 67.4727,-28.5369"/>
<polygon fill="midnightblue" stroke="midnightblue" points="63.9728,-55.4463 67.4727,-65.4464 70.9728,-55.4464 63.9728,-55.4463"/>
</g>
</g>
</svg>
