<?xml version="1.0" encoding="UTF-8" standalone="no"?>
<!DOCTYPE svg PUBLIC "-//W3C//DTD SVG 1.1//EN"
 "http://www.w3.org/Graphics/SVG/1.1/DTD/svg11.dtd">
<!-- Generated by graphviz version 2.38.0 (20140413.2041)
 -->
<!-- Title: vtkvmtkNeighborhood Pages: 1 -->
<!--zoomable 222 -->
<svg id="main" version="1.1" xmlns="http://www.w3.org/2000/svg" xmlns:xlink="http://www.w3.org/1999/xlink" xml:space="preserve" onload="init(evt)">
<style type="text/css"><![CDATA[
.edge:hover path { stroke: red; }
.edge:hover polygon { stroke: red; fill: red; }
]]></style>
<script type="text/javascript"><![CDATA[
var edges = document.getElementsByTagName('g');
if (edges && edges.length) {
  for (var i=0;i<edges.length;i++) {
    if (edges[i].id.substr(0,4)=='edge') {
      edges[i].setAttribute('class','edge');
    }
  }
}
]]></script>
        <defs>
                <circle id="rim" cx="0" cy="0" r="7"/>
                <circle id="rim2" cx="0" cy="0" r="3.5"/>
                <g id="zoomPlus">
                        <use xlink:href="#rim" fill="#404040">
                                <set attributeName="fill" to="#808080" begin="zoomplus.mouseover" end="zoomplus.mouseout"/>
                        </use>
                        <path d="M-4,0h8M0,-4v8" fill="none" stroke="white" stroke-width="1.5" pointer-events="none"/>
                </g>
                <g id="zoomMin">
                        <use xlink:href="#rim" fill="#404040">
                                <set attributeName="fill" to="#808080" begin="zoomminus.mouseover" end="zoomminus.mouseout"/>
                        </use>
                        <path d="M-4,0h8" fill="none" stroke="white" stroke-width="1.5" pointer-events="none"/>
                </g>
                <g id="dirArrow">
                        <path fill="none" stroke="white" stroke-width="1.5" d="M0,-3.0v7 M-2.5,-0.5L0,-3.0L2.5,-0.5"/>
                </g>
               <g id="resetDef">
                       <use xlink:href="#rim2" fill="#404040">
                               <set attributeName="fill" to="#808080" begin="reset.mouseover" end="reset.mouseout"/>
                       </use>
               </g>
        </defs>

<script type="text/javascript">
var viewWidth = 1186;
var viewHeight = 222;
var sectionId = 'dynsection-0';
</script>
<script xlink:href="svgpan.js"/>
<svg id="graph" class="graph">
<g id="viewport">
<title>vtkvmtkNeighborhood</title>
<polygon fill="white" stroke="none" points="-4,4 -4,-218 1182.34,-218 1182.34,4 -4,4"/>
<!-- Node0 -->
<g id="node1" class="node"><title>Node0</title>
<polygon fill="#bfbfbf" stroke="black" points="246.803,-121.5 246.803,-139.5 359.517,-139.5 359.517,-121.5 246.803,-121.5"/>
<text text-anchor="middle" x="303.16" y="-127.5" font-family="Helvetica,sans-Serif" font-size="10.00">vtkvmtkNeighborhood</text>
</g>
<!-- Node3 -->
<g id="node4" class="node"><title>Node3</title>
<g id="a_node4"><a xlink:href="classvtkvmtkEmptyNeighborhood.html" target="_top" xlink:title="Create an an empty neighborhood instance. ">
<polygon fill="white" stroke="black" points="420.534,-195.5 420.534,-213.5 561.587,-213.5 561.587,-195.5 420.534,-195.5"/>
<text text-anchor="middle" x="491.061" y="-201.5" font-family="Helvetica,sans-Serif" font-size="10.00">vtkvmtkEmptyNeighborhood</text>
</a>
</g>
</g>
<!-- Node0&#45;&gt;Node3 -->
<g id="edge3" class="edge"><title>Node0&#45;&gt;Node3</title>
<path fill="none" stroke="midnightblue" d="M324.232,-145.774C342.033,-158.57 369.217,-176.329 395.517,-186.5 405.023,-190.176 415.367,-193.123 425.609,-195.478"/>
<polygon fill="midnightblue" stroke="midnightblue" points="325.964,-142.703 315.833,-139.602 321.819,-148.344 325.964,-142.703"/>
</g>
<!-- Node4 -->
<g id="node5" class="node"><title>Node4</title>
<g id="a_node5"><a xlink:href="classvtkvmtkPolyDataManifoldNeighborhood.html" target="_top" xlink:title=".. ">
<polygon fill="white" stroke="black" points="395.517,-158.5 395.517,-176.5 586.604,-176.5 586.604,-158.5 395.517,-158.5"/>
<text text-anchor="middle" x="491.061" y="-164.5" font-family="Helvetica,sans-Serif" font-size="10.00">vtkvmtkPolyDataManifoldNeighborhood</text>
</a>
</g>
</g>
<!-- Node0&#45;&gt;Node4 -->
<g id="edge4" class="edge"><title>Node0&#45;&gt;Node4</title>
<path fill="none" stroke="midnightblue" d="M356.831,-141.613C369.492,-144.24 382.98,-147.003 395.517,-149.5 410.429,-152.47 426.686,-155.603 441.447,-158.408"/>
<polygon fill="midnightblue" stroke="midnightblue" points="357.392,-138.155 346.888,-139.542 355.964,-145.008 357.392,-138.155"/>
</g>
<!-- Node6 -->
<g id="node7" class="node"><title>Node6</title>
<g id="a_node7"><a xlink:href="classvtkvmtkPolyDataNeighborhood.html" target="_top" xlink:title=".. ">
<polygon fill="white" stroke="black" points="414.416,-121.5 414.416,-139.5 567.706,-139.5 567.706,-121.5 414.416,-121.5"/>
<text text-anchor="middle" x="491.061" y="-127.5" font-family="Helvetica,sans-Serif" font-size="10.00">vtkvmtkPolyDataNeighborhood</text>
</a>
</g>
</g>
<!-- Node0&#45;&gt;Node6 -->
<g id="edge6" class="edge"><title>Node0&#45;&gt;Node6</title>
<path fill="none" stroke="midnightblue" d="M369.925,-130.5C384.249,-130.5 399.517,-130.5 414.196,-130.5"/>
<polygon fill="midnightblue" stroke="midnightblue" points="369.684,-127 359.684,-130.5 369.684,-134 369.684,-127"/>
</g>
<!-- Node7 -->
<g id="node8" class="node"><title>Node7</title>
<g id="a_node8"><a xlink:href="classvtkvmtkStencil.html" target="_top" xlink:title="Apply a weighting matrix to a single neighborhood of a data set. ">
<polygon fill="white" stroke="black" points="451.11,-84.5 451.11,-102.5 531.011,-102.5 531.011,-84.5 451.11,-84.5"/>
<text text-anchor="middle" x="491.061" y="-90.5" font-family="Helvetica,sans-Serif" font-size="10.00">vtkvmtkStencil</text>
</a>
</g>
</g>
<!-- Node0&#45;&gt;Node7 -->
<g id="edge7" class="edge"><title>Node0&#45;&gt;Node7</title>
<path fill="none" stroke="midnightblue" d="M356.831,-119.387C369.492,-116.76 382.98,-113.997 395.517,-111.5 413.706,-107.877 433.896,-104.012 450.933,-100.796"/>
<polygon fill="midnightblue" stroke="midnightblue" points="355.964,-115.992 346.888,-121.458 357.392,-122.845 355.964,-115.992"/>
</g>
<!-- Node16 -->
<g id="node17" class="node"><title>Node16</title>
<g id="a_node17"><a xlink:href="classvtkvmtkUnstructuredGridNeighborhood.html" target="_top" xlink:title="Apply a neighborhood to the vertices on of a unstructured grid data set. ">
<polygon fill="white" stroke="black" points="396.635,-47.5 396.635,-65.5 585.486,-65.5 585.486,-47.5 396.635,-47.5"/>
<text text-anchor="middle" x="491.061" y="-53.5" font-family="Helvetica,sans-Serif" font-size="10.00">vtkvmtkUnstructuredGridNeighborhood</text>
</a>
</g>
</g>
<!-- Node0&#45;&gt;Node16 -->
<g id="edge16" class="edge"><title>Node0&#45;&gt;Node16</title>
<path fill="none" stroke="midnightblue" d="M324.232,-115.226C342.033,-102.43 369.217,-84.6713 395.517,-74.5 405.023,-70.8236 415.367,-67.8772 425.609,-65.5217"/>
<polygon fill="midnightblue" stroke="midnightblue" points="321.819,-112.656 315.833,-121.398 325.964,-118.297 321.819,-112.656"/>
</g>
<!-- Node1 -->
<g id="node2" class="node"><title>Node1</title>
<g id="a_node2"><a xlink:href="classvtkvmtkDataSetItem.html" target="_top" xlink:title="create an item instance with a data set and particular point id. ">
<polygon fill="white" stroke="black" points="105.335,-121.5 105.335,-139.5 210.803,-139.5 210.803,-121.5 105.335,-121.5"/>
<text text-anchor="middle" x="158.069" y="-127.5" font-family="Helvetica,sans-Serif" font-size="10.00">vtkvmtkDataSetItem</text>
</a>
</g>
</g>
<!-- Node1&#45;&gt;Node0 -->
<g id="edge1" class="edge"><title>Node1&#45;&gt;Node0</title>
<path fill="none" stroke="midnightblue" d="M221.262,-130.5C229.663,-130.5 238.24,-130.5 246.517,-130.5"/>
<polygon fill="midnightblue" stroke="midnightblue" points="221.133,-127 211.133,-130.5 221.133,-134 221.133,-127"/>
</g>
<!-- Node2 -->
<g id="node3" class="node"><title>Node2</title>
<g id="a_node3"><a xlink:href="classvtkvmtkItem.html" target="_top" xlink:title="Base class for the construction of neighborhoods and stencil from a set of points. ">
<polygon fill="white" stroke="black" points="0,-121.5 0,-139.5 69.335,-139.5 69.335,-121.5 0,-121.5"/>
<text text-anchor="middle" x="34.6675" y="-127.5" font-family="Helvetica,sans-Serif" font-size="10.00">vtkvmtkItem</text>
</a>
</g>
</g>
<!-- Node2&#45;&gt;Node1 -->
<g id="edge2" class="edge"><title>Node2&#45;&gt;Node1</title>
<path fill="none" stroke="midnightblue" d="M79.7018,-130.5C87.9992,-130.5 96.7469,-130.5 105.256,-130.5"/>
<polygon fill="midnightblue" stroke="midnightblue" points="79.4846,-127 69.4845,-130.5 79.4845,-134 79.4846,-127"/>
</g>
<!-- Node5 -->
<g id="node6" class="node"><title>Node5</title>
<g id="a_node6"><a xlink:href="classvtkvmtkPolyDataManifoldExtendedNeighborhood.html" target="_top" xlink:title=".. ">
<polygon fill="white" stroke="black" points="622.604,-153.5 622.604,-181.5 793.121,-181.5 793.121,-153.5 622.604,-153.5"/>
<text text-anchor="start" x="630.604" y="-169.5" font-family="Helvetica,sans-Serif" font-size="10.00">vtkvmtkPolyDataManifoldExtended</text>
<text text-anchor="middle" x="707.863" y="-159.5" font-family="Helvetica,sans-Serif" font-size="10.00">Neighborhood</text>
</a>
</g>
</g>
<!-- Node4&#45;&gt;Node5 -->
<g id="edge5" class="edge"><title>Node4&#45;&gt;Node5</title>
<path fill="none" stroke="midnightblue" d="M597.172,-167.5C605.611,-167.5 614.07,-167.5 622.338,-167.5"/>
<polygon fill="midnightblue" stroke="midnightblue" points="596.901,-164 586.901,-167.5 596.901,-171 596.901,-164"/>
</g>
<!-- Node8 -->
<g id="node9" class="node"><title>Node8</title>
<g id="a_node9"><a xlink:href="classvtkvmtkEmptyStencil.html" target="_top" xlink:title="create a stencil but do not apply a weighting to the neighborhoods of the data set. ">
<polygon fill="white" stroke="black" points="653.742,-100.5 653.742,-118.5 761.983,-118.5 761.983,-100.5 653.742,-100.5"/>
<text text-anchor="middle" x="707.863" y="-106.5" font-family="Helvetica,sans-Serif" font-size="10.00">vtkvmtkEmptyStencil</text>
</a>
</g>
</g>
<!-- Node7&#45;&gt;Node8 -->
<g id="edge8" class="edge"><title>Node7&#45;&gt;Node8</title>
<path fill="none" stroke="midnightblue" d="M541.49,-97.1818C574.998,-99.6778 619.256,-102.974 653.554,-105.529"/>
<polygon fill="midnightblue" stroke="midnightblue" points="541.691,-93.6872 531.459,-96.4346 541.171,-100.668 541.691,-93.6872"/>
</g>
<!-- Node9 -->
<g id="node10" class="node"><title>Node9</title>
<g id="a_node10"><a xlink:href="classvtkvmtkPolyDataManifoldStencil.html" target="_top" xlink:title=".. ">
<polygon fill="white" stroke="black" points="628.725,-63.5 628.725,-81.5 787,-81.5 787,-63.5 628.725,-63.5"/>
<text text-anchor="middle" x="707.863" y="-69.5" font-family="Helvetica,sans-Serif" font-size="10.00">vtkvmtkPolyDataManifoldStencil</text>
</a>
</g>
</g>
<!-- Node7&#45;&gt;Node9 -->
<g id="edge9" class="edge"><title>Node7&#45;&gt;Node9</title>
<path fill="none" stroke="midnightblue" d="M541.723,-88.6448C567.483,-86.1264 599.55,-82.9914 628.555,-80.1558"/>
<polygon fill="midnightblue" stroke="midnightblue" points="541.071,-85.1918 531.459,-89.6483 541.752,-92.1586 541.071,-85.1918"/>
</g>
<!-- Node10 -->
<g id="node11" class="node"><title>Node10</title>
<g id="a_node11"><a xlink:href="classvtkvmtkPolyDataAreaWeightedUmbrellaStencil.html" target="_top" xlink:title="Apply umbrella (laplacian) weighting to the neighborhood connections of a surface. ">
<polygon fill="white" stroke="black" points="833.376,-121.5 833.376,-149.5 987.033,-149.5 987.033,-121.5 833.376,-121.5"/>
<text text-anchor="start" x="841.376" y="-137.5" font-family="Helvetica,sans-Serif" font-size="10.00">vtkvmtkPolyDataAreaWeighted</text>
<text text-anchor="middle" x="910.205" y="-127.5" font-family="Helvetica,sans-Serif" font-size="10.00">UmbrellaStencil</text>
</a>
</g>
</g>
<!-- Node9&#45;&gt;Node10 -->
<g id="edge10" class="edge"><title>Node9&#45;&gt;Node10</title>
<path fill="none" stroke="midnightblue" d="M773.425,-84.0736C780.165,-85.9374 786.841,-88.0696 793.121,-90.5 810.396,-97.1857 812.13,-104.123 829.121,-111.5 837.642,-115.2 846.907,-118.549 856.013,-121.493"/>
<polygon fill="midnightblue" stroke="midnightblue" points="774.101,-80.6337 763.545,-81.5316 772.357,-87.4129 774.101,-80.6337"/>
</g>
<!-- Node11 -->
<g id="node12" class="node"><title>Node11</title>
<g id="a_node12"><a xlink:href="classvtkvmtkPolyDataGradientStencil.html" target="_top" xlink:title="Apply gradient weighting to the neighborhood connections of a surface. ">
<polygon fill="white" stroke="black" points="830.789,-84.5 830.789,-102.5 989.621,-102.5 989.621,-84.5 830.789,-84.5"/>
<text text-anchor="middle" x="910.205" y="-90.5" font-family="Helvetica,sans-Serif" font-size="10.00">vtkvmtkPolyDataGradientStencil</text>
</a>
</g>
</g>
<!-- Node9&#45;&gt;Node11 -->
<g id="edge11" class="edge"><title>Node9&#45;&gt;Node11</title>
<path fill="none" stroke="midnightblue" d="M797.299,-81.77C808.393,-82.9329 819.682,-84.1162 830.612,-85.2618"/>
<polygon fill="midnightblue" stroke="midnightblue" points="797.491,-78.271 787.181,-80.7094 796.762,-85.2329 797.491,-78.271"/>
</g>
<!-- Node12 -->
<g id="node13" class="node"><title>Node12</title>
<g id="a_node13"><a xlink:href="classvtkvmtkPolyDataLaplaceBeltramiStencil.html" target="_top" xlink:title="Apply LB weighting to the neighborhood connections of a surface. ">
<polygon fill="white" stroke="black" points="829.121,-37.5 829.121,-65.5 991.288,-65.5 991.288,-37.5 829.121,-37.5"/>
<text text-anchor="start" x="837.121" y="-53.5" font-family="Helvetica,sans-Serif" font-size="10.00">vtkvmtkPolyDataLaplaceBeltrami</text>
<text text-anchor="middle" x="910.205" y="-43.5" font-family="Helvetica,sans-Serif" font-size="10.00">Stencil</text>
</a>
</g>
</g>
<!-- Node9&#45;&gt;Node12 -->
<g id="edge12" class="edge"><title>Node9&#45;&gt;Node12</title>
<path fill="none" stroke="midnightblue" d="M797.234,-63.2369C807.792,-62.1302 818.527,-61.0049 828.962,-59.9111"/>
<polygon fill="midnightblue" stroke="midnightblue" points="796.762,-59.7671 787.181,-64.2906 797.491,-66.729 796.762,-59.7671"/>
</g>
<!-- Node15 -->
<g id="node16" class="node"><title>Node15</title>
<g id="a_node16"><a xlink:href="classvtkvmtkPolyDataUmbrellaStencil.html" target="_top" xlink:title="Weight the neighborhood connections of a surface mesh with a laplacian. ">
<polygon fill="white" stroke="black" points="829.961,-0.5 829.961,-18.5 990.448,-18.5 990.448,-0.5 829.961,-0.5"/>
<text text-anchor="middle" x="910.205" y="-6.5" font-family="Helvetica,sans-Serif" font-size="10.00">vtkvmtkPolyDataUmbrellaStencil</text>
</a>
</g>
</g>
<!-- Node9&#45;&gt;Node15 -->
<g id="edge15" class="edge"><title>Node9&#45;&gt;Node15</title>
<path fill="none" stroke="midnightblue" d="M739.602,-59.6657C763.668,-49.9443 798.139,-36.7311 829.121,-27.5 840.32,-24.1633 852.561,-21.1174 864.028,-18.5183"/>
<polygon fill="midnightblue" stroke="midnightblue" points="738.222,-56.4486 730.284,-63.4655 740.865,-62.9304 738.222,-56.4486"/>
</g>
<!-- Node13 -->
<g id="node14" class="node"><title>Node13</title>
<g id="a_node14"><a xlink:href="classvtkvmtkPolyDataFELaplaceBeltramiStencil.html" target="_top" xlink:title="Apply finite&#45;element LB weighting to the neighborhood connections of a surface. ">
<polygon fill="white" stroke="black" points="1033.68,-60.5 1033.68,-88.5 1171.95,-88.5 1171.95,-60.5 1033.68,-60.5"/>
<text text-anchor="start" x="1041.68" y="-76.5" font-family="Helvetica,sans-Serif" font-size="10.00">vtkvmtkPolyDataFELaplace</text>
<text text-anchor="middle" x="1102.81" y="-66.5" font-family="Helvetica,sans-Serif" font-size="10.00">BeltramiStencil</text>
</a>
</g>
</g>
<!-- Node12&#45;&gt;Node13 -->
<g id="edge13" class="edge"><title>Node12&#45;&gt;Node13</title>
<path fill="none" stroke="midnightblue" d="M1001.67,-62.4167C1012.34,-63.7041 1023.09,-65.0013 1033.39,-66.2436"/>
<polygon fill="midnightblue" stroke="midnightblue" points="1001.83,-58.9107 991.487,-61.1874 1001,-65.8603 1001.83,-58.9107"/>
</g>
<!-- Node14 -->
<g id="node15" class="node"><title>Node14</title>
<g id="a_node15"><a xlink:href="classvtkvmtkPolyDataFVFELaplaceBeltramiStencil.html" target="_top" xlink:title="Apply finite&#45;volume, finite&#45;element LB weighting to the neighborhood connections of a surface...">
<polygon fill="white" stroke="black" points="1027.29,-13.5 1027.29,-41.5 1178.34,-41.5 1178.34,-13.5 1027.29,-13.5"/>
<text text-anchor="start" x="1035.29" y="-29.5" font-family="Helvetica,sans-Serif" font-size="10.00">vtkvmtkPolyDataFVFELaplace</text>
<text text-anchor="middle" x="1102.81" y="-19.5" font-family="Helvetica,sans-Serif" font-size="10.00">BeltramiStencil</text>
</a>
</g>
</g>
<!-- Node12&#45;&gt;Node14 -->
<g id="edge14" class="edge"><title>Node12&#45;&gt;Node14</title>
<path fill="none" stroke="midnightblue" d="M1001.5,-40.1302C1010.07,-39.0515 1018.69,-37.9659 1027.09,-36.9085"/>
<polygon fill="midnightblue" stroke="midnightblue" points="1000.97,-36.6695 991.487,-41.3914 1001.85,-43.6146 1000.97,-36.6695"/>
</g>
</g>
</svg>
        <g id="navigator" transform="translate(0 0)" fill="#404254">
                <rect fill="#f2f5e9" fill-opacity="0.5" stroke="#606060" stroke-width=".5" x="0" y="0" width="60" height="60"/>
                <use id="zoomplus" xlink:href="#zoomPlus" x="17" y="9" onmousedown="handleZoom(evt,'in')"/>
                <use id="zoomminus" xlink:href="#zoomMin" x="42" y="9" onmousedown="handleZoom(evt,'out')"/>
                <use id="reset" xlink:href="#resetDef" x="30" y="36" onmousedown="handleReset()"/>
                <g id="arrowUp" xlink:href="#dirArrow" transform="translate(30 24)" onmousedown="handlePan(0,-1)">
                  <use xlink:href="#rim" fill="#404040">
                        <set attributeName="fill" to="#808080" begin="arrowUp.mouseover" end="arrowUp.mouseout"/>
                  </use>
                  <path fill="none" stroke="white" stroke-width="1.5" d="M0,-3.0v7 M-2.5,-0.5L0,-3.0L2.5,-0.5"/>
                </g>
                <g id="arrowRight" xlink:href="#dirArrow" transform="rotate(90) translate(36 -43)" onmousedown="handlePan(1,0)">
                  <use xlink:href="#rim" fill="#404040">
                        <set attributeName="fill" to="#808080" begin="arrowRight.mouseover" end="arrowRight.mouseout"/>
                  </use>
                  <path fill="none" stroke="white" stroke-width="1.5" d="M0,-3.0v7 M-2.5,-0.5L0,-3.0L2.5,-0.5"/>
                </g>
                <g id="arrowDown" xlink:href="#dirArrow" transform="rotate(180) translate(-30 -48)" onmousedown="handlePan(0,1)">
                  <use xlink:href="#rim" fill="#404040">
                        <set attributeName="fill" to="#808080" begin="arrowDown.mouseover" end="arrowDown.mouseout"/>
                  </use>
                  <path fill="none" stroke="white" stroke-width="1.5" d="M0,-3.0v7 M-2.5,-0.5L0,-3.0L2.5,-0.5"/>
                </g>
                <g id="arrowLeft" xlink:href="#dirArrow" transform="rotate(270) translate(-36 17)" onmousedown="handlePan(-1,0)">
                  <use xlink:href="#rim" fill="#404040">
                        <set attributeName="fill" to="#808080" begin="arrowLeft.mouseover" end="arrowLeft.mouseout"/>
                  </use>
                  <path fill="none" stroke="white" stroke-width="1.5" d="M0,-3.0v7 M-2.5,-0.5L0,-3.0L2.5,-0.5"/>
                </g>
        </g>
        <svg viewBox="0 0 15 15" width="100%" height="30px" preserveAspectRatio="xMaxYMin meet">
         <g id="arrow_out" transform="scale(0.3 0.3)">
          <a xlink:href="classvtkvmtkNeighborhood__inherit__graph_org.svg" target="_base">
           <rect id="button" ry="5" rx="5" y="6" x="6" height="38" width="38"
                fill="#f2f5e9" fill-opacity="0.5" stroke="#606060" stroke-width="1.0"/>
           <path id="arrow"
             d="M 11.500037,31.436501 C 11.940474,20.09759 22.043105,11.32322 32.158766,21.979434 L 37.068811,17.246167 C 37.068811,17.246167 37.088388,32 37.088388,32 L 22.160133,31.978069 C 22.160133,31.978069 26.997745,27.140456 26.997745,27.140456 C 18.528582,18.264221 13.291696,25.230495 11.500037,31.436501 z"
             style="fill:#404040;"/>
          </a>
         </g>
        </svg>
</svg>
