<?xml version="1.0" encoding="UTF-8" standalone="no"?>
<!DOCTYPE svg PUBLIC "-//W3C//DTD SVG 1.1//EN"
 "http://www.w3.org/Graphics/SVG/1.1/DTD/svg11.dtd">
<!-- Generated by graphviz version 2.38.0 (20140413.2041)
 -->
<!-- Title: vtkvmtkNeighborhood Pages: 1 -->
<svg width="1280pt" height="222pt"
 viewBox="0.00 0.00 1280.02 222.00" xmlns="http://www.w3.org/2000/svg" xmlns:xlink="http://www.w3.org/1999/xlink">
<g id="graph0" class="graph" transform="scale(1 1) rotate(0) translate(4 218)">
<title>vtkvmtkNeighborhood</title>
<polygon fill="white" stroke="none" points="-4,4 -4,-218 1276.02,-218 1276.02,4 -4,4"/>
<!-- Node0 -->
<g id="node1" class="node"><title>Node0</title>
<polygon fill="#bfbfbf" stroke="black" points="340.482,-121.5 340.482,-139.5 453.196,-139.5 453.196,-121.5 340.482,-121.5"/>
<text text-anchor="middle" x="396.839" y="-127.5" font-family="Helvetica,sans-Serif" font-size="10.00">vtkvmtkNeighborhood</text>
</g>
<!-- Node4 -->
<g id="node5" class="node"><title>Node4</title>
<g id="a_node5"><a xlink:href="classvtkvmtkEmptyNeighborhood.html" target="_top" xlink:title="Create an an empty neighborhood instance. ">
<polygon fill="white" stroke="black" points="514.213,-195.5 514.213,-213.5 655.267,-213.5 655.267,-195.5 514.213,-195.5"/>
<text text-anchor="middle" x="584.74" y="-201.5" font-family="Helvetica,sans-Serif" font-size="10.00">vtkvmtkEmptyNeighborhood</text>
</a>
</g>
</g>
<!-- Node0&#45;&gt;Node4 -->
<g id="edge4" class="edge"><title>Node0&#45;&gt;Node4</title>
<path fill="none" stroke="midnightblue" d="M417.912,-145.774C435.712,-158.57 462.896,-176.329 489.196,-186.5 498.702,-190.176 509.046,-193.123 519.289,-195.478"/>
<polygon fill="midnightblue" stroke="midnightblue" points="419.644,-142.703 409.513,-139.602 415.498,-148.344 419.644,-142.703"/>
</g>
<!-- Node5 -->
<g id="node6" class="node"><title>Node5</title>
<g id="a_node6"><a xlink:href="classvtkvmtkPolyDataManifoldNeighborhood.html" target="_top" xlink:title="Apply a neighborhood to the points of a manifold surface. ">
<polygon fill="white" stroke="black" points="489.196,-158.5 489.196,-176.5 680.284,-176.5 680.284,-158.5 489.196,-158.5"/>
<text text-anchor="middle" x="584.74" y="-164.5" font-family="Helvetica,sans-Serif" font-size="10.00">vtkvmtkPolyDataManifoldNeighborhood</text>
</a>
</g>
</g>
<!-- Node0&#45;&gt;Node5 -->
<g id="edge5" class="edge"><title>Node0&#45;&gt;Node5</title>
<path fill="none" stroke="midnightblue" d="M450.511,-141.613C463.172,-144.24 476.66,-147.003 489.196,-149.5 504.108,-152.47 520.365,-155.603 535.127,-158.408"/>
<polygon fill="midnightblue" stroke="midnightblue" points="451.071,-138.155 440.568,-139.542 449.644,-145.008 451.071,-138.155"/>
</g>
<!-- Node7 -->
<g id="node8" class="node"><title>Node7</title>
<g id="a_node8"><a xlink:href="classvtkvmtkPolyDataNeighborhood.html" target="_top" xlink:title="Create a neighborhood for points on a surface. ">
<polygon fill="white" stroke="black" points="508.095,-121.5 508.095,-139.5 661.385,-139.5 661.385,-121.5 508.095,-121.5"/>
<text text-anchor="middle" x="584.74" y="-127.5" font-family="Helvetica,sans-Serif" font-size="10.00">vtkvmtkPolyDataNeighborhood</text>
</a>
</g>
</g>
<!-- Node0&#45;&gt;Node7 -->
<g id="edge7" class="edge"><title>Node0&#45;&gt;Node7</title>
<path fill="none" stroke="midnightblue" d="M463.605,-130.5C477.929,-130.5 493.197,-130.5 507.876,-130.5"/>
<polygon fill="midnightblue" stroke="midnightblue" points="463.364,-127 453.364,-130.5 463.364,-134 463.364,-127"/>
</g>
<!-- Node8 -->
<g id="node9" class="node"><title>Node8</title>
<g id="a_node9"><a xlink:href="classvtkvmtkStencil.html" target="_top" xlink:title="Apply a weighting matrix to a single neighborhood of a data set. ">
<polygon fill="white" stroke="black" points="544.79,-84.5 544.79,-102.5 624.691,-102.5 624.691,-84.5 544.79,-84.5"/>
<text text-anchor="middle" x="584.74" y="-90.5" font-family="Helvetica,sans-Serif" font-size="10.00">vtkvmtkStencil</text>
</a>
</g>
</g>
<!-- Node0&#45;&gt;Node8 -->
<g id="edge8" class="edge"><title>Node0&#45;&gt;Node8</title>
<path fill="none" stroke="midnightblue" d="M450.511,-119.387C463.172,-116.76 476.66,-113.997 489.196,-111.5 507.386,-107.877 527.576,-104.012 544.613,-100.796"/>
<polygon fill="midnightblue" stroke="midnightblue" points="449.644,-115.992 440.568,-121.458 451.071,-122.845 449.644,-115.992"/>
</g>
<!-- Node17 -->
<g id="node18" class="node"><title>Node17</title>
<g id="a_node18"><a xlink:href="classvtkvmtkUnstructuredGridNeighborhood.html" target="_top" xlink:title="Apply a neighborhood to the vertices on of a unstructured grid data set. ">
<polygon fill="white" stroke="black" points="490.314,-47.5 490.314,-65.5 679.166,-65.5 679.166,-47.5 490.314,-47.5"/>
<text text-anchor="middle" x="584.74" y="-53.5" font-family="Helvetica,sans-Serif" font-size="10.00">vtkvmtkUnstructuredGridNeighborhood</text>
</a>
</g>
</g>
<!-- Node0&#45;&gt;Node17 -->
<g id="edge17" class="edge"><title>Node0&#45;&gt;Node17</title>
<path fill="none" stroke="midnightblue" d="M417.912,-115.226C435.712,-102.43 462.896,-84.6713 489.196,-74.5 498.702,-70.8236 509.046,-67.8772 519.289,-65.5217"/>
<polygon fill="midnightblue" stroke="midnightblue" points="415.498,-112.656 409.513,-121.398 419.644,-118.297 415.498,-112.656"/>
</g>
<!-- Node1 -->
<g id="node2" class="node"><title>Node1</title>
<g id="a_node2"><a xlink:href="classvtkvmtkDataSetItem.html" target="_top" xlink:title="create an item instance with a data set and particular point id. ">
<polygon fill="white" stroke="black" points="199.015,-121.5 199.015,-139.5 304.482,-139.5 304.482,-121.5 199.015,-121.5"/>
<text text-anchor="middle" x="251.749" y="-127.5" font-family="Helvetica,sans-Serif" font-size="10.00">vtkvmtkDataSetItem</text>
</a>
</g>
</g>
<!-- Node1&#45;&gt;Node0 -->
<g id="edge1" class="edge"><title>Node1&#45;&gt;Node0</title>
<path fill="none" stroke="midnightblue" d="M314.942,-130.5C323.343,-130.5 331.919,-130.5 340.197,-130.5"/>
<polygon fill="midnightblue" stroke="midnightblue" points="314.812,-127 304.812,-130.5 314.812,-134 314.812,-127"/>
</g>
<!-- Node2 -->
<g id="node3" class="node"><title>Node2</title>
<g id="a_node3"><a xlink:href="classvtkvmtkItem.html" target="_top" xlink:title="Base class for the construction of neighborhoods and stencil from a set of points. ">
<polygon fill="white" stroke="black" points="93.6797,-121.5 93.6797,-139.5 163.015,-139.5 163.015,-121.5 93.6797,-121.5"/>
<text text-anchor="middle" x="128.347" y="-127.5" font-family="Helvetica,sans-Serif" font-size="10.00">vtkvmtkItem</text>
</a>
</g>
</g>
<!-- Node2&#45;&gt;Node1 -->
<g id="edge2" class="edge"><title>Node2&#45;&gt;Node1</title>
<path fill="none" stroke="midnightblue" d="M173.381,-130.5C181.679,-130.5 190.427,-130.5 198.936,-130.5"/>
<polygon fill="midnightblue" stroke="midnightblue" points="173.164,-127 163.164,-130.5 173.164,-134 173.164,-127"/>
</g>
<!-- Node3 -->
<g id="node4" class="node"><title>Node3</title>
<polygon fill="white" stroke="#bfbfbf" points="0,-121.5 0,-139.5 57.6797,-139.5 57.6797,-121.5 0,-121.5"/>
<text text-anchor="middle" x="28.8398" y="-127.5" font-family="Helvetica,sans-Serif" font-size="10.00">vtkObject</text>
</g>
<!-- Node3&#45;&gt;Node2 -->
<g id="edge3" class="edge"><title>Node3&#45;&gt;Node2</title>
<path fill="none" stroke="midnightblue" d="M67.8182,-130.5C76.2928,-130.5 85.2246,-130.5 93.5186,-130.5"/>
<polygon fill="midnightblue" stroke="midnightblue" points="67.7816,-127 57.7815,-130.5 67.7815,-134 67.7816,-127"/>
</g>
<!-- Node6 -->
<g id="node7" class="node"><title>Node6</title>
<g id="a_node7"><a xlink:href="classvtkvmtkPolyDataManifoldExtendedNeighborhood.html" target="_top" xlink:title="Apply a an extended neighborhood to the points of a manifold surface. ">
<polygon fill="white" stroke="black" points="716.284,-153.5 716.284,-181.5 886.801,-181.5 886.801,-153.5 716.284,-153.5"/>
<text text-anchor="start" x="724.284" y="-169.5" font-family="Helvetica,sans-Serif" font-size="10.00">vtkvmtkPolyDataManifoldExtended</text>
<text text-anchor="middle" x="801.542" y="-159.5" font-family="Helvetica,sans-Serif" font-size="10.00">Neighborhood</text>
</a>
</g>
</g>
<!-- Node5&#45;&gt;Node6 -->
<g id="edge6" class="edge"><title>Node5&#45;&gt;Node6</title>
<path fill="none" stroke="midnightblue" d="M690.852,-167.5C699.291,-167.5 707.749,-167.5 716.018,-167.5"/>
<polygon fill="midnightblue" stroke="midnightblue" points="690.581,-164 680.581,-167.5 690.581,-171 690.581,-164"/>
</g>
<!-- Node9 -->
<g id="node10" class="node"><title>Node9</title>
<g id="a_node10"><a xlink:href="classvtkvmtkEmptyStencil.html" target="_top" xlink:title="create a stencil but do not apply a weighting to the neighborhoods of the data set. ">
<polygon fill="white" stroke="black" points="747.422,-100.5 747.422,-118.5 855.663,-118.5 855.663,-100.5 747.422,-100.5"/>
<text text-anchor="middle" x="801.542" y="-106.5" font-family="Helvetica,sans-Serif" font-size="10.00">vtkvmtkEmptyStencil</text>
</a>
</g>
</g>
<!-- Node8&#45;&gt;Node9 -->
<g id="edge9" class="edge"><title>Node8&#45;&gt;Node9</title>
<path fill="none" stroke="midnightblue" d="M635.169,-97.1818C668.678,-99.6778 712.936,-102.974 747.234,-105.529"/>
<polygon fill="midnightblue" stroke="midnightblue" points="635.371,-93.6872 625.138,-96.4346 634.851,-100.668 635.371,-93.6872"/>
</g>
<!-- Node10 -->
<g id="node11" class="node"><title>Node10</title>
<g id="a_node11"><a xlink:href="classvtkvmtkPolyDataManifoldStencil.html" target="_top" xlink:title="Base class for stencils applied to a manifold surface. ">
<polygon fill="white" stroke="black" points="722.405,-63.5 722.405,-81.5 880.68,-81.5 880.68,-63.5 722.405,-63.5"/>
<text text-anchor="middle" x="801.542" y="-69.5" font-family="Helvetica,sans-Serif" font-size="10.00">vtkvmtkPolyDataManifoldStencil</text>
</a>
</g>
</g>
<!-- Node8&#45;&gt;Node10 -->
<g id="edge10" class="edge"><title>Node8&#45;&gt;Node10</title>
<path fill="none" stroke="midnightblue" d="M635.402,-88.6448C661.163,-86.1264 693.229,-82.9914 722.234,-80.1558"/>
<polygon fill="midnightblue" stroke="midnightblue" points="634.75,-85.1918 625.138,-89.6483 635.431,-92.1586 634.75,-85.1918"/>
</g>
<!-- Node11 -->
<g id="node12" class="node"><title>Node11</title>
<g id="a_node12"><a xlink:href="classvtkvmtkPolyDataAreaWeightedUmbrellaStencil.html" target="_top" xlink:title="Apply umbrella (laplacian) weighting to the neighborhood connections of a surface. ">
<polygon fill="white" stroke="black" points="927.056,-121.5 927.056,-149.5 1080.71,-149.5 1080.71,-121.5 927.056,-121.5"/>
<text text-anchor="start" x="935.056" y="-137.5" font-family="Helvetica,sans-Serif" font-size="10.00">vtkvmtkPolyDataAreaWeighted</text>
<text text-anchor="middle" x="1003.88" y="-127.5" font-family="Helvetica,sans-Serif" font-size="10.00">UmbrellaStencil</text>
</a>
</g>
</g>
<!-- Node10&#45;&gt;Node11 -->
<g id="edge11" class="edge"><title>Node10&#45;&gt;Node11</title>
<path fill="none" stroke="midnightblue" d="M867.105,-84.0736C873.845,-85.9374 880.521,-88.0696 886.801,-90.5 904.075,-97.1857 905.81,-104.123 922.801,-111.5 931.321,-115.2 940.587,-118.549 949.692,-121.493"/>
<polygon fill="midnightblue" stroke="midnightblue" points="867.781,-80.6337 857.224,-81.5316 866.037,-87.4129 867.781,-80.6337"/>
</g>
<!-- Node12 -->
<g id="node13" class="node"><title>Node12</title>
<g id="a_node13"><a xlink:href="classvtkvmtkPolyDataGradientStencil.html" target="_top" xlink:title="Apply gradient weighting to the neighborhood connections of a surface. ">
<polygon fill="white" stroke="black" points="924.468,-84.5 924.468,-102.5 1083.3,-102.5 1083.3,-84.5 924.468,-84.5"/>
<text text-anchor="middle" x="1003.88" y="-90.5" font-family="Helvetica,sans-Serif" font-size="10.00">vtkvmtkPolyDataGradientStencil</text>
</a>
</g>
</g>
<!-- Node10&#45;&gt;Node12 -->
<g id="edge12" class="edge"><title>Node10&#45;&gt;Node12</title>
<path fill="none" stroke="midnightblue" d="M890.979,-81.77C902.073,-82.9329 913.362,-84.1162 924.291,-85.2618"/>
<polygon fill="midnightblue" stroke="midnightblue" points="891.171,-78.271 880.861,-80.7094 890.441,-85.2329 891.171,-78.271"/>
</g>
<!-- Node13 -->
<g id="node14" class="node"><title>Node13</title>
<g id="a_node14"><a xlink:href="classvtkvmtkPolyDataLaplaceBeltramiStencil.html" target="_top" xlink:title="Apply LB weighting to the neighborhood connections of a surface. ">
<polygon fill="white" stroke="black" points="922.801,-37.5 922.801,-65.5 1084.97,-65.5 1084.97,-37.5 922.801,-37.5"/>
<text text-anchor="start" x="930.801" y="-53.5" font-family="Helvetica,sans-Serif" font-size="10.00">vtkvmtkPolyDataLaplaceBeltrami</text>
<text text-anchor="middle" x="1003.88" y="-43.5" font-family="Helvetica,sans-Serif" font-size="10.00">Stencil</text>
</a>
</g>
</g>
<!-- Node10&#45;&gt;Node13 -->
<g id="edge13" class="edge"><title>Node10&#45;&gt;Node13</title>
<path fill="none" stroke="midnightblue" d="M890.913,-63.2369C901.471,-62.1302 912.207,-61.0049 922.641,-59.9111"/>
<polygon fill="midnightblue" stroke="midnightblue" points="890.441,-59.7671 880.861,-64.2906 891.171,-66.729 890.441,-59.7671"/>
</g>
<!-- Node16 -->
<g id="node17" class="node"><title>Node16</title>
<g id="a_node17"><a xlink:href="classvtkvmtkPolyDataUmbrellaStencil.html" target="_top" xlink:title="Weight the neighborhood connections of a surface mesh with a laplacian. ">
<polygon fill="white" stroke="black" points="923.641,-0.5 923.641,-18.5 1084.13,-18.5 1084.13,-0.5 923.641,-0.5"/>
<text text-anchor="middle" x="1003.88" y="-6.5" font-family="Helvetica,sans-Serif" font-size="10.00">vtkvmtkPolyDataUmbrellaStencil</text>
</a>
</g>
</g>
<!-- Node10&#45;&gt;Node16 -->
<g id="edge16" class="edge"><title>Node10&#45;&gt;Node16</title>
<path fill="none" stroke="midnightblue" d="M833.282,-59.6657C857.347,-49.9443 891.819,-36.7311 922.801,-27.5 933.999,-24.1633 946.241,-21.1174 957.707,-18.5183"/>
<polygon fill="midnightblue" stroke="midnightblue" points="831.902,-56.4486 823.964,-63.4655 834.545,-62.9304 831.902,-56.4486"/>
</g>
<!-- Node14 -->
<g id="node15" class="node"><title>Node14</title>
<g id="a_node15"><a xlink:href="classvtkvmtkPolyDataFELaplaceBeltramiStencil.html" target="_top" xlink:title="Apply finite&#45;element LB weighting to the neighborhood connections of a surface. ">
<polygon fill="white" stroke="black" points="1127.36,-60.5 1127.36,-88.5 1265.63,-88.5 1265.63,-60.5 1127.36,-60.5"/>
<text text-anchor="start" x="1135.36" y="-76.5" font-family="Helvetica,sans-Serif" font-size="10.00">vtkvmtkPolyDataFELaplace</text>
<text text-anchor="middle" x="1196.49" y="-66.5" font-family="Helvetica,sans-Serif" font-size="10.00">BeltramiStencil</text>
</a>
</g>
</g>
<!-- Node13&#45;&gt;Node14 -->
<g id="edge14" class="edge"><title>Node13&#45;&gt;Node14</title>
<path fill="none" stroke="midnightblue" d="M1095.35,-62.4167C1106.02,-63.7041 1116.77,-65.0013 1127.07,-66.2436"/>
<polygon fill="midnightblue" stroke="midnightblue" points="1095.51,-58.9107 1085.17,-61.1874 1094.68,-65.8603 1095.51,-58.9107"/>
</g>
<!-- Node15 -->
<g id="node16" class="node"><title>Node15</title>
<g id="a_node16"><a xlink:href="classvtkvmtkPolyDataFVFELaplaceBeltramiStencil.html" target="_top" xlink:title="Apply finite&#45;volume, finite&#45;element LB weighting to the neighborhood connections of a surface...">
<polygon fill="white" stroke="black" points="1120.97,-13.5 1120.97,-41.5 1272.02,-41.5 1272.02,-13.5 1120.97,-13.5"/>
<text text-anchor="start" x="1128.97" y="-29.5" font-family="Helvetica,sans-Serif" font-size="10.00">vtkvmtkPolyDataFVFELaplace</text>
<text text-anchor="middle" x="1196.49" y="-19.5" font-family="Helvetica,sans-Serif" font-size="10.00">BeltramiStencil</text>
</a>
</g>
</g>
<!-- Node13&#45;&gt;Node15 -->
<g id="edge15" class="edge"><title>Node13&#45;&gt;Node15</title>
<path fill="none" stroke="midnightblue" d="M1095.18,-40.1302C1103.75,-39.0515 1112.37,-37.9659 1120.77,-36.9085"/>
<polygon fill="midnightblue" stroke="midnightblue" points="1094.65,-36.6695 1085.17,-41.3914 1095.53,-43.6146 1094.65,-36.6695"/>
</g>
</g>
</svg>
