<?xml version="1.0" encoding="UTF-8" standalone="no"?>
<!DOCTYPE svg PUBLIC "-//W3C//DTD SVG 1.1//EN"
 "http://www.w3.org/Graphics/SVG/1.1/DTD/svg11.dtd">
<!-- Generated by graphviz version 2.38.0 (20140413.2041)
 -->
<!-- Title: vtkvmtkDataSetItems Pages: 1 -->
<svg width="118pt" height="148pt"
 viewBox="0.00 0.00 118.47 148.00" xmlns="http://www.w3.org/2000/svg" xmlns:xlink="http://www.w3.org/1999/xlink">
<g id="graph0" class="graph" transform="scale(1 1) rotate(0) translate(4 144)">
<title>vtkvmtkDataSetItems</title>
<polygon fill="white" stroke="none" points="-4,4 -4,-144 114.468,-144 114.468,4 -4,4"/>
<!-- Node4 -->
<g id="node1" class="node"><title>Node4</title>
<polygon fill="#bfbfbf" stroke="black" points="0,-0.5 0,-18.5 110.468,-18.5 110.468,-0.5 0,-0.5"/>
<text text-anchor="middle" x="55.2339" y="-6.5" font-family="Helvetica,sans-Serif" font-size="10.00">vtkvmtkDataSetItems</text>
</g>
<!-- Node5 -->
<g id="node2" class="node"><title>Node5</title>
<g id="a_node2"><a xlink:href="classvtkvmtkItems.html" target="_top" xlink:title="Control allocation and memory footprint of item instances. ">
<polygon fill="white" stroke="black" points="18.0664,-56.5 18.0664,-74.5 92.4014,-74.5 92.4014,-56.5 18.0664,-56.5"/>
<text text-anchor="middle" x="55.2339" y="-62.5" font-family="Helvetica,sans-Serif" font-size="10.00">vtkvmtkItems</text>
</a>
</g>
</g>
<!-- Node5&#45;&gt;Node4 -->
<g id="edge1" class="edge"><title>Node5&#45;&gt;Node4</title>
<path fill="none" stroke="midnightblue" d="M55.2339,-45.8288C55.2339,-36.5774 55.2339,-25.8798 55.2339,-18.7014"/>
<polygon fill="midnightblue" stroke="midnightblue" points="51.734,-46.0625 55.2339,-56.0625 58.734,-46.0625 51.734,-46.0625"/>
</g>
<!-- Node6 -->
<g id="node3" class="node"><title>Node6</title>
<g id="a_node3"><a xlink:href="classvtkvmtkItem.html" target="_top" xlink:title="Base class for the construction of neighborhoods and stencil from a set of points. ">
<polygon fill="white" stroke="black" points="20.5664,-121.5 20.5664,-139.5 89.9014,-139.5 89.9014,-121.5 20.5664,-121.5"/>
<text text-anchor="middle" x="55.2339" y="-127.5" font-family="Helvetica,sans-Serif" font-size="10.00">vtkvmtkItem</text>
</a>
</g>
</g>
<!-- Node6&#45;&gt;Node5 -->
<g id="edge2" class="edge"><title>Node6&#45;&gt;Node5</title>
<path fill="none" stroke="#9a32cd" stroke-dasharray="5,2" d="M55.2339,-110.907C55.2339,-98.8146 55.2339,-83.6529 55.2339,-74.539"/>
<polygon fill="#9a32cd" stroke="#9a32cd" points="51.734,-111.264 55.2339,-121.264 58.734,-111.264 51.734,-111.264"/>
<text text-anchor="middle" x="68.2954" y="-95" font-family="Helvetica,sans-Serif" font-size="10.00"> Array</text>
</g>
</g>
</svg>
