<?xml version="1.0" encoding="UTF-8" standalone="no"?>
<!DOCTYPE svg PUBLIC "-//W3C//DTD SVG 1.1//EN"
 "http://www.w3.org/Graphics/SVG/1.1/DTD/svg11.dtd">
<!-- Generated by graphviz version 2.38.0 (20140413.2041)
 -->
<!-- Title: vtkvmtkPolyDataFEGradientAssembler Pages: 1 -->
<svg width="150pt" height="147pt"
 viewBox="0.00 0.00 149.60 147.00" xmlns="http://www.w3.org/2000/svg" xmlns:xlink="http://www.w3.org/1999/xlink">
<g id="graph0" class="graph" transform="scale(1 1) rotate(0) translate(4 143)">
<title>vtkvmtkPolyDataFEGradientAssembler</title>
<polygon fill="white" stroke="none" points="-4,4 -4,-143 145.596,-143 145.596,4 -4,4"/>
<!-- Node0 -->
<g id="node1" class="node"><title>Node0</title>
<polygon fill="#bfbfbf" stroke="black" points="0,-0.5 0,-28.5 141.596,-28.5 141.596,-0.5 0,-0.5"/>
<text text-anchor="start" x="8" y="-16.5" font-family="Helvetica,sans-Serif" font-size="10.00">vtkvmtkPolyDataFEGradient</text>
<text text-anchor="middle" x="70.7979" y="-6.5" font-family="Helvetica,sans-Serif" font-size="10.00">Assembler</text>
</g>
<!-- Node1 -->
<g id="node2" class="node"><title>Node1</title>
<g id="a_node2"><a xlink:href="classvtkvmtkFEAssembler.html" target="_top" xlink:title="Base class on which to build to build specific finite element routines. ">
<polygon fill="white" stroke="black" points="15.8472,-65.5 15.8472,-83.5 125.749,-83.5 125.749,-65.5 15.8472,-65.5"/>
<text text-anchor="middle" x="70.7979" y="-71.5" font-family="Helvetica,sans-Serif" font-size="10.00">vtkvmtkFEAssembler</text>
</a>
</g>
</g>
<!-- Node1&#45;&gt;Node0 -->
<g id="edge1" class="edge"><title>Node1&#45;&gt;Node0</title>
<path fill="none" stroke="midnightblue" d="M70.7979,-55.3209C70.7979,-46.747 70.7979,-36.6999 70.7979,-28.8428"/>
<polygon fill="midnightblue" stroke="midnightblue" points="67.298,-55.4353 70.7979,-65.4353 74.298,-55.4354 67.298,-55.4353"/>
</g>
<!-- Node2 -->
<g id="node3" class="node"><title>Node2</title>
<polygon fill="white" stroke="#bfbfbf" points="41.958,-120.5 41.958,-138.5 99.6377,-138.5 99.6377,-120.5 41.958,-120.5"/>
<text text-anchor="middle" x="70.7979" y="-126.5" font-family="Helvetica,sans-Serif" font-size="10.00">vtkObject</text>
</g>
<!-- Node2&#45;&gt;Node1 -->
<g id="edge2" class="edge"><title>Node2&#45;&gt;Node1</title>
<path fill="none" stroke="midnightblue" d="M70.7979,-110.175C70.7979,-101.094 70.7979,-90.5949 70.7979,-83.5496"/>
<polygon fill="midnightblue" stroke="midnightblue" points="67.298,-110.219 70.7979,-120.219 74.298,-110.219 67.298,-110.219"/>
</g>
</g>
</svg>
