<?xml version="1.0" encoding="UTF-8" standalone="no"?>
<!DOCTYPE svg PUBLIC "-//W3C//DTD SVG 1.1//EN"
 "http://www.w3.org/Graphics/SVG/1.1/DTD/svg11.dtd">
<!-- Generated by graphviz version 2.38.0 (20140413.2041)
 -->
<!-- Title: vtkvmtkOpenNLLinearSystemSolver Pages: 1 -->
<svg width="353pt" height="354pt"
 viewBox="0.00 0.00 353.10 354.00" xmlns="http://www.w3.org/2000/svg" xmlns:xlink="http://www.w3.org/1999/xlink">
<g id="graph0" class="graph" transform="scale(1 1) rotate(0) translate(4 350)">
<title>vtkvmtkOpenNLLinearSystemSolver</title>
<polygon fill="white" stroke="none" points="-4,4 -4,-350 349.101,-350 349.101,4 -4,4"/>
<!-- Node3 -->
<g id="node1" class="node"><title>Node3</title>
<polygon fill="#bfbfbf" stroke="black" points="0,-0.5 0,-28.5 148.271,-28.5 148.271,-0.5 0,-0.5"/>
<text text-anchor="start" x="8" y="-16.5" font-family="Helvetica,sans-Serif" font-size="10.00">vtkvmtkOpenNLLinearSystem</text>
<text text-anchor="middle" x="74.1353" y="-6.5" font-family="Helvetica,sans-Serif" font-size="10.00">Solver</text>
</g>
<!-- Node4 -->
<g id="node2" class="node"><title>Node4</title>
<g id="a_node2"><a xlink:href="classvtkvmtkLinearSystemSolver.html" target="_top" xlink:title="Base class for linear system of equation solver implementations. ">
<polygon fill="white" stroke="black" points="4.45068,-66.5 4.45068,-84.5 143.82,-84.5 143.82,-66.5 4.45068,-66.5"/>
<text text-anchor="middle" x="74.1353" y="-72.5" font-family="Helvetica,sans-Serif" font-size="10.00">vtkvmtkLinearSystemSolver</text>
</a>
</g>
</g>
<!-- Node4&#45;&gt;Node3 -->
<g id="edge1" class="edge"><title>Node4&#45;&gt;Node3</title>
<path fill="none" stroke="midnightblue" d="M74.1353,-56.1543C74.1353,-47.2359 74.1353,-36.7225 74.1353,-28.6215"/>
<polygon fill="midnightblue" stroke="midnightblue" points="70.6354,-56.2963 74.1353,-66.2963 77.6354,-56.2963 70.6354,-56.2963"/>
</g>
<!-- Node5 -->
<g id="node3" class="node"><title>Node5</title>
<polygon fill="white" stroke="#bfbfbf" points="90.2954,-327.5 90.2954,-345.5 147.975,-345.5 147.975,-327.5 90.2954,-327.5"/>
<text text-anchor="middle" x="119.135" y="-333.5" font-family="Helvetica,sans-Serif" font-size="10.00">vtkObject</text>
</g>
<!-- Node5&#45;&gt;Node4 -->
<g id="edge2" class="edge"><title>Node5&#45;&gt;Node4</title>
<path fill="none" stroke="midnightblue" d="M80.516,-323.765C61.7247,-315.424 43.1353,-301.993 43.1353,-281.5 43.1353,-281.5 43.1353,-281.5 43.1353,-139.5 43.1353,-118.046 57.7876,-96.3137 66.9453,-84.8264"/>
<polygon fill="midnightblue" stroke="midnightblue" points="79.3852,-327.083 89.969,-327.567 81.9971,-320.589 79.3852,-327.083"/>
</g>
<!-- Node6 -->
<g id="node4" class="node"><title>Node6</title>
<g id="a_node4"><a xlink:href="classvtkvmtkLinearSystem.html" target="_top" xlink:title="Base container to hold sparse matrice objects representing a linear system of equations Ax = B...">
<polygon fill="white" stroke="black" points="80.623,-131.5 80.623,-149.5 191.647,-149.5 191.647,-131.5 80.623,-131.5"/>
<text text-anchor="middle" x="136.135" y="-137.5" font-family="Helvetica,sans-Serif" font-size="10.00">vtkvmtkLinearSystem</text>
</a>
</g>
</g>
<!-- Node5&#45;&gt;Node6 -->
<g id="edge4" class="edge"><title>Node5&#45;&gt;Node6</title>
<path fill="none" stroke="midnightblue" d="M112.071,-317.92C102.327,-291.1 87.3393,-238.588 100.135,-196 105.682,-177.538 119.737,-159.562 128.555,-149.569"/>
<polygon fill="midnightblue" stroke="midnightblue" points="108.874,-319.359 115.713,-327.45 115.412,-316.859 108.874,-319.359"/>
</g>
<!-- Node7 -->
<g id="node5" class="node"><title>Node7</title>
<g id="a_node5"><a xlink:href="classvtkvmtkSparseMatrix.html" target="_top" xlink:title="Class for constructing sparse matrices from a dataset and performing basic mathematical operations on...">
<polygon fill="white" stroke="black" points="108.739,-197 108.739,-215 217.532,-215 217.532,-197 108.739,-197"/>
<text text-anchor="middle" x="163.135" y="-203" font-family="Helvetica,sans-Serif" font-size="10.00">vtkvmtkSparseMatrix</text>
</a>
</g>
</g>
<!-- Node5&#45;&gt;Node7 -->
<g id="edge6" class="edge"><title>Node5&#45;&gt;Node7</title>
<path fill="none" stroke="midnightblue" d="M123.987,-317.51C127.605,-304.5 132.819,-286.549 138.135,-271 145.082,-250.683 154.619,-227.296 159.67,-215.201"/>
<polygon fill="midnightblue" stroke="midnightblue" points="120.521,-316.918 121.257,-327.487 127.273,-318.765 120.521,-316.918"/>
</g>
<!-- Node8 -->
<g id="node6" class="node"><title>Node8</title>
<g id="a_node6"><a xlink:href="classvtkvmtkSparseMatrixRow.html" target="_top" xlink:title="Class to handle operating on rows of a sparse matrix. ">
<polygon fill="white" stroke="black" points="146.736,-271.5 146.736,-289.5 275.534,-289.5 275.534,-271.5 146.736,-271.5"/>
<text text-anchor="middle" x="211.135" y="-277.5" font-family="Helvetica,sans-Serif" font-size="10.00">vtkvmtkSparseMatrixRow</text>
</a>
</g>
</g>
<!-- Node5&#45;&gt;Node8 -->
<g id="edge8" class="edge"><title>Node5&#45;&gt;Node8</title>
<path fill="none" stroke="midnightblue" d="M142.056,-322.046C159.427,-311.85 182.725,-298.176 197.332,-289.602"/>
<polygon fill="midnightblue" stroke="midnightblue" points="139.961,-319.218 133.108,-327.299 143.504,-325.255 139.961,-319.218"/>
</g>
<!-- Node9 -->
<g id="node7" class="node"><title>Node9</title>
<g id="a_node7"><a xlink:href="classvtkvmtkDoubleVector.html" target="_top" xlink:title="Base class for vectors utilized in finite&#45;element and other PDE evaluations. ">
<polygon fill="white" stroke="black" points="235.17,-234.5 235.17,-252.5 345.101,-252.5 345.101,-234.5 235.17,-234.5"/>
<text text-anchor="middle" x="290.135" y="-240.5" font-family="Helvetica,sans-Serif" font-size="10.00">vtkvmtkDoubleVector</text>
</a>
</g>
</g>
<!-- Node5&#45;&gt;Node9 -->
<g id="edge10" class="edge"><title>Node5&#45;&gt;Node9</title>
<path fill="none" stroke="midnightblue" d="M158.031,-329.803C201.42,-322.617 267.696,-308.88 284.135,-290 293.135,-279.665 292.75,-262.678 291.528,-252.643"/>
<polygon fill="midnightblue" stroke="midnightblue" points="157.392,-326.361 148.074,-331.404 158.503,-333.272 157.392,-326.361"/>
</g>
<!-- Node6&#45;&gt;Node4 -->
<g id="edge3" class="edge"><title>Node6&#45;&gt;Node4</title>
<path fill="none" stroke="#9a32cd" stroke-dasharray="5,2" d="M120.716,-123.832C108.439,-111.357 91.7557,-94.4046 82.0466,-84.539"/>
<polygon fill="#9a32cd" stroke="#9a32cd" points="118.521,-126.591 128.03,-131.264 123.51,-121.681 118.521,-126.591"/>
<text text-anchor="middle" x="141.093" y="-105" font-family="Helvetica,sans-Serif" font-size="10.00"> LinearSystem</text>
</g>
<!-- Node7&#45;&gt;Node6 -->
<g id="edge5" class="edge"><title>Node7&#45;&gt;Node6</title>
<path fill="none" stroke="#9a32cd" stroke-dasharray="5,2" d="M155.765,-187.666C150.507,-175.3 143.674,-159.23 139.612,-149.678"/>
<polygon fill="#9a32cd" stroke="#9a32cd" points="152.582,-189.125 159.716,-196.958 159.024,-186.385 152.582,-189.125"/>
<text text-anchor="middle" x="156.586" y="-170" font-family="Helvetica,sans-Serif" font-size="10.00"> A</text>
</g>
<!-- Node8&#45;&gt;Node7 -->
<g id="edge7" class="edge"><title>Node8&#45;&gt;Node7</title>
<path fill="none" stroke="#9a32cd" stroke-dasharray="5,2" d="M200.054,-262.762C190.216,-247.903 176.252,-226.811 168.627,-215.295"/>
<polygon fill="#9a32cd" stroke="#9a32cd" points="197.376,-265.058 205.815,-271.464 203.213,-261.194 197.376,-265.058"/>
<text text-anchor="middle" x="206.197" y="-240.5" font-family="Helvetica,sans-Serif" font-size="10.00"> Array</text>
</g>
<!-- Node9&#45;&gt;Node6 -->
<g id="edge9" class="edge"><title>Node9&#45;&gt;Node6</title>
<path fill="none" stroke="#9a32cd" stroke-dasharray="5,2" d="M271.16,-228.071C258.579,-218.665 241.6,-206.275 226.135,-196 199.966,-178.614 168.334,-159.988 150.393,-149.637"/>
<polygon fill="#9a32cd" stroke="#9a32cd" points="269.366,-231.101 279.46,-234.32 273.576,-225.509 269.366,-231.101"/>
<text text-anchor="middle" x="258.859" y="-208" font-family="Helvetica,sans-Serif" font-size="10.00"> X</text>
<text text-anchor="middle" x="258.859" y="-198" font-family="Helvetica,sans-Serif" font-size="10.00">B</text>
</g>
</g>
</svg>
