<?xml version="1.0" encoding="UTF-8" standalone="no"?>
<!DOCTYPE svg PUBLIC "-//W3C//DTD SVG 1.1//EN"
 "http://www.w3.org/Graphics/SVG/1.1/DTD/svg11.dtd">
<!-- Generated by graphviz version 2.38.0 (20140413.2041)
 -->
<!-- Title: vtkvmtkStencil Pages: 1 -->
<svg width="121pt" height="247pt"
 viewBox="0.00 0.00 120.71 247.00" xmlns="http://www.w3.org/2000/svg" xmlns:xlink="http://www.w3.org/1999/xlink">
<g id="graph0" class="graph" transform="scale(1 1) rotate(0) translate(4 243)">
<title>vtkvmtkStencil</title>
<polygon fill="white" stroke="none" points="-4,4 -4,-243 116.714,-243 116.714,4 -4,4"/>
<!-- Node13 -->
<g id="node1" class="node"><title>Node13</title>
<polygon fill="#bfbfbf" stroke="black" points="16.4062,-0.5 16.4062,-18.5 96.3076,-18.5 96.3076,-0.5 16.4062,-0.5"/>
<text text-anchor="middle" x="56.3569" y="-6.5" font-family="Helvetica,sans-Serif" font-size="10.00">vtkvmtkStencil</text>
</g>
<!-- Node14 -->
<g id="node2" class="node"><title>Node14</title>
<g id="a_node2"><a xlink:href="classvtkvmtkNeighborhood.html" target="_top" xlink:title="Query the neighborhood surrounding the set point id in an data set item. ">
<polygon fill="white" stroke="black" points="0,-55.5 0,-73.5 112.714,-73.5 112.714,-55.5 0,-55.5"/>
<text text-anchor="middle" x="56.3569" y="-61.5" font-family="Helvetica,sans-Serif" font-size="10.00">vtkvmtkNeighborhood</text>
</a>
</g>
</g>
<!-- Node14&#45;&gt;Node13 -->
<g id="edge1" class="edge"><title>Node14&#45;&gt;Node13</title>
<path fill="none" stroke="midnightblue" d="M56.3569,-45.1746C56.3569,-36.0945 56.3569,-25.5949 56.3569,-18.5496"/>
<polygon fill="midnightblue" stroke="midnightblue" points="52.857,-45.2187 56.3569,-55.2188 59.857,-45.2188 52.857,-45.2187"/>
</g>
<!-- Node15 -->
<g id="node3" class="node"><title>Node15</title>
<g id="a_node3"><a xlink:href="classvtkvmtkDataSetItem.html" target="_top" xlink:title="create an item instance with a data set and particular point id. ">
<polygon fill="white" stroke="black" points="3.62305,-110.5 3.62305,-128.5 109.091,-128.5 109.091,-110.5 3.62305,-110.5"/>
<text text-anchor="middle" x="56.3569" y="-116.5" font-family="Helvetica,sans-Serif" font-size="10.00">vtkvmtkDataSetItem</text>
</a>
</g>
</g>
<!-- Node15&#45;&gt;Node14 -->
<g id="edge2" class="edge"><title>Node15&#45;&gt;Node14</title>
<path fill="none" stroke="midnightblue" d="M56.3569,-100.175C56.3569,-91.0945 56.3569,-80.5949 56.3569,-73.5496"/>
<polygon fill="midnightblue" stroke="midnightblue" points="52.857,-100.219 56.3569,-110.219 59.857,-100.219 52.857,-100.219"/>
</g>
<!-- Node16 -->
<g id="node4" class="node"><title>Node16</title>
<g id="a_node4"><a xlink:href="classvtkvmtkItem.html" target="_top" xlink:title="Base class for the construction of neighborhoods and stencil from a set of points. ">
<polygon fill="white" stroke="black" points="21.6895,-165.5 21.6895,-183.5 91.0244,-183.5 91.0244,-165.5 21.6895,-165.5"/>
<text text-anchor="middle" x="56.3569" y="-171.5" font-family="Helvetica,sans-Serif" font-size="10.00">vtkvmtkItem</text>
</a>
</g>
</g>
<!-- Node16&#45;&gt;Node15 -->
<g id="edge3" class="edge"><title>Node16&#45;&gt;Node15</title>
<path fill="none" stroke="midnightblue" d="M56.3569,-155.175C56.3569,-146.094 56.3569,-135.595 56.3569,-128.55"/>
<polygon fill="midnightblue" stroke="midnightblue" points="52.857,-155.219 56.3569,-165.219 59.857,-155.219 52.857,-155.219"/>
</g>
<!-- Node17 -->
<g id="node5" class="node"><title>Node17</title>
<polygon fill="white" stroke="#bfbfbf" points="27.5171,-220.5 27.5171,-238.5 85.1968,-238.5 85.1968,-220.5 27.5171,-220.5"/>
<text text-anchor="middle" x="56.3569" y="-226.5" font-family="Helvetica,sans-Serif" font-size="10.00">vtkObject</text>
</g>
<!-- Node17&#45;&gt;Node16 -->
<g id="edge4" class="edge"><title>Node17&#45;&gt;Node16</title>
<path fill="none" stroke="midnightblue" d="M56.3569,-210.175C56.3569,-201.094 56.3569,-190.595 56.3569,-183.55"/>
<polygon fill="midnightblue" stroke="midnightblue" points="52.857,-210.219 56.3569,-220.219 59.857,-210.219 52.857,-210.219"/>
</g>
</g>
</svg>
