<?xml version="1.0" encoding="UTF-8" standalone="no"?>
<!DOCTYPE svg PUBLIC "-//W3C//DTD SVG 1.1//EN"
 "http://www.w3.org/Graphics/SVG/1.1/DTD/svg11.dtd">
<!-- Generated by graphviz version 2.38.0 (20140413.2041)
 -->
<!-- Title: vtkvmtkPolyDataManifoldExtendedNeighborhood Pages: 1 -->
<svg width="199pt" height="312pt"
 viewBox="0.00 0.00 199.09 312.00" xmlns="http://www.w3.org/2000/svg" xmlns:xlink="http://www.w3.org/1999/xlink">
<g id="graph0" class="graph" transform="scale(1 1) rotate(0) translate(4 308)">
<title>vtkvmtkPolyDataManifoldExtendedNeighborhood</title>
<polygon fill="white" stroke="none" points="-4,4 -4,-308 195.088,-308 195.088,4 -4,4"/>
<!-- Node6 -->
<g id="node1" class="node"><title>Node6</title>
<polygon fill="#bfbfbf" stroke="black" points="10.2856,-0.5 10.2856,-28.5 180.802,-28.5 180.802,-0.5 10.2856,-0.5"/>
<text text-anchor="start" x="18.2856" y="-16.5" font-family="Helvetica,sans-Serif" font-size="10.00">vtkvmtkPolyDataManifoldExtended</text>
<text text-anchor="middle" x="95.5439" y="-6.5" font-family="Helvetica,sans-Serif" font-size="10.00">Neighborhood</text>
</g>
<!-- Node7 -->
<g id="node2" class="node"><title>Node7</title>
<g id="a_node2"><a xlink:href="classvtkvmtkPolyDataManifoldNeighborhood.html" target="_top" xlink:title="Apply a neighborhood to the points of a manifold surface. ">
<polygon fill="white" stroke="black" points="0,-65.5 0,-83.5 191.088,-83.5 191.088,-65.5 0,-65.5"/>
<text text-anchor="middle" x="95.5439" y="-71.5" font-family="Helvetica,sans-Serif" font-size="10.00">vtkvmtkPolyDataManifoldNeighborhood</text>
</a>
</g>
</g>
<!-- Node7&#45;&gt;Node6 -->
<g id="edge1" class="edge"><title>Node7&#45;&gt;Node6</title>
<path fill="none" stroke="midnightblue" d="M95.5439,-55.3209C95.5439,-46.747 95.5439,-36.6999 95.5439,-28.8428"/>
<polygon fill="midnightblue" stroke="midnightblue" points="92.044,-55.4353 95.5439,-65.4353 99.044,-55.4354 92.044,-55.4353"/>
</g>
<!-- Node8 -->
<g id="node3" class="node"><title>Node8</title>
<g id="a_node3"><a xlink:href="classvtkvmtkNeighborhood.html" target="_top" xlink:title="Query the neighborhood surrounding the set point id in an data set item. ">
<polygon fill="white" stroke="black" points="39.187,-120.5 39.187,-138.5 151.901,-138.5 151.901,-120.5 39.187,-120.5"/>
<text text-anchor="middle" x="95.5439" y="-126.5" font-family="Helvetica,sans-Serif" font-size="10.00">vtkvmtkNeighborhood</text>
</a>
</g>
</g>
<!-- Node8&#45;&gt;Node7 -->
<g id="edge2" class="edge"><title>Node8&#45;&gt;Node7</title>
<path fill="none" stroke="midnightblue" d="M95.5439,-110.175C95.5439,-101.094 95.5439,-90.5949 95.5439,-83.5496"/>
<polygon fill="midnightblue" stroke="midnightblue" points="92.044,-110.219 95.5439,-120.219 99.044,-110.219 92.044,-110.219"/>
</g>
<!-- Node9 -->
<g id="node4" class="node"><title>Node9</title>
<g id="a_node4"><a xlink:href="classvtkvmtkDataSetItem.html" target="_top" xlink:title="create an item instance with a data set and particular point id. ">
<polygon fill="white" stroke="black" points="42.8101,-175.5 42.8101,-193.5 148.278,-193.5 148.278,-175.5 42.8101,-175.5"/>
<text text-anchor="middle" x="95.5439" y="-181.5" font-family="Helvetica,sans-Serif" font-size="10.00">vtkvmtkDataSetItem</text>
</a>
</g>
</g>
<!-- Node9&#45;&gt;Node8 -->
<g id="edge3" class="edge"><title>Node9&#45;&gt;Node8</title>
<path fill="none" stroke="midnightblue" d="M95.5439,-165.175C95.5439,-156.094 95.5439,-145.595 95.5439,-138.55"/>
<polygon fill="midnightblue" stroke="midnightblue" points="92.044,-165.219 95.5439,-175.219 99.044,-165.219 92.044,-165.219"/>
</g>
<!-- Node10 -->
<g id="node5" class="node"><title>Node10</title>
<g id="a_node5"><a xlink:href="classvtkvmtkItem.html" target="_top" xlink:title="Base class for the construction of neighborhoods and stencil from a set of points. ">
<polygon fill="white" stroke="black" points="60.8765,-230.5 60.8765,-248.5 130.211,-248.5 130.211,-230.5 60.8765,-230.5"/>
<text text-anchor="middle" x="95.5439" y="-236.5" font-family="Helvetica,sans-Serif" font-size="10.00">vtkvmtkItem</text>
</a>
</g>
</g>
<!-- Node10&#45;&gt;Node9 -->
<g id="edge4" class="edge"><title>Node10&#45;&gt;Node9</title>
<path fill="none" stroke="midnightblue" d="M95.5439,-220.175C95.5439,-211.094 95.5439,-200.595 95.5439,-193.55"/>
<polygon fill="midnightblue" stroke="midnightblue" points="92.044,-220.219 95.5439,-230.219 99.044,-220.219 92.044,-220.219"/>
</g>
<!-- Node11 -->
<g id="node6" class="node"><title>Node11</title>
<polygon fill="white" stroke="#bfbfbf" points="66.7041,-285.5 66.7041,-303.5 124.384,-303.5 124.384,-285.5 66.7041,-285.5"/>
<text text-anchor="middle" x="95.5439" y="-291.5" font-family="Helvetica,sans-Serif" font-size="10.00">vtkObject</text>
</g>
<!-- Node11&#45;&gt;Node10 -->
<g id="edge5" class="edge"><title>Node11&#45;&gt;Node10</title>
<path fill="none" stroke="midnightblue" d="M95.5439,-275.175C95.5439,-266.094 95.5439,-255.595 95.5439,-248.55"/>
<polygon fill="midnightblue" stroke="midnightblue" points="92.044,-275.219 95.5439,-285.219 99.044,-275.219 92.044,-275.219"/>
</g>
</g>
</svg>
