<?xml version="1.0" encoding="UTF-8" standalone="no"?>
<!DOCTYPE svg PUBLIC "-//W3C//DTD SVG 1.1//EN"
 "http://www.w3.org/Graphics/SVG/1.1/DTD/svg11.dtd">
<!-- Generated by graphviz version 2.38.0 (20140413.2041)
 -->
<!-- Title: vtkvmtkPolyDataCenterlineAbscissaMetricFilter Pages: 1 -->
<svg width="144pt" height="157pt"
 viewBox="0.00 0.00 144.04 157.00" xmlns="http://www.w3.org/2000/svg" xmlns:xlink="http://www.w3.org/1999/xlink">
<g id="graph0" class="graph" transform="scale(1 1) rotate(0) translate(4 153)">
<title>vtkvmtkPolyDataCenterlineAbscissaMetricFilter</title>
<polygon fill="white" stroke="none" points="-4,4 -4,-153 140.044,-153 140.044,4 -4,4"/>
<!-- Node3 -->
<g id="node1" class="node"><title>Node3</title>
<polygon fill="#bfbfbf" stroke="black" points="0,-0.5 0,-28.5 136.044,-28.5 136.044,-0.5 0,-0.5"/>
<text text-anchor="start" x="8" y="-16.5" font-family="Helvetica,sans-Serif" font-size="10.00">vtkvmtkPolyDataCenterline</text>
<text text-anchor="middle" x="68.022" y="-6.5" font-family="Helvetica,sans-Serif" font-size="10.00">AbscissaMetricFilter</text>
</g>
<!-- Node4 -->
<g id="node2" class="node"><title>Node4</title>
<g id="a_node2"><a xlink:href="classvtkvmtkPolyDataCenterlineMetricFilter.html" target="_top" xlink:title="Base class for evaluating metrics over a centerline onto a surface. ">
<polygon fill="white" stroke="black" points="0,-65.5 0,-93.5 136.044,-93.5 136.044,-65.5 0,-65.5"/>
<text text-anchor="start" x="8" y="-81.5" font-family="Helvetica,sans-Serif" font-size="10.00">vtkvmtkPolyDataCenterline</text>
<text text-anchor="middle" x="68.022" y="-71.5" font-family="Helvetica,sans-Serif" font-size="10.00">MetricFilter</text>
</a>
</g>
</g>
<!-- Node4&#45;&gt;Node3 -->
<g id="edge1" class="edge"><title>Node4&#45;&gt;Node3</title>
<path fill="none" stroke="midnightblue" d="M68.022,-55.1641C68.022,-46.1693 68.022,-36.2205 68.022,-28.5369"/>
<polygon fill="midnightblue" stroke="midnightblue" points="64.5221,-55.4463 68.022,-65.4464 71.5221,-55.4464 64.5221,-55.4463"/>
</g>
<!-- Node5 -->
<g id="node3" class="node"><title>Node5</title>
<polygon fill="white" stroke="#bfbfbf" points="12.2266,-130.5 12.2266,-148.5 123.817,-148.5 123.817,-130.5 12.2266,-130.5"/>
<text text-anchor="middle" x="68.022" y="-136.5" font-family="Helvetica,sans-Serif" font-size="10.00">vtkPolyDataAlgorithm</text>
</g>
<!-- Node5&#45;&gt;Node4 -->
<g id="edge2" class="edge"><title>Node5&#45;&gt;Node4</title>
<path fill="none" stroke="midnightblue" d="M68.022,-120.321C68.022,-111.747 68.022,-101.7 68.022,-93.8428"/>
<polygon fill="midnightblue" stroke="midnightblue" points="64.5221,-120.435 68.022,-130.435 71.5221,-120.435 64.5221,-120.435"/>
</g>
</g>
</svg>
