<?xml version="1.0" encoding="UTF-8" standalone="no"?>
<!DOCTYPE svg PUBLIC "-//W3C//DTD SVG 1.1//EN"
 "http://www.w3.org/Graphics/SVG/1.1/DTD/svg11.dtd">
<!-- Generated by graphviz version 2.38.0 (20140413.2041)
 -->
<!-- Title: vtkvmtkPolyDataNeighborhood Pages: 1 -->
<svg width="161pt" height="192pt"
 viewBox="0.00 0.00 161.29 192.00" xmlns="http://www.w3.org/2000/svg" xmlns:xlink="http://www.w3.org/1999/xlink">
<g id="graph0" class="graph" transform="scale(1 1) rotate(0) translate(4 188)">
<title>vtkvmtkPolyDataNeighborhood</title>
<polygon fill="white" stroke="none" points="-4,4 -4,-188 157.29,-188 157.29,4 -4,4"/>
<!-- Node4 -->
<g id="node1" class="node"><title>Node4</title>
<polygon fill="#bfbfbf" stroke="black" points="0,-0.5 0,-18.5 153.29,-18.5 153.29,-0.5 0,-0.5"/>
<text text-anchor="middle" x="76.645" y="-6.5" font-family="Helvetica,sans-Serif" font-size="10.00">vtkvmtkPolyDataNeighborhood</text>
</g>
<!-- Node5 -->
<g id="node2" class="node"><title>Node5</title>
<g id="a_node2"><a xlink:href="classvtkvmtkNeighborhood.html" target="_top" xlink:title="Query the neighborhood surrounding the set point id in an data set item. ">
<polygon fill="white" stroke="black" points="20.2881,-55.5 20.2881,-73.5 133.002,-73.5 133.002,-55.5 20.2881,-55.5"/>
<text text-anchor="middle" x="76.645" y="-61.5" font-family="Helvetica,sans-Serif" font-size="10.00">vtkvmtkNeighborhood</text>
</a>
</g>
</g>
<!-- Node5&#45;&gt;Node4 -->
<g id="edge1" class="edge"><title>Node5&#45;&gt;Node4</title>
<path fill="none" stroke="midnightblue" d="M76.645,-45.1746C76.645,-36.0945 76.645,-25.5949 76.645,-18.5496"/>
<polygon fill="midnightblue" stroke="midnightblue" points="73.1451,-45.2187 76.645,-55.2188 80.1451,-45.2188 73.1451,-45.2187"/>
</g>
<!-- Node6 -->
<g id="node3" class="node"><title>Node6</title>
<g id="a_node3"><a xlink:href="classvtkvmtkDataSetItem.html" target="_top" xlink:title="create an item instance with a data set and particular point id. ">
<polygon fill="white" stroke="black" points="23.9111,-110.5 23.9111,-128.5 129.379,-128.5 129.379,-110.5 23.9111,-110.5"/>
<text text-anchor="middle" x="76.645" y="-116.5" font-family="Helvetica,sans-Serif" font-size="10.00">vtkvmtkDataSetItem</text>
</a>
</g>
</g>
<!-- Node6&#45;&gt;Node5 -->
<g id="edge2" class="edge"><title>Node6&#45;&gt;Node5</title>
<path fill="none" stroke="midnightblue" d="M76.645,-100.175C76.645,-91.0945 76.645,-80.5949 76.645,-73.5496"/>
<polygon fill="midnightblue" stroke="midnightblue" points="73.1451,-100.219 76.645,-110.219 80.1451,-100.219 73.1451,-100.219"/>
</g>
<!-- Node7 -->
<g id="node4" class="node"><title>Node7</title>
<g id="a_node4"><a xlink:href="classvtkvmtkItem.html" target="_top" xlink:title="Base class for the construction of neighborhoods and stencil from a set of points. ">
<polygon fill="white" stroke="black" points="41.9775,-165.5 41.9775,-183.5 111.312,-183.5 111.312,-165.5 41.9775,-165.5"/>
<text text-anchor="middle" x="76.645" y="-171.5" font-family="Helvetica,sans-Serif" font-size="10.00">vtkvmtkItem</text>
</a>
</g>
</g>
<!-- Node7&#45;&gt;Node6 -->
<g id="edge3" class="edge"><title>Node7&#45;&gt;Node6</title>
<path fill="none" stroke="midnightblue" d="M76.645,-155.175C76.645,-146.094 76.645,-135.595 76.645,-128.55"/>
<polygon fill="midnightblue" stroke="midnightblue" points="73.1451,-155.219 76.645,-165.219 80.1451,-155.219 73.1451,-155.219"/>
</g>
</g>
</svg>
