<?xml version="1.0" encoding="UTF-8" standalone="no"?>
<!DOCTYPE svg PUBLIC "-//W3C//DTD SVG 1.1//EN"
 "http://www.w3.org/Graphics/SVG/1.1/DTD/svg11.dtd">
<!-- Generated by graphviz version 2.38.0 (20140413.2041)
 -->
<!-- Title: vtkvmtkSteepestDescentShooter Pages: 1 -->
<svg width="169pt" height="147pt"
 viewBox="0.00 0.00 169.07 147.00" xmlns="http://www.w3.org/2000/svg" xmlns:xlink="http://www.w3.org/1999/xlink">
<g id="graph0" class="graph" transform="scale(1 1) rotate(0) translate(4 143)">
<title>vtkvmtkSteepestDescentShooter</title>
<polygon fill="white" stroke="none" points="-4,4 -4,-143 165.068,-143 165.068,4 -4,4"/>
<!-- Node0 -->
<g id="node1" class="node"><title>Node0</title>
<polygon fill="#bfbfbf" stroke="black" points="0,-0.5 0,-18.5 161.068,-18.5 161.068,-0.5 0,-0.5"/>
<text text-anchor="middle" x="80.5342" y="-6.5" font-family="Helvetica,sans-Serif" font-size="10.00">vtkvmtkSteepestDescentShooter</text>
</g>
<!-- Node1 -->
<g id="node2" class="node"><title>Node1</title>
<g id="a_node2"><a xlink:href="classvtkvmtkNonManifoldSteepestDescent.html" target="_top" xlink:title="Abstract class for steepest descent on a polygonal non&#45;manifold. ">
<polygon fill="white" stroke="black" points="7.7832,-55.5 7.7832,-83.5 153.285,-83.5 153.285,-55.5 7.7832,-55.5"/>
<text text-anchor="start" x="15.7832" y="-71.5" font-family="Helvetica,sans-Serif" font-size="10.00">vtkvmtkNonManifoldSteepest</text>
<text text-anchor="middle" x="80.5342" y="-61.5" font-family="Helvetica,sans-Serif" font-size="10.00">Descent</text>
</a>
</g>
</g>
<!-- Node1&#45;&gt;Node0 -->
<g id="edge1" class="edge"><title>Node1&#45;&gt;Node0</title>
<path fill="none" stroke="midnightblue" d="M80.5342,-45.323C80.5342,-35.936 80.5342,-25.7002 80.5342,-18.7715"/>
<polygon fill="midnightblue" stroke="midnightblue" points="77.0343,-45.3389 80.5342,-55.3389 84.0343,-45.3389 77.0343,-45.3389"/>
</g>
<!-- Node2 -->
<g id="node3" class="node"><title>Node2</title>
<polygon fill="white" stroke="#bfbfbf" points="24.7388,-120.5 24.7388,-138.5 136.33,-138.5 136.33,-120.5 24.7388,-120.5"/>
<text text-anchor="middle" x="80.5342" y="-126.5" font-family="Helvetica,sans-Serif" font-size="10.00">vtkPolyDataAlgorithm</text>
</g>
<!-- Node2&#45;&gt;Node1 -->
<g id="edge2" class="edge"><title>Node2&#45;&gt;Node1</title>
<path fill="none" stroke="midnightblue" d="M80.5342,-110.321C80.5342,-101.747 80.5342,-91.6999 80.5342,-83.8428"/>
<polygon fill="midnightblue" stroke="midnightblue" points="77.0343,-110.435 80.5342,-120.435 84.0343,-110.435 77.0343,-110.435"/>
</g>
</g>
</svg>
