<?xml version="1.0" encoding="UTF-8" standalone="no"?>
<!DOCTYPE svg PUBLIC "-//W3C//DTD SVG 1.1//EN"
 "http://www.w3.org/Graphics/SVG/1.1/DTD/svg11.dtd">
<!-- Generated by graphviz version 2.38.0 (20140413.2041)
 -->
<!-- Title: vtkvmtkItems Pages: 1 -->
<svg width="127pt" height="148pt"
 viewBox="0.00 0.00 126.83 148.00" xmlns="http://www.w3.org/2000/svg" xmlns:xlink="http://www.w3.org/1999/xlink">
<g id="graph0" class="graph" transform="scale(1 1) rotate(0) translate(4 144)">
<title>vtkvmtkItems</title>
<polygon fill="white" stroke="none" points="-4,4 -4,-144 122.835,-144 122.835,4 -4,4"/>
<!-- Node5 -->
<g id="node1" class="node"><title>Node5</title>
<polygon fill="#bfbfbf" stroke="black" points="0,-0.5 0,-18.5 74.335,-18.5 74.335,-0.5 0,-0.5"/>
<text text-anchor="middle" x="37.1675" y="-6.5" font-family="Helvetica,sans-Serif" font-size="10.00">vtkvmtkItems</text>
</g>
<!-- Node6 -->
<g id="node2" class="node"><title>Node6</title>
<polygon fill="white" stroke="#bfbfbf" points="14.3276,-121.5 14.3276,-139.5 72.0073,-139.5 72.0073,-121.5 14.3276,-121.5"/>
<text text-anchor="middle" x="43.1675" y="-127.5" font-family="Helvetica,sans-Serif" font-size="10.00">vtkObject</text>
</g>
<!-- Node6&#45;&gt;Node5 -->
<g id="edge1" class="edge"><title>Node6&#45;&gt;Node5</title>
<path fill="none" stroke="midnightblue" d="M41.8682,-111.378C41.2974,-103.042 40.6489,-93.0218 40.1675,-84 38.9016,-60.2796 37.8915,-32.2278 37.4338,-18.6605"/>
<polygon fill="midnightblue" stroke="midnightblue" points="38.3834,-111.719 42.5755,-121.449 45.3662,-111.228 38.3834,-111.719"/>
</g>
<!-- Node7 -->
<g id="node3" class="node"><title>Node7</title>
<g id="a_node3"><a xlink:href="classvtkvmtkItem.html" target="_top" xlink:title="Base class for the construction of neighborhoods and stencil from a set of points. ">
<polygon fill="white" stroke="black" points="49.5,-65.5 49.5,-83.5 118.835,-83.5 118.835,-65.5 49.5,-65.5"/>
<text text-anchor="middle" x="84.1675" y="-71.5" font-family="Helvetica,sans-Serif" font-size="10.00">vtkvmtkItem</text>
</a>
</g>
</g>
<!-- Node6&#45;&gt;Node7 -->
<g id="edge3" class="edge"><title>Node6&#45;&gt;Node7</title>
<path fill="none" stroke="midnightblue" d="M55.744,-112.936C63.1026,-103.244 72.071,-91.4319 77.9405,-83.7014"/>
<polygon fill="midnightblue" stroke="midnightblue" points="52.8333,-110.982 49.5737,-121.062 58.4084,-115.215 52.8333,-110.982"/>
</g>
<!-- Node7&#45;&gt;Node5 -->
<g id="edge2" class="edge"><title>Node7&#45;&gt;Node5</title>
<path fill="none" stroke="#9a32cd" stroke-dasharray="5,2" d="M71.9431,-57.1142C62.6918,-44.7134 50.3847,-28.2167 43.1648,-18.539"/>
<polygon fill="#9a32cd" stroke="#9a32cd" points="69.238,-59.3415 78.0231,-65.2639 74.8487,-55.1557 69.238,-59.3415"/>
<text text-anchor="middle" x="77.229" y="-39" font-family="Helvetica,sans-Serif" font-size="10.00"> Array</text>
</g>
</g>
</svg>
