<?xml version="1.0" encoding="UTF-8" standalone="no"?>
<!DOCTYPE svg PUBLIC "-//W3C//DTD SVG 1.1//EN"
 "http://www.w3.org/Graphics/SVG/1.1/DTD/svg11.dtd">
<!-- Generated by graphviz version 2.38.0 (20140413.2041)
 -->
<!-- Title: vtkvmtkUnstructuredGridFEVorticityAssembler Pages: 1 -->
<svg width="259pt" height="289pt"
 viewBox="0.00 0.00 258.87 289.00" xmlns="http://www.w3.org/2000/svg" xmlns:xlink="http://www.w3.org/1999/xlink">
<g id="graph0" class="graph" transform="scale(1 1) rotate(0) translate(4 285)">
<title>vtkvmtkUnstructuredGridFEVorticityAssembler</title>
<polygon fill="white" stroke="none" points="-4,4 -4,-285 254.874,-285 254.874,4 -4,4"/>
<!-- Node3 -->
<g id="node1" class="node"><title>Node3</title>
<polygon fill="#bfbfbf" stroke="black" points="0,-0.5 0,-28.5 173.817,-28.5 173.817,-0.5 0,-0.5"/>
<text text-anchor="start" x="8" y="-16.5" font-family="Helvetica,sans-Serif" font-size="10.00">vtkvmtkUnstructuredGridFEVorticity</text>
<text text-anchor="middle" x="86.9087" y="-6.5" font-family="Helvetica,sans-Serif" font-size="10.00">Assembler</text>
</g>
<!-- Node4 -->
<g id="node2" class="node"><title>Node4</title>
<g id="a_node2"><a xlink:href="classvtkvmtkFEAssembler.html" target="_top" xlink:title="Base class on which to build to build specific finite element routines. ">
<polygon fill="white" stroke="black" points="31.958,-66.5 31.958,-84.5 141.859,-84.5 141.859,-66.5 31.958,-66.5"/>
<text text-anchor="middle" x="86.9087" y="-72.5" font-family="Helvetica,sans-Serif" font-size="10.00">vtkvmtkFEAssembler</text>
</a>
</g>
</g>
<!-- Node4&#45;&gt;Node3 -->
<g id="edge1" class="edge"><title>Node4&#45;&gt;Node3</title>
<path fill="none" stroke="midnightblue" d="M86.9087,-56.1543C86.9087,-47.2359 86.9087,-36.7225 86.9087,-28.6215"/>
<polygon fill="midnightblue" stroke="midnightblue" points="83.4088,-56.2963 86.9087,-66.2963 90.4088,-56.2963 83.4088,-56.2963"/>
</g>
<!-- Node5 -->
<g id="node3" class="node"><title>Node5</title>
<polygon fill="white" stroke="#bfbfbf" points="19.0688,-262.5 19.0688,-280.5 76.7485,-280.5 76.7485,-262.5 19.0688,-262.5"/>
<text text-anchor="middle" x="47.9087" y="-268.5" font-family="Helvetica,sans-Serif" font-size="10.00">vtkObject</text>
</g>
<!-- Node5&#45;&gt;Node4 -->
<g id="edge2" class="edge"><title>Node5&#45;&gt;Node4</title>
<path fill="none" stroke="midnightblue" d="M38.7238,-253.162C25.6313,-225.934 5.15394,-172.023 23.9087,-131 33.65,-109.692 56.2909,-93.5276 71.6045,-84.5295"/>
<polygon fill="midnightblue" stroke="midnightblue" points="35.6569,-254.854 43.2828,-262.209 41.908,-251.704 35.6569,-254.854"/>
</g>
<!-- Node6 -->
<g id="node4" class="node"><title>Node6</title>
<g id="a_node4"><a xlink:href="classvtkvmtkSparseMatrix.html" target="_top" xlink:title="Class for constructing sparse matrices from a dataset and performing basic mathematical operations on...">
<polygon fill="white" stroke="black" points="32.5122,-132 32.5122,-150 141.305,-150 141.305,-132 32.5122,-132"/>
<text text-anchor="middle" x="86.9087" y="-138" font-family="Helvetica,sans-Serif" font-size="10.00">vtkvmtkSparseMatrix</text>
</a>
</g>
</g>
<!-- Node5&#45;&gt;Node6 -->
<g id="edge4" class="edge"><title>Node5&#45;&gt;Node6</title>
<path fill="none" stroke="midnightblue" d="M40.6705,-252.638C36.3958,-239.466 32.7378,-221.26 37.9087,-206 45.8129,-182.674 66.009,-161.171 77.8596,-150.01"/>
<polygon fill="midnightblue" stroke="midnightblue" points="37.4996,-254.158 44.2259,-262.344 44.0724,-251.75 37.4996,-254.158"/>
</g>
<!-- Node7 -->
<g id="node5" class="node"><title>Node7</title>
<g id="a_node5"><a xlink:href="classvtkvmtkSparseMatrixRow.html" target="_top" xlink:title="Class to handle operating on rows of a sparse matrix. ">
<polygon fill="white" stroke="black" points="46.5098,-206.5 46.5098,-224.5 175.308,-224.5 175.308,-206.5 46.5098,-206.5"/>
<text text-anchor="middle" x="110.909" y="-212.5" font-family="Helvetica,sans-Serif" font-size="10.00">vtkvmtkSparseMatrixRow</text>
</a>
</g>
</g>
<!-- Node5&#45;&gt;Node7 -->
<g id="edge6" class="edge"><title>Node5&#45;&gt;Node7</title>
<path fill="none" stroke="midnightblue" d="M65.2326,-255.651C76.8385,-245.703 91.6885,-232.974 101.25,-224.779"/>
<polygon fill="midnightblue" stroke="midnightblue" points="62.7918,-253.133 57.477,-262.299 67.3474,-258.448 62.7918,-253.133"/>
</g>
<!-- Node8 -->
<g id="node6" class="node"><title>Node8</title>
<g id="a_node6"><a xlink:href="classvtkvmtkDoubleVector.html" target="_top" xlink:title="Base class for vectors utilized in finite&#45;element and other PDE evaluations. ">
<polygon fill="white" stroke="black" points="140.943,-169.5 140.943,-187.5 250.874,-187.5 250.874,-169.5 140.943,-169.5"/>
<text text-anchor="middle" x="195.909" y="-175.5" font-family="Helvetica,sans-Serif" font-size="10.00">vtkvmtkDoubleVector</text>
</a>
</g>
</g>
<!-- Node5&#45;&gt;Node8 -->
<g id="edge8" class="edge"><title>Node5&#45;&gt;Node8</title>
<path fill="none" stroke="midnightblue" d="M87.1753,-267.317C117.671,-262.768 158.858,-251.734 183.909,-225 193.516,-214.747 195.631,-197.732 195.984,-187.67"/>
<polygon fill="midnightblue" stroke="midnightblue" points="86.3368,-263.897 76.8784,-268.671 87.2494,-270.837 86.3368,-263.897"/>
</g>
<!-- Node6&#45;&gt;Node4 -->
<g id="edge3" class="edge"><title>Node6&#45;&gt;Node4</title>
<path fill="none" stroke="#9a32cd" stroke-dasharray="5,2" d="M86.9087,-121.919C86.9087,-109.66 86.9087,-94.0389 86.9087,-84.6776"/>
<polygon fill="#9a32cd" stroke="#9a32cd" points="83.4088,-121.958 86.9087,-131.958 90.4088,-121.958 83.4088,-121.958"/>
<text text-anchor="middle" x="101.909" y="-105" font-family="Helvetica,sans-Serif" font-size="10.00"> Matrix</text>
</g>
<!-- Node7&#45;&gt;Node6 -->
<g id="edge5" class="edge"><title>Node7&#45;&gt;Node6</title>
<path fill="none" stroke="#9a32cd" stroke-dasharray="5,2" d="M105.085,-196.907C100.184,-182.103 93.3943,-161.592 89.6545,-150.295"/>
<polygon fill="#9a32cd" stroke="#9a32cd" points="101.783,-198.071 108.249,-206.464 108.429,-195.871 101.783,-198.071"/>
<text text-anchor="middle" x="113.97" y="-175.5" font-family="Helvetica,sans-Serif" font-size="10.00"> Array</text>
</g>
<!-- Node8&#45;&gt;Node4 -->
<g id="edge7" class="edge"><title>Node8&#45;&gt;Node4</title>
<path fill="none" stroke="#9a32cd" stroke-dasharray="5,2" d="M181.152,-161.648C166.428,-146.123 142.892,-122.086 120.909,-103 113.449,-96.5236 104.643,-89.6805 97.8615,-84.5707"/>
<polygon fill="#9a32cd" stroke="#9a32cd" points="178.959,-164.425 188.36,-169.311 184.058,-159.629 178.959,-164.425"/>
<text text-anchor="middle" x="203.544" y="-143" font-family="Helvetica,sans-Serif" font-size="10.00"> SolutionVector</text>
<text text-anchor="middle" x="203.544" y="-133" font-family="Helvetica,sans-Serif" font-size="10.00">RHSVector</text>
</g>
</g>
</svg>
