<?xml version="1.0" encoding="UTF-8" standalone="no"?>
<!DOCTYPE svg PUBLIC "-//W3C//DTD SVG 1.1//EN"
 "http://www.w3.org/Graphics/SVG/1.1/DTD/svg11.dtd">
<!-- Generated by graphviz version 2.38.0 (20140413.2041)
 -->
<!-- Title: vtkvmtkDirichletBoundaryConditions Pages: 1 -->
<svg width="349pt" height="354pt"
 viewBox="0.00 0.00 348.94 354.00" xmlns="http://www.w3.org/2000/svg" xmlns:xlink="http://www.w3.org/1999/xlink">
<g id="graph0" class="graph" transform="scale(1 1) rotate(0) translate(4 350)">
<title>vtkvmtkDirichletBoundaryConditions</title>
<polygon fill="white" stroke="none" points="-4,4 -4,-350 344.938,-350 344.938,4 -4,4"/>
<!-- Node3 -->
<g id="node1" class="node"><title>Node3</title>
<polygon fill="#bfbfbf" stroke="black" points="5.56641,-0.5 5.56641,-28.5 134.379,-28.5 134.379,-0.5 5.56641,-0.5"/>
<text text-anchor="start" x="13.5664" y="-16.5" font-family="Helvetica,sans-Serif" font-size="10.00">vtkvmtkDirichletBoundary</text>
<text text-anchor="middle" x="69.9727" y="-6.5" font-family="Helvetica,sans-Serif" font-size="10.00">Conditions</text>
</g>
<!-- Node4 -->
<g id="node2" class="node"><title>Node4</title>
<g id="a_node2"><a xlink:href="classvtkvmtkBoundaryConditions.html" target="_top" xlink:title="Base class to store nodes, value, and linear system composing a boundary condition. ">
<polygon fill="white" stroke="black" points="0,-66.5 0,-84.5 139.945,-84.5 139.945,-66.5 0,-66.5"/>
<text text-anchor="middle" x="69.9727" y="-72.5" font-family="Helvetica,sans-Serif" font-size="10.00">vtkvmtkBoundaryConditions</text>
</a>
</g>
</g>
<!-- Node4&#45;&gt;Node3 -->
<g id="edge1" class="edge"><title>Node4&#45;&gt;Node3</title>
<path fill="none" stroke="midnightblue" d="M69.9727,-56.1543C69.9727,-47.2359 69.9727,-36.7225 69.9727,-28.6215"/>
<polygon fill="midnightblue" stroke="midnightblue" points="66.4728,-56.2963 69.9727,-66.2963 73.4728,-56.2963 66.4728,-56.2963"/>
</g>
<!-- Node5 -->
<g id="node3" class="node"><title>Node5</title>
<polygon fill="white" stroke="#bfbfbf" points="86.1328,-327.5 86.1328,-345.5 143.812,-345.5 143.812,-327.5 86.1328,-327.5"/>
<text text-anchor="middle" x="114.973" y="-333.5" font-family="Helvetica,sans-Serif" font-size="10.00">vtkObject</text>
</g>
<!-- Node5&#45;&gt;Node4 -->
<g id="edge2" class="edge"><title>Node5&#45;&gt;Node4</title>
<path fill="none" stroke="midnightblue" d="M76.3534,-323.765C57.5621,-315.424 38.9727,-301.993 38.9727,-281.5 38.9727,-281.5 38.9727,-281.5 38.9727,-139.5 38.9727,-118.046 53.625,-96.3137 62.7827,-84.8264"/>
<polygon fill="midnightblue" stroke="midnightblue" points="75.2226,-327.083 85.8064,-327.567 77.8345,-320.589 75.2226,-327.083"/>
</g>
<!-- Node6 -->
<g id="node4" class="node"><title>Node6</title>
<g id="a_node4"><a xlink:href="classvtkvmtkLinearSystem.html" target="_top" xlink:title="Base container to hold sparse matrice objects representing a linear system of equations Ax = B...">
<polygon fill="white" stroke="black" points="76.4604,-131.5 76.4604,-149.5 187.485,-149.5 187.485,-131.5 76.4604,-131.5"/>
<text text-anchor="middle" x="131.973" y="-137.5" font-family="Helvetica,sans-Serif" font-size="10.00">vtkvmtkLinearSystem</text>
</a>
</g>
</g>
<!-- Node5&#45;&gt;Node6 -->
<g id="edge4" class="edge"><title>Node5&#45;&gt;Node6</title>
<path fill="none" stroke="midnightblue" d="M107.908,-317.92C98.1645,-291.1 83.1767,-238.588 95.9727,-196 101.52,-177.538 115.575,-159.562 124.392,-149.569"/>
<polygon fill="midnightblue" stroke="midnightblue" points="104.711,-319.359 111.551,-327.45 111.25,-316.859 104.711,-319.359"/>
</g>
<!-- Node7 -->
<g id="node5" class="node"><title>Node7</title>
<g id="a_node5"><a xlink:href="classvtkvmtkSparseMatrix.html" target="_top" xlink:title="Class for constructing sparse matrices from a dataset and performing basic mathematical operations on...">
<polygon fill="white" stroke="black" points="104.576,-197 104.576,-215 213.369,-215 213.369,-197 104.576,-197"/>
<text text-anchor="middle" x="158.973" y="-203" font-family="Helvetica,sans-Serif" font-size="10.00">vtkvmtkSparseMatrix</text>
</a>
</g>
</g>
<!-- Node5&#45;&gt;Node7 -->
<g id="edge6" class="edge"><title>Node5&#45;&gt;Node7</title>
<path fill="none" stroke="midnightblue" d="M119.825,-317.51C123.442,-304.5 128.657,-286.549 133.973,-271 140.919,-250.683 150.457,-227.296 155.507,-215.201"/>
<polygon fill="midnightblue" stroke="midnightblue" points="116.358,-316.918 117.095,-327.487 123.11,-318.765 116.358,-316.918"/>
</g>
<!-- Node8 -->
<g id="node6" class="node"><title>Node8</title>
<g id="a_node6"><a xlink:href="classvtkvmtkSparseMatrixRow.html" target="_top" xlink:title="Class to handle operating on rows of a sparse matrix. ">
<polygon fill="white" stroke="black" points="142.574,-271.5 142.574,-289.5 271.372,-289.5 271.372,-271.5 142.574,-271.5"/>
<text text-anchor="middle" x="206.973" y="-277.5" font-family="Helvetica,sans-Serif" font-size="10.00">vtkvmtkSparseMatrixRow</text>
</a>
</g>
</g>
<!-- Node5&#45;&gt;Node8 -->
<g id="edge8" class="edge"><title>Node5&#45;&gt;Node8</title>
<path fill="none" stroke="midnightblue" d="M137.894,-322.046C155.265,-311.85 178.562,-298.176 193.17,-289.602"/>
<polygon fill="midnightblue" stroke="midnightblue" points="135.798,-319.218 128.945,-327.299 139.341,-325.255 135.798,-319.218"/>
</g>
<!-- Node9 -->
<g id="node7" class="node"><title>Node9</title>
<g id="a_node7"><a xlink:href="classvtkvmtkDoubleVector.html" target="_top" xlink:title="Base class for vectors utilized in finite&#45;element and other PDE evaluations. ">
<polygon fill="white" stroke="black" points="231.007,-234.5 231.007,-252.5 340.938,-252.5 340.938,-234.5 231.007,-234.5"/>
<text text-anchor="middle" x="285.973" y="-240.5" font-family="Helvetica,sans-Serif" font-size="10.00">vtkvmtkDoubleVector</text>
</a>
</g>
</g>
<!-- Node5&#45;&gt;Node9 -->
<g id="edge10" class="edge"><title>Node5&#45;&gt;Node9</title>
<path fill="none" stroke="midnightblue" d="M153.868,-329.803C197.257,-322.617 263.533,-308.88 279.973,-290 288.972,-279.665 288.587,-262.678 287.365,-252.643"/>
<polygon fill="midnightblue" stroke="midnightblue" points="153.229,-326.361 143.912,-331.404 154.341,-333.272 153.229,-326.361"/>
</g>
<!-- Node6&#45;&gt;Node4 -->
<g id="edge3" class="edge"><title>Node6&#45;&gt;Node4</title>
<path fill="none" stroke="#9a32cd" stroke-dasharray="5,2" d="M116.553,-123.832C104.276,-111.357 87.5931,-94.4046 77.884,-84.539"/>
<polygon fill="#9a32cd" stroke="#9a32cd" points="114.358,-126.591 123.867,-131.264 119.348,-121.681 114.358,-126.591"/>
<text text-anchor="middle" x="136.931" y="-105" font-family="Helvetica,sans-Serif" font-size="10.00"> LinearSystem</text>
</g>
<!-- Node7&#45;&gt;Node6 -->
<g id="edge5" class="edge"><title>Node7&#45;&gt;Node6</title>
<path fill="none" stroke="#9a32cd" stroke-dasharray="5,2" d="M151.602,-187.666C146.344,-175.3 139.511,-159.23 135.45,-149.678"/>
<polygon fill="#9a32cd" stroke="#9a32cd" points="148.419,-189.125 155.553,-196.958 154.861,-186.385 148.419,-189.125"/>
<text text-anchor="middle" x="152.423" y="-170" font-family="Helvetica,sans-Serif" font-size="10.00"> A</text>
</g>
<!-- Node8&#45;&gt;Node7 -->
<g id="edge7" class="edge"><title>Node8&#45;&gt;Node7</title>
<path fill="none" stroke="#9a32cd" stroke-dasharray="5,2" d="M195.891,-262.762C186.053,-247.903 172.089,-226.811 164.464,-215.295"/>
<polygon fill="#9a32cd" stroke="#9a32cd" points="193.214,-265.058 201.652,-271.464 199.05,-261.194 193.214,-265.058"/>
<text text-anchor="middle" x="202.034" y="-240.5" font-family="Helvetica,sans-Serif" font-size="10.00"> Array</text>
</g>
<!-- Node9&#45;&gt;Node6 -->
<g id="edge9" class="edge"><title>Node9&#45;&gt;Node6</title>
<path fill="none" stroke="#9a32cd" stroke-dasharray="5,2" d="M266.998,-228.071C254.417,-218.665 237.438,-206.275 221.973,-196 195.803,-178.614 164.172,-159.988 146.231,-149.637"/>
<polygon fill="#9a32cd" stroke="#9a32cd" points="265.203,-231.101 275.297,-234.32 269.414,-225.509 265.203,-231.101"/>
<text text-anchor="middle" x="254.697" y="-208" font-family="Helvetica,sans-Serif" font-size="10.00"> X</text>
<text text-anchor="middle" x="254.697" y="-198" font-family="Helvetica,sans-Serif" font-size="10.00">B</text>
</g>
</g>
</svg>
