<?xml version="1.0" encoding="UTF-8" standalone="no"?>
<!DOCTYPE svg PUBLIC "-//W3C//DTD SVG 1.1//EN"
 "http://www.w3.org/Graphics/SVG/1.1/DTD/svg11.dtd">
<!-- Generated by graphviz version 2.38.0 (20140413.2041)
 -->
<!-- Title: vtkvmtkBoundaryConditions Pages: 1 -->
<svg width="349pt" height="288pt"
 viewBox="0.00 0.00 348.94 288.00" xmlns="http://www.w3.org/2000/svg" xmlns:xlink="http://www.w3.org/1999/xlink">
<g id="graph0" class="graph" transform="scale(1 1) rotate(0) translate(4 284)">
<title>vtkvmtkBoundaryConditions</title>
<polygon fill="white" stroke="none" points="-4,4 -4,-284 344.938,-284 344.938,4 -4,4"/>
<!-- Node3 -->
<g id="node1" class="node"><title>Node3</title>
<polygon fill="#bfbfbf" stroke="black" points="0,-0.5 0,-18.5 139.945,-18.5 139.945,-0.5 0,-0.5"/>
<text text-anchor="middle" x="69.9727" y="-6.5" font-family="Helvetica,sans-Serif" font-size="10.00">vtkvmtkBoundaryConditions</text>
</g>
<!-- Node4 -->
<g id="node2" class="node"><title>Node4</title>
<polygon fill="white" stroke="#bfbfbf" points="86.1328,-261.5 86.1328,-279.5 143.812,-279.5 143.812,-261.5 86.1328,-261.5"/>
<text text-anchor="middle" x="114.973" y="-267.5" font-family="Helvetica,sans-Serif" font-size="10.00">vtkObject</text>
</g>
<!-- Node4&#45;&gt;Node3 -->
<g id="edge1" class="edge"><title>Node4&#45;&gt;Node3</title>
<path fill="none" stroke="midnightblue" d="M76.3534,-257.765C57.5621,-249.424 38.9727,-235.993 38.9727,-215.5 38.9727,-215.5 38.9727,-215.5 38.9727,-73.5 38.9727,-52.0457 53.625,-30.3137 62.7827,-18.8264"/>
<polygon fill="midnightblue" stroke="midnightblue" points="75.2226,-261.083 85.8064,-261.567 77.8345,-254.589 75.2226,-261.083"/>
</g>
<!-- Node5 -->
<g id="node3" class="node"><title>Node5</title>
<g id="a_node3"><a xlink:href="classvtkvmtkLinearSystem.html" target="_top" xlink:title="Base container to hold sparse matrice objects representing a linear system of equations Ax = B...">
<polygon fill="white" stroke="black" points="76.4604,-65.5 76.4604,-83.5 187.485,-83.5 187.485,-65.5 76.4604,-65.5"/>
<text text-anchor="middle" x="131.973" y="-71.5" font-family="Helvetica,sans-Serif" font-size="10.00">vtkvmtkLinearSystem</text>
</a>
</g>
</g>
<!-- Node4&#45;&gt;Node5 -->
<g id="edge3" class="edge"><title>Node4&#45;&gt;Node5</title>
<path fill="none" stroke="midnightblue" d="M107.908,-251.92C98.1645,-225.1 83.1767,-172.588 95.9727,-130 101.52,-111.538 115.575,-93.5624 124.392,-83.5687"/>
<polygon fill="midnightblue" stroke="midnightblue" points="104.711,-253.359 111.551,-261.45 111.25,-250.859 104.711,-253.359"/>
</g>
<!-- Node6 -->
<g id="node4" class="node"><title>Node6</title>
<g id="a_node4"><a xlink:href="classvtkvmtkSparseMatrix.html" target="_top" xlink:title="Class for constructing sparse matrices from a dataset and performing basic mathematical operations on...">
<polygon fill="white" stroke="black" points="104.576,-131 104.576,-149 213.369,-149 213.369,-131 104.576,-131"/>
<text text-anchor="middle" x="158.973" y="-137" font-family="Helvetica,sans-Serif" font-size="10.00">vtkvmtkSparseMatrix</text>
</a>
</g>
</g>
<!-- Node4&#45;&gt;Node6 -->
<g id="edge5" class="edge"><title>Node4&#45;&gt;Node6</title>
<path fill="none" stroke="midnightblue" d="M119.825,-251.51C123.442,-238.5 128.657,-220.549 133.973,-205 140.919,-184.683 150.457,-161.296 155.507,-149.201"/>
<polygon fill="midnightblue" stroke="midnightblue" points="116.358,-250.918 117.095,-261.487 123.11,-252.765 116.358,-250.918"/>
</g>
<!-- Node7 -->
<g id="node5" class="node"><title>Node7</title>
<g id="a_node5"><a xlink:href="classvtkvmtkSparseMatrixRow.html" target="_top" xlink:title="Class to handle operating on rows of a sparse matrix. ">
<polygon fill="white" stroke="black" points="142.574,-205.5 142.574,-223.5 271.372,-223.5 271.372,-205.5 142.574,-205.5"/>
<text text-anchor="middle" x="206.973" y="-211.5" font-family="Helvetica,sans-Serif" font-size="10.00">vtkvmtkSparseMatrixRow</text>
</a>
</g>
</g>
<!-- Node4&#45;&gt;Node7 -->
<g id="edge7" class="edge"><title>Node4&#45;&gt;Node7</title>
<path fill="none" stroke="midnightblue" d="M137.894,-256.046C155.265,-245.85 178.562,-232.176 193.17,-223.602"/>
<polygon fill="midnightblue" stroke="midnightblue" points="135.798,-253.218 128.945,-261.299 139.341,-259.255 135.798,-253.218"/>
</g>
<!-- Node8 -->
<g id="node6" class="node"><title>Node8</title>
<g id="a_node6"><a xlink:href="classvtkvmtkDoubleVector.html" target="_top" xlink:title="Base class for vectors utilized in finite&#45;element and other PDE evaluations. ">
<polygon fill="white" stroke="black" points="231.007,-168.5 231.007,-186.5 340.938,-186.5 340.938,-168.5 231.007,-168.5"/>
<text text-anchor="middle" x="285.973" y="-174.5" font-family="Helvetica,sans-Serif" font-size="10.00">vtkvmtkDoubleVector</text>
</a>
</g>
</g>
<!-- Node4&#45;&gt;Node8 -->
<g id="edge9" class="edge"><title>Node4&#45;&gt;Node8</title>
<path fill="none" stroke="midnightblue" d="M153.868,-263.803C197.257,-256.617 263.533,-242.88 279.973,-224 288.972,-213.665 288.587,-196.678 287.365,-186.643"/>
<polygon fill="midnightblue" stroke="midnightblue" points="153.229,-260.361 143.912,-265.404 154.341,-267.272 153.229,-260.361"/>
</g>
<!-- Node5&#45;&gt;Node3 -->
<g id="edge2" class="edge"><title>Node5&#45;&gt;Node3</title>
<path fill="none" stroke="#9a32cd" stroke-dasharray="5,2" d="M116.553,-57.8318C104.276,-45.3566 87.5931,-28.4046 77.884,-18.539"/>
<polygon fill="#9a32cd" stroke="#9a32cd" points="114.358,-60.5914 123.867,-65.2639 119.348,-55.6814 114.358,-60.5914"/>
<text text-anchor="middle" x="136.931" y="-39" font-family="Helvetica,sans-Serif" font-size="10.00"> LinearSystem</text>
</g>
<!-- Node6&#45;&gt;Node5 -->
<g id="edge4" class="edge"><title>Node6&#45;&gt;Node5</title>
<path fill="none" stroke="#9a32cd" stroke-dasharray="5,2" d="M151.602,-121.666C146.344,-109.3 139.511,-93.23 135.45,-83.6776"/>
<polygon fill="#9a32cd" stroke="#9a32cd" points="148.419,-123.125 155.553,-130.958 154.861,-120.385 148.419,-123.125"/>
<text text-anchor="middle" x="152.423" y="-104" font-family="Helvetica,sans-Serif" font-size="10.00"> A</text>
</g>
<!-- Node7&#45;&gt;Node6 -->
<g id="edge6" class="edge"><title>Node7&#45;&gt;Node6</title>
<path fill="none" stroke="#9a32cd" stroke-dasharray="5,2" d="M195.891,-196.762C186.053,-181.903 172.089,-160.811 164.464,-149.295"/>
<polygon fill="#9a32cd" stroke="#9a32cd" points="193.214,-199.058 201.652,-205.464 199.05,-195.194 193.214,-199.058"/>
<text text-anchor="middle" x="202.034" y="-174.5" font-family="Helvetica,sans-Serif" font-size="10.00"> Array</text>
</g>
<!-- Node8&#45;&gt;Node5 -->
<g id="edge8" class="edge"><title>Node8&#45;&gt;Node5</title>
<path fill="none" stroke="#9a32cd" stroke-dasharray="5,2" d="M266.998,-162.071C254.417,-152.665 237.438,-140.275 221.973,-130 195.803,-112.614 164.172,-93.9881 146.231,-83.6369"/>
<polygon fill="#9a32cd" stroke="#9a32cd" points="265.203,-165.101 275.297,-168.32 269.414,-159.509 265.203,-165.101"/>
<text text-anchor="middle" x="254.697" y="-142" font-family="Helvetica,sans-Serif" font-size="10.00"> X</text>
<text text-anchor="middle" x="254.697" y="-132" font-family="Helvetica,sans-Serif" font-size="10.00">B</text>
</g>
</g>
</svg>
