<?xml version="1.0" encoding="UTF-8" standalone="no"?>
<!DOCTYPE svg PUBLIC "-//W3C//DTD SVG 1.1//EN"
 "http://www.w3.org/Graphics/SVG/1.1/DTD/svg11.dtd">
<!-- Generated by graphviz version 2.38.0 (20140413.2041)
 -->
<!-- Title: vtkvmtkNeighborhoods Pages: 1 -->
<svg width="126pt" height="192pt"
 viewBox="0.00 0.00 125.71 192.00" xmlns="http://www.w3.org/2000/svg" xmlns:xlink="http://www.w3.org/1999/xlink">
<g id="graph0" class="graph" transform="scale(1 1) rotate(0) translate(4 188)">
<title>vtkvmtkNeighborhoods</title>
<polygon fill="white" stroke="none" points="-4,4 -4,-188 121.714,-188 121.714,4 -4,4"/>
<!-- Node0 -->
<g id="node1" class="node"><title>Node0</title>
<polygon fill="#bfbfbf" stroke="black" points="0,-0.5 0,-18.5 117.714,-18.5 117.714,-0.5 0,-0.5"/>
<text text-anchor="middle" x="58.8569" y="-6.5" font-family="Helvetica,sans-Serif" font-size="10.00">vtkvmtkNeighborhoods</text>
</g>
<!-- Node1 -->
<g id="node2" class="node"><title>Node1</title>
<g id="a_node2"><a xlink:href="classvtkvmtkDataSetItems.html" target="_top" xlink:title="Create a collection of data set items, one for every point within the data set. ">
<polygon fill="white" stroke="black" points="3.62305,-55.5 3.62305,-73.5 114.091,-73.5 114.091,-55.5 3.62305,-55.5"/>
<text text-anchor="middle" x="58.8569" y="-61.5" font-family="Helvetica,sans-Serif" font-size="10.00">vtkvmtkDataSetItems</text>
</a>
</g>
</g>
<!-- Node1&#45;&gt;Node0 -->
<g id="edge1" class="edge"><title>Node1&#45;&gt;Node0</title>
<path fill="none" stroke="midnightblue" d="M58.8569,-45.1746C58.8569,-36.0945 58.8569,-25.5949 58.8569,-18.5496"/>
<polygon fill="midnightblue" stroke="midnightblue" points="55.357,-45.2187 58.8569,-55.2188 62.357,-45.2188 55.357,-45.2187"/>
</g>
<!-- Node2 -->
<g id="node3" class="node"><title>Node2</title>
<g id="a_node3"><a xlink:href="classvtkvmtkItems.html" target="_top" xlink:title="Control allocation and memory footprint of item instances. ">
<polygon fill="white" stroke="black" points="21.6895,-110.5 21.6895,-128.5 96.0244,-128.5 96.0244,-110.5 21.6895,-110.5"/>
<text text-anchor="middle" x="58.8569" y="-116.5" font-family="Helvetica,sans-Serif" font-size="10.00">vtkvmtkItems</text>
</a>
</g>
</g>
<!-- Node2&#45;&gt;Node1 -->
<g id="edge2" class="edge"><title>Node2&#45;&gt;Node1</title>
<path fill="none" stroke="midnightblue" d="M58.8569,-100.175C58.8569,-91.0945 58.8569,-80.5949 58.8569,-73.5496"/>
<polygon fill="midnightblue" stroke="midnightblue" points="55.357,-100.219 58.8569,-110.219 62.357,-100.219 55.357,-100.219"/>
</g>
<!-- Node3 -->
<g id="node4" class="node"><title>Node3</title>
<polygon fill="white" stroke="#bfbfbf" points="30.0171,-165.5 30.0171,-183.5 87.6968,-183.5 87.6968,-165.5 30.0171,-165.5"/>
<text text-anchor="middle" x="58.8569" y="-171.5" font-family="Helvetica,sans-Serif" font-size="10.00">vtkObject</text>
</g>
<!-- Node3&#45;&gt;Node2 -->
<g id="edge3" class="edge"><title>Node3&#45;&gt;Node2</title>
<path fill="none" stroke="midnightblue" d="M58.8569,-155.175C58.8569,-146.094 58.8569,-135.595 58.8569,-128.55"/>
<polygon fill="midnightblue" stroke="midnightblue" points="55.357,-155.219 58.8569,-165.219 62.357,-155.219 55.357,-155.219"/>
</g>
</g>
</svg>
