<?xml version="1.0" encoding="UTF-8" standalone="no"?>
<!DOCTYPE svg PUBLIC "-//W3C//DTD SVG 1.1//EN"
 "http://www.w3.org/Graphics/SVG/1.1/DTD/svg11.dtd">
<!-- Generated by graphviz version 2.38.0 (20140413.2041)
 -->
<!-- Title: vtkvmtkPolyDataManifoldStencil Pages: 1 -->
<svg width="1063pt" height="158pt"
 viewBox="0.00 0.00 1062.91 158.00" xmlns="http://www.w3.org/2000/svg" xmlns:xlink="http://www.w3.org/1999/xlink">
<g id="graph0" class="graph" transform="scale(1 1) rotate(0) translate(4 154)">
<title>vtkvmtkPolyDataManifoldStencil</title>
<polygon fill="white" stroke="none" points="-4,4 -4,-154 1058.91,-154 1058.91,4 -4,4"/>
<!-- Node0 -->
<g id="node1" class="node"><title>Node0</title>
<polygon fill="#bfbfbf" stroke="black" points="511.418,-63.5 511.418,-81.5 669.693,-81.5 669.693,-63.5 511.418,-63.5"/>
<text text-anchor="middle" x="590.556" y="-69.5" font-family="Helvetica,sans-Serif" font-size="10.00">vtkvmtkPolyDataManifoldStencil</text>
</g>
<!-- Node5 -->
<g id="node6" class="node"><title>Node5</title>
<g id="a_node6"><a xlink:href="classvtkvmtkPolyDataAreaWeightedUmbrellaStencil.html" target="_top" xlink:title="Apply umbrella (laplacian) weighting to the neighborhood connections of a surface. ">
<polygon fill="white" stroke="black" points="709.949,-121.5 709.949,-149.5 863.605,-149.5 863.605,-121.5 709.949,-121.5"/>
<text text-anchor="start" x="717.949" y="-137.5" font-family="Helvetica,sans-Serif" font-size="10.00">vtkvmtkPolyDataAreaWeighted</text>
<text text-anchor="middle" x="786.777" y="-127.5" font-family="Helvetica,sans-Serif" font-size="10.00">UmbrellaStencil</text>
</a>
</g>
</g>
<!-- Node0&#45;&gt;Node5 -->
<g id="edge5" class="edge"><title>Node0&#45;&gt;Node5</title>
<path fill="none" stroke="midnightblue" d="M625.836,-85.0914C648.412,-93.2404 678.68,-103.895 705.693,-112.5 715.204,-115.529 725.405,-118.597 735.234,-121.461"/>
<polygon fill="midnightblue" stroke="midnightblue" points="626.949,-81.7719 616.355,-81.6531 624.562,-88.3526 626.949,-81.7719"/>
</g>
<!-- Node6 -->
<g id="node7" class="node"><title>Node6</title>
<g id="a_node7"><a xlink:href="classvtkvmtkPolyDataGradientStencil.html" target="_top" xlink:title="Apply gradient weighting to the neighborhood connections of a surface. ">
<polygon fill="white" stroke="black" points="707.361,-84.5 707.361,-102.5 866.193,-102.5 866.193,-84.5 707.361,-84.5"/>
<text text-anchor="middle" x="786.777" y="-90.5" font-family="Helvetica,sans-Serif" font-size="10.00">vtkvmtkPolyDataGradientStencil</text>
</a>
</g>
</g>
<!-- Node0&#45;&gt;Node6 -->
<g id="edge6" class="edge"><title>Node0&#45;&gt;Node6</title>
<path fill="none" stroke="midnightblue" d="M679.908,-82.053C688.992,-83.0352 698.178,-84.0285 707.147,-84.9982"/>
<polygon fill="midnightblue" stroke="midnightblue" points="680.032,-78.5461 669.713,-80.9507 679.279,-85.5055 680.032,-78.5461"/>
</g>
<!-- Node7 -->
<g id="node8" class="node"><title>Node7</title>
<g id="a_node8"><a xlink:href="classvtkvmtkPolyDataLaplaceBeltramiStencil.html" target="_top" xlink:title="Apply LB weighting to the neighborhood connections of a surface. ">
<polygon fill="white" stroke="black" points="705.693,-37.5 705.693,-65.5 867.86,-65.5 867.86,-37.5 705.693,-37.5"/>
<text text-anchor="start" x="713.693" y="-53.5" font-family="Helvetica,sans-Serif" font-size="10.00">vtkvmtkPolyDataLaplaceBeltrami</text>
<text text-anchor="middle" x="786.777" y="-43.5" font-family="Helvetica,sans-Serif" font-size="10.00">Stencil</text>
</a>
</g>
</g>
<!-- Node0&#45;&gt;Node7 -->
<g id="edge7" class="edge"><title>Node0&#45;&gt;Node7</title>
<path fill="none" stroke="midnightblue" d="M679.75,-62.964C688.351,-62.0341 697.046,-61.094 705.562,-60.1732"/>
<polygon fill="midnightblue" stroke="midnightblue" points="679.279,-59.4945 669.713,-64.0493 680.032,-66.4539 679.279,-59.4945"/>
</g>
<!-- Node10 -->
<g id="node11" class="node"><title>Node10</title>
<g id="a_node11"><a xlink:href="classvtkvmtkPolyDataUmbrellaStencil.html" target="_top" xlink:title="Weight the neighborhood connections of a surface mesh with a laplacian. ">
<polygon fill="white" stroke="black" points="706.533,-0.5 706.533,-18.5 867.021,-18.5 867.021,-0.5 706.533,-0.5"/>
<text text-anchor="middle" x="786.777" y="-6.5" font-family="Helvetica,sans-Serif" font-size="10.00">vtkvmtkPolyDataUmbrellaStencil</text>
</a>
</g>
</g>
<!-- Node0&#45;&gt;Node10 -->
<g id="edge10" class="edge"><title>Node0&#45;&gt;Node10</title>
<path fill="none" stroke="midnightblue" d="M621.273,-59.3186C644.048,-49.5773 676.431,-36.4981 705.693,-27.5 716.59,-24.1493 728.497,-21.135 739.719,-18.574"/>
<polygon fill="midnightblue" stroke="midnightblue" points="619.624,-56.2183 611.835,-63.3998 622.403,-62.6434 619.624,-56.2183"/>
</g>
<!-- Node1 -->
<g id="node2" class="node"><title>Node1</title>
<g id="a_node2"><a xlink:href="classvtkvmtkStencil.html" target="_top" xlink:title="Apply a weighting matrix to a single neighborhood of a data set. ">
<polygon fill="white" stroke="black" points="395.517,-63.5 395.517,-81.5 475.418,-81.5 475.418,-63.5 395.517,-63.5"/>
<text text-anchor="middle" x="435.467" y="-69.5" font-family="Helvetica,sans-Serif" font-size="10.00">vtkvmtkStencil</text>
</a>
</g>
</g>
<!-- Node1&#45;&gt;Node0 -->
<g id="edge1" class="edge"><title>Node1&#45;&gt;Node0</title>
<path fill="none" stroke="midnightblue" d="M485.605,-72.5C493.82,-72.5 502.519,-72.5 511.249,-72.5"/>
<polygon fill="midnightblue" stroke="midnightblue" points="485.494,-69.0001 475.494,-72.5 485.494,-76.0001 485.494,-69.0001"/>
</g>
<!-- Node2 -->
<g id="node3" class="node"><title>Node2</title>
<g id="a_node3"><a xlink:href="classvtkvmtkNeighborhood.html" target="_top" xlink:title="Query the neighborhood surrounding the set point id in an data set item. ">
<polygon fill="white" stroke="black" points="246.803,-63.5 246.803,-81.5 359.517,-81.5 359.517,-63.5 246.803,-63.5"/>
<text text-anchor="middle" x="303.16" y="-69.5" font-family="Helvetica,sans-Serif" font-size="10.00">vtkvmtkNeighborhood</text>
</a>
</g>
</g>
<!-- Node2&#45;&gt;Node1 -->
<g id="edge2" class="edge"><title>Node2&#45;&gt;Node1</title>
<path fill="none" stroke="midnightblue" d="M369.905,-72.5C378.539,-72.5 387.159,-72.5 395.158,-72.5"/>
<polygon fill="midnightblue" stroke="midnightblue" points="369.8,-69.0001 359.8,-72.5 369.8,-76.0001 369.8,-69.0001"/>
</g>
<!-- Node3 -->
<g id="node4" class="node"><title>Node3</title>
<g id="a_node4"><a xlink:href="classvtkvmtkDataSetItem.html" target="_top" xlink:title="create an item instance with a data set and particular point id. ">
<polygon fill="white" stroke="black" points="105.335,-63.5 105.335,-81.5 210.803,-81.5 210.803,-63.5 105.335,-63.5"/>
<text text-anchor="middle" x="158.069" y="-69.5" font-family="Helvetica,sans-Serif" font-size="10.00">vtkvmtkDataSetItem</text>
</a>
</g>
</g>
<!-- Node3&#45;&gt;Node2 -->
<g id="edge3" class="edge"><title>Node3&#45;&gt;Node2</title>
<path fill="none" stroke="midnightblue" d="M221.262,-72.5C229.663,-72.5 238.24,-72.5 246.517,-72.5"/>
<polygon fill="midnightblue" stroke="midnightblue" points="221.133,-69.0001 211.133,-72.5 221.133,-76.0001 221.133,-69.0001"/>
</g>
<!-- Node4 -->
<g id="node5" class="node"><title>Node4</title>
<g id="a_node5"><a xlink:href="classvtkvmtkItem.html" target="_top" xlink:title="Base class for the construction of neighborhoods and stencil from a set of points. ">
<polygon fill="white" stroke="black" points="0,-63.5 0,-81.5 69.335,-81.5 69.335,-63.5 0,-63.5"/>
<text text-anchor="middle" x="34.6675" y="-69.5" font-family="Helvetica,sans-Serif" font-size="10.00">vtkvmtkItem</text>
</a>
</g>
</g>
<!-- Node4&#45;&gt;Node3 -->
<g id="edge4" class="edge"><title>Node4&#45;&gt;Node3</title>
<path fill="none" stroke="midnightblue" d="M79.7018,-72.5C87.9992,-72.5 96.7469,-72.5 105.256,-72.5"/>
<polygon fill="midnightblue" stroke="midnightblue" points="79.4846,-69.0001 69.4845,-72.5 79.4845,-76.0001 79.4846,-69.0001"/>
</g>
<!-- Node8 -->
<g id="node9" class="node"><title>Node8</title>
<g id="a_node9"><a xlink:href="classvtkvmtkPolyDataFELaplaceBeltramiStencil.html" target="_top" xlink:title="Apply finite&#45;element LB weighting to the neighborhood connections of a surface. ">
<polygon fill="white" stroke="black" points="910.25,-60.5 910.25,-88.5 1048.52,-88.5 1048.52,-60.5 910.25,-60.5"/>
<text text-anchor="start" x="918.25" y="-76.5" font-family="Helvetica,sans-Serif" font-size="10.00">vtkvmtkPolyDataFELaplace</text>
<text text-anchor="middle" x="979.385" y="-66.5" font-family="Helvetica,sans-Serif" font-size="10.00">BeltramiStencil</text>
</a>
</g>
</g>
<!-- Node7&#45;&gt;Node8 -->
<g id="edge8" class="edge"><title>Node7&#45;&gt;Node8</title>
<path fill="none" stroke="midnightblue" d="M878.246,-62.4167C888.916,-63.7041 899.666,-65.0013 909.961,-66.2436"/>
<polygon fill="midnightblue" stroke="midnightblue" points="878.407,-58.9107 868.059,-61.1874 877.568,-65.8603 878.407,-58.9107"/>
</g>
<!-- Node9 -->
<g id="node10" class="node"><title>Node9</title>
<g id="a_node10"><a xlink:href="classvtkvmtkPolyDataFVFELaplaceBeltramiStencil.html" target="_top" xlink:title="Apply finite&#45;volume, finite&#45;element LB weighting to the neighborhood connections of a surface...">
<polygon fill="white" stroke="black" points="903.86,-13.5 903.86,-41.5 1054.91,-41.5 1054.91,-13.5 903.86,-13.5"/>
<text text-anchor="start" x="911.86" y="-29.5" font-family="Helvetica,sans-Serif" font-size="10.00">vtkvmtkPolyDataFVFELaplace</text>
<text text-anchor="middle" x="979.385" y="-19.5" font-family="Helvetica,sans-Serif" font-size="10.00">BeltramiStencil</text>
</a>
</g>
</g>
<!-- Node7&#45;&gt;Node9 -->
<g id="edge9" class="edge"><title>Node7&#45;&gt;Node9</title>
<path fill="none" stroke="midnightblue" d="M878.075,-40.1302C886.643,-39.0515 895.265,-37.9659 903.663,-36.9085"/>
<polygon fill="midnightblue" stroke="midnightblue" points="877.544,-36.6695 868.059,-41.3914 878.418,-43.6146 877.544,-36.6695"/>
</g>
</g>
</svg>
