<?xml version="1.0" encoding="UTF-8" standalone="no"?>
<!DOCTYPE svg PUBLIC "-//W3C//DTD SVG 1.1//EN"
 "http://www.w3.org/Graphics/SVG/1.1/DTD/svg11.dtd">
<!-- Generated by graphviz version 2.38.0 (20140413.2041)
 -->
<!-- Title: vtkvmtkLinearSystemSolver Pages: 1 -->
<svg width="349pt" height="288pt"
 viewBox="0.00 0.00 348.65 288.00" xmlns="http://www.w3.org/2000/svg" xmlns:xlink="http://www.w3.org/1999/xlink">
<g id="graph0" class="graph" transform="scale(1 1) rotate(0) translate(4 284)">
<title>vtkvmtkLinearSystemSolver</title>
<polygon fill="white" stroke="none" points="-4,4 -4,-284 344.65,-284 344.65,4 -4,4"/>
<!-- Node3 -->
<g id="node1" class="node"><title>Node3</title>
<polygon fill="#bfbfbf" stroke="black" points="0,-0.5 0,-18.5 139.369,-18.5 139.369,-0.5 0,-0.5"/>
<text text-anchor="middle" x="69.6846" y="-6.5" font-family="Helvetica,sans-Serif" font-size="10.00">vtkvmtkLinearSystemSolver</text>
</g>
<!-- Node4 -->
<g id="node2" class="node"><title>Node4</title>
<polygon fill="white" stroke="#bfbfbf" points="85.8447,-261.5 85.8447,-279.5 143.524,-279.5 143.524,-261.5 85.8447,-261.5"/>
<text text-anchor="middle" x="114.685" y="-267.5" font-family="Helvetica,sans-Serif" font-size="10.00">vtkObject</text>
</g>
<!-- Node4&#45;&gt;Node3 -->
<g id="edge1" class="edge"><title>Node4&#45;&gt;Node3</title>
<path fill="none" stroke="midnightblue" d="M76.0653,-257.765C57.274,-249.424 38.6846,-235.993 38.6846,-215.5 38.6846,-215.5 38.6846,-215.5 38.6846,-73.5 38.6846,-52.0457 53.3369,-30.3137 62.4946,-18.8264"/>
<polygon fill="midnightblue" stroke="midnightblue" points="74.9346,-261.083 85.5183,-261.567 77.5465,-254.589 74.9346,-261.083"/>
</g>
<!-- Node5 -->
<g id="node3" class="node"><title>Node5</title>
<g id="a_node3"><a xlink:href="classvtkvmtkLinearSystem.html" target="_top" xlink:title="Base container to hold sparse matrice objects representing a linear system of equations Ax = B...">
<polygon fill="white" stroke="black" points="76.1724,-65.5 76.1724,-83.5 187.197,-83.5 187.197,-65.5 76.1724,-65.5"/>
<text text-anchor="middle" x="131.685" y="-71.5" font-family="Helvetica,sans-Serif" font-size="10.00">vtkvmtkLinearSystem</text>
</a>
</g>
</g>
<!-- Node4&#45;&gt;Node5 -->
<g id="edge3" class="edge"><title>Node4&#45;&gt;Node5</title>
<path fill="none" stroke="midnightblue" d="M107.62,-251.92C97.8765,-225.1 82.8886,-172.588 95.6846,-130 101.232,-111.538 115.287,-93.5624 124.104,-83.5687"/>
<polygon fill="midnightblue" stroke="midnightblue" points="104.423,-253.359 111.263,-261.45 110.962,-250.859 104.423,-253.359"/>
</g>
<!-- Node6 -->
<g id="node4" class="node"><title>Node6</title>
<g id="a_node4"><a xlink:href="classvtkvmtkSparseMatrix.html" target="_top" xlink:title="Class for constructing sparse matrices from a dataset and performing basic mathematical operations on...">
<polygon fill="white" stroke="black" points="104.288,-131 104.288,-149 213.081,-149 213.081,-131 104.288,-131"/>
<text text-anchor="middle" x="158.685" y="-137" font-family="Helvetica,sans-Serif" font-size="10.00">vtkvmtkSparseMatrix</text>
</a>
</g>
</g>
<!-- Node4&#45;&gt;Node6 -->
<g id="edge5" class="edge"><title>Node4&#45;&gt;Node6</title>
<path fill="none" stroke="midnightblue" d="M119.537,-251.51C123.154,-238.5 128.369,-220.549 133.685,-205 140.631,-184.683 150.169,-161.296 155.219,-149.201"/>
<polygon fill="midnightblue" stroke="midnightblue" points="116.07,-250.918 116.807,-261.487 122.822,-252.765 116.07,-250.918"/>
</g>
<!-- Node7 -->
<g id="node5" class="node"><title>Node7</title>
<g id="a_node5"><a xlink:href="classvtkvmtkSparseMatrixRow.html" target="_top" xlink:title="Class to handle operating on rows of a sparse matrix. ">
<polygon fill="white" stroke="black" points="142.286,-205.5 142.286,-223.5 271.083,-223.5 271.083,-205.5 142.286,-205.5"/>
<text text-anchor="middle" x="206.685" y="-211.5" font-family="Helvetica,sans-Serif" font-size="10.00">vtkvmtkSparseMatrixRow</text>
</a>
</g>
</g>
<!-- Node4&#45;&gt;Node7 -->
<g id="edge7" class="edge"><title>Node4&#45;&gt;Node7</title>
<path fill="none" stroke="midnightblue" d="M137.605,-256.046C154.976,-245.85 178.274,-232.176 192.882,-223.602"/>
<polygon fill="midnightblue" stroke="midnightblue" points="135.51,-253.218 128.657,-261.299 139.053,-259.255 135.51,-253.218"/>
</g>
<!-- Node8 -->
<g id="node6" class="node"><title>Node8</title>
<g id="a_node6"><a xlink:href="classvtkvmtkDoubleVector.html" target="_top" xlink:title="Base class for vectors utilized in finite&#45;element and other PDE evaluations. ">
<polygon fill="white" stroke="black" points="230.719,-168.5 230.719,-186.5 340.65,-186.5 340.65,-168.5 230.719,-168.5"/>
<text text-anchor="middle" x="285.685" y="-174.5" font-family="Helvetica,sans-Serif" font-size="10.00">vtkvmtkDoubleVector</text>
</a>
</g>
</g>
<!-- Node4&#45;&gt;Node8 -->
<g id="edge9" class="edge"><title>Node4&#45;&gt;Node8</title>
<path fill="none" stroke="midnightblue" d="M153.58,-263.803C196.969,-256.617 263.245,-242.88 279.685,-224 288.684,-213.665 288.299,-196.678 287.077,-186.643"/>
<polygon fill="midnightblue" stroke="midnightblue" points="152.941,-260.361 143.624,-265.404 154.052,-267.272 152.941,-260.361"/>
</g>
<!-- Node5&#45;&gt;Node3 -->
<g id="edge2" class="edge"><title>Node5&#45;&gt;Node3</title>
<path fill="none" stroke="#9a32cd" stroke-dasharray="5,2" d="M116.265,-57.8318C103.988,-45.3566 87.305,-28.4046 77.5959,-18.539"/>
<polygon fill="#9a32cd" stroke="#9a32cd" points="114.07,-60.5914 123.579,-65.2639 119.059,-55.6814 114.07,-60.5914"/>
<text text-anchor="middle" x="136.643" y="-39" font-family="Helvetica,sans-Serif" font-size="10.00"> LinearSystem</text>
</g>
<!-- Node6&#45;&gt;Node5 -->
<g id="edge4" class="edge"><title>Node6&#45;&gt;Node5</title>
<path fill="none" stroke="#9a32cd" stroke-dasharray="5,2" d="M151.314,-121.666C146.056,-109.3 139.223,-93.23 135.162,-83.6776"/>
<polygon fill="#9a32cd" stroke="#9a32cd" points="148.131,-123.125 155.265,-130.958 154.573,-120.385 148.131,-123.125"/>
<text text-anchor="middle" x="152.135" y="-104" font-family="Helvetica,sans-Serif" font-size="10.00"> A</text>
</g>
<!-- Node7&#45;&gt;Node6 -->
<g id="edge6" class="edge"><title>Node7&#45;&gt;Node6</title>
<path fill="none" stroke="#9a32cd" stroke-dasharray="5,2" d="M195.603,-196.762C185.765,-181.903 171.801,-160.811 164.176,-149.295"/>
<polygon fill="#9a32cd" stroke="#9a32cd" points="192.925,-199.058 201.364,-205.464 198.762,-195.194 192.925,-199.058"/>
<text text-anchor="middle" x="201.746" y="-174.5" font-family="Helvetica,sans-Serif" font-size="10.00"> Array</text>
</g>
<!-- Node8&#45;&gt;Node5 -->
<g id="edge8" class="edge"><title>Node8&#45;&gt;Node5</title>
<path fill="none" stroke="#9a32cd" stroke-dasharray="5,2" d="M266.71,-162.071C254.128,-152.665 237.15,-140.275 221.685,-130 195.515,-112.614 163.883,-93.9881 145.943,-83.6369"/>
<polygon fill="#9a32cd" stroke="#9a32cd" points="264.915,-165.101 275.009,-168.32 269.126,-159.509 264.915,-165.101"/>
<text text-anchor="middle" x="254.409" y="-142" font-family="Helvetica,sans-Serif" font-size="10.00"> X</text>
<text text-anchor="middle" x="254.409" y="-132" font-family="Helvetica,sans-Serif" font-size="10.00">B</text>
</g>
</g>
</svg>
