<?xml version="1.0" encoding="UTF-8" standalone="no"?>
<!DOCTYPE svg PUBLIC "-//W3C//DTD SVG 1.1//EN"
 "http://www.w3.org/Graphics/SVG/1.1/DTD/svg11.dtd">
<!-- Generated by graphviz version 2.38.0 (20140413.2041)
 -->
<!-- Title: vtkvmtkStaticTemporalInterpolatedVelocityField Pages: 1 -->
<svg width="177pt" height="102pt"
 viewBox="0.00 0.00 176.84 102.00" xmlns="http://www.w3.org/2000/svg" xmlns:xlink="http://www.w3.org/1999/xlink">
<g id="graph0" class="graph" transform="scale(1 1) rotate(0) translate(4 98)">
<title>vtkvmtkStaticTemporalInterpolatedVelocityField</title>
<polygon fill="white" stroke="none" points="-4,4 -4,-98 172.842,-98 172.842,4 -4,4"/>
<!-- Node2 -->
<g id="node1" class="node"><title>Node2</title>
<polygon fill="#bfbfbf" stroke="black" points="0,-0.5 0,-28.5 168.842,-28.5 168.842,-0.5 0,-0.5"/>
<text text-anchor="start" x="8" y="-16.5" font-family="Helvetica,sans-Serif" font-size="10.00">vtkvmtkStaticTemporalInterpolated</text>
<text text-anchor="middle" x="84.4209" y="-6.5" font-family="Helvetica,sans-Serif" font-size="10.00">VelocityField</text>
</g>
<!-- Node3 -->
<g id="node2" class="node"><title>Node3</title>
<polygon fill="white" stroke="#bfbfbf" points="8.04932,-65.5 8.04932,-93.5 160.792,-93.5 160.792,-65.5 8.04932,-65.5"/>
<text text-anchor="start" x="16.0493" y="-81.5" font-family="Helvetica,sans-Serif" font-size="10.00">vtkAbstractInterpolatedVelocity</text>
<text text-anchor="middle" x="84.4209" y="-71.5" font-family="Helvetica,sans-Serif" font-size="10.00">Field</text>
</g>
<!-- Node3&#45;&gt;Node2 -->
<g id="edge1" class="edge"><title>Node3&#45;&gt;Node2</title>
<path fill="none" stroke="midnightblue" d="M84.4209,-55.1641C84.4209,-46.1693 84.4209,-36.2205 84.4209,-28.5369"/>
<polygon fill="midnightblue" stroke="midnightblue" points="80.921,-55.4463 84.4209,-65.4464 87.921,-55.4464 80.921,-55.4463"/>
</g>
</g>
</svg>
