<?xml version="1.0" encoding="UTF-8" standalone="no"?>
<!DOCTYPE svg PUBLIC "-//W3C//DTD SVG 1.1//EN"
 "http://www.w3.org/Graphics/SVG/1.1/DTD/svg11.dtd">
<!-- Generated by graphviz version 2.38.0 (20140413.2041)
 -->
<!-- Title: vtkvmtkPolyDataPotentialFit Pages: 1 -->
<svg width="149pt" height="269pt"
 viewBox="0.00 0.00 148.85 269.00" xmlns="http://www.w3.org/2000/svg" xmlns:xlink="http://www.w3.org/1999/xlink">
<g id="graph0" class="graph" transform="scale(1 1) rotate(0) translate(4 265)">
<title>vtkvmtkPolyDataPotentialFit</title>
<polygon fill="white" stroke="none" points="-4,4 -4,-265 144.849,-265 144.849,4 -4,4"/>
<!-- Node1 -->
<g id="node1" class="node"><title>Node1</title>
<polygon fill="#bfbfbf" stroke="black" points="0,-0.5 0,-18.5 140.487,-18.5 140.487,-0.5 0,-0.5"/>
<text text-anchor="middle" x="70.2437" y="-6.5" font-family="Helvetica,sans-Serif" font-size="10.00">vtkvmtkPolyDataPotentialFit</text>
</g>
<!-- Node2 -->
<g id="node2" class="node"><title>Node2</title>
<g id="a_node2"><a xlink:href="classvtkvmtkNeighborhoods.html" target="_top" xlink:title="Create an empty, polydata, polydata manifold, polydata manifold extended, or unstructured grid neighb...">
<polygon fill="white" stroke="black" points="11.3867,-65.5 11.3867,-83.5 129.101,-83.5 129.101,-65.5 11.3867,-65.5"/>
<text text-anchor="middle" x="70.2437" y="-71.5" font-family="Helvetica,sans-Serif" font-size="10.00">vtkvmtkNeighborhoods</text>
</a>
</g>
</g>
<!-- Node2&#45;&gt;Node1 -->
<g id="edge1" class="edge"><title>Node2&#45;&gt;Node1</title>
<path fill="none" stroke="#9a32cd" stroke-dasharray="5,2" d="M70.2437,-54.9075C70.2437,-42.8146 70.2437,-27.6529 70.2437,-18.539"/>
<polygon fill="#9a32cd" stroke="#9a32cd" points="66.7437,-55.2638 70.2437,-65.2639 73.7437,-55.2639 66.7437,-55.2638"/>
<text text-anchor="middle" x="105.546" y="-39" font-family="Helvetica,sans-Serif" font-size="10.00"> Neighborhoods</text>
</g>
<!-- Node3 -->
<g id="node3" class="node"><title>Node3</title>
<g id="a_node3"><a xlink:href="classvtkvmtkDataSetItems.html" target="_top" xlink:title="Create a collection of data set items, one for every point within the data set. ">
<polygon fill="white" stroke="black" points="15.0098,-121.5 15.0098,-139.5 125.478,-139.5 125.478,-121.5 15.0098,-121.5"/>
<text text-anchor="middle" x="70.2437" y="-127.5" font-family="Helvetica,sans-Serif" font-size="10.00">vtkvmtkDataSetItems</text>
</a>
</g>
</g>
<!-- Node3&#45;&gt;Node2 -->
<g id="edge2" class="edge"><title>Node3&#45;&gt;Node2</title>
<path fill="none" stroke="midnightblue" d="M70.2437,-110.829C70.2437,-101.577 70.2437,-90.8798 70.2437,-83.7014"/>
<polygon fill="midnightblue" stroke="midnightblue" points="66.7438,-111.062 70.2437,-121.062 73.7438,-111.063 66.7438,-111.062"/>
</g>
<!-- Node4 -->
<g id="node4" class="node"><title>Node4</title>
<g id="a_node4"><a xlink:href="classvtkvmtkItems.html" target="_top" xlink:title="Control allocation and memory footprint of item instances. ">
<polygon fill="white" stroke="black" points="33.0762,-177.5 33.0762,-195.5 107.411,-195.5 107.411,-177.5 33.0762,-177.5"/>
<text text-anchor="middle" x="70.2437" y="-183.5" font-family="Helvetica,sans-Serif" font-size="10.00">vtkvmtkItems</text>
</a>
</g>
</g>
<!-- Node4&#45;&gt;Node3 -->
<g id="edge3" class="edge"><title>Node4&#45;&gt;Node3</title>
<path fill="none" stroke="midnightblue" d="M70.2437,-166.829C70.2437,-157.577 70.2437,-146.88 70.2437,-139.701"/>
<polygon fill="midnightblue" stroke="midnightblue" points="66.7438,-167.062 70.2437,-177.062 73.7438,-167.063 66.7438,-167.062"/>
</g>
<!-- Node5 -->
<g id="node5" class="node"><title>Node5</title>
<g id="a_node5"><a xlink:href="classvtkvmtkItem.html" target="_top" xlink:title="Base class for the construction of neighborhoods and stencil from a set of points. ">
<polygon fill="white" stroke="black" points="35.5762,-242.5 35.5762,-260.5 104.911,-260.5 104.911,-242.5 35.5762,-242.5"/>
<text text-anchor="middle" x="70.2437" y="-248.5" font-family="Helvetica,sans-Serif" font-size="10.00">vtkvmtkItem</text>
</a>
</g>
</g>
<!-- Node5&#45;&gt;Node4 -->
<g id="edge4" class="edge"><title>Node5&#45;&gt;Node4</title>
<path fill="none" stroke="#9a32cd" stroke-dasharray="5,2" d="M70.2437,-231.907C70.2437,-219.815 70.2437,-204.653 70.2437,-195.539"/>
<polygon fill="#9a32cd" stroke="#9a32cd" points="66.7437,-232.264 70.2437,-242.264 73.7437,-232.264 66.7437,-232.264"/>
<text text-anchor="middle" x="83.3052" y="-216" font-family="Helvetica,sans-Serif" font-size="10.00"> Array</text>
</g>
</g>
</svg>
