<?xml version="1.0" encoding="UTF-8" standalone="no"?>
<!DOCTYPE svg PUBLIC "-//W3C//DTD SVG 1.1//EN"
 "http://www.w3.org/Graphics/SVG/1.1/DTD/svg11.dtd">
<!-- Generated by graphviz version 2.38.0 (20140413.2041)
 -->
<!-- Title: vtkvmtkUnstructuredGridFELaplaceAssembler Pages: 1 -->
<svg width="182pt" height="147pt"
 viewBox="0.00 0.00 181.83 147.00" xmlns="http://www.w3.org/2000/svg" xmlns:xlink="http://www.w3.org/1999/xlink">
<g id="graph0" class="graph" transform="scale(1 1) rotate(0) translate(4 143)">
<title>vtkvmtkUnstructuredGridFELaplaceAssembler</title>
<polygon fill="white" stroke="none" points="-4,4 -4,-143 177.832,-143 177.832,4 -4,4"/>
<!-- Node0 -->
<g id="node1" class="node"><title>Node0</title>
<polygon fill="#bfbfbf" stroke="black" points="0,-0.5 0,-28.5 173.832,-28.5 173.832,-0.5 0,-0.5"/>
<text text-anchor="start" x="8" y="-16.5" font-family="Helvetica,sans-Serif" font-size="10.00">vtkvmtkUnstructuredGridFELaplace</text>
<text text-anchor="middle" x="86.916" y="-6.5" font-family="Helvetica,sans-Serif" font-size="10.00">Assembler</text>
</g>
<!-- Node1 -->
<g id="node2" class="node"><title>Node1</title>
<g id="a_node2"><a xlink:href="classvtkvmtkFEAssembler.html" target="_top" xlink:title="Base class on which to build to build specific finite element routines. ">
<polygon fill="white" stroke="black" points="31.9653,-65.5 31.9653,-83.5 141.867,-83.5 141.867,-65.5 31.9653,-65.5"/>
<text text-anchor="middle" x="86.916" y="-71.5" font-family="Helvetica,sans-Serif" font-size="10.00">vtkvmtkFEAssembler</text>
</a>
</g>
</g>
<!-- Node1&#45;&gt;Node0 -->
<g id="edge1" class="edge"><title>Node1&#45;&gt;Node0</title>
<path fill="none" stroke="midnightblue" d="M86.916,-55.3209C86.916,-46.747 86.916,-36.6999 86.916,-28.8428"/>
<polygon fill="midnightblue" stroke="midnightblue" points="83.4161,-55.4353 86.916,-65.4353 90.4161,-55.4354 83.4161,-55.4353"/>
</g>
<!-- Node2 -->
<g id="node3" class="node"><title>Node2</title>
<polygon fill="white" stroke="#bfbfbf" points="58.0762,-120.5 58.0762,-138.5 115.756,-138.5 115.756,-120.5 58.0762,-120.5"/>
<text text-anchor="middle" x="86.916" y="-126.5" font-family="Helvetica,sans-Serif" font-size="10.00">vtkObject</text>
</g>
<!-- Node2&#45;&gt;Node1 -->
<g id="edge2" class="edge"><title>Node2&#45;&gt;Node1</title>
<path fill="none" stroke="midnightblue" d="M86.916,-110.175C86.916,-101.094 86.916,-90.5949 86.916,-83.5496"/>
<polygon fill="midnightblue" stroke="midnightblue" points="83.4161,-110.219 86.916,-120.219 90.4161,-110.219 83.4161,-110.219"/>
</g>
</g>
</svg>
