<?xml version="1.0" encoding="UTF-8" standalone="no"?>
<!DOCTYPE svg PUBLIC "-//W3C//DTD SVG 1.1//EN"
 "http://www.w3.org/Graphics/SVG/1.1/DTD/svg11.dtd">
<!-- Generated by graphviz version 2.38.0 (20140413.2041)
 -->
<!-- Title: vtkvmtkBoundaryConditions Pages: 1 -->
<svg width="254pt" height="232pt"
 viewBox="0.00 0.00 254.36 232.00" xmlns="http://www.w3.org/2000/svg" xmlns:xlink="http://www.w3.org/1999/xlink">
<g id="graph0" class="graph" transform="scale(1 1) rotate(0) translate(4 228)">
<title>vtkvmtkBoundaryConditions</title>
<polygon fill="white" stroke="none" points="-4,4 -4,-228 250.364,-228 250.364,4 -4,4"/>
<!-- Node2 -->
<g id="node1" class="node"><title>Node2</title>
<polygon fill="#bfbfbf" stroke="black" points="89.4263,-0.5 89.4263,-18.5 229.372,-18.5 229.372,-0.5 89.4263,-0.5"/>
<text text-anchor="middle" x="159.399" y="-6.5" font-family="Helvetica,sans-Serif" font-size="10.00">vtkvmtkBoundaryConditions</text>
</g>
<!-- Node3 -->
<g id="node2" class="node"><title>Node3</title>
<g id="a_node2"><a xlink:href="classvtkvmtkLinearSystem.html" target="_top" xlink:title="Base container to hold sparse matrice objects representing a linear system of equations Ax = B...">
<polygon fill="white" stroke="black" points="103.887,-65.5 103.887,-83.5 214.911,-83.5 214.911,-65.5 103.887,-65.5"/>
<text text-anchor="middle" x="159.399" y="-71.5" font-family="Helvetica,sans-Serif" font-size="10.00">vtkvmtkLinearSystem</text>
</a>
</g>
</g>
<!-- Node3&#45;&gt;Node2 -->
<g id="edge1" class="edge"><title>Node3&#45;&gt;Node2</title>
<path fill="none" stroke="#9a32cd" stroke-dasharray="5,2" d="M159.399,-54.9075C159.399,-42.8146 159.399,-27.6529 159.399,-18.539"/>
<polygon fill="#9a32cd" stroke="#9a32cd" points="155.899,-55.2638 159.399,-65.2639 162.899,-55.2639 155.899,-55.2638"/>
<text text-anchor="middle" x="191.357" y="-39" font-family="Helvetica,sans-Serif" font-size="10.00"> LinearSystem</text>
</g>
<!-- Node4 -->
<g id="node3" class="node"><title>Node4</title>
<g id="a_node3"><a xlink:href="classvtkvmtkSparseMatrix.html" target="_top" xlink:title=".. ">
<polygon fill="white" stroke="black" points="10.0024,-140.5 10.0024,-158.5 118.795,-158.5 118.795,-140.5 10.0024,-140.5"/>
<text text-anchor="middle" x="64.3989" y="-146.5" font-family="Helvetica,sans-Serif" font-size="10.00">vtkvmtkSparseMatrix</text>
</a>
</g>
</g>
<!-- Node4&#45;&gt;Node3 -->
<g id="edge2" class="edge"><title>Node4&#45;&gt;Node3</title>
<path fill="none" stroke="#9a32cd" stroke-dasharray="5,2" d="M82.8598,-134.314C102.499,-119.223 132.887,-95.8727 148.822,-83.6274"/>
<polygon fill="#9a32cd" stroke="#9a32cd" points="80.7253,-131.54 74.9286,-140.409 84.9905,-137.091 80.7253,-131.54"/>
<text text-anchor="middle" x="127.85" y="-109" font-family="Helvetica,sans-Serif" font-size="10.00"> A</text>
</g>
<!-- Node5 -->
<g id="node4" class="node"><title>Node5</title>
<g id="a_node4"><a xlink:href="classvtkvmtkSparseMatrixRow.html" target="_top" xlink:title=".. ">
<polygon fill="white" stroke="black" points="0,-205.5 0,-223.5 128.798,-223.5 128.798,-205.5 0,-205.5"/>
<text text-anchor="middle" x="64.3989" y="-211.5" font-family="Helvetica,sans-Serif" font-size="10.00">vtkvmtkSparseMatrixRow</text>
</a>
</g>
</g>
<!-- Node5&#45;&gt;Node4 -->
<g id="edge3" class="edge"><title>Node5&#45;&gt;Node4</title>
<path fill="none" stroke="#9a32cd" stroke-dasharray="5,2" d="M64.3989,-194.907C64.3989,-182.815 64.3989,-167.653 64.3989,-158.539"/>
<polygon fill="#9a32cd" stroke="#9a32cd" points="60.899,-195.264 64.3989,-205.264 67.899,-195.264 60.899,-195.264"/>
<text text-anchor="middle" x="77.4604" y="-179" font-family="Helvetica,sans-Serif" font-size="10.00"> Array</text>
</g>
<!-- Node6 -->
<g id="node5" class="node"><title>Node6</title>
<g id="a_node5"><a xlink:href="classvtkvmtkDoubleVector.html" target="_top" xlink:title="Base class for vectors utilized in finite&#45;element and other PDE evaluations. ">
<polygon fill="white" stroke="black" points="136.434,-140.5 136.434,-158.5 246.364,-158.5 246.364,-140.5 136.434,-140.5"/>
<text text-anchor="middle" x="191.399" y="-146.5" font-family="Helvetica,sans-Serif" font-size="10.00">vtkvmtkDoubleVector</text>
</a>
</g>
</g>
<!-- Node6&#45;&gt;Node3 -->
<g id="edge4" class="edge"><title>Node6&#45;&gt;Node3</title>
<path fill="none" stroke="#9a32cd" stroke-dasharray="5,2" d="M183.823,-131.218C177.276,-116.281 168.095,-95.3374 163.06,-83.8518"/>
<polygon fill="#9a32cd" stroke="#9a32cd" points="180.632,-132.655 187.852,-140.409 187.043,-129.845 180.632,-132.655"/>
<text text-anchor="middle" x="184.123" y="-114" font-family="Helvetica,sans-Serif" font-size="10.00"> X</text>
<text text-anchor="middle" x="184.123" y="-104" font-family="Helvetica,sans-Serif" font-size="10.00">B</text>
</g>
</g>
</svg>
