<?xml version="1.0" encoding="UTF-8" standalone="no"?>
<!DOCTYPE svg PUBLIC "-//W3C//DTD SVG 1.1//EN"
 "http://www.w3.org/Graphics/SVG/1.1/DTD/svg11.dtd">
<!-- Generated by graphviz version 2.38.0 (20140413.2041)
 -->
<!-- Title: vtkvmtkPolyDataCylinderHarmonicMappingFilter Pages: 1 -->
<svg width="180pt" height="157pt"
 viewBox="0.00 0.00 179.61 157.00" xmlns="http://www.w3.org/2000/svg" xmlns:xlink="http://www.w3.org/1999/xlink">
<g id="graph0" class="graph" transform="scale(1 1) rotate(0) translate(4 153)">
<title>vtkvmtkPolyDataCylinderHarmonicMappingFilter</title>
<polygon fill="white" stroke="none" points="-4,4 -4,-153 175.61,-153 175.61,4 -4,4"/>
<!-- Node0 -->
<g id="node1" class="node"><title>Node0</title>
<polygon fill="#bfbfbf" stroke="black" points="0.839844,-0.5 0.839844,-28.5 170.771,-28.5 170.771,-0.5 0.839844,-0.5"/>
<text text-anchor="start" x="8.83984" y="-16.5" font-family="Helvetica,sans-Serif" font-size="10.00">vtkvmtkPolyDataCylinderHarmonic</text>
<text text-anchor="middle" x="85.8052" y="-6.5" font-family="Helvetica,sans-Serif" font-size="10.00">MappingFilter</text>
</g>
<!-- Node1 -->
<g id="node2" class="node"><title>Node1</title>
<g id="a_node2"><a xlink:href="classvtkvmtkPolyDataHarmonicMappingFilter.html" target="_top" xlink:title="Construct a harmonic function over each vascular surface segment used during mapping order to stretch...">
<polygon fill="white" stroke="black" points="0,-65.5 0,-93.5 171.61,-93.5 171.61,-65.5 0,-65.5"/>
<text text-anchor="start" x="8" y="-81.5" font-family="Helvetica,sans-Serif" font-size="10.00">vtkvmtkPolyDataHarmonicMapping</text>
<text text-anchor="middle" x="85.8052" y="-71.5" font-family="Helvetica,sans-Serif" font-size="10.00">Filter</text>
</a>
</g>
</g>
<!-- Node1&#45;&gt;Node0 -->
<g id="edge1" class="edge"><title>Node1&#45;&gt;Node0</title>
<path fill="none" stroke="midnightblue" d="M85.8052,-55.1641C85.8052,-46.1693 85.8052,-36.2205 85.8052,-28.5369"/>
<polygon fill="midnightblue" stroke="midnightblue" points="82.3053,-55.4463 85.8052,-65.4464 89.3053,-55.4464 82.3053,-55.4463"/>
</g>
<!-- Node2 -->
<g id="node3" class="node"><title>Node2</title>
<polygon fill="white" stroke="#bfbfbf" points="30.0098,-130.5 30.0098,-148.5 141.601,-148.5 141.601,-130.5 30.0098,-130.5"/>
<text text-anchor="middle" x="85.8052" y="-136.5" font-family="Helvetica,sans-Serif" font-size="10.00">vtkPolyDataAlgorithm</text>
</g>
<!-- Node2&#45;&gt;Node1 -->
<g id="edge2" class="edge"><title>Node2&#45;&gt;Node1</title>
<path fill="none" stroke="midnightblue" d="M85.8052,-120.321C85.8052,-111.747 85.8052,-101.7 85.8052,-93.8428"/>
<polygon fill="midnightblue" stroke="midnightblue" points="82.3053,-120.435 85.8052,-130.435 89.3053,-120.435 82.3053,-120.435"/>
</g>
</g>
</svg>
