<?xml version="1.0" encoding="UTF-8" standalone="no"?>
<!DOCTYPE svg PUBLIC "-//W3C//DTD SVG 1.1//EN"
 "http://www.w3.org/Graphics/SVG/1.1/DTD/svg11.dtd">
<!-- Generated by graphviz version 2.38.0 (20140413.2041)
 -->
<!-- Title: vtkvmtkEllipticProblem Pages: 1 -->
<svg width="344pt" height="372pt"
 viewBox="0.00 0.00 344.35 372.00" xmlns="http://www.w3.org/2000/svg" xmlns:xlink="http://www.w3.org/1999/xlink">
<g id="graph0" class="graph" transform="scale(1 1) rotate(0) translate(4 368)">
<title>vtkvmtkEllipticProblem</title>
<polygon fill="white" stroke="none" points="-4,4 -4,-368 340.354,-368 340.354,4 -4,4"/>
<!-- Node1 -->
<g id="node1" class="node"><title>Node1</title>
<polygon fill="#bfbfbf" stroke="black" points="116.389,-0.5 116.389,-18.5 232.409,-18.5 232.409,-0.5 116.389,-0.5"/>
<text text-anchor="middle" x="174.399" y="-6.5" font-family="Helvetica,sans-Serif" font-size="10.00">vtkvmtkEllipticProblem</text>
</g>
<!-- Node2 -->
<g id="node2" class="node"><title>Node2</title>
<g id="a_node2"><a xlink:href="classvtkvmtkDirichletBoundaryConditions.html" target="_top" xlink:title="Set up a Dirichlet (or first&#45;type) boundary conditions that a linear system needs to take along the b...">
<polygon fill="white" stroke="black" points="171.993,-65.5 171.993,-93.5 300.805,-93.5 300.805,-65.5 171.993,-65.5"/>
<text text-anchor="start" x="179.993" y="-81.5" font-family="Helvetica,sans-Serif" font-size="10.00">vtkvmtkDirichletBoundary</text>
<text text-anchor="middle" x="236.399" y="-71.5" font-family="Helvetica,sans-Serif" font-size="10.00">Conditions</text>
</a>
</g>
</g>
<!-- Node2&#45;&gt;Node1 -->
<g id="edge1" class="edge"><title>Node2&#45;&gt;Node1</title>
<path fill="none" stroke="#9a32cd" stroke-dasharray="5,2" d="M217.464,-57.7322C205.54,-44.6544 190.794,-28.4819 182.017,-18.8552"/>
<polygon fill="#9a32cd" stroke="#9a32cd" points="215.121,-60.3575 224.445,-65.3889 220.293,-55.6412 215.121,-60.3575"/>
<text text-anchor="middle" x="271.876" y="-39" font-family="Helvetica,sans-Serif" font-size="10.00"> DirichletBoundaryConditions</text>
</g>
<!-- Node3 -->
<g id="node3" class="node"><title>Node3</title>
<g id="a_node3"><a xlink:href="classvtkvmtkBoundaryConditions.html" target="_top" xlink:title="Base class to store nodes, value, and linear system composing a boundary condition. ">
<polygon fill="white" stroke="black" points="171.426,-140.5 171.426,-158.5 311.372,-158.5 311.372,-140.5 171.426,-140.5"/>
<text text-anchor="middle" x="241.399" y="-146.5" font-family="Helvetica,sans-Serif" font-size="10.00">vtkvmtkBoundaryConditions</text>
</a>
</g>
</g>
<!-- Node3&#45;&gt;Node2 -->
<g id="edge2" class="edge"><title>Node3&#45;&gt;Node2</title>
<path fill="none" stroke="midnightblue" d="M240.054,-130.209C239.207,-118.686 238.133,-104.078 237.369,-93.6867"/>
<polygon fill="midnightblue" stroke="midnightblue" points="236.582,-130.716 240.806,-140.432 243.563,-130.203 236.582,-130.716"/>
</g>
<!-- Node4 -->
<g id="node4" class="node"><title>Node4</title>
<g id="a_node4"><a xlink:href="classvtkvmtkLinearSystem.html" target="_top" xlink:title="Base container to hold sparse matrice objects representing a linear system of equations Ax = B...">
<polygon fill="white" stroke="black" points="103.887,-205.5 103.887,-223.5 214.911,-223.5 214.911,-205.5 103.887,-205.5"/>
<text text-anchor="middle" x="159.399" y="-211.5" font-family="Helvetica,sans-Serif" font-size="10.00">vtkvmtkLinearSystem</text>
</a>
</g>
</g>
<!-- Node4&#45;&gt;Node1 -->
<g id="edge7" class="edge"><title>Node4&#45;&gt;Node1</title>
<path fill="none" stroke="#9a32cd" stroke-dasharray="5,2" d="M158.881,-195.14C158.316,-167.02 158.104,-111.639 163.399,-65 165.294,-48.3117 169.694,-29.1314 172.319,-18.5563"/>
<polygon fill="#9a32cd" stroke="#9a32cd" points="155.389,-195.505 159.13,-205.417 162.387,-195.336 155.389,-195.505"/>
<text text-anchor="middle" x="192.357" y="-114" font-family="Helvetica,sans-Serif" font-size="10.00"> LinearSystem</text>
</g>
<!-- Node4&#45;&gt;Node3 -->
<g id="edge3" class="edge"><title>Node4&#45;&gt;Node3</title>
<path fill="none" stroke="#9a32cd" stroke-dasharray="5,2" d="M178.415,-198.89C194.762,-186.331 217.728,-168.686 230.935,-158.539"/>
<polygon fill="#9a32cd" stroke="#9a32cd" points="175.916,-196.396 170.119,-205.264 180.181,-201.947 175.916,-196.396"/>
<text text-anchor="middle" x="237.357" y="-179" font-family="Helvetica,sans-Serif" font-size="10.00"> LinearSystem</text>
</g>
<!-- Node5 -->
<g id="node5" class="node"><title>Node5</title>
<g id="a_node5"><a xlink:href="classvtkvmtkSparseMatrix.html" target="_top" xlink:title=".. ">
<polygon fill="white" stroke="black" points="10.0024,-280.5 10.0024,-298.5 118.795,-298.5 118.795,-280.5 10.0024,-280.5"/>
<text text-anchor="middle" x="64.3989" y="-286.5" font-family="Helvetica,sans-Serif" font-size="10.00">vtkvmtkSparseMatrix</text>
</a>
</g>
</g>
<!-- Node5&#45;&gt;Node4 -->
<g id="edge4" class="edge"><title>Node5&#45;&gt;Node4</title>
<path fill="none" stroke="#9a32cd" stroke-dasharray="5,2" d="M82.8598,-274.314C102.499,-259.223 132.887,-235.873 148.822,-223.627"/>
<polygon fill="#9a32cd" stroke="#9a32cd" points="80.7253,-271.54 74.9286,-280.409 84.9905,-277.091 80.7253,-271.54"/>
<text text-anchor="middle" x="127.85" y="-249" font-family="Helvetica,sans-Serif" font-size="10.00"> A</text>
</g>
<!-- Node6 -->
<g id="node6" class="node"><title>Node6</title>
<g id="a_node6"><a xlink:href="classvtkvmtkSparseMatrixRow.html" target="_top" xlink:title=".. ">
<polygon fill="white" stroke="black" points="0,-345.5 0,-363.5 128.798,-363.5 128.798,-345.5 0,-345.5"/>
<text text-anchor="middle" x="64.3989" y="-351.5" font-family="Helvetica,sans-Serif" font-size="10.00">vtkvmtkSparseMatrixRow</text>
</a>
</g>
</g>
<!-- Node6&#45;&gt;Node5 -->
<g id="edge5" class="edge"><title>Node6&#45;&gt;Node5</title>
<path fill="none" stroke="#9a32cd" stroke-dasharray="5,2" d="M64.3989,-334.907C64.3989,-322.815 64.3989,-307.653 64.3989,-298.539"/>
<polygon fill="#9a32cd" stroke="#9a32cd" points="60.899,-335.264 64.3989,-345.264 67.899,-335.264 60.899,-335.264"/>
<text text-anchor="middle" x="77.4604" y="-319" font-family="Helvetica,sans-Serif" font-size="10.00"> Array</text>
</g>
<!-- Node7 -->
<g id="node7" class="node"><title>Node7</title>
<g id="a_node7"><a xlink:href="classvtkvmtkDoubleVector.html" target="_top" xlink:title="Base class for vectors utilized in finite&#45;element and other PDE evaluations. ">
<polygon fill="white" stroke="black" points="136.434,-280.5 136.434,-298.5 246.364,-298.5 246.364,-280.5 136.434,-280.5"/>
<text text-anchor="middle" x="191.399" y="-286.5" font-family="Helvetica,sans-Serif" font-size="10.00">vtkvmtkDoubleVector</text>
</a>
</g>
</g>
<!-- Node7&#45;&gt;Node4 -->
<g id="edge6" class="edge"><title>Node7&#45;&gt;Node4</title>
<path fill="none" stroke="#9a32cd" stroke-dasharray="5,2" d="M183.823,-271.218C177.276,-256.281 168.095,-235.337 163.06,-223.852"/>
<polygon fill="#9a32cd" stroke="#9a32cd" points="180.632,-272.655 187.852,-280.409 187.043,-269.845 180.632,-272.655"/>
<text text-anchor="middle" x="184.123" y="-254" font-family="Helvetica,sans-Serif" font-size="10.00"> X</text>
<text text-anchor="middle" x="184.123" y="-244" font-family="Helvetica,sans-Serif" font-size="10.00">B</text>
</g>
</g>
</svg>
