<?xml version="1.0" encoding="UTF-8" standalone="no"?>
<!DOCTYPE svg PUBLIC "-//W3C//DTD SVG 1.1//EN"
 "http://www.w3.org/Graphics/SVG/1.1/DTD/svg11.dtd">
<!-- Generated by graphviz version 2.38.0 (20140413.2041)
 -->
<!-- Title: vtkvmtkNeighborhoods Pages: 1 -->
<svg width="126pt" height="204pt"
 viewBox="0.00 0.00 125.71 204.00" xmlns="http://www.w3.org/2000/svg" xmlns:xlink="http://www.w3.org/1999/xlink">
<g id="graph0" class="graph" transform="scale(1 1) rotate(0) translate(4 200)">
<title>vtkvmtkNeighborhoods</title>
<polygon fill="white" stroke="none" points="-4,4 -4,-200 121.714,-200 121.714,4 -4,4"/>
<!-- Node3 -->
<g id="node1" class="node"><title>Node3</title>
<polygon fill="#bfbfbf" stroke="black" points="0,-0.5 0,-18.5 117.714,-18.5 117.714,-0.5 0,-0.5"/>
<text text-anchor="middle" x="58.8569" y="-6.5" font-family="Helvetica,sans-Serif" font-size="10.00">vtkvmtkNeighborhoods</text>
</g>
<!-- Node4 -->
<g id="node2" class="node"><title>Node4</title>
<g id="a_node2"><a xlink:href="classvtkvmtkDataSetItems.html" target="_top" xlink:title="Create a collection of data set items, one for every point within the data set. ">
<polygon fill="white" stroke="black" points="3.62305,-56.5 3.62305,-74.5 114.091,-74.5 114.091,-56.5 3.62305,-56.5"/>
<text text-anchor="middle" x="58.8569" y="-62.5" font-family="Helvetica,sans-Serif" font-size="10.00">vtkvmtkDataSetItems</text>
</a>
</g>
</g>
<!-- Node4&#45;&gt;Node3 -->
<g id="edge1" class="edge"><title>Node4&#45;&gt;Node3</title>
<path fill="none" stroke="midnightblue" d="M58.8569,-45.8288C58.8569,-36.5774 58.8569,-25.8798 58.8569,-18.7014"/>
<polygon fill="midnightblue" stroke="midnightblue" points="55.357,-46.0625 58.8569,-56.0625 62.357,-46.0625 55.357,-46.0625"/>
</g>
<!-- Node5 -->
<g id="node3" class="node"><title>Node5</title>
<g id="a_node3"><a xlink:href="classvtkvmtkItems.html" target="_top" xlink:title="Control allocation and memory footprint of item instances. ">
<polygon fill="white" stroke="black" points="21.6895,-112.5 21.6895,-130.5 96.0244,-130.5 96.0244,-112.5 21.6895,-112.5"/>
<text text-anchor="middle" x="58.8569" y="-118.5" font-family="Helvetica,sans-Serif" font-size="10.00">vtkvmtkItems</text>
</a>
</g>
</g>
<!-- Node5&#45;&gt;Node4 -->
<g id="edge2" class="edge"><title>Node5&#45;&gt;Node4</title>
<path fill="none" stroke="midnightblue" d="M58.8569,-101.829C58.8569,-92.5774 58.8569,-81.8798 58.8569,-74.7014"/>
<polygon fill="midnightblue" stroke="midnightblue" points="55.357,-102.062 58.8569,-112.062 62.357,-102.063 55.357,-102.062"/>
</g>
<!-- Node6 -->
<g id="node4" class="node"><title>Node6</title>
<g id="a_node4"><a xlink:href="classvtkvmtkItem.html" target="_top" xlink:title="Base class for the construction of neighborhoods and stencil from a set of points. ">
<polygon fill="white" stroke="black" points="24.1895,-177.5 24.1895,-195.5 93.5244,-195.5 93.5244,-177.5 24.1895,-177.5"/>
<text text-anchor="middle" x="58.8569" y="-183.5" font-family="Helvetica,sans-Serif" font-size="10.00">vtkvmtkItem</text>
</a>
</g>
</g>
<!-- Node6&#45;&gt;Node5 -->
<g id="edge3" class="edge"><title>Node6&#45;&gt;Node5</title>
<path fill="none" stroke="#9a32cd" stroke-dasharray="5,2" d="M58.8569,-166.907C58.8569,-154.815 58.8569,-139.653 58.8569,-130.539"/>
<polygon fill="#9a32cd" stroke="#9a32cd" points="55.357,-167.264 58.8569,-177.264 62.357,-167.264 55.357,-167.264"/>
<text text-anchor="middle" x="71.9185" y="-151" font-family="Helvetica,sans-Serif" font-size="10.00"> Array</text>
</g>
</g>
</svg>
