<?xml version="1.0" encoding="UTF-8" standalone="no"?>
<!DOCTYPE svg PUBLIC "-//W3C//DTD SVG 1.1//EN"
 "http://www.w3.org/Graphics/SVG/1.1/DTD/svg11.dtd">
<!-- Generated by graphviz version 2.38.0 (20140413.2041)
 -->
<!-- Title: vtkvmtkItems Pages: 1 -->
<svg width="228pt" height="137pt"
 viewBox="0.00 0.00 228.31 137.00" xmlns="http://www.w3.org/2000/svg" xmlns:xlink="http://www.w3.org/1999/xlink">
<g id="graph0" class="graph" transform="scale(1 1) rotate(0) translate(4 133)">
<title>vtkvmtkItems</title>
<polygon fill="white" stroke="none" points="-4,4 -4,-133 224.308,-133 224.308,4 -4,4"/>
<!-- Node0 -->
<g id="node1" class="node"><title>Node0</title>
<polygon fill="#bfbfbf" stroke="black" points="80.6895,-110.5 80.6895,-128.5 155.024,-128.5 155.024,-110.5 80.6895,-110.5"/>
<text text-anchor="middle" x="117.857" y="-116.5" font-family="Helvetica,sans-Serif" font-size="10.00">vtkvmtkItems</text>
</g>
<!-- Node1 -->
<g id="node2" class="node"><title>Node1</title>
<g id="a_node2"><a xlink:href="classvtkvmtkDataSetItems.html" target="_top" xlink:title="Create a collection of data set items, one for every point within the data set. ">
<polygon fill="white" stroke="black" points="62.623,-55.5 62.623,-73.5 173.091,-73.5 173.091,-55.5 62.623,-55.5"/>
<text text-anchor="middle" x="117.857" y="-61.5" font-family="Helvetica,sans-Serif" font-size="10.00">vtkvmtkDataSetItems</text>
</a>
</g>
</g>
<!-- Node0&#45;&gt;Node1 -->
<g id="edge1" class="edge"><title>Node0&#45;&gt;Node1</title>
<path fill="none" stroke="midnightblue" d="M117.857,-100.175C117.857,-91.0945 117.857,-80.5949 117.857,-73.5496"/>
<polygon fill="midnightblue" stroke="midnightblue" points="114.357,-100.219 117.857,-110.219 121.357,-100.219 114.357,-100.219"/>
</g>
<!-- Node2 -->
<g id="node3" class="node"><title>Node2</title>
<g id="a_node3"><a xlink:href="classvtkvmtkNeighborhoods.html" target="_top" xlink:title="Create an empty, polydata, polydata manifold, polydata manifold extended, or unstructured grid neighb...">
<polygon fill="white" stroke="black" points="0,-0.5 0,-18.5 117.714,-18.5 117.714,-0.5 0,-0.5"/>
<text text-anchor="middle" x="58.8569" y="-6.5" font-family="Helvetica,sans-Serif" font-size="10.00">vtkvmtkNeighborhoods</text>
</a>
</g>
</g>
<!-- Node1&#45;&gt;Node2 -->
<g id="edge2" class="edge"><title>Node1&#45;&gt;Node2</title>
<path fill="none" stroke="midnightblue" d="M101.316,-48.6408C90.4944,-38.9201 76.7698,-26.5913 67.9021,-18.6253"/>
<polygon fill="midnightblue" stroke="midnightblue" points="99.1179,-51.3715 108.896,-55.4504 103.796,-46.164 99.1179,-51.3715"/>
</g>
<!-- Node3 -->
<g id="node4" class="node"><title>Node3</title>
<g id="a_node4"><a xlink:href="classvtkvmtkStencils.html" target="_top" xlink:title="Create an empty, umbrella, area weighted umbrella, finite&#45;element LP, or finite&#45;volume finite&#45;element...">
<polygon fill="white" stroke="black" points="135.406,-0.5 135.406,-18.5 220.308,-18.5 220.308,-0.5 135.406,-0.5"/>
<text text-anchor="middle" x="177.857" y="-6.5" font-family="Helvetica,sans-Serif" font-size="10.00">vtkvmtkStencils</text>
</a>
</g>
</g>
<!-- Node1&#45;&gt;Node3 -->
<g id="edge3" class="edge"><title>Node1&#45;&gt;Node3</title>
<path fill="none" stroke="midnightblue" d="M134.679,-48.6408C145.683,-38.9201 159.64,-26.5913 168.658,-18.6253"/>
<polygon fill="midnightblue" stroke="midnightblue" points="132.147,-46.2069 126.97,-55.4504 136.782,-51.4532 132.147,-46.2069"/>
</g>
</g>
</svg>
