<?xml version="1.0" encoding="UTF-8" standalone="no"?>
<!DOCTYPE svg PUBLIC "-//W3C//DTD SVG 1.1//EN"
 "http://www.w3.org/Graphics/SVG/1.1/DTD/svg11.dtd">
<!-- Generated by graphviz version 2.38.0 (20140413.2041)
 -->
<!-- Title: vtkvmtkNonManifoldFastMarching Pages: 1 -->
<svg width="241pt" height="148pt"
 viewBox="0.00 0.00 240.74 148.00" xmlns="http://www.w3.org/2000/svg" xmlns:xlink="http://www.w3.org/1999/xlink">
<g id="graph0" class="graph" transform="scale(1 1) rotate(0) translate(4 144)">
<title>vtkvmtkNonManifoldFastMarching</title>
<polygon fill="white" stroke="none" points="-4,4 -4,-144 236.736,-144 236.736,4 -4,4"/>
<!-- Node2 -->
<g id="node1" class="node"><title>Node2</title>
<polygon fill="#bfbfbf" stroke="black" points="10.4927,-0.5 10.4927,-18.5 177.098,-18.5 177.098,-0.5 10.4927,-0.5"/>
<text text-anchor="middle" x="93.7954" y="-6.5" font-family="Helvetica,sans-Serif" font-size="10.00">vtkvmtkNonManifoldFastMarching</text>
</g>
<!-- Node3 -->
<g id="node2" class="node"><title>Node3</title>
<polygon fill="white" stroke="#bfbfbf" points="0,-65.5 0,-83.5 111.591,-83.5 111.591,-65.5 0,-65.5"/>
<text text-anchor="middle" x="55.7954" y="-71.5" font-family="Helvetica,sans-Serif" font-size="10.00">vtkPolyDataAlgorithm</text>
</g>
<!-- Node3&#45;&gt;Node2 -->
<g id="edge1" class="edge"><title>Node3&#45;&gt;Node2</title>
<path fill="none" stroke="midnightblue" d="M66.1174,-56.3872C73.5436,-44.0753 83.2225,-28.0288 88.9465,-18.539"/>
<polygon fill="midnightblue" stroke="midnightblue" points="62.9312,-54.8932 60.7632,-65.2639 68.9252,-58.5087 62.9312,-54.8932"/>
</g>
<!-- Node4 -->
<g id="node3" class="node"><title>Node4</title>
<g id="a_node3"><a xlink:href="classvtkvmtkMinHeap.html" target="_top" xlink:title="Implementation of the min heap data structure. ">
<polygon fill="white" stroke="black" points="129.842,-65.5 129.842,-83.5 219.749,-83.5 219.749,-65.5 129.842,-65.5"/>
<text text-anchor="middle" x="174.795" y="-71.5" font-family="Helvetica,sans-Serif" font-size="10.00">vtkvmtkMinHeap</text>
</a>
</g>
</g>
<!-- Node4&#45;&gt;Node2 -->
<g id="edge2" class="edge"><title>Node4&#45;&gt;Node2</title>
<path fill="none" stroke="#9a32cd" stroke-dasharray="5,2" d="M156.011,-58.8899C139.864,-46.3311 117.178,-28.6865 104.131,-18.539"/>
<polygon fill="#9a32cd" stroke="#9a32cd" points="154.164,-61.8871 164.206,-65.2639 158.461,-56.3617 154.164,-61.8871"/>
<text text-anchor="middle" x="185.766" y="-39" font-family="Helvetica,sans-Serif" font-size="10.00"> ConsideredMinHeap</text>
</g>
<!-- Node5 -->
<g id="node4" class="node"><title>Node5</title>
<polygon fill="white" stroke="#bfbfbf" points="145.956,-121.5 145.956,-139.5 203.635,-139.5 203.635,-121.5 145.956,-121.5"/>
<text text-anchor="middle" x="174.795" y="-127.5" font-family="Helvetica,sans-Serif" font-size="10.00">vtkObject</text>
</g>
<!-- Node5&#45;&gt;Node4 -->
<g id="edge3" class="edge"><title>Node5&#45;&gt;Node4</title>
<path fill="none" stroke="midnightblue" d="M174.795,-110.829C174.795,-101.577 174.795,-90.8798 174.795,-83.7014"/>
<polygon fill="midnightblue" stroke="midnightblue" points="171.296,-111.062 174.795,-121.062 178.296,-111.063 171.296,-111.062"/>
</g>
</g>
</svg>
