<?xml version="1.0" encoding="UTF-8" standalone="no"?>
<!DOCTYPE svg PUBLIC "-//W3C//DTD SVG 1.1//EN"
 "http://www.w3.org/Graphics/SVG/1.1/DTD/svg11.dtd">
<!-- Generated by graphviz version 2.38.0 (20140413.2041)
 -->
<!-- Title: vtkvmtkPolyDataLaplaceBeltramiStencil Pages: 1 -->
<svg width="170pt" height="367pt"
 viewBox="0.00 0.00 170.17 367.00" xmlns="http://www.w3.org/2000/svg" xmlns:xlink="http://www.w3.org/1999/xlink">
<g id="graph0" class="graph" transform="scale(1 1) rotate(0) translate(4 363)">
<title>vtkvmtkPolyDataLaplaceBeltramiStencil</title>
<polygon fill="white" stroke="none" points="-4,4 -4,-363 166.167,-363 166.167,4 -4,4"/>
<!-- Node9 -->
<g id="node1" class="node"><title>Node9</title>
<polygon fill="#bfbfbf" stroke="black" points="0,-0.5 0,-28.5 162.167,-28.5 162.167,-0.5 0,-0.5"/>
<text text-anchor="start" x="8" y="-16.5" font-family="Helvetica,sans-Serif" font-size="10.00">vtkvmtkPolyDataLaplaceBeltrami</text>
<text text-anchor="middle" x="81.0835" y="-6.5" font-family="Helvetica,sans-Serif" font-size="10.00">Stencil</text>
</g>
<!-- Node10 -->
<g id="node2" class="node"><title>Node10</title>
<g id="a_node2"><a xlink:href="classvtkvmtkPolyDataManifoldStencil.html" target="_top" xlink:title="Base class for stencils applied to a manifold surface. ">
<polygon fill="white" stroke="black" points="1.9458,-65.5 1.9458,-83.5 160.221,-83.5 160.221,-65.5 1.9458,-65.5"/>
<text text-anchor="middle" x="81.0835" y="-71.5" font-family="Helvetica,sans-Serif" font-size="10.00">vtkvmtkPolyDataManifoldStencil</text>
</a>
</g>
</g>
<!-- Node10&#45;&gt;Node9 -->
<g id="edge1" class="edge"><title>Node10&#45;&gt;Node9</title>
<path fill="none" stroke="midnightblue" d="M81.0835,-55.3209C81.0835,-46.747 81.0835,-36.6999 81.0835,-28.8428"/>
<polygon fill="midnightblue" stroke="midnightblue" points="77.5836,-55.4353 81.0835,-65.4353 84.5836,-55.4354 77.5836,-55.4353"/>
</g>
<!-- Node11 -->
<g id="node3" class="node"><title>Node11</title>
<g id="a_node3"><a xlink:href="classvtkvmtkStencil.html" target="_top" xlink:title="Apply a weighting matrix to a single neighborhood of a data set. ">
<polygon fill="white" stroke="black" points="41.1328,-120.5 41.1328,-138.5 121.034,-138.5 121.034,-120.5 41.1328,-120.5"/>
<text text-anchor="middle" x="81.0835" y="-126.5" font-family="Helvetica,sans-Serif" font-size="10.00">vtkvmtkStencil</text>
</a>
</g>
</g>
<!-- Node11&#45;&gt;Node10 -->
<g id="edge2" class="edge"><title>Node11&#45;&gt;Node10</title>
<path fill="none" stroke="midnightblue" d="M81.0835,-110.175C81.0835,-101.094 81.0835,-90.5949 81.0835,-83.5496"/>
<polygon fill="midnightblue" stroke="midnightblue" points="77.5836,-110.219 81.0835,-120.219 84.5836,-110.219 77.5836,-110.219"/>
</g>
<!-- Node12 -->
<g id="node4" class="node"><title>Node12</title>
<g id="a_node4"><a xlink:href="classvtkvmtkNeighborhood.html" target="_top" xlink:title="Query the neighborhood surrounding the set point id in an data set item. ">
<polygon fill="white" stroke="black" points="24.7266,-175.5 24.7266,-193.5 137.44,-193.5 137.44,-175.5 24.7266,-175.5"/>
<text text-anchor="middle" x="81.0835" y="-181.5" font-family="Helvetica,sans-Serif" font-size="10.00">vtkvmtkNeighborhood</text>
</a>
</g>
</g>
<!-- Node12&#45;&gt;Node11 -->
<g id="edge3" class="edge"><title>Node12&#45;&gt;Node11</title>
<path fill="none" stroke="midnightblue" d="M81.0835,-165.175C81.0835,-156.094 81.0835,-145.595 81.0835,-138.55"/>
<polygon fill="midnightblue" stroke="midnightblue" points="77.5836,-165.219 81.0835,-175.219 84.5836,-165.219 77.5836,-165.219"/>
</g>
<!-- Node13 -->
<g id="node5" class="node"><title>Node13</title>
<g id="a_node5"><a xlink:href="classvtkvmtkDataSetItem.html" target="_top" xlink:title="create an item instance with a data set and particular point id. ">
<polygon fill="white" stroke="black" points="28.3496,-230.5 28.3496,-248.5 133.817,-248.5 133.817,-230.5 28.3496,-230.5"/>
<text text-anchor="middle" x="81.0835" y="-236.5" font-family="Helvetica,sans-Serif" font-size="10.00">vtkvmtkDataSetItem</text>
</a>
</g>
</g>
<!-- Node13&#45;&gt;Node12 -->
<g id="edge4" class="edge"><title>Node13&#45;&gt;Node12</title>
<path fill="none" stroke="midnightblue" d="M81.0835,-220.175C81.0835,-211.094 81.0835,-200.595 81.0835,-193.55"/>
<polygon fill="midnightblue" stroke="midnightblue" points="77.5836,-220.219 81.0835,-230.219 84.5836,-220.219 77.5836,-220.219"/>
</g>
<!-- Node14 -->
<g id="node6" class="node"><title>Node14</title>
<g id="a_node6"><a xlink:href="classvtkvmtkItem.html" target="_top" xlink:title="Base class for the construction of neighborhoods and stencil from a set of points. ">
<polygon fill="white" stroke="black" points="46.416,-285.5 46.416,-303.5 115.751,-303.5 115.751,-285.5 46.416,-285.5"/>
<text text-anchor="middle" x="81.0835" y="-291.5" font-family="Helvetica,sans-Serif" font-size="10.00">vtkvmtkItem</text>
</a>
</g>
</g>
<!-- Node14&#45;&gt;Node13 -->
<g id="edge5" class="edge"><title>Node14&#45;&gt;Node13</title>
<path fill="none" stroke="midnightblue" d="M81.0835,-275.175C81.0835,-266.094 81.0835,-255.595 81.0835,-248.55"/>
<polygon fill="midnightblue" stroke="midnightblue" points="77.5836,-275.219 81.0835,-285.219 84.5836,-275.219 77.5836,-275.219"/>
</g>
<!-- Node15 -->
<g id="node7" class="node"><title>Node15</title>
<polygon fill="white" stroke="#bfbfbf" points="52.2437,-340.5 52.2437,-358.5 109.923,-358.5 109.923,-340.5 52.2437,-340.5"/>
<text text-anchor="middle" x="81.0835" y="-346.5" font-family="Helvetica,sans-Serif" font-size="10.00">vtkObject</text>
</g>
<!-- Node15&#45;&gt;Node14 -->
<g id="edge6" class="edge"><title>Node15&#45;&gt;Node14</title>
<path fill="none" stroke="midnightblue" d="M81.0835,-330.175C81.0835,-321.094 81.0835,-310.595 81.0835,-303.55"/>
<polygon fill="midnightblue" stroke="midnightblue" points="77.5836,-330.219 81.0835,-340.219 84.5836,-330.219 77.5836,-330.219"/>
</g>
</g>
</svg>
