<?xml version="1.0" encoding="UTF-8" standalone="no"?>
<!DOCTYPE svg PUBLIC "-//W3C//DTD SVG 1.1//EN"
 "http://www.w3.org/Graphics/SVG/1.1/DTD/svg11.dtd">
<!-- Generated by graphviz version 2.38.0 (20140413.2041)
 -->
<!-- Title: vtkvmtkPolyDataAreaWeightedUmbrellaStencil Pages: 1 -->
<svg width="166pt" height="312pt"
 viewBox="0.00 0.00 166.28 312.00" xmlns="http://www.w3.org/2000/svg" xmlns:xlink="http://www.w3.org/1999/xlink">
<g id="graph0" class="graph" transform="scale(1 1) rotate(0) translate(4 308)">
<title>vtkvmtkPolyDataAreaWeightedUmbrellaStencil</title>
<polygon fill="white" stroke="none" points="-4,4 -4,-308 162.275,-308 162.275,4 -4,4"/>
<!-- Node6 -->
<g id="node1" class="node"><title>Node6</title>
<polygon fill="#bfbfbf" stroke="black" points="2.30957,-0.5 2.30957,-28.5 155.966,-28.5 155.966,-0.5 2.30957,-0.5"/>
<text text-anchor="start" x="10.3096" y="-16.5" font-family="Helvetica,sans-Serif" font-size="10.00">vtkvmtkPolyDataAreaWeighted</text>
<text text-anchor="middle" x="79.1377" y="-6.5" font-family="Helvetica,sans-Serif" font-size="10.00">UmbrellaStencil</text>
</g>
<!-- Node7 -->
<g id="node2" class="node"><title>Node7</title>
<g id="a_node2"><a xlink:href="classvtkvmtkPolyDataManifoldStencil.html" target="_top" xlink:title=".. ">
<polygon fill="white" stroke="black" points="0,-65.5 0,-83.5 158.275,-83.5 158.275,-65.5 0,-65.5"/>
<text text-anchor="middle" x="79.1377" y="-71.5" font-family="Helvetica,sans-Serif" font-size="10.00">vtkvmtkPolyDataManifoldStencil</text>
</a>
</g>
</g>
<!-- Node7&#45;&gt;Node6 -->
<g id="edge1" class="edge"><title>Node7&#45;&gt;Node6</title>
<path fill="none" stroke="midnightblue" d="M79.1377,-55.3209C79.1377,-46.747 79.1377,-36.6999 79.1377,-28.8428"/>
<polygon fill="midnightblue" stroke="midnightblue" points="75.6378,-55.4353 79.1377,-65.4353 82.6378,-55.4354 75.6378,-55.4353"/>
</g>
<!-- Node8 -->
<g id="node3" class="node"><title>Node8</title>
<g id="a_node3"><a xlink:href="classvtkvmtkStencil.html" target="_top" xlink:title="Apply a weighting matrix to a single neighborhood of a data set. ">
<polygon fill="white" stroke="black" points="39.187,-120.5 39.187,-138.5 119.088,-138.5 119.088,-120.5 39.187,-120.5"/>
<text text-anchor="middle" x="79.1377" y="-126.5" font-family="Helvetica,sans-Serif" font-size="10.00">vtkvmtkStencil</text>
</a>
</g>
</g>
<!-- Node8&#45;&gt;Node7 -->
<g id="edge2" class="edge"><title>Node8&#45;&gt;Node7</title>
<path fill="none" stroke="midnightblue" d="M79.1377,-110.175C79.1377,-101.094 79.1377,-90.5949 79.1377,-83.5496"/>
<polygon fill="midnightblue" stroke="midnightblue" points="75.6378,-110.219 79.1377,-120.219 82.6378,-110.219 75.6378,-110.219"/>
</g>
<!-- Node9 -->
<g id="node4" class="node"><title>Node9</title>
<g id="a_node4"><a xlink:href="classvtkvmtkNeighborhood.html" target="_top" xlink:title="Query the neighborhood surrounding the set point id in an data set item. ">
<polygon fill="white" stroke="black" points="22.7808,-175.5 22.7808,-193.5 135.495,-193.5 135.495,-175.5 22.7808,-175.5"/>
<text text-anchor="middle" x="79.1377" y="-181.5" font-family="Helvetica,sans-Serif" font-size="10.00">vtkvmtkNeighborhood</text>
</a>
</g>
</g>
<!-- Node9&#45;&gt;Node8 -->
<g id="edge3" class="edge"><title>Node9&#45;&gt;Node8</title>
<path fill="none" stroke="midnightblue" d="M79.1377,-165.175C79.1377,-156.094 79.1377,-145.595 79.1377,-138.55"/>
<polygon fill="midnightblue" stroke="midnightblue" points="75.6378,-165.219 79.1377,-175.219 82.6378,-165.219 75.6378,-165.219"/>
</g>
<!-- Node10 -->
<g id="node5" class="node"><title>Node10</title>
<g id="a_node5"><a xlink:href="classvtkvmtkDataSetItem.html" target="_top" xlink:title="create an item instance with a data set and particular point id. ">
<polygon fill="white" stroke="black" points="26.4038,-230.5 26.4038,-248.5 131.872,-248.5 131.872,-230.5 26.4038,-230.5"/>
<text text-anchor="middle" x="79.1377" y="-236.5" font-family="Helvetica,sans-Serif" font-size="10.00">vtkvmtkDataSetItem</text>
</a>
</g>
</g>
<!-- Node10&#45;&gt;Node9 -->
<g id="edge4" class="edge"><title>Node10&#45;&gt;Node9</title>
<path fill="none" stroke="midnightblue" d="M79.1377,-220.175C79.1377,-211.094 79.1377,-200.595 79.1377,-193.55"/>
<polygon fill="midnightblue" stroke="midnightblue" points="75.6378,-220.219 79.1377,-230.219 82.6378,-220.219 75.6378,-220.219"/>
</g>
<!-- Node11 -->
<g id="node6" class="node"><title>Node11</title>
<g id="a_node6"><a xlink:href="classvtkvmtkItem.html" target="_top" xlink:title="Base class for the construction of neighborhoods and stencil from a set of points. ">
<polygon fill="white" stroke="black" points="44.4702,-285.5 44.4702,-303.5 113.805,-303.5 113.805,-285.5 44.4702,-285.5"/>
<text text-anchor="middle" x="79.1377" y="-291.5" font-family="Helvetica,sans-Serif" font-size="10.00">vtkvmtkItem</text>
</a>
</g>
</g>
<!-- Node11&#45;&gt;Node10 -->
<g id="edge5" class="edge"><title>Node11&#45;&gt;Node10</title>
<path fill="none" stroke="midnightblue" d="M79.1377,-275.175C79.1377,-266.094 79.1377,-255.595 79.1377,-248.55"/>
<polygon fill="midnightblue" stroke="midnightblue" points="75.6378,-275.219 79.1377,-285.219 82.6378,-275.219 75.6378,-275.219"/>
</g>
</g>
</svg>
