<?xml version="1.0" encoding="UTF-8" standalone="no"?>
<!DOCTYPE svg PUBLIC "-//W3C//DTD SVG 1.1//EN"
 "http://www.w3.org/Graphics/SVG/1.1/DTD/svg11.dtd">
<!-- Generated by graphviz version 2.38.0 (20140413.2041)
 -->
<!-- Title: vtkvmtkPolyDataCenterlineMetricFilter Pages: 1 -->
<svg width="464pt" height="84pt"
 viewBox="0.00 0.00 463.68 84.00" xmlns="http://www.w3.org/2000/svg" xmlns:xlink="http://www.w3.org/1999/xlink">
<g id="graph0" class="graph" transform="scale(1 1) rotate(0) translate(4 80)">
<title>vtkvmtkPolyDataCenterlineMetricFilter</title>
<polygon fill="white" stroke="none" points="-4,4 -4,-80 459.679,-80 459.679,4 -4,4"/>
<!-- Node0 -->
<g id="node1" class="node"><title>Node0</title>
<polygon fill="#bfbfbf" stroke="black" points="147.591,-23.5 147.591,-51.5 283.635,-51.5 283.635,-23.5 147.591,-23.5"/>
<text text-anchor="start" x="155.591" y="-39.5" font-family="Helvetica,sans-Serif" font-size="10.00">vtkvmtkPolyDataCenterline</text>
<text text-anchor="middle" x="215.613" y="-29.5" font-family="Helvetica,sans-Serif" font-size="10.00">MetricFilter</text>
</g>
<!-- Node2 -->
<g id="node3" class="node"><title>Node2</title>
<g id="a_node3"><a xlink:href="classvtkvmtkPolyDataCenterlineAbscissaMetricFilter.html" target="_top" xlink:title="Project the abscissa metric of the nearest centerline point to every point of a surface. ">
<polygon fill="white" stroke="black" points="319.635,-47.5 319.635,-75.5 455.679,-75.5 455.679,-47.5 319.635,-47.5"/>
<text text-anchor="start" x="327.635" y="-63.5" font-family="Helvetica,sans-Serif" font-size="10.00">vtkvmtkPolyDataCenterline</text>
<text text-anchor="middle" x="387.657" y="-53.5" font-family="Helvetica,sans-Serif" font-size="10.00">AbscissaMetricFilter</text>
</a>
</g>
</g>
<!-- Node0&#45;&gt;Node2 -->
<g id="edge2" class="edge"><title>Node0&#45;&gt;Node2</title>
<path fill="none" stroke="midnightblue" d="M293.779,-48.3912C302.323,-49.5971 310.974,-50.8181 319.382,-52.0049"/>
<polygon fill="midnightblue" stroke="midnightblue" points="294.21,-44.9174 283.819,-46.9854 293.231,-51.8487 294.21,-44.9174"/>
</g>
<!-- Node3 -->
<g id="node4" class="node"><title>Node3</title>
<g id="a_node4"><a xlink:href="classvtkvmtkPolyDataCenterlineAngularMetricFilter.html" target="_top" xlink:title="create an angular metric array on each branch of a split surface representing he periodic circumferen...">
<polygon fill="white" stroke="black" points="319.635,-0.5 319.635,-28.5 455.679,-28.5 455.679,-0.5 319.635,-0.5"/>
<text text-anchor="start" x="327.635" y="-16.5" font-family="Helvetica,sans-Serif" font-size="10.00">vtkvmtkPolyDataCenterline</text>
<text text-anchor="middle" x="387.657" y="-6.5" font-family="Helvetica,sans-Serif" font-size="10.00">AngularMetricFilter</text>
</a>
</g>
</g>
<!-- Node0&#45;&gt;Node3 -->
<g id="edge3" class="edge"><title>Node0&#45;&gt;Node3</title>
<path fill="none" stroke="midnightblue" d="M293.779,-27.0626C302.323,-25.9069 310.974,-24.7368 319.382,-23.5995"/>
<polygon fill="midnightblue" stroke="midnightblue" points="293.259,-23.6009 283.819,-28.4098 294.198,-30.5377 293.259,-23.6009"/>
</g>
<!-- Node1 -->
<g id="node2" class="node"><title>Node1</title>
<polygon fill="white" stroke="#bfbfbf" points="0,-28.5 0,-46.5 111.591,-46.5 111.591,-28.5 0,-28.5"/>
<text text-anchor="middle" x="55.7954" y="-34.5" font-family="Helvetica,sans-Serif" font-size="10.00">vtkPolyDataAlgorithm</text>
</g>
<!-- Node1&#45;&gt;Node0 -->
<g id="edge1" class="edge"><title>Node1&#45;&gt;Node0</title>
<path fill="none" stroke="midnightblue" d="M122.094,-37.5C130.483,-37.5 139.084,-37.5 147.502,-37.5"/>
<polygon fill="midnightblue" stroke="midnightblue" points="121.992,-34.0001 111.992,-37.5 121.992,-41.0001 121.992,-34.0001"/>
</g>
</g>
</svg>
