<?xml version="1.0" encoding="UTF-8" standalone="no"?>
<!DOCTYPE svg PUBLIC "-//W3C//DTD SVG 1.1//EN"
 "http://www.w3.org/Graphics/SVG/1.1/DTD/svg11.dtd">
<!-- Generated by graphviz version 2.38.0 (20140413.2041)
 -->
<!-- Title: vtkvmtkPolyDataCenterlineMetricFilter Pages: 1 -->
<svg width="316pt" height="84pt"
 viewBox="0.00 0.00 316.09 84.00" xmlns="http://www.w3.org/2000/svg" xmlns:xlink="http://www.w3.org/1999/xlink">
<g id="graph0" class="graph" transform="scale(1 1) rotate(0) translate(4 80)">
<title>vtkvmtkPolyDataCenterlineMetricFilter</title>
<polygon fill="white" stroke="none" points="-4,4 -4,-80 312.088,-80 312.088,4 -4,4"/>
<!-- Node0 -->
<g id="node1" class="node"><title>Node0</title>
<polygon fill="#bfbfbf" stroke="black" points="0,-23.5 0,-51.5 136.044,-51.5 136.044,-23.5 0,-23.5"/>
<text text-anchor="start" x="8" y="-39.5" font-family="Helvetica,sans-Serif" font-size="10.00">vtkvmtkPolyDataCenterline</text>
<text text-anchor="middle" x="68.022" y="-29.5" font-family="Helvetica,sans-Serif" font-size="10.00">MetricFilter</text>
</g>
<!-- Node1 -->
<g id="node2" class="node"><title>Node1</title>
<g id="a_node2"><a xlink:href="classvtkvmtkPolyDataCenterlineAbscissaMetricFilter.html" target="_top" xlink:title="Project the abscissa metric of the nearest centerline point to every point of a surface. ">
<polygon fill="white" stroke="black" points="172.044,-47.5 172.044,-75.5 308.088,-75.5 308.088,-47.5 172.044,-47.5"/>
<text text-anchor="start" x="180.044" y="-63.5" font-family="Helvetica,sans-Serif" font-size="10.00">vtkvmtkPolyDataCenterline</text>
<text text-anchor="middle" x="240.066" y="-53.5" font-family="Helvetica,sans-Serif" font-size="10.00">AbscissaMetricFilter</text>
</a>
</g>
</g>
<!-- Node0&#45;&gt;Node1 -->
<g id="edge1" class="edge"><title>Node0&#45;&gt;Node1</title>
<path fill="none" stroke="midnightblue" d="M146.188,-48.3912C154.732,-49.5971 163.383,-50.8181 171.791,-52.0049"/>
<polygon fill="midnightblue" stroke="midnightblue" points="146.619,-44.9174 136.228,-46.9854 145.641,-51.8487 146.619,-44.9174"/>
</g>
<!-- Node2 -->
<g id="node3" class="node"><title>Node2</title>
<g id="a_node3"><a xlink:href="classvtkvmtkPolyDataCenterlineAngularMetricFilter.html" target="_top" xlink:title="create an angular metric array on each branch of a split surface representing he periodic circumferen...">
<polygon fill="white" stroke="black" points="172.044,-0.5 172.044,-28.5 308.088,-28.5 308.088,-0.5 172.044,-0.5"/>
<text text-anchor="start" x="180.044" y="-16.5" font-family="Helvetica,sans-Serif" font-size="10.00">vtkvmtkPolyDataCenterline</text>
<text text-anchor="middle" x="240.066" y="-6.5" font-family="Helvetica,sans-Serif" font-size="10.00">AngularMetricFilter</text>
</a>
</g>
</g>
<!-- Node0&#45;&gt;Node2 -->
<g id="edge2" class="edge"><title>Node0&#45;&gt;Node2</title>
<path fill="none" stroke="midnightblue" d="M146.188,-27.0626C154.732,-25.9069 163.383,-24.7368 171.791,-23.5995"/>
<polygon fill="midnightblue" stroke="midnightblue" points="145.668,-23.6009 136.228,-28.4098 146.607,-30.5377 145.668,-23.6009"/>
</g>
</g>
</svg>
