<?xml version="1.0" encoding="UTF-8" standalone="no"?>
<!DOCTYPE svg PUBLIC "-//W3C//DTD SVG 1.1//EN"
 "http://www.w3.org/Graphics/SVG/1.1/DTD/svg11.dtd">
<!-- Generated by graphviz version 2.38.0 (20140413.2041)
 -->
<!-- Title: vtkvmtkPolyDataManifoldNeighborhood Pages: 1 -->
<svg width="199pt" height="257pt"
 viewBox="0.00 0.00 199.09 257.00" xmlns="http://www.w3.org/2000/svg" xmlns:xlink="http://www.w3.org/1999/xlink">
<g id="graph0" class="graph" transform="scale(1 1) rotate(0) translate(4 253)">
<title>vtkvmtkPolyDataManifoldNeighborhood</title>
<polygon fill="white" stroke="none" points="-4,4 -4,-253 195.088,-253 195.088,4 -4,4"/>
<!-- Node0 -->
<g id="node1" class="node"><title>Node0</title>
<polygon fill="#bfbfbf" stroke="black" points="0,-65.5 0,-83.5 191.088,-83.5 191.088,-65.5 0,-65.5"/>
<text text-anchor="middle" x="95.5439" y="-71.5" font-family="Helvetica,sans-Serif" font-size="10.00">vtkvmtkPolyDataManifoldNeighborhood</text>
</g>
<!-- Node4 -->
<g id="node5" class="node"><title>Node4</title>
<g id="a_node5"><a xlink:href="classvtkvmtkPolyDataManifoldExtendedNeighborhood.html" target="_top" xlink:title=".. ">
<polygon fill="white" stroke="black" points="10.2856,-0.5 10.2856,-28.5 180.802,-28.5 180.802,-0.5 10.2856,-0.5"/>
<text text-anchor="start" x="18.2856" y="-16.5" font-family="Helvetica,sans-Serif" font-size="10.00">vtkvmtkPolyDataManifoldExtended</text>
<text text-anchor="middle" x="95.5439" y="-6.5" font-family="Helvetica,sans-Serif" font-size="10.00">Neighborhood</text>
</a>
</g>
</g>
<!-- Node0&#45;&gt;Node4 -->
<g id="edge4" class="edge"><title>Node0&#45;&gt;Node4</title>
<path fill="none" stroke="midnightblue" d="M95.5439,-55.3209C95.5439,-46.747 95.5439,-36.6999 95.5439,-28.8428"/>
<polygon fill="midnightblue" stroke="midnightblue" points="92.044,-55.4353 95.5439,-65.4353 99.044,-55.4354 92.044,-55.4353"/>
</g>
<!-- Node1 -->
<g id="node2" class="node"><title>Node1</title>
<g id="a_node2"><a xlink:href="classvtkvmtkNeighborhood.html" target="_top" xlink:title="Query the neighborhood surrounding the set point id in an data set item. ">
<polygon fill="white" stroke="black" points="39.187,-120.5 39.187,-138.5 151.901,-138.5 151.901,-120.5 39.187,-120.5"/>
<text text-anchor="middle" x="95.5439" y="-126.5" font-family="Helvetica,sans-Serif" font-size="10.00">vtkvmtkNeighborhood</text>
</a>
</g>
</g>
<!-- Node1&#45;&gt;Node0 -->
<g id="edge1" class="edge"><title>Node1&#45;&gt;Node0</title>
<path fill="none" stroke="midnightblue" d="M95.5439,-110.175C95.5439,-101.094 95.5439,-90.5949 95.5439,-83.5496"/>
<polygon fill="midnightblue" stroke="midnightblue" points="92.044,-110.219 95.5439,-120.219 99.044,-110.219 92.044,-110.219"/>
</g>
<!-- Node2 -->
<g id="node3" class="node"><title>Node2</title>
<g id="a_node3"><a xlink:href="classvtkvmtkDataSetItem.html" target="_top" xlink:title="create an item instance with a data set and particular point id. ">
<polygon fill="white" stroke="black" points="42.8101,-175.5 42.8101,-193.5 148.278,-193.5 148.278,-175.5 42.8101,-175.5"/>
<text text-anchor="middle" x="95.5439" y="-181.5" font-family="Helvetica,sans-Serif" font-size="10.00">vtkvmtkDataSetItem</text>
</a>
</g>
</g>
<!-- Node2&#45;&gt;Node1 -->
<g id="edge2" class="edge"><title>Node2&#45;&gt;Node1</title>
<path fill="none" stroke="midnightblue" d="M95.5439,-165.175C95.5439,-156.094 95.5439,-145.595 95.5439,-138.55"/>
<polygon fill="midnightblue" stroke="midnightblue" points="92.044,-165.219 95.5439,-175.219 99.044,-165.219 92.044,-165.219"/>
</g>
<!-- Node3 -->
<g id="node4" class="node"><title>Node3</title>
<g id="a_node4"><a xlink:href="classvtkvmtkItem.html" target="_top" xlink:title="Base class for the construction of neighborhoods and stencil from a set of points. ">
<polygon fill="white" stroke="black" points="60.8765,-230.5 60.8765,-248.5 130.211,-248.5 130.211,-230.5 60.8765,-230.5"/>
<text text-anchor="middle" x="95.5439" y="-236.5" font-family="Helvetica,sans-Serif" font-size="10.00">vtkvmtkItem</text>
</a>
</g>
</g>
<!-- Node3&#45;&gt;Node2 -->
<g id="edge3" class="edge"><title>Node3&#45;&gt;Node2</title>
<path fill="none" stroke="midnightblue" d="M95.5439,-220.175C95.5439,-211.094 95.5439,-200.595 95.5439,-193.55"/>
<polygon fill="midnightblue" stroke="midnightblue" points="92.044,-220.219 95.5439,-230.219 99.044,-220.219 92.044,-220.219"/>
</g>
</g>
</svg>
