<?xml version="1.0" encoding="UTF-8" standalone="no"?>
<!DOCTYPE svg PUBLIC "-//W3C//DTD SVG 1.1//EN"
 "http://www.w3.org/Graphics/SVG/1.1/DTD/svg11.dtd">
<!-- Generated by graphviz version 2.38.0 (20140413.2041)
 -->
<!-- Title: vtkvmtkUnstructuredGridNeighborhood Pages: 1 -->
<svg width="197pt" height="247pt"
 viewBox="0.00 0.00 196.85 247.00" xmlns="http://www.w3.org/2000/svg" xmlns:xlink="http://www.w3.org/1999/xlink">
<g id="graph0" class="graph" transform="scale(1 1) rotate(0) translate(4 243)">
<title>vtkvmtkUnstructuredGridNeighborhood</title>
<polygon fill="white" stroke="none" points="-4,4 -4,-243 192.852,-243 192.852,4 -4,4"/>
<!-- Node5 -->
<g id="node1" class="node"><title>Node5</title>
<polygon fill="#bfbfbf" stroke="black" points="0,-0.5 0,-18.5 188.852,-18.5 188.852,-0.5 0,-0.5"/>
<text text-anchor="middle" x="94.4258" y="-6.5" font-family="Helvetica,sans-Serif" font-size="10.00">vtkvmtkUnstructuredGridNeighborhood</text>
</g>
<!-- Node6 -->
<g id="node2" class="node"><title>Node6</title>
<g id="a_node2"><a xlink:href="classvtkvmtkNeighborhood.html" target="_top" xlink:title="Query the neighborhood surrounding the set point id in an data set item. ">
<polygon fill="white" stroke="black" points="38.0688,-55.5 38.0688,-73.5 150.783,-73.5 150.783,-55.5 38.0688,-55.5"/>
<text text-anchor="middle" x="94.4258" y="-61.5" font-family="Helvetica,sans-Serif" font-size="10.00">vtkvmtkNeighborhood</text>
</a>
</g>
</g>
<!-- Node6&#45;&gt;Node5 -->
<g id="edge1" class="edge"><title>Node6&#45;&gt;Node5</title>
<path fill="none" stroke="midnightblue" d="M94.4258,-45.1746C94.4258,-36.0945 94.4258,-25.5949 94.4258,-18.5496"/>
<polygon fill="midnightblue" stroke="midnightblue" points="90.9259,-45.2187 94.4258,-55.2188 97.9259,-45.2188 90.9259,-45.2187"/>
</g>
<!-- Node7 -->
<g id="node3" class="node"><title>Node7</title>
<g id="a_node3"><a xlink:href="classvtkvmtkDataSetItem.html" target="_top" xlink:title="create an item instance with a data set and particular point id. ">
<polygon fill="white" stroke="black" points="41.6919,-110.5 41.6919,-128.5 147.16,-128.5 147.16,-110.5 41.6919,-110.5"/>
<text text-anchor="middle" x="94.4258" y="-116.5" font-family="Helvetica,sans-Serif" font-size="10.00">vtkvmtkDataSetItem</text>
</a>
</g>
</g>
<!-- Node7&#45;&gt;Node6 -->
<g id="edge2" class="edge"><title>Node7&#45;&gt;Node6</title>
<path fill="none" stroke="midnightblue" d="M94.4258,-100.175C94.4258,-91.0945 94.4258,-80.5949 94.4258,-73.5496"/>
<polygon fill="midnightblue" stroke="midnightblue" points="90.9259,-100.219 94.4258,-110.219 97.9259,-100.219 90.9259,-100.219"/>
</g>
<!-- Node8 -->
<g id="node4" class="node"><title>Node8</title>
<g id="a_node4"><a xlink:href="classvtkvmtkItem.html" target="_top" xlink:title="Base class for the construction of neighborhoods and stencil from a set of points. ">
<polygon fill="white" stroke="black" points="59.7583,-165.5 59.7583,-183.5 129.093,-183.5 129.093,-165.5 59.7583,-165.5"/>
<text text-anchor="middle" x="94.4258" y="-171.5" font-family="Helvetica,sans-Serif" font-size="10.00">vtkvmtkItem</text>
</a>
</g>
</g>
<!-- Node8&#45;&gt;Node7 -->
<g id="edge3" class="edge"><title>Node8&#45;&gt;Node7</title>
<path fill="none" stroke="midnightblue" d="M94.4258,-155.175C94.4258,-146.094 94.4258,-135.595 94.4258,-128.55"/>
<polygon fill="midnightblue" stroke="midnightblue" points="90.9259,-155.219 94.4258,-165.219 97.9259,-155.219 90.9259,-155.219"/>
</g>
<!-- Node9 -->
<g id="node5" class="node"><title>Node9</title>
<polygon fill="white" stroke="#bfbfbf" points="65.5859,-220.5 65.5859,-238.5 123.266,-238.5 123.266,-220.5 65.5859,-220.5"/>
<text text-anchor="middle" x="94.4258" y="-226.5" font-family="Helvetica,sans-Serif" font-size="10.00">vtkObject</text>
</g>
<!-- Node9&#45;&gt;Node8 -->
<g id="edge4" class="edge"><title>Node9&#45;&gt;Node8</title>
<path fill="none" stroke="midnightblue" d="M94.4258,-210.175C94.4258,-201.094 94.4258,-190.595 94.4258,-183.55"/>
<polygon fill="midnightblue" stroke="midnightblue" points="90.9259,-210.219 94.4258,-220.219 97.9259,-210.219 90.9259,-210.219"/>
</g>
</g>
</svg>
