<?xml version="1.0" encoding="UTF-8" standalone="no"?>
<!DOCTYPE svg PUBLIC "-//W3C//DTD SVG 1.1//EN"
 "http://www.w3.org/Graphics/SVG/1.1/DTD/svg11.dtd">
<!-- Generated by graphviz version 2.38.0 (20140413.2041)
 -->
<!-- Title: vtkvmtkSteepestDescentLineTracer Pages: 1 -->
<svg width="154pt" height="157pt"
 viewBox="0.00 0.00 153.50 157.00" xmlns="http://www.w3.org/2000/svg" xmlns:xlink="http://www.w3.org/1999/xlink">
<g id="graph0" class="graph" transform="scale(1 1) rotate(0) translate(4 153)">
<title>vtkvmtkSteepestDescentLineTracer</title>
<polygon fill="white" stroke="none" points="-4,4 -4,-153 149.502,-153 149.502,4 -4,4"/>
<!-- Node3 -->
<g id="node1" class="node"><title>Node3</title>
<polygon fill="#bfbfbf" stroke="black" points="0.275879,-0.5 0.275879,-28.5 145.226,-28.5 145.226,-0.5 0.275879,-0.5"/>
<text text-anchor="start" x="8.27588" y="-16.5" font-family="Helvetica,sans-Serif" font-size="10.00">vtkvmtkSteepestDescentLine</text>
<text text-anchor="middle" x="72.751" y="-6.5" font-family="Helvetica,sans-Serif" font-size="10.00">Tracer</text>
</g>
<!-- Node4 -->
<g id="node2" class="node"><title>Node4</title>
<g id="a_node2"><a xlink:href="classvtkvmtkNonManifoldSteepestDescent.html" target="_top" xlink:title="Abstract class for steepest descent on a polygonal non&#45;manifold. ">
<polygon fill="white" stroke="black" points="0,-65.5 0,-93.5 145.502,-93.5 145.502,-65.5 0,-65.5"/>
<text text-anchor="start" x="8" y="-81.5" font-family="Helvetica,sans-Serif" font-size="10.00">vtkvmtkNonManifoldSteepest</text>
<text text-anchor="middle" x="72.751" y="-71.5" font-family="Helvetica,sans-Serif" font-size="10.00">Descent</text>
</a>
</g>
</g>
<!-- Node4&#45;&gt;Node3 -->
<g id="edge1" class="edge"><title>Node4&#45;&gt;Node3</title>
<path fill="none" stroke="midnightblue" d="M72.751,-55.1641C72.751,-46.1693 72.751,-36.2205 72.751,-28.5369"/>
<polygon fill="midnightblue" stroke="midnightblue" points="69.2511,-55.4463 72.751,-65.4464 76.2511,-55.4464 69.2511,-55.4463"/>
</g>
<!-- Node5 -->
<g id="node3" class="node"><title>Node5</title>
<polygon fill="white" stroke="#bfbfbf" points="16.9556,-130.5 16.9556,-148.5 128.546,-148.5 128.546,-130.5 16.9556,-130.5"/>
<text text-anchor="middle" x="72.751" y="-136.5" font-family="Helvetica,sans-Serif" font-size="10.00">vtkPolyDataAlgorithm</text>
</g>
<!-- Node5&#45;&gt;Node4 -->
<g id="edge2" class="edge"><title>Node5&#45;&gt;Node4</title>
<path fill="none" stroke="midnightblue" d="M72.751,-120.321C72.751,-111.747 72.751,-101.7 72.751,-93.8428"/>
<polygon fill="midnightblue" stroke="midnightblue" points="69.2511,-120.435 72.751,-130.435 76.2511,-120.435 69.2511,-120.435"/>
</g>
</g>
</svg>
