<?xml version="1.0" encoding="UTF-8" standalone="no"?>
<!DOCTYPE svg PUBLIC "-//W3C//DTD SVG 1.1//EN"
 "http://www.w3.org/Graphics/SVG/1.1/DTD/svg11.dtd">
<!-- Generated by graphviz version 2.38.0 (20140413.2041)
 -->
<!-- Title: vtkvmtkPolyDataMeanCurvature Pages: 1 -->
<svg width="261pt" height="325pt"
 viewBox="0.00 0.00 261.46 325.00" xmlns="http://www.w3.org/2000/svg" xmlns:xlink="http://www.w3.org/1999/xlink">
<g id="graph0" class="graph" transform="scale(1 1) rotate(0) translate(4 321)">
<title>vtkvmtkPolyDataMeanCurvature</title>
<polygon fill="white" stroke="none" points="-4,4 -4,-321 257.463,-321 257.463,4 -4,4"/>
<!-- Node2 -->
<g id="node1" class="node"><title>Node2</title>
<polygon fill="#bfbfbf" stroke="black" points="13.1035,-0.5 13.1035,-18.5 172.487,-18.5 172.487,-0.5 13.1035,-0.5"/>
<text text-anchor="middle" x="92.7954" y="-6.5" font-family="Helvetica,sans-Serif" font-size="10.00">vtkvmtkPolyDataMeanCurvature</text>
</g>
<!-- Node3 -->
<g id="node2" class="node"><title>Node3</title>
<polygon fill="white" stroke="#bfbfbf" points="0,-65.5 0,-83.5 111.591,-83.5 111.591,-65.5 0,-65.5"/>
<text text-anchor="middle" x="55.7954" y="-71.5" font-family="Helvetica,sans-Serif" font-size="10.00">vtkPolyDataAlgorithm</text>
</g>
<!-- Node3&#45;&gt;Node2 -->
<g id="edge1" class="edge"><title>Node3&#45;&gt;Node2</title>
<path fill="none" stroke="midnightblue" d="M65.8458,-56.3872C73.0766,-44.0753 82.5007,-28.0288 88.0741,-18.539"/>
<polygon fill="midnightblue" stroke="midnightblue" points="62.6788,-54.8685 60.6325,-65.2639 68.7148,-58.4135 62.6788,-54.8685"/>
</g>
<!-- Node4 -->
<g id="node3" class="node"><title>Node4</title>
<g id="a_node3"><a xlink:href="classvtkvmtkStencils.html" target="_top" xlink:title="Create an empty, umbrella, area weighted umbrella, finite&#45;element LP, or finite&#45;volume finite&#45;element...">
<polygon fill="white" stroke="black" points="129.345,-65.5 129.345,-83.5 214.246,-83.5 214.246,-65.5 129.345,-65.5"/>
<text text-anchor="middle" x="171.795" y="-71.5" font-family="Helvetica,sans-Serif" font-size="10.00">vtkvmtkStencils</text>
</a>
</g>
</g>
<!-- Node4&#45;&gt;Node2 -->
<g id="edge2" class="edge"><title>Node4&#45;&gt;Node2</title>
<path fill="none" stroke="#9a32cd" stroke-dasharray="5,2" d="M153.475,-58.8899C137.726,-46.3311 115.601,-28.6865 102.876,-18.539"/>
<polygon fill="#9a32cd" stroke="#9a32cd" points="151.467,-61.7654 161.468,-65.2639 155.831,-56.2925 151.467,-61.7654"/>
<text text-anchor="middle" x="155.692" y="-39" font-family="Helvetica,sans-Serif" font-size="10.00"> Stencils</text>
</g>
<!-- Node5 -->
<g id="node4" class="node"><title>Node5</title>
<g id="a_node4"><a xlink:href="classvtkvmtkDataSetItems.html" target="_top" xlink:title="Create a collection of data set items, one for every point within the data set. ">
<polygon fill="white" stroke="black" points="116.562,-121.5 116.562,-139.5 227.029,-139.5 227.029,-121.5 116.562,-121.5"/>
<text text-anchor="middle" x="171.795" y="-127.5" font-family="Helvetica,sans-Serif" font-size="10.00">vtkvmtkDataSetItems</text>
</a>
</g>
</g>
<!-- Node5&#45;&gt;Node4 -->
<g id="edge3" class="edge"><title>Node5&#45;&gt;Node4</title>
<path fill="none" stroke="midnightblue" d="M171.795,-110.829C171.795,-101.577 171.795,-90.8798 171.795,-83.7014"/>
<polygon fill="midnightblue" stroke="midnightblue" points="168.296,-111.062 171.795,-121.062 175.296,-111.063 168.296,-111.062"/>
</g>
<!-- Node6 -->
<g id="node5" class="node"><title>Node6</title>
<g id="a_node5"><a xlink:href="classvtkvmtkItems.html" target="_top" xlink:title="Control allocation and memory footprint of item instances. ">
<polygon fill="white" stroke="black" points="134.628,-177.5 134.628,-195.5 208.963,-195.5 208.963,-177.5 134.628,-177.5"/>
<text text-anchor="middle" x="171.795" y="-183.5" font-family="Helvetica,sans-Serif" font-size="10.00">vtkvmtkItems</text>
</a>
</g>
</g>
<!-- Node6&#45;&gt;Node5 -->
<g id="edge4" class="edge"><title>Node6&#45;&gt;Node5</title>
<path fill="none" stroke="midnightblue" d="M171.795,-166.829C171.795,-157.577 171.795,-146.88 171.795,-139.701"/>
<polygon fill="midnightblue" stroke="midnightblue" points="168.296,-167.062 171.795,-177.062 175.296,-167.063 168.296,-167.062"/>
</g>
<!-- Node7 -->
<g id="node6" class="node"><title>Node7</title>
<polygon fill="white" stroke="#bfbfbf" points="148.956,-298.5 148.956,-316.5 206.635,-316.5 206.635,-298.5 148.956,-298.5"/>
<text text-anchor="middle" x="177.795" y="-304.5" font-family="Helvetica,sans-Serif" font-size="10.00">vtkObject</text>
</g>
<!-- Node7&#45;&gt;Node6 -->
<g id="edge5" class="edge"><title>Node7&#45;&gt;Node6</title>
<path fill="none" stroke="midnightblue" d="M176.496,-288.378C175.925,-280.042 175.277,-270.022 174.795,-261 173.53,-237.28 172.519,-209.228 172.062,-195.66"/>
<polygon fill="midnightblue" stroke="midnightblue" points="173.011,-288.719 177.203,-298.449 179.994,-288.228 173.011,-288.719"/>
</g>
<!-- Node8 -->
<g id="node7" class="node"><title>Node8</title>
<g id="a_node7"><a xlink:href="classvtkvmtkItem.html" target="_top" xlink:title="Base class for the construction of neighborhoods and stencil from a set of points. ">
<polygon fill="white" stroke="black" points="184.128,-242.5 184.128,-260.5 253.463,-260.5 253.463,-242.5 184.128,-242.5"/>
<text text-anchor="middle" x="218.795" y="-248.5" font-family="Helvetica,sans-Serif" font-size="10.00">vtkvmtkItem</text>
</a>
</g>
</g>
<!-- Node7&#45;&gt;Node8 -->
<g id="edge7" class="edge"><title>Node7&#45;&gt;Node8</title>
<path fill="none" stroke="midnightblue" d="M190.372,-289.936C197.731,-280.244 206.699,-268.432 212.568,-260.701"/>
<polygon fill="midnightblue" stroke="midnightblue" points="187.461,-287.982 184.202,-298.062 193.036,-292.215 187.461,-287.982"/>
</g>
<!-- Node8&#45;&gt;Node6 -->
<g id="edge6" class="edge"><title>Node8&#45;&gt;Node6</title>
<path fill="none" stroke="#9a32cd" stroke-dasharray="5,2" d="M206.571,-234.114C197.32,-221.713 185.013,-205.217 177.793,-195.539"/>
<polygon fill="#9a32cd" stroke="#9a32cd" points="203.866,-236.341 212.651,-242.264 209.477,-232.156 203.866,-236.341"/>
<text text-anchor="middle" x="210.857" y="-216" font-family="Helvetica,sans-Serif" font-size="10.00"> Array</text>
</g>
</g>
</svg>
