<?xml version="1.0" encoding="UTF-8" standalone="no"?>
<!DOCTYPE svg PUBLIC "-//W3C//DTD SVG 1.1//EN"
 "http://www.w3.org/Graphics/SVG/1.1/DTD/svg11.dtd">
<!-- Generated by graphviz version 2.38.0 (20140413.2041)
 -->
<!-- Title: vtkvmtkFEAssembler Pages: 1 -->
<svg width="425pt" height="225pt"
 viewBox="0.00 0.00 424.74 225.00" xmlns="http://www.w3.org/2000/svg" xmlns:xlink="http://www.w3.org/1999/xlink">
<g id="graph0" class="graph" transform="scale(1 1) rotate(0) translate(4 221)">
<title>vtkvmtkFEAssembler</title>
<polygon fill="white" stroke="none" points="-4,4 -4,-221 420.738,-221 420.738,4 -4,4"/>
<!-- Node0 -->
<g id="node1" class="node"><title>Node0</title>
<polygon fill="#bfbfbf" stroke="black" points="93.6797,-99.5 93.6797,-117.5 203.581,-117.5 203.581,-99.5 93.6797,-99.5"/>
<text text-anchor="middle" x="148.63" y="-105.5" font-family="Helvetica,sans-Serif" font-size="10.00">vtkvmtkFEAssembler</text>
</g>
<!-- Node2 -->
<g id="node3" class="node"><title>Node2</title>
<g id="a_node3"><a xlink:href="classvtkvmtkPolyDataFEGradientAssembler.html" target="_top" xlink:title="Construct a gradient based finite element calculation on a surface. ">
<polygon fill="white" stroke="black" points="257.362,-188.5 257.362,-216.5 398.958,-216.5 398.958,-188.5 257.362,-188.5"/>
<text text-anchor="start" x="265.362" y="-204.5" font-family="Helvetica,sans-Serif" font-size="10.00">vtkvmtkPolyDataFEGradient</text>
<text text-anchor="middle" x="328.16" y="-194.5" font-family="Helvetica,sans-Serif" font-size="10.00">Assembler</text>
</a>
</g>
</g>
<!-- Node0&#45;&gt;Node2 -->
<g id="edge2" class="edge"><title>Node0&#45;&gt;Node2</title>
<path fill="none" stroke="midnightblue" d="M166.123,-125.02C183.133,-141.16 211.121,-165.311 239.581,-179.5 246.475,-182.937 253.938,-185.901 261.5,-188.447"/>
<polygon fill="midnightblue" stroke="midnightblue" points="168.315,-122.27 158.7,-117.819 163.441,-127.294 168.315,-122.27"/>
</g>
<!-- Node3 -->
<g id="node4" class="node"><title>Node3</title>
<g id="a_node4"><a xlink:href="classvtkvmtkPolyDataFELaplaceAssembler.html" target="_top" xlink:title="construct a laplacian based finite element calculation on a surface. ">
<polygon fill="white" stroke="black" points="259.024,-141.5 259.024,-169.5 397.295,-169.5 397.295,-141.5 259.024,-141.5"/>
<text text-anchor="start" x="267.024" y="-157.5" font-family="Helvetica,sans-Serif" font-size="10.00">vtkvmtkPolyDataFELaplace</text>
<text text-anchor="middle" x="328.16" y="-147.5" font-family="Helvetica,sans-Serif" font-size="10.00">Assembler</text>
</a>
</g>
</g>
<!-- Node0&#45;&gt;Node3 -->
<g id="edge3" class="edge"><title>Node0&#45;&gt;Node3</title>
<path fill="none" stroke="midnightblue" d="M193.228,-120.169C207.947,-124.099 224.474,-128.501 239.581,-132.5 250.523,-135.396 262.237,-138.483 273.425,-141.424"/>
<polygon fill="midnightblue" stroke="midnightblue" points="193.931,-116.734 183.367,-117.535 192.124,-123.497 193.931,-116.734"/>
</g>
<!-- Node4 -->
<g id="node5" class="node"><title>Node4</title>
<g id="a_node5"><a xlink:href="classvtkvmtkUnstructuredGridFEGradientAssembler.html" target="_top" xlink:title="Construct a gradient based finite element calculation on a mesh. ">
<polygon fill="white" stroke="black" points="239.581,-94.5 239.581,-122.5 416.738,-122.5 416.738,-94.5 239.581,-94.5"/>
<text text-anchor="start" x="247.581" y="-110.5" font-family="Helvetica,sans-Serif" font-size="10.00">vtkvmtkUnstructuredGridFEGradient</text>
<text text-anchor="middle" x="328.16" y="-100.5" font-family="Helvetica,sans-Serif" font-size="10.00">Assembler</text>
</a>
</g>
</g>
<!-- Node0&#45;&gt;Node4 -->
<g id="edge4" class="edge"><title>Node0&#45;&gt;Node4</title>
<path fill="none" stroke="midnightblue" d="M213.875,-108.5C222.232,-108.5 230.904,-108.5 239.561,-108.5"/>
<polygon fill="midnightblue" stroke="midnightblue" points="213.86,-105 203.86,-108.5 213.86,-112 213.86,-105"/>
</g>
<!-- Node5 -->
<g id="node6" class="node"><title>Node5</title>
<g id="a_node6"><a xlink:href="classvtkvmtkUnstructuredGridFELaplaceAssembler.html" target="_top" xlink:title="Construct a laplacian based finite element calculation on a mesh. ">
<polygon fill="white" stroke="black" points="241.244,-47.5 241.244,-75.5 415.076,-75.5 415.076,-47.5 241.244,-47.5"/>
<text text-anchor="start" x="249.244" y="-63.5" font-family="Helvetica,sans-Serif" font-size="10.00">vtkvmtkUnstructuredGridFELaplace</text>
<text text-anchor="middle" x="328.16" y="-53.5" font-family="Helvetica,sans-Serif" font-size="10.00">Assembler</text>
</a>
</g>
</g>
<!-- Node0&#45;&gt;Node5 -->
<g id="edge5" class="edge"><title>Node0&#45;&gt;Node5</title>
<path fill="none" stroke="midnightblue" d="M193.228,-96.8307C207.947,-92.9009 224.474,-88.4991 239.581,-84.5 250.523,-81.6036 262.237,-78.517 273.425,-75.5765"/>
<polygon fill="midnightblue" stroke="midnightblue" points="192.124,-93.5028 183.367,-99.4653 193.931,-100.266 192.124,-93.5028"/>
</g>
<!-- Node6 -->
<g id="node7" class="node"><title>Node6</title>
<g id="a_node7"><a xlink:href="classvtkvmtkUnstructuredGridFEVorticityAssembler.html" target="_top" xlink:title="Construct a vorticity based finite element calculation on a mesh. ">
<polygon fill="white" stroke="black" points="241.251,-0.5 241.251,-28.5 415.068,-28.5 415.068,-0.5 241.251,-0.5"/>
<text text-anchor="start" x="249.251" y="-16.5" font-family="Helvetica,sans-Serif" font-size="10.00">vtkvmtkUnstructuredGridFEVorticity</text>
<text text-anchor="middle" x="328.16" y="-6.5" font-family="Helvetica,sans-Serif" font-size="10.00">Assembler</text>
</a>
</g>
</g>
<!-- Node0&#45;&gt;Node6 -->
<g id="edge6" class="edge"><title>Node0&#45;&gt;Node6</title>
<path fill="none" stroke="midnightblue" d="M166.123,-91.9799C183.133,-75.8396 211.121,-51.6894 239.581,-37.5 246.475,-34.063 253.938,-31.0991 261.5,-28.5531"/>
<polygon fill="midnightblue" stroke="midnightblue" points="163.441,-89.7057 158.7,-99.1811 168.315,-94.7298 163.441,-89.7057"/>
</g>
<!-- Node1 -->
<g id="node2" class="node"><title>Node1</title>
<polygon fill="white" stroke="#bfbfbf" points="0,-99.5 0,-117.5 57.6797,-117.5 57.6797,-99.5 0,-99.5"/>
<text text-anchor="middle" x="28.8398" y="-105.5" font-family="Helvetica,sans-Serif" font-size="10.00">vtkObject</text>
</g>
<!-- Node1&#45;&gt;Node0 -->
<g id="edge1" class="edge"><title>Node1&#45;&gt;Node0</title>
<path fill="none" stroke="midnightblue" d="M67.7789,-108.5C76.0033,-108.5 84.8547,-108.5 93.5642,-108.5"/>
<polygon fill="midnightblue" stroke="midnightblue" points="67.7546,-105 57.7546,-108.5 67.7545,-112 67.7546,-105"/>
</g>
</g>
</svg>
