<?xml version="1.0" encoding="UTF-8" standalone="no"?>
<!DOCTYPE svg PUBLIC "-//W3C//DTD SVG 1.1//EN"
 "http://www.w3.org/Graphics/SVG/1.1/DTD/svg11.dtd">
<!-- Generated by graphviz version 2.38.0 (20140413.2041)
 -->
<!-- Title: vtkvmtkSparseMatrix Pages: 1 -->
<svg width="203pt" height="148pt"
 viewBox="0.00 0.00 202.80 148.00" xmlns="http://www.w3.org/2000/svg" xmlns:xlink="http://www.w3.org/1999/xlink">
<g id="graph0" class="graph" transform="scale(1 1) rotate(0) translate(4 144)">
<title>vtkvmtkSparseMatrix</title>
<polygon fill="white" stroke="none" points="-4,4 -4,-144 198.795,-144 198.795,4 -4,4"/>
<!-- Node2 -->
<g id="node1" class="node"><title>Node2</title>
<polygon fill="#bfbfbf" stroke="black" points="0,-0.5 0,-18.5 108.793,-18.5 108.793,-0.5 0,-0.5"/>
<text text-anchor="middle" x="54.3965" y="-6.5" font-family="Helvetica,sans-Serif" font-size="10.00">vtkvmtkSparseMatrix</text>
</g>
<!-- Node3 -->
<g id="node2" class="node"><title>Node3</title>
<polygon fill="white" stroke="#bfbfbf" points="38.5566,-121.5 38.5566,-139.5 96.2363,-139.5 96.2363,-121.5 38.5566,-121.5"/>
<text text-anchor="middle" x="67.3965" y="-127.5" font-family="Helvetica,sans-Serif" font-size="10.00">vtkObject</text>
</g>
<!-- Node3&#45;&gt;Node2 -->
<g id="edge1" class="edge"><title>Node3&#45;&gt;Node2</title>
<path fill="none" stroke="midnightblue" d="M62.6722,-111.48C60.6921,-103.172 58.579,-93.1465 57.3965,-84 54.3509,-60.4419 54.1472,-32.3165 54.2636,-18.6969"/>
<polygon fill="midnightblue" stroke="midnightblue" points="59.2805,-112.344 65.1092,-121.191 66.07,-110.64 59.2805,-112.344"/>
</g>
<!-- Node4 -->
<g id="node3" class="node"><title>Node4</title>
<g id="a_node3"><a xlink:href="classvtkvmtkSparseMatrixRow.html" target="_top" xlink:title="Class to handle operating on rows of a sparse matrix. ">
<polygon fill="white" stroke="black" points="65.9976,-65.5 65.9976,-83.5 194.795,-83.5 194.795,-65.5 65.9976,-65.5"/>
<text text-anchor="middle" x="130.396" y="-71.5" font-family="Helvetica,sans-Serif" font-size="10.00">vtkvmtkSparseMatrixRow</text>
</a>
</g>
</g>
<!-- Node3&#45;&gt;Node4 -->
<g id="edge3" class="edge"><title>Node3&#45;&gt;Node4</title>
<path fill="none" stroke="midnightblue" d="M84.7204,-114.651C96.3263,-104.703 111.176,-91.9744 120.738,-83.7786"/>
<polygon fill="midnightblue" stroke="midnightblue" points="82.2796,-112.133 76.9648,-121.299 86.8352,-117.448 82.2796,-112.133"/>
</g>
<!-- Node4&#45;&gt;Node2 -->
<g id="edge2" class="edge"><title>Node4&#45;&gt;Node2</title>
<path fill="none" stroke="#9a32cd" stroke-dasharray="5,2" d="M112.349,-58.5397C97.2279,-46.005 76.2224,-28.5925 64.0943,-18.539"/>
<polygon fill="#9a32cd" stroke="#9a32cd" points="110.528,-61.5765 120.461,-65.2639 114.996,-56.1873 110.528,-61.5765"/>
<text text-anchor="middle" x="109.458" y="-39" font-family="Helvetica,sans-Serif" font-size="10.00"> Array</text>
</g>
</g>
</svg>
