<?xml version="1.0" encoding="UTF-8" standalone="no"?>
<!DOCTYPE svg PUBLIC "-//W3C//DTD SVG 1.1//EN"
 "http://www.w3.org/Graphics/SVG/1.1/DTD/svg11.dtd">
<!-- Generated by graphviz version 2.38.0 (20140413.2041)
 -->
<!-- Title: vtkvmtkPolyDataFELaplaceAssembler Pages: 1 -->
<svg width="146pt" height="147pt"
 viewBox="0.00 0.00 146.27 147.00" xmlns="http://www.w3.org/2000/svg" xmlns:xlink="http://www.w3.org/1999/xlink">
<g id="graph0" class="graph" transform="scale(1 1) rotate(0) translate(4 143)">
<title>vtkvmtkPolyDataFELaplaceAssembler</title>
<polygon fill="white" stroke="none" points="-4,4 -4,-143 142.271,-143 142.271,4 -4,4"/>
<!-- Node0 -->
<g id="node1" class="node"><title>Node0</title>
<polygon fill="#bfbfbf" stroke="black" points="0,-0.5 0,-28.5 138.271,-28.5 138.271,-0.5 0,-0.5"/>
<text text-anchor="start" x="8" y="-16.5" font-family="Helvetica,sans-Serif" font-size="10.00">vtkvmtkPolyDataFELaplace</text>
<text text-anchor="middle" x="69.1353" y="-6.5" font-family="Helvetica,sans-Serif" font-size="10.00">Assembler</text>
</g>
<!-- Node1 -->
<g id="node2" class="node"><title>Node1</title>
<g id="a_node2"><a xlink:href="classvtkvmtkFEAssembler.html" target="_top" xlink:title="Base class on which to build to build specific finite element routines. ">
<polygon fill="white" stroke="black" points="14.1846,-65.5 14.1846,-83.5 124.086,-83.5 124.086,-65.5 14.1846,-65.5"/>
<text text-anchor="middle" x="69.1353" y="-71.5" font-family="Helvetica,sans-Serif" font-size="10.00">vtkvmtkFEAssembler</text>
</a>
</g>
</g>
<!-- Node1&#45;&gt;Node0 -->
<g id="edge1" class="edge"><title>Node1&#45;&gt;Node0</title>
<path fill="none" stroke="midnightblue" d="M69.1353,-55.3209C69.1353,-46.747 69.1353,-36.6999 69.1353,-28.8428"/>
<polygon fill="midnightblue" stroke="midnightblue" points="65.6354,-55.4353 69.1353,-65.4353 72.6354,-55.4354 65.6354,-55.4353"/>
</g>
<!-- Node2 -->
<g id="node3" class="node"><title>Node2</title>
<polygon fill="white" stroke="#bfbfbf" points="40.2954,-120.5 40.2954,-138.5 97.9751,-138.5 97.9751,-120.5 40.2954,-120.5"/>
<text text-anchor="middle" x="69.1353" y="-126.5" font-family="Helvetica,sans-Serif" font-size="10.00">vtkObject</text>
</g>
<!-- Node2&#45;&gt;Node1 -->
<g id="edge2" class="edge"><title>Node2&#45;&gt;Node1</title>
<path fill="none" stroke="midnightblue" d="M69.1353,-110.175C69.1353,-101.094 69.1353,-90.5949 69.1353,-83.5496"/>
<polygon fill="midnightblue" stroke="midnightblue" points="65.6354,-110.219 69.1353,-120.219 72.6354,-110.219 65.6354,-110.219"/>
</g>
</g>
</svg>
