<?xml version="1.0" encoding="UTF-8" standalone="no"?>
<!DOCTYPE svg PUBLIC "-//W3C//DTD SVG 1.1//EN"
 "http://www.w3.org/Graphics/SVG/1.1/DTD/svg11.dtd">
<!-- Generated by graphviz version 2.38.0 (20140413.2041)
 -->
<!-- Title: vtkvmtkPolyDataMeanCurvature Pages: 1 -->
<svg width="167pt" height="269pt"
 viewBox="0.00 0.00 167.38 269.00" xmlns="http://www.w3.org/2000/svg" xmlns:xlink="http://www.w3.org/1999/xlink">
<g id="graph0" class="graph" transform="scale(1 1) rotate(0) translate(4 265)">
<title>vtkvmtkPolyDataMeanCurvature</title>
<polygon fill="white" stroke="none" points="-4,4 -4,-265 163.384,-265 163.384,4 -4,4"/>
<!-- Node1 -->
<g id="node1" class="node"><title>Node1</title>
<polygon fill="#bfbfbf" stroke="black" points="0,-0.5 0,-18.5 159.384,-18.5 159.384,-0.5 0,-0.5"/>
<text text-anchor="middle" x="79.6919" y="-6.5" font-family="Helvetica,sans-Serif" font-size="10.00">vtkvmtkPolyDataMeanCurvature</text>
</g>
<!-- Node2 -->
<g id="node2" class="node"><title>Node2</title>
<g id="a_node2"><a xlink:href="classvtkvmtkStencils.html" target="_top" xlink:title="Create an empty, umbrella, area weighted umbrella, finite&#45;element LP, or finite&#45;volume finite&#45;element...">
<polygon fill="white" stroke="black" points="37.2412,-65.5 37.2412,-83.5 122.143,-83.5 122.143,-65.5 37.2412,-65.5"/>
<text text-anchor="middle" x="79.6919" y="-71.5" font-family="Helvetica,sans-Serif" font-size="10.00">vtkvmtkStencils</text>
</a>
</g>
</g>
<!-- Node2&#45;&gt;Node1 -->
<g id="edge1" class="edge"><title>Node2&#45;&gt;Node1</title>
<path fill="none" stroke="#9a32cd" stroke-dasharray="5,2" d="M79.6919,-54.9075C79.6919,-42.8146 79.6919,-27.6529 79.6919,-18.539"/>
<polygon fill="#9a32cd" stroke="#9a32cd" points="76.192,-55.2638 79.6919,-65.2639 83.192,-55.2639 76.192,-55.2638"/>
<text text-anchor="middle" x="98.5884" y="-39" font-family="Helvetica,sans-Serif" font-size="10.00"> Stencils</text>
</g>
<!-- Node3 -->
<g id="node3" class="node"><title>Node3</title>
<g id="a_node3"><a xlink:href="classvtkvmtkDataSetItems.html" target="_top" xlink:title="Create a collection of data set items, one for every point within the data set. ">
<polygon fill="white" stroke="black" points="24.458,-121.5 24.458,-139.5 134.926,-139.5 134.926,-121.5 24.458,-121.5"/>
<text text-anchor="middle" x="79.6919" y="-127.5" font-family="Helvetica,sans-Serif" font-size="10.00">vtkvmtkDataSetItems</text>
</a>
</g>
</g>
<!-- Node3&#45;&gt;Node2 -->
<g id="edge2" class="edge"><title>Node3&#45;&gt;Node2</title>
<path fill="none" stroke="midnightblue" d="M79.6919,-110.829C79.6919,-101.577 79.6919,-90.8798 79.6919,-83.7014"/>
<polygon fill="midnightblue" stroke="midnightblue" points="76.192,-111.062 79.6919,-121.062 83.192,-111.063 76.192,-111.062"/>
</g>
<!-- Node4 -->
<g id="node4" class="node"><title>Node4</title>
<g id="a_node4"><a xlink:href="classvtkvmtkItems.html" target="_top" xlink:title="Control allocation and memory footprint of item instances. ">
<polygon fill="white" stroke="black" points="42.5244,-177.5 42.5244,-195.5 116.859,-195.5 116.859,-177.5 42.5244,-177.5"/>
<text text-anchor="middle" x="79.6919" y="-183.5" font-family="Helvetica,sans-Serif" font-size="10.00">vtkvmtkItems</text>
</a>
</g>
</g>
<!-- Node4&#45;&gt;Node3 -->
<g id="edge3" class="edge"><title>Node4&#45;&gt;Node3</title>
<path fill="none" stroke="midnightblue" d="M79.6919,-166.829C79.6919,-157.577 79.6919,-146.88 79.6919,-139.701"/>
<polygon fill="midnightblue" stroke="midnightblue" points="76.192,-167.062 79.6919,-177.062 83.192,-167.063 76.192,-167.062"/>
</g>
<!-- Node5 -->
<g id="node5" class="node"><title>Node5</title>
<g id="a_node5"><a xlink:href="classvtkvmtkItem.html" target="_top" xlink:title="Base class for the construction of neighborhoods and stencil from a set of points. ">
<polygon fill="white" stroke="black" points="45.0244,-242.5 45.0244,-260.5 114.359,-260.5 114.359,-242.5 45.0244,-242.5"/>
<text text-anchor="middle" x="79.6919" y="-248.5" font-family="Helvetica,sans-Serif" font-size="10.00">vtkvmtkItem</text>
</a>
</g>
</g>
<!-- Node5&#45;&gt;Node4 -->
<g id="edge4" class="edge"><title>Node5&#45;&gt;Node4</title>
<path fill="none" stroke="#9a32cd" stroke-dasharray="5,2" d="M79.6919,-231.907C79.6919,-219.815 79.6919,-204.653 79.6919,-195.539"/>
<polygon fill="#9a32cd" stroke="#9a32cd" points="76.192,-232.264 79.6919,-242.264 83.192,-232.264 76.192,-232.264"/>
<text text-anchor="middle" x="92.7534" y="-216" font-family="Helvetica,sans-Serif" font-size="10.00"> Array</text>
</g>
</g>
</svg>
