<?xml version="1.0" encoding="UTF-8" standalone="no"?>
<!DOCTYPE svg PUBLIC "-//W3C//DTD SVG 1.1//EN"
 "http://www.w3.org/Graphics/SVG/1.1/DTD/svg11.dtd">
<!-- Generated by graphviz version 2.38.0 (20140413.2041)
 -->
<!-- Title: vtkvmtkIterativeClosestPointTransform Pages: 1 -->
<svg width="150pt" height="102pt"
 viewBox="0.00 0.00 149.60 102.00" xmlns="http://www.w3.org/2000/svg" xmlns:xlink="http://www.w3.org/1999/xlink">
<g id="graph0" class="graph" transform="scale(1 1) rotate(0) translate(4 98)">
<title>vtkvmtkIterativeClosestPointTransform</title>
<polygon fill="white" stroke="none" points="-4,4 -4,-98 145.596,-98 145.596,4 -4,4"/>
<!-- Node2 -->
<g id="node1" class="node"><title>Node2</title>
<polygon fill="#bfbfbf" stroke="black" points="0,-0.5 0,-28.5 141.596,-28.5 141.596,-0.5 0,-0.5"/>
<text text-anchor="start" x="8" y="-16.5" font-family="Helvetica,sans-Serif" font-size="10.00">vtkvmtkIterativeClosestPoint</text>
<text text-anchor="middle" x="70.7979" y="-6.5" font-family="Helvetica,sans-Serif" font-size="10.00">Transform</text>
</g>
<!-- Node3 -->
<g id="node2" class="node"><title>Node3</title>
<polygon fill="white" stroke="#bfbfbf" points="10.5542,-65.5 10.5542,-93.5 131.042,-93.5 131.042,-65.5 10.5542,-65.5"/>
<text text-anchor="start" x="18.5542" y="-81.5" font-family="Helvetica,sans-Serif" font-size="10.00">vtkIterativeClosestPoint</text>
<text text-anchor="middle" x="70.7979" y="-71.5" font-family="Helvetica,sans-Serif" font-size="10.00">Transform</text>
</g>
<!-- Node3&#45;&gt;Node2 -->
<g id="edge1" class="edge"><title>Node3&#45;&gt;Node2</title>
<path fill="none" stroke="midnightblue" d="M70.7979,-55.1641C70.7979,-46.1693 70.7979,-36.2205 70.7979,-28.5369"/>
<polygon fill="midnightblue" stroke="midnightblue" points="67.2979,-55.4463 70.7979,-65.4464 74.2979,-55.4464 67.2979,-55.4463"/>
</g>
</g>
</svg>
