<?xml version="1.0" encoding="UTF-8" standalone="no"?>
<!DOCTYPE svg PUBLIC "-//W3C//DTD SVG 1.1//EN"
 "http://www.w3.org/Graphics/SVG/1.1/DTD/svg11.dtd">
<!-- Generated by graphviz version 2.38.0 (20140413.2041)
 -->
<!-- Title: vtkvmtkPolyDataNeighborhood Pages: 1 -->
<svg width="161pt" height="247pt"
 viewBox="0.00 0.00 161.29 247.00" xmlns="http://www.w3.org/2000/svg" xmlns:xlink="http://www.w3.org/1999/xlink">
<g id="graph0" class="graph" transform="scale(1 1) rotate(0) translate(4 243)">
<title>vtkvmtkPolyDataNeighborhood</title>
<polygon fill="white" stroke="none" points="-4,4 -4,-243 157.29,-243 157.29,4 -4,4"/>
<!-- Node0 -->
<g id="node1" class="node"><title>Node0</title>
<polygon fill="#bfbfbf" stroke="black" points="0,-0.5 0,-18.5 153.29,-18.5 153.29,-0.5 0,-0.5"/>
<text text-anchor="middle" x="76.645" y="-6.5" font-family="Helvetica,sans-Serif" font-size="10.00">vtkvmtkPolyDataNeighborhood</text>
</g>
<!-- Node1 -->
<g id="node2" class="node"><title>Node1</title>
<g id="a_node2"><a xlink:href="classvtkvmtkNeighborhood.html" target="_top" xlink:title="Query the neighborhood surrounding the set point id in an data set item. ">
<polygon fill="white" stroke="black" points="20.2881,-55.5 20.2881,-73.5 133.002,-73.5 133.002,-55.5 20.2881,-55.5"/>
<text text-anchor="middle" x="76.645" y="-61.5" font-family="Helvetica,sans-Serif" font-size="10.00">vtkvmtkNeighborhood</text>
</a>
</g>
</g>
<!-- Node1&#45;&gt;Node0 -->
<g id="edge1" class="edge"><title>Node1&#45;&gt;Node0</title>
<path fill="none" stroke="midnightblue" d="M76.645,-45.1746C76.645,-36.0945 76.645,-25.5949 76.645,-18.5496"/>
<polygon fill="midnightblue" stroke="midnightblue" points="73.1451,-45.2187 76.645,-55.2188 80.1451,-45.2188 73.1451,-45.2187"/>
</g>
<!-- Node2 -->
<g id="node3" class="node"><title>Node2</title>
<g id="a_node3"><a xlink:href="classvtkvmtkDataSetItem.html" target="_top" xlink:title="create an item instance with a data set and particular point id. ">
<polygon fill="white" stroke="black" points="23.9111,-110.5 23.9111,-128.5 129.379,-128.5 129.379,-110.5 23.9111,-110.5"/>
<text text-anchor="middle" x="76.645" y="-116.5" font-family="Helvetica,sans-Serif" font-size="10.00">vtkvmtkDataSetItem</text>
</a>
</g>
</g>
<!-- Node2&#45;&gt;Node1 -->
<g id="edge2" class="edge"><title>Node2&#45;&gt;Node1</title>
<path fill="none" stroke="midnightblue" d="M76.645,-100.175C76.645,-91.0945 76.645,-80.5949 76.645,-73.5496"/>
<polygon fill="midnightblue" stroke="midnightblue" points="73.1451,-100.219 76.645,-110.219 80.1451,-100.219 73.1451,-100.219"/>
</g>
<!-- Node3 -->
<g id="node4" class="node"><title>Node3</title>
<g id="a_node4"><a xlink:href="classvtkvmtkItem.html" target="_top" xlink:title="Base class for the construction of neighborhoods and stencil from a set of points. ">
<polygon fill="white" stroke="black" points="41.9775,-165.5 41.9775,-183.5 111.312,-183.5 111.312,-165.5 41.9775,-165.5"/>
<text text-anchor="middle" x="76.645" y="-171.5" font-family="Helvetica,sans-Serif" font-size="10.00">vtkvmtkItem</text>
</a>
</g>
</g>
<!-- Node3&#45;&gt;Node2 -->
<g id="edge3" class="edge"><title>Node3&#45;&gt;Node2</title>
<path fill="none" stroke="midnightblue" d="M76.645,-155.175C76.645,-146.094 76.645,-135.595 76.645,-128.55"/>
<polygon fill="midnightblue" stroke="midnightblue" points="73.1451,-155.219 76.645,-165.219 80.1451,-155.219 73.1451,-155.219"/>
</g>
<!-- Node4 -->
<g id="node5" class="node"><title>Node4</title>
<polygon fill="white" stroke="#bfbfbf" points="47.8052,-220.5 47.8052,-238.5 105.485,-238.5 105.485,-220.5 47.8052,-220.5"/>
<text text-anchor="middle" x="76.645" y="-226.5" font-family="Helvetica,sans-Serif" font-size="10.00">vtkObject</text>
</g>
<!-- Node4&#45;&gt;Node3 -->
<g id="edge4" class="edge"><title>Node4&#45;&gt;Node3</title>
<path fill="none" stroke="midnightblue" d="M76.645,-210.175C76.645,-201.094 76.645,-190.595 76.645,-183.55"/>
<polygon fill="midnightblue" stroke="midnightblue" points="73.1451,-210.219 76.645,-220.219 80.1451,-210.219 73.1451,-210.219"/>
</g>
</g>
</svg>
