<?xml version="1.0" encoding="UTF-8" standalone="no"?>
<!DOCTYPE svg PUBLIC "-//W3C//DTD SVG 1.1//EN"
 "http://www.w3.org/Graphics/SVG/1.1/DTD/svg11.dtd">
<!-- Generated by graphviz version 2.38.0 (20140413.2041)
 -->
<!-- Title: vtkvmtkNeighborhoods Pages: 1 -->
<svg width="149pt" height="260pt"
 viewBox="0.00 0.00 148.52 260.00" xmlns="http://www.w3.org/2000/svg" xmlns:xlink="http://www.w3.org/1999/xlink">
<g id="graph0" class="graph" transform="scale(1 1) rotate(0) translate(4 256)">
<title>vtkvmtkNeighborhoods</title>
<polygon fill="white" stroke="none" points="-4,4 -4,-256 144.524,-256 144.524,4 -4,4"/>
<!-- Node4 -->
<g id="node1" class="node"><title>Node4</title>
<polygon fill="#bfbfbf" stroke="black" points="0,-0.5 0,-18.5 117.714,-18.5 117.714,-0.5 0,-0.5"/>
<text text-anchor="middle" x="58.8569" y="-6.5" font-family="Helvetica,sans-Serif" font-size="10.00">vtkvmtkNeighborhoods</text>
</g>
<!-- Node5 -->
<g id="node2" class="node"><title>Node5</title>
<g id="a_node2"><a xlink:href="classvtkvmtkDataSetItems.html" target="_top" xlink:title="Create a collection of data set items, one for every point within the data set. ">
<polygon fill="white" stroke="black" points="3.62305,-56.5 3.62305,-74.5 114.091,-74.5 114.091,-56.5 3.62305,-56.5"/>
<text text-anchor="middle" x="58.8569" y="-62.5" font-family="Helvetica,sans-Serif" font-size="10.00">vtkvmtkDataSetItems</text>
</a>
</g>
</g>
<!-- Node5&#45;&gt;Node4 -->
<g id="edge1" class="edge"><title>Node5&#45;&gt;Node4</title>
<path fill="none" stroke="midnightblue" d="M58.8569,-45.8288C58.8569,-36.5774 58.8569,-25.8798 58.8569,-18.7014"/>
<polygon fill="midnightblue" stroke="midnightblue" points="55.357,-46.0625 58.8569,-56.0625 62.357,-46.0625 55.357,-46.0625"/>
</g>
<!-- Node6 -->
<g id="node3" class="node"><title>Node6</title>
<g id="a_node3"><a xlink:href="classvtkvmtkItems.html" target="_top" xlink:title="Control allocation and memory footprint of item instances. ">
<polygon fill="white" stroke="black" points="21.6895,-112.5 21.6895,-130.5 96.0244,-130.5 96.0244,-112.5 21.6895,-112.5"/>
<text text-anchor="middle" x="58.8569" y="-118.5" font-family="Helvetica,sans-Serif" font-size="10.00">vtkvmtkItems</text>
</a>
</g>
</g>
<!-- Node6&#45;&gt;Node5 -->
<g id="edge2" class="edge"><title>Node6&#45;&gt;Node5</title>
<path fill="none" stroke="midnightblue" d="M58.8569,-101.829C58.8569,-92.5774 58.8569,-81.8798 58.8569,-74.7014"/>
<polygon fill="midnightblue" stroke="midnightblue" points="55.357,-102.062 58.8569,-112.062 62.357,-102.063 55.357,-102.062"/>
</g>
<!-- Node7 -->
<g id="node4" class="node"><title>Node7</title>
<polygon fill="white" stroke="#bfbfbf" points="36.0171,-233.5 36.0171,-251.5 93.6968,-251.5 93.6968,-233.5 36.0171,-233.5"/>
<text text-anchor="middle" x="64.8569" y="-239.5" font-family="Helvetica,sans-Serif" font-size="10.00">vtkObject</text>
</g>
<!-- Node7&#45;&gt;Node6 -->
<g id="edge3" class="edge"><title>Node7&#45;&gt;Node6</title>
<path fill="none" stroke="midnightblue" d="M63.5576,-223.378C62.9868,-215.042 62.3384,-205.022 61.8569,-196 60.5911,-172.28 59.581,-144.228 59.1232,-130.66"/>
<polygon fill="midnightblue" stroke="midnightblue" points="60.0728,-223.719 64.2649,-233.449 67.0556,-223.228 60.0728,-223.719"/>
</g>
<!-- Node8 -->
<g id="node5" class="node"><title>Node8</title>
<g id="a_node5"><a xlink:href="classvtkvmtkItem.html" target="_top" xlink:title="Base class for the construction of neighborhoods and stencil from a set of points. ">
<polygon fill="white" stroke="black" points="71.1895,-177.5 71.1895,-195.5 140.524,-195.5 140.524,-177.5 71.1895,-177.5"/>
<text text-anchor="middle" x="105.857" y="-183.5" font-family="Helvetica,sans-Serif" font-size="10.00">vtkvmtkItem</text>
</a>
</g>
</g>
<!-- Node7&#45;&gt;Node8 -->
<g id="edge5" class="edge"><title>Node7&#45;&gt;Node8</title>
<path fill="none" stroke="midnightblue" d="M77.4334,-224.936C84.792,-215.244 93.7605,-203.432 99.6299,-195.701"/>
<polygon fill="midnightblue" stroke="midnightblue" points="74.5227,-222.982 71.2632,-233.062 80.0979,-227.215 74.5227,-222.982"/>
</g>
<!-- Node8&#45;&gt;Node6 -->
<g id="edge4" class="edge"><title>Node8&#45;&gt;Node6</title>
<path fill="none" stroke="#9a32cd" stroke-dasharray="5,2" d="M93.6326,-169.114C84.3812,-156.713 72.0741,-140.217 64.8543,-130.539"/>
<polygon fill="#9a32cd" stroke="#9a32cd" points="90.9275,-171.341 99.7125,-177.264 96.5382,-167.156 90.9275,-171.341"/>
<text text-anchor="middle" x="98.9185" y="-151" font-family="Helvetica,sans-Serif" font-size="10.00"> Array</text>
</g>
</g>
</svg>
