<?xml version="1.0" encoding="UTF-8" standalone="no"?>
<!DOCTYPE svg PUBLIC "-//W3C//DTD SVG 1.1//EN"
 "http://www.w3.org/Graphics/SVG/1.1/DTD/svg11.dtd">
<!-- Generated by graphviz version 2.38.0 (20140413.2041)
 -->
<!-- Title: vtkvmtkUnstructuredGridFELaplaceAssembler Pages: 1 -->
<svg width="259pt" height="289pt"
 viewBox="0.00 0.00 258.88 289.00" xmlns="http://www.w3.org/2000/svg" xmlns:xlink="http://www.w3.org/1999/xlink">
<g id="graph0" class="graph" transform="scale(1 1) rotate(0) translate(4 285)">
<title>vtkvmtkUnstructuredGridFELaplaceAssembler</title>
<polygon fill="white" stroke="none" points="-4,4 -4,-285 254.881,-285 254.881,4 -4,4"/>
<!-- Node3 -->
<g id="node1" class="node"><title>Node3</title>
<polygon fill="#bfbfbf" stroke="black" points="0,-0.5 0,-28.5 173.832,-28.5 173.832,-0.5 0,-0.5"/>
<text text-anchor="start" x="8" y="-16.5" font-family="Helvetica,sans-Serif" font-size="10.00">vtkvmtkUnstructuredGridFELaplace</text>
<text text-anchor="middle" x="86.916" y="-6.5" font-family="Helvetica,sans-Serif" font-size="10.00">Assembler</text>
</g>
<!-- Node4 -->
<g id="node2" class="node"><title>Node4</title>
<g id="a_node2"><a xlink:href="classvtkvmtkFEAssembler.html" target="_top" xlink:title="Base class on which to build to build specific finite element routines. ">
<polygon fill="white" stroke="black" points="31.9653,-66.5 31.9653,-84.5 141.867,-84.5 141.867,-66.5 31.9653,-66.5"/>
<text text-anchor="middle" x="86.916" y="-72.5" font-family="Helvetica,sans-Serif" font-size="10.00">vtkvmtkFEAssembler</text>
</a>
</g>
</g>
<!-- Node4&#45;&gt;Node3 -->
<g id="edge1" class="edge"><title>Node4&#45;&gt;Node3</title>
<path fill="none" stroke="midnightblue" d="M86.916,-56.1543C86.916,-47.2359 86.916,-36.7225 86.916,-28.6215"/>
<polygon fill="midnightblue" stroke="midnightblue" points="83.4161,-56.2963 86.916,-66.2963 90.4161,-56.2963 83.4161,-56.2963"/>
</g>
<!-- Node5 -->
<g id="node3" class="node"><title>Node5</title>
<polygon fill="white" stroke="#bfbfbf" points="19.0762,-262.5 19.0762,-280.5 76.7559,-280.5 76.7559,-262.5 19.0762,-262.5"/>
<text text-anchor="middle" x="47.916" y="-268.5" font-family="Helvetica,sans-Serif" font-size="10.00">vtkObject</text>
</g>
<!-- Node5&#45;&gt;Node4 -->
<g id="edge2" class="edge"><title>Node5&#45;&gt;Node4</title>
<path fill="none" stroke="midnightblue" d="M38.7311,-253.162C25.6386,-225.934 5.16126,-172.023 23.916,-131 33.6573,-109.692 56.2983,-93.5276 71.6118,-84.5295"/>
<polygon fill="midnightblue" stroke="midnightblue" points="35.6642,-254.854 43.2901,-262.209 41.9153,-251.704 35.6642,-254.854"/>
</g>
<!-- Node6 -->
<g id="node4" class="node"><title>Node6</title>
<g id="a_node4"><a xlink:href="classvtkvmtkSparseMatrix.html" target="_top" xlink:title="Class for constructing sparse matrices from a dataset and performing basic mathematical operations on...">
<polygon fill="white" stroke="black" points="32.5195,-132 32.5195,-150 141.312,-150 141.312,-132 32.5195,-132"/>
<text text-anchor="middle" x="86.916" y="-138" font-family="Helvetica,sans-Serif" font-size="10.00">vtkvmtkSparseMatrix</text>
</a>
</g>
</g>
<!-- Node5&#45;&gt;Node6 -->
<g id="edge4" class="edge"><title>Node5&#45;&gt;Node6</title>
<path fill="none" stroke="midnightblue" d="M40.6778,-252.638C36.4031,-239.466 32.7451,-221.26 37.916,-206 45.8202,-182.674 66.0163,-161.171 77.867,-150.01"/>
<polygon fill="midnightblue" stroke="midnightblue" points="37.5069,-254.158 44.2332,-262.344 44.0798,-251.75 37.5069,-254.158"/>
</g>
<!-- Node7 -->
<g id="node5" class="node"><title>Node7</title>
<g id="a_node5"><a xlink:href="classvtkvmtkSparseMatrixRow.html" target="_top" xlink:title="Class to handle operating on rows of a sparse matrix. ">
<polygon fill="white" stroke="black" points="46.5171,-206.5 46.5171,-224.5 175.315,-224.5 175.315,-206.5 46.5171,-206.5"/>
<text text-anchor="middle" x="110.916" y="-212.5" font-family="Helvetica,sans-Serif" font-size="10.00">vtkvmtkSparseMatrixRow</text>
</a>
</g>
</g>
<!-- Node5&#45;&gt;Node7 -->
<g id="edge6" class="edge"><title>Node5&#45;&gt;Node7</title>
<path fill="none" stroke="midnightblue" d="M65.2399,-255.651C76.8458,-245.703 91.6958,-232.974 101.258,-224.779"/>
<polygon fill="midnightblue" stroke="midnightblue" points="62.7992,-253.133 57.4844,-262.299 67.3547,-258.448 62.7992,-253.133"/>
</g>
<!-- Node8 -->
<g id="node6" class="node"><title>Node8</title>
<g id="a_node6"><a xlink:href="classvtkvmtkDoubleVector.html" target="_top" xlink:title="Base class for vectors utilized in finite&#45;element and other PDE evaluations. ">
<polygon fill="white" stroke="black" points="140.951,-169.5 140.951,-187.5 250.881,-187.5 250.881,-169.5 140.951,-169.5"/>
<text text-anchor="middle" x="195.916" y="-175.5" font-family="Helvetica,sans-Serif" font-size="10.00">vtkvmtkDoubleVector</text>
</a>
</g>
</g>
<!-- Node5&#45;&gt;Node8 -->
<g id="edge8" class="edge"><title>Node5&#45;&gt;Node8</title>
<path fill="none" stroke="midnightblue" d="M87.1827,-267.317C117.678,-262.768 158.865,-251.734 183.916,-225 193.524,-214.747 195.638,-197.732 195.991,-187.67"/>
<polygon fill="midnightblue" stroke="midnightblue" points="86.3441,-263.897 76.8858,-268.671 87.2567,-270.837 86.3441,-263.897"/>
</g>
<!-- Node6&#45;&gt;Node4 -->
<g id="edge3" class="edge"><title>Node6&#45;&gt;Node4</title>
<path fill="none" stroke="#9a32cd" stroke-dasharray="5,2" d="M86.916,-121.919C86.916,-109.66 86.916,-94.0389 86.916,-84.6776"/>
<polygon fill="#9a32cd" stroke="#9a32cd" points="83.4161,-121.958 86.916,-131.958 90.4161,-121.958 83.4161,-121.958"/>
<text text-anchor="middle" x="101.916" y="-105" font-family="Helvetica,sans-Serif" font-size="10.00"> Matrix</text>
</g>
<!-- Node7&#45;&gt;Node6 -->
<g id="edge5" class="edge"><title>Node7&#45;&gt;Node6</title>
<path fill="none" stroke="#9a32cd" stroke-dasharray="5,2" d="M105.092,-196.907C100.191,-182.103 93.4016,-161.592 89.6618,-150.295"/>
<polygon fill="#9a32cd" stroke="#9a32cd" points="101.791,-198.071 108.256,-206.464 108.436,-195.871 101.791,-198.071"/>
<text text-anchor="middle" x="113.978" y="-175.5" font-family="Helvetica,sans-Serif" font-size="10.00"> Array</text>
</g>
<!-- Node8&#45;&gt;Node4 -->
<g id="edge7" class="edge"><title>Node8&#45;&gt;Node4</title>
<path fill="none" stroke="#9a32cd" stroke-dasharray="5,2" d="M181.159,-161.648C166.435,-146.123 142.899,-122.086 120.916,-103 113.456,-96.5236 104.65,-89.6805 97.8689,-84.5707"/>
<polygon fill="#9a32cd" stroke="#9a32cd" points="178.966,-164.425 188.367,-169.311 184.065,-159.629 178.966,-164.425"/>
<text text-anchor="middle" x="203.551" y="-143" font-family="Helvetica,sans-Serif" font-size="10.00"> SolutionVector</text>
<text text-anchor="middle" x="203.551" y="-133" font-family="Helvetica,sans-Serif" font-size="10.00">RHSVector</text>
</g>
</g>
</svg>
