<?xml version="1.0" encoding="UTF-8" standalone="no"?>
<!DOCTYPE svg PUBLIC "-//W3C//DTD SVG 1.1//EN"
 "http://www.w3.org/Graphics/SVG/1.1/DTD/svg11.dtd">
<!-- Generated by graphviz version 2.38.0 (20140413.2041)
 -->
<!-- Title: vtkvmtkPolyDataManifoldStencil Pages: 1 -->
<svg width="166pt" height="302pt"
 viewBox="0.00 0.00 166.28 302.00" xmlns="http://www.w3.org/2000/svg" xmlns:xlink="http://www.w3.org/1999/xlink">
<g id="graph0" class="graph" transform="scale(1 1) rotate(0) translate(4 298)">
<title>vtkvmtkPolyDataManifoldStencil</title>
<polygon fill="white" stroke="none" points="-4,4 -4,-298 162.275,-298 162.275,4 -4,4"/>
<!-- Node12 -->
<g id="node1" class="node"><title>Node12</title>
<polygon fill="#bfbfbf" stroke="black" points="0,-0.5 0,-18.5 158.275,-18.5 158.275,-0.5 0,-0.5"/>
<text text-anchor="middle" x="79.1377" y="-6.5" font-family="Helvetica,sans-Serif" font-size="10.00">vtkvmtkPolyDataManifoldStencil</text>
</g>
<!-- Node13 -->
<g id="node2" class="node"><title>Node13</title>
<g id="a_node2"><a xlink:href="classvtkvmtkStencil.html" target="_top" xlink:title="Apply a weighting matrix to a single neighborhood of a data set. ">
<polygon fill="white" stroke="black" points="39.187,-55.5 39.187,-73.5 119.088,-73.5 119.088,-55.5 39.187,-55.5"/>
<text text-anchor="middle" x="79.1377" y="-61.5" font-family="Helvetica,sans-Serif" font-size="10.00">vtkvmtkStencil</text>
</a>
</g>
</g>
<!-- Node13&#45;&gt;Node12 -->
<g id="edge1" class="edge"><title>Node13&#45;&gt;Node12</title>
<path fill="none" stroke="midnightblue" d="M79.1377,-45.1746C79.1377,-36.0945 79.1377,-25.5949 79.1377,-18.5496"/>
<polygon fill="midnightblue" stroke="midnightblue" points="75.6378,-45.2187 79.1377,-55.2188 82.6378,-45.2188 75.6378,-45.2187"/>
</g>
<!-- Node14 -->
<g id="node3" class="node"><title>Node14</title>
<g id="a_node3"><a xlink:href="classvtkvmtkNeighborhood.html" target="_top" xlink:title="Query the neighborhood surrounding the set point id in an data set item. ">
<polygon fill="white" stroke="black" points="22.7808,-110.5 22.7808,-128.5 135.495,-128.5 135.495,-110.5 22.7808,-110.5"/>
<text text-anchor="middle" x="79.1377" y="-116.5" font-family="Helvetica,sans-Serif" font-size="10.00">vtkvmtkNeighborhood</text>
</a>
</g>
</g>
<!-- Node14&#45;&gt;Node13 -->
<g id="edge2" class="edge"><title>Node14&#45;&gt;Node13</title>
<path fill="none" stroke="midnightblue" d="M79.1377,-100.175C79.1377,-91.0945 79.1377,-80.5949 79.1377,-73.5496"/>
<polygon fill="midnightblue" stroke="midnightblue" points="75.6378,-100.219 79.1377,-110.219 82.6378,-100.219 75.6378,-100.219"/>
</g>
<!-- Node15 -->
<g id="node4" class="node"><title>Node15</title>
<g id="a_node4"><a xlink:href="classvtkvmtkDataSetItem.html" target="_top" xlink:title="create an item instance with a data set and particular point id. ">
<polygon fill="white" stroke="black" points="26.4038,-165.5 26.4038,-183.5 131.872,-183.5 131.872,-165.5 26.4038,-165.5"/>
<text text-anchor="middle" x="79.1377" y="-171.5" font-family="Helvetica,sans-Serif" font-size="10.00">vtkvmtkDataSetItem</text>
</a>
</g>
</g>
<!-- Node15&#45;&gt;Node14 -->
<g id="edge3" class="edge"><title>Node15&#45;&gt;Node14</title>
<path fill="none" stroke="midnightblue" d="M79.1377,-155.175C79.1377,-146.094 79.1377,-135.595 79.1377,-128.55"/>
<polygon fill="midnightblue" stroke="midnightblue" points="75.6378,-155.219 79.1377,-165.219 82.6378,-155.219 75.6378,-155.219"/>
</g>
<!-- Node16 -->
<g id="node5" class="node"><title>Node16</title>
<g id="a_node5"><a xlink:href="classvtkvmtkItem.html" target="_top" xlink:title="Base class for the construction of neighborhoods and stencil from a set of points. ">
<polygon fill="white" stroke="black" points="44.4702,-220.5 44.4702,-238.5 113.805,-238.5 113.805,-220.5 44.4702,-220.5"/>
<text text-anchor="middle" x="79.1377" y="-226.5" font-family="Helvetica,sans-Serif" font-size="10.00">vtkvmtkItem</text>
</a>
</g>
</g>
<!-- Node16&#45;&gt;Node15 -->
<g id="edge4" class="edge"><title>Node16&#45;&gt;Node15</title>
<path fill="none" stroke="midnightblue" d="M79.1377,-210.175C79.1377,-201.094 79.1377,-190.595 79.1377,-183.55"/>
<polygon fill="midnightblue" stroke="midnightblue" points="75.6378,-210.219 79.1377,-220.219 82.6378,-210.219 75.6378,-210.219"/>
</g>
<!-- Node17 -->
<g id="node6" class="node"><title>Node17</title>
<polygon fill="white" stroke="#bfbfbf" points="50.2979,-275.5 50.2979,-293.5 107.978,-293.5 107.978,-275.5 50.2979,-275.5"/>
<text text-anchor="middle" x="79.1377" y="-281.5" font-family="Helvetica,sans-Serif" font-size="10.00">vtkObject</text>
</g>
<!-- Node17&#45;&gt;Node16 -->
<g id="edge5" class="edge"><title>Node17&#45;&gt;Node16</title>
<path fill="none" stroke="midnightblue" d="M79.1377,-265.175C79.1377,-256.094 79.1377,-245.595 79.1377,-238.55"/>
<polygon fill="midnightblue" stroke="midnightblue" points="75.6378,-265.219 79.1377,-275.219 82.6378,-265.219 75.6378,-265.219"/>
</g>
</g>
</svg>
