<?xml version="1.0" encoding="UTF-8" standalone="no"?>
<!DOCTYPE svg PUBLIC "-//W3C//DTD SVG 1.1//EN"
 "http://www.w3.org/Graphics/SVG/1.1/DTD/svg11.dtd">
<!-- Generated by graphviz version 2.38.0 (20140413.2041)
 -->
<!-- Title: vtkvmtkPolyDataLaplaceBeltramiStencil Pages: 1 -->
<svg width="316pt" height="377pt"
 viewBox="0.00 0.00 315.66 377.00" xmlns="http://www.w3.org/2000/svg" xmlns:xlink="http://www.w3.org/1999/xlink">
<g id="graph0" class="graph" transform="scale(1 1) rotate(0) translate(4 373)">
<title>vtkvmtkPolyDataLaplaceBeltramiStencil</title>
<polygon fill="white" stroke="none" points="-4,4 -4,-373 311.66,-373 311.66,4 -4,4"/>
<!-- Node0 -->
<g id="node1" class="node"><title>Node0</title>
<polygon fill="#bfbfbf" stroke="black" points="69.0518,-65.5 69.0518,-93.5 231.219,-93.5 231.219,-65.5 69.0518,-65.5"/>
<text text-anchor="start" x="77.0518" y="-81.5" font-family="Helvetica,sans-Serif" font-size="10.00">vtkvmtkPolyDataLaplaceBeltrami</text>
<text text-anchor="middle" x="150.135" y="-71.5" font-family="Helvetica,sans-Serif" font-size="10.00">Stencil</text>
</g>
<!-- Node6 -->
<g id="node7" class="node"><title>Node6</title>
<g id="a_node7"><a xlink:href="classvtkvmtkPolyDataFELaplaceBeltramiStencil.html" target="_top" xlink:title="Apply finite&#45;element LB weighting to the neighborhood connections of a surface. ">
<polygon fill="white" stroke="black" points="0,-0.5 0,-28.5 138.271,-28.5 138.271,-0.5 0,-0.5"/>
<text text-anchor="start" x="8" y="-16.5" font-family="Helvetica,sans-Serif" font-size="10.00">vtkvmtkPolyDataFELaplace</text>
<text text-anchor="middle" x="69.1353" y="-6.5" font-family="Helvetica,sans-Serif" font-size="10.00">BeltramiStencil</text>
</a>
</g>
</g>
<!-- Node0&#45;&gt;Node6 -->
<g id="edge6" class="edge"><title>Node0&#45;&gt;Node6</title>
<path fill="none" stroke="midnightblue" d="M125.367,-59.2361C112.572,-49.2841 97.2958,-37.4026 85.897,-28.5369"/>
<polygon fill="midnightblue" stroke="midnightblue" points="123.31,-62.0697 133.352,-65.4464 127.607,-56.5442 123.31,-62.0697"/>
</g>
<!-- Node7 -->
<g id="node8" class="node"><title>Node7</title>
<g id="a_node8"><a xlink:href="classvtkvmtkPolyDataFVFELaplaceBeltramiStencil.html" target="_top" xlink:title="Apply finite&#45;volume, finite&#45;element LB weighting to the neighborhood connections of a surface...">
<polygon fill="white" stroke="black" points="156.611,-0.5 156.611,-28.5 307.66,-28.5 307.66,-0.5 156.611,-0.5"/>
<text text-anchor="start" x="164.611" y="-16.5" font-family="Helvetica,sans-Serif" font-size="10.00">vtkvmtkPolyDataFVFELaplace</text>
<text text-anchor="middle" x="232.135" y="-6.5" font-family="Helvetica,sans-Serif" font-size="10.00">BeltramiStencil</text>
</a>
</g>
</g>
<!-- Node0&#45;&gt;Node7 -->
<g id="edge7" class="edge"><title>Node0&#45;&gt;Node7</title>
<path fill="none" stroke="midnightblue" d="M175.209,-59.2361C188.162,-49.2841 203.627,-37.4026 215.167,-28.5369"/>
<polygon fill="midnightblue" stroke="midnightblue" points="172.923,-56.5784 167.126,-65.4464 177.188,-62.1293 172.923,-56.5784"/>
</g>
<!-- Node1 -->
<g id="node2" class="node"><title>Node1</title>
<g id="a_node2"><a xlink:href="classvtkvmtkPolyDataManifoldStencil.html" target="_top" xlink:title=".. ">
<polygon fill="white" stroke="black" points="70.9976,-130.5 70.9976,-148.5 229.273,-148.5 229.273,-130.5 70.9976,-130.5"/>
<text text-anchor="middle" x="150.135" y="-136.5" font-family="Helvetica,sans-Serif" font-size="10.00">vtkvmtkPolyDataManifoldStencil</text>
</a>
</g>
</g>
<!-- Node1&#45;&gt;Node0 -->
<g id="edge1" class="edge"><title>Node1&#45;&gt;Node0</title>
<path fill="none" stroke="midnightblue" d="M150.135,-120.321C150.135,-111.747 150.135,-101.7 150.135,-93.8428"/>
<polygon fill="midnightblue" stroke="midnightblue" points="146.635,-120.435 150.135,-130.435 153.635,-120.435 146.635,-120.435"/>
</g>
<!-- Node2 -->
<g id="node3" class="node"><title>Node2</title>
<g id="a_node3"><a xlink:href="classvtkvmtkStencil.html" target="_top" xlink:title="Apply a weighting matrix to a single neighborhood of a data set. ">
<polygon fill="white" stroke="black" points="110.185,-185.5 110.185,-203.5 190.086,-203.5 190.086,-185.5 110.185,-185.5"/>
<text text-anchor="middle" x="150.135" y="-191.5" font-family="Helvetica,sans-Serif" font-size="10.00">vtkvmtkStencil</text>
</a>
</g>
</g>
<!-- Node2&#45;&gt;Node1 -->
<g id="edge2" class="edge"><title>Node2&#45;&gt;Node1</title>
<path fill="none" stroke="midnightblue" d="M150.135,-175.175C150.135,-166.094 150.135,-155.595 150.135,-148.55"/>
<polygon fill="midnightblue" stroke="midnightblue" points="146.635,-175.219 150.135,-185.219 153.635,-175.219 146.635,-175.219"/>
</g>
<!-- Node3 -->
<g id="node4" class="node"><title>Node3</title>
<g id="a_node4"><a xlink:href="classvtkvmtkNeighborhood.html" target="_top" xlink:title="Query the neighborhood surrounding the set point id in an data set item. ">
<polygon fill="white" stroke="black" points="93.7783,-240.5 93.7783,-258.5 206.492,-258.5 206.492,-240.5 93.7783,-240.5"/>
<text text-anchor="middle" x="150.135" y="-246.5" font-family="Helvetica,sans-Serif" font-size="10.00">vtkvmtkNeighborhood</text>
</a>
</g>
</g>
<!-- Node3&#45;&gt;Node2 -->
<g id="edge3" class="edge"><title>Node3&#45;&gt;Node2</title>
<path fill="none" stroke="midnightblue" d="M150.135,-230.175C150.135,-221.094 150.135,-210.595 150.135,-203.55"/>
<polygon fill="midnightblue" stroke="midnightblue" points="146.635,-230.219 150.135,-240.219 153.635,-230.219 146.635,-230.219"/>
</g>
<!-- Node4 -->
<g id="node5" class="node"><title>Node4</title>
<g id="a_node5"><a xlink:href="classvtkvmtkDataSetItem.html" target="_top" xlink:title="create an item instance with a data set and particular point id. ">
<polygon fill="white" stroke="black" points="97.4014,-295.5 97.4014,-313.5 202.869,-313.5 202.869,-295.5 97.4014,-295.5"/>
<text text-anchor="middle" x="150.135" y="-301.5" font-family="Helvetica,sans-Serif" font-size="10.00">vtkvmtkDataSetItem</text>
</a>
</g>
</g>
<!-- Node4&#45;&gt;Node3 -->
<g id="edge4" class="edge"><title>Node4&#45;&gt;Node3</title>
<path fill="none" stroke="midnightblue" d="M150.135,-285.175C150.135,-276.094 150.135,-265.595 150.135,-258.55"/>
<polygon fill="midnightblue" stroke="midnightblue" points="146.635,-285.219 150.135,-295.219 153.635,-285.219 146.635,-285.219"/>
</g>
<!-- Node5 -->
<g id="node6" class="node"><title>Node5</title>
<g id="a_node6"><a xlink:href="classvtkvmtkItem.html" target="_top" xlink:title="Base class for the construction of neighborhoods and stencil from a set of points. ">
<polygon fill="white" stroke="black" points="115.468,-350.5 115.468,-368.5 184.803,-368.5 184.803,-350.5 115.468,-350.5"/>
<text text-anchor="middle" x="150.135" y="-356.5" font-family="Helvetica,sans-Serif" font-size="10.00">vtkvmtkItem</text>
</a>
</g>
</g>
<!-- Node5&#45;&gt;Node4 -->
<g id="edge5" class="edge"><title>Node5&#45;&gt;Node4</title>
<path fill="none" stroke="midnightblue" d="M150.135,-340.175C150.135,-331.094 150.135,-320.595 150.135,-313.55"/>
<polygon fill="midnightblue" stroke="midnightblue" points="146.635,-340.219 150.135,-350.219 153.635,-340.219 146.635,-340.219"/>
</g>
</g>
</svg>
