<?xml version="1.0" encoding="UTF-8" standalone="no"?>
<!DOCTYPE svg PUBLIC "-//W3C//DTD SVG 1.1//EN"
 "http://www.w3.org/Graphics/SVG/1.1/DTD/svg11.dtd">
<!-- Generated by graphviz version 2.38.0 (20140413.2041)
 -->
<!-- Title: vtkvmtkPolyDataManifoldNeighborhood Pages: 1 -->
<svg width="199pt" height="192pt"
 viewBox="0.00 0.00 199.09 192.00" xmlns="http://www.w3.org/2000/svg" xmlns:xlink="http://www.w3.org/1999/xlink">
<g id="graph0" class="graph" transform="scale(1 1) rotate(0) translate(4 188)">
<title>vtkvmtkPolyDataManifoldNeighborhood</title>
<polygon fill="white" stroke="none" points="-4,4 -4,-188 195.088,-188 195.088,4 -4,4"/>
<!-- Node5 -->
<g id="node1" class="node"><title>Node5</title>
<polygon fill="#bfbfbf" stroke="black" points="0,-0.5 0,-18.5 191.088,-18.5 191.088,-0.5 0,-0.5"/>
<text text-anchor="middle" x="95.5439" y="-6.5" font-family="Helvetica,sans-Serif" font-size="10.00">vtkvmtkPolyDataManifoldNeighborhood</text>
</g>
<!-- Node6 -->
<g id="node2" class="node"><title>Node6</title>
<g id="a_node2"><a xlink:href="classvtkvmtkNeighborhood.html" target="_top" xlink:title="Query the neighborhood surrounding the set point id in an data set item. ">
<polygon fill="white" stroke="black" points="39.187,-55.5 39.187,-73.5 151.901,-73.5 151.901,-55.5 39.187,-55.5"/>
<text text-anchor="middle" x="95.5439" y="-61.5" font-family="Helvetica,sans-Serif" font-size="10.00">vtkvmtkNeighborhood</text>
</a>
</g>
</g>
<!-- Node6&#45;&gt;Node5 -->
<g id="edge1" class="edge"><title>Node6&#45;&gt;Node5</title>
<path fill="none" stroke="midnightblue" d="M95.5439,-45.1746C95.5439,-36.0945 95.5439,-25.5949 95.5439,-18.5496"/>
<polygon fill="midnightblue" stroke="midnightblue" points="92.044,-45.2187 95.5439,-55.2188 99.044,-45.2188 92.044,-45.2187"/>
</g>
<!-- Node7 -->
<g id="node3" class="node"><title>Node7</title>
<g id="a_node3"><a xlink:href="classvtkvmtkDataSetItem.html" target="_top" xlink:title="create an item instance with a data set and particular point id. ">
<polygon fill="white" stroke="black" points="42.8101,-110.5 42.8101,-128.5 148.278,-128.5 148.278,-110.5 42.8101,-110.5"/>
<text text-anchor="middle" x="95.5439" y="-116.5" font-family="Helvetica,sans-Serif" font-size="10.00">vtkvmtkDataSetItem</text>
</a>
</g>
</g>
<!-- Node7&#45;&gt;Node6 -->
<g id="edge2" class="edge"><title>Node7&#45;&gt;Node6</title>
<path fill="none" stroke="midnightblue" d="M95.5439,-100.175C95.5439,-91.0945 95.5439,-80.5949 95.5439,-73.5496"/>
<polygon fill="midnightblue" stroke="midnightblue" points="92.044,-100.219 95.5439,-110.219 99.044,-100.219 92.044,-100.219"/>
</g>
<!-- Node8 -->
<g id="node4" class="node"><title>Node8</title>
<g id="a_node4"><a xlink:href="classvtkvmtkItem.html" target="_top" xlink:title="Base class for the construction of neighborhoods and stencil from a set of points. ">
<polygon fill="white" stroke="black" points="60.8765,-165.5 60.8765,-183.5 130.211,-183.5 130.211,-165.5 60.8765,-165.5"/>
<text text-anchor="middle" x="95.5439" y="-171.5" font-family="Helvetica,sans-Serif" font-size="10.00">vtkvmtkItem</text>
</a>
</g>
</g>
<!-- Node8&#45;&gt;Node7 -->
<g id="edge3" class="edge"><title>Node8&#45;&gt;Node7</title>
<path fill="none" stroke="midnightblue" d="M95.5439,-155.175C95.5439,-146.094 95.5439,-135.595 95.5439,-128.55"/>
<polygon fill="midnightblue" stroke="midnightblue" points="92.044,-155.219 95.5439,-165.219 99.044,-155.219 92.044,-155.219"/>
</g>
</g>
</svg>
