<?xml version="1.0" encoding="UTF-8" standalone="no"?>
<!DOCTYPE svg PUBLIC "-//W3C//DTD SVG 1.1//EN"
 "http://www.w3.org/Graphics/SVG/1.1/DTD/svg11.dtd">
<!-- Generated by graphviz version 2.38.0 (20140413.2041)
 -->
<!-- Title: vtkvmtkCenterlineBranchExtractor Pages: 1 -->
<svg width="175pt" height="147pt"
 viewBox="0.00 0.00 175.16 147.00" xmlns="http://www.w3.org/2000/svg" xmlns:xlink="http://www.w3.org/1999/xlink">
<g id="graph0" class="graph" transform="scale(1 1) rotate(0) translate(4 143)">
<title>vtkvmtkCenterlineBranchExtractor</title>
<polygon fill="white" stroke="none" points="-4,4 -4,-143 171.162,-143 171.162,4 -4,4"/>
<!-- Node3 -->
<g id="node1" class="node"><title>Node3</title>
<polygon fill="#bfbfbf" stroke="black" points="0,-0.5 0,-18.5 167.162,-18.5 167.162,-0.5 0,-0.5"/>
<text text-anchor="middle" x="83.5811" y="-6.5" font-family="Helvetica,sans-Serif" font-size="10.00">vtkvmtkCenterlineBranchExtractor</text>
</g>
<!-- Node4 -->
<g id="node2" class="node"><title>Node4</title>
<g id="a_node2"><a xlink:href="classvtkvmtkCenterlineSplittingAndGroupingFilter.html" target="_top" xlink:title="Multipurpose filter used to bundle and blank split tracts in all &quot;branch extractor&quot; like methods...">
<polygon fill="white" stroke="black" points="18.0591,-55.5 18.0591,-83.5 149.103,-83.5 149.103,-55.5 18.0591,-55.5"/>
<text text-anchor="start" x="26.0591" y="-71.5" font-family="Helvetica,sans-Serif" font-size="10.00">vtkvmtkCenterlineSplitting</text>
<text text-anchor="middle" x="83.5811" y="-61.5" font-family="Helvetica,sans-Serif" font-size="10.00">AndGroupingFilter</text>
</a>
</g>
</g>
<!-- Node4&#45;&gt;Node3 -->
<g id="edge1" class="edge"><title>Node4&#45;&gt;Node3</title>
<path fill="none" stroke="midnightblue" d="M83.5811,-45.323C83.5811,-35.936 83.5811,-25.7002 83.5811,-18.7715"/>
<polygon fill="midnightblue" stroke="midnightblue" points="80.0812,-45.3389 83.5811,-55.3389 87.0812,-45.3389 80.0812,-45.3389"/>
</g>
<!-- Node5 -->
<g id="node3" class="node"><title>Node5</title>
<polygon fill="white" stroke="#bfbfbf" points="27.7856,-120.5 27.7856,-138.5 139.376,-138.5 139.376,-120.5 27.7856,-120.5"/>
<text text-anchor="middle" x="83.5811" y="-126.5" font-family="Helvetica,sans-Serif" font-size="10.00">vtkPolyDataAlgorithm</text>
</g>
<!-- Node5&#45;&gt;Node4 -->
<g id="edge2" class="edge"><title>Node5&#45;&gt;Node4</title>
<path fill="none" stroke="midnightblue" d="M83.5811,-110.321C83.5811,-101.747 83.5811,-91.6999 83.5811,-83.8428"/>
<polygon fill="midnightblue" stroke="midnightblue" points="80.0812,-110.435 83.5811,-120.435 87.0812,-110.435 80.0812,-110.435"/>
</g>
</g>
</svg>
