<?xml version="1.0" encoding="UTF-8" standalone="no"?>
<!DOCTYPE svg PUBLIC "-//W3C//DTD SVG 1.1//EN"
 "http://www.w3.org/Graphics/SVG/1.1/DTD/svg11.dtd">
<!-- Generated by graphviz version 2.38.0 (20140413.2041)
 -->
<!-- Title: vtkvmtkEmptyNeighborhood Pages: 1 -->
<svg width="149pt" height="192pt"
 viewBox="0.00 0.00 149.05 192.00" xmlns="http://www.w3.org/2000/svg" xmlns:xlink="http://www.w3.org/1999/xlink">
<g id="graph0" class="graph" transform="scale(1 1) rotate(0) translate(4 188)">
<title>vtkvmtkEmptyNeighborhood</title>
<polygon fill="white" stroke="none" points="-4,4 -4,-188 145.054,-188 145.054,4 -4,4"/>
<!-- Node0 -->
<g id="node1" class="node"><title>Node0</title>
<polygon fill="#bfbfbf" stroke="black" points="0,-0.5 0,-18.5 141.054,-18.5 141.054,-0.5 0,-0.5"/>
<text text-anchor="middle" x="70.5269" y="-6.5" font-family="Helvetica,sans-Serif" font-size="10.00">vtkvmtkEmptyNeighborhood</text>
</g>
<!-- Node1 -->
<g id="node2" class="node"><title>Node1</title>
<g id="a_node2"><a xlink:href="classvtkvmtkNeighborhood.html" target="_top" xlink:title="Query the neighborhood surrounding the set point id in an data set item. ">
<polygon fill="white" stroke="black" points="14.1699,-55.5 14.1699,-73.5 126.884,-73.5 126.884,-55.5 14.1699,-55.5"/>
<text text-anchor="middle" x="70.5269" y="-61.5" font-family="Helvetica,sans-Serif" font-size="10.00">vtkvmtkNeighborhood</text>
</a>
</g>
</g>
<!-- Node1&#45;&gt;Node0 -->
<g id="edge1" class="edge"><title>Node1&#45;&gt;Node0</title>
<path fill="none" stroke="midnightblue" d="M70.5269,-45.1746C70.5269,-36.0945 70.5269,-25.5949 70.5269,-18.5496"/>
<polygon fill="midnightblue" stroke="midnightblue" points="67.027,-45.2187 70.5269,-55.2188 74.027,-45.2188 67.027,-45.2187"/>
</g>
<!-- Node2 -->
<g id="node3" class="node"><title>Node2</title>
<g id="a_node3"><a xlink:href="classvtkvmtkDataSetItem.html" target="_top" xlink:title="create an item instance with a data set and particular point id. ">
<polygon fill="white" stroke="black" points="17.793,-110.5 17.793,-128.5 123.261,-128.5 123.261,-110.5 17.793,-110.5"/>
<text text-anchor="middle" x="70.5269" y="-116.5" font-family="Helvetica,sans-Serif" font-size="10.00">vtkvmtkDataSetItem</text>
</a>
</g>
</g>
<!-- Node2&#45;&gt;Node1 -->
<g id="edge2" class="edge"><title>Node2&#45;&gt;Node1</title>
<path fill="none" stroke="midnightblue" d="M70.5269,-100.175C70.5269,-91.0945 70.5269,-80.5949 70.5269,-73.5496"/>
<polygon fill="midnightblue" stroke="midnightblue" points="67.027,-100.219 70.5269,-110.219 74.027,-100.219 67.027,-100.219"/>
</g>
<!-- Node3 -->
<g id="node4" class="node"><title>Node3</title>
<g id="a_node4"><a xlink:href="classvtkvmtkItem.html" target="_top" xlink:title="Base class for the construction of neighborhoods and stencil from a set of points. ">
<polygon fill="white" stroke="black" points="35.8594,-165.5 35.8594,-183.5 105.194,-183.5 105.194,-165.5 35.8594,-165.5"/>
<text text-anchor="middle" x="70.5269" y="-171.5" font-family="Helvetica,sans-Serif" font-size="10.00">vtkvmtkItem</text>
</a>
</g>
</g>
<!-- Node3&#45;&gt;Node2 -->
<g id="edge3" class="edge"><title>Node3&#45;&gt;Node2</title>
<path fill="none" stroke="midnightblue" d="M70.5269,-155.175C70.5269,-146.094 70.5269,-135.595 70.5269,-128.55"/>
<polygon fill="midnightblue" stroke="midnightblue" points="67.027,-155.219 70.5269,-165.219 74.027,-155.219 67.027,-155.219"/>
</g>
</g>
</svg>
