<?xml version="1.0" encoding="UTF-8" standalone="no"?>
<!DOCTYPE svg PUBLIC "-//W3C//DTD SVG 1.1//EN"
 "http://www.w3.org/Graphics/SVG/1.1/DTD/svg11.dtd">
<!-- Generated by graphviz version 2.38.0 (20140413.2041)
 -->
<!-- Title: dox Pages: 1 -->
<svg width="618pt" height="182pt"
 viewBox="0.00 0.00 618.00 182.00" xmlns="http://www.w3.org/2000/svg" xmlns:xlink="http://www.w3.org/1999/xlink">
<g id="graph0" class="graph" transform="scale(1 1) rotate(0) translate(4 178)">
<title>dox</title>
<polygon fill="white" stroke="none" points="-4,4 -4,-178 614,-178 614,4 -4,4"/>
<g id="clust1" class="cluster"><title>clusterdir_a54fc40775d21ed7afed07f824564e96</title>
<g id="a_clust1"><a xlink:href="dir_a54fc40775d21ed7afed07f824564e96.html" target="_top" xlink:title="Doxygen">
<polygon fill="#ddddee" stroke="black" points="8,-8 8,-166 602,-166 602,-8 8,-8"/>
<text text-anchor="middle" x="305" y="-154" font-family="Helvetica,sans-Serif" font-size="10.00">Doxygen</text>
</a>
</g>
</g>
<g id="clust2" class="cluster"><title>clusterdir_607fad70969896e7a18cb8e32c2e9b3c</title>
<g id="a_clust2"><a xlink:href="dir_607fad70969896e7a18cb8e32c2e9b3c.html" target="_top">
<polygon fill="#eeeeff" stroke="black" points="16,-16 16,-140 594,-140 594,-16 16,-16"/>
</a>
</g>
</g>
<!-- dir_607fad70969896e7a18cb8e32c2e9b3c -->
<g id="node1" class="node"><title>dir_607fad70969896e7a18cb8e32c2e9b3c</title>
<text text-anchor="middle" x="559" y="-111" font-family="Helvetica,sans-Serif" font-size="10.00">dox</text>
</g>
<!-- dir_0fe284f56ab7c1201dae9358bc34a217 -->
<g id="node2" class="node"><title>dir_0fe284f56ab7c1201dae9358bc34a217</title>
<g id="a_node2"><a xlink:href="dir_0fe284f56ab7c1201dae9358bc34a217.html" target="_top" xlink:title="Common">
<polygon fill="white" stroke="black" points="413.068,-60 356.932,-60 356.932,-24 413.068,-24 413.068,-60"/>
<text text-anchor="middle" x="385" y="-39" font-family="Helvetica,sans-Serif" font-size="10.00">Common</text>
</a>
</g>
</g>
<!-- dir_90d7ec9a25eaaaef3aed16bc7c9416cb -->
<g id="node3" class="node"><title>dir_90d7ec9a25eaaaef3aed16bc7c9416cb</title>
<g id="a_node3"><a xlink:href="dir_90d7ec9a25eaaaef3aed16bc7c9416cb.html" target="_top" xlink:title="ComputationalGeometry">
<polygon fill="white" stroke="black" points="514.384,-132 389.616,-132 389.616,-96 514.384,-96 514.384,-132"/>
<text text-anchor="middle" x="452" y="-111" font-family="Helvetica,sans-Serif" font-size="10.00">ComputationalGeometry</text>
</a>
</g>
</g>
<!-- dir_90d7ec9a25eaaaef3aed16bc7c9416cb&#45;&gt;dir_0fe284f56ab7c1201dae9358bc34a217 -->
<g id="edge1" class="edge"><title>dir_90d7ec9a25eaaaef3aed16bc7c9416cb&#45;&gt;dir_0fe284f56ab7c1201dae9358bc34a217</title>
<path fill="none" stroke="black" d="M435.438,-95.6966C427.325,-87.2198 417.412,-76.8636 408.529,-67.5826"/>
<polygon fill="black" stroke="black" points="410.814,-64.9084 401.371,-60.1043 405.757,-69.7486 410.814,-64.9084"/>
<g id="a_edge1&#45;headlabel"><a xlink:href="dir_000007_000009.html" target="_top" xlink:title="1">
<text text-anchor="middle" x="415.351" y="-62.542" font-family="Helvetica,sans-Serif" font-size="10.00">1</text>
</a>
</g>
</g>
<!-- dir_ee631da9a310ead7c0a18ea00740eb40 -->
<g id="node4" class="node"><title>dir_ee631da9a310ead7c0a18ea00740eb40</title>
<g id="a_node4"><a xlink:href="dir_ee631da9a310ead7c0a18ea00740eb40.html" target="_top" xlink:title="DifferentialGeometry">
<polygon fill="white" stroke="black" points="371.524,-132 264.476,-132 264.476,-96 371.524,-96 371.524,-132"/>
<text text-anchor="middle" x="318" y="-111" font-family="Helvetica,sans-Serif" font-size="10.00">DifferentialGeometry</text>
</a>
</g>
</g>
<!-- dir_ee631da9a310ead7c0a18ea00740eb40&#45;&gt;dir_0fe284f56ab7c1201dae9358bc34a217 -->
<g id="edge2" class="edge"><title>dir_ee631da9a310ead7c0a18ea00740eb40&#45;&gt;dir_0fe284f56ab7c1201dae9358bc34a217</title>
<path fill="none" stroke="black" d="M334.562,-95.6966C342.675,-87.2198 352.588,-76.8636 361.471,-67.5826"/>
<polygon fill="black" stroke="black" points="364.243,-69.7486 368.629,-60.1043 359.186,-64.9084 364.243,-69.7486"/>
<g id="a_edge2&#45;headlabel"><a xlink:href="dir_000008_000009.html" target="_top" xlink:title="15">
<text text-anchor="middle" x="363.808" y="-71.3087" font-family="Helvetica,sans-Serif" font-size="10.00">15</text>
</a>
</g>
</g>
<!-- dir_49e07d9520b62152b1c5942ed9615b8f -->
<g id="node5" class="node"><title>dir_49e07d9520b62152b1c5942ed9615b8f</title>
<g id="a_node5"><a xlink:href="dir_49e07d9520b62152b1c5942ed9615b8f.html" target="_top" xlink:title="IO">
<polygon fill="white" stroke="black" points="246,-132 192,-132 192,-96 246,-96 246,-132"/>
<text text-anchor="middle" x="219" y="-111" font-family="Helvetica,sans-Serif" font-size="10.00">IO</text>
</a>
</g>
</g>
<!-- dir_0d7fcc08c1f83def2a2b9e8dacd1c746 -->
<g id="node6" class="node"><title>dir_0d7fcc08c1f83def2a2b9e8dacd1c746</title>
<g id="a_node6"><a xlink:href="dir_0d7fcc08c1f83def2a2b9e8dacd1c746.html" target="_top" xlink:title="Misc">
<polygon fill="white" stroke="black" points="174,-132 120,-132 120,-96 174,-96 174,-132"/>
<text text-anchor="middle" x="147" y="-111" font-family="Helvetica,sans-Serif" font-size="10.00">Misc</text>
</a>
</g>
</g>
<!-- dir_22afa418b87234e37be081c3da305c8a -->
<g id="node7" class="node"><title>dir_22afa418b87234e37be081c3da305c8a</title>
<g id="a_node7"><a xlink:href="dir_22afa418b87234e37be081c3da305c8a.html" target="_top" xlink:title="Segmentation">
<polygon fill="white" stroke="black" points="101.71,-132 24.2905,-132 24.2905,-96 101.71,-96 101.71,-132"/>
<text text-anchor="middle" x="63" y="-111" font-family="Helvetica,sans-Serif" font-size="10.00">Segmentation</text>
</a>
</g>
</g>
</g>
</svg>
