<?xml version="1.0" encoding="UTF-8" standalone="no"?>
<!DOCTYPE svg PUBLIC "-//W3C//DTD SVG 1.1//EN"
 "http://www.w3.org/Graphics/SVG/1.1/DTD/svg11.dtd">
<!-- Generated by graphviz version 2.38.0 (20140413.2041)
 -->
<!-- Title: ComputationalGeometry Pages: 1 -->
<svg width="164pt" height="150pt"
 viewBox="0.00 0.00 164.00 150.00" xmlns="http://www.w3.org/2000/svg" xmlns:xlink="http://www.w3.org/1999/xlink">
<g id="graph0" class="graph" transform="scale(1 1) rotate(0) translate(4 146)">
<title>ComputationalGeometry</title>
<polygon fill="white" stroke="none" points="-4,4 -4,-146 160,-146 160,4 -4,4"/>
<g id="clust1" class="cluster"><title>clusterdir_607fad70969896e7a18cb8e32c2e9b3c</title>
<g id="a_clust1"><a xlink:href="dir_607fad70969896e7a18cb8e32c2e9b3c.html" target="_top" xlink:title="dox">
<polygon fill="#ddddee" stroke="black" points="8,-64 8,-134 148,-134 148,-64 8,-64"/>
<text text-anchor="middle" x="78" y="-122" font-family="Helvetica,sans-Serif" font-size="10.00">dox</text>
</a>
</g>
</g>
<!-- dir_90d7ec9a25eaaaef3aed16bc7c9416cb -->
<g id="node1" class="node"><title>dir_90d7ec9a25eaaaef3aed16bc7c9416cb</title>
<g id="a_node1"><a xlink:href="dir_90d7ec9a25eaaaef3aed16bc7c9416cb.html" target="_top" xlink:title="ComputationalGeometry">
<polygon fill="#eeeeff" stroke="black" points="140.384,-108 15.6156,-108 15.6156,-72 140.384,-72 140.384,-108"/>
<text text-anchor="middle" x="78" y="-87" font-family="Helvetica,sans-Serif" font-size="10.00">ComputationalGeometry</text>
</a>
</g>
</g>
<!-- dir_0fe284f56ab7c1201dae9358bc34a217 -->
<g id="node2" class="node"><title>dir_0fe284f56ab7c1201dae9358bc34a217</title>
<g id="a_node2"><a xlink:href="dir_0fe284f56ab7c1201dae9358bc34a217.html" target="_top" xlink:title="Common">
<polygon fill="none" stroke="black" points="106.068,-36 49.9319,-36 49.9319,-0 106.068,-0 106.068,-36"/>
<text text-anchor="middle" x="78" y="-15" font-family="Helvetica,sans-Serif" font-size="10.00">Common</text>
</a>
</g>
</g>
<!-- dir_90d7ec9a25eaaaef3aed16bc7c9416cb&#45;&gt;dir_0fe284f56ab7c1201dae9358bc34a217 -->
<g id="edge1" class="edge"><title>dir_90d7ec9a25eaaaef3aed16bc7c9416cb&#45;&gt;dir_0fe284f56ab7c1201dae9358bc34a217</title>
<path fill="none" stroke="black" d="M78,-71.6966C78,-63.9827 78,-54.7125 78,-46.1124"/>
<polygon fill="black" stroke="black" points="81.5001,-46.1043 78,-36.1043 74.5001,-46.1044 81.5001,-46.1043"/>
<g id="a_edge1&#45;headlabel"><a xlink:href="dir_000007_000009.html" target="_top" xlink:title="1">
<text text-anchor="middle" x="84.3393" y="-46.699" font-family="Helvetica,sans-Serif" font-size="10.00">1</text>
</a>
</g>
</g>
</g>
</svg>
