<?xml version="1.0" encoding="UTF-8" standalone="no"?>
<!DOCTYPE svg PUBLIC "-//W3C//DTD SVG 1.1//EN"
 "http://www.w3.org/Graphics/SVG/1.1/DTD/svg11.dtd">
<!-- Generated by graphviz version 2.38.0 (20140413.2041)
 -->
<!-- Title: DifferentialGeometry Pages: 1 -->
<svg width="148pt" height="150pt"
 viewBox="0.00 0.00 148.00 150.00" xmlns="http://www.w3.org/2000/svg" xmlns:xlink="http://www.w3.org/1999/xlink">
<g id="graph0" class="graph" transform="scale(1 1) rotate(0) translate(4 146)">
<title>DifferentialGeometry</title>
<polygon fill="white" stroke="none" points="-4,4 -4,-146 144,-146 144,4 -4,4"/>
<g id="clust1" class="cluster"><title>clusterdir_607fad70969896e7a18cb8e32c2e9b3c</title>
<g id="a_clust1"><a xlink:href="dir_607fad70969896e7a18cb8e32c2e9b3c.html" target="_top" xlink:title="dox">
<polygon fill="#ddddee" stroke="black" points="8,-64 8,-134 132,-134 132,-64 8,-64"/>
<text text-anchor="middle" x="70" y="-122" font-family="Helvetica,sans-Serif" font-size="10.00">dox</text>
</a>
</g>
</g>
<!-- dir_ee631da9a310ead7c0a18ea00740eb40 -->
<g id="node1" class="node"><title>dir_ee631da9a310ead7c0a18ea00740eb40</title>
<g id="a_node1"><a xlink:href="dir_ee631da9a310ead7c0a18ea00740eb40.html" target="_top" xlink:title="DifferentialGeometry">
<polygon fill="#eeeeff" stroke="black" points="123.524,-108 16.4755,-108 16.4755,-72 123.524,-72 123.524,-108"/>
<text text-anchor="middle" x="70" y="-87" font-family="Helvetica,sans-Serif" font-size="10.00">DifferentialGeometry</text>
</a>
</g>
</g>
<!-- dir_0fe284f56ab7c1201dae9358bc34a217 -->
<g id="node2" class="node"><title>dir_0fe284f56ab7c1201dae9358bc34a217</title>
<g id="a_node2"><a xlink:href="dir_0fe284f56ab7c1201dae9358bc34a217.html" target="_top" xlink:title="Common">
<polygon fill="none" stroke="black" points="98.0681,-36 41.9319,-36 41.9319,-0 98.0681,-0 98.0681,-36"/>
<text text-anchor="middle" x="70" y="-15" font-family="Helvetica,sans-Serif" font-size="10.00">Common</text>
</a>
</g>
</g>
<!-- dir_ee631da9a310ead7c0a18ea00740eb40&#45;&gt;dir_0fe284f56ab7c1201dae9358bc34a217 -->
<g id="edge1" class="edge"><title>dir_ee631da9a310ead7c0a18ea00740eb40&#45;&gt;dir_0fe284f56ab7c1201dae9358bc34a217</title>
<path fill="none" stroke="black" d="M70,-71.6966C70,-63.9827 70,-54.7125 70,-46.1124"/>
<polygon fill="black" stroke="black" points="73.5001,-46.1043 70,-36.1043 66.5001,-46.1044 73.5001,-46.1043"/>
<g id="a_edge1&#45;headlabel"><a xlink:href="dir_000008_000009.html" target="_top" xlink:title="15">
<text text-anchor="middle" x="76.3393" y="-46.699" font-family="Helvetica,sans-Serif" font-size="10.00">15</text>
</a>
</g>
</g>
</g>
</svg>
