<?xml version="1.0" encoding="UTF-8" standalone="no"?>
<!DOCTYPE svg PUBLIC "-//W3C//DTD SVG 1.1//EN"
 "http://www.w3.org/Graphics/SVG/1.1/DTD/svg11.dtd">
<!-- Generated by graphviz version 2.38.0 (20140413.2041)
 -->
<!-- Title: Graphical Class Hierarchy Pages: 1 -->
<svg width="305pt" height="101pt"
 viewBox="0.00 0.00 304.95 101.00" xmlns="http://www.w3.org/2000/svg" xmlns:xlink="http://www.w3.org/1999/xlink">
<g id="graph0" class="graph" transform="scale(1 1) rotate(0) translate(4 97)">
<title>Graphical Class Hierarchy</title>
<polygon fill="white" stroke="none" points="-4,4 -4,-97 300.95,-97 300.95,4 -4,4"/>
<!-- Node10 -->
<g id="node1" class="node"><title>Node10</title>
<polygon fill="white" stroke="#bfbfbf" points="0,-37.5 0,-55.5 137.714,-55.5 137.714,-37.5 0,-37.5"/>
<text text-anchor="middle" x="68.8569" y="-43.5" font-family="Helvetica,sans-Serif" font-size="10.00">vtkUnstructuredGridReader</text>
</g>
<!-- Node0 -->
<g id="node2" class="node"><title>Node0</title>
<g id="a_node2"><a xlink:href="classvtkvmtkFDNEUTReader.html" target="_top" xlink:title="Reads FDNEUT Fidap files. ">
<polygon fill="white" stroke="black" points="173.714,-74.5 173.714,-92.5 296.95,-92.5 296.95,-74.5 173.714,-74.5"/>
<text text-anchor="middle" x="235.332" y="-80.5" font-family="Helvetica,sans-Serif" font-size="10.00">vtkvmtkFDNEUTReader</text>
</a>
</g>
</g>
<!-- Node10&#45;&gt;Node0 -->
<g id="edge1" class="edge"><title>Node10&#45;&gt;Node0</title>
<path fill="none" stroke="midnightblue" d="M120.004,-57.781C143.807,-63.1357 171.865,-69.4475 194.228,-74.4782"/>
<polygon fill="midnightblue" stroke="midnightblue" points="120.616,-54.3314 110.092,-55.5512 119.08,-61.1607 120.616,-54.3314"/>
</g>
<!-- Node12 -->
<g id="node3" class="node"><title>Node12</title>
<g id="a_node3"><a xlink:href="classvtkvmtkTetGenReader.html" target="_top" xlink:title="reads unstructured grid data from Tetgen node/elem format ">
<polygon fill="white" stroke="black" points="177.869,-37.5 177.869,-55.5 292.795,-55.5 292.795,-37.5 177.869,-37.5"/>
<text text-anchor="middle" x="235.332" y="-43.5" font-family="Helvetica,sans-Serif" font-size="10.00">vtkvmtkTetGenReader</text>
</a>
</g>
</g>
<!-- Node10&#45;&gt;Node12 -->
<g id="edge2" class="edge"><title>Node10&#45;&gt;Node12</title>
<path fill="none" stroke="midnightblue" d="M148.425,-46.5C158.304,-46.5 168.253,-46.5 177.701,-46.5"/>
<polygon fill="midnightblue" stroke="midnightblue" points="148.18,-43.0001 138.18,-46.5 148.18,-50.0001 148.18,-43.0001"/>
</g>
<!-- Node13 -->
<g id="node4" class="node"><title>Node13</title>
<g id="a_node4"><a xlink:href="classvtkvmtkXdaReader.html" target="_top" xlink:title="reads libmesh Xda files ">
<polygon fill="white" stroke="black" points="185.093,-0.5 185.093,-18.5 285.571,-18.5 285.571,-0.5 185.093,-0.5"/>
<text text-anchor="middle" x="235.332" y="-6.5" font-family="Helvetica,sans-Serif" font-size="10.00">vtkvmtkXdaReader</text>
</a>
</g>
</g>
<!-- Node10&#45;&gt;Node13 -->
<g id="edge3" class="edge"><title>Node10&#45;&gt;Node13</title>
<path fill="none" stroke="midnightblue" d="M120.004,-35.219C143.807,-29.8643 171.865,-23.5525 194.228,-18.5218"/>
<polygon fill="midnightblue" stroke="midnightblue" points="119.08,-31.8393 110.092,-37.4488 120.616,-38.6686 119.08,-31.8393"/>
</g>
</g>
</svg>
