<?xml version="1.0" encoding="UTF-8" standalone="no"?>
<!DOCTYPE svg PUBLIC "-//W3C//DTD SVG 1.1//EN"
 "http://www.w3.org/Graphics/SVG/1.1/DTD/svg11.dtd">
<!-- Generated by graphviz version 2.38.0 (20140413.2041)
 -->
<!-- Title: Graphical Class Hierarchy Pages: 1 -->
<svg width="363pt" height="672pt"
 viewBox="0.00 0.00 362.76 672.00" xmlns="http://www.w3.org/2000/svg" xmlns:xlink="http://www.w3.org/1999/xlink">
<g id="graph0" class="graph" transform="scale(1 1) rotate(0) translate(4 668)">
<title>Graphical Class Hierarchy</title>
<polygon fill="white" stroke="none" points="-4,4 -4,-668 358.758,-668 358.758,4 -4,4"/>
<!-- Node14 -->
<g id="node1" class="node"><title>Node14</title>
<polygon fill="white" stroke="#bfbfbf" points="0,-337.5 0,-355.5 147.152,-355.5 147.152,-337.5 0,-337.5"/>
<text text-anchor="middle" x="73.5762" y="-343.5" font-family="Helvetica,sans-Serif" font-size="10.00">vtkUnstructuredGridAlgorithm</text>
</g>
<!-- Node0 -->
<g id="node2" class="node"><title>Node0</title>
<g id="a_node2"><a xlink:href="classvtkvmtkBoundaryLayerGenerator.html" target="_top" xlink:title="Generates boundary layers of prismatic elements by warping a surface mesh. ">
<polygon fill="white" stroke="black" points="187.588,-645.5 187.588,-663.5 350.322,-663.5 350.322,-645.5 187.588,-645.5"/>
<text text-anchor="middle" x="268.955" y="-651.5" font-family="Helvetica,sans-Serif" font-size="10.00">vtkvmtkBoundaryLayerGenerator</text>
</a>
</g>
</g>
<!-- Node14&#45;&gt;Node0 -->
<g id="edge1" class="edge"><title>Node14&#45;&gt;Node0</title>
<path fill="none" stroke="midnightblue" d="M75.6714,-365.729C79.7367,-417.995 98.501,-563.614 183.152,-636.5 187.372,-640.134 192.144,-643.093 197.22,-645.497"/>
<polygon fill="midnightblue" stroke="midnightblue" points="79.1493,-365.284 74.9791,-355.544 72.1654,-365.759 79.1493,-365.284"/>
</g>
<!-- Node16 -->
<g id="node3" class="node"><title>Node16</title>
<g id="a_node3"><a xlink:href="classvtkvmtkInternalTetrahedraExtractor.html" target="_top" xlink:title="Extract internal tetrahedra from a Delaunay tessellation of a surface. ">
<polygon fill="white" stroke="black" points="203.431,-598.5 203.431,-626.5 334.479,-626.5 334.479,-598.5 203.431,-598.5"/>
<text text-anchor="start" x="211.431" y="-614.5" font-family="Helvetica,sans-Serif" font-size="10.00">vtkvmtkInternalTetrahedra</text>
<text text-anchor="middle" x="268.955" y="-604.5" font-family="Helvetica,sans-Serif" font-size="10.00">Extractor</text>
</a>
</g>
</g>
<!-- Node14&#45;&gt;Node16 -->
<g id="edge2" class="edge"><title>Node14&#45;&gt;Node16</title>
<path fill="none" stroke="midnightblue" d="M77.4677,-365.72C85.4168,-411.668 111.944,-528.576 183.152,-589.5 189.064,-594.558 195.986,-598.513 203.281,-601.605"/>
<polygon fill="midnightblue" stroke="midnightblue" points="80.8892,-364.954 75.8312,-355.644 73.9798,-366.076 80.8892,-364.954"/>
</g>
<!-- Node17 -->
<g id="node4" class="node"><title>Node17</title>
<g id="a_node4"><a xlink:href="classvtkvmtkLinearizeMeshFilter.html" target="_top" xlink:title="Convert linear mesh elements to quadratic mesh elements by ignoring mid side nodes. ">
<polygon fill="white" stroke="black" points="200.384,-561.5 200.384,-579.5 337.526,-579.5 337.526,-561.5 200.384,-561.5"/>
<text text-anchor="middle" x="268.955" y="-567.5" font-family="Helvetica,sans-Serif" font-size="10.00">vtkvmtkLinearizeMeshFilter</text>
</a>
</g>
</g>
<!-- Node14&#45;&gt;Node17 -->
<g id="edge3" class="edge"><title>Node14&#45;&gt;Node17</title>
<path fill="none" stroke="midnightblue" d="M78.8182,-365.512C89.0359,-406.634 119.055,-504.031 183.152,-552.5 188.314,-556.403 194.135,-559.503 200.247,-561.96"/>
<polygon fill="midnightblue" stroke="midnightblue" points="82.2054,-364.627 76.4961,-355.702 75.3936,-366.239 82.2054,-364.627"/>
</g>
<!-- Node18 -->
<g id="node5" class="node"><title>Node18</title>
<g id="a_node5"><a xlink:href="classvtkvmtkLinearToQuadraticMeshFilter.html" target="_top" xlink:title="Converts linear mesh elements to quadratic mesh elements (optionally) by executing by projecting mid ...">
<polygon fill="white" stroke="black" points="203.155,-514.5 203.155,-542.5 334.755,-542.5 334.755,-514.5 203.155,-514.5"/>
<text text-anchor="start" x="211.155" y="-530.5" font-family="Helvetica,sans-Serif" font-size="10.00">vtkvmtkLinearToQuadratic</text>
<text text-anchor="middle" x="268.955" y="-520.5" font-family="Helvetica,sans-Serif" font-size="10.00">MeshFilter</text>
</a>
</g>
</g>
<!-- Node14&#45;&gt;Node18 -->
<g id="edge4" class="edge"><title>Node14&#45;&gt;Node18</title>
<path fill="none" stroke="midnightblue" d="M82.0956,-365.207C96.5143,-398.646 131.291,-468.612 183.152,-505.5 189.119,-509.744 195.83,-513.205 202.795,-516.028"/>
<polygon fill="midnightblue" stroke="midnightblue" points="85.2177,-363.601 78.1338,-355.722 78.7586,-366.299 85.2177,-363.601"/>
</g>
<!-- Node19 -->
<g id="node6" class="node"><title>Node19</title>
<g id="a_node6"><a xlink:href="classvtkvmtkLinearToQuadraticSurfaceMeshFilter.html" target="_top" xlink:title="Converts linear surface elements to quadratic surface elements via either linear subdivision of lapla...">
<polygon fill="white" stroke="black" points="203.155,-467.5 203.155,-495.5 334.755,-495.5 334.755,-467.5 203.155,-467.5"/>
<text text-anchor="start" x="211.155" y="-483.5" font-family="Helvetica,sans-Serif" font-size="10.00">vtkvmtkLinearToQuadratic</text>
<text text-anchor="middle" x="268.955" y="-473.5" font-family="Helvetica,sans-Serif" font-size="10.00">SurfaceMeshFilter</text>
</a>
</g>
</g>
<!-- Node14&#45;&gt;Node19 -->
<g id="edge5" class="edge"><title>Node14&#45;&gt;Node19</title>
<path fill="none" stroke="midnightblue" d="M86.7674,-364.07C104.903,-388.869 141.37,-433.857 183.152,-458.5 189.328,-462.142 196.094,-465.222 203.026,-467.824"/>
<polygon fill="midnightblue" stroke="midnightblue" points="89.4036,-361.739 80.7415,-355.638 83.7086,-365.809 89.4036,-361.739"/>
</g>
<!-- Node20 -->
<g id="node7" class="node"><title>Node20</title>
<g id="a_node7"><a xlink:href="classvtkvmtkMeshLambda2.html" target="_top" xlink:title="Compute the Lambda2 surface for a given flow field which allow for the visualization of fluid vortex ...">
<polygon fill="white" stroke="black" points="210.936,-430.5 210.936,-448.5 326.975,-448.5 326.975,-430.5 210.936,-430.5"/>
<text text-anchor="middle" x="268.955" y="-436.5" font-family="Helvetica,sans-Serif" font-size="10.00">vtkvmtkMeshLambda2</text>
</a>
</g>
</g>
<!-- Node14&#45;&gt;Node20 -->
<g id="edge6" class="edge"><title>Node14&#45;&gt;Node20</title>
<path fill="none" stroke="midnightblue" d="M92.6811,-362.406C113.207,-379.587 148.357,-406.508 183.152,-421.5 191.86,-425.252 201.418,-428.247 210.88,-430.631"/>
<polygon fill="midnightblue" stroke="midnightblue" points="94.7024,-359.53 84.8232,-355.702 90.1591,-364.855 94.7024,-359.53"/>
</g>
<!-- Node21 -->
<g id="node8" class="node"><title>Node21</title>
<g id="a_node8"><a xlink:href="classvtkvmtkMeshProjection.html" target="_top" xlink:title="Project point data from a reference mesh onto a query mesh. ">
<polygon fill="white" stroke="black" points="209.551,-393.5 209.551,-411.5 328.359,-411.5 328.359,-393.5 209.551,-393.5"/>
<text text-anchor="middle" x="268.955" y="-399.5" font-family="Helvetica,sans-Serif" font-size="10.00">vtkvmtkMeshProjection</text>
</a>
</g>
</g>
<!-- Node14&#45;&gt;Node21 -->
<g id="edge7" class="edge"><title>Node14&#45;&gt;Node21</title>
<path fill="none" stroke="midnightblue" d="M107.171,-359.131C128.555,-367.112 157.252,-377.251 183.152,-384.5 195.037,-387.826 208.009,-390.869 220.152,-393.468"/>
<polygon fill="midnightblue" stroke="midnightblue" points="108.193,-355.776 97.6013,-355.521 105.722,-362.325 108.193,-355.776"/>
</g>
<!-- Node22 -->
<g id="node9" class="node"><title>Node22</title>
<g id="a_node9"><a xlink:href="classvtkvmtkMeshVelocityStatistics.html" target="_top" xlink:title="calculates average and RMS velocity statistics ">
<polygon fill="white" stroke="black" points="194.546,-356.5 194.546,-374.5 343.364,-374.5 343.364,-356.5 194.546,-356.5"/>
<text text-anchor="middle" x="268.955" y="-362.5" font-family="Helvetica,sans-Serif" font-size="10.00">vtkvmtkMeshVelocityStatistics</text>
</a>
</g>
</g>
<!-- Node14&#45;&gt;Node22 -->
<g id="edge8" class="edge"><title>Node14&#45;&gt;Node22</title>
<path fill="none" stroke="midnightblue" d="M157.633,-354.661C169.909,-355.867 182.484,-357.102 194.545,-358.287"/>
<polygon fill="midnightblue" stroke="midnightblue" points="157.703,-351.151 147.409,-353.656 157.019,-358.117 157.703,-351.151"/>
</g>
<!-- Node23 -->
<g id="node10" class="node"><title>Node23</title>
<g id="a_node10"><a xlink:href="classvtkvmtkMeshVorticity.html" target="_top" xlink:title="Calculates vorticity from velocity gradients in a mesh. ">
<polygon fill="white" stroke="black" points="214.278,-319.5 214.278,-337.5 323.632,-337.5 323.632,-319.5 214.278,-319.5"/>
<text text-anchor="middle" x="268.955" y="-325.5" font-family="Helvetica,sans-Serif" font-size="10.00">vtkvmtkMeshVorticity</text>
</a>
</g>
</g>
<!-- Node14&#45;&gt;Node23 -->
<g id="edge9" class="edge"><title>Node14&#45;&gt;Node23</title>
<path fill="none" stroke="midnightblue" d="M157.379,-338.793C176.608,-337.003 196.585,-335.143 214.182,-333.505"/>
<polygon fill="midnightblue" stroke="midnightblue" points="157.041,-335.309 147.409,-339.721 157.69,-342.279 157.041,-335.309"/>
</g>
<!-- Node24 -->
<g id="node11" class="node"><title>Node24</title>
<g id="a_node11"><a xlink:href="classvtkvmtkPolyDataToUnstructuredGridFilter.html" target="_top" xlink:title="create a mesh type object from a surface type object ">
<polygon fill="white" stroke="black" points="189.82,-272.5 189.82,-300.5 348.09,-300.5 348.09,-272.5 189.82,-272.5"/>
<text text-anchor="start" x="197.82" y="-288.5" font-family="Helvetica,sans-Serif" font-size="10.00">vtkvmtkPolyDataToUnstructured</text>
<text text-anchor="middle" x="268.955" y="-278.5" font-family="Helvetica,sans-Serif" font-size="10.00">GridFilter</text>
</a>
</g>
</g>
<!-- Node14&#45;&gt;Node24 -->
<g id="edge10" class="edge"><title>Node14&#45;&gt;Node24</title>
<path fill="none" stroke="midnightblue" d="M110.329,-334.202C131.442,-327.051 158.733,-318 183.152,-310.5 193.976,-307.176 205.628,-303.768 216.725,-300.603"/>
<polygon fill="midnightblue" stroke="midnightblue" points="109.14,-330.91 100.8,-337.443 111.394,-337.537 109.14,-330.91"/>
</g>
<!-- Node25 -->
<g id="node12" class="node"><title>Node25</title>
<g id="a_node12"><a xlink:href="classvtkvmtkTetGenWrapper.html" target="_top" xlink:title="Wrapped tetgen volumetric meshing utility. ">
<polygon fill="white" stroke="black" points="208.807,-235.5 208.807,-253.5 329.104,-253.5 329.104,-235.5 208.807,-235.5"/>
<text text-anchor="middle" x="268.955" y="-241.5" font-family="Helvetica,sans-Serif" font-size="10.00">vtkvmtkTetGenWrapper</text>
</a>
</g>
</g>
<!-- Node14&#45;&gt;Node25 -->
<g id="edge11" class="edge"><title>Node14&#45;&gt;Node25</title>
<path fill="none" stroke="midnightblue" d="M90.859,-330.343C110.87,-311.424 146.679,-280.517 183.152,-263.5 192.04,-259.353 201.881,-256.088 211.619,-253.523"/>
<polygon fill="midnightblue" stroke="midnightblue" points="88.2966,-327.951 83.5269,-337.412 93.1552,-332.991 88.2966,-327.951"/>
</g>
<!-- Node26 -->
<g id="node13" class="node"><title>Node26</title>
<g id="a_node13"><a xlink:href="classvtkvmtkUnstructuredGridCenterlineGroupsClipper.html" target="_top" xlink:title="Split an unstructured grid into groups/branches corresponding to their proximity to the polyball line...">
<polygon fill="white" stroke="black" points="183.152,-188.5 183.152,-216.5 354.758,-216.5 354.758,-188.5 183.152,-188.5"/>
<text text-anchor="start" x="191.152" y="-204.5" font-family="Helvetica,sans-Serif" font-size="10.00">vtkvmtkUnstructuredGridCenterline</text>
<text text-anchor="middle" x="268.955" y="-194.5" font-family="Helvetica,sans-Serif" font-size="10.00">GroupsClipper</text>
</a>
</g>
</g>
<!-- Node14&#45;&gt;Node26 -->
<g id="edge12" class="edge"><title>Node14&#45;&gt;Node26</title>
<path fill="none" stroke="midnightblue" d="M85.7485,-328.841C103.284,-302.574 139.784,-253.423 183.152,-226.5 189.392,-222.626 196.273,-219.362 203.336,-216.614"/>
<polygon fill="midnightblue" stroke="midnightblue" points="82.6983,-327.111 80.1683,-337.4 88.562,-330.935 82.6983,-327.111"/>
</g>
<!-- Node27 -->
<g id="node14" class="node"><title>Node27</title>
<g id="a_node14"><a xlink:href="classvtkvmtkUnstructuredGridGradientFilter.html" target="_top" xlink:title="Compute the gradient of data stored within an unstructured grid mesh. ">
<polygon fill="white" stroke="black" points="186.766,-141.5 186.766,-169.5 351.145,-169.5 351.145,-141.5 186.766,-141.5"/>
<text text-anchor="start" x="194.766" y="-157.5" font-family="Helvetica,sans-Serif" font-size="10.00">vtkvmtkUnstructuredGridGradient</text>
<text text-anchor="middle" x="268.955" y="-147.5" font-family="Helvetica,sans-Serif" font-size="10.00">Filter</text>
</a>
</g>
</g>
<!-- Node14&#45;&gt;Node27 -->
<g id="edge13" class="edge"><title>Node14&#45;&gt;Node27</title>
<path fill="none" stroke="midnightblue" d="M81.4918,-327.859C95.3072,-293.228 129.665,-218.914 183.152,-179.5 188.449,-175.597 194.359,-172.328 200.527,-169.59"/>
<polygon fill="midnightblue" stroke="midnightblue" points="78.2028,-326.661 77.8654,-337.25 84.7328,-329.182 78.2028,-326.661"/>
</g>
<!-- Node28 -->
<g id="node15" class="node"><title>Node28</title>
<g id="a_node15"><a xlink:href="classvtkvmtkUnstructuredGridHarmonicMappingFilter.html" target="_top" xlink:title="Construct a harmonic function over each vascular mesh segment used during mapping order to stretch th...">
<polygon fill="white" stroke="black" points="184.549,-94.5 184.549,-122.5 353.361,-122.5 353.361,-94.5 184.549,-94.5"/>
<text text-anchor="start" x="192.549" y="-110.5" font-family="Helvetica,sans-Serif" font-size="10.00">vtkvmtkUnstructuredGridHarmonic</text>
<text text-anchor="middle" x="268.955" y="-100.5" font-family="Helvetica,sans-Serif" font-size="10.00">MappingFilter</text>
</a>
</g>
</g>
<!-- Node14&#45;&gt;Node28 -->
<g id="edge14" class="edge"><title>Node14&#45;&gt;Node28</title>
<path fill="none" stroke="midnightblue" d="M78.7755,-327.357C88.9755,-285.471 119.07,-185.232 183.152,-132.5 187.878,-128.611 193.198,-125.351 198.81,-122.62"/>
<polygon fill="midnightblue" stroke="midnightblue" points="75.363,-326.58 76.5076,-337.113 82.1812,-328.165 75.363,-326.58"/>
</g>
<!-- Node29 -->
<g id="node16" class="node"><title>Node29</title>
<g id="a_node16"><a xlink:href="classvtkvmtkUnstructuredGridTetraFilter.html" target="_top" xlink:title="Convert the elements of a mesh to linear tetrahedra. ">
<polygon fill="white" stroke="black" points="194.827,-47.5 194.827,-75.5 343.083,-75.5 343.083,-47.5 194.827,-47.5"/>
<text text-anchor="start" x="202.827" y="-63.5" font-family="Helvetica,sans-Serif" font-size="10.00">vtkvmtkUnstructuredGridTetra</text>
<text text-anchor="middle" x="268.955" y="-53.5" font-family="Helvetica,sans-Serif" font-size="10.00">Filter</text>
</a>
</g>
</g>
<!-- Node14&#45;&gt;Node29 -->
<g id="edge15" class="edge"><title>Node14&#45;&gt;Node29</title>
<path fill="none" stroke="midnightblue" d="M76.8241,-327.548C83.5407,-279.559 107.904,-152.325 183.152,-85.5 187.5,-81.6391 192.425,-78.3957 197.661,-75.6713"/>
<polygon fill="midnightblue" stroke="midnightblue" points="73.3501,-327.122 75.5319,-337.49 80.2918,-328.024 73.3501,-327.122"/>
</g>
<!-- Node30 -->
<g id="node17" class="node"><title>Node30</title>
<g id="a_node17"><a xlink:href="classvtkvmtkUnstructuredGridVorticityFilter.html" target="_top" xlink:title="Calculates vorticity from velocity in a mesh. ">
<polygon fill="white" stroke="black" points="188.436,-0.5 188.436,-28.5 349.475,-28.5 349.475,-0.5 188.436,-0.5"/>
<text text-anchor="start" x="196.436" y="-16.5" font-family="Helvetica,sans-Serif" font-size="10.00">vtkvmtkUnstructuredGridVorticity</text>
<text text-anchor="middle" x="268.955" y="-6.5" font-family="Helvetica,sans-Serif" font-size="10.00">Filter</text>
</a>
</g>
</g>
<!-- Node14&#45;&gt;Node30 -->
<g id="edge16" class="edge"><title>Node14&#45;&gt;Node30</title>
<path fill="none" stroke="midnightblue" d="M75.4917,-327.126C79.115,-273.108 96.8887,-119.484 183.152,-38.5 187.28,-34.6251 191.986,-31.369 197.017,-28.6337"/>
<polygon fill="midnightblue" stroke="midnightblue" points="71.9843,-327.155 74.9012,-337.34 78.9727,-327.559 71.9843,-327.155"/>
</g>
</g>
</svg>
