<?xml version="1.0" encoding="UTF-8" standalone="no"?>
<!DOCTYPE svg PUBLIC "-//W3C//DTD SVG 1.1//EN"
 "http://www.w3.org/Graphics/SVG/1.1/DTD/svg11.dtd">
<!-- Generated by graphviz version 2.38.0 (20140413.2041)
 -->
<!-- Title: Graphical Class Hierarchy Pages: 1 -->
<svg width="363pt" height="635pt"
 viewBox="0.00 0.00 362.76 635.00" xmlns="http://www.w3.org/2000/svg" xmlns:xlink="http://www.w3.org/1999/xlink">
<g id="graph0" class="graph" transform="scale(1 1) rotate(0) translate(4 631)">
<title>Graphical Class Hierarchy</title>
<polygon fill="white" stroke="none" points="-4,4 -4,-631 358.758,-631 358.758,4 -4,4"/>
<!-- Node12 -->
<g id="node1" class="node"><title>Node12</title>
<polygon fill="white" stroke="#bfbfbf" points="0,-319.5 0,-337.5 147.152,-337.5 147.152,-319.5 0,-319.5"/>
<text text-anchor="middle" x="73.5762" y="-325.5" font-family="Helvetica,sans-Serif" font-size="10.00">vtkUnstructuredGridAlgorithm</text>
</g>
<!-- Node0 -->
<g id="node2" class="node"><title>Node0</title>
<g id="a_node2"><a xlink:href="classvtkvmtkBoundaryLayerGenerator.html" target="_top" xlink:title="Generates boundary layers of prismatic elements by warping a surface mesh. ">
<polygon fill="white" stroke="black" points="187.588,-608.5 187.588,-626.5 350.322,-626.5 350.322,-608.5 187.588,-608.5"/>
<text text-anchor="middle" x="268.955" y="-614.5" font-family="Helvetica,sans-Serif" font-size="10.00">vtkvmtkBoundaryLayerGenerator</text>
</a>
</g>
</g>
<!-- Node12&#45;&gt;Node0 -->
<g id="edge1" class="edge"><title>Node12&#45;&gt;Node0</title>
<path fill="none" stroke="midnightblue" d="M76.244,-347.814C81.6471,-397.821 103.275,-532.296 183.152,-599.5 187.414,-603.085 192.214,-606.01 197.31,-608.39"/>
<polygon fill="midnightblue" stroke="midnightblue" points="79.7153,-347.349 75.2568,-337.738 72.7486,-348.031 79.7153,-347.349"/>
</g>
<!-- Node14 -->
<g id="node3" class="node"><title>Node14</title>
<g id="a_node3"><a xlink:href="classvtkvmtkInternalTetrahedraExtractor.html" target="_top" xlink:title="Extract internal tetrahedra from a Delaunay tessellation. ">
<polygon fill="white" stroke="black" points="203.431,-561.5 203.431,-589.5 334.479,-589.5 334.479,-561.5 203.431,-561.5"/>
<text text-anchor="start" x="211.431" y="-577.5" font-family="Helvetica,sans-Serif" font-size="10.00">vtkvmtkInternalTetrahedra</text>
<text text-anchor="middle" x="268.955" y="-567.5" font-family="Helvetica,sans-Serif" font-size="10.00">Extractor</text>
</a>
</g>
</g>
<!-- Node12&#45;&gt;Node14 -->
<g id="edge2" class="edge"><title>Node12&#45;&gt;Node14</title>
<path fill="none" stroke="midnightblue" d="M78.2608,-347.694C87.6139,-391.074 116.429,-497.189 183.152,-552.5 189.142,-557.465 196.111,-561.365 203.431,-564.426"/>
<polygon fill="midnightblue" stroke="midnightblue" points="81.6835,-346.962 76.2485,-337.867 74.8258,-348.366 81.6835,-346.962"/>
</g>
<!-- Node15 -->
<g id="node4" class="node"><title>Node15</title>
<g id="a_node4"><a xlink:href="classvtkvmtkLinearizeMeshFilter.html" target="_top" xlink:title="Converts linear elements to quadratic. ">
<polygon fill="white" stroke="black" points="200.384,-524.5 200.384,-542.5 337.526,-542.5 337.526,-524.5 200.384,-524.5"/>
<text text-anchor="middle" x="268.955" y="-530.5" font-family="Helvetica,sans-Serif" font-size="10.00">vtkvmtkLinearizeMeshFilter</text>
</a>
</g>
</g>
<!-- Node12&#45;&gt;Node15 -->
<g id="edge3" class="edge"><title>Node12&#45;&gt;Node15</title>
<path fill="none" stroke="midnightblue" d="M79.9106,-347.573C91.6791,-385.929 123.662,-472.402 183.152,-515.5 188.271,-519.209 193.993,-522.185 199.983,-524.569"/>
<polygon fill="midnightblue" stroke="midnightblue" points="83.1889,-346.316 77.0094,-337.709 76.4734,-348.291 83.1889,-346.316"/>
</g>
<!-- Node16 -->
<g id="node5" class="node"><title>Node16</title>
<g id="a_node5"><a xlink:href="classvtkvmtkLinearToQuadraticMeshFilter.html" target="_top" xlink:title="Converts linear elements to quadratic. ">
<polygon fill="white" stroke="black" points="203.155,-477.5 203.155,-505.5 334.755,-505.5 334.755,-477.5 203.155,-477.5"/>
<text text-anchor="start" x="211.155" y="-493.5" font-family="Helvetica,sans-Serif" font-size="10.00">vtkvmtkLinearToQuadratic</text>
<text text-anchor="middle" x="268.955" y="-483.5" font-family="Helvetica,sans-Serif" font-size="10.00">MeshFilter</text>
</a>
</g>
</g>
<!-- Node12&#45;&gt;Node16 -->
<g id="edge4" class="edge"><title>Node12&#45;&gt;Node16</title>
<path fill="none" stroke="midnightblue" d="M83.5889,-346.636C99.4671,-376.679 135.326,-436.616 183.152,-468.5 189.245,-472.562 196.034,-475.909 203.044,-478.666"/>
<polygon fill="midnightblue" stroke="midnightblue" points="86.6676,-344.969 78.9817,-337.677 80.4425,-348.171 86.6676,-344.969"/>
</g>
<!-- Node17 -->
<g id="node6" class="node"><title>Node17</title>
<g id="a_node6"><a xlink:href="classvtkvmtkLinearToQuadraticSurfaceMeshFilter.html" target="_top" xlink:title="Converts linear elements to quadratic. ">
<polygon fill="white" stroke="black" points="203.155,-430.5 203.155,-458.5 334.755,-458.5 334.755,-430.5 203.155,-430.5"/>
<text text-anchor="start" x="211.155" y="-446.5" font-family="Helvetica,sans-Serif" font-size="10.00">vtkvmtkLinearToQuadratic</text>
<text text-anchor="middle" x="268.955" y="-436.5" font-family="Helvetica,sans-Serif" font-size="10.00">SurfaceMeshFilter</text>
</a>
</g>
</g>
<!-- Node12&#45;&gt;Node17 -->
<g id="edge5" class="edge"><title>Node12&#45;&gt;Node17</title>
<path fill="none" stroke="midnightblue" d="M89.4355,-345.146C108.943,-365.997 145.191,-401.419 183.152,-421.5 189.625,-424.924 196.651,-427.872 203.797,-430.403"/>
<polygon fill="midnightblue" stroke="midnightblue" points="91.9269,-342.684 82.5869,-337.683 86.7693,-347.417 91.9269,-342.684"/>
</g>
<!-- Node18 -->
<g id="node7" class="node"><title>Node18</title>
<g id="a_node7"><a xlink:href="classvtkvmtkMeshLambda2.html" target="_top" xlink:title="... ">
<polygon fill="white" stroke="black" points="210.936,-393.5 210.936,-411.5 326.975,-411.5 326.975,-393.5 210.936,-393.5"/>
<text text-anchor="middle" x="268.955" y="-399.5" font-family="Helvetica,sans-Serif" font-size="10.00">vtkvmtkMeshLambda2</text>
</a>
</g>
</g>
<!-- Node12&#45;&gt;Node18 -->
<g id="edge6" class="edge"><title>Node12&#45;&gt;Node18</title>
<path fill="none" stroke="midnightblue" d="M97.8227,-342.814C119.267,-355.446 152.352,-373.512 183.152,-384.5 193.075,-388.04 203.912,-390.99 214.421,-393.408"/>
<polygon fill="midnightblue" stroke="midnightblue" points="99.4908,-339.734 89.1122,-337.604 95.8973,-345.741 99.4908,-339.734"/>
</g>
<!-- Node19 -->
<g id="node8" class="node"><title>Node19</title>
<g id="a_node8"><a xlink:href="classvtkvmtkMeshProjection.html" target="_top" xlink:title="Project point data from a reference mesh onto a query mesh. ">
<polygon fill="white" stroke="black" points="209.551,-356.5 209.551,-374.5 328.359,-374.5 328.359,-356.5 209.551,-356.5"/>
<text text-anchor="middle" x="268.955" y="-362.5" font-family="Helvetica,sans-Serif" font-size="10.00">vtkvmtkMeshProjection</text>
</a>
</g>
</g>
<!-- Node12&#45;&gt;Node19 -->
<g id="edge7" class="edge"><title>Node12&#45;&gt;Node19</title>
<path fill="none" stroke="midnightblue" d="M132.041,-339.495C160.342,-344.91 194.041,-351.358 220.803,-356.478"/>
<polygon fill="midnightblue" stroke="midnightblue" points="132.362,-335.993 121.882,-337.551 131.046,-342.868 132.362,-335.993"/>
</g>
<!-- Node20 -->
<g id="node9" class="node"><title>Node20</title>
<g id="a_node9"><a xlink:href="classvtkvmtkMeshVelocityStatistics.html" target="_top" xlink:title="calculates average and RMS velocity statistics ">
<polygon fill="white" stroke="black" points="194.546,-319.5 194.546,-337.5 343.364,-337.5 343.364,-319.5 194.546,-319.5"/>
<text text-anchor="middle" x="268.955" y="-325.5" font-family="Helvetica,sans-Serif" font-size="10.00">vtkvmtkMeshVelocityStatistics</text>
</a>
</g>
</g>
<!-- Node12&#45;&gt;Node20 -->
<g id="edge8" class="edge"><title>Node12&#45;&gt;Node20</title>
<path fill="none" stroke="midnightblue" d="M157.633,-328.5C169.909,-328.5 182.484,-328.5 194.545,-328.5"/>
<polygon fill="midnightblue" stroke="midnightblue" points="157.409,-325 147.409,-328.5 157.409,-332 157.409,-325"/>
</g>
<!-- Node21 -->
<g id="node10" class="node"><title>Node21</title>
<g id="a_node10"><a xlink:href="classvtkvmtkMeshVorticity.html" target="_top" xlink:title="calculates vorticity from velocity gradients in a mesh ">
<polygon fill="white" stroke="black" points="214.278,-282.5 214.278,-300.5 323.632,-300.5 323.632,-282.5 214.278,-282.5"/>
<text text-anchor="middle" x="268.955" y="-288.5" font-family="Helvetica,sans-Serif" font-size="10.00">vtkvmtkMeshVorticity</text>
</a>
</g>
</g>
<!-- Node12&#45;&gt;Node21 -->
<g id="edge9" class="edge"><title>Node12&#45;&gt;Node21</title>
<path fill="none" stroke="midnightblue" d="M132.041,-317.505C160.342,-312.09 194.041,-305.642 220.803,-300.522"/>
<polygon fill="midnightblue" stroke="midnightblue" points="131.046,-314.132 121.882,-319.449 132.362,-321.007 131.046,-314.132"/>
</g>
<!-- Node22 -->
<g id="node11" class="node"><title>Node22</title>
<g id="a_node11"><a xlink:href="classvtkvmtkPolyDataToUnstructuredGridFilter.html" target="_top" xlink:title="create a mesh type object from a surface type object ">
<polygon fill="white" stroke="black" points="189.82,-235.5 189.82,-263.5 348.09,-263.5 348.09,-235.5 189.82,-235.5"/>
<text text-anchor="start" x="197.82" y="-251.5" font-family="Helvetica,sans-Serif" font-size="10.00">vtkvmtkPolyDataToUnstructured</text>
<text text-anchor="middle" x="268.955" y="-241.5" font-family="Helvetica,sans-Serif" font-size="10.00">GridFilter</text>
</a>
</g>
</g>
<!-- Node12&#45;&gt;Node22 -->
<g id="edge10" class="edge"><title>Node12&#45;&gt;Node22</title>
<path fill="none" stroke="midnightblue" d="M99.1454,-314.327C120.752,-302.286 153.319,-285.151 183.152,-273.5 192.416,-269.882 202.443,-266.554 212.248,-263.602"/>
<polygon fill="midnightblue" stroke="midnightblue" points="97.3103,-311.343 90.3179,-319.303 100.748,-317.441 97.3103,-311.343"/>
</g>
<!-- Node23 -->
<g id="node12" class="node"><title>Node23</title>
<g id="a_node12"><a xlink:href="classvtkvmtkUnstructuredGridCenterlineGroupsClipper.html" target="_top" xlink:title="Split an unstructured grid into groups/branches corresponding to their proximity to the polyball line...">
<polygon fill="white" stroke="black" points="183.152,-188.5 183.152,-216.5 354.758,-216.5 354.758,-188.5 183.152,-188.5"/>
<text text-anchor="start" x="191.152" y="-204.5" font-family="Helvetica,sans-Serif" font-size="10.00">vtkvmtkUnstructuredGridCenterline</text>
<text text-anchor="middle" x="268.955" y="-194.5" font-family="Helvetica,sans-Serif" font-size="10.00">GroupsClipper</text>
</a>
</g>
</g>
<!-- Node12&#45;&gt;Node23 -->
<g id="edge11" class="edge"><title>Node12&#45;&gt;Node23</title>
<path fill="none" stroke="midnightblue" d="M88.0055,-311.587C106.884,-288.93 143.434,-248.978 183.152,-226.5 189.944,-222.657 197.395,-219.392 204.973,-216.628"/>
<polygon fill="midnightblue" stroke="midnightblue" points="85.2793,-309.392 81.6656,-319.352 90.7014,-313.82 85.2793,-309.392"/>
</g>
<!-- Node24 -->
<g id="node13" class="node"><title>Node24</title>
<g id="a_node13"><a xlink:href="classvtkvmtkUnstructuredGridGradientFilter.html" target="_top" xlink:title="Compute the gradient of data stored within an unstructured grid mesh. ">
<polygon fill="white" stroke="black" points="186.766,-141.5 186.766,-169.5 351.145,-169.5 351.145,-141.5 186.766,-141.5"/>
<text text-anchor="start" x="194.766" y="-157.5" font-family="Helvetica,sans-Serif" font-size="10.00">vtkvmtkUnstructuredGridGradient</text>
<text text-anchor="middle" x="268.955" y="-147.5" font-family="Helvetica,sans-Serif" font-size="10.00">Filter</text>
</a>
</g>
</g>
<!-- Node12&#45;&gt;Node24 -->
<g id="edge12" class="edge"><title>Node12&#45;&gt;Node24</title>
<path fill="none" stroke="midnightblue" d="M83.0929,-309.712C98.4511,-277.974 133.836,-213.853 183.152,-179.5 188.802,-175.564 195.086,-172.271 201.606,-169.515"/>
<polygon fill="midnightblue" stroke="midnightblue" points="79.746,-308.605 78.661,-319.144 86.0815,-311.581 79.746,-308.605"/>
</g>
<!-- Node25 -->
<g id="node14" class="node"><title>Node25</title>
<g id="a_node14"><a xlink:href="classvtkvmtkUnstructuredGridHarmonicMappingFilter.html" target="_top" xlink:title=".. ">
<polygon fill="white" stroke="black" points="184.549,-94.5 184.549,-122.5 353.361,-122.5 353.361,-94.5 184.549,-94.5"/>
<text text-anchor="start" x="192.549" y="-110.5" font-family="Helvetica,sans-Serif" font-size="10.00">vtkvmtkUnstructuredGridHarmonic</text>
<text text-anchor="middle" x="268.955" y="-100.5" font-family="Helvetica,sans-Serif" font-size="10.00">MappingFilter</text>
</a>
</g>
</g>
<!-- Node12&#45;&gt;Node25 -->
<g id="edge13" class="edge"><title>Node12&#45;&gt;Node25</title>
<path fill="none" stroke="midnightblue" d="M79.6477,-309.662C91.1717,-270.526 123.098,-180.113 183.152,-132.5 188.068,-128.603 193.585,-125.338 199.383,-122.603"/>
<polygon fill="midnightblue" stroke="midnightblue" points="76.2295,-308.888 76.8778,-319.463 82.9656,-310.792 76.2295,-308.888"/>
</g>
<!-- Node26 -->
<g id="node15" class="node"><title>Node26</title>
<g id="a_node15"><a xlink:href="classvtkvmtkUnstructuredGridTetraFilter.html" target="_top" xlink:title="... ">
<polygon fill="white" stroke="black" points="194.827,-47.5 194.827,-75.5 343.083,-75.5 343.083,-47.5 194.827,-47.5"/>
<text text-anchor="start" x="202.827" y="-63.5" font-family="Helvetica,sans-Serif" font-size="10.00">vtkvmtkUnstructuredGridTetra</text>
<text text-anchor="middle" x="268.955" y="-53.5" font-family="Helvetica,sans-Serif" font-size="10.00">Filter</text>
</a>
</g>
</g>
<!-- Node12&#45;&gt;Node26 -->
<g id="edge14" class="edge"><title>Node12&#45;&gt;Node26</title>
<path fill="none" stroke="midnightblue" d="M77.5111,-309.331C85.5559,-263.493 112.279,-146.813 183.152,-85.5 187.665,-81.5958 192.771,-78.3242 198.185,-75.583"/>
<polygon fill="midnightblue" stroke="midnightblue" points="74.0275,-308.945 75.8527,-319.381 80.9341,-310.084 74.0275,-308.945"/>
</g>
<!-- Node27 -->
<g id="node16" class="node"><title>Node27</title>
<g id="a_node16"><a xlink:href="classvtkvmtkUnstructuredGridVorticityFilter.html" target="_top" xlink:title=".. ">
<polygon fill="white" stroke="black" points="188.436,-0.5 188.436,-28.5 349.475,-28.5 349.475,-0.5 188.436,-0.5"/>
<text text-anchor="start" x="196.436" y="-16.5" font-family="Helvetica,sans-Serif" font-size="10.00">vtkvmtkUnstructuredGridVorticity</text>
<text text-anchor="middle" x="268.955" y="-6.5" font-family="Helvetica,sans-Serif" font-size="10.00">Filter</text>
</a>
</g>
</g>
<!-- Node12&#45;&gt;Node27 -->
<g id="edge15" class="edge"><title>Node12&#45;&gt;Node27</title>
<path fill="none" stroke="midnightblue" d="M75.9668,-309.219C80.7603,-257.408 101.16,-113.996 183.152,-38.5 187.43,-34.5616 192.306,-31.2635 197.508,-28.5026"/>
<polygon fill="midnightblue" stroke="midnightblue" points="72.4665,-309.079 75.1271,-319.334 79.4425,-309.658 72.4665,-309.079"/>
</g>
</g>
</svg>
