<?xml version="1.0" encoding="UTF-8" standalone="no"?>
<!DOCTYPE svg PUBLIC "-//W3C//DTD SVG 1.1//EN"
 "http://www.w3.org/Graphics/SVG/1.1/DTD/svg11.dtd">
<!-- Generated by graphviz version 2.38.0 (20140413.2041)
 -->
<!-- Title: Graphical Class Hierarchy Pages: 1 -->
<svg width="305pt" height="64pt"
 viewBox="0.00 0.00 304.95 64.00" xmlns="http://www.w3.org/2000/svg" xmlns:xlink="http://www.w3.org/1999/xlink">
<g id="graph0" class="graph" transform="scale(1 1) rotate(0) translate(4 60)">
<title>Graphical Class Hierarchy</title>
<polygon fill="white" stroke="none" points="-4,4 -4,-60 300.95,-60 300.95,4 -4,4"/>
<!-- Node9 -->
<g id="node1" class="node"><title>Node9</title>
<polygon fill="white" stroke="#bfbfbf" points="0,-18.5 0,-36.5 137.714,-36.5 137.714,-18.5 0,-18.5"/>
<text text-anchor="middle" x="68.8569" y="-24.5" font-family="Helvetica,sans-Serif" font-size="10.00">vtkUnstructuredGridReader</text>
</g>
<!-- Node0 -->
<g id="node2" class="node"><title>Node0</title>
<g id="a_node2"><a xlink:href="classvtkvmtkFDNEUTReader.html" target="_top" xlink:title="vtkvmtkFDNEUTReader">
<polygon fill="white" stroke="black" points="173.714,-37.5 173.714,-55.5 296.95,-55.5 296.95,-37.5 173.714,-37.5"/>
<text text-anchor="middle" x="235.332" y="-43.5" font-family="Helvetica,sans-Serif" font-size="10.00">vtkvmtkFDNEUTReader</text>
</a>
</g>
</g>
<!-- Node9&#45;&gt;Node0 -->
<g id="edge1" class="edge"><title>Node9&#45;&gt;Node0</title>
<path fill="none" stroke="midnightblue" d="M148.155,-36.5449C156.693,-37.5312 165.288,-38.5241 173.57,-39.4809"/>
<polygon fill="midnightblue" stroke="midnightblue" points="148.516,-33.0634 138.18,-35.3926 147.713,-40.0172 148.516,-33.0634"/>
</g>
<!-- Node11 -->
<g id="node3" class="node"><title>Node11</title>
<g id="a_node3"><a xlink:href="classvtkvmtkXdaReader.html" target="_top" xlink:title="reads libmesh Xda files ">
<polygon fill="white" stroke="black" points="185.093,-0.5 185.093,-18.5 285.571,-18.5 285.571,-0.5 185.093,-0.5"/>
<text text-anchor="middle" x="235.332" y="-6.5" font-family="Helvetica,sans-Serif" font-size="10.00">vtkvmtkXdaReader</text>
</a>
</g>
</g>
<!-- Node9&#45;&gt;Node11 -->
<g id="edge2" class="edge"><title>Node9&#45;&gt;Node11</title>
<path fill="none" stroke="midnightblue" d="M148.193,-18.927C160.738,-17.5541 173.404,-16.1679 185.021,-14.8966"/>
<polygon fill="midnightblue" stroke="midnightblue" points="147.74,-15.4555 138.18,-20.0228 148.502,-22.414 147.74,-15.4555"/>
</g>
</g>
</svg>
