<?xml version="1.0" encoding="UTF-8" standalone="no"?>
<!DOCTYPE svg PUBLIC "-//W3C//DTD SVG 1.1//EN"
 "http://www.w3.org/Graphics/SVG/1.1/DTD/svg11.dtd">
<!-- Generated by graphviz version 2.38.0 (20140413.2041)
 -->
<!-- Title: Graphical Class Hierarchy Pages: 1 -->
<svg width="360pt" height="1246pt"
 viewBox="0.00 0.00 360.00 1246.00" xmlns="http://www.w3.org/2000/svg" xmlns:xlink="http://www.w3.org/1999/xlink">
<g id="graph0" class="graph" transform="scale(1 1) rotate(0) translate(4 1242)">
<title>Graphical Class Hierarchy</title>
<polygon fill="white" stroke="none" points="-4,4 -4,-1242 356.004,-1242 356.004,4 -4,4"/>
<!-- Node30 -->
<g id="node1" class="node"><title>Node30</title>
<polygon fill="white" stroke="#bfbfbf" points="0,-592.5 0,-610.5 147.714,-610.5 147.714,-592.5 0,-592.5"/>
<text text-anchor="middle" x="73.8569" y="-598.5" font-family="Helvetica,sans-Serif" font-size="10.00">vtkSimpleImageToImageFilter</text>
</g>
<!-- Node0 -->
<g id="node2" class="node"><title>Node0</title>
<g id="a_node2"><a xlink:href="classvtkvmtkAnisotropicDiffusionImageFilter.html" target="_top" xlink:title="Wrapper class around itk::GradientAnisotropicDiffusionImageFilter. ">
<polygon fill="white" stroke="black" points="198.816,-1209.5 198.816,-1237.5 336.901,-1237.5 336.901,-1209.5 198.816,-1209.5"/>
<text text-anchor="start" x="206.816" y="-1225.5" font-family="Helvetica,sans-Serif" font-size="10.00">vtkvmtkAnisotropicDiffusion</text>
<text text-anchor="middle" x="267.859" y="-1215.5" font-family="Helvetica,sans-Serif" font-size="10.00">ImageFilter</text>
</a>
</g>
</g>
<!-- Node30&#45;&gt;Node0 -->
<g id="edge1" class="edge"><title>Node30&#45;&gt;Node0</title>
<path fill="none" stroke="midnightblue" d="M75.6813,-620.813C80.0255,-713.562 103.205,-1112.39 183.714,-1200.5 187.957,-1205.14 193.046,-1208.88 198.589,-1211.89"/>
<polygon fill="midnightblue" stroke="midnightblue" points="79.1697,-620.473 75.2242,-610.641 72.1767,-620.788 79.1697,-620.473"/>
</g>
<!-- Node32 -->
<g id="node3" class="node"><title>Node32</title>
<g id="a_node3"><a xlink:href="classvtkvmtkBoundedReciprocalImageFilter.html" target="_top" xlink:title="Wrapper class around itk::BoundedReciprocalImageFilter. ">
<polygon fill="white" stroke="black" points="199.275,-1162.5 199.275,-1190.5 336.442,-1190.5 336.442,-1162.5 199.275,-1162.5"/>
<text text-anchor="start" x="207.275" y="-1178.5" font-family="Helvetica,sans-Serif" font-size="10.00">vtkvmtkBoundedReciprocal</text>
<text text-anchor="middle" x="267.859" y="-1168.5" font-family="Helvetica,sans-Serif" font-size="10.00">ImageFilter</text>
</a>
</g>
</g>
<!-- Node30&#45;&gt;Node32 -->
<g id="edge2" class="edge"><title>Node30&#45;&gt;Node32</title>
<path fill="none" stroke="midnightblue" d="M76.0148,-620.955C81.6671,-709.45 109.177,-1073.14 183.714,-1153.5 188.093,-1158.22 193.347,-1162.01 199.059,-1165.03"/>
<polygon fill="midnightblue" stroke="midnightblue" points="79.4943,-620.514 75.3834,-610.75 72.5077,-620.947 79.4943,-620.514"/>
</g>
<!-- Node33 -->
<g id="node4" class="node"><title>Node33</title>
<g id="a_node4"><a xlink:href="classvtkvmtkCollidingFrontsImageFilter.html" target="_top" xlink:title="Wrapper class around itk::CollidingFrontsImageFilter. ">
<polygon fill="white" stroke="black" points="195.672,-1115.5 195.672,-1143.5 340.046,-1143.5 340.046,-1115.5 195.672,-1115.5"/>
<text text-anchor="start" x="203.672" y="-1131.5" font-family="Helvetica,sans-Serif" font-size="10.00">vtkvmtkCollidingFrontsImage</text>
<text text-anchor="middle" x="267.859" y="-1121.5" font-family="Helvetica,sans-Serif" font-size="10.00">Filter</text>
</a>
</g>
</g>
<!-- Node30&#45;&gt;Node33 -->
<g id="edge3" class="edge"><title>Node30&#45;&gt;Node33</title>
<path fill="none" stroke="midnightblue" d="M76.394,-620.874C83.4116,-704.525 115.063,-1033.78 183.714,-1106.5 187.209,-1110.2 191.243,-1113.33 195.61,-1115.96"/>
<polygon fill="midnightblue" stroke="midnightblue" points="79.8698,-620.434 75.566,-610.753 72.8931,-621.005 79.8698,-620.434"/>
</g>
<!-- Node34 -->
<g id="node5" class="node"><title>Node34</title>
<g id="a_node5"><a xlink:href="classvtkvmtkCurvesLevelSetImageFilter.html" target="_top" xlink:title="Wrapper class around itk::CurvesLevelSetImageFilter. ">
<polygon fill="white" stroke="black" points="193.724,-1068.5 193.724,-1096.5 341.994,-1096.5 341.994,-1068.5 193.724,-1068.5"/>
<text text-anchor="start" x="201.724" y="-1084.5" font-family="Helvetica,sans-Serif" font-size="10.00">vtkvmtkCurvesLevelSetImage</text>
<text text-anchor="middle" x="267.859" y="-1074.5" font-family="Helvetica,sans-Serif" font-size="10.00">Filter</text>
</a>
</g>
</g>
<!-- Node30&#45;&gt;Node34 -->
<g id="edge4" class="edge"><title>Node30&#45;&gt;Node34</title>
<path fill="none" stroke="midnightblue" d="M76.8728,-621.038C85.4006,-700.003 120.99,-994.442 183.714,-1059.5 187.04,-1062.95 190.834,-1065.9 194.927,-1068.41"/>
<polygon fill="midnightblue" stroke="midnightblue" points="80.3056,-620.217 75.7734,-610.641 73.3444,-620.953 80.3056,-620.217"/>
</g>
<!-- Node35 -->
<g id="node6" class="node"><title>Node35</title>
<g id="a_node6"><a xlink:href="classvtkvmtkDanielssonDistanceMapImageFilter.html" target="_top" xlink:title="Wrapper class around itk::DanielssonDistanceMapImageFilter. ">
<polygon fill="white" stroke="black" points="198.726,-1021.5 198.726,-1049.5 336.992,-1049.5 336.992,-1021.5 198.726,-1021.5"/>
<text text-anchor="start" x="206.726" y="-1037.5" font-family="Helvetica,sans-Serif" font-size="10.00">vtkvmtkDanielssonDistance</text>
<text text-anchor="middle" x="267.859" y="-1027.5" font-family="Helvetica,sans-Serif" font-size="10.00">MapImageFilter</text>
</a>
</g>
</g>
<!-- Node30&#45;&gt;Node35 -->
<g id="edge5" class="edge"><title>Node30&#45;&gt;Node35</title>
<path fill="none" stroke="midnightblue" d="M77.4221,-620.901C87.5228,-694.468 126.805,-954.964 183.714,-1012.5 188.032,-1016.87 193.1,-1020.42 198.566,-1023.32"/>
<polygon fill="midnightblue" stroke="midnightblue" points="80.8594,-620.201 76.0533,-610.759 73.9223,-621.137 80.8594,-620.201"/>
</g>
<!-- Node36 -->
<g id="node7" class="node"><title>Node36</title>
<g id="a_node7"><a xlink:href="classvtkvmtkFastMarchingDirectionalFreezeImageFilter.html" target="_top" xlink:title="Wrapper class around itk::FastMarchingDirectionalFreezeImageFilter. ">
<polygon fill="white" stroke="black" points="189.007,-974.5 189.007,-1002.5 346.711,-1002.5 346.711,-974.5 189.007,-974.5"/>
<text text-anchor="start" x="197.007" y="-990.5" font-family="Helvetica,sans-Serif" font-size="10.00">vtkvmtkFastMarchingDirectional</text>
<text text-anchor="middle" x="267.859" y="-980.5" font-family="Helvetica,sans-Serif" font-size="10.00">FreezeImageFilter</text>
</a>
</g>
</g>
<!-- Node30&#45;&gt;Node36 -->
<g id="edge6" class="edge"><title>Node30&#45;&gt;Node36</title>
<path fill="none" stroke="midnightblue" d="M74.5448,-621.096C74.6919,-681.635 83.6549,-867.493 183.714,-965.5 187.245,-968.958 191.247,-971.907 195.54,-974.421"/>
<polygon fill="midnightblue" stroke="midnightblue" points="78.0469,-620.743 74.6085,-610.722 71.0471,-620.7 78.0469,-620.743"/>
</g>
<!-- Node37 -->
<g id="node8" class="node"><title>Node37</title>
<g id="a_node8"><a xlink:href="classvtkvmtkFastMarchingUpwindGradientImageFilter.html" target="_top" xlink:title="Wrapper class around itk::FastMarchingUpwindGradientImageFilter. ">
<polygon fill="white" stroke="black" points="195.953,-927.5 195.953,-955.5 339.765,-955.5 339.765,-927.5 195.953,-927.5"/>
<text text-anchor="start" x="203.953" y="-943.5" font-family="Helvetica,sans-Serif" font-size="10.00">vtkvmtkFastMarchingUpwind</text>
<text text-anchor="middle" x="267.859" y="-933.5" font-family="Helvetica,sans-Serif" font-size="10.00">GradientImageFilter</text>
</a>
</g>
</g>
<!-- Node30&#45;&gt;Node37 -->
<g id="edge7" class="edge"><title>Node30&#45;&gt;Node37</title>
<path fill="none" stroke="midnightblue" d="M75.5349,-620.736C78.5426,-675.715 94.8895,-834.927 183.714,-918.5 187.423,-921.989 191.613,-924.958 196.091,-927.482"/>
<polygon fill="midnightblue" stroke="midnightblue" points="79.027,-620.481 75.0743,-610.651 72.0343,-620.801 79.027,-620.481"/>
</g>
<!-- Node38 -->
<g id="node9" class="node"><title>Node38</title>
<g id="a_node9"><a xlink:href="classvtkvmtkFWHMFeatureImageFilter.html" target="_top" xlink:title="Wrapper class around itk::FWHMFeatureImageFilter. ">
<polygon fill="white" stroke="black" points="185.127,-890.5 185.127,-908.5 350.59,-908.5 350.59,-890.5 185.127,-890.5"/>
<text text-anchor="middle" x="267.859" y="-896.5" font-family="Helvetica,sans-Serif" font-size="10.00">vtkvmtkFWHMFeatureImageFilter</text>
</a>
</g>
</g>
<!-- Node30&#45;&gt;Node38 -->
<g id="edge8" class="edge"><title>Node30&#45;&gt;Node38</title>
<path fill="none" stroke="midnightblue" d="M76.2798,-620.75C81.1354,-671.791 101.658,-811.454 183.714,-881.5 187.982,-885.144 192.816,-888.102 197.952,-890.499"/>
<polygon fill="midnightblue" stroke="midnightblue" points="79.7648,-620.425 75.4271,-610.759 72.7902,-621.02 79.7648,-620.425"/>
</g>
<!-- Node39 -->
<g id="node10" class="node"><title>Node39</title>
<g id="a_node10"><a xlink:href="classvtkvmtkGeodesicActiveContourLevelSet2DImageFilter.html" target="_top" xlink:title="Wrapper class around itk::GeodesicActiveContourLevelSetImageFilter. ">
<polygon fill="white" stroke="black" points="190.389,-843.5 190.389,-871.5 345.329,-871.5 345.329,-843.5 190.389,-843.5"/>
<text text-anchor="start" x="198.389" y="-859.5" font-family="Helvetica,sans-Serif" font-size="10.00">vtkvmtkGeodesicActiveContour</text>
<text text-anchor="middle" x="267.859" y="-849.5" font-family="Helvetica,sans-Serif" font-size="10.00">LevelSet2DImageFilter</text>
</a>
</g>
</g>
<!-- Node30&#45;&gt;Node39 -->
<g id="edge9" class="edge"><title>Node30&#45;&gt;Node39</title>
<path fill="none" stroke="midnightblue" d="M78.2204,-620.811C87.0293,-665.458 115.021,-776.429 183.714,-834.5 187.831,-837.981 192.435,-840.938 197.307,-843.449"/>
<polygon fill="midnightblue" stroke="midnightblue" points="81.616,-619.927 76.3419,-610.739 74.7346,-621.211 81.616,-619.927"/>
</g>
<!-- Node40 -->
<g id="node11" class="node"><title>Node40</title>
<g id="a_node11"><a xlink:href="classvtkvmtkGeodesicActiveContourLevelSetImageFilter.html" target="_top" xlink:title="Wrapper class around itk::GeodesicActiveContourLevelSetImageFilter. ">
<polygon fill="white" stroke="black" points="190.389,-796.5 190.389,-824.5 345.329,-824.5 345.329,-796.5 190.389,-796.5"/>
<text text-anchor="start" x="198.389" y="-812.5" font-family="Helvetica,sans-Serif" font-size="10.00">vtkvmtkGeodesicActiveContour</text>
<text text-anchor="middle" x="267.859" y="-802.5" font-family="Helvetica,sans-Serif" font-size="10.00">LevelSetImageFilter</text>
</a>
</g>
</g>
<!-- Node30&#45;&gt;Node40 -->
<g id="edge10" class="edge"><title>Node30&#45;&gt;Node40</title>
<path fill="none" stroke="midnightblue" d="M80.4727,-620.177C92.7612,-657.789 125.676,-742.866 183.714,-787.5 188.225,-790.97 193.229,-793.916 198.48,-796.418"/>
<polygon fill="midnightblue" stroke="midnightblue" points="83.7715,-619 77.4323,-610.511 77.0941,-621.1 83.7715,-619"/>
</g>
<!-- Node41 -->
<g id="node12" class="node"><title>Node41</title>
<g id="a_node12"><a xlink:href="classvtkvmtkGradientMagnitudeImageFilter.html" target="_top" xlink:title="Wrapper class around itk::GradientMagnitudeImageFilterImageFilter. ">
<polygon fill="white" stroke="black" points="200.389,-749.5 200.389,-777.5 335.329,-777.5 335.329,-749.5 200.389,-749.5"/>
<text text-anchor="start" x="208.389" y="-765.5" font-family="Helvetica,sans-Serif" font-size="10.00">vtkvmtkGradientMagnitude</text>
<text text-anchor="middle" x="267.859" y="-755.5" font-family="Helvetica,sans-Serif" font-size="10.00">ImageFilter</text>
</a>
</g>
</g>
<!-- Node30&#45;&gt;Node41 -->
<g id="edge11" class="edge"><title>Node30&#45;&gt;Node41</title>
<path fill="none" stroke="midnightblue" d="M83.9575,-619.479C99.9714,-649.268 136.059,-708.72 183.714,-740.5 188.947,-743.99 194.701,-746.954 200.665,-749.47"/>
<polygon fill="midnightblue" stroke="midnightblue" points="87.0467,-617.834 79.3085,-610.597 80.8448,-621.08 87.0467,-617.834"/>
</g>
<!-- Node42 -->
<g id="node13" class="node"><title>Node42</title>
<g id="a_node13"><a xlink:href="classvtkvmtkGradientMagnitudeRecursiveGaussian2DImageFilter.html" target="_top" xlink:title="Wrapper class around itk::GradientMagnitudeRecursiveGaussian2DImageFilter. ">
<polygon fill="white" stroke="black" points="185.108,-702.5 185.108,-730.5 350.61,-730.5 350.61,-702.5 185.108,-702.5"/>
<text text-anchor="start" x="193.108" y="-718.5" font-family="Helvetica,sans-Serif" font-size="10.00">vtkvmtkGradientMagnitude</text>
<text text-anchor="middle" x="267.859" y="-708.5" font-family="Helvetica,sans-Serif" font-size="10.00">RecursiveGaussian2DImageFilter</text>
</a>
</g>
</g>
<!-- Node30&#45;&gt;Node42 -->
<g id="edge12" class="edge"><title>Node30&#45;&gt;Node42</title>
<path fill="none" stroke="midnightblue" d="M89.817,-617.928C109.441,-638.513 145.852,-673.51 183.714,-693.5 190.204,-696.926 197.255,-699.884 204.416,-702.426"/>
<polygon fill="midnightblue" stroke="midnightblue" points="92.3129,-615.472 82.9253,-610.561 87.2009,-620.254 92.3129,-615.472"/>
</g>
<!-- Node43 -->
<g id="node14" class="node"><title>Node43</title>
<g id="a_node14"><a xlink:href="classvtkvmtkGradientMagnitudeRecursiveGaussianImageFilter.html" target="_top" xlink:title="Wrapper class around itk::GradientMagnitudeRecursiveGaussianImageFilter. ">
<polygon fill="white" stroke="black" points="191.5,-655.5 191.5,-683.5 344.218,-683.5 344.218,-655.5 191.5,-655.5"/>
<text text-anchor="start" x="199.5" y="-671.5" font-family="Helvetica,sans-Serif" font-size="10.00">vtkvmtkGradientMagnitude</text>
<text text-anchor="middle" x="267.859" y="-661.5" font-family="Helvetica,sans-Serif" font-size="10.00">RecursiveGaussianImageFilter</text>
</a>
</g>
</g>
<!-- Node30&#45;&gt;Node43 -->
<g id="edge13" class="edge"><title>Node30&#45;&gt;Node43</title>
<path fill="none" stroke="midnightblue" d="M103.953,-614.666C125.668,-624.211 156.208,-637.05 183.714,-646.5 192.921,-649.663 202.812,-652.703 212.448,-655.478"/>
<polygon fill="midnightblue" stroke="midnightblue" points="105.2,-611.39 94.6396,-610.536 102.362,-617.789 105.2,-611.39"/>
</g>
<!-- Node44 -->
<g id="node15" class="node"><title>Node44</title>
<g id="a_node15"><a xlink:href="classvtkvmtkGrayscaleMorphologyImageFilter.html" target="_top" xlink:title="Wrapper class around itk::GrayscaleMorphologyImageFilter. ">
<polygon fill="white" stroke="black" points="194.283,-608.5 194.283,-636.5 341.435,-636.5 341.435,-608.5 194.283,-608.5"/>
<text text-anchor="start" x="202.283" y="-624.5" font-family="Helvetica,sans-Serif" font-size="10.00">vtkvmtkGrayscaleMorphology</text>
<text text-anchor="middle" x="267.859" y="-614.5" font-family="Helvetica,sans-Serif" font-size="10.00">ImageFilter</text>
</a>
</g>
</g>
<!-- Node30&#45;&gt;Node44 -->
<g id="edge14" class="edge"><title>Node30&#45;&gt;Node44</title>
<path fill="none" stroke="midnightblue" d="M157.774,-610.569C169.845,-611.889 182.197,-613.24 194.047,-614.536"/>
<polygon fill="midnightblue" stroke="midnightblue" points="158.04,-607.077 147.718,-609.469 157.279,-614.036 158.04,-607.077"/>
</g>
<!-- Node45 -->
<g id="node16" class="node"><title>Node45</title>
<g id="a_node16"><a xlink:href="classvtkvmtkImageBoxPainter.html" target="_top" xlink:title=".. ">
<polygon fill="white" stroke="black" points="204.561,-571.5 204.561,-589.5 331.157,-589.5 331.157,-571.5 204.561,-571.5"/>
<text text-anchor="middle" x="267.859" y="-577.5" font-family="Helvetica,sans-Serif" font-size="10.00">vtkvmtkImageBoxPainter</text>
</a>
</g>
</g>
<!-- Node30&#45;&gt;Node45 -->
<g id="edge15" class="edge"><title>Node30&#45;&gt;Node45</title>
<path fill="none" stroke="midnightblue" d="M157.886,-592.419C173.487,-590.712 189.554,-588.955 204.397,-587.332"/>
<polygon fill="midnightblue" stroke="midnightblue" points="157.279,-588.964 147.718,-593.531 158.04,-595.923 157.279,-588.964"/>
</g>
<!-- Node46 -->
<g id="node17" class="node"><title>Node46</title>
<g id="a_node17"><a xlink:href="classvtkvmtkLaplacianSegmentationLevelSetImageFilter.html" target="_top" xlink:title="Wrapper class around itk::LaplacianSegmentationLevelSetImageFilter. ">
<polygon fill="white" stroke="black" points="190.655,-524.5 190.655,-552.5 345.063,-552.5 345.063,-524.5 190.655,-524.5"/>
<text text-anchor="start" x="198.655" y="-540.5" font-family="Helvetica,sans-Serif" font-size="10.00">vtkvmtkLaplacianSegmentation</text>
<text text-anchor="middle" x="267.859" y="-530.5" font-family="Helvetica,sans-Serif" font-size="10.00">LevelSetImageFilter</text>
</a>
</g>
</g>
<!-- Node30&#45;&gt;Node46 -->
<g id="edge16" class="edge"><title>Node30&#45;&gt;Node46</title>
<path fill="none" stroke="midnightblue" d="M108.529,-588.817C129.941,-580.907 158.318,-570.706 183.714,-562.5 194.15,-559.128 205.396,-555.727 216.14,-552.589"/>
<polygon fill="midnightblue" stroke="midnightblue" points="107.075,-585.624 98.9192,-592.387 109.512,-592.186 107.075,-585.624"/>
</g>
<!-- Node47 -->
<g id="node18" class="node"><title>Node47</title>
<g id="a_node18"><a xlink:href="classvtkvmtkLevelSetSigmoidFilter.html" target="_top" xlink:title="Apply a sigmoid function to every voxel of an image. ">
<polygon fill="white" stroke="black" points="194.283,-487.5 194.283,-505.5 341.435,-505.5 341.435,-487.5 194.283,-487.5"/>
<text text-anchor="middle" x="267.859" y="-493.5" font-family="Helvetica,sans-Serif" font-size="10.00">vtkvmtkLevelSetSigmoidFilter</text>
</a>
</g>
</g>
<!-- Node30&#45;&gt;Node47 -->
<g id="edge17" class="edge"><title>Node30&#45;&gt;Node47</title>
<path fill="none" stroke="midnightblue" d="M90.7772,-585.067C110.685,-565.499 146.676,-533.238 183.714,-515.5 192.394,-511.343 202.027,-508.072 211.569,-505.505"/>
<polygon fill="midnightblue" stroke="midnightblue" points="88.0862,-582.809 83.5038,-592.362 93.0431,-587.752 88.0862,-582.809"/>
</g>
<!-- Node48 -->
<g id="node19" class="node"><title>Node48</title>
<g id="a_node19"><a xlink:href="classvtkvmtkMedialCurveFilter.html" target="_top" xlink:title="flux driven automatic centerline extraction from a surface ">
<polygon fill="white" stroke="black" points="203.738,-450.5 203.738,-468.5 331.979,-468.5 331.979,-450.5 203.738,-450.5"/>
<text text-anchor="middle" x="267.859" y="-456.5" font-family="Helvetica,sans-Serif" font-size="10.00">vtkvmtkMedialCurveFilter</text>
</a>
</g>
</g>
<!-- Node30&#45;&gt;Node48 -->
<g id="edge18" class="edge"><title>Node30&#45;&gt;Node48</title>
<path fill="none" stroke="midnightblue" d="M85.534,-583.507C102.66,-556.302 138.938,-505.066 183.714,-478.5 190.718,-474.344 198.55,-471.098 206.531,-468.561"/>
<polygon fill="midnightblue" stroke="midnightblue" points="82.354,-581.997 80.1106,-592.352 88.3216,-585.656 82.354,-581.997"/>
</g>
<!-- Node49 -->
<g id="node20" class="node"><title>Node49</title>
<g id="a_node20"><a xlink:href="classvtkvmtkNormalizeImageFilter.html" target="_top" xlink:title="Wrapper class around itk::NormalizeImageFilter. ">
<polygon fill="white" stroke="black" points="195.403,-413.5 195.403,-431.5 340.314,-431.5 340.314,-413.5 195.403,-413.5"/>
<text text-anchor="middle" x="267.859" y="-419.5" font-family="Helvetica,sans-Serif" font-size="10.00">vtkvmtkNormalizeImageFilter</text>
</a>
</g>
</g>
<!-- Node30&#45;&gt;Node49 -->
<g id="edge19" class="edge"><title>Node30&#45;&gt;Node49</title>
<path fill="none" stroke="midnightblue" d="M82.2314,-582.468C96.424,-548.487 130.884,-477.567 183.714,-441.5 189.706,-437.409 196.45,-434.188 203.44,-431.654"/>
<polygon fill="midnightblue" stroke="midnightblue" points="78.8362,-581.529 78.338,-592.112 85.3272,-584.149 78.8362,-581.529"/>
</g>
<!-- Node50 -->
<g id="node21" class="node"><title>Node50</title>
<g id="a_node21"><a xlink:href="classvtkvmtkObjectnessMeasureImageFilter.html" target="_top" xlink:title="Wrapper class around itk::ObjectnessMeasureImageFilter. ">
<polygon fill="white" stroke="black" points="198.45,-366.5 198.45,-394.5 337.268,-394.5 337.268,-366.5 198.45,-366.5"/>
<text text-anchor="start" x="206.45" y="-382.5" font-family="Helvetica,sans-Serif" font-size="10.00">vtkvmtkObjectnessMeasure</text>
<text text-anchor="middle" x="267.859" y="-372.5" font-family="Helvetica,sans-Serif" font-size="10.00">ImageFilter</text>
</a>
</g>
</g>
<!-- Node30&#45;&gt;Node50 -->
<g id="edge20" class="edge"><title>Node30&#45;&gt;Node50</title>
<path fill="none" stroke="midnightblue" d="M79.9471,-582.592C91.5114,-543.305 123.539,-452.517 183.714,-404.5 188.646,-400.564 194.198,-397.274 200.033,-394.523"/>
<polygon fill="midnightblue" stroke="midnightblue" points="76.5184,-581.855 77.1673,-592.43 83.2546,-583.759 76.5184,-581.855"/>
</g>
<!-- Node51 -->
<g id="node22" class="node"><title>Node51</title>
<g id="a_node22"><a xlink:href="classvtkvmtkOtsuMultipleThresholdsImageFilter.html" target="_top" xlink:title="Wrapper class around itk::OtsuMultipleThresholdsImageFilter. ">
<polygon fill="white" stroke="black" points="190.394,-319.5 190.394,-347.5 345.324,-347.5 345.324,-319.5 190.394,-319.5"/>
<text text-anchor="start" x="198.394" y="-335.5" font-family="Helvetica,sans-Serif" font-size="10.00">vtkvmtkOtsuMultipleThresholds</text>
<text text-anchor="middle" x="267.859" y="-325.5" font-family="Helvetica,sans-Serif" font-size="10.00">ImageFilter</text>
</a>
</g>
</g>
<!-- Node30&#45;&gt;Node51 -->
<g id="edge21" class="edge"><title>Node30&#45;&gt;Node51</title>
<path fill="none" stroke="midnightblue" d="M77.8108,-582.276C85.9015,-536.305 112.745,-419.255 183.714,-357.5 188.134,-353.654 193.137,-350.422 198.443,-347.708"/>
<polygon fill="midnightblue" stroke="midnightblue" points="74.3225,-581.918 76.1424,-592.356 81.2285,-583.061 74.3225,-581.918"/>
</g>
<!-- Node52 -->
<g id="node23" class="node"><title>Node52</title>
<g id="a_node23"><a xlink:href="classvtkvmtkRecursiveGaussian2DImageFilter.html" target="_top" xlink:title="Wrapper class around itk::RecursiveGaussian2DImageFilter. ">
<polygon fill="white" stroke="black" points="196.783,-272.5 196.783,-300.5 338.935,-300.5 338.935,-272.5 196.783,-272.5"/>
<text text-anchor="start" x="204.783" y="-288.5" font-family="Helvetica,sans-Serif" font-size="10.00">vtkvmtkRecursiveGaussian2</text>
<text text-anchor="middle" x="267.859" y="-278.5" font-family="Helvetica,sans-Serif" font-size="10.00">DImageFilter</text>
</a>
</g>
</g>
<!-- Node30&#45;&gt;Node52 -->
<g id="edge22" class="edge"><title>Node30&#45;&gt;Node52</title>
<path fill="none" stroke="midnightblue" d="M76.2671,-582.176C81.1128,-530.246 101.656,-386.475 183.714,-310.5 187.903,-306.621 192.681,-303.365 197.78,-300.632"/>
<polygon fill="midnightblue" stroke="midnightblue" points="72.7649,-582.056 75.4172,-592.314 79.7405,-582.641 72.7649,-582.056"/>
</g>
<!-- Node53 -->
<g id="node24" class="node"><title>Node53</title>
<g id="a_node24"><a xlink:href="classvtkvmtkRecursiveGaussianImageFilter.html" target="_top" xlink:title="Wrapper class around itk::RecursiveGaussianImageFilter. ">
<polygon fill="white" stroke="black" points="199.563,-225.5 199.563,-253.5 336.154,-253.5 336.154,-225.5 199.563,-225.5"/>
<text text-anchor="start" x="207.563" y="-241.5" font-family="Helvetica,sans-Serif" font-size="10.00">vtkvmtkRecursiveGaussian</text>
<text text-anchor="middle" x="267.859" y="-231.5" font-family="Helvetica,sans-Serif" font-size="10.00">ImageFilter</text>
</a>
</g>
</g>
<!-- Node30&#45;&gt;Node53 -->
<g id="edge23" class="edge"><title>Node30&#45;&gt;Node53</title>
<path fill="none" stroke="midnightblue" d="M75.1105,-582.207C76.9408,-524.899 90.3547,-354.049 183.714,-263.5 188.243,-259.107 193.525,-255.509 199.189,-252.564"/>
<polygon fill="midnightblue" stroke="midnightblue" points="71.6077,-582.293 74.8748,-592.372 78.6058,-582.455 71.6077,-582.293"/>
</g>
<!-- Node54 -->
<g id="node25" class="node"><title>Node54</title>
<g id="a_node25"><a xlink:href="classvtkvmtkSatoVesselnessMeasureImageFilter.html" target="_top" xlink:title="Wrapper class around itk::SatoVesselnessMeasureImageFilter. ">
<polygon fill="white" stroke="black" points="187.881,-178.5 187.881,-206.5 347.836,-206.5 347.836,-178.5 187.881,-178.5"/>
<text text-anchor="start" x="195.881" y="-194.5" font-family="Helvetica,sans-Serif" font-size="10.00">vtkvmtkSatoVesselnessMeasure</text>
<text text-anchor="middle" x="267.859" y="-184.5" font-family="Helvetica,sans-Serif" font-size="10.00">ImageFilter</text>
</a>
</g>
</g>
<!-- Node30&#45;&gt;Node54 -->
<g id="edge24" class="edge"><title>Node30&#45;&gt;Node54</title>
<path fill="none" stroke="midnightblue" d="M74.2177,-582.082C73.2658,-519.609 79.0272,-321.76 183.714,-216.5 187.528,-212.665 191.914,-209.434 196.635,-206.713"/>
<polygon fill="midnightblue" stroke="midnightblue" points="70.7264,-582.499 74.4607,-592.413 77.7245,-582.334 70.7264,-582.499"/>
</g>
<!-- Node55 -->
<g id="node26" class="node"><title>Node55</title>
<g id="a_node26"><a xlink:href="classvtkvmtkSigmoidImageFilter.html" target="_top" xlink:title="Wrapper class around itk::SigmoidImageFilter. ">
<polygon fill="white" stroke="black" points="199.844,-141.5 199.844,-159.5 335.874,-159.5 335.874,-141.5 199.844,-141.5"/>
<text text-anchor="middle" x="267.859" y="-147.5" font-family="Helvetica,sans-Serif" font-size="10.00">vtkvmtkSigmoidImageFilter</text>
</a>
</g>
</g>
<!-- Node30&#45;&gt;Node55 -->
<g id="edge25" class="edge"><title>Node30&#45;&gt;Node55</title>
<path fill="none" stroke="midnightblue" d="M77.0184,-582.499C85.9899,-506.964 122.705,-229.171 183.714,-169.5 188.372,-164.945 193.884,-161.394 199.821,-158.637"/>
<polygon fill="midnightblue" stroke="midnightblue" points="73.5369,-582.138 75.8566,-592.475 80.4899,-582.947 73.5369,-582.138"/>
</g>
<!-- Node56 -->
<g id="node27" class="node"><title>Node56</title>
<g id="a_node27"><a xlink:href="classvtkvmtkUpwindGradientMagnitudeImageFilter.html" target="_top" xlink:title="Wrapper class around itk::UpwindGradientMagnitudeImageFilter. ">
<polygon fill="white" stroke="black" points="183.714,-94.5 183.714,-122.5 352.004,-122.5 352.004,-94.5 183.714,-94.5"/>
<text text-anchor="start" x="191.714" y="-110.5" font-family="Helvetica,sans-Serif" font-size="10.00">vtkvmtkUpwindGradientMagnitude</text>
<text text-anchor="middle" x="267.859" y="-100.5" font-family="Helvetica,sans-Serif" font-size="10.00">ImageFilter</text>
</a>
</g>
</g>
<!-- Node30&#45;&gt;Node56 -->
<g id="edge26" class="edge"><title>Node30&#45;&gt;Node56</title>
<path fill="none" stroke="midnightblue" d="M76.7729,-582.012C85.018,-501.989 119.981,-199.7 183.714,-132.5 187.436,-128.576 191.755,-125.28 196.43,-122.515"/>
<polygon fill="midnightblue" stroke="midnightblue" points="73.2715,-581.851 75.75,-592.152 80.2361,-582.553 73.2715,-581.851"/>
</g>
<!-- Node57 -->
<g id="node28" class="node"><title>Node57</title>
<g id="a_node28"><a xlink:href="classvtkvmtkVesselEnhancingDiffusionImageFilter.html" target="_top" xlink:title="Wrapper class around itk::VesselEnhancingDiffusionImageFilter. ">
<polygon fill="white" stroke="black" points="185.186,-47.5 185.186,-75.5 350.532,-75.5 350.532,-47.5 185.186,-47.5"/>
<text text-anchor="start" x="193.186" y="-63.5" font-family="Helvetica,sans-Serif" font-size="10.00">vtkvmtkVesselEnhancingDiffusion</text>
<text text-anchor="middle" x="267.859" y="-53.5" font-family="Helvetica,sans-Serif" font-size="10.00">ImageFilter</text>
</a>
</g>
</g>
<!-- Node30&#45;&gt;Node57 -->
<g id="edge27" class="edge"><title>Node30&#45;&gt;Node57</title>
<path fill="none" stroke="midnightblue" d="M76.308,-582.273C83.0596,-497.794 114.063,-160.437 183.714,-85.5 187.294,-81.6483 191.449,-78.4012 195.955,-75.6654"/>
<polygon fill="midnightblue" stroke="midnightblue" points="72.8017,-582.219 75.5148,-592.461 79.7805,-582.763 72.8017,-582.219"/>
</g>
<!-- Node58 -->
<g id="node29" class="node"><title>Node58</title>
<g id="a_node29"><a xlink:href="classvtkvmtkVesselnessMeasureImageFilter.html" target="_top" xlink:title="Wrapper class around itk::VesselnessMeasureImageFilter. ">
<polygon fill="white" stroke="black" points="198.167,-0.5 198.167,-28.5 337.551,-28.5 337.551,-0.5 198.167,-0.5"/>
<text text-anchor="start" x="206.167" y="-16.5" font-family="Helvetica,sans-Serif" font-size="10.00">vtkvmtkVesselnessMeasure</text>
<text text-anchor="middle" x="267.859" y="-6.5" font-family="Helvetica,sans-Serif" font-size="10.00">ImageFilter</text>
</a>
</g>
</g>
<!-- Node30&#45;&gt;Node58 -->
<g id="edge28" class="edge"><title>Node30&#45;&gt;Node58</title>
<path fill="none" stroke="midnightblue" d="M75.9426,-582.254C81.3503,-493.104 108.196,-121.141 183.714,-38.5 187.768,-34.0636 192.585,-30.4276 197.828,-27.4503"/>
<polygon fill="midnightblue" stroke="midnightblue" points="72.4332,-582.311 75.3413,-592.499 79.4212,-582.722 72.4332,-582.311"/>
</g>
</g>
</svg>
