<?xml version="1.0" encoding="UTF-8" standalone="no"?>
<!DOCTYPE svg PUBLIC "-//W3C//DTD SVG 1.1//EN"
 "http://www.w3.org/Graphics/SVG/1.1/DTD/svg11.dtd">
<!-- Generated by graphviz version 2.38.0 (20140413.2041)
 -->
<!-- Title: Graphical Class Hierarchy Pages: 1 -->
<svg width="292pt" height="138pt"
 viewBox="0.00 0.00 292.32 138.00" xmlns="http://www.w3.org/2000/svg" xmlns:xlink="http://www.w3.org/1999/xlink">
<g id="graph0" class="graph" transform="scale(1 1) rotate(0) translate(4 134)">
<title>Graphical Class Hierarchy</title>
<polygon fill="white" stroke="none" points="-4,4 -4,-134 288.323,-134 288.323,4 -4,4"/>
<!-- Node4 -->
<g id="node1" class="node"><title>Node4</title>
<polygon fill="white" stroke="#bfbfbf" points="0,-55.5 0,-73.5 131.4,-73.5 131.4,-55.5 0,-55.5"/>
<text text-anchor="middle" x="65.7002" y="-61.5" font-family="Helvetica,sans-Serif" font-size="10.00">vtkUnstructuredGridWriter</text>
</g>
<!-- Node0 -->
<g id="node2" class="node"><title>Node0</title>
<g id="a_node2"><a xlink:href="classvtkvmtkDolfinWriter.html" target="_top" xlink:title="write mesh data in Dolfin file formats. ">
<polygon fill="white" stroke="black" points="174.893,-111.5 174.893,-129.5 276.831,-129.5 276.831,-111.5 174.893,-111.5"/>
<text text-anchor="middle" x="225.862" y="-117.5" font-family="Helvetica,sans-Serif" font-size="10.00">vtkvmtkDolfinWriter</text>
</a>
</g>
</g>
<!-- Node4&#45;&gt;Node0 -->
<g id="edge1" class="edge"><title>Node4&#45;&gt;Node0</title>
<path fill="none" stroke="midnightblue" d="M99.1674,-77.2918C118.815,-84.8977 144.431,-94.5759 167.4,-102.5 176.295,-105.568 186.037,-108.704 194.932,-111.48"/>
<polygon fill="midnightblue" stroke="midnightblue" points="100.35,-73.9964 89.7615,-73.6326 97.8121,-80.5202 100.35,-73.9964"/>
</g>
<!-- Node6 -->
<g id="node3" class="node"><title>Node6</title>
<g id="a_node3"><a xlink:href="classvtkvmtkFDNEUTWriter.html" target="_top" xlink:title="writes FDNEUT Fidap files ">
<polygon fill="white" stroke="black" points="167.4,-74.5 167.4,-92.5 284.323,-92.5 284.323,-74.5 167.4,-74.5"/>
<text text-anchor="middle" x="225.862" y="-80.5" font-family="Helvetica,sans-Serif" font-size="10.00">vtkvmtkFDNEUTWriter</text>
</a>
</g>
</g>
<!-- Node4&#45;&gt;Node6 -->
<g id="edge2" class="edge"><title>Node4&#45;&gt;Node6</title>
<path fill="none" stroke="midnightblue" d="M141.573,-73.4944C150.211,-74.5322 158.918,-75.5781 167.277,-76.5823"/>
<polygon fill="midnightblue" stroke="midnightblue" points="141.833,-70.0006 131.487,-72.2828 140.998,-76.9507 141.833,-70.0006"/>
</g>
<!-- Node7 -->
<g id="node4" class="node"><title>Node7</title>
<g id="a_node4"><a xlink:href="classvtkvmtkFluentWriter.html" target="_top" xlink:title="writes Fluent .msh files. ">
<polygon fill="white" stroke="black" points="173.78,-37.5 173.78,-55.5 277.944,-55.5 277.944,-37.5 173.78,-37.5"/>
<text text-anchor="middle" x="225.862" y="-43.5" font-family="Helvetica,sans-Serif" font-size="10.00">vtkvmtkFluentWriter</text>
</a>
</g>
</g>
<!-- Node4&#45;&gt;Node7 -->
<g id="edge3" class="edge"><title>Node4&#45;&gt;Node7</title>
<path fill="none" stroke="midnightblue" d="M141.735,-55.9605C152.482,-54.7373 163.33,-53.5028 173.481,-52.3476"/>
<polygon fill="midnightblue" stroke="midnightblue" points="141.027,-52.5184 131.487,-57.1268 141.819,-59.4735 141.027,-52.5184"/>
</g>
<!-- Node8 -->
<g id="node5" class="node"><title>Node8</title>
<g id="a_node5"><a xlink:href="classvtkvmtkXdaWriter.html" target="_top" xlink:title="writes libmesh Xda files ">
<polygon fill="white" stroke="black" points="178.78,-0.5 178.78,-18.5 272.944,-18.5 272.944,-0.5 178.78,-0.5"/>
<text text-anchor="middle" x="225.862" y="-6.5" font-family="Helvetica,sans-Serif" font-size="10.00">vtkvmtkXdaWriter</text>
</a>
</g>
</g>
<!-- Node4&#45;&gt;Node8 -->
<g id="edge4" class="edge"><title>Node4&#45;&gt;Node8</title>
<path fill="none" stroke="midnightblue" d="M101.103,-51.9707C120.527,-44.9544 145.274,-36.112 167.4,-28.5 177.038,-25.1845 187.622,-21.6537 197.051,-18.5467"/>
<polygon fill="midnightblue" stroke="midnightblue" points="99.6834,-48.7621 91.472,-55.4572 102.066,-55.3441 99.6834,-48.7621"/>
</g>
</g>
</svg>
