<?xml version="1.0" encoding="UTF-8" standalone="no"?>
<!DOCTYPE svg PUBLIC "-//W3C//DTD SVG 1.1//EN"
 "http://www.w3.org/Graphics/SVG/1.1/DTD/svg11.dtd">
<!-- Generated by graphviz version 2.38.0 (20140413.2041)
 -->
<!-- Title: Graphical Class Hierarchy Pages: 1 -->
<svg width="360pt" height="1293pt"
 viewBox="0.00 0.00 360.00 1293.00" xmlns="http://www.w3.org/2000/svg" xmlns:xlink="http://www.w3.org/1999/xlink">
<g id="graph0" class="graph" transform="scale(1 1) rotate(0) translate(4 1289)">
<title>Graphical Class Hierarchy</title>
<polygon fill="white" stroke="none" points="-4,4 -4,-1289 356.004,-1289 356.004,4 -4,4"/>
<!-- Node33 -->
<g id="node1" class="node"><title>Node33</title>
<polygon fill="white" stroke="#bfbfbf" points="0,-618.5 0,-636.5 147.714,-636.5 147.714,-618.5 0,-618.5"/>
<text text-anchor="middle" x="73.8569" y="-624.5" font-family="Helvetica,sans-Serif" font-size="10.00">vtkSimpleImageToImageFilter</text>
</g>
<!-- Node0 -->
<g id="node2" class="node"><title>Node0</title>
<g id="a_node2"><a xlink:href="classvtkvmtkAnisotropicDiffusionImageFilter.html" target="_top" xlink:title="Wrapper class around itk::GradientAnisotropicDiffusionImageFilter. ">
<polygon fill="white" stroke="black" points="198.816,-1256.5 198.816,-1284.5 336.901,-1284.5 336.901,-1256.5 198.816,-1256.5"/>
<text text-anchor="start" x="206.816" y="-1272.5" font-family="Helvetica,sans-Serif" font-size="10.00">vtkvmtkAnisotropicDiffusion</text>
<text text-anchor="middle" x="267.859" y="-1262.5" font-family="Helvetica,sans-Serif" font-size="10.00">ImageFilter</text>
</a>
</g>
</g>
<!-- Node33&#45;&gt;Node0 -->
<g id="edge1" class="edge"><title>Node33&#45;&gt;Node0</title>
<path fill="none" stroke="midnightblue" d="M75.5429,-646.588C79.3122,-740.857 100.483,-1155.86 183.714,-1247.5 187.943,-1252.16 193.023,-1255.9 198.56,-1258.92"/>
<polygon fill="midnightblue" stroke="midnightblue" points="79.0373,-646.373 75.1588,-636.513 72.0424,-646.639 79.0373,-646.373"/>
</g>
<!-- Node35 -->
<g id="node3" class="node"><title>Node35</title>
<g id="a_node3"><a xlink:href="classvtkvmtkBoundedReciprocalImageFilter.html" target="_top" xlink:title="Wrapper class around itk::BoundedReciprocalImageFilter. ">
<polygon fill="white" stroke="black" points="199.275,-1209.5 199.275,-1237.5 336.442,-1237.5 336.442,-1209.5 199.275,-1209.5"/>
<text text-anchor="start" x="207.275" y="-1225.5" font-family="Helvetica,sans-Serif" font-size="10.00">vtkvmtkBoundedReciprocal</text>
<text text-anchor="middle" x="267.859" y="-1215.5" font-family="Helvetica,sans-Serif" font-size="10.00">ImageFilter</text>
</a>
</g>
</g>
<!-- Node33&#45;&gt;Node35 -->
<g id="edge2" class="edge"><title>Node33&#45;&gt;Node35</title>
<path fill="none" stroke="midnightblue" d="M75.8552,-646.827C80.9035,-737.134 106.493,-1116.66 183.714,-1200.5 188.077,-1205.24 193.32,-1209.03 199.025,-1212.07"/>
<polygon fill="midnightblue" stroke="midnightblue" points="79.3408,-646.465 75.3071,-636.668 72.351,-646.842 79.3408,-646.465"/>
</g>
<!-- Node36 -->
<g id="node4" class="node"><title>Node36</title>
<g id="a_node4"><a xlink:href="classvtkvmtkCollidingFrontsImageFilter.html" target="_top" xlink:title="Wrapper class around itk::CollidingFrontsImageFilter. ">
<polygon fill="white" stroke="black" points="195.672,-1162.5 195.672,-1190.5 340.046,-1190.5 340.046,-1162.5 195.672,-1162.5"/>
<text text-anchor="start" x="203.672" y="-1178.5" font-family="Helvetica,sans-Serif" font-size="10.00">vtkvmtkCollidingFrontsImage</text>
<text text-anchor="middle" x="267.859" y="-1168.5" font-family="Helvetica,sans-Serif" font-size="10.00">Filter</text>
</a>
</g>
</g>
<!-- Node33&#45;&gt;Node36 -->
<g id="edge3" class="edge"><title>Node33&#45;&gt;Node36</title>
<path fill="none" stroke="midnightblue" d="M76.2124,-646.852C82.5996,-732.594 112.42,-1077.35 183.714,-1153.5 187.194,-1157.22 191.217,-1160.35 195.576,-1163"/>
<polygon fill="midnightblue" stroke="midnightblue" points="79.692,-646.443 75.4784,-636.722 72.7103,-646.948 79.692,-646.443"/>
</g>
<!-- Node37 -->
<g id="node5" class="node"><title>Node37</title>
<g id="a_node5"><a xlink:href="classvtkvmtkCurvesLevelSetImageFilter.html" target="_top" xlink:title="Wrapper class around itk::CurvesLevelSetImageFilter. ">
<polygon fill="white" stroke="black" points="193.724,-1115.5 193.724,-1143.5 341.994,-1143.5 341.994,-1115.5 193.724,-1115.5"/>
<text text-anchor="start" x="201.724" y="-1131.5" font-family="Helvetica,sans-Serif" font-size="10.00">vtkvmtkCurvesLevelSetImage</text>
<text text-anchor="middle" x="267.859" y="-1121.5" font-family="Helvetica,sans-Serif" font-size="10.00">Filter</text>
</a>
</g>
</g>
<!-- Node33&#45;&gt;Node37 -->
<g id="edge4" class="edge"><title>Node33&#45;&gt;Node37</title>
<path fill="none" stroke="midnightblue" d="M76.6402,-646.894C84.4657,-727.88 118.327,-1038.01 183.714,-1106.5 187.023,-1109.97 190.804,-1112.93 194.888,-1115.45"/>
<polygon fill="midnightblue" stroke="midnightblue" points="80.0988,-646.291 75.6738,-636.664 73.1298,-646.949 80.0988,-646.291"/>
</g>
<!-- Node38 -->
<g id="node6" class="node"><title>Node38</title>
<g id="a_node6"><a xlink:href="classvtkvmtkDanielssonDistanceMapImageFilter.html" target="_top" xlink:title="Wrapper class around itk::DanielssonDistanceMapImageFilter. ">
<polygon fill="white" stroke="black" points="198.726,-1068.5 198.726,-1096.5 336.992,-1096.5 336.992,-1068.5 198.726,-1068.5"/>
<text text-anchor="start" x="206.726" y="-1084.5" font-family="Helvetica,sans-Serif" font-size="10.00">vtkvmtkDanielssonDistance</text>
<text text-anchor="middle" x="267.859" y="-1074.5" font-family="Helvetica,sans-Serif" font-size="10.00">MapImageFilter</text>
</a>
</g>
</g>
<!-- Node33&#45;&gt;Node38 -->
<g id="edge5" class="edge"><title>Node33&#45;&gt;Node38</title>
<path fill="none" stroke="midnightblue" d="M77.1567,-646.913C86.5291,-722.852 124.198,-998.597 183.714,-1059.5 188.006,-1063.89 193.055,-1067.47 198.51,-1070.37"/>
<polygon fill="midnightblue" stroke="midnightblue" points="80.6154,-646.36 75.9379,-636.853 73.6662,-647.202 80.6154,-646.36"/>
</g>
<!-- Node39 -->
<g id="node7" class="node"><title>Node39</title>
<g id="a_node7"><a xlink:href="classvtkvmtkFastMarchingDirectionalFreezeImageFilter.html" target="_top" xlink:title="Wrapper class around itk::FastMarchingDirectionalFreezeImageFilter. ">
<polygon fill="white" stroke="black" points="189.007,-1021.5 189.007,-1049.5 346.711,-1049.5 346.711,-1021.5 189.007,-1021.5"/>
<text text-anchor="start" x="197.007" y="-1037.5" font-family="Helvetica,sans-Serif" font-size="10.00">vtkvmtkFastMarchingDirectional</text>
<text text-anchor="middle" x="267.859" y="-1027.5" font-family="Helvetica,sans-Serif" font-size="10.00">FreezeImageFilter</text>
</a>
</g>
</g>
<!-- Node33&#45;&gt;Node39 -->
<g id="edge6" class="edge"><title>Node33&#45;&gt;Node39</title>
<path fill="none" stroke="midnightblue" d="M74.1699,-646.965C73.0727,-709.584 78.4427,-907.825 183.714,-1012.5 187.219,-1015.98 191.201,-1018.95 195.481,-1021.48"/>
<polygon fill="midnightblue" stroke="midnightblue" points="77.6779,-646.697 74.4376,-636.61 70.6802,-646.516 77.6779,-646.697"/>
</g>
<!-- Node40 -->
<g id="node8" class="node"><title>Node40</title>
<g id="a_node8"><a xlink:href="classvtkvmtkFastMarchingUpwindGradientImageFilter.html" target="_top" xlink:title="Wrapper class around itk::FastMarchingUpwindGradientImageFilter. ">
<polygon fill="white" stroke="black" points="195.953,-974.5 195.953,-1002.5 339.765,-1002.5 339.765,-974.5 195.953,-974.5"/>
<text text-anchor="start" x="203.953" y="-990.5" font-family="Helvetica,sans-Serif" font-size="10.00">vtkvmtkFastMarchingUpwind</text>
<text text-anchor="middle" x="267.859" y="-980.5" font-family="Helvetica,sans-Serif" font-size="10.00">GradientImageFilter</text>
</a>
</g>
</g>
<!-- Node33&#45;&gt;Node40 -->
<g id="edge7" class="edge"><title>Node33&#45;&gt;Node40</title>
<path fill="none" stroke="midnightblue" d="M75.0638,-646.841C76.7639,-704.284 89.8519,-875.472 183.714,-965.5 187.281,-968.921 191.31,-971.843 195.622,-974.336"/>
<polygon fill="midnightblue" stroke="midnightblue" points="78.5592,-646.577 74.8519,-636.652 71.5607,-646.723 78.5592,-646.577"/>
</g>
<!-- Node41 -->
<g id="node9" class="node"><title>Node41</title>
<g id="a_node9"><a xlink:href="classvtkvmtkFWHMFeatureImageFilter.html" target="_top" xlink:title="Wrapper class around itk::FWHMFeatureImageFilter. ">
<polygon fill="white" stroke="black" points="185.127,-937.5 185.127,-955.5 350.59,-955.5 350.59,-937.5 185.127,-937.5"/>
<text text-anchor="middle" x="267.859" y="-943.5" font-family="Helvetica,sans-Serif" font-size="10.00">vtkvmtkFWHMFeatureImageFilter</text>
</a>
</g>
</g>
<!-- Node33&#45;&gt;Node41 -->
<g id="edge8" class="edge"><title>Node33&#45;&gt;Node41</title>
<path fill="none" stroke="midnightblue" d="M75.6916,-646.721C79.107,-700.262 96.4144,-852.165 183.714,-928.5 187.828,-932.097 192.489,-935.03 197.454,-937.417"/>
<polygon fill="midnightblue" stroke="midnightblue" points="79.1788,-646.388 75.142,-636.593 72.189,-646.768 79.1788,-646.388"/>
</g>
<!-- Node42 -->
<g id="node10" class="node"><title>Node42</title>
<g id="a_node10"><a xlink:href="classvtkvmtkGeodesicActiveContourLevelSet2DImageFilter.html" target="_top" xlink:title="Wrapper class around itk::GeodesicActiveContourLevelSetImageFilter. ">
<polygon fill="white" stroke="black" points="190.389,-890.5 190.389,-918.5 345.329,-918.5 345.329,-890.5 190.389,-890.5"/>
<text text-anchor="start" x="198.389" y="-906.5" font-family="Helvetica,sans-Serif" font-size="10.00">vtkvmtkGeodesicActiveContour</text>
<text text-anchor="middle" x="267.859" y="-896.5" font-family="Helvetica,sans-Serif" font-size="10.00">LevelSet2DImageFilter</text>
</a>
</g>
</g>
<!-- Node33&#45;&gt;Node42 -->
<g id="edge9" class="edge"><title>Node33&#45;&gt;Node42</title>
<path fill="none" stroke="midnightblue" d="M77.3643,-646.598C84.6001,-693.853 109.937,-817.068 183.714,-881.5 187.662,-884.948 192.085,-887.883 196.779,-890.381"/>
<polygon fill="midnightblue" stroke="midnightblue" points="80.8057,-645.939 75.9266,-636.534 73.876,-646.929 80.8057,-645.939"/>
</g>
<!-- Node43 -->
<g id="node11" class="node"><title>Node43</title>
<g id="a_node11"><a xlink:href="classvtkvmtkGeodesicActiveContourLevelSetImageFilter.html" target="_top" xlink:title="Wrapper class around itk::GeodesicActiveContourLevelSetImageFilter. ">
<polygon fill="white" stroke="black" points="190.389,-843.5 190.389,-871.5 345.329,-871.5 345.329,-843.5 190.389,-843.5"/>
<text text-anchor="start" x="198.389" y="-859.5" font-family="Helvetica,sans-Serif" font-size="10.00">vtkvmtkGeodesicActiveContour</text>
<text text-anchor="middle" x="267.859" y="-849.5" font-family="Helvetica,sans-Serif" font-size="10.00">LevelSetImageFilter</text>
</a>
</g>
</g>
<!-- Node33&#45;&gt;Node43 -->
<g id="edge10" class="edge"><title>Node33&#45;&gt;Node43</title>
<path fill="none" stroke="midnightblue" d="M79.3223,-646.314C89.9877,-687.06 120.868,-783.859 183.714,-834.5 188.029,-837.977 192.833,-840.929 197.896,-843.436"/>
<polygon fill="midnightblue" stroke="midnightblue" points="82.714,-645.45 76.8895,-636.6 75.9237,-647.15 82.714,-645.45"/>
</g>
<!-- Node44 -->
<g id="node12" class="node"><title>Node44</title>
<g id="a_node12"><a xlink:href="classvtkvmtkGradientMagnitudeImageFilter.html" target="_top" xlink:title="Wrapper class around itk::GradientMagnitudeImageFilterImageFilter. ">
<polygon fill="white" stroke="black" points="200.389,-796.5 200.389,-824.5 335.329,-824.5 335.329,-796.5 200.389,-796.5"/>
<text text-anchor="start" x="208.389" y="-812.5" font-family="Helvetica,sans-Serif" font-size="10.00">vtkvmtkGradientMagnitude</text>
<text text-anchor="middle" x="267.859" y="-802.5" font-family="Helvetica,sans-Serif" font-size="10.00">ImageFilter</text>
</a>
</g>
</g>
<!-- Node33&#45;&gt;Node44 -->
<g id="edge11" class="edge"><title>Node33&#45;&gt;Node44</title>
<path fill="none" stroke="midnightblue" d="M82.3947,-646.299C96.8489,-679.906 131.713,-750.248 183.714,-787.5 188.706,-791.076 194.231,-794.097 199.992,-796.648"/>
<polygon fill="midnightblue" stroke="midnightblue" points="85.5,-644.651 78.4231,-636.767 79.0385,-647.344 85.5,-644.651"/>
</g>
<!-- Node45 -->
<g id="node13" class="node"><title>Node45</title>
<g id="a_node13"><a xlink:href="classvtkvmtkGradientMagnitudeRecursiveGaussian2DImageFilter.html" target="_top" xlink:title="Wrapper class around itk::GradientMagnitudeRecursiveGaussian2DImageFilter. ">
<polygon fill="white" stroke="black" points="185.108,-749.5 185.108,-777.5 350.61,-777.5 350.61,-749.5 185.108,-749.5"/>
<text text-anchor="start" x="193.108" y="-765.5" font-family="Helvetica,sans-Serif" font-size="10.00">vtkvmtkGradientMagnitude</text>
<text text-anchor="middle" x="267.859" y="-755.5" font-family="Helvetica,sans-Serif" font-size="10.00">RecursiveGaussian2DImageFilter</text>
</a>
</g>
</g>
<!-- Node33&#45;&gt;Node45 -->
<g id="edge12" class="edge"><title>Node33&#45;&gt;Node45</title>
<path fill="none" stroke="midnightblue" d="M86.8312,-644.872C104.919,-669.79 141.604,-715.431 183.714,-740.5 189.505,-743.948 195.829,-746.894 202.32,-749.408"/>
<polygon fill="midnightblue" stroke="midnightblue" points="89.6761,-642.833 81.0329,-636.705 83.9685,-646.885 89.6761,-642.833"/>
</g>
<!-- Node46 -->
<g id="node14" class="node"><title>Node46</title>
<g id="a_node14"><a xlink:href="classvtkvmtkGradientMagnitudeRecursiveGaussianImageFilter.html" target="_top" xlink:title="Wrapper class around itk::GradientMagnitudeRecursiveGaussianImageFilter. ">
<polygon fill="white" stroke="black" points="191.5,-702.5 191.5,-730.5 344.218,-730.5 344.218,-702.5 191.5,-702.5"/>
<text text-anchor="start" x="199.5" y="-718.5" font-family="Helvetica,sans-Serif" font-size="10.00">vtkvmtkGradientMagnitude</text>
<text text-anchor="middle" x="267.859" y="-708.5" font-family="Helvetica,sans-Serif" font-size="10.00">RecursiveGaussianImageFilter</text>
</a>
</g>
</g>
<!-- Node33&#45;&gt;Node46 -->
<g id="edge13" class="edge"><title>Node33&#45;&gt;Node46</title>
<path fill="none" stroke="midnightblue" d="M95.5533,-642.437C116.788,-657.174 151.222,-679.476 183.714,-693.5 191.414,-696.824 199.724,-699.794 208.009,-702.406"/>
<polygon fill="midnightblue" stroke="midnightblue" points="97.4968,-639.524 87.3051,-636.63 93.4672,-645.248 97.4968,-639.524"/>
</g>
<!-- Node47 -->
<g id="node15" class="node"><title>Node47</title>
<g id="a_node15"><a xlink:href="classvtkvmtkGrayscaleMorphologyImageFilter.html" target="_top" xlink:title="Wrapper class around itk::GrayscaleMorphologyImageFilter. ">
<polygon fill="white" stroke="black" points="194.283,-655.5 194.283,-683.5 341.435,-683.5 341.435,-655.5 194.283,-655.5"/>
<text text-anchor="start" x="202.283" y="-671.5" font-family="Helvetica,sans-Serif" font-size="10.00">vtkvmtkGrayscaleMorphology</text>
<text text-anchor="middle" x="267.859" y="-661.5" font-family="Helvetica,sans-Serif" font-size="10.00">ImageFilter</text>
</a>
</g>
</g>
<!-- Node33&#45;&gt;Node47 -->
<g id="edge14" class="edge"><title>Node33&#45;&gt;Node47</title>
<path fill="none" stroke="midnightblue" d="M125.842,-638.653C149.421,-643.811 177.683,-649.993 202.695,-655.464"/>
<polygon fill="midnightblue" stroke="midnightblue" points="126.563,-635.228 116.046,-636.51 125.067,-642.066 126.563,-635.228"/>
</g>
<!-- Node48 -->
<g id="node16" class="node"><title>Node48</title>
<g id="a_node16"><a xlink:href="classvtkvmtkImageBoxPainter.html" target="_top" xlink:title="Create a box shaped sub&#45;volume within a 3D image and paint (assign a value to) every sub&#45;volume eleme...">
<polygon fill="white" stroke="black" points="204.561,-618.5 204.561,-636.5 331.157,-636.5 331.157,-618.5 204.561,-618.5"/>
<text text-anchor="middle" x="267.859" y="-624.5" font-family="Helvetica,sans-Serif" font-size="10.00">vtkvmtkImageBoxPainter</text>
</a>
</g>
</g>
<!-- Node33&#45;&gt;Node48 -->
<g id="edge15" class="edge"><title>Node33&#45;&gt;Node48</title>
<path fill="none" stroke="midnightblue" d="M157.886,-627.5C173.487,-627.5 189.554,-627.5 204.397,-627.5"/>
<polygon fill="midnightblue" stroke="midnightblue" points="157.718,-624 147.718,-627.5 157.718,-631 157.718,-624"/>
</g>
<!-- Node49 -->
<g id="node17" class="node"><title>Node49</title>
<g id="a_node17"><a xlink:href="classvtkvmtkLaplacianSegmentationLevelSetImageFilter.html" target="_top" xlink:title="Wrapper class around itk::LaplacianSegmentationLevelSetImageFilter. ">
<polygon fill="white" stroke="black" points="190.655,-571.5 190.655,-599.5 345.063,-599.5 345.063,-571.5 190.655,-571.5"/>
<text text-anchor="start" x="198.655" y="-587.5" font-family="Helvetica,sans-Serif" font-size="10.00">vtkvmtkLaplacianSegmentation</text>
<text text-anchor="middle" x="267.859" y="-577.5" font-family="Helvetica,sans-Serif" font-size="10.00">LevelSetImageFilter</text>
</a>
</g>
</g>
<!-- Node33&#45;&gt;Node49 -->
<g id="edge16" class="edge"><title>Node33&#45;&gt;Node49</title>
<path fill="none" stroke="midnightblue" d="M125.842,-616.347C149.421,-611.189 177.683,-605.007 202.695,-599.536"/>
<polygon fill="midnightblue" stroke="midnightblue" points="125.067,-612.934 116.046,-618.49 126.563,-619.772 125.067,-612.934"/>
</g>
<!-- Node50 -->
<g id="node18" class="node"><title>Node50</title>
<g id="a_node18"><a xlink:href="classvtkvmtkLevelSetSigmoidFilter.html" target="_top" xlink:title="Apply a sigmoid function to every voxel of an image. ">
<polygon fill="white" stroke="black" points="194.283,-534.5 194.283,-552.5 341.435,-552.5 341.435,-534.5 194.283,-534.5"/>
<text text-anchor="middle" x="267.859" y="-540.5" font-family="Helvetica,sans-Serif" font-size="10.00">vtkvmtkLevelSetSigmoidFilter</text>
</a>
</g>
</g>
<!-- Node33&#45;&gt;Node50 -->
<g id="edge17" class="edge"><title>Node33&#45;&gt;Node50</title>
<path fill="none" stroke="midnightblue" d="M95.4606,-612.5C116.623,-597.759 151.001,-575.622 183.714,-562.5 193.746,-558.476 204.818,-555.202 215.52,-552.577"/>
<polygon fill="midnightblue" stroke="midnightblue" points="93.3833,-609.682 87.2436,-618.316 97.4278,-615.395 93.3833,-609.682"/>
</g>
<!-- Node51 -->
<g id="node19" class="node"><title>Node51</title>
<g id="a_node19"><a xlink:href="classvtkvmtkMedialCurveFilter.html" target="_top" xlink:title="flux driven automatic centerline extraction from a surface ">
<polygon fill="white" stroke="black" points="203.738,-497.5 203.738,-515.5 331.979,-515.5 331.979,-497.5 203.738,-497.5"/>
<text text-anchor="middle" x="267.859" y="-503.5" font-family="Helvetica,sans-Serif" font-size="10.00">vtkvmtkMedialCurveFilter</text>
</a>
</g>
</g>
<!-- Node33&#45;&gt;Node51 -->
<g id="edge18" class="edge"><title>Node33&#45;&gt;Node51</title>
<path fill="none" stroke="midnightblue" d="M87.8867,-610.637C106.554,-587.702 143.162,-547.066 183.714,-525.5 191.558,-521.328 200.292,-518.069 209.069,-515.522"/>
<polygon fill="midnightblue" stroke="midnightblue" points="85.13,-608.481 81.6398,-618.484 90.6064,-612.841 85.13,-608.481"/>
</g>
<!-- Node52 -->
<g id="node20" class="node"><title>Node52</title>
<g id="a_node20"><a xlink:href="classvtkvmtkNormalizeImageFilter.html" target="_top" xlink:title="Wrapper class around itk::NormalizeImageFilter. ">
<polygon fill="white" stroke="black" points="195.403,-460.5 195.403,-478.5 340.314,-478.5 340.314,-460.5 195.403,-460.5"/>
<text text-anchor="middle" x="267.859" y="-466.5" font-family="Helvetica,sans-Serif" font-size="10.00">vtkvmtkNormalizeImageFilter</text>
</a>
</g>
</g>
<!-- Node33&#45;&gt;Node52 -->
<g id="edge19" class="edge"><title>Node33&#45;&gt;Node52</title>
<path fill="none" stroke="midnightblue" d="M83.803,-609.283C99.59,-579.145 135.352,-519.195 183.714,-488.5 190.215,-484.374 197.505,-481.14 204.996,-478.606"/>
<polygon fill="midnightblue" stroke="midnightblue" points="80.6429,-607.776 79.2256,-618.276 86.8812,-610.952 80.6429,-607.776"/>
</g>
<!-- Node53 -->
<g id="node21" class="node"><title>Node53</title>
<g id="a_node21"><a xlink:href="classvtkvmtkObjectnessMeasureImageFilter.html" target="_top" xlink:title="Wrapper class around itk::ObjectnessMeasureImageFilter. ">
<polygon fill="white" stroke="black" points="198.45,-413.5 198.45,-441.5 337.268,-441.5 337.268,-413.5 198.45,-413.5"/>
<text text-anchor="start" x="206.45" y="-429.5" font-family="Helvetica,sans-Serif" font-size="10.00">vtkvmtkObjectnessMeasure</text>
<text text-anchor="middle" x="267.859" y="-419.5" font-family="Helvetica,sans-Serif" font-size="10.00">ImageFilter</text>
</a>
</g>
</g>
<!-- Node33&#45;&gt;Node53 -->
<g id="edge20" class="edge"><title>Node33&#45;&gt;Node53</title>
<path fill="none" stroke="midnightblue" d="M81.3462,-608.401C94.6405,-572.185 128.46,-493.413 183.714,-451.5 188.861,-447.596 194.625,-444.326 200.653,-441.587"/>
<polygon fill="midnightblue" stroke="midnightblue" points="77.9199,-607.591 77.8784,-618.186 84.5178,-609.929 77.9199,-607.591"/>
</g>
<!-- Node54 -->
<g id="node22" class="node"><title>Node54</title>
<g id="a_node22"><a xlink:href="classvtkvmtkOtsuMultipleThresholdsImageFilter.html" target="_top" xlink:title="Wrapper class around itk::OtsuMultipleThresholdsImageFilter. ">
<polygon fill="white" stroke="black" points="190.394,-366.5 190.394,-394.5 345.324,-394.5 345.324,-366.5 190.394,-366.5"/>
<text text-anchor="start" x="198.394" y="-382.5" font-family="Helvetica,sans-Serif" font-size="10.00">vtkvmtkOtsuMultipleThresholds</text>
<text text-anchor="middle" x="267.859" y="-372.5" font-family="Helvetica,sans-Serif" font-size="10.00">ImageFilter</text>
</a>
</g>
</g>
<!-- Node33&#45;&gt;Node54 -->
<g id="edge21" class="edge"><title>Node33&#45;&gt;Node54</title>
<path fill="none" stroke="midnightblue" d="M78.7183,-608.189C88.3786,-564.983 117.71,-459.964 183.714,-404.5 188.315,-400.634 193.508,-397.39 198.996,-394.668"/>
<polygon fill="midnightblue" stroke="midnightblue" points="75.2436,-607.703 76.5876,-618.212 82.0906,-609.158 75.2436,-607.703"/>
</g>
<!-- Node55 -->
<g id="node23" class="node"><title>Node55</title>
<g id="a_node23"><a xlink:href="classvtkvmtkRecursiveGaussian2DImageFilter.html" target="_top" xlink:title="Wrapper class around itk::RecursiveGaussian2DImageFilter. ">
<polygon fill="white" stroke="black" points="196.783,-319.5 196.783,-347.5 338.935,-347.5 338.935,-319.5 196.783,-319.5"/>
<text text-anchor="start" x="204.783" y="-335.5" font-family="Helvetica,sans-Serif" font-size="10.00">vtkvmtkRecursiveGaussian2</text>
<text text-anchor="middle" x="267.859" y="-325.5" font-family="Helvetica,sans-Serif" font-size="10.00">DImageFilter</text>
</a>
</g>
</g>
<!-- Node33&#45;&gt;Node55 -->
<g id="edge22" class="edge"><title>Node33&#45;&gt;Node55</title>
<path fill="none" stroke="midnightblue" d="M76.8911,-608.266C83.1454,-558.97 106.607,-427.102 183.714,-357.5 188.063,-353.574 193.017,-350.287 198.291,-347.536"/>
<polygon fill="midnightblue" stroke="midnightblue" points="73.3848,-608.117 75.6999,-618.456 80.3375,-608.93 73.3848,-608.117"/>
</g>
<!-- Node56 -->
<g id="node24" class="node"><title>Node56</title>
<g id="a_node24"><a xlink:href="classvtkvmtkRecursiveGaussianImageFilter.html" target="_top" xlink:title="Wrapper class around itk::RecursiveGaussianImageFilter. ">
<polygon fill="white" stroke="black" points="199.563,-272.5 199.563,-300.5 336.154,-300.5 336.154,-272.5 199.563,-272.5"/>
<text text-anchor="start" x="207.563" y="-288.5" font-family="Helvetica,sans-Serif" font-size="10.00">vtkvmtkRecursiveGaussian</text>
<text text-anchor="middle" x="267.859" y="-278.5" font-family="Helvetica,sans-Serif" font-size="10.00">ImageFilter</text>
</a>
</g>
</g>
<!-- Node33&#45;&gt;Node56 -->
<g id="edge23" class="edge"><title>Node33&#45;&gt;Node56</title>
<path fill="none" stroke="midnightblue" d="M75.5809,-608.312C78.7119,-553.464 95.3563,-394.566 183.714,-310.5 188.285,-306.15 193.595,-302.582 199.277,-299.656"/>
<polygon fill="midnightblue" stroke="midnightblue" points="72.0816,-608.216 75.097,-618.373 79.0735,-608.552 72.0816,-608.216"/>
</g>
<!-- Node57 -->
<g id="node25" class="node"><title>Node57</title>
<g id="a_node25"><a xlink:href="classvtkvmtkSatoVesselnessMeasureImageFilter.html" target="_top" xlink:title="Wrapper class around itk::SatoVesselnessMeasureImageFilter. ">
<polygon fill="white" stroke="black" points="187.881,-225.5 187.881,-253.5 347.836,-253.5 347.836,-225.5 187.881,-225.5"/>
<text text-anchor="start" x="195.881" y="-241.5" font-family="Helvetica,sans-Serif" font-size="10.00">vtkvmtkSatoVesselnessMeasure</text>
<text text-anchor="middle" x="267.859" y="-231.5" font-family="Helvetica,sans-Serif" font-size="10.00">ImageFilter</text>
</a>
</g>
</g>
<!-- Node33&#45;&gt;Node57 -->
<g id="edge24" class="edge"><title>Node33&#45;&gt;Node57</title>
<path fill="none" stroke="midnightblue" d="M74.5925,-607.953C74.8786,-547.554 84.2022,-362.063 183.714,-263.5 187.663,-259.588 192.208,-256.306 197.094,-253.552"/>
<polygon fill="midnightblue" stroke="midnightblue" points="71.0938,-608.315 74.6318,-618.302 78.0937,-608.288 71.0938,-608.315"/>
</g>
<!-- Node58 -->
<g id="node26" class="node"><title>Node58</title>
<g id="a_node26"><a xlink:href="classvtkvmtkSigmoidImageFilter.html" target="_top" xlink:title="Wrapper class around itk::SigmoidImageFilter. ">
<polygon fill="white" stroke="black" points="199.844,-188.5 199.844,-206.5 335.874,-206.5 335.874,-188.5 199.844,-188.5"/>
<text text-anchor="middle" x="267.859" y="-194.5" font-family="Helvetica,sans-Serif" font-size="10.00">vtkvmtkSigmoidImageFilter</text>
</a>
</g>
</g>
<!-- Node33&#45;&gt;Node58 -->
<g id="edge25" class="edge"><title>Node33&#45;&gt;Node58</title>
<path fill="none" stroke="midnightblue" d="M77.3427,-608.018C87.1537,-534.159 125.519,-272.735 183.714,-216.5 188.292,-212.076 193.679,-208.601 199.472,-205.883"/>
<polygon fill="midnightblue" stroke="midnightblue" points="73.8373,-607.833 76.0145,-618.202 80.7785,-608.738 73.8373,-607.833"/>
</g>
<!-- Node59 -->
<g id="node27" class="node"><title>Node59</title>
<g id="a_node27"><a xlink:href="classvtkvmtkThresholdSegmentationLevelSetImageFilter.html" target="_top" xlink:title="Wrapper class around itk::ThresholdSegmentationLevelSetImageFilter. ">
<polygon fill="white" stroke="black" points="189.827,-141.5 189.827,-169.5 345.891,-169.5 345.891,-141.5 189.827,-141.5"/>
<text text-anchor="start" x="197.827" y="-157.5" font-family="Helvetica,sans-Serif" font-size="10.00">vtkvmtkThresholdSegmentation</text>
<text text-anchor="middle" x="267.859" y="-147.5" font-family="Helvetica,sans-Serif" font-size="10.00">LevelSetImageFilter</text>
</a>
</g>
</g>
<!-- Node33&#45;&gt;Node59 -->
<g id="edge26" class="edge"><title>Node33&#45;&gt;Node59</title>
<path fill="none" stroke="midnightblue" d="M77.0131,-607.902C85.9644,-529.982 122.612,-243.265 183.714,-179.5 187.456,-175.595 191.79,-172.313 196.475,-169.557"/>
<polygon fill="midnightblue" stroke="midnightblue" points="73.4954,-607.864 75.854,-618.193 80.4514,-608.648 73.4954,-607.864"/>
</g>
<!-- Node60 -->
<g id="node28" class="node"><title>Node60</title>
<g id="a_node28"><a xlink:href="classvtkvmtkUpwindGradientMagnitudeImageFilter.html" target="_top" xlink:title="Wrapper class around itk::UpwindGradientMagnitudeImageFilter. ">
<polygon fill="white" stroke="black" points="183.714,-94.5 183.714,-122.5 352.004,-122.5 352.004,-94.5 183.714,-94.5"/>
<text text-anchor="start" x="191.714" y="-110.5" font-family="Helvetica,sans-Serif" font-size="10.00">vtkvmtkUpwindGradientMagnitude</text>
<text text-anchor="middle" x="267.859" y="-100.5" font-family="Helvetica,sans-Serif" font-size="10.00">ImageFilter</text>
</a>
</g>
</g>
<!-- Node33&#45;&gt;Node60 -->
<g id="edge27" class="edge"><title>Node33&#45;&gt;Node60</title>
<path fill="none" stroke="midnightblue" d="M76.5165,-608.019C83.9448,-525.275 116.748,-203.934 183.714,-132.5 187.31,-128.664 191.477,-125.428 195.992,-122.7"/>
<polygon fill="midnightblue" stroke="midnightblue" points="72.9899,-608.17 75.6036,-618.438 79.9632,-608.781 72.9899,-608.17"/>
</g>
<!-- Node61 -->
<g id="node29" class="node"><title>Node61</title>
<g id="a_node29"><a xlink:href="classvtkvmtkVesselEnhancingDiffusionImageFilter.html" target="_top" xlink:title="Wrapper class around itk::VesselEnhancingDiffusionImageFilter. ">
<polygon fill="white" stroke="black" points="185.186,-47.5 185.186,-75.5 350.532,-75.5 350.532,-47.5 185.186,-47.5"/>
<text text-anchor="start" x="193.186" y="-63.5" font-family="Helvetica,sans-Serif" font-size="10.00">vtkvmtkVesselEnhancingDiffusion</text>
<text text-anchor="middle" x="267.859" y="-53.5" font-family="Helvetica,sans-Serif" font-size="10.00">ImageFilter</text>
</a>
</g>
</g>
<!-- Node33&#45;&gt;Node61 -->
<g id="edge28" class="edge"><title>Node33&#45;&gt;Node61</title>
<path fill="none" stroke="midnightblue" d="M76.0879,-608.413C82.0622,-521.588 110.778,-164.74 183.714,-85.5 187.275,-81.631 191.417,-78.3713 195.913,-75.6266"/>
<polygon fill="midnightblue" stroke="midnightblue" points="72.5935,-608.214 75.4188,-618.425 79.5779,-608.681 72.5935,-608.214"/>
</g>
<!-- Node62 -->
<g id="node30" class="node"><title>Node62</title>
<g id="a_node30"><a xlink:href="classvtkvmtkVesselnessMeasureImageFilter.html" target="_top" xlink:title="Wrapper class around itk::VesselnessMeasureImageFilter. ">
<polygon fill="white" stroke="black" points="198.167,-0.5 198.167,-28.5 337.551,-28.5 337.551,-0.5 198.167,-0.5"/>
<text text-anchor="start" x="206.167" y="-16.5" font-family="Helvetica,sans-Serif" font-size="10.00">vtkvmtkVesselnessMeasure</text>
<text text-anchor="middle" x="267.859" y="-6.5" font-family="Helvetica,sans-Serif" font-size="10.00">ImageFilter</text>
</a>
</g>
</g>
<!-- Node33&#45;&gt;Node62 -->
<g id="edge29" class="edge"><title>Node33&#45;&gt;Node62</title>
<path fill="none" stroke="midnightblue" d="M75.7802,-607.94C80.5195,-515.734 105.028,-125.324 183.714,-38.5 187.75,-34.0469 192.554,-30.3995 197.788,-27.4147"/>
<polygon fill="midnightblue" stroke="midnightblue" points="72.2767,-607.927 75.2779,-618.088 79.2681,-608.273 72.2767,-607.927"/>
</g>
</g>
</svg>
