<?xml version="1.0" encoding="UTF-8" standalone="no"?>
<!DOCTYPE svg PUBLIC "-//W3C//DTD SVG 1.1//EN"
 "http://www.w3.org/Graphics/SVG/1.1/DTD/svg11.dtd">
<!-- Generated by graphviz version 2.38.0 (20140413.2041)
 -->
<!-- Title: Graphical Class Hierarchy Pages: 1 -->
<svg width="292pt" height="175pt"
 viewBox="0.00 0.00 292.32 175.00" xmlns="http://www.w3.org/2000/svg" xmlns:xlink="http://www.w3.org/1999/xlink">
<g id="graph0" class="graph" transform="scale(1 1) rotate(0) translate(4 171)">
<title>Graphical Class Hierarchy</title>
<polygon fill="white" stroke="none" points="-4,4 -4,-171 288.323,-171 288.323,4 -4,4"/>
<!-- Node4 -->
<g id="node1" class="node"><title>Node4</title>
<polygon fill="white" stroke="#bfbfbf" points="0,-74.5 0,-92.5 131.4,-92.5 131.4,-74.5 0,-74.5"/>
<text text-anchor="middle" x="65.7002" y="-80.5" font-family="Helvetica,sans-Serif" font-size="10.00">vtkUnstructuredGridWriter</text>
</g>
<!-- Node0 -->
<g id="node2" class="node"><title>Node0</title>
<g id="a_node2"><a xlink:href="classvtkvmtkDolfinWriter.html" target="_top" xlink:title="write mesh data in Dolfin file formats. ">
<polygon fill="white" stroke="black" points="174.893,-148.5 174.893,-166.5 276.831,-166.5 276.831,-148.5 174.893,-148.5"/>
<text text-anchor="middle" x="225.862" y="-154.5" font-family="Helvetica,sans-Serif" font-size="10.00">vtkvmtkDolfinWriter</text>
</a>
</g>
</g>
<!-- Node4&#45;&gt;Node0 -->
<g id="edge1" class="edge"><title>Node4&#45;&gt;Node0</title>
<path fill="none" stroke="midnightblue" d="M89.5879,-98.002C109.567,-110.224 139.631,-127.577 167.4,-139.5 175.181,-142.841 183.791,-145.869 191.926,-148.449"/>
<polygon fill="midnightblue" stroke="midnightblue" points="91.2479,-94.9133 80.9035,-92.6232 87.562,-100.864 91.2479,-94.9133"/>
</g>
<!-- Node6 -->
<g id="node3" class="node"><title>Node6</title>
<g id="a_node3"><a xlink:href="classvtkvmtkFDNEUTWriter.html" target="_top" xlink:title="writes FDNEUT Fidap files ">
<polygon fill="white" stroke="black" points="167.4,-111.5 167.4,-129.5 284.323,-129.5 284.323,-111.5 167.4,-111.5"/>
<text text-anchor="middle" x="225.862" y="-117.5" font-family="Helvetica,sans-Serif" font-size="10.00">vtkvmtkFDNEUTWriter</text>
</a>
</g>
</g>
<!-- Node4&#45;&gt;Node6 -->
<g id="edge2" class="edge"><title>Node4&#45;&gt;Node6</title>
<path fill="none" stroke="midnightblue" d="M115.229,-94.8528C138.053,-100.192 164.889,-106.47 186.297,-111.478"/>
<polygon fill="midnightblue" stroke="midnightblue" points="115.925,-91.4212 105.391,-92.5512 114.331,-98.2372 115.925,-91.4212"/>
</g>
<!-- Node7 -->
<g id="node4" class="node"><title>Node7</title>
<g id="a_node4"><a xlink:href="classvtkvmtkFluentWriter.html" target="_top" xlink:title="writes Fluent .msh files. ">
<polygon fill="white" stroke="black" points="173.78,-74.5 173.78,-92.5 277.944,-92.5 277.944,-74.5 173.78,-74.5"/>
<text text-anchor="middle" x="225.862" y="-80.5" font-family="Helvetica,sans-Serif" font-size="10.00">vtkvmtkFluentWriter</text>
</a>
</g>
</g>
<!-- Node4&#45;&gt;Node7 -->
<g id="edge3" class="edge"><title>Node4&#45;&gt;Node7</title>
<path fill="none" stroke="midnightblue" d="M141.735,-83.5C152.482,-83.5 163.33,-83.5 173.481,-83.5"/>
<polygon fill="midnightblue" stroke="midnightblue" points="141.487,-80.0001 131.487,-83.5 141.487,-87.0001 141.487,-80.0001"/>
</g>
<!-- Node8 -->
<g id="node5" class="node"><title>Node8</title>
<g id="a_node5"><a xlink:href="classvtkvmtkTetGenWriter.html" target="_top" xlink:title="writes TetGen .msh files. ">
<polygon fill="white" stroke="black" points="171.556,-37.5 171.556,-55.5 280.168,-55.5 280.168,-37.5 171.556,-37.5"/>
<text text-anchor="middle" x="225.862" y="-43.5" font-family="Helvetica,sans-Serif" font-size="10.00">vtkvmtkTetGenWriter</text>
</a>
</g>
</g>
<!-- Node4&#45;&gt;Node8 -->
<g id="edge4" class="edge"><title>Node4&#45;&gt;Node8</title>
<path fill="none" stroke="midnightblue" d="M115.229,-72.1472C138.053,-66.8079 164.889,-60.53 186.297,-55.5218"/>
<polygon fill="midnightblue" stroke="midnightblue" points="114.331,-68.7628 105.391,-74.4488 115.925,-75.5788 114.331,-68.7628"/>
</g>
<!-- Node9 -->
<g id="node6" class="node"><title>Node9</title>
<g id="a_node6"><a xlink:href="classvtkvmtkXdaWriter.html" target="_top" xlink:title="writes libmesh Xda files ">
<polygon fill="white" stroke="black" points="178.78,-0.5 178.78,-18.5 272.944,-18.5 272.944,-0.5 178.78,-0.5"/>
<text text-anchor="middle" x="225.862" y="-6.5" font-family="Helvetica,sans-Serif" font-size="10.00">vtkvmtkXdaWriter</text>
</a>
</g>
</g>
<!-- Node4&#45;&gt;Node9 -->
<g id="edge5" class="edge"><title>Node4&#45;&gt;Node9</title>
<path fill="none" stroke="midnightblue" d="M90.0154,-69.191C110.046,-57.285 139.953,-40.417 167.4,-28.5 175.882,-24.8176 185.322,-21.4217 194.06,-18.5505"/>
<polygon fill="midnightblue" stroke="midnightblue" points="88.0586,-66.2835 81.2907,-74.435 91.6648,-72.2832 88.0586,-66.2835"/>
</g>
</g>
</svg>
