<?xml version="1.0" encoding="UTF-8" standalone="no"?>
<!DOCTYPE svg PUBLIC "-//W3C//DTD SVG 1.1//EN"
 "http://www.w3.org/Graphics/SVG/1.1/DTD/svg11.dtd">
<!-- Generated by graphviz version 2.38.0 (20140413.2041)
 -->
<!-- Title: Graphical Class Hierarchy Pages: 1 -->
<svg width="297pt" height="64pt"
 viewBox="0.00 0.00 297.17 64.00" xmlns="http://www.w3.org/2000/svg" xmlns:xlink="http://www.w3.org/1999/xlink">
<g id="graph0" class="graph" transform="scale(1 1) rotate(0) translate(4 60)">
<title>Graphical Class Hierarchy</title>
<polygon fill="white" stroke="none" points="-4,4 -4,-60 293.167,-60 293.167,4 -4,4"/>
<!-- Node186 -->
<g id="node1" class="node"><title>Node186</title>
<polygon fill="white" stroke="#bfbfbf" points="0,-18.5 0,-36.5 98.8076,-36.5 98.8076,-18.5 0,-18.5"/>
<text text-anchor="middle" x="49.4038" y="-24.5" font-family="Helvetica,sans-Serif" font-size="10.00">vtkImageAlgorithm</text>
</g>
<!-- Node0 -->
<g id="node2" class="node"><title>Node0</title>
<g id="a_node2"><a xlink:href="classvtkvmtkCurvedMPRImageFilter.html" target="_top" xlink:title="creates a multiplanar reconstruction of an image along a centerline path. ">
<polygon fill="white" stroke="black" points="134.808,-37.5 134.808,-55.5 289.167,-55.5 289.167,-37.5 134.808,-37.5"/>
<text text-anchor="middle" x="211.987" y="-43.5" font-family="Helvetica,sans-Serif" font-size="10.00">vtkvmtkCurvedMPRImageFilter</text>
</a>
</g>
</g>
<!-- Node186&#45;&gt;Node0 -->
<g id="edge1" class="edge"><title>Node186&#45;&gt;Node0</title>
<path fill="none" stroke="midnightblue" d="M109.008,-34.4339C117.355,-35.4216 126.041,-36.4493 134.665,-37.4697"/>
<polygon fill="midnightblue" stroke="midnightblue" points="109.362,-30.9515 99.0199,-33.2522 108.539,-37.903 109.362,-30.9515"/>
</g>
<!-- Node188 -->
<g id="node3" class="node"><title>Node188</title>
<g id="a_node3"><a xlink:href="classvtkvmtkPolyBallModeller.html" target="_top" xlink:title="Create an image where a polyball or polyball line are evaluated as a function. ">
<polygon fill="white" stroke="black" points="149.805,-0.5 149.805,-18.5 274.169,-18.5 274.169,-0.5 149.805,-0.5"/>
<text text-anchor="middle" x="211.987" y="-6.5" font-family="Helvetica,sans-Serif" font-size="10.00">vtkvmtkPolyBallModeller</text>
</a>
</g>
</g>
<!-- Node186&#45;&gt;Node188 -->
<g id="edge2" class="edge"><title>Node186&#45;&gt;Node188</title>
<path fill="none" stroke="midnightblue" d="M108.972,-20.9351C122.238,-19.448 136.36,-17.865 149.734,-16.3659"/>
<polygon fill="midnightblue" stroke="midnightblue" points="108.568,-17.4583 99.0199,-22.0506 109.348,-24.4148 108.568,-17.4583"/>
</g>
</g>
</svg>
