<?xml version="1.0" encoding="UTF-8" standalone="no"?>
<!DOCTYPE svg PUBLIC "-//W3C//DTD SVG 1.1//EN"
 "http://www.w3.org/Graphics/SVG/1.1/DTD/svg11.dtd">
<!-- Generated by graphviz version 2.38.0 (20140413.2041)
 -->
<!-- Title: Graphical Class Hierarchy Pages: 1 -->
<svg width="306pt" height="37pt"
 viewBox="0.00 0.00 306.08 37.00" xmlns="http://www.w3.org/2000/svg" xmlns:xlink="http://www.w3.org/1999/xlink">
<g id="graph0" class="graph" transform="scale(1 1) rotate(0) translate(4 33)">
<title>Graphical Class Hierarchy</title>
<polygon fill="white" stroke="none" points="-4,4 -4,-33 302.083,-33 302.083,4 -4,4"/>
<!-- Node175 -->
<g id="node1" class="node"><title>Node175</title>
<polygon fill="white" stroke="#bfbfbf" points="0,-0.5 0,-28.5 120.487,-28.5 120.487,-0.5 0,-0.5"/>
<text text-anchor="start" x="8" y="-16.5" font-family="Helvetica,sans-Serif" font-size="10.00">vtkIterativeClosestPoint</text>
<text text-anchor="middle" x="60.2437" y="-6.5" font-family="Helvetica,sans-Serif" font-size="10.00">Transform</text>
</g>
<!-- Node0 -->
<g id="node2" class="node"><title>Node0</title>
<g id="a_node2"><a xlink:href="classvtkvmtkIterativeClosestPointTransform.html" target="_top" xlink:title="Implementation of the ICP algorithm with FarThreshold variant. ">
<polygon fill="white" stroke="black" points="156.487,-0.5 156.487,-28.5 298.083,-28.5 298.083,-0.5 156.487,-0.5"/>
<text text-anchor="start" x="164.487" y="-16.5" font-family="Helvetica,sans-Serif" font-size="10.00">vtkvmtkIterativeClosestPoint</text>
<text text-anchor="middle" x="227.285" y="-6.5" font-family="Helvetica,sans-Serif" font-size="10.00">Transform</text>
</a>
</g>
</g>
<!-- Node175&#45;&gt;Node0 -->
<g id="edge1" class="edge"><title>Node175&#45;&gt;Node0</title>
<path fill="none" stroke="midnightblue" d="M130.975,-14.5C139.388,-14.5 147.982,-14.5 156.397,-14.5"/>
<polygon fill="midnightblue" stroke="midnightblue" points="130.827,-11.0001 120.827,-14.5 130.827,-18.0001 130.827,-11.0001"/>
</g>
</g>
</svg>
