<?xml version="1.0" encoding="UTF-8" standalone="no"?>
<!DOCTYPE svg PUBLIC "-//W3C//DTD SVG 1.1//EN"
 "http://www.w3.org/Graphics/SVG/1.1/DTD/svg11.dtd">
<!-- Generated by graphviz version 2.38.0 (20140413.2041)
 -->
<!-- Title: Graphical Class Hierarchy Pages: 1 -->
<svg width="366pt" height="37pt"
 viewBox="0.00 0.00 365.58 37.00" xmlns="http://www.w3.org/2000/svg" xmlns:xlink="http://www.w3.org/1999/xlink">
<g id="graph0" class="graph" transform="scale(1 1) rotate(0) translate(4 33)">
<title>Graphical Class Hierarchy</title>
<polygon fill="white" stroke="none" points="-4,4 -4,-33 361.585,-33 361.585,4 -4,4"/>
<!-- Node193 -->
<g id="node1" class="node"><title>Node193</title>
<polygon fill="white" stroke="#bfbfbf" points="0,-0.5 0,-28.5 152.743,-28.5 152.743,-0.5 0,-0.5"/>
<text text-anchor="start" x="8" y="-16.5" font-family="Helvetica,sans-Serif" font-size="10.00">vtkAbstractInterpolatedVelocity</text>
<text text-anchor="middle" x="76.3716" y="-6.5" font-family="Helvetica,sans-Serif" font-size="10.00">Field</text>
</g>
<!-- Node0 -->
<g id="node2" class="node"><title>Node0</title>
<g id="a_node2"><a xlink:href="classvtkvmtkStaticTemporalInterpolatedVelocityField.html" target="_top" xlink:title="A concrete class for obtaining the interpolated velocity values at a point. ">
<polygon fill="white" stroke="black" points="188.743,-0.5 188.743,-28.5 357.585,-28.5 357.585,-0.5 188.743,-0.5"/>
<text text-anchor="start" x="196.743" y="-16.5" font-family="Helvetica,sans-Serif" font-size="10.00">vtkvmtkStaticTemporalInterpolated</text>
<text text-anchor="middle" x="273.164" y="-6.5" font-family="Helvetica,sans-Serif" font-size="10.00">VelocityField</text>
</a>
</g>
</g>
<!-- Node193&#45;&gt;Node0 -->
<g id="edge1" class="edge"><title>Node193&#45;&gt;Node0</title>
<path fill="none" stroke="midnightblue" d="M163.164,-14.5C171.589,-14.5 180.132,-14.5 188.535,-14.5"/>
<polygon fill="midnightblue" stroke="midnightblue" points="162.962,-11.0001 152.962,-14.5 162.962,-18.0001 162.962,-11.0001"/>
</g>
</g>
</svg>
