<?xml version="1.0" encoding="UTF-8" standalone="no"?>
<!DOCTYPE svg PUBLIC "-//W3C//DTD SVG 1.1//EN"
 "http://www.w3.org/Graphics/SVG/1.1/DTD/svg11.dtd">
<!-- Generated by graphviz version 2.38.0 (20140413.2041)
 -->
<!-- Title: vtkvmtkLinearSystem.h Pages: 1 -->
<svg width="360pt" height="202pt"
 viewBox="0.00 0.00 360.28 202.00" xmlns="http://www.w3.org/2000/svg" xmlns:xlink="http://www.w3.org/1999/xlink">
<g id="graph0" class="graph" transform="scale(1 1) rotate(0) translate(4 198)">
<title>vtkvmtkLinearSystem.h</title>
<polygon fill="white" stroke="none" points="-4,4 -4,-198 356.278,-198 356.278,4 -4,4"/>
<!-- Node17 -->
<g id="node1" class="node"><title>Node17</title>
<polygon fill="#bfbfbf" stroke="black" points="116.46,-175.5 116.46,-193.5 235.825,-193.5 235.825,-175.5 116.46,-175.5"/>
<text text-anchor="middle" x="176.143" y="-181.5" font-family="Helvetica,sans-Serif" font-size="10.00">vtkvmtkLinearSystem.h</text>
</g>
<!-- Node18 -->
<g id="node2" class="node"><title>Node18</title>
<g id="a_node2"><a xlink:href="vtkvmtkBoundaryConditions_8h.html" target="_top" xlink:title="vtkvmtkBoundaryConditions.h">
<polygon fill="white" stroke="black" points="0,-120.5 0,-138.5 148.285,-138.5 148.285,-120.5 0,-120.5"/>
<text text-anchor="middle" x="74.1426" y="-126.5" font-family="Helvetica,sans-Serif" font-size="10.00">vtkvmtkBoundaryConditions.h</text>
</a>
</g>
</g>
<!-- Node17&#45;&gt;Node18 -->
<g id="edge1" class="edge"><title>Node17&#45;&gt;Node18</title>
<path fill="none" stroke="midnightblue" d="M151.586,-170.74C132.372,-160.757 106.238,-147.177 89.78,-138.625"/>
<polygon fill="midnightblue" stroke="midnightblue" points="150.164,-173.945 160.651,-175.45 153.391,-167.734 150.164,-173.945"/>
</g>
<!-- Node20 -->
<g id="node4" class="node"><title>Node20</title>
<g id="a_node4"><a xlink:href="vtkvmtkEllipticProblem_8h.html" target="_top" xlink:title="vtkvmtkEllipticProblem.h">
<polygon fill="white" stroke="black" points="64.9629,-0.5 64.9629,-18.5 189.322,-18.5 189.322,-0.5 64.9629,-0.5"/>
<text text-anchor="middle" x="127.143" y="-6.5" font-family="Helvetica,sans-Serif" font-size="10.00">vtkvmtkEllipticProblem.h</text>
</a>
</g>
</g>
<!-- Node17&#45;&gt;Node20 -->
<g id="edge4" class="edge"><title>Node17&#45;&gt;Node20</title>
<path fill="none" stroke="midnightblue" d="M174.646,-165.46C172.13,-140.143 165.911,-92.9235 152.143,-55 147.244,-41.5063 138.534,-27.2704 132.798,-18.6353"/>
<polygon fill="midnightblue" stroke="midnightblue" points="171.162,-165.798 175.555,-175.439 178.133,-165.163 171.162,-165.798"/>
</g>
<!-- Node21 -->
<g id="node5" class="node"><title>Node21</title>
<g id="a_node5"><a xlink:href="vtkvmtkLinearSystemSolver_8h.html" target="_top" xlink:title="vtkvmtkLinearSystemSolver.h">
<polygon fill="white" stroke="black" points="204.562,-120.5 204.562,-138.5 351.724,-138.5 351.724,-120.5 204.562,-120.5"/>
<text text-anchor="middle" x="278.143" y="-126.5" font-family="Helvetica,sans-Serif" font-size="10.00">vtkvmtkLinearSystemSolver.h</text>
</a>
</g>
</g>
<!-- Node17&#45;&gt;Node21 -->
<g id="edge5" class="edge"><title>Node17&#45;&gt;Node21</title>
<path fill="none" stroke="midnightblue" d="M200.7,-170.74C219.913,-160.757 246.047,-147.177 262.505,-138.625"/>
<polygon fill="midnightblue" stroke="midnightblue" points="198.894,-167.734 191.634,-175.45 202.122,-173.945 198.894,-167.734"/>
</g>
<!-- Node19 -->
<g id="node3" class="node"><title>Node19</title>
<g id="a_node3"><a xlink:href="vtkvmtkDirichletBoundaryConditions_8h.html" target="_top" xlink:title="vtkvmtkDirichletBoundary\lConditions.h">
<polygon fill="white" stroke="black" points="14.7363,-55.5 14.7363,-83.5 143.549,-83.5 143.549,-55.5 14.7363,-55.5"/>
<text text-anchor="start" x="22.7363" y="-71.5" font-family="Helvetica,sans-Serif" font-size="10.00">vtkvmtkDirichletBoundary</text>
<text text-anchor="middle" x="79.1426" y="-61.5" font-family="Helvetica,sans-Serif" font-size="10.00">Conditions.h</text>
</a>
</g>
</g>
<!-- Node18&#45;&gt;Node19 -->
<g id="edge2" class="edge"><title>Node18&#45;&gt;Node19</title>
<path fill="none" stroke="midnightblue" d="M75.7097,-110.321C76.4489,-101.747 77.315,-91.6999 77.9923,-83.8428"/>
<polygon fill="midnightblue" stroke="midnightblue" points="72.2097,-110.172 74.8378,-120.435 79.1838,-110.773 72.2097,-110.172"/>
</g>
<!-- Node19&#45;&gt;Node20 -->
<g id="edge3" class="edge"><title>Node19&#45;&gt;Node20</title>
<path fill="none" stroke="midnightblue" d="M96.5828,-47.4264C104.801,-37.4957 114.132,-26.2217 120.297,-18.7715"/>
<polygon fill="midnightblue" stroke="midnightblue" points="93.7138,-45.4034 90.0345,-55.3389 99.1066,-49.8664 93.7138,-45.4034"/>
</g>
<!-- Node22 -->
<g id="node6" class="node"><title>Node22</title>
<g id="a_node6"><a xlink:href="vtkvmtkOpenNLLinearSystemSolver_8h.html" target="_top" xlink:title="vtkvmtkOpenNLLinearSystem\lSolver.h">
<polygon fill="white" stroke="black" points="204.007,-55.5 204.007,-83.5 352.278,-83.5 352.278,-55.5 204.007,-55.5"/>
<text text-anchor="start" x="212.007" y="-71.5" font-family="Helvetica,sans-Serif" font-size="10.00">vtkvmtkOpenNLLinearSystem</text>
<text text-anchor="middle" x="278.143" y="-61.5" font-family="Helvetica,sans-Serif" font-size="10.00">Solver.h</text>
</a>
</g>
</g>
<!-- Node21&#45;&gt;Node22 -->
<g id="edge6" class="edge"><title>Node21&#45;&gt;Node22</title>
<path fill="none" stroke="midnightblue" d="M278.143,-110.321C278.143,-101.747 278.143,-91.6999 278.143,-83.8428"/>
<polygon fill="midnightblue" stroke="midnightblue" points="274.643,-110.435 278.143,-120.435 281.643,-110.435 274.643,-110.435"/>
</g>
</g>
</svg>
