<?xml version="1.0" encoding="UTF-8" standalone="no"?>
<!DOCTYPE svg PUBLIC "-//W3C//DTD SVG 1.1//EN"
 "http://www.w3.org/Graphics/SVG/1.1/DTD/svg11.dtd">
<!-- Generated by graphviz version 2.38.0 (20140413.2041)
 -->
<!-- Title: vtkvmtkVoronoiDiagram3D.h Pages: 1 -->
<svg width="438pt" height="82pt"
 viewBox="0.00 0.00 438.38 82.00" xmlns="http://www.w3.org/2000/svg" xmlns:xlink="http://www.w3.org/1999/xlink">
<g id="graph0" class="graph" transform="scale(1 1) rotate(0) translate(4 78)">
<title>vtkvmtkVoronoiDiagram3D.h</title>
<polygon fill="white" stroke="none" points="-4,4 -4,-78 434.376,-78 434.376,4 -4,4"/>
<!-- Node0 -->
<g id="node1" class="node"><title>Node0</title>
<polygon fill="#bfbfbf" stroke="black" points="139.606,-55.5 139.606,-73.5 282.325,-73.5 282.325,-55.5 139.606,-55.5"/>
<text text-anchor="middle" x="210.965" y="-61.5" font-family="Helvetica,sans-Serif" font-size="10.00">vtkvmtkVoronoiDiagram3D.h</text>
</g>
<!-- Node1 -->
<g id="node2" class="node"><title>Node1</title>
<polygon fill="white" stroke="#bfbfbf" points="0,-0.5 0,-18.5 119.931,-18.5 119.931,-0.5 0,-0.5"/>
<text text-anchor="middle" x="59.9653" y="-6.5" font-family="Helvetica,sans-Serif" font-size="10.00">vtkPolyDataAlgorithm.h</text>
</g>
<!-- Node0&#45;&gt;Node1 -->
<g id="edge1" class="edge"><title>Node0&#45;&gt;Node1</title>
<path fill="none" stroke="midnightblue" d="M188.032,-55.4504C162.644,-46.5395 121.513,-32.1029 92.7334,-22.0014"/>
<polygon fill="midnightblue" stroke="midnightblue" points="93.7096,-18.6347 83.1148,-18.6253 91.3913,-25.2397 93.7096,-18.6347"/>
</g>
<!-- Node2 -->
<g id="node3" class="node"><title>Node2</title>
<polygon fill="white" stroke="#bfbfbf" points="137.456,-0.5 137.456,-18.5 198.475,-18.5 198.475,-0.5 137.456,-0.5"/>
<text text-anchor="middle" x="167.965" y="-6.5" font-family="Helvetica,sans-Serif" font-size="10.00">vtkIdList.h</text>
</g>
<!-- Node0&#45;&gt;Node2 -->
<g id="edge2" class="edge"><title>Node0&#45;&gt;Node2</title>
<path fill="none" stroke="midnightblue" d="M204.247,-55.2188C198.026,-47.5509 188.604,-35.9387 180.921,-26.4691"/>
<polygon fill="midnightblue" stroke="midnightblue" points="183.515,-24.11 174.496,-18.5496 178.079,-28.5204 183.515,-24.11"/>
</g>
<!-- Node3 -->
<g id="node4" class="node"><title>Node3</title>
<polygon fill="white" stroke="#bfbfbf" points="216.216,-0.5 216.216,-18.5 293.715,-18.5 293.715,-0.5 216.216,-0.5"/>
<text text-anchor="middle" x="254.965" y="-6.5" font-family="Helvetica,sans-Serif" font-size="10.00">vtkCellArray.h</text>
</g>
<!-- Node0&#45;&gt;Node3 -->
<g id="edge3" class="edge"><title>Node0&#45;&gt;Node3</title>
<path fill="none" stroke="midnightblue" d="M217.84,-55.2188C224.206,-47.5509 233.846,-35.9387 241.708,-26.4691"/>
<polygon fill="midnightblue" stroke="midnightblue" points="244.588,-28.4793 248.283,-18.5496 239.202,-24.008 244.588,-28.4793"/>
</g>
<!-- Node4 -->
<g id="node5" class="node"><title>Node4</title>
<polygon fill="white" stroke="#bfbfbf" points="311.554,-0.5 311.554,-18.5 430.376,-18.5 430.376,-0.5 311.554,-0.5"/>
<text text-anchor="middle" x="370.965" y="-6.5" font-family="Helvetica,sans-Serif" font-size="10.00">vtkvmtkWin32Header.h</text>
</g>
<!-- Node0&#45;&gt;Node4 -->
<g id="edge4" class="edge"><title>Node0&#45;&gt;Node4</title>
<path fill="none" stroke="midnightblue" d="M235.266,-55.4504C262.363,-46.4745 306.385,-31.8922 336.909,-21.7813"/>
<polygon fill="midnightblue" stroke="midnightblue" points="338.307,-25.0053 346.699,-18.5383 336.105,-18.3604 338.307,-25.0053"/>
</g>
</g>
</svg>
