<?xml version="1.0" encoding="UTF-8" standalone="no"?>
<!DOCTYPE svg PUBLIC "-//W3C//DTD SVG 1.1//EN"
 "http://www.w3.org/Graphics/SVG/1.1/DTD/svg11.dtd">
<!-- Generated by graphviz version 2.38.0 (20140413.2041)
 -->
<!-- Title: vtkvmtkPolyDataNetworkExtraction.h Pages: 1 -->
<svg width="264pt" height="82pt"
 viewBox="0.00 0.00 264.38 82.00" xmlns="http://www.w3.org/2000/svg" xmlns:xlink="http://www.w3.org/1999/xlink">
<g id="graph0" class="graph" transform="scale(1 1) rotate(0) translate(4 78)">
<title>vtkvmtkPolyDataNetworkExtraction.h</title>
<polygon fill="white" stroke="none" points="-4,4 -4,-78 260.376,-78 260.376,4 -4,4"/>
<!-- Node0 -->
<g id="node1" class="node"><title>Node0</title>
<polygon fill="#bfbfbf" stroke="black" points="37.9951,-55.5 37.9951,-73.5 217.936,-73.5 217.936,-55.5 37.9951,-55.5"/>
<text text-anchor="middle" x="127.965" y="-61.5" font-family="Helvetica,sans-Serif" font-size="10.00">vtkvmtkPolyDataNetworkExtraction.h</text>
</g>
<!-- Node1 -->
<g id="node2" class="node"><title>Node1</title>
<polygon fill="white" stroke="#bfbfbf" points="0,-0.5 0,-18.5 119.931,-18.5 119.931,-0.5 0,-0.5"/>
<text text-anchor="middle" x="59.9653" y="-6.5" font-family="Helvetica,sans-Serif" font-size="10.00">vtkPolyDataAlgorithm.h</text>
</g>
<!-- Node0&#45;&gt;Node1 -->
<g id="edge1" class="edge"><title>Node0&#45;&gt;Node1</title>
<path fill="none" stroke="midnightblue" d="M117.638,-55.4504C107.253,-47.3566 91.0197,-34.7042 78.4179,-24.8822"/>
<polygon fill="midnightblue" stroke="midnightblue" points="80.4292,-22.0122 70.3903,-18.6253 76.1259,-27.5333 80.4292,-22.0122"/>
</g>
<!-- Node2 -->
<g id="node3" class="node"><title>Node2</title>
<polygon fill="white" stroke="#bfbfbf" points="137.554,-0.5 137.554,-18.5 256.376,-18.5 256.376,-0.5 137.554,-0.5"/>
<text text-anchor="middle" x="196.965" y="-6.5" font-family="Helvetica,sans-Serif" font-size="10.00">vtkvmtkWin32Header.h</text>
</g>
<!-- Node0&#45;&gt;Node2 -->
<g id="edge2" class="edge"><title>Node0&#45;&gt;Node2</title>
<path fill="none" stroke="midnightblue" d="M138.445,-55.4504C148.982,-47.3566 165.454,-34.7042 178.241,-24.8822"/>
<polygon fill="midnightblue" stroke="midnightblue" points="180.589,-27.4926 186.387,-18.6253 176.325,-21.9412 180.589,-27.4926"/>
</g>
</g>
</svg>
