<?xml version="1.0" encoding="UTF-8" standalone="no"?>
<!DOCTYPE svg PUBLIC "-//W3C//DTD SVG 1.1//EN"
 "http://www.w3.org/Graphics/SVG/1.1/DTD/svg11.dtd">
<!-- Generated by graphviz version 2.38.0 (20140413.2041)
 -->
<!-- Title: vtkvmtkCardinalSpline.h Pages: 1 -->
<svg width="246pt" height="82pt"
 viewBox="0.00 0.00 246.49 82.00" xmlns="http://www.w3.org/2000/svg" xmlns:xlink="http://www.w3.org/1999/xlink">
<g id="graph0" class="graph" transform="scale(1 1) rotate(0) translate(4 78)">
<title>vtkvmtkCardinalSpline.h</title>
<polygon fill="white" stroke="none" points="-4,4 -4,-78 242.49,-78 242.49,4 -4,4"/>
<!-- Node0 -->
<g id="node1" class="node"><title>Node0</title>
<polygon fill="#bfbfbf" stroke="black" points="53.4458,-55.5 53.4458,-73.5 176.711,-73.5 176.711,-55.5 53.4458,-55.5"/>
<text text-anchor="middle" x="115.079" y="-61.5" font-family="Helvetica,sans-Serif" font-size="10.00">vtkvmtkCardinalSpline.h</text>
</g>
<!-- Node1 -->
<g id="node2" class="node"><title>Node1</title>
<polygon fill="white" stroke="#bfbfbf" points="0,-0.5 0,-18.5 102.157,-18.5 102.157,-0.5 0,-0.5"/>
<text text-anchor="middle" x="51.0786" y="-6.5" font-family="Helvetica,sans-Serif" font-size="10.00">vtkCardinalSpline.h</text>
</g>
<!-- Node0&#45;&gt;Node1 -->
<g id="edge1" class="edge"><title>Node0&#45;&gt;Node1</title>
<path fill="none" stroke="midnightblue" d="M105.358,-55.4504C95.6787,-47.4345 80.5996,-34.9471 68.7888,-25.1663"/>
<polygon fill="midnightblue" stroke="midnightblue" points="70.8246,-22.3078 60.8903,-18.6253 66.3599,-27.6992 70.8246,-22.3078"/>
</g>
<!-- Node2 -->
<g id="node3" class="node"><title>Node2</title>
<polygon fill="white" stroke="#bfbfbf" points="119.667,-0.5 119.667,-18.5 238.49,-18.5 238.49,-0.5 119.667,-0.5"/>
<text text-anchor="middle" x="179.079" y="-6.5" font-family="Helvetica,sans-Serif" font-size="10.00">vtkvmtkWin32Header.h</text>
</g>
<!-- Node0&#45;&gt;Node2 -->
<g id="edge2" class="edge"><title>Node0&#45;&gt;Node2</title>
<path fill="none" stroke="midnightblue" d="M124.799,-55.4504C134.479,-47.4345 149.558,-34.9471 161.368,-25.1663"/>
<polygon fill="midnightblue" stroke="midnightblue" points="163.797,-27.6992 169.267,-18.6253 159.333,-22.3078 163.797,-27.6992"/>
</g>
</g>
</svg>
