<?xml version="1.0" encoding="UTF-8" standalone="no"?>
<!DOCTYPE svg PUBLIC "-//W3C//DTD SVG 1.1//EN"
 "http://www.w3.org/Graphics/SVG/1.1/DTD/svg11.dtd">
<!-- Generated by graphviz version 2.38.0 (20140413.2041)
 -->
<!-- Title: vtkvmtkStencil.h Pages: 1 -->
<svg width="322pt" height="247pt"
 viewBox="0.00 0.00 322.42 247.00" xmlns="http://www.w3.org/2000/svg" xmlns:xlink="http://www.w3.org/1999/xlink">
<g id="graph0" class="graph" transform="scale(1 1) rotate(0) translate(4 243)">
<title>vtkvmtkStencil.h</title>
<polygon fill="white" stroke="none" points="-4,4 -4,-243 318.421,-243 318.421,4 -4,4"/>
<!-- Node0 -->
<g id="node1" class="node"><title>Node0</title>
<polygon fill="#bfbfbf" stroke="black" points="95.8892,-220.5 95.8892,-238.5 184.13,-238.5 184.13,-220.5 95.8892,-220.5"/>
<text text-anchor="middle" x="140.01" y="-226.5" font-family="Helvetica,sans-Serif" font-size="10.00">vtkvmtkStencil.h</text>
</g>
<!-- Node1 -->
<g id="node2" class="node"><title>Node1</title>
<polygon fill="white" stroke="#bfbfbf" points="0,-0.5 0,-18.5 66.0195,-18.5 66.0195,-0.5 0,-0.5"/>
<text text-anchor="middle" x="33.0098" y="-6.5" font-family="Helvetica,sans-Serif" font-size="10.00">vtkObject.h</text>
</g>
<!-- Node0&#45;&gt;Node1 -->
<g id="edge1" class="edge"><title>Node0&#45;&gt;Node1</title>
<path fill="none" stroke="midnightblue" d="M119.656,-220.376C103.911,-213.091 82.7163,-200.931 70.0098,-184 34.6202,-136.845 31.4683,-63.1973 32.1297,-29.0456"/>
<polygon fill="midnightblue" stroke="midnightblue" points="35.6387,-28.8327 32.4761,-18.721 28.6426,-28.5979 35.6387,-28.8327"/>
</g>
<!-- Node2 -->
<g id="node3" class="node"><title>Node2</title>
<g id="a_node3"><a xlink:href="vtkvmtkNeighborhood_8h.html" target="_top" xlink:title="vtkvmtkNeighborhood.h">
<polygon fill="white" stroke="black" points="79.4829,-165.5 79.4829,-183.5 200.537,-183.5 200.537,-165.5 79.4829,-165.5"/>
<text text-anchor="middle" x="140.01" y="-171.5" font-family="Helvetica,sans-Serif" font-size="10.00">vtkvmtkNeighborhood.h</text>
</a>
</g>
</g>
<!-- Node0&#45;&gt;Node2 -->
<g id="edge2" class="edge"><title>Node0&#45;&gt;Node2</title>
<path fill="none" stroke="midnightblue" d="M140.01,-220.219C140.01,-213.177 140.01,-202.808 140.01,-193.828"/>
<polygon fill="midnightblue" stroke="midnightblue" points="143.51,-193.55 140.01,-183.55 136.51,-193.55 143.51,-193.55"/>
</g>
<!-- Node6 -->
<g id="node7" class="node"><title>Node6</title>
<polygon fill="white" stroke="#bfbfbf" points="195.599,-0.5 195.599,-18.5 314.421,-18.5 314.421,-0.5 195.599,-0.5"/>
<text text-anchor="middle" x="255.01" y="-6.5" font-family="Helvetica,sans-Serif" font-size="10.00">vtkvmtkWin32Header.h</text>
</g>
<!-- Node0&#45;&gt;Node6 -->
<g id="edge13" class="edge"><title>Node0&#45;&gt;Node6</title>
<path fill="none" stroke="midnightblue" d="M158.882,-220.398C174.396,-212.911 196.025,-200.463 210.01,-184 244.428,-143.48 246.349,-126.085 257.01,-74 260.058,-59.1083 259.245,-41.8477 257.844,-29.0842"/>
<polygon fill="midnightblue" stroke="midnightblue" points="261.268,-28.2785 256.487,-18.824 254.328,-29.1967 261.268,-28.2785"/>
</g>
<!-- Node2&#45;&gt;Node1 -->
<g id="edge3" class="edge"><title>Node2&#45;&gt;Node1</title>
<path fill="none" stroke="midnightblue" d="M121.931,-165.383C107.131,-157.888 86.6427,-145.435 74.0098,-129 50.5311,-98.4548 39.9203,-53.5108 35.6066,-28.6732"/>
<polygon fill="midnightblue" stroke="midnightblue" points="39.0209,-27.8546 34.0049,-18.5224 32.1064,-28.9458 39.0209,-27.8546"/>
</g>
<!-- Node3 -->
<g id="node4" class="node"><title>Node3</title>
<g id="a_node4"><a xlink:href="vtkvmtkDataSetItem_8h.html" target="_top" xlink:title="vtkvmtkDataSetItem.h">
<polygon fill="white" stroke="black" points="83.106,-110.5 83.106,-128.5 196.914,-128.5 196.914,-110.5 83.106,-110.5"/>
<text text-anchor="middle" x="140.01" y="-116.5" font-family="Helvetica,sans-Serif" font-size="10.00">vtkvmtkDataSetItem.h</text>
</a>
</g>
</g>
<!-- Node2&#45;&gt;Node3 -->
<g id="edge4" class="edge"><title>Node2&#45;&gt;Node3</title>
<path fill="none" stroke="midnightblue" d="M140.01,-165.219C140.01,-158.177 140.01,-147.808 140.01,-138.828"/>
<polygon fill="midnightblue" stroke="midnightblue" points="143.51,-138.55 140.01,-128.55 136.51,-138.55 143.51,-138.55"/>
</g>
<!-- Node2&#45;&gt;Node6 -->
<g id="edge12" class="edge"><title>Node2&#45;&gt;Node6</title>
<path fill="none" stroke="midnightblue" d="M155.84,-165.443C170.183,-157.576 191.269,-144.541 206.01,-129 225.628,-108.317 228.076,-100.327 239.01,-74 245.148,-59.2204 249.373,-41.495 251.934,-28.5321"/>
<polygon fill="midnightblue" stroke="midnightblue" points="255.401,-29.0273 253.761,-18.5601 248.516,-27.7653 255.401,-29.0273"/>
</g>
<!-- Node3&#45;&gt;Node1 -->
<g id="edge5" class="edge"><title>Node3&#45;&gt;Node1</title>
<path fill="none" stroke="midnightblue" d="M131.967,-110.382C114.229,-92.4786 71.4967,-49.3466 48.4165,-26.0507"/>
<polygon fill="midnightblue" stroke="midnightblue" points="50.67,-23.3523 41.1455,-18.7118 45.6972,-28.279 50.67,-23.3523"/>
</g>
<!-- Node4 -->
<g id="node5" class="node"><title>Node4</title>
<g id="a_node5"><a xlink:href="vtkvmtkItem_8h.html" target="_top" xlink:title="vtkvmtkItem.h">
<polygon fill="white" stroke="black" points="130.172,-55.5 130.172,-73.5 207.847,-73.5 207.847,-55.5 130.172,-55.5"/>
<text text-anchor="middle" x="169.01" y="-61.5" font-family="Helvetica,sans-Serif" font-size="10.00">vtkvmtkItem.h</text>
</a>
</g>
</g>
<!-- Node3&#45;&gt;Node4 -->
<g id="edge6" class="edge"><title>Node3&#45;&gt;Node4</title>
<path fill="none" stroke="midnightblue" d="M144.541,-110.219C148.608,-102.786 154.703,-91.646 159.793,-82.3446"/>
<polygon fill="midnightblue" stroke="midnightblue" points="162.876,-84.0023 164.605,-73.5496 156.735,-80.6421 162.876,-84.0023"/>
</g>
<!-- Node5 -->
<g id="node6" class="node"><title>Node5</title>
<polygon fill="white" stroke="#bfbfbf" points="97.3843,-0.5 97.3843,-18.5 170.635,-18.5 170.635,-0.5 97.3843,-0.5"/>
<text text-anchor="middle" x="134.01" y="-6.5" font-family="Helvetica,sans-Serif" font-size="10.00">vtkDataSet.h</text>
</g>
<!-- Node3&#45;&gt;Node5 -->
<g id="edge10" class="edge"><title>Node3&#45;&gt;Node5</title>
<path fill="none" stroke="midnightblue" d="M135.309,-110.3C130.621,-101.611 123.737,-87.3326 121.01,-74 117.839,-58.4965 122.074,-40.8647 126.536,-28.1209"/>
<polygon fill="midnightblue" stroke="midnightblue" points="129.829,-29.3088 130.18,-18.7198 123.302,-26.7791 129.829,-29.3088"/>
</g>
<!-- Node3&#45;&gt;Node6 -->
<g id="edge11" class="edge"><title>Node3&#45;&gt;Node6</title>
<path fill="none" stroke="midnightblue" d="M159.861,-110.439C176.594,-102.902 200.399,-90.3596 217.01,-74 230.431,-60.7816 240.944,-41.874 247.477,-28.1305"/>
<polygon fill="midnightblue" stroke="midnightblue" points="250.761,-29.362 251.68,-18.8071 244.38,-26.4854 250.761,-29.362"/>
</g>
<!-- Node4&#45;&gt;Node1 -->
<g id="edge7" class="edge"><title>Node4&#45;&gt;Node1</title>
<path fill="none" stroke="midnightblue" d="M148.354,-55.4504C125.688,-46.6173 89.0895,-32.3546 63.2044,-22.267"/>
<polygon fill="midnightblue" stroke="midnightblue" points="64.448,-18.9953 53.8596,-18.6253 61.9062,-25.5176 64.448,-18.9953"/>
</g>
<!-- Node4&#45;&gt;Node5 -->
<g id="edge8" class="edge"><title>Node4&#45;&gt;Node5</title>
<path fill="none" stroke="midnightblue" d="M163.541,-55.2188C158.581,-47.7074 151.121,-36.411 144.94,-27.0515"/>
<polygon fill="midnightblue" stroke="midnightblue" points="147.757,-24.9655 139.326,-18.5496 141.916,-28.823 147.757,-24.9655"/>
</g>
<!-- Node4&#45;&gt;Node6 -->
<g id="edge9" class="edge"><title>Node4&#45;&gt;Node6</title>
<path fill="none" stroke="midnightblue" d="M182.071,-55.4504C195.584,-47.1232 216.926,-33.9704 233.04,-24.0394"/>
<polygon fill="midnightblue" stroke="midnightblue" points="235.148,-26.8515 241.825,-18.6253 231.476,-20.8922 235.148,-26.8515"/>
</g>
</g>
</svg>
