<?xml version="1.0" encoding="UTF-8" standalone="no"?>
<!DOCTYPE svg PUBLIC "-//W3C//DTD SVG 1.1//EN"
 "http://www.w3.org/Graphics/SVG/1.1/DTD/svg11.dtd">
<!-- Generated by graphviz version 2.38.0 (20140413.2041)
 -->
<!-- Title: vtkvmtkMath.h Pages: 1 -->
<svg width="409pt" height="82pt"
 viewBox="0.00 0.00 409.42 82.00" xmlns="http://www.w3.org/2000/svg" xmlns:xlink="http://www.w3.org/1999/xlink">
<g id="graph0" class="graph" transform="scale(1 1) rotate(0) translate(4 78)">
<title>vtkvmtkMath.h</title>
<polygon fill="white" stroke="none" points="-4,4 -4,-78 405.421,-78 405.421,4 -4,4"/>
<!-- Node0 -->
<g id="node1" class="node"><title>Node0</title>
<polygon fill="#bfbfbf" stroke="black" points="122.781,-55.5 122.781,-73.5 203.239,-73.5 203.239,-55.5 122.781,-55.5"/>
<text text-anchor="middle" x="163.01" y="-61.5" font-family="Helvetica,sans-Serif" font-size="10.00">vtkvmtkMath.h</text>
</g>
<!-- Node1 -->
<g id="node2" class="node"><title>Node1</title>
<polygon fill="white" stroke="#bfbfbf" points="0,-0.5 0,-18.5 66.0195,-18.5 66.0195,-0.5 0,-0.5"/>
<text text-anchor="middle" x="33.0098" y="-6.5" font-family="Helvetica,sans-Serif" font-size="10.00">vtkObject.h</text>
</g>
<!-- Node0&#45;&gt;Node1 -->
<g id="edge1" class="edge"><title>Node0&#45;&gt;Node1</title>
<path fill="none" stroke="midnightblue" d="M143.266,-55.4504C121.695,-46.6562 86.9234,-32.4802 62.1999,-22.4006"/>
<polygon fill="midnightblue" stroke="midnightblue" points="63.5211,-19.1596 52.9398,-18.6253 60.8784,-25.6416 63.5211,-19.1596"/>
</g>
<!-- Node2 -->
<g id="node3" class="node"><title>Node2</title>
<polygon fill="white" stroke="#bfbfbf" points="84.335,-0.5 84.335,-18.5 143.685,-18.5 143.685,-0.5 84.335,-0.5"/>
<text text-anchor="middle" x="114.01" y="-6.5" font-family="Helvetica,sans-Serif" font-size="10.00">vtkMath.h</text>
</g>
<!-- Node0&#45;&gt;Node2 -->
<g id="edge2" class="edge"><title>Node0&#45;&gt;Node2</title>
<path fill="none" stroke="midnightblue" d="M155.354,-55.2188C148.192,-47.4727 137.309,-35.7013 128.506,-26.1799"/>
<polygon fill="midnightblue" stroke="midnightblue" points="130.81,-23.5163 121.452,-18.5496 125.67,-28.2683 130.81,-23.5163"/>
</g>
<!-- Node3 -->
<g id="node4" class="node"><title>Node3</title>
<g id="a_node4"><a xlink:href="vtkvmtkConstants_8h.html" target="_top" xlink:title="vtkvmtkConstants.h">
<polygon fill="white" stroke="black" points="161.384,-0.5 161.384,-18.5 264.635,-18.5 264.635,-0.5 161.384,-0.5"/>
<text text-anchor="middle" x="213.01" y="-6.5" font-family="Helvetica,sans-Serif" font-size="10.00">vtkvmtkConstants.h</text>
</a>
</g>
</g>
<!-- Node0&#45;&gt;Node3 -->
<g id="edge3" class="edge"><title>Node0&#45;&gt;Node3</title>
<path fill="none" stroke="midnightblue" d="M170.822,-55.2188C178.204,-47.3944 189.46,-35.4631 198.489,-25.8921"/>
<polygon fill="midnightblue" stroke="midnightblue" points="201.099,-28.2253 205.416,-18.5496 196.008,-23.4217 201.099,-28.2253"/>
</g>
<!-- Node4 -->
<g id="node5" class="node"><title>Node4</title>
<polygon fill="white" stroke="#bfbfbf" points="282.599,-0.5 282.599,-18.5 401.421,-18.5 401.421,-0.5 282.599,-0.5"/>
<text text-anchor="middle" x="342.01" y="-6.5" font-family="Helvetica,sans-Serif" font-size="10.00">vtkvmtkWin32Header.h</text>
</g>
<!-- Node0&#45;&gt;Node4 -->
<g id="edge4" class="edge"><title>Node0&#45;&gt;Node4</title>
<path fill="none" stroke="midnightblue" d="M190.196,-55.4504C220.906,-46.3575 271.049,-31.5108 305.237,-21.3879"/>
<polygon fill="midnightblue" stroke="midnightblue" points="306.267,-24.7334 314.862,-18.5383 304.279,-18.0215 306.267,-24.7334"/>
</g>
</g>
</svg>
