<?xml version="1.0" encoding="UTF-8" standalone="no"?>
<!DOCTYPE svg PUBLIC "-//W3C//DTD SVG 1.1//EN"
 "http://www.w3.org/Graphics/SVG/1.1/DTD/svg11.dtd">
<!-- Generated by graphviz version 2.38.0 (20140413.2041)
 -->
<!-- Title: vtkvmtkTopologicalSeamFilter.h Pages: 1 -->
<svg width="389pt" height="82pt"
 viewBox="0.00 0.00 389.38 82.00" xmlns="http://www.w3.org/2000/svg" xmlns:xlink="http://www.w3.org/1999/xlink">
<g id="graph0" class="graph" transform="scale(1 1) rotate(0) translate(4 78)">
<title>vtkvmtkTopologicalSeamFilter.h</title>
<polygon fill="white" stroke="none" points="-4,4 -4,-78 385.376,-78 385.376,4 -4,4"/>
<!-- Node0 -->
<g id="node1" class="node"><title>Node0</title>
<polygon fill="#bfbfbf" stroke="black" points="112.936,-55.5 112.936,-73.5 268.995,-73.5 268.995,-55.5 112.936,-55.5"/>
<text text-anchor="middle" x="190.965" y="-61.5" font-family="Helvetica,sans-Serif" font-size="10.00">vtkvmtkTopologicalSeamFilter.h</text>
</g>
<!-- Node1 -->
<g id="node2" class="node"><title>Node1</title>
<polygon fill="white" stroke="#bfbfbf" points="0,-0.5 0,-18.5 119.931,-18.5 119.931,-0.5 0,-0.5"/>
<text text-anchor="middle" x="59.9653" y="-6.5" font-family="Helvetica,sans-Serif" font-size="10.00">vtkPolyDataAlgorithm.h</text>
</g>
<!-- Node0&#45;&gt;Node1 -->
<g id="edge1" class="edge"><title>Node0&#45;&gt;Node1</title>
<path fill="none" stroke="midnightblue" d="M171.069,-55.4504C149.333,-46.6562 114.294,-32.4802 89.38,-22.4006"/>
<polygon fill="midnightblue" stroke="midnightblue" points="90.6314,-19.1313 80.0487,-18.6253 88.006,-25.6204 90.6314,-19.1313"/>
</g>
<!-- Node2 -->
<g id="node3" class="node"><title>Node2</title>
<polygon fill="white" stroke="#bfbfbf" points="137.672,-0.5 137.672,-18.5 244.258,-18.5 244.258,-0.5 137.672,-0.5"/>
<text text-anchor="middle" x="190.965" y="-6.5" font-family="Helvetica,sans-Serif" font-size="10.00">vtkImplicitFunction.h</text>
</g>
<!-- Node0&#45;&gt;Node2 -->
<g id="edge2" class="edge"><title>Node0&#45;&gt;Node2</title>
<path fill="none" stroke="midnightblue" d="M190.965,-55.2188C190.965,-48.1769 190.965,-37.8083 190.965,-28.8277"/>
<polygon fill="midnightblue" stroke="midnightblue" points="194.465,-28.5495 190.965,-18.5496 187.465,-28.5496 194.465,-28.5495"/>
</g>
<!-- Node3 -->
<g id="node4" class="node"><title>Node3</title>
<polygon fill="white" stroke="#bfbfbf" points="262.554,-0.5 262.554,-18.5 381.376,-18.5 381.376,-0.5 262.554,-0.5"/>
<text text-anchor="middle" x="321.965" y="-6.5" font-family="Helvetica,sans-Serif" font-size="10.00">vtkvmtkWin32Header.h</text>
</g>
<!-- Node0&#45;&gt;Node3 -->
<g id="edge3" class="edge"><title>Node0&#45;&gt;Node3</title>
<path fill="none" stroke="midnightblue" d="M210.861,-55.4504C232.598,-46.6562 267.637,-32.4802 292.551,-22.4006"/>
<polygon fill="midnightblue" stroke="midnightblue" points="293.925,-25.6204 301.882,-18.6253 291.299,-19.1313 293.925,-25.6204"/>
</g>
</g>
</svg>
