<?xml version="1.0" encoding="UTF-8" standalone="no"?>
<!DOCTYPE svg PUBLIC "-//W3C//DTD SVG 1.1//EN"
 "http://www.w3.org/Graphics/SVG/1.1/DTD/svg11.dtd">
<!-- Generated by graphviz version 2.38.0 (20140413.2041)
 -->
<!-- Title: vtkvmtkNonManifoldSteepestDescent.h Pages: 1 -->
<svg width="340pt" height="102pt"
 viewBox="0.00 0.00 339.91 102.00" xmlns="http://www.w3.org/2000/svg" xmlns:xlink="http://www.w3.org/1999/xlink">
<g id="graph0" class="graph" transform="scale(1 1) rotate(0) translate(4 98)">
<title>vtkvmtkNonManifoldSteepestDescent.h</title>
<polygon fill="white" stroke="none" points="-4,4 -4,-98 335.906,-98 335.906,4 -4,4"/>
<!-- Node4 -->
<g id="node1" class="node"><title>Node4</title>
<polygon fill="#bfbfbf" stroke="black" points="86.7241,-65.5 86.7241,-93.5 232.226,-93.5 232.226,-65.5 86.7241,-65.5"/>
<text text-anchor="start" x="94.7241" y="-81.5" font-family="Helvetica,sans-Serif" font-size="10.00">vtkvmtkNonManifoldSteepest</text>
<text text-anchor="middle" x="159.475" y="-71.5" font-family="Helvetica,sans-Serif" font-size="10.00">Descent.h</text>
</g>
<!-- Node5 -->
<g id="node2" class="node"><title>Node5</title>
<g id="a_node2"><a xlink:href="vtkvmtkSteepestDescentLineTracer_8h.html" target="_top" xlink:title="vtkvmtkSteepestDescentLine\lTracer.h">
<polygon fill="white" stroke="black" points="0,-0.5 0,-28.5 144.95,-28.5 144.95,-0.5 0,-0.5"/>
<text text-anchor="start" x="8" y="-16.5" font-family="Helvetica,sans-Serif" font-size="10.00">vtkvmtkSteepestDescentLine</text>
<text text-anchor="middle" x="72.4751" y="-6.5" font-family="Helvetica,sans-Serif" font-size="10.00">Tracer.h</text>
</a>
</g>
</g>
<!-- Node4&#45;&gt;Node5 -->
<g id="edge1" class="edge"><title>Node4&#45;&gt;Node5</title>
<path fill="none" stroke="midnightblue" d="M133.265,-59.52C119.442,-49.5107 102.838,-37.4871 90.4785,-28.5369"/>
<polygon fill="midnightblue" stroke="midnightblue" points="131.296,-62.416 141.449,-65.4464 135.402,-56.7464 131.296,-62.416"/>
</g>
<!-- Node6 -->
<g id="node3" class="node"><title>Node6</title>
<g id="a_node3"><a xlink:href="vtkvmtkSteepestDescentShooter_8h.html" target="_top" xlink:title="vtkvmtkSteepestDescentShooter.h">
<polygon fill="white" stroke="black" points="163.044,-5.5 163.044,-23.5 331.906,-23.5 331.906,-5.5 163.044,-5.5"/>
<text text-anchor="middle" x="247.475" y="-11.5" font-family="Helvetica,sans-Serif" font-size="10.00">vtkvmtkSteepestDescentShooter.h</text>
</a>
</g>
</g>
<!-- Node4&#45;&gt;Node6 -->
<g id="edge2" class="edge"><title>Node4&#45;&gt;Node6</title>
<path fill="none" stroke="midnightblue" d="M186.053,-59.4727C202.837,-47.4572 223.654,-32.554 236.233,-23.548"/>
<polygon fill="midnightblue" stroke="midnightblue" points="183.802,-56.7793 177.709,-65.4464 187.877,-62.4711 183.802,-56.7793"/>
</g>
</g>
</svg>
