<?xml version="1.0" encoding="UTF-8" standalone="no"?>
<!DOCTYPE svg PUBLIC "-//W3C//DTD SVG 1.1//EN"
 "http://www.w3.org/Graphics/SVG/1.1/DTD/svg11.dtd">
<!-- Generated by graphviz version 2.38.0 (20140413.2041)
 -->
<!-- Title: vtkvmtkCurvedMPRImageFilter.h Pages: 1 -->
<!--zoomable 92 -->
<svg id="main" version="1.1" xmlns="http://www.w3.org/2000/svg" xmlns:xlink="http://www.w3.org/1999/xlink" xml:space="preserve" onload="init(evt)">
<style type="text/css"><![CDATA[
.edge:hover path { stroke: red; }
.edge:hover polygon { stroke: red; fill: red; }
]]></style>
<script type="text/javascript"><![CDATA[
var edges = document.getElementsByTagName('g');
if (edges && edges.length) {
  for (var i=0;i<edges.length;i++) {
    if (edges[i].id.substr(0,4)=='edge') {
      edges[i].setAttribute('class','edge');
    }
  }
}
]]></script>
        <defs>
                <circle id="rim" cx="0" cy="0" r="7"/>
                <circle id="rim2" cx="0" cy="0" r="3.5"/>
                <g id="zoomPlus">
                        <use xlink:href="#rim" fill="#404040">
                                <set attributeName="fill" to="#808080" begin="zoomplus.mouseover" end="zoomplus.mouseout"/>
                        </use>
                        <path d="M-4,0h8M0,-4v8" fill="none" stroke="white" stroke-width="1.5" pointer-events="none"/>
                </g>
                <g id="zoomMin">
                        <use xlink:href="#rim" fill="#404040">
                                <set attributeName="fill" to="#808080" begin="zoomminus.mouseover" end="zoomminus.mouseout"/>
                        </use>
                        <path d="M-4,0h8" fill="none" stroke="white" stroke-width="1.5" pointer-events="none"/>
                </g>
                <g id="dirArrow">
                        <path fill="none" stroke="white" stroke-width="1.5" d="M0,-3.0v7 M-2.5,-0.5L0,-3.0L2.5,-0.5"/>
                </g>
               <g id="resetDef">
                       <use xlink:href="#rim2" fill="#404040">
                               <set attributeName="fill" to="#808080" begin="reset.mouseover" end="reset.mouseout"/>
                       </use>
               </g>
        </defs>

<script type="text/javascript">
var viewWidth = 1481;
var viewHeight = 92;
var sectionId = 'dynsection-0';
</script>
<script xlink:href="svgpan.js"/>
<svg id="graph" class="graph">
<g id="viewport">
<title>vtkvmtkCurvedMPRImageFilter.h</title>
<polygon fill="white" stroke="none" points="-4,4 -4,-88 1477.25,-88 1477.25,4 -4,4"/>
<!-- Node0 -->
<g id="node1" class="node"><title>Node0</title>
<polygon fill="#bfbfbf" stroke="black" points="761.498,-65.5 761.498,-83.5 923.65,-83.5 923.65,-65.5 761.498,-65.5"/>
<text text-anchor="middle" x="842.574" y="-71.5" font-family="Helvetica,sans-Serif" font-size="10.00">vtkvmtkCurvedMPRImageFilter.h</text>
</g>
<!-- Node1 -->
<g id="node2" class="node"><title>Node1</title>
<polygon fill="white" stroke="#bfbfbf" points="0,-5.5 0,-23.5 107.147,-23.5 107.147,-5.5 0,-5.5"/>
<text text-anchor="middle" x="53.5737" y="-11.5" font-family="Helvetica,sans-Serif" font-size="10.00">vtkImageAlgorithm.h</text>
</g>
<!-- Node0&#45;&gt;Node1 -->
<g id="edge1" class="edge"><title>Node0&#45;&gt;Node1</title>
<path fill="none" stroke="midnightblue" d="M761.339,-72.4839C626.711,-69.9141 349.121,-60.8598 116.574,-29 110.101,-28.1132 103.302,-26.9284 96.6637,-25.6276"/>
<polygon fill="midnightblue" stroke="midnightblue" points="96.9341,-22.1096 86.4328,-23.5144 95.518,-28.9649 96.9341,-22.1096"/>
</g>
<!-- Node2 -->
<g id="node3" class="node"><title>Node2</title>
<polygon fill="white" stroke="#bfbfbf" points="125.163,-5.5 125.163,-23.5 243.985,-23.5 243.985,-5.5 125.163,-5.5"/>
<text text-anchor="middle" x="184.574" y="-11.5" font-family="Helvetica,sans-Serif" font-size="10.00">vtkvmtkWin32Header.h</text>
</g>
<!-- Node0&#45;&gt;Node2 -->
<g id="edge2" class="edge"><title>Node0&#45;&gt;Node2</title>
<path fill="none" stroke="midnightblue" d="M761.127,-70.4679C647.008,-65.5131 433.23,-53.654 252.574,-29 245.522,-28.0376 238.1,-26.7996 230.854,-25.4645"/>
<polygon fill="midnightblue" stroke="midnightblue" points="231.267,-21.9799 220.786,-23.5311 229.947,-28.8543 231.267,-21.9799"/>
</g>
<!-- Node3 -->
<g id="node4" class="node"><title>Node3</title>
<polygon fill="white" stroke="#bfbfbf" points="261.557,-5.5 261.557,-23.5 347.591,-23.5 347.591,-5.5 261.557,-5.5"/>
<text text-anchor="middle" x="304.574" y="-11.5" font-family="Helvetica,sans-Serif" font-size="10.00">vtkImageData.h</text>
</g>
<!-- Node0&#45;&gt;Node3 -->
<g id="edge3" class="edge"><title>Node0&#45;&gt;Node3</title>
<path fill="none" stroke="midnightblue" d="M761.21,-70.0984C664.253,-65.1139 497.635,-53.6004 356.574,-29 351.827,-28.1723 346.879,-27.1289 342.004,-25.9906"/>
<polygon fill="midnightblue" stroke="midnightblue" points="342.735,-22.5661 332.187,-23.5596 341.053,-29.3609 342.735,-22.5661"/>
</g>
<!-- Node4 -->
<g id="node5" class="node"><title>Node4</title>
<polygon fill="white" stroke="#bfbfbf" points="365.591,-5.5 365.591,-23.5 515.556,-23.5 515.556,-5.5 365.591,-5.5"/>
<text text-anchor="middle" x="440.574" y="-11.5" font-family="Helvetica,sans-Serif" font-size="10.00">vtkImageChangeInformation.h</text>
</g>
<!-- Node0&#45;&gt;Node4 -->
<g id="edge4" class="edge"><title>Node0&#45;&gt;Node4</title>
<path fill="none" stroke="midnightblue" d="M782.739,-65.496C718.781,-56.854 614.431,-42.5064 524.574,-29 516.474,-27.7825 507.942,-26.4591 499.545,-25.1327"/>
<polygon fill="midnightblue" stroke="midnightblue" points="499.833,-21.6346 489.407,-23.5202 498.733,-28.5477 499.833,-21.6346"/>
</g>
<!-- Node5 -->
<g id="node6" class="node"><title>Node5</title>
<polygon fill="white" stroke="#bfbfbf" points="534.002,-5.5 534.002,-23.5 621.145,-23.5 621.145,-5.5 534.002,-5.5"/>
<text text-anchor="middle" x="577.574" y="-11.5" font-family="Helvetica,sans-Serif" font-size="10.00">vtkInformation.h</text>
</g>
<!-- Node0&#45;&gt;Node5 -->
<g id="edge5" class="edge"><title>Node0&#45;&gt;Node5</title>
<path fill="none" stroke="midnightblue" d="M801.819,-65.4805C759.051,-56.9398 689.919,-42.7801 630.574,-29 626.464,-28.0456 622.183,-27.0158 617.916,-25.9655"/>
<polygon fill="midnightblue" stroke="midnightblue" points="618.619,-22.5335 608.068,-23.5034 616.921,-29.3245 618.619,-22.5335"/>
</g>
<!-- Node6 -->
<g id="node7" class="node"><title>Node6</title>
<polygon fill="white" stroke="#bfbfbf" points="639.099,-5.5 639.099,-23.5 754.049,-23.5 754.049,-5.5 639.099,-5.5"/>
<text text-anchor="middle" x="696.574" y="-11.5" font-family="Helvetica,sans-Serif" font-size="10.00">vtkInformationVector.h</text>
</g>
<!-- Node0&#45;&gt;Node6 -->
<g id="edge6" class="edge"><title>Node0&#45;&gt;Node6</title>
<path fill="none" stroke="midnightblue" d="M822.273,-65.4353C797.461,-55.5787 755.258,-38.813 726.667,-27.4549"/>
<polygon fill="midnightblue" stroke="midnightblue" points="727.758,-24.1224 717.173,-23.6831 725.174,-30.6279 727.758,-24.1224"/>
</g>
<!-- Node7 -->
<g id="node8" class="node"><title>Node7</title>
<polygon fill="white" stroke="#bfbfbf" points="772.049,-0.5 772.049,-28.5 913.098,-28.5 913.098,-0.5 772.049,-0.5"/>
<text text-anchor="start" x="780.049" y="-16.5" font-family="Helvetica,sans-Serif" font-size="10.00">vtkStreamingDemandDriven</text>
<text text-anchor="middle" x="842.574" y="-6.5" font-family="Helvetica,sans-Serif" font-size="10.00">Pipeline.h</text>
</g>
<!-- Node0&#45;&gt;Node7 -->
<g id="edge7" class="edge"><title>Node0&#45;&gt;Node7</title>
<path fill="none" stroke="midnightblue" d="M842.574,-65.4353C842.574,-58.5603 842.574,-48.3238 842.574,-38.9057"/>
<polygon fill="midnightblue" stroke="midnightblue" points="846.074,-38.8427 842.574,-28.8428 839.074,-38.8428 846.074,-38.8427"/>
</g>
<!-- Node8 -->
<g id="node9" class="node"><title>Node8</title>
<polygon fill="white" stroke="#bfbfbf" points="931.417,-5.5 931.417,-23.5 1013.73,-23.5 1013.73,-5.5 931.417,-5.5"/>
<text text-anchor="middle" x="972.574" y="-11.5" font-family="Helvetica,sans-Serif" font-size="10.00">vtkTransform.h</text>
</g>
<!-- Node0&#45;&gt;Node8 -->
<g id="edge8" class="edge"><title>Node0&#45;&gt;Node8</title>
<path fill="none" stroke="midnightblue" d="M860.65,-65.4353C882.453,-55.7078 919.339,-39.2511 944.772,-27.9041"/>
<polygon fill="midnightblue" stroke="midnightblue" points="946.526,-30.9539 954.232,-23.6831 943.674,-24.5613 946.526,-30.9539"/>
</g>
<!-- Node9 -->
<g id="node10" class="node"><title>Node9</title>
<polygon fill="white" stroke="#bfbfbf" points="1031.72,-5.5 1031.72,-23.5 1129.42,-23.5 1129.42,-5.5 1031.72,-5.5"/>
<text text-anchor="middle" x="1080.57" y="-11.5" font-family="Helvetica,sans-Serif" font-size="10.00">vtkImageReslice.h</text>
</g>
<!-- Node0&#45;&gt;Node9 -->
<g id="edge9" class="edge"><title>Node0&#45;&gt;Node9</title>
<path fill="none" stroke="midnightblue" d="M875.667,-65.4353C917.91,-55.1408 991.079,-37.3097 1037.59,-25.9742"/>
<polygon fill="midnightblue" stroke="midnightblue" points="1038.49,-29.3577 1047.38,-23.5894 1036.83,-22.5567 1038.49,-29.3577"/>
</g>
<!-- Node10 -->
<g id="node11" class="node"><title>Node10</title>
<polygon fill="white" stroke="#bfbfbf" points="1147.06,-5.5 1147.06,-23.5 1228.09,-23.5 1228.09,-5.5 1147.06,-5.5"/>
<text text-anchor="middle" x="1187.57" y="-11.5" font-family="Helvetica,sans-Serif" font-size="10.00">vtkPointData.h</text>
</g>
<!-- Node0&#45;&gt;Node10 -->
<g id="edge10" class="edge"><title>Node0&#45;&gt;Node10</title>
<path fill="none" stroke="midnightblue" d="M911.775,-65.4754C972.032,-57.9227 1061.56,-45.3372 1138.57,-29 1142.54,-28.1589 1146.66,-27.1849 1150.75,-26.1529"/>
<polygon fill="midnightblue" stroke="midnightblue" points="1151.98,-29.4475 1160.76,-23.5104 1150.2,-22.6795 1151.98,-29.4475"/>
</g>
<!-- Node11 -->
<g id="node12" class="node"><title>Node11</title>
<polygon fill="white" stroke="#bfbfbf" points="1245.73,-5.5 1245.73,-23.5 1323.42,-23.5 1323.42,-5.5 1245.73,-5.5"/>
<text text-anchor="middle" x="1284.57" y="-11.5" font-family="Helvetica,sans-Serif" font-size="10.00">vtkPolyData.h</text>
</g>
<!-- Node0&#45;&gt;Node11 -->
<g id="edge11" class="edge"><title>Node0&#45;&gt;Node11</title>
<path fill="none" stroke="midnightblue" d="M923.752,-68.3478C1004.04,-62.3176 1130.12,-50.3294 1237.57,-29 1241.49,-28.2226 1245.55,-27.2752 1249.58,-26.2466"/>
<polygon fill="midnightblue" stroke="midnightblue" points="1250.67,-29.5775 1259.4,-23.5725 1248.83,-22.8235 1250.67,-29.5775"/>
</g>
<!-- Node12 -->
<g id="node13" class="node"><title>Node12</title>
<polygon fill="white" stroke="#bfbfbf" points="1341.4,-5.5 1341.4,-23.5 1395.75,-23.5 1395.75,-5.5 1341.4,-5.5"/>
<text text-anchor="middle" x="1368.57" y="-11.5" font-family="Helvetica,sans-Serif" font-size="10.00">vtkCell.h</text>
</g>
<!-- Node0&#45;&gt;Node12 -->
<g id="edge12" class="edge"><title>Node0&#45;&gt;Node12</title>
<path fill="none" stroke="midnightblue" d="M923.82,-72.7504C1021.88,-70.333 1191.22,-61.3036 1332.57,-29 1335.08,-28.4275 1337.64,-27.7218 1340.2,-26.936"/>
<polygon fill="midnightblue" stroke="midnightblue" points="1341.5,-30.1899 1349.81,-23.6203 1339.21,-23.5725 1341.5,-30.1899"/>
</g>
<!-- Node13 -->
<g id="node14" class="node"><title>Node13</title>
<polygon fill="white" stroke="#bfbfbf" points="1413.9,-5.5 1413.9,-23.5 1473.25,-23.5 1473.25,-5.5 1413.9,-5.5"/>
<text text-anchor="middle" x="1443.57" y="-11.5" font-family="Helvetica,sans-Serif" font-size="10.00">vtkMath.h</text>
</g>
<!-- Node0&#45;&gt;Node13 -->
<g id="edge13" class="edge"><title>Node0&#45;&gt;Node13</title>
<path fill="none" stroke="midnightblue" d="M923.992,-73.502C1034.13,-72.0466 1236.2,-64.207 1404.57,-29 1407.63,-28.3607 1410.78,-27.5477 1413.9,-26.6386"/>
<polygon fill="midnightblue" stroke="midnightblue" points="1415.17,-29.9062 1423.61,-23.5027 1413.02,-23.2449 1415.17,-29.9062"/>
</g>
</g>
</svg>
        <g id="navigator" transform="translate(0 0)" fill="#404254">
                <rect fill="#f2f5e9" fill-opacity="0.5" stroke="#606060" stroke-width=".5" x="0" y="0" width="60" height="60"/>
                <use id="zoomplus" xlink:href="#zoomPlus" x="17" y="9" onmousedown="handleZoom(evt,'in')"/>
                <use id="zoomminus" xlink:href="#zoomMin" x="42" y="9" onmousedown="handleZoom(evt,'out')"/>
                <use id="reset" xlink:href="#resetDef" x="30" y="36" onmousedown="handleReset()"/>
                <g id="arrowUp" xlink:href="#dirArrow" transform="translate(30 24)" onmousedown="handlePan(0,-1)">
                  <use xlink:href="#rim" fill="#404040">
                        <set attributeName="fill" to="#808080" begin="arrowUp.mouseover" end="arrowUp.mouseout"/>
                  </use>
                  <path fill="none" stroke="white" stroke-width="1.5" d="M0,-3.0v7 M-2.5,-0.5L0,-3.0L2.5,-0.5"/>
                </g>
                <g id="arrowRight" xlink:href="#dirArrow" transform="rotate(90) translate(36 -43)" onmousedown="handlePan(1,0)">
                  <use xlink:href="#rim" fill="#404040">
                        <set attributeName="fill" to="#808080" begin="arrowRight.mouseover" end="arrowRight.mouseout"/>
                  </use>
                  <path fill="none" stroke="white" stroke-width="1.5" d="M0,-3.0v7 M-2.5,-0.5L0,-3.0L2.5,-0.5"/>
                </g>
                <g id="arrowDown" xlink:href="#dirArrow" transform="rotate(180) translate(-30 -48)" onmousedown="handlePan(0,1)">
                  <use xlink:href="#rim" fill="#404040">
                        <set attributeName="fill" to="#808080" begin="arrowDown.mouseover" end="arrowDown.mouseout"/>
                  </use>
                  <path fill="none" stroke="white" stroke-width="1.5" d="M0,-3.0v7 M-2.5,-0.5L0,-3.0L2.5,-0.5"/>
                </g>
                <g id="arrowLeft" xlink:href="#dirArrow" transform="rotate(270) translate(-36 17)" onmousedown="handlePan(-1,0)">
                  <use xlink:href="#rim" fill="#404040">
                        <set attributeName="fill" to="#808080" begin="arrowLeft.mouseover" end="arrowLeft.mouseout"/>
                  </use>
                  <path fill="none" stroke="white" stroke-width="1.5" d="M0,-3.0v7 M-2.5,-0.5L0,-3.0L2.5,-0.5"/>
                </g>
        </g>
        <svg viewBox="0 0 15 15" width="100%" height="30px" preserveAspectRatio="xMaxYMin meet">
         <g id="arrow_out" transform="scale(0.3 0.3)">
          <a xlink:href="vtkvmtkCurvedMPRImageFilter_8h__incl_org.svg" target="_base">
           <rect id="button" ry="5" rx="5" y="6" x="6" height="38" width="38"
                fill="#f2f5e9" fill-opacity="0.5" stroke="#606060" stroke-width="1.0"/>
           <path id="arrow"
             d="M 11.500037,31.436501 C 11.940474,20.09759 22.043105,11.32322 32.158766,21.979434 L 37.068811,17.246167 C 37.068811,17.246167 37.088388,32 37.088388,32 L 22.160133,31.978069 C 22.160133,31.978069 26.997745,27.140456 26.997745,27.140456 C 18.528582,18.264221 13.291696,25.230495 11.500037,31.436501 z"
             style="fill:#404040;"/>
          </a>
         </g>
        </svg>
</svg>
