<?xml version="1.0" encoding="UTF-8" standalone="no"?>
<!DOCTYPE svg PUBLIC "-//W3C//DTD SVG 1.1//EN"
 "http://www.w3.org/Graphics/SVG/1.1/DTD/svg11.dtd">
<!-- Generated by graphviz version 2.38.0 (20140413.2041)
 -->
<!-- Title: vtkvmtkDataSetItems.h Pages: 1 -->
<svg width="312pt" height="192pt"
 viewBox="0.00 0.00 312.42 192.00" xmlns="http://www.w3.org/2000/svg" xmlns:xlink="http://www.w3.org/1999/xlink">
<g id="graph0" class="graph" transform="scale(1 1) rotate(0) translate(4 188)">
<title>vtkvmtkDataSetItems.h</title>
<polygon fill="white" stroke="none" points="-4,4 -4,-188 308.421,-188 308.421,4 -4,4"/>
<!-- Node0 -->
<g id="node1" class="node"><title>Node0</title>
<polygon fill="#bfbfbf" stroke="black" points="13.606,-165.5 13.606,-183.5 132.414,-183.5 132.414,-165.5 13.606,-165.5"/>
<text text-anchor="middle" x="73.0098" y="-171.5" font-family="Helvetica,sans-Serif" font-size="10.00">vtkvmtkDataSetItems.h</text>
</g>
<!-- Node1 -->
<g id="node2" class="node"><title>Node1</title>
<polygon fill="white" stroke="#bfbfbf" points="0,-0.5 0,-18.5 66.0195,-18.5 66.0195,-0.5 0,-0.5"/>
<text text-anchor="middle" x="33.0098" y="-6.5" font-family="Helvetica,sans-Serif" font-size="10.00">vtkObject.h</text>
</g>
<!-- Node0&#45;&gt;Node1 -->
<g id="edge1" class="edge"><title>Node0&#45;&gt;Node1</title>
<path fill="none" stroke="midnightblue" d="M57.4808,-165.257C45.0354,-157.685 28.4638,-145.19 21.0098,-129 5.78601,-95.9347 17.174,-52.3097 25.7732,-28.2832"/>
<polygon fill="midnightblue" stroke="midnightblue" points="29.123,-29.3221 29.4223,-18.7314 22.5839,-26.8238 29.123,-29.3221"/>
</g>
<!-- Node2 -->
<g id="node3" class="node"><title>Node2</title>
<g id="a_node3"><a xlink:href="vtkvmtkItems_8h.html" target="_top" xlink:title="vtkvmtkItems.h">
<polygon fill="white" stroke="black" points="69.6724,-110.5 69.6724,-128.5 152.347,-128.5 152.347,-110.5 69.6724,-110.5"/>
<text text-anchor="middle" x="111.01" y="-116.5" font-family="Helvetica,sans-Serif" font-size="10.00">vtkvmtkItems.h</text>
</a>
</g>
</g>
<!-- Node0&#45;&gt;Node2 -->
<g id="edge2" class="edge"><title>Node0&#45;&gt;Node2</title>
<path fill="none" stroke="midnightblue" d="M78.9473,-165.219C84.3889,-157.629 92.6011,-146.175 99.3519,-136.76"/>
<polygon fill="midnightblue" stroke="midnightblue" points="102.256,-138.716 105.238,-128.55 96.567,-134.637 102.256,-138.716"/>
</g>
<!-- Node4 -->
<g id="node5" class="node"><title>Node4</title>
<polygon fill="white" stroke="#bfbfbf" points="84.3843,-0.5 84.3843,-18.5 157.635,-18.5 157.635,-0.5 84.3843,-0.5"/>
<text text-anchor="middle" x="121.01" y="-6.5" font-family="Helvetica,sans-Serif" font-size="10.00">vtkDataSet.h</text>
</g>
<!-- Node0&#45;&gt;Node4 -->
<g id="edge10" class="edge"><title>Node0&#45;&gt;Node4</title>
<path fill="none" stroke="midnightblue" d="M69.0339,-165.178C63.7289,-152.946 55.5975,-129.456 61.0098,-110 70.0227,-77.5998 92.7436,-45.2006 107.495,-26.5426"/>
<polygon fill="midnightblue" stroke="midnightblue" points="110.405,-28.5128 114.002,-18.5473 104.975,-24.0943 110.405,-28.5128"/>
</g>
<!-- Node5 -->
<g id="node6" class="node"><title>Node5</title>
<polygon fill="white" stroke="#bfbfbf" points="185.599,-0.5 185.599,-18.5 304.421,-18.5 304.421,-0.5 185.599,-0.5"/>
<text text-anchor="middle" x="245.01" y="-6.5" font-family="Helvetica,sans-Serif" font-size="10.00">vtkvmtkWin32Header.h</text>
</g>
<!-- Node0&#45;&gt;Node5 -->
<g id="edge11" class="edge"><title>Node0&#45;&gt;Node5</title>
<path fill="none" stroke="midnightblue" d="M107.103,-165.405C148.828,-153.426 217.448,-126.501 246.01,-74 253.584,-60.0775 252.337,-41.7686 249.787,-28.3892"/>
<polygon fill="midnightblue" stroke="midnightblue" points="253.166,-27.4689 247.503,-18.5145 246.346,-29.046 253.166,-27.4689"/>
</g>
<!-- Node2&#45;&gt;Node1 -->
<g id="edge3" class="edge"><title>Node2&#45;&gt;Node1</title>
<path fill="none" stroke="midnightblue" d="M105.147,-110.382C92.3859,-92.7131 61.8787,-50.4724 44.9094,-26.9764"/>
<polygon fill="midnightblue" stroke="midnightblue" points="47.6328,-24.7693 38.9405,-18.7118 41.958,-28.8678 47.6328,-24.7693"/>
</g>
<!-- Node3 -->
<g id="node4" class="node"><title>Node3</title>
<g id="a_node4"><a xlink:href="vtkvmtkItem_8h.html" target="_top" xlink:title="vtkvmtkItem.h">
<polygon fill="white" stroke="black" points="139.172,-55.5 139.172,-73.5 216.847,-73.5 216.847,-55.5 139.172,-55.5"/>
<text text-anchor="middle" x="178.01" y="-61.5" font-family="Helvetica,sans-Serif" font-size="10.00">vtkvmtkItem.h</text>
</a>
</g>
</g>
<!-- Node2&#45;&gt;Node3 -->
<g id="edge4" class="edge"><title>Node2&#45;&gt;Node3</title>
<path fill="none" stroke="midnightblue" d="M121.186,-110.45C131.417,-102.357 147.412,-89.7042 159.829,-79.8822"/>
<polygon fill="midnightblue" stroke="midnightblue" points="162.067,-82.5744 167.738,-73.6253 157.724,-77.0844 162.067,-82.5744"/>
</g>
<!-- Node2&#45;&gt;Node4 -->
<g id="edge8" class="edge"><title>Node2&#45;&gt;Node4</title>
<path fill="none" stroke="midnightblue" d="M111.761,-110.382C113.354,-93.1822 117.103,-52.698 119.307,-28.8866"/>
<polygon fill="midnightblue" stroke="midnightblue" points="122.812,-28.9919 120.249,-18.7118 115.842,-28.3464 122.812,-28.9919"/>
</g>
<!-- Node2&#45;&gt;Node5 -->
<g id="edge9" class="edge"><title>Node2&#45;&gt;Node5</title>
<path fill="none" stroke="midnightblue" d="M152.593,-111.83C177.079,-105.848 206.9,-94.6716 226.01,-74 237.361,-61.7214 241.947,-42.9224 243.791,-28.9615"/>
<polygon fill="midnightblue" stroke="midnightblue" points="247.312,-28.9103 244.784,-18.6216 240.344,-28.2414 247.312,-28.9103"/>
</g>
<!-- Node3&#45;&gt;Node1 -->
<g id="edge5" class="edge"><title>Node3&#45;&gt;Node1</title>
<path fill="none" stroke="midnightblue" d="M155.987,-55.4504C131.715,-46.5784 92.4566,-32.2288 64.8385,-22.134"/>
<polygon fill="midnightblue" stroke="midnightblue" points="65.8332,-18.7711 55.2394,-18.6253 63.4301,-25.3457 65.8332,-18.7711"/>
</g>
<!-- Node3&#45;&gt;Node4 -->
<g id="edge6" class="edge"><title>Node3&#45;&gt;Node4</title>
<path fill="none" stroke="midnightblue" d="M169.104,-55.2188C160.605,-47.3162 147.6,-35.2241 137.255,-25.6057"/>
<polygon fill="midnightblue" stroke="midnightblue" points="139.374,-22.7958 129.667,-18.5496 134.607,-27.9222 139.374,-22.7958"/>
</g>
<!-- Node3&#45;&gt;Node5 -->
<g id="edge7" class="edge"><title>Node3&#45;&gt;Node5</title>
<path fill="none" stroke="midnightblue" d="M188.186,-55.4504C198.417,-47.3566 214.412,-34.7042 226.829,-24.8822"/>
<polygon fill="midnightblue" stroke="midnightblue" points="229.067,-27.5744 234.738,-18.6253 224.724,-22.0844 229.067,-27.5744"/>
</g>
</g>
</svg>
