<?xml version="1.0" encoding="UTF-8" standalone="no"?>
<!DOCTYPE svg PUBLIC "-//W3C//DTD SVG 1.1//EN"
 "http://www.w3.org/Graphics/SVG/1.1/DTD/svg11.dtd">
<!-- Generated by graphviz version 2.38.0 (20140413.2041)
 -->
<!-- Title: vtkvmtkNonManifoldFastMarching.h Pages: 1 -->
<svg width="668pt" height="137pt"
 viewBox="0.00 0.00 667.59 137.00" xmlns="http://www.w3.org/2000/svg" xmlns:xlink="http://www.w3.org/1999/xlink">
<g id="graph0" class="graph" transform="scale(1 1) rotate(0) translate(4 133)">
<title>vtkvmtkNonManifoldFastMarching.h</title>
<polygon fill="white" stroke="none" points="-4,4 -4,-133 663.591,-133 663.591,4 -4,4"/>
<!-- Node0 -->
<g id="node1" class="node"><title>Node0</title>
<polygon fill="#bfbfbf" stroke="black" points="257.493,-110.5 257.493,-128.5 432.438,-128.5 432.438,-110.5 257.493,-110.5"/>
<text text-anchor="middle" x="344.965" y="-116.5" font-family="Helvetica,sans-Serif" font-size="10.00">vtkvmtkNonManifoldFastMarching.h</text>
</g>
<!-- Node1 -->
<g id="node2" class="node"><title>Node1</title>
<polygon fill="white" stroke="#bfbfbf" points="0,-55.5 0,-73.5 119.931,-73.5 119.931,-55.5 0,-55.5"/>
<text text-anchor="middle" x="59.9653" y="-61.5" font-family="Helvetica,sans-Serif" font-size="10.00">vtkPolyDataAlgorithm.h</text>
</g>
<!-- Node0&#45;&gt;Node1 -->
<g id="edge1" class="edge"><title>Node0&#45;&gt;Node1</title>
<path fill="none" stroke="midnightblue" d="M301.68,-110.45C251.21,-101.065 167.776,-85.5491 113.338,-75.4254"/>
<polygon fill="midnightblue" stroke="midnightblue" points="113.662,-71.9257 103.19,-73.5383 112.382,-78.8077 113.662,-71.9257"/>
</g>
<!-- Node2 -->
<g id="node3" class="node"><title>Node2</title>
<polygon fill="white" stroke="#bfbfbf" points="137.456,-55.5 137.456,-73.5 198.475,-73.5 198.475,-55.5 137.456,-55.5"/>
<text text-anchor="middle" x="167.965" y="-61.5" font-family="Helvetica,sans-Serif" font-size="10.00">vtkIdList.h</text>
</g>
<!-- Node0&#45;&gt;Node2 -->
<g id="edge2" class="edge"><title>Node0&#45;&gt;Node2</title>
<path fill="none" stroke="midnightblue" d="M318.083,-110.45C287.846,-101.396 238.559,-86.6382 204.763,-76.5185"/>
<polygon fill="midnightblue" stroke="midnightblue" points="205.394,-73.054 194.81,-73.5383 203.386,-79.7598 205.394,-73.054"/>
</g>
<!-- Node3 -->
<g id="node4" class="node"><title>Node3</title>
<polygon fill="white" stroke="#bfbfbf" points="216.27,-55.5 216.27,-73.5 287.661,-73.5 287.661,-55.5 216.27,-55.5"/>
<text text-anchor="middle" x="251.965" y="-61.5" font-family="Helvetica,sans-Serif" font-size="10.00">vtkIntArray.h</text>
</g>
<!-- Node0&#45;&gt;Node3 -->
<g id="edge3" class="edge"><title>Node0&#45;&gt;Node3</title>
<path fill="none" stroke="midnightblue" d="M330.841,-110.45C316.092,-102.045 292.717,-88.7241 275.236,-78.7618"/>
<polygon fill="midnightblue" stroke="midnightblue" points="276.644,-75.5358 266.223,-73.6253 273.178,-81.6176 276.644,-75.5358"/>
</g>
<!-- Node4 -->
<g id="node5" class="node"><title>Node4</title>
<polygon fill="white" stroke="#bfbfbf" points="306.118,-55.5 306.118,-73.5 383.812,-73.5 383.812,-55.5 306.118,-55.5"/>
<text text-anchor="middle" x="344.965" y="-61.5" font-family="Helvetica,sans-Serif" font-size="10.00">vtkPolyData.h</text>
</g>
<!-- Node0&#45;&gt;Node4 -->
<g id="edge4" class="edge"><title>Node0&#45;&gt;Node4</title>
<path fill="none" stroke="midnightblue" d="M344.965,-110.219C344.965,-103.177 344.965,-92.8083 344.965,-83.8277"/>
<polygon fill="midnightblue" stroke="midnightblue" points="348.465,-83.5495 344.965,-73.5496 341.465,-83.5496 348.465,-83.5495"/>
</g>
<!-- Node5 -->
<g id="node6" class="node"><title>Node5</title>
<g id="a_node6"><a xlink:href="vtkvmtkMinHeap_8h.html" target="_top" xlink:title="vtkvmtkMinHeap.h">
<polygon fill="white" stroke="black" points="401.842,-55.5 401.842,-73.5 500.088,-73.5 500.088,-55.5 401.842,-55.5"/>
<text text-anchor="middle" x="450.965" y="-61.5" font-family="Helvetica,sans-Serif" font-size="10.00">vtkvmtkMinHeap.h</text>
</a>
</g>
</g>
<!-- Node0&#45;&gt;Node5 -->
<g id="edge5" class="edge"><title>Node0&#45;&gt;Node5</title>
<path fill="none" stroke="midnightblue" d="M361.064,-110.45C378.186,-101.89 405.507,-88.2291 425.542,-78.2119"/>
<polygon fill="midnightblue" stroke="midnightblue" points="427.336,-81.228 434.715,-73.6253 424.205,-74.967 427.336,-81.228"/>
</g>
<!-- Node8 -->
<g id="node9" class="node"><title>Node8</title>
<polygon fill="white" stroke="#bfbfbf" points="491.554,-0.5 491.554,-18.5 610.376,-18.5 610.376,-0.5 491.554,-0.5"/>
<text text-anchor="middle" x="550.965" y="-6.5" font-family="Helvetica,sans-Serif" font-size="10.00">vtkvmtkWin32Header.h</text>
</g>
<!-- Node0&#45;&gt;Node8 -->
<g id="edge10" class="edge"><title>Node0&#45;&gt;Node8</title>
<path fill="none" stroke="midnightblue" d="M416.838,-110.469C447.445,-104.288 482.183,-93.3515 508.965,-74 525,-62.4138 536.642,-42.6698 543.546,-28.2674"/>
<polygon fill="midnightblue" stroke="midnightblue" points="546.841,-29.4746 547.732,-18.9173 540.451,-26.6147 546.841,-29.4746"/>
</g>
<!-- Node9 -->
<g id="node10" class="node"><title>Node9</title>
<g id="a_node10"><a xlink:href="vtkvmtkConstants_8h.html" target="_top" xlink:title="vtkvmtkConstants.h">
<polygon fill="white" stroke="black" points="556.34,-55.5 556.34,-73.5 659.591,-73.5 659.591,-55.5 556.34,-55.5"/>
<text text-anchor="middle" x="607.965" y="-61.5" font-family="Helvetica,sans-Serif" font-size="10.00">vtkvmtkConstants.h</text>
</a>
</g>
</g>
<!-- Node0&#45;&gt;Node9 -->
<g id="edge9" class="edge"><title>Node0&#45;&gt;Node9</title>
<path fill="none" stroke="midnightblue" d="M384.909,-110.45C431.29,-101.104 507.837,-85.678 558.085,-75.552"/>
<polygon fill="midnightblue" stroke="midnightblue" points="558.966,-78.9449 568.077,-73.5383 557.583,-72.0829 558.966,-78.9449"/>
</g>
<!-- Node6 -->
<g id="node7" class="node"><title>Node6</title>
<polygon fill="white" stroke="#bfbfbf" points="297.956,-0.5 297.956,-18.5 363.975,-18.5 363.975,-0.5 297.956,-0.5"/>
<text text-anchor="middle" x="330.965" y="-6.5" font-family="Helvetica,sans-Serif" font-size="10.00">vtkObject.h</text>
</g>
<!-- Node5&#45;&gt;Node6 -->
<g id="edge6" class="edge"><title>Node5&#45;&gt;Node6</title>
<path fill="none" stroke="midnightblue" d="M432.74,-55.4504C413.005,-46.734 381.299,-32.7306 358.518,-22.6691"/>
<polygon fill="midnightblue" stroke="midnightblue" points="359.924,-19.4639 349.362,-18.6253 357.096,-25.8672 359.924,-19.4639"/>
</g>
<!-- Node7 -->
<g id="node8" class="node"><title>Node7</title>
<polygon fill="white" stroke="#bfbfbf" points="381.984,-0.5 381.984,-18.5 473.946,-18.5 473.946,-0.5 381.984,-0.5"/>
<text text-anchor="middle" x="427.965" y="-6.5" font-family="Helvetica,sans-Serif" font-size="10.00">vtkDoubleArray.h</text>
</g>
<!-- Node5&#45;&gt;Node7 -->
<g id="edge7" class="edge"><title>Node5&#45;&gt;Node7</title>
<path fill="none" stroke="midnightblue" d="M447.372,-55.2188C444.214,-47.9421 439.515,-37.1134 435.531,-27.9345"/>
<polygon fill="midnightblue" stroke="midnightblue" points="438.65,-26.3297 431.459,-18.5496 432.229,-29.1164 438.65,-26.3297"/>
</g>
<!-- Node5&#45;&gt;Node8 -->
<g id="edge8" class="edge"><title>Node5&#45;&gt;Node8</title>
<path fill="none" stroke="midnightblue" d="M466.153,-55.4504C482.232,-46.9286 507.846,-33.3532 526.723,-23.3487"/>
<polygon fill="midnightblue" stroke="midnightblue" points="528.438,-26.4008 535.635,-18.6253 525.16,-20.2158 528.438,-26.4008"/>
</g>
</g>
</svg>
