<?xml version="1.0" encoding="UTF-8" standalone="no"?>
<!DOCTYPE svg PUBLIC "-//W3C//DTD SVG 1.1//EN"
 "http://www.w3.org/Graphics/SVG/1.1/DTD/svg11.dtd">
<!-- Generated by graphviz version 2.38.0 (20140413.2041)
 -->
<!-- Title: vtkvmtkITKFilterUtilities.h Pages: 1 -->
<svg width="409pt" height="83pt"
 viewBox="0.00 0.00 408.65 83.01" xmlns="http://www.w3.org/2000/svg" xmlns:xlink="http://www.w3.org/1999/xlink">
<g id="graph0" class="graph" transform="scale(1 1) rotate(0) translate(4 79.0057)">
<title>vtkvmtkITKFilterUtilities.h</title>
<polygon fill="white" stroke="none" points="-4,4 -4,-79.0057 404.645,-79.0057 404.645,4 -4,4"/>
<!-- Node0 -->
<g id="node1" class="node"><title>Node0</title>
<polygon fill="#bfbfbf" stroke="black" points="161.295,-55.5 161.295,-73.5 289.527,-73.5 289.527,-55.5 161.295,-55.5"/>
<text text-anchor="middle" x="225.411" y="-61.5" font-family="Helvetica,sans-Serif" font-size="10.00">vtkvmtkITKFilterUtilities.h</text>
</g>
<!-- Node0&#45;&gt;Node0 -->
<g id="edge1" class="edge"><title>Node0&#45;&gt;Node0</title>
<path fill="none" stroke="midnightblue" d="M259.151,-73.5349C283.386,-76.4765 307.527,-73.4648 307.527,-64.5 307.527,-56.7958 289.698,-53.4883 269.303,-54.5773"/>
<polygon fill="midnightblue" stroke="midnightblue" points="268.808,-51.1071 259.151,-55.4651 269.418,-58.0805 268.808,-51.1071"/>
</g>
<!-- Node1 -->
<g id="node2" class="node"><title>Node1</title>
<polygon fill="white" stroke="#bfbfbf" points="0,-0.5 0,-18.5 118.822,-18.5 118.822,-0.5 0,-0.5"/>
<text text-anchor="middle" x="59.4111" y="-6.5" font-family="Helvetica,sans-Serif" font-size="10.00">vtkvmtkWin32Header.h</text>
</g>
<!-- Node0&#45;&gt;Node1 -->
<g id="edge2" class="edge"><title>Node0&#45;&gt;Node1</title>
<path fill="none" stroke="midnightblue" d="M200.199,-55.4504C171.964,-46.4355 126.016,-31.7653 94.3326,-21.6496"/>
<polygon fill="midnightblue" stroke="midnightblue" points="95.1785,-18.2457 84.5877,-18.5383 93.0494,-24.9141 95.1785,-18.2457"/>
</g>
<!-- Node2 -->
<g id="node3" class="node"><title>Node2</title>
<polygon fill="white" stroke="#bfbfbf" points="136.394,-0.5 136.394,-18.5 222.428,-18.5 222.428,-0.5 136.394,-0.5"/>
<text text-anchor="middle" x="179.411" y="-6.5" font-family="Helvetica,sans-Serif" font-size="10.00">vtkImageData.h</text>
</g>
<!-- Node0&#45;&gt;Node2 -->
<g id="edge3" class="edge"><title>Node0&#45;&gt;Node2</title>
<path fill="none" stroke="midnightblue" d="M218.224,-55.2188C211.501,-47.4727 201.284,-35.7013 193.02,-26.1799"/>
<polygon fill="midnightblue" stroke="midnightblue" points="195.596,-23.8076 186.398,-18.5496 190.309,-28.3959 195.596,-23.8076"/>
</g>
<!-- Node3 -->
<g id="node4" class="node"><title>Node3</title>
<polygon fill="white" stroke="#bfbfbf" points="240.345,-0.5 240.345,-18.5 302.478,-18.5 302.478,-0.5 240.345,-0.5"/>
<text text-anchor="middle" x="271.411" y="-6.5" font-family="Helvetica,sans-Serif" font-size="10.00">itkImage.h</text>
</g>
<!-- Node0&#45;&gt;Node3 -->
<g id="edge4" class="edge"><title>Node0&#45;&gt;Node3</title>
<path fill="none" stroke="midnightblue" d="M232.599,-55.2188C239.322,-47.4727 249.538,-35.7013 257.802,-26.1799"/>
<polygon fill="midnightblue" stroke="midnightblue" points="260.513,-28.3959 264.425,-18.5496 255.227,-23.8076 260.513,-28.3959"/>
</g>
<!-- Node4 -->
<g id="node5" class="node"><title>Node4</title>
<polygon fill="white" stroke="#bfbfbf" points="320.177,-0.5 320.177,-18.5 400.645,-18.5 400.645,-0.5 320.177,-0.5"/>
<text text-anchor="middle" x="360.411" y="-6.5" font-family="Helvetica,sans-Serif" font-size="10.00">itkCommand.h</text>
</g>
<!-- Node0&#45;&gt;Node4 -->
<g id="edge5" class="edge"><title>Node0&#45;&gt;Node4</title>
<path fill="none" stroke="midnightblue" d="M245.915,-55.4504C268.315,-46.6562 304.424,-32.4802 330.098,-22.4006"/>
<polygon fill="midnightblue" stroke="midnightblue" points="331.685,-25.5377 339.715,-18.6253 329.127,-19.0218 331.685,-25.5377"/>
</g>
</g>
</svg>
