<?xml version="1.0" encoding="UTF-8" standalone="no"?>
<!DOCTYPE svg PUBLIC "-//W3C//DTD SVG 1.1//EN"
 "http://www.w3.org/Graphics/SVG/1.1/DTD/svg11.dtd">
<!-- Generated by graphviz version 2.38.0 (20140413.2041)
 -->
<!-- Title: vtkvmtkLevelSetSigmoidFilter.h Pages: 1 -->
<svg width="404pt" height="82pt"
 viewBox="0.00 0.00 404.16 82.00" xmlns="http://www.w3.org/2000/svg" xmlns:xlink="http://www.w3.org/1999/xlink">
<g id="graph0" class="graph" transform="scale(1 1) rotate(0) translate(4 78)">
<title>vtkvmtkLevelSetSigmoidFilter.h</title>
<polygon fill="white" stroke="none" points="-4,4 -4,-78 400.165,-78 400.165,4 -4,4"/>
<!-- Node0 -->
<g id="node1" class="node"><title>Node0</title>
<polygon fill="#bfbfbf" stroke="black" points="139.281,-55.5 139.281,-73.5 294.226,-73.5 294.226,-55.5 139.281,-55.5"/>
<text text-anchor="middle" x="216.753" y="-61.5" font-family="Helvetica,sans-Serif" font-size="10.00">vtkvmtkLevelSetSigmoidFilter.h</text>
</g>
<!-- Node1 -->
<g id="node2" class="node"><title>Node1</title>
<polygon fill="white" stroke="#bfbfbf" points="0,-0.5 0,-18.5 155.507,-18.5 155.507,-0.5 0,-0.5"/>
<text text-anchor="middle" x="77.7534" y="-6.5" font-family="Helvetica,sans-Serif" font-size="10.00">vtkSimpleImageToImageFilter.h</text>
</g>
<!-- Node0&#45;&gt;Node1 -->
<g id="edge1" class="edge"><title>Node0&#45;&gt;Node1</title>
<path fill="none" stroke="midnightblue" d="M195.642,-55.4504C172.476,-46.6173 135.07,-32.3546 108.614,-22.267"/>
<polygon fill="midnightblue" stroke="midnightblue" points="109.654,-18.9178 99.0632,-18.6253 107.16,-25.4585 109.654,-18.9178"/>
</g>
<!-- Node2 -->
<g id="node3" class="node"><title>Node2</title>
<polygon fill="white" stroke="#bfbfbf" points="173.736,-0.5 173.736,-18.5 259.771,-18.5 259.771,-0.5 173.736,-0.5"/>
<text text-anchor="middle" x="216.753" y="-6.5" font-family="Helvetica,sans-Serif" font-size="10.00">vtkImageData.h</text>
</g>
<!-- Node0&#45;&gt;Node2 -->
<g id="edge2" class="edge"><title>Node0&#45;&gt;Node2</title>
<path fill="none" stroke="midnightblue" d="M216.753,-55.2188C216.753,-48.1769 216.753,-37.8083 216.753,-28.8277"/>
<polygon fill="midnightblue" stroke="midnightblue" points="220.254,-28.5495 216.753,-18.5496 213.254,-28.5496 220.254,-28.5495"/>
</g>
<!-- Node3 -->
<g id="node4" class="node"><title>Node3</title>
<polygon fill="white" stroke="#bfbfbf" points="277.342,-0.5 277.342,-18.5 396.165,-18.5 396.165,-0.5 277.342,-0.5"/>
<text text-anchor="middle" x="336.753" y="-6.5" font-family="Helvetica,sans-Serif" font-size="10.00">vtkvmtkWin32Header.h</text>
</g>
<!-- Node0&#45;&gt;Node3 -->
<g id="edge3" class="edge"><title>Node0&#45;&gt;Node3</title>
<path fill="none" stroke="midnightblue" d="M234.979,-55.4504C254.714,-46.734 286.42,-32.7306 309.201,-22.6691"/>
<polygon fill="midnightblue" stroke="midnightblue" points="310.623,-25.8672 318.356,-18.6253 307.795,-19.4639 310.623,-25.8672"/>
</g>
</g>
</svg>
