<?xml version="1.0" encoding="UTF-8" standalone="no"?>
<!DOCTYPE svg PUBLIC "-//W3C//DTD SVG 1.1//EN"
 "http://www.w3.org/Graphics/SVG/1.1/DTD/svg11.dtd">
<!-- Generated by graphviz version 2.38.0 (20140413.2041)
 -->
<!-- Title: vtkvmtkCenterlineAttributesFilter.h Pages: 1 -->
<svg width="264pt" height="92pt"
 viewBox="0.00 0.00 264.38 92.00" xmlns="http://www.w3.org/2000/svg" xmlns:xlink="http://www.w3.org/1999/xlink">
<g id="graph0" class="graph" transform="scale(1 1) rotate(0) translate(4 88)">
<title>vtkvmtkCenterlineAttributesFilter.h</title>
<polygon fill="white" stroke="none" points="-4,4 -4,-88 260.376,-88 260.376,4 -4,4"/>
<!-- Node0 -->
<g id="node1" class="node"><title>Node0</title>
<polygon fill="#bfbfbf" stroke="black" points="59.1108,-55.5 59.1108,-83.5 196.82,-83.5 196.82,-55.5 59.1108,-55.5"/>
<text text-anchor="start" x="67.1108" y="-71.5" font-family="Helvetica,sans-Serif" font-size="10.00">vtkvmtkCenterlineAttributes</text>
<text text-anchor="middle" x="127.965" y="-61.5" font-family="Helvetica,sans-Serif" font-size="10.00">Filter.h</text>
</g>
<!-- Node1 -->
<g id="node2" class="node"><title>Node1</title>
<polygon fill="white" stroke="#bfbfbf" points="0,-0.5 0,-18.5 119.931,-18.5 119.931,-0.5 0,-0.5"/>
<text text-anchor="middle" x="59.9653" y="-6.5" font-family="Helvetica,sans-Serif" font-size="10.00">vtkPolyDataAlgorithm.h</text>
</g>
<!-- Node0&#45;&gt;Node1 -->
<g id="edge1" class="edge"><title>Node0&#45;&gt;Node1</title>
<path fill="none" stroke="midnightblue" d="M112.535,-55.3389C102.043,-46.39 88.1482,-34.5384 77.2787,-25.2673"/>
<polygon fill="midnightblue" stroke="midnightblue" points="79.5426,-22.598 69.6629,-18.7715 75,-27.9239 79.5426,-22.598"/>
</g>
<!-- Node2 -->
<g id="node3" class="node"><title>Node2</title>
<polygon fill="white" stroke="#bfbfbf" points="137.554,-0.5 137.554,-18.5 256.376,-18.5 256.376,-0.5 137.554,-0.5"/>
<text text-anchor="middle" x="196.965" y="-6.5" font-family="Helvetica,sans-Serif" font-size="10.00">vtkvmtkWin32Header.h</text>
</g>
<!-- Node0&#45;&gt;Node2 -->
<g id="edge2" class="edge"><title>Node0&#45;&gt;Node2</title>
<path fill="none" stroke="midnightblue" d="M143.623,-55.3389C154.269,-46.39 168.368,-34.5384 179.397,-25.2673"/>
<polygon fill="midnightblue" stroke="midnightblue" points="181.722,-27.8852 187.125,-18.7715 177.218,-22.5268 181.722,-27.8852"/>
</g>
</g>
</svg>
