<?xml version="1.0" encoding="UTF-8" standalone="no"?>
<!DOCTYPE svg PUBLIC "-//W3C//DTD SVG 1.1//EN"
 "http://www.w3.org/Graphics/SVG/1.1/DTD/svg11.dtd">
<!-- Generated by graphviz version 2.38.0 (20140413.2041)
 -->
<!-- Title: vtkvmtkBoundaryConditions.h Pages: 1 -->
<!--zoomable 467 -->
<svg id="main" version="1.1" xmlns="http://www.w3.org/2000/svg" xmlns:xlink="http://www.w3.org/1999/xlink" xml:space="preserve" onload="init(evt)">
<style type="text/css"><![CDATA[
.edge:hover path { stroke: red; }
.edge:hover polygon { stroke: red; fill: red; }
]]></style>
<script type="text/javascript"><![CDATA[
var edges = document.getElementsByTagName('g');
if (edges && edges.length) {
  for (var i=0;i<edges.length;i++) {
    if (edges[i].id.substr(0,4)=='edge') {
      edges[i].setAttribute('class','edge');
    }
  }
}
]]></script>
        <defs>
                <circle id="rim" cx="0" cy="0" r="7"/>
                <circle id="rim2" cx="0" cy="0" r="3.5"/>
                <g id="zoomPlus">
                        <use xlink:href="#rim" fill="#404040">
                                <set attributeName="fill" to="#808080" begin="zoomplus.mouseover" end="zoomplus.mouseout"/>
                        </use>
                        <path d="M-4,0h8M0,-4v8" fill="none" stroke="white" stroke-width="1.5" pointer-events="none"/>
                </g>
                <g id="zoomMin">
                        <use xlink:href="#rim" fill="#404040">
                                <set attributeName="fill" to="#808080" begin="zoomminus.mouseover" end="zoomminus.mouseout"/>
                        </use>
                        <path d="M-4,0h8" fill="none" stroke="white" stroke-width="1.5" pointer-events="none"/>
                </g>
                <g id="dirArrow">
                        <path fill="none" stroke="white" stroke-width="1.5" d="M0,-3.0v7 M-2.5,-0.5L0,-3.0L2.5,-0.5"/>
                </g>
               <g id="resetDef">
                       <use xlink:href="#rim2" fill="#404040">
                               <set attributeName="fill" to="#808080" begin="reset.mouseover" end="reset.mouseout"/>
                       </use>
               </g>
        </defs>

<script type="text/javascript">
var viewWidth = 1524;
var viewHeight = 467;
var sectionId = 'dynsection-0';
</script>
<script xlink:href="svgpan.js"/>
<svg id="graph" class="graph">
<g id="viewport">
<title>vtkvmtkBoundaryConditions.h</title>
<polygon fill="white" stroke="none" points="-4,4 -4,-463 1519.51,-463 1519.51,4 -4,4"/>
<!-- Node0 -->
<g id="node1" class="node"><title>Node0</title>
<polygon fill="#bfbfbf" stroke="black" points="1242.86,-440.5 1242.86,-458.5 1391.14,-458.5 1391.14,-440.5 1242.86,-440.5"/>
<text text-anchor="middle" x="1317" y="-446.5" font-family="Helvetica,sans-Serif" font-size="10.00">vtkvmtkBoundaryConditions.h</text>
</g>
<!-- Node1 -->
<g id="node2" class="node"><title>Node1</title>
<polygon fill="white" stroke="#bfbfbf" points="974.99,-0.5 974.99,-18.5 1041.01,-18.5 1041.01,-0.5 974.99,-0.5"/>
<text text-anchor="middle" x="1008" y="-6.5" font-family="Helvetica,sans-Serif" font-size="10.00">vtkObject.h</text>
</g>
<!-- Node0&#45;&gt;Node1 -->
<g id="edge1" class="edge"><title>Node0&#45;&gt;Node1</title>
<path fill="none" stroke="midnightblue" d="M1317,-440.371C1317,-422.376 1317,-377.812 1317,-340.5 1317,-340.5 1317,-340.5 1317,-118.5 1317,-62.8561 1136.18,-29.1448 1051.18,-16.3721"/>
<polygon fill="midnightblue" stroke="midnightblue" points="1051.47,-12.8768 1041.07,-14.8831 1050.45,-19.8022 1051.47,-12.8768"/>
</g>
<!-- Node2 -->
<g id="node3" class="node"><title>Node2</title>
<g id="a_node3"><a xlink:href="vtkvmtkLinearSystem_8h.html" target="_top" xlink:title="vtkvmtkLinearSystem.h">
<polygon fill="white" stroke="black" points="1130.32,-385.5 1130.32,-403.5 1249.68,-403.5 1249.68,-385.5 1130.32,-385.5"/>
<text text-anchor="middle" x="1190" y="-391.5" font-family="Helvetica,sans-Serif" font-size="10.00">vtkvmtkLinearSystem.h</text>
</a>
</g>
</g>
<!-- Node0&#45;&gt;Node2 -->
<g id="edge2" class="edge"><title>Node0&#45;&gt;Node2</title>
<path fill="none" stroke="midnightblue" d="M1297.71,-440.45C1276.73,-431.695 1242.97,-417.606 1218.84,-407.535"/>
<polygon fill="midnightblue" stroke="midnightblue" points="1220.05,-404.247 1209.47,-403.625 1217.35,-410.707 1220.05,-404.247"/>
</g>
<!-- Node10 -->
<g id="node11" class="node"><title>Node10</title>
<polygon fill="white" stroke="#bfbfbf" points="463.589,-0.5 463.589,-18.5 582.411,-18.5 582.411,-0.5 463.589,-0.5"/>
<text text-anchor="middle" x="523" y="-6.5" font-family="Helvetica,sans-Serif" font-size="10.00">vtkvmtkWin32Header.h</text>
</g>
<!-- Node0&#45;&gt;Node10 -->
<g id="edge57" class="edge"><title>Node0&#45;&gt;Node10</title>
<path fill="none" stroke="midnightblue" d="M1242.42,-446.32C963.816,-437.691 0,-403.302 0,-340.5 0,-340.5 0,-340.5 0,-228.5 0,-68.279 165.877,-110.982 316,-55 360.546,-38.3887 412.917,-27.2036 453.836,-20.2019"/>
<polygon fill="midnightblue" stroke="midnightblue" points="454.425,-23.652 463.713,-18.5546 453.273,-16.7474 454.425,-23.652"/>
</g>
<!-- Node18 -->
<g id="node19" class="node"><title>Node18</title>
<polygon fill="white" stroke="#bfbfbf" points="1345.02,-385.5 1345.02,-403.5 1436.98,-403.5 1436.98,-385.5 1345.02,-385.5"/>
<text text-anchor="middle" x="1391" y="-391.5" font-family="Helvetica,sans-Serif" font-size="10.00">vtkDoubleArray.h</text>
</g>
<!-- Node0&#45;&gt;Node18 -->
<g id="edge55" class="edge"><title>Node0&#45;&gt;Node18</title>
<path fill="none" stroke="midnightblue" d="M1328.24,-440.45C1339.65,-432.279 1357.55,-419.46 1371.31,-409.6"/>
<polygon fill="midnightblue" stroke="midnightblue" points="1373.56,-412.294 1379.66,-403.625 1369.49,-406.603 1373.56,-412.294"/>
</g>
<!-- Node19 -->
<g id="node20" class="node"><title>Node19</title>
<polygon fill="white" stroke="#bfbfbf" points="1454.49,-385.5 1454.49,-403.5 1515.51,-403.5 1515.51,-385.5 1454.49,-385.5"/>
<text text-anchor="middle" x="1485" y="-391.5" font-family="Helvetica,sans-Serif" font-size="10.00">vtkIdList.h</text>
</g>
<!-- Node0&#45;&gt;Node19 -->
<g id="edge56" class="edge"><title>Node0&#45;&gt;Node19</title>
<path fill="none" stroke="midnightblue" d="M1342.52,-440.45C1371.09,-431.436 1417.59,-416.765 1449.66,-406.65"/>
<polygon fill="midnightblue" stroke="midnightblue" points="1451.04,-409.885 1459.52,-403.538 1448.93,-403.209 1451.04,-409.885"/>
</g>
<!-- Node2&#45;&gt;Node1 -->
<g id="edge3" class="edge"><title>Node2&#45;&gt;Node1</title>
<path fill="none" stroke="midnightblue" d="M1203.91,-385.372C1228.94,-369.574 1279,-332.149 1279,-285.5 1279,-285.5 1279,-285.5 1279,-118.5 1279,-70.0291 1127.5,-33.6649 1051.05,-18.4"/>
<polygon fill="midnightblue" stroke="midnightblue" points="1051.72,-14.9635 1041.23,-16.4723 1050.37,-21.8325 1051.72,-14.9635"/>
</g>
<!-- Node3 -->
<g id="node4" class="node"><title>Node3</title>
<g id="a_node4"><a xlink:href="vtkvmtkSparseMatrix_8h.html" target="_top" xlink:title="vtkvmtkSparseMatrix.h">
<polygon fill="white" stroke="black" points="611.434,-330.5 611.434,-348.5 728.566,-348.5 728.566,-330.5 611.434,-330.5"/>
<text text-anchor="middle" x="670" y="-336.5" font-family="Helvetica,sans-Serif" font-size="10.00">vtkvmtkSparseMatrix.h</text>
</a>
</g>
</g>
<!-- Node2&#45;&gt;Node3 -->
<g id="edge4" class="edge"><title>Node2&#45;&gt;Node3</title>
<path fill="none" stroke="midnightblue" d="M1130.1,-387.394C1032.92,-377.49 841.473,-357.977 738.839,-347.516"/>
<polygon fill="midnightblue" stroke="midnightblue" points="739.191,-344.034 728.888,-346.502 738.481,-350.998 739.191,-344.034"/>
</g>
<!-- Node2&#45;&gt;Node10 -->
<g id="edge54" class="edge"><title>Node2&#45;&gt;Node10</title>
<path fill="none" stroke="midnightblue" d="M1182.37,-385.413C1141.7,-342.858 944.579,-143.482 740,-55 693.008,-34.6758 636.206,-23.4557 592.506,-17.3673"/>
<polygon fill="midnightblue" stroke="midnightblue" points="592.918,-13.8914 582.543,-16.036 591.991,-20.8297 592.918,-13.8914"/>
</g>
<!-- Node16 -->
<g id="node17" class="node"><title>Node16</title>
<g id="a_node17"><a xlink:href="vtkvmtkDoubleVector_8h.html" target="_top" xlink:title="vtkvmtkDoubleVector.h">
<polygon fill="white" stroke="black" points="1131.14,-275.5 1131.14,-293.5 1248.86,-293.5 1248.86,-275.5 1131.14,-275.5"/>
<text text-anchor="middle" x="1190" y="-281.5" font-family="Helvetica,sans-Serif" font-size="10.00">vtkvmtkDoubleVector.h</text>
</a>
</g>
</g>
<!-- Node2&#45;&gt;Node16 -->
<g id="edge53" class="edge"><title>Node2&#45;&gt;Node16</title>
<path fill="none" stroke="midnightblue" d="M1190,-385.382C1190,-368.182 1190,-327.698 1190,-303.887"/>
<polygon fill="midnightblue" stroke="midnightblue" points="1193.5,-303.712 1190,-293.712 1186.5,-303.712 1193.5,-303.712"/>
</g>
<!-- Node3&#45;&gt;Node1 -->
<g id="edge5" class="edge"><title>Node3&#45;&gt;Node1</title>
<path fill="none" stroke="midnightblue" d="M720.228,-330.488C798.842,-315.436 951.225,-275.77 1041,-184 1082.71,-141.364 1106.71,-107.279 1078,-55 1070.06,-40.5399 1055.21,-30.1101 1041.22,-22.9992"/>
<polygon fill="midnightblue" stroke="midnightblue" points="1042.31,-19.6473 1031.77,-18.5978 1039.36,-25.9928 1042.31,-19.6473"/>
</g>
<!-- Node4 -->
<g id="node5" class="node"><title>Node4</title>
<g id="a_node5"><a xlink:href="vtkvmtkSparseMatrixRow_8h.html" target="_top" xlink:title="vtkvmtkSparseMatrixRow.h">
<polygon fill="white" stroke="black" points="679.705,-275.5 679.705,-293.5 816.295,-293.5 816.295,-275.5 679.705,-275.5"/>
<text text-anchor="middle" x="748" y="-281.5" font-family="Helvetica,sans-Serif" font-size="10.00">vtkvmtkSparseMatrixRow.h</text>
</a>
</g>
</g>
<!-- Node3&#45;&gt;Node4 -->
<g id="edge6" class="edge"><title>Node3&#45;&gt;Node4</title>
<path fill="none" stroke="midnightblue" d="M681.847,-330.45C693.987,-322.201 713.097,-309.216 727.663,-299.319"/>
<polygon fill="midnightblue" stroke="midnightblue" points="729.738,-302.14 736.042,-293.625 725.804,-296.351 729.738,-302.14"/>
</g>
<!-- Node9 -->
<g id="node10" class="node"><title>Node9</title>
<polygon fill="white" stroke="#bfbfbf" points="153.375,-0.5 153.375,-18.5 226.625,-18.5 226.625,-0.5 153.375,-0.5"/>
<text text-anchor="middle" x="190" y="-6.5" font-family="Helvetica,sans-Serif" font-size="10.00">vtkDataSet.h</text>
</g>
<!-- Node3&#45;&gt;Node9 -->
<g id="edge51" class="edge"><title>Node3&#45;&gt;Node9</title>
<path fill="none" stroke="midnightblue" d="M611.393,-334.618C454.717,-323.461 38,-288.348 38,-230.5 38,-230.5 38,-230.5 38,-118.5 38,-65.0801 101.159,-35.6539 146.051,-21.4854"/>
<polygon fill="midnightblue" stroke="midnightblue" points="147.319,-24.7591 155.888,-18.5287 145.304,-18.0553 147.319,-24.7591"/>
</g>
<!-- Node3&#45;&gt;Node10 -->
<g id="edge52" class="edge"><title>Node3&#45;&gt;Node10</title>
<path fill="none" stroke="midnightblue" d="M611.181,-331.924C514.385,-319.741 328.376,-290.136 290,-239 238.69,-170.631 272.24,-98.2039 346,-55 378.598,-35.9059 419.226,-24.9449 453.333,-18.683"/>
<polygon fill="midnightblue" stroke="midnightblue" points="453.976,-22.1238 463.228,-16.9626 452.777,-15.2272 453.976,-22.1238"/>
</g>
<!-- Node12 -->
<g id="node13" class="node"><title>Node12</title>
<g id="a_node13"><a xlink:href="vtkvmtkNeighborhoods_8h.html" target="_top" xlink:title="vtkvmtkNeighborhoods.h">
<polygon fill="white" stroke="black" points="298.973,-220.5 298.973,-238.5 425.027,-238.5 425.027,-220.5 298.973,-220.5"/>
<text text-anchor="middle" x="362" y="-226.5" font-family="Helvetica,sans-Serif" font-size="10.00">vtkvmtkNeighborhoods.h</text>
</a>
</g>
</g>
<!-- Node3&#45;&gt;Node12 -->
<g id="edge25" class="edge"><title>Node3&#45;&gt;Node12</title>
<path fill="none" stroke="midnightblue" d="M644.785,-330.466C617.603,-321.741 573.104,-307.269 535,-294 484.95,-276.571 427.238,-255.11 392.734,-242.133"/>
<polygon fill="midnightblue" stroke="midnightblue" points="393.816,-238.801 383.225,-238.55 391.348,-245.351 393.816,-238.801"/>
</g>
<!-- Node15 -->
<g id="node16" class="node"><title>Node15</title>
<g id="a_node16"><a xlink:href="vtkvmtkStencils_8h.html" target="_top" xlink:title="vtkvmtkStencils.h">
<polygon fill="white" stroke="black" points="544.379,-275.5 544.379,-293.5 637.621,-293.5 637.621,-275.5 544.379,-275.5"/>
<text text-anchor="middle" x="591" y="-281.5" font-family="Helvetica,sans-Serif" font-size="10.00">vtkvmtkStencils.h</text>
</a>
</g>
</g>
<!-- Node3&#45;&gt;Node15 -->
<g id="edge40" class="edge"><title>Node3&#45;&gt;Node15</title>
<path fill="none" stroke="midnightblue" d="M658.002,-330.45C645.705,-322.201 626.35,-309.216 611.598,-299.319"/>
<polygon fill="midnightblue" stroke="midnightblue" points="613.366,-296.29 603.111,-293.625 609.466,-302.103 613.366,-296.29"/>
</g>
<!-- Node3&#45;&gt;Node16 -->
<g id="edge47" class="edge"><title>Node3&#45;&gt;Node16</title>
<path fill="none" stroke="midnightblue" d="M728.607,-332.98C814.055,-324.861 977.821,-309.03 1117,-294 1118.28,-293.861 1119.58,-293.72 1120.89,-293.577"/>
<polygon fill="midnightblue" stroke="midnightblue" points="1121.49,-297.032 1131.04,-292.45 1120.72,-290.075 1121.49,-297.032"/>
</g>
<!-- Node4&#45;&gt;Node1 -->
<g id="edge7" class="edge"><title>Node4&#45;&gt;Node1</title>
<path fill="none" stroke="midnightblue" d="M805.864,-275.483C881.923,-261.345 1011.55,-223.876 1060,-129 1074.96,-99.7098 1073.75,-84.8745 1060,-55 1054.18,-42.3517 1042.79,-31.9584 1032.15,-24.406"/>
<polygon fill="midnightblue" stroke="midnightblue" points="1033.81,-21.308 1023.53,-18.7431 1029.97,-27.1587 1033.81,-21.308"/>
</g>
<!-- Node5 -->
<g id="node6" class="node"><title>Node5</title>
<g id="a_node6"><a xlink:href="vtkvmtkStencil_8h.html" target="_top" xlink:title="vtkvmtkStencil.h">
<polygon fill="white" stroke="black" points="656.879,-220.5 656.879,-238.5 745.121,-238.5 745.121,-220.5 656.879,-220.5"/>
<text text-anchor="middle" x="701" y="-226.5" font-family="Helvetica,sans-Serif" font-size="10.00">vtkvmtkStencil.h</text>
</a>
</g>
</g>
<!-- Node4&#45;&gt;Node5 -->
<g id="edge8" class="edge"><title>Node4&#45;&gt;Node5</title>
<path fill="none" stroke="midnightblue" d="M740.656,-275.219C733.787,-267.473 723.348,-255.701 714.905,-246.18"/>
<polygon fill="midnightblue" stroke="midnightblue" points="717.392,-243.709 708.138,-238.55 712.155,-248.354 717.392,-243.709"/>
</g>
<!-- Node6 -->
<g id="node7" class="node"><title>Node6</title>
<g id="a_node7"><a xlink:href="vtkvmtkNeighborhood_8h.html" target="_top" xlink:title="vtkvmtkNeighborhood.h">
<polygon fill="white" stroke="black" points="706.473,-165.5 706.473,-183.5 827.527,-183.5 827.527,-165.5 706.473,-165.5"/>
<text text-anchor="middle" x="767" y="-171.5" font-family="Helvetica,sans-Serif" font-size="10.00">vtkvmtkNeighborhood.h</text>
</a>
</g>
</g>
<!-- Node4&#45;&gt;Node6 -->
<g id="edge22" class="edge"><title>Node4&#45;&gt;Node6</title>
<path fill="none" stroke="midnightblue" d="M749.428,-275.382C752.468,-258.104 759.641,-217.329 763.822,-193.563"/>
<polygon fill="midnightblue" stroke="midnightblue" points="767.27,-194.167 765.555,-183.712 760.376,-192.954 767.27,-194.167"/>
</g>
<!-- Node4&#45;&gt;Node10 -->
<g id="edge24" class="edge"><title>Node4&#45;&gt;Node10</title>
<path fill="none" stroke="midnightblue" d="M762.692,-275.296C793.461,-256.976 859.997,-210.746 837,-165 791.167,-73.828 670.312,-35.7849 592.607,-20.4014"/>
<polygon fill="midnightblue" stroke="midnightblue" points="592.89,-16.8926 582.412,-18.4636 591.583,-23.7695 592.89,-16.8926"/>
</g>
<!-- Node11 -->
<g id="node12" class="node"><title>Node11</title>
<g id="a_node12"><a xlink:href="vtkvmtkConstants_8h.html" target="_top" xlink:title="vtkvmtkConstants.h">
<polygon fill="white" stroke="black" points="546.375,-165.5 546.375,-183.5 649.625,-183.5 649.625,-165.5 546.375,-165.5"/>
<text text-anchor="middle" x="598" y="-171.5" font-family="Helvetica,sans-Serif" font-size="10.00">vtkvmtkConstants.h</text>
</a>
</g>
</g>
<!-- Node4&#45;&gt;Node11 -->
<g id="edge23" class="edge"><title>Node4&#45;&gt;Node11</title>
<path fill="none" stroke="midnightblue" d="M721.041,-275.497C699.746,-268.28 670.046,-256.154 648,-239 631.264,-225.978 616.863,-206.201 607.873,-192.183"/>
<polygon fill="midnightblue" stroke="midnightblue" points="610.778,-190.227 602.551,-183.552 604.82,-193.901 610.778,-190.227"/>
</g>
<!-- Node5&#45;&gt;Node1 -->
<g id="edge9" class="edge"><title>Node5&#45;&gt;Node1</title>
<path fill="none" stroke="midnightblue" d="M742.164,-220.43C770.34,-213.654 807.747,-202.114 837,-184 907.664,-140.243 970.608,-61.4213 996.041,-27.158"/>
<polygon fill="midnightblue" stroke="midnightblue" points="999.118,-28.8798 1002.2,-18.7417 993.467,-24.748 999.118,-28.8798"/>
</g>
<!-- Node5&#45;&gt;Node6 -->
<g id="edge10" class="edge"><title>Node5&#45;&gt;Node6</title>
<path fill="none" stroke="midnightblue" d="M711.024,-220.45C721.006,-212.434 736.557,-199.947 748.736,-190.166"/>
<polygon fill="midnightblue" stroke="midnightblue" points="751.276,-192.616 756.882,-183.625 746.893,-187.158 751.276,-192.616"/>
</g>
<!-- Node5&#45;&gt;Node10 -->
<g id="edge21" class="edge"><title>Node5&#45;&gt;Node10</title>
<path fill="none" stroke="midnightblue" d="M697.177,-220.134C690.83,-206.995 677.014,-181.339 659,-165 633.67,-142.026 612.341,-155.72 591,-129 569.739,-102.379 588.621,-84.1581 571,-55 563.909,-43.2655 552.839,-32.7071 543.117,-24.823"/>
<polygon fill="midnightblue" stroke="midnightblue" points="545.114,-21.9434 535.054,-18.6205 540.846,-27.4918 545.114,-21.9434"/>
</g>
<!-- Node6&#45;&gt;Node1 -->
<g id="edge11" class="edge"><title>Node6&#45;&gt;Node1</title>
<path fill="none" stroke="midnightblue" d="M778.951,-165.417C817.498,-139.346 938.85,-57.2693 987.515,-24.3551"/>
<polygon fill="midnightblue" stroke="midnightblue" points="989.654,-27.1336 995.977,-18.632 985.732,-21.3353 989.654,-27.1336"/>
</g>
<!-- Node7 -->
<g id="node8" class="node"><title>Node7</title>
<g id="a_node8"><a xlink:href="vtkvmtkDataSetItem_8h.html" target="_top" xlink:title="vtkvmtkDataSetItem.h">
<polygon fill="white" stroke="black" points="600.096,-110.5 600.096,-128.5 713.904,-128.5 713.904,-110.5 600.096,-110.5"/>
<text text-anchor="middle" x="657" y="-116.5" font-family="Helvetica,sans-Serif" font-size="10.00">vtkvmtkDataSetItem.h</text>
</a>
</g>
</g>
<!-- Node6&#45;&gt;Node7 -->
<g id="edge12" class="edge"><title>Node6&#45;&gt;Node7</title>
<path fill="none" stroke="midnightblue" d="M750.293,-165.45C732.445,-156.851 703.916,-143.105 683.1,-133.075"/>
<polygon fill="midnightblue" stroke="midnightblue" points="684.392,-129.813 673.864,-128.625 681.353,-136.119 684.392,-129.813"/>
</g>
<!-- Node6&#45;&gt;Node10 -->
<g id="edge20" class="edge"><title>Node6&#45;&gt;Node10</title>
<path fill="none" stroke="midnightblue" d="M762.354,-165.255C749.535,-143.334 711.327,-83.3594 662,-55 634.317,-39.0842 600.204,-28.0544 572.701,-20.957"/>
<polygon fill="midnightblue" stroke="midnightblue" points="573.441,-17.5344 562.892,-18.5183 571.752,-24.3276 573.441,-17.5344"/>
</g>
<!-- Node7&#45;&gt;Node1 -->
<g id="edge13" class="edge"><title>Node7&#45;&gt;Node1</title>
<path fill="none" stroke="midnightblue" d="M667.814,-110.466C686.704,-96.8423 727.389,-69.299 766,-55 832.945,-30.2078 915.612,-18.8208 964.947,-13.9023"/>
<polygon fill="midnightblue" stroke="midnightblue" points="965.329,-17.3819 974.951,-12.9484 964.664,-10.4135 965.329,-17.3819"/>
</g>
<!-- Node8 -->
<g id="node9" class="node"><title>Node8</title>
<g id="a_node9"><a xlink:href="vtkvmtkItem_8h.html" target="_top" xlink:title="vtkvmtkItem.h">
<polygon fill="white" stroke="black" points="484.163,-55.5 484.163,-73.5 561.837,-73.5 561.837,-55.5 484.163,-55.5"/>
<text text-anchor="middle" x="523" y="-61.5" font-family="Helvetica,sans-Serif" font-size="10.00">vtkvmtkItem.h</text>
</a>
</g>
</g>
<!-- Node7&#45;&gt;Node8 -->
<g id="edge14" class="edge"><title>Node7&#45;&gt;Node8</title>
<path fill="none" stroke="midnightblue" d="M636.648,-110.45C614.414,-101.656 578.572,-87.4802 553.088,-77.4006"/>
<polygon fill="midnightblue" stroke="midnightblue" points="554.13,-74.0487 543.543,-73.6253 551.555,-80.558 554.13,-74.0487"/>
</g>
<!-- Node7&#45;&gt;Node9 -->
<g id="edge18" class="edge"><title>Node7&#45;&gt;Node9</title>
<path fill="none" stroke="midnightblue" d="M622.281,-110.471C538.847,-91.1755 327.15,-42.2177 234.532,-20.7985"/>
<polygon fill="midnightblue" stroke="midnightblue" points="235.162,-17.352 224.631,-18.5088 233.585,-24.172 235.162,-17.352"/>
</g>
<!-- Node7&#45;&gt;Node10 -->
<g id="edge19" class="edge"><title>Node7&#45;&gt;Node10</title>
<path fill="none" stroke="midnightblue" d="M657.374,-110.398C657.537,-97.1651 655.932,-70.806 642,-55 627.332,-38.3585 605.822,-27.9245 585.111,-21.3891"/>
<polygon fill="midnightblue" stroke="midnightblue" points="585.94,-17.9854 575.361,-18.5681 583.994,-24.7096 585.94,-17.9854"/>
</g>
<!-- Node8&#45;&gt;Node1 -->
<g id="edge15" class="edge"><title>Node8&#45;&gt;Node1</title>
<path fill="none" stroke="midnightblue" d="M562.038,-56.9835C566.737,-56.2748 571.473,-55.5957 576,-55 717.718,-36.3518 886.456,-20.9188 964.471,-14.166"/>
<polygon fill="midnightblue" stroke="midnightblue" points="965.203,-17.6161 974.866,-13.2714 964.602,-10.6419 965.203,-17.6161"/>
</g>
<!-- Node8&#45;&gt;Node9 -->
<g id="edge16" class="edge"><title>Node8&#45;&gt;Node9</title>
<path fill="none" stroke="midnightblue" d="M483.927,-57.2271C479.234,-56.4756 474.509,-55.7199 470,-55 387.865,-41.8869 292.162,-26.6961 236.591,-17.884"/>
<polygon fill="midnightblue" stroke="midnightblue" points="237.119,-14.4241 226.694,-16.3148 236.022,-21.3377 237.119,-14.4241"/>
</g>
<!-- Node8&#45;&gt;Node10 -->
<g id="edge17" class="edge"><title>Node8&#45;&gt;Node10</title>
<path fill="none" stroke="midnightblue" d="M523,-55.2188C523,-48.1769 523,-37.8083 523,-28.8277"/>
<polygon fill="midnightblue" stroke="midnightblue" points="526.5,-28.5495 523,-18.5496 519.5,-28.5496 526.5,-28.5495"/>
</g>
<!-- Node12&#45;&gt;Node1 -->
<g id="edge26" class="edge"><title>Node12&#45;&gt;Node1</title>
<path fill="none" stroke="midnightblue" d="M380.535,-220.449C412.083,-207.049 478.491,-180.15 537,-165 635.039,-139.614 665.389,-159.37 762,-129 834.059,-106.348 846.931,-87.7462 915,-55 937.663,-44.0972 963.465,-31.7572 982.132,-22.842"/>
<polygon fill="midnightblue" stroke="midnightblue" points="983.673,-25.9848 991.189,-18.5179 980.657,-19.6679 983.673,-25.9848"/>
</g>
<!-- Node12&#45;&gt;Node6 -->
<g id="edge37" class="edge"><title>Node12&#45;&gt;Node6</title>
<path fill="none" stroke="midnightblue" d="M423.511,-220.45C496.785,-210.861 618.954,-194.874 696.124,-184.775"/>
<polygon fill="midnightblue" stroke="midnightblue" points="696.776,-188.22 706.237,-183.452 695.868,-181.279 696.776,-188.22"/>
</g>
<!-- Node12&#45;&gt;Node9 -->
<g id="edge38" class="edge"><title>Node12&#45;&gt;Node9</title>
<path fill="none" stroke="midnightblue" d="M345.388,-220.396C330.607,-212.586 309.057,-199.664 294,-184 247.004,-135.111 211.733,-61.2594 197.238,-27.9205"/>
<polygon fill="midnightblue" stroke="midnightblue" points="200.41,-26.434 193.274,-18.6027 193.968,-29.1747 200.41,-26.434"/>
</g>
<!-- Node12&#45;&gt;Node10 -->
<g id="edge39" class="edge"><title>Node12&#45;&gt;Node10</title>
<path fill="none" stroke="midnightblue" d="M344.75,-220.487C331.167,-213.128 313.203,-200.811 305,-184 279.808,-132.372 296.639,-113.383 373,-55 396.159,-37.2938 426.262,-26.6125 453.417,-20.1779"/>
<polygon fill="midnightblue" stroke="midnightblue" points="454.264,-23.5752 463.27,-17.9943 452.75,-16.741 454.264,-23.5752"/>
</g>
<!-- Node12&#45;&gt;Node11 -->
<g id="edge27" class="edge"><title>Node12&#45;&gt;Node11</title>
<path fill="none" stroke="midnightblue" d="M397.843,-220.45C439.202,-211.162 507.291,-195.871 552.39,-185.743"/>
<polygon fill="midnightblue" stroke="midnightblue" points="553.217,-189.145 562.207,-183.538 551.683,-182.315 553.217,-189.145"/>
</g>
<!-- Node13 -->
<g id="node14" class="node"><title>Node13</title>
<g id="a_node14"><a xlink:href="vtkvmtkDataSetItems_8h.html" target="_top" xlink:title="vtkvmtkDataSetItems.h">
<polygon fill="white" stroke="black" points="313.596,-165.5 313.596,-183.5 432.404,-183.5 432.404,-165.5 313.596,-165.5"/>
<text text-anchor="middle" x="373" y="-171.5" font-family="Helvetica,sans-Serif" font-size="10.00">vtkvmtkDataSetItems.h</text>
</a>
</g>
</g>
<!-- Node12&#45;&gt;Node13 -->
<g id="edge28" class="edge"><title>Node12&#45;&gt;Node13</title>
<path fill="none" stroke="midnightblue" d="M363.719,-220.219C365.197,-213.099 367.38,-202.577 369.258,-193.529"/>
<polygon fill="midnightblue" stroke="midnightblue" points="372.724,-194.052 371.329,-183.55 365.87,-192.63 372.724,-194.052"/>
</g>
<!-- Node13&#45;&gt;Node1 -->
<g id="edge29" class="edge"><title>Node13&#45;&gt;Node1</title>
<path fill="none" stroke="midnightblue" d="M432.522,-168.206C517.697,-160.242 669.925,-144.461 723,-129 797.062,-107.425 808.58,-84.1508 880,-55 910.768,-42.4419 946.551,-30.1945 972.448,-21.738"/>
<polygon fill="midnightblue" stroke="midnightblue" points="973.768,-24.9895 982.203,-18.5789 971.611,-18.3299 973.768,-24.9895"/>
</g>
<!-- Node13&#45;&gt;Node9 -->
<g id="edge35" class="edge"><title>Node13&#45;&gt;Node9</title>
<path fill="none" stroke="midnightblue" d="M363.925,-165.417C334.96,-139.617 244.417,-58.9697 206.725,-25.3973"/>
<polygon fill="midnightblue" stroke="midnightblue" points="208.925,-22.6697 199.13,-18.632 204.269,-27.8968 208.925,-22.6697"/>
</g>
<!-- Node13&#45;&gt;Node10 -->
<g id="edge36" class="edge"><title>Node13&#45;&gt;Node10</title>
<path fill="none" stroke="midnightblue" d="M368.996,-165.17C363.655,-152.928 355.48,-129.426 361,-110 368.855,-82.3562 372.579,-72.9774 395,-55 415.73,-38.3782 443.082,-27.7613 467.178,-21.0862"/>
<polygon fill="midnightblue" stroke="midnightblue" points="468.132,-24.4546 476.927,-18.5462 466.367,-17.6807 468.132,-24.4546"/>
</g>
<!-- Node14 -->
<g id="node15" class="node"><title>Node14</title>
<g id="a_node15"><a xlink:href="vtkvmtkItems_8h.html" target="_top" xlink:title="vtkvmtkItems.h">
<polygon fill="white" stroke="black" points="369.663,-110.5 369.663,-128.5 452.337,-128.5 452.337,-110.5 369.663,-110.5"/>
<text text-anchor="middle" x="411" y="-116.5" font-family="Helvetica,sans-Serif" font-size="10.00">vtkvmtkItems.h</text>
</a>
</g>
</g>
<!-- Node13&#45;&gt;Node14 -->
<g id="edge30" class="edge"><title>Node13&#45;&gt;Node14</title>
<path fill="none" stroke="midnightblue" d="M378.938,-165.219C384.379,-157.629 392.591,-146.175 399.342,-136.76"/>
<polygon fill="midnightblue" stroke="midnightblue" points="402.246,-138.716 405.229,-128.55 396.557,-134.637 402.246,-138.716"/>
</g>
<!-- Node14&#45;&gt;Node1 -->
<g id="edge31" class="edge"><title>Node14&#45;&gt;Node1</title>
<path fill="none" stroke="midnightblue" d="M447.755,-110.411C505.837,-97.761 622.474,-72.8932 722,-55 807.902,-39.5561 908.893,-24.5842 964.955,-16.5531"/>
<polygon fill="midnightblue" stroke="midnightblue" points="965.481,-20.0136 974.886,-15.1357 964.492,-13.0838 965.481,-20.0136"/>
</g>
<!-- Node14&#45;&gt;Node8 -->
<g id="edge32" class="edge"><title>Node14&#45;&gt;Node8</title>
<path fill="none" stroke="midnightblue" d="M428.01,-110.45C446.266,-101.812 475.494,-87.9803 496.713,-77.9396"/>
<polygon fill="midnightblue" stroke="midnightblue" points="498.288,-81.0664 505.83,-73.6253 495.293,-74.7391 498.288,-81.0664"/>
</g>
<!-- Node14&#45;&gt;Node9 -->
<g id="edge33" class="edge"><title>Node14&#45;&gt;Node9</title>
<path fill="none" stroke="midnightblue" d="M394.389,-110.382C356.139,-91.6901 261.618,-45.4989 215.768,-23.0923"/>
<polygon fill="midnightblue" stroke="midnightblue" points="217.024,-19.8105 206.502,-18.5644 213.95,-26.0997 217.024,-19.8105"/>
</g>
<!-- Node14&#45;&gt;Node10 -->
<g id="edge34" class="edge"><title>Node14&#45;&gt;Node10</title>
<path fill="none" stroke="midnightblue" d="M406.89,-110.236C401.073,-97.2363 392.368,-71.7682 404,-55 415.615,-38.2557 434.346,-27.8013 453.544,-21.2778"/>
<polygon fill="midnightblue" stroke="midnightblue" points="454.745,-24.5706 463.282,-18.2966 452.696,-17.8772 454.745,-24.5706"/>
</g>
<!-- Node15&#45;&gt;Node1 -->
<g id="edge41" class="edge"><title>Node15&#45;&gt;Node1</title>
<path fill="none" stroke="midnightblue" d="M628.553,-275.431C662.019,-267.728 712.048,-254.948 754,-239 840.929,-205.954 864.925,-193.418 932,-129 955.613,-106.323 963.474,-101.652 981,-74 990.119,-59.613 997.437,-41.6184 1002.14,-28.462"/>
<polygon fill="midnightblue" stroke="midnightblue" points="1005.54,-29.3285 1005.46,-18.734 998.92,-27.0677 1005.54,-29.3285"/>
</g>
<!-- Node15&#45;&gt;Node5 -->
<g id="edge44" class="edge"><title>Node15&#45;&gt;Node5</title>
<path fill="none" stroke="midnightblue" d="M607.707,-275.45C625.555,-266.851 654.084,-253.105 674.9,-243.075"/>
<polygon fill="midnightblue" stroke="midnightblue" points="676.647,-246.119 684.136,-238.625 673.608,-239.813 676.647,-246.119"/>
</g>
<!-- Node15&#45;&gt;Node9 -->
<g id="edge45" class="edge"><title>Node15&#45;&gt;Node9</title>
<path fill="none" stroke="midnightblue" d="M543.932,-283.558C416.798,-282.454 76,-270.623 76,-175.5 76,-175.5 76,-175.5 76,-118.5 76,-71.9745 126.659,-39.4854 160.437,-22.994"/>
<polygon fill="midnightblue" stroke="midnightblue" points="162.304,-25.9848 169.882,-18.5797 159.34,-19.6433 162.304,-25.9848"/>
</g>
<!-- Node15&#45;&gt;Node10 -->
<g id="edge46" class="edge"><title>Node15&#45;&gt;Node10</title>
<path fill="none" stroke="midnightblue" d="M584.455,-275.389C563.363,-248.662 497.256,-160.141 475,-74 472.888,-65.824 471.622,-62.7391 475,-55 480.345,-42.7565 490.903,-32.3735 500.76,-24.7242"/>
<polygon fill="midnightblue" stroke="midnightblue" points="503.02,-27.4099 509.092,-18.7278 498.931,-21.7282 503.02,-27.4099"/>
</g>
<!-- Node15&#45;&gt;Node11 -->
<g id="edge42" class="edge"><title>Node15&#45;&gt;Node11</title>
<path fill="none" stroke="midnightblue" d="M591.526,-275.382C592.641,-258.182 595.265,-217.698 596.808,-193.887"/>
<polygon fill="midnightblue" stroke="midnightblue" points="600.314,-193.917 597.468,-183.712 593.328,-193.464 600.314,-193.917"/>
</g>
<!-- Node15&#45;&gt;Node13 -->
<g id="edge43" class="edge"><title>Node15&#45;&gt;Node13</title>
<path fill="none" stroke="midnightblue" d="M566.895,-275.483C543.453,-267.365 507.077,-253.908 477,-239 446.756,-224.009 413.81,-203.037 393.281,-189.363"/>
<polygon fill="midnightblue" stroke="midnightblue" points="395.027,-186.319 384.776,-183.641 391.119,-192.127 395.027,-186.319"/>
</g>
<!-- Node16&#45;&gt;Node1 -->
<g id="edge48" class="edge"><title>Node16&#45;&gt;Node1</title>
<path fill="none" stroke="midnightblue" d="M1182.73,-275.303C1175.67,-266.841 1165.27,-252.945 1160,-239 1130.84,-161.858 1188.05,-118.973 1136,-55 1115.44,-29.7251 1079.66,-18.7733 1051.15,-14.0445"/>
<polygon fill="midnightblue" stroke="midnightblue" points="1051.42,-10.5465 1041.02,-12.5689 1050.41,-17.4734 1051.42,-10.5465"/>
</g>
<!-- Node16&#45;&gt;Node10 -->
<g id="edge50" class="edge"><title>Node16&#45;&gt;Node10</title>
<path fill="none" stroke="midnightblue" d="M1182.03,-275.408C1148.12,-241.536 1011.08,-110.342 870,-55 820.914,-35.7453 678.795,-22.1391 592.416,-15.3765"/>
<polygon fill="midnightblue" stroke="midnightblue" points="592.667,-11.8855 582.427,-14.6055 592.128,-18.8648 592.667,-11.8855"/>
</g>
<!-- Node17 -->
<g id="node18" class="node"><title>Node17</title>
<polygon fill="white" stroke="#bfbfbf" points="1169.3,-220.5 1169.3,-238.5 1250.7,-238.5 1250.7,-220.5 1169.3,-220.5"/>
<text text-anchor="middle" x="1210" y="-226.5" font-family="Helvetica,sans-Serif" font-size="10.00">vtkDataArray.h</text>
</g>
<!-- Node16&#45;&gt;Node17 -->
<g id="edge49" class="edge"><title>Node16&#45;&gt;Node17</title>
<path fill="none" stroke="midnightblue" d="M1193.12,-275.219C1195.87,-267.942 1199.96,-257.113 1203.42,-247.934"/>
<polygon fill="midnightblue" stroke="midnightblue" points="1206.71,-249.141 1206.96,-238.55 1200.16,-246.67 1206.71,-249.141"/>
</g>
</g>
</svg>
        <g id="navigator" transform="translate(0 0)" fill="#404254">
                <rect fill="#f2f5e9" fill-opacity="0.5" stroke="#606060" stroke-width=".5" x="0" y="0" width="60" height="60"/>
                <use id="zoomplus" xlink:href="#zoomPlus" x="17" y="9" onmousedown="handleZoom(evt,'in')"/>
                <use id="zoomminus" xlink:href="#zoomMin" x="42" y="9" onmousedown="handleZoom(evt,'out')"/>
                <use id="reset" xlink:href="#resetDef" x="30" y="36" onmousedown="handleReset()"/>
                <g id="arrowUp" xlink:href="#dirArrow" transform="translate(30 24)" onmousedown="handlePan(0,-1)">
                  <use xlink:href="#rim" fill="#404040">
                        <set attributeName="fill" to="#808080" begin="arrowUp.mouseover" end="arrowUp.mouseout"/>
                  </use>
                  <path fill="none" stroke="white" stroke-width="1.5" d="M0,-3.0v7 M-2.5,-0.5L0,-3.0L2.5,-0.5"/>
                </g>
                <g id="arrowRight" xlink:href="#dirArrow" transform="rotate(90) translate(36 -43)" onmousedown="handlePan(1,0)">
                  <use xlink:href="#rim" fill="#404040">
                        <set attributeName="fill" to="#808080" begin="arrowRight.mouseover" end="arrowRight.mouseout"/>
                  </use>
                  <path fill="none" stroke="white" stroke-width="1.5" d="M0,-3.0v7 M-2.5,-0.5L0,-3.0L2.5,-0.5"/>
                </g>
                <g id="arrowDown" xlink:href="#dirArrow" transform="rotate(180) translate(-30 -48)" onmousedown="handlePan(0,1)">
                  <use xlink:href="#rim" fill="#404040">
                        <set attributeName="fill" to="#808080" begin="arrowDown.mouseover" end="arrowDown.mouseout"/>
                  </use>
                  <path fill="none" stroke="white" stroke-width="1.5" d="M0,-3.0v7 M-2.5,-0.5L0,-3.0L2.5,-0.5"/>
                </g>
                <g id="arrowLeft" xlink:href="#dirArrow" transform="rotate(270) translate(-36 17)" onmousedown="handlePan(-1,0)">
                  <use xlink:href="#rim" fill="#404040">
                        <set attributeName="fill" to="#808080" begin="arrowLeft.mouseover" end="arrowLeft.mouseout"/>
                  </use>
                  <path fill="none" stroke="white" stroke-width="1.5" d="M0,-3.0v7 M-2.5,-0.5L0,-3.0L2.5,-0.5"/>
                </g>
        </g>
        <svg viewBox="0 0 15 15" width="100%" height="30px" preserveAspectRatio="xMaxYMin meet">
         <g id="arrow_out" transform="scale(0.3 0.3)">
          <a xlink:href="vtkvmtkBoundaryConditions_8h__incl_org.svg" target="_base">
           <rect id="button" ry="5" rx="5" y="6" x="6" height="38" width="38"
                fill="#f2f5e9" fill-opacity="0.5" stroke="#606060" stroke-width="1.0"/>
           <path id="arrow"
             d="M 11.500037,31.436501 C 11.940474,20.09759 22.043105,11.32322 32.158766,21.979434 L 37.068811,17.246167 C 37.068811,17.246167 37.088388,32 37.088388,32 L 22.160133,31.978069 C 22.160133,31.978069 26.997745,27.140456 26.997745,27.140456 C 18.528582,18.264221 13.291696,25.230495 11.500037,31.436501 z"
             style="fill:#404040;"/>
          </a>
         </g>
        </svg>
</svg>
