<?xml version="1.0" encoding="UTF-8" standalone="no"?>
<!DOCTYPE svg PUBLIC "-//W3C//DTD SVG 1.1//EN"
 "http://www.w3.org/Graphics/SVG/1.1/DTD/svg11.dtd">
<!-- Generated by graphviz version 2.38.0 (20140413.2041)
 -->
<!-- Title: vtkvmtkNeighborhoods.h Pages: 1 -->
<!--zoomable 247 -->
<svg id="main" version="1.1" xmlns="http://www.w3.org/2000/svg" xmlns:xlink="http://www.w3.org/1999/xlink" xml:space="preserve" onload="init(evt)">
<style type="text/css"><![CDATA[
.edge:hover path { stroke: red; }
.edge:hover polygon { stroke: red; fill: red; }
]]></style>
<script type="text/javascript"><![CDATA[
var edges = document.getElementsByTagName('g');
if (edges && edges.length) {
  for (var i=0;i<edges.length;i++) {
    if (edges[i].id.substr(0,4)=='edge') {
      edges[i].setAttribute('class','edge');
    }
  }
}
]]></script>
        <defs>
                <circle id="rim" cx="0" cy="0" r="7"/>
                <circle id="rim2" cx="0" cy="0" r="3.5"/>
                <g id="zoomPlus">
                        <use xlink:href="#rim" fill="#404040">
                                <set attributeName="fill" to="#808080" begin="zoomplus.mouseover" end="zoomplus.mouseout"/>
                        </use>
                        <path d="M-4,0h8M0,-4v8" fill="none" stroke="white" stroke-width="1.5" pointer-events="none"/>
                </g>
                <g id="zoomMin">
                        <use xlink:href="#rim" fill="#404040">
                                <set attributeName="fill" to="#808080" begin="zoomminus.mouseover" end="zoomminus.mouseout"/>
                        </use>
                        <path d="M-4,0h8" fill="none" stroke="white" stroke-width="1.5" pointer-events="none"/>
                </g>
                <g id="dirArrow">
                        <path fill="none" stroke="white" stroke-width="1.5" d="M0,-3.0v7 M-2.5,-0.5L0,-3.0L2.5,-0.5"/>
                </g>
               <g id="resetDef">
                       <use xlink:href="#rim2" fill="#404040">
                               <set attributeName="fill" to="#808080" begin="reset.mouseover" end="reset.mouseout"/>
                       </use>
               </g>
        </defs>

<script type="text/javascript">
var viewWidth = 634;
var viewHeight = 247;
var sectionId = 'dynsection-0';
</script>
<script xlink:href="svgpan.js"/>
<svg id="graph" class="graph">
<g id="viewport">
<title>vtkvmtkNeighborhoods.h</title>
<polygon fill="white" stroke="none" points="-4,4 -4,-243 629.878,-243 629.878,4 -4,4"/>
<!-- Node0 -->
<g id="node1" class="node"><title>Node0</title>
<polygon fill="#bfbfbf" stroke="black" points="133.162,-220.5 133.162,-238.5 259.216,-238.5 259.216,-220.5 133.162,-220.5"/>
<text text-anchor="middle" x="196.189" y="-226.5" font-family="Helvetica,sans-Serif" font-size="10.00">vtkvmtkNeighborhoods.h</text>
</g>
<!-- Node1 -->
<g id="node2" class="node"><title>Node1</title>
<polygon fill="white" stroke="#bfbfbf" points="273.179,-0.5 273.179,-18.5 339.198,-18.5 339.198,-0.5 273.179,-0.5"/>
<text text-anchor="middle" x="306.189" y="-6.5" font-family="Helvetica,sans-Serif" font-size="10.00">vtkObject.h</text>
</g>
<!-- Node0&#45;&gt;Node1 -->
<g id="edge1" class="edge"><title>Node0&#45;&gt;Node1</title>
<path fill="none" stroke="midnightblue" d="M189.228,-220.321C179.852,-208.268 165.112,-184.998 172.189,-165 194.276,-102.585 255.282,-49.1245 286.791,-24.6882"/>
<polygon fill="midnightblue" stroke="midnightblue" points="288.988,-27.4147 294.839,-18.5822 284.757,-21.838 288.988,-27.4147"/>
</g>
<!-- Node2 -->
<g id="node3" class="node"><title>Node2</title>
<g id="a_node3"><a xlink:href="vtkvmtkConstants_8h.html" target="_top" xlink:title="vtkvmtkConstants.h">
<polygon fill="white" stroke="black" points="21.5632,-165.5 21.5632,-183.5 124.814,-183.5 124.814,-165.5 21.5632,-165.5"/>
<text text-anchor="middle" x="73.1887" y="-171.5" font-family="Helvetica,sans-Serif" font-size="10.00">vtkvmtkConstants.h</text>
</a>
</g>
</g>
<!-- Node0&#45;&gt;Node2 -->
<g id="edge2" class="edge"><title>Node0&#45;&gt;Node2</title>
<path fill="none" stroke="midnightblue" d="M177.508,-220.45C157.279,-211.734 124.781,-197.731 101.43,-187.669"/>
<polygon fill="midnightblue" stroke="midnightblue" points="102.614,-184.368 92.0456,-183.625 99.8443,-190.797 102.614,-184.368"/>
</g>
<!-- Node3 -->
<g id="node4" class="node"><title>Node3</title>
<g id="a_node4"><a xlink:href="vtkvmtkDataSetItems_8h.html" target="_top" xlink:title="vtkvmtkDataSetItems.h">
<polygon fill="white" stroke="black" points="180.785,-165.5 180.785,-183.5 299.593,-183.5 299.593,-165.5 180.785,-165.5"/>
<text text-anchor="middle" x="240.189" y="-171.5" font-family="Helvetica,sans-Serif" font-size="10.00">vtkvmtkDataSetItems.h</text>
</a>
</g>
</g>
<!-- Node0&#45;&gt;Node3 -->
<g id="edge3" class="edge"><title>Node0&#45;&gt;Node3</title>
<path fill="none" stroke="midnightblue" d="M203.064,-220.219C209.429,-212.551 219.07,-200.939 226.931,-191.469"/>
<polygon fill="midnightblue" stroke="midnightblue" points="229.811,-193.479 233.506,-183.55 224.426,-189.008 229.811,-193.479"/>
</g>
<!-- Node6 -->
<g id="node7" class="node"><title>Node6</title>
<polygon fill="white" stroke="#bfbfbf" points="103.563,-0.5 103.563,-18.5 176.814,-18.5 176.814,-0.5 103.563,-0.5"/>
<text text-anchor="middle" x="140.189" y="-6.5" font-family="Helvetica,sans-Serif" font-size="10.00">vtkDataSet.h</text>
</g>
<!-- Node0&#45;&gt;Node6 -->
<g id="edge23" class="edge"><title>Node0&#45;&gt;Node6</title>
<path fill="none" stroke="midnightblue" d="M133.127,-221.56C85.9782,-214.918 27.1786,-203.047 12.1887,-184 -33.8202,-125.537 68.762,-53.2753 116.944,-23.8787"/>
<polygon fill="midnightblue" stroke="midnightblue" points="119.008,-26.7229 125.796,-18.5877 115.416,-20.7146 119.008,-26.7229"/>
</g>
<!-- Node7 -->
<g id="node8" class="node"><title>Node7</title>
<polygon fill="white" stroke="#bfbfbf" points="461.778,-0.5 461.778,-18.5 580.6,-18.5 580.6,-0.5 461.778,-0.5"/>
<text text-anchor="middle" x="521.189" y="-6.5" font-family="Helvetica,sans-Serif" font-size="10.00">vtkvmtkWin32Header.h</text>
</g>
<!-- Node0&#45;&gt;Node7 -->
<g id="edge24" class="edge"><title>Node0&#45;&gt;Node7</title>
<path fill="none" stroke="midnightblue" d="M259.26,-226.555C350.707,-222.794 514.8,-212.233 566.189,-184 619.407,-154.762 643.227,-106.582 611.189,-55 601.348,-39.1566 584.011,-28.7832 567.163,-22.0751"/>
<polygon fill="midnightblue" stroke="midnightblue" points="567.954,-18.6397 557.36,-18.5353 565.577,-25.2236 567.954,-18.6397"/>
</g>
<!-- Node8 -->
<g id="node9" class="node"><title>Node8</title>
<g id="a_node9"><a xlink:href="vtkvmtkNeighborhood_8h.html" target="_top" xlink:title="vtkvmtkNeighborhood.h">
<polygon fill="white" stroke="black" points="435.662,-165.5 435.662,-183.5 556.716,-183.5 556.716,-165.5 435.662,-165.5"/>
<text text-anchor="middle" x="496.189" y="-171.5" font-family="Helvetica,sans-Serif" font-size="10.00">vtkvmtkNeighborhood.h</text>
</a>
</g>
</g>
<!-- Node0&#45;&gt;Node8 -->
<g id="edge15" class="edge"><title>Node0&#45;&gt;Node8</title>
<path fill="none" stroke="midnightblue" d="M241.752,-220.45C295.1,-211.026 383.434,-195.42 440.72,-185.299"/>
<polygon fill="midnightblue" stroke="midnightblue" points="441.45,-188.725 450.689,-183.538 440.232,-181.831 441.45,-188.725"/>
</g>
<!-- Node3&#45;&gt;Node1 -->
<g id="edge4" class="edge"><title>Node3&#45;&gt;Node1</title>
<path fill="none" stroke="midnightblue" d="M240.182,-165.451C240.395,-153.168 241.702,-129.154 248.189,-110 258.882,-78.4263 280.246,-45.7771 293.847,-26.8442"/>
<polygon fill="midnightblue" stroke="midnightblue" points="296.719,-28.8474 299.82,-18.7166 291.078,-24.7022 296.719,-28.8474"/>
</g>
<!-- Node4 -->
<g id="node5" class="node"><title>Node4</title>
<g id="a_node5"><a xlink:href="vtkvmtkItems_8h.html" target="_top" xlink:title="vtkvmtkItems.h">
<polygon fill="white" stroke="black" points="256.851,-110.5 256.851,-128.5 339.526,-128.5 339.526,-110.5 256.851,-110.5"/>
<text text-anchor="middle" x="298.189" y="-116.5" font-family="Helvetica,sans-Serif" font-size="10.00">vtkvmtkItems.h</text>
</a>
</g>
</g>
<!-- Node3&#45;&gt;Node4 -->
<g id="edge5" class="edge"><title>Node3&#45;&gt;Node4</title>
<path fill="none" stroke="midnightblue" d="M249.251,-165.219C257.985,-157.238 271.395,-144.984 281.97,-135.321"/>
<polygon fill="midnightblue" stroke="midnightblue" points="284.359,-137.879 289.38,-128.55 279.637,-132.712 284.359,-137.879"/>
</g>
<!-- Node3&#45;&gt;Node6 -->
<g id="edge13" class="edge"><title>Node3&#45;&gt;Node6</title>
<path fill="none" stroke="midnightblue" d="M235.092,-165.193C219.443,-139.684 171.861,-62.1258 150.62,-27.5036"/>
<polygon fill="midnightblue" stroke="midnightblue" points="153.369,-25.2906 145.156,-18.5971 147.402,-28.9512 153.369,-25.2906"/>
</g>
<!-- Node3&#45;&gt;Node7 -->
<g id="edge14" class="edge"><title>Node3&#45;&gt;Node7</title>
<path fill="none" stroke="midnightblue" d="M299.687,-170.364C365.235,-165.672 464.995,-154.476 492.189,-129 520.06,-102.89 523.056,-54.7708 522.391,-28.6013"/>
<polygon fill="midnightblue" stroke="midnightblue" points="525.886,-28.3944 521.925,-18.5679 518.893,-28.7197 525.886,-28.3944"/>
</g>
<!-- Node4&#45;&gt;Node1 -->
<g id="edge6" class="edge"><title>Node4&#45;&gt;Node1</title>
<path fill="none" stroke="midnightblue" d="M298.79,-110.382C300.064,-93.1822 303.063,-52.698 304.827,-28.8866"/>
<polygon fill="midnightblue" stroke="midnightblue" points="308.332,-28.943 305.58,-18.7118 301.351,-28.4258 308.332,-28.943"/>
</g>
<!-- Node5 -->
<g id="node6" class="node"><title>Node5</title>
<g id="a_node6"><a xlink:href="vtkvmtkItem_8h.html" target="_top" xlink:title="vtkvmtkItem.h">
<polygon fill="white" stroke="black" points="320.351,-55.5 320.351,-73.5 398.026,-73.5 398.026,-55.5 320.351,-55.5"/>
<text text-anchor="middle" x="359.189" y="-61.5" font-family="Helvetica,sans-Serif" font-size="10.00">vtkvmtkItem.h</text>
</a>
</g>
</g>
<!-- Node4&#45;&gt;Node5 -->
<g id="edge7" class="edge"><title>Node4&#45;&gt;Node5</title>
<path fill="none" stroke="midnightblue" d="M307.453,-110.45C316.59,-102.512 330.773,-90.1891 341.98,-80.4519"/>
<polygon fill="midnightblue" stroke="midnightblue" points="344.584,-82.8261 349.837,-73.6253 339.993,-77.542 344.584,-82.8261"/>
</g>
<!-- Node4&#45;&gt;Node6 -->
<g id="edge11" class="edge"><title>Node4&#45;&gt;Node6</title>
<path fill="none" stroke="midnightblue" d="M286.313,-110.382C259.548,-92.0876 194.247,-47.4511 160.749,-24.5536"/>
<polygon fill="midnightblue" stroke="midnightblue" points="162.433,-21.4654 152.202,-18.7118 158.483,-27.2444 162.433,-21.4654"/>
</g>
<!-- Node4&#45;&gt;Node7 -->
<g id="edge12" class="edge"><title>Node4&#45;&gt;Node7</title>
<path fill="none" stroke="midnightblue" d="M320.241,-110.395C342.502,-102.005 377.711,-88.1634 407.189,-74 439.886,-58.2894 476.281,-37.389 498.955,-23.9376"/>
<polygon fill="midnightblue" stroke="midnightblue" points="500.991,-26.7982 507.782,-18.6656 497.402,-20.7885 500.991,-26.7982"/>
</g>
<!-- Node5&#45;&gt;Node1 -->
<g id="edge8" class="edge"><title>Node5&#45;&gt;Node1</title>
<path fill="none" stroke="midnightblue" d="M350.907,-55.2188C343.083,-47.3944 331.152,-35.4631 321.581,-25.8921"/>
<polygon fill="midnightblue" stroke="midnightblue" points="323.784,-23.1458 314.238,-18.5496 318.835,-28.0955 323.784,-23.1458"/>
</g>
<!-- Node5&#45;&gt;Node6 -->
<g id="edge9" class="edge"><title>Node5&#45;&gt;Node6</title>
<path fill="none" stroke="midnightblue" d="M325.927,-55.4504C287.79,-46.2209 225.159,-31.0635 183.307,-20.935"/>
<polygon fill="midnightblue" stroke="midnightblue" points="183.946,-17.4888 173.404,-18.5383 182.3,-24.2924 183.946,-17.4888"/>
</g>
<!-- Node5&#45;&gt;Node7 -->
<g id="edge10" class="edge"><title>Node5&#45;&gt;Node7</title>
<path fill="none" stroke="midnightblue" d="M383.793,-55.4504C411.348,-46.4355 456.189,-31.7653 487.109,-21.6496"/>
<polygon fill="midnightblue" stroke="midnightblue" points="488.203,-24.9743 496.619,-18.5383 486.026,-18.3213 488.203,-24.9743"/>
</g>
<!-- Node8&#45;&gt;Node1 -->
<g id="edge16" class="edge"><title>Node8&#45;&gt;Node1</title>
<path fill="none" stroke="midnightblue" d="M497.642,-165.153C499.43,-152.48 501.217,-127.963 492.189,-110 464.974,-55.8512 395.221,-30.1311 349.297,-18.7125"/>
<polygon fill="midnightblue" stroke="midnightblue" points="349.852,-15.2473 339.315,-16.3611 348.246,-22.0609 349.852,-15.2473"/>
</g>
<!-- Node8&#45;&gt;Node7 -->
<g id="edge22" class="edge"><title>Node8&#45;&gt;Node7</title>
<path fill="none" stroke="midnightblue" d="M537.152,-165.367C557.39,-159.06 580.027,-148.043 592.189,-129 609.891,-101.282 608.114,-83.7761 592.189,-55 584.041,-40.278 568.763,-29.7752 554.46,-22.6843"/>
<polygon fill="midnightblue" stroke="midnightblue" points="555.838,-19.466 545.286,-18.5072 552.937,-25.8367 555.838,-19.466"/>
</g>
<!-- Node9 -->
<g id="node10" class="node"><title>Node9</title>
<g id="a_node10"><a xlink:href="vtkvmtkDataSetItem_8h.html" target="_top" xlink:title="vtkvmtkDataSetItem.h">
<polygon fill="white" stroke="black" points="369.285,-110.5 369.285,-128.5 483.093,-128.5 483.093,-110.5 369.285,-110.5"/>
<text text-anchor="middle" x="426.189" y="-116.5" font-family="Helvetica,sans-Serif" font-size="10.00">vtkvmtkDataSetItem.h</text>
</a>
</g>
</g>
<!-- Node8&#45;&gt;Node9 -->
<g id="edge17" class="edge"><title>Node8&#45;&gt;Node9</title>
<path fill="none" stroke="midnightblue" d="M485.557,-165.45C474.867,-157.357 458.156,-144.704 445.184,-134.882"/>
<polygon fill="midnightblue" stroke="midnightblue" points="447.006,-131.871 436.92,-128.625 442.78,-137.452 447.006,-131.871"/>
</g>
<!-- Node9&#45;&gt;Node1 -->
<g id="edge18" class="edge"><title>Node9&#45;&gt;Node1</title>
<path fill="none" stroke="midnightblue" d="M425.881,-110.452C424.965,-97.2959 421.354,-71.0451 407.189,-55 392.149,-37.9649 369.369,-27.1631 349.247,-20.4751"/>
<polygon fill="midnightblue" stroke="midnightblue" points="350.215,-17.1112 339.628,-17.5131 348.155,-23.8012 350.215,-17.1112"/>
</g>
<!-- Node9&#45;&gt;Node5 -->
<g id="edge19" class="edge"><title>Node9&#45;&gt;Node5</title>
<path fill="none" stroke="midnightblue" d="M416.013,-110.45C405.781,-102.357 389.786,-89.7042 377.37,-79.8822"/>
<polygon fill="midnightblue" stroke="midnightblue" points="379.475,-77.0844 369.46,-73.6253 375.132,-82.5744 379.475,-77.0844"/>
</g>
<!-- Node9&#45;&gt;Node6 -->
<g id="edge20" class="edge"><title>Node9&#45;&gt;Node6</title>
<path fill="none" stroke="midnightblue" d="M404.692,-110.382C354.466,-91.4158 229.265,-44.1372 170.964,-22.1213"/>
<polygon fill="midnightblue" stroke="midnightblue" points="172.136,-18.8229 161.545,-18.5644 169.663,-25.3715 172.136,-18.8229"/>
</g>
<!-- Node9&#45;&gt;Node7 -->
<g id="edge21" class="edge"><title>Node9&#45;&gt;Node7</title>
<path fill="none" stroke="midnightblue" d="M437.299,-110.401C448.377,-102.017 465.523,-88.1783 478.189,-74 491.179,-59.4582 503.379,-40.7724 511.442,-27.4433"/>
<polygon fill="midnightblue" stroke="midnightblue" points="514.463,-29.2107 516.534,-18.8202 508.435,-25.6515 514.463,-29.2107"/>
</g>
</g>
</svg>
        <g id="navigator" transform="translate(0 0)" fill="#404254">
                <rect fill="#f2f5e9" fill-opacity="0.5" stroke="#606060" stroke-width=".5" x="0" y="0" width="60" height="60"/>
                <use id="zoomplus" xlink:href="#zoomPlus" x="17" y="9" onmousedown="handleZoom(evt,'in')"/>
                <use id="zoomminus" xlink:href="#zoomMin" x="42" y="9" onmousedown="handleZoom(evt,'out')"/>
                <use id="reset" xlink:href="#resetDef" x="30" y="36" onmousedown="handleReset()"/>
                <g id="arrowUp" xlink:href="#dirArrow" transform="translate(30 24)" onmousedown="handlePan(0,-1)">
                  <use xlink:href="#rim" fill="#404040">
                        <set attributeName="fill" to="#808080" begin="arrowUp.mouseover" end="arrowUp.mouseout"/>
                  </use>
                  <path fill="none" stroke="white" stroke-width="1.5" d="M0,-3.0v7 M-2.5,-0.5L0,-3.0L2.5,-0.5"/>
                </g>
                <g id="arrowRight" xlink:href="#dirArrow" transform="rotate(90) translate(36 -43)" onmousedown="handlePan(1,0)">
                  <use xlink:href="#rim" fill="#404040">
                        <set attributeName="fill" to="#808080" begin="arrowRight.mouseover" end="arrowRight.mouseout"/>
                  </use>
                  <path fill="none" stroke="white" stroke-width="1.5" d="M0,-3.0v7 M-2.5,-0.5L0,-3.0L2.5,-0.5"/>
                </g>
                <g id="arrowDown" xlink:href="#dirArrow" transform="rotate(180) translate(-30 -48)" onmousedown="handlePan(0,1)">
                  <use xlink:href="#rim" fill="#404040">
                        <set attributeName="fill" to="#808080" begin="arrowDown.mouseover" end="arrowDown.mouseout"/>
                  </use>
                  <path fill="none" stroke="white" stroke-width="1.5" d="M0,-3.0v7 M-2.5,-0.5L0,-3.0L2.5,-0.5"/>
                </g>
                <g id="arrowLeft" xlink:href="#dirArrow" transform="rotate(270) translate(-36 17)" onmousedown="handlePan(-1,0)">
                  <use xlink:href="#rim" fill="#404040">
                        <set attributeName="fill" to="#808080" begin="arrowLeft.mouseover" end="arrowLeft.mouseout"/>
                  </use>
                  <path fill="none" stroke="white" stroke-width="1.5" d="M0,-3.0v7 M-2.5,-0.5L0,-3.0L2.5,-0.5"/>
                </g>
        </g>
        <svg viewBox="0 0 15 15" width="100%" height="30px" preserveAspectRatio="xMaxYMin meet">
         <g id="arrow_out" transform="scale(0.3 0.3)">
          <a xlink:href="vtkvmtkNeighborhoods_8h__incl_org.svg" target="_base">
           <rect id="button" ry="5" rx="5" y="6" x="6" height="38" width="38"
                fill="#f2f5e9" fill-opacity="0.5" stroke="#606060" stroke-width="1.0"/>
           <path id="arrow"
             d="M 11.500037,31.436501 C 11.940474,20.09759 22.043105,11.32322 32.158766,21.979434 L 37.068811,17.246167 C 37.068811,17.246167 37.088388,32 37.088388,32 L 22.160133,31.978069 C 22.160133,31.978069 26.997745,27.140456 26.997745,27.140456 C 18.528582,18.264221 13.291696,25.230495 11.500037,31.436501 z"
             style="fill:#404040;"/>
          </a>
         </g>
        </svg>
</svg>
