<?xml version="1.0" encoding="UTF-8" standalone="no"?>
<!DOCTYPE svg PUBLIC "-//W3C//DTD SVG 1.1//EN"
 "http://www.w3.org/Graphics/SVG/1.1/DTD/svg11.dtd">
<!-- Generated by graphviz version 2.38.0 (20140413.2041)
 -->
<!-- Title: vtkvmtkStencil.h Pages: 1 -->
<svg width="1559pt" height="397pt"
 viewBox="0.00 0.00 1558.56 397.00" xmlns="http://www.w3.org/2000/svg" xmlns:xlink="http://www.w3.org/1999/xlink">
<g id="graph0" class="graph" transform="scale(1 1) rotate(0) translate(4 393)">
<title>vtkvmtkStencil.h</title>
<polygon fill="white" stroke="none" points="-4,4 -4,-393 1554.56,-393 1554.56,4 -4,4"/>
<!-- Node7 -->
<g id="node1" class="node"><title>Node7</title>
<polygon fill="#bfbfbf" stroke="black" points="746.022,-370.5 746.022,-388.5 834.263,-388.5 834.263,-370.5 746.022,-370.5"/>
<text text-anchor="middle" x="790.143" y="-376.5" font-family="Helvetica,sans-Serif" font-size="10.00">vtkvmtkStencil.h</text>
</g>
<!-- Node8 -->
<g id="node2" class="node"><title>Node8</title>
<g id="a_node2"><a xlink:href="vtkvmtkSparseMatrixRow_8h.html" target="_top" xlink:title="vtkvmtkSparseMatrixRow.h">
<polygon fill="white" stroke="black" points="520.847,-315.5 520.847,-333.5 657.438,-333.5 657.438,-315.5 520.847,-315.5"/>
<text text-anchor="middle" x="589.143" y="-321.5" font-family="Helvetica,sans-Serif" font-size="10.00">vtkvmtkSparseMatrixRow.h</text>
</a>
</g>
</g>
<!-- Node7&#45;&gt;Node8 -->
<g id="edge1" class="edge"><title>Node7&#45;&gt;Node8</title>
<path fill="none" stroke="midnightblue" d="M749.788,-367.859C711.366,-357.728 654.39,-342.705 619.627,-333.538"/>
<polygon fill="midnightblue" stroke="midnightblue" points="749.053,-371.285 759.615,-370.45 750.838,-364.516 749.053,-371.285"/>
</g>
<!-- Node22 -->
<g id="node16" class="node"><title>Node22</title>
<g id="a_node16"><a xlink:href="vtkvmtkStencils_8h.html" target="_top" xlink:title="vtkvmtkStencils.h">
<polygon fill="white" stroke="black" points="682.522,-315.5 682.522,-333.5 775.763,-333.5 775.763,-315.5 682.522,-315.5"/>
<text text-anchor="middle" x="729.143" y="-321.5" font-family="Helvetica,sans-Serif" font-size="10.00">vtkvmtkStencils.h</text>
</a>
</g>
</g>
<!-- Node7&#45;&gt;Node22 -->
<g id="edge16" class="edge"><title>Node7&#45;&gt;Node22</title>
<path fill="none" stroke="midnightblue" d="M773.04,-363.641C761.852,-353.92 747.663,-341.591 738.494,-333.625"/>
<polygon fill="midnightblue" stroke="midnightblue" points="771.034,-366.534 780.878,-370.45 775.625,-361.25 771.034,-366.534"/>
</g>
<!-- Node24 -->
<g id="node18" class="node"><title>Node24</title>
<g id="a_node18"><a xlink:href="vtkvmtkEmptyStencil_8h.html" target="_top" xlink:title="vtkvmtkEmptyStencil.h">
<polygon fill="white" stroke="black" points="793.852,-315.5 793.852,-333.5 910.433,-333.5 910.433,-315.5 793.852,-315.5"/>
<text text-anchor="middle" x="852.143" y="-321.5" font-family="Helvetica,sans-Serif" font-size="10.00">vtkvmtkEmptyStencil.h</text>
</a>
</g>
</g>
<!-- Node7&#45;&gt;Node24 -->
<g id="edge19" class="edge"><title>Node7&#45;&gt;Node24</title>
<path fill="none" stroke="midnightblue" d="M807.191,-363.926C818.613,-354.162 833.227,-341.669 842.637,-333.625"/>
<polygon fill="midnightblue" stroke="midnightblue" points="804.886,-361.292 799.559,-370.45 809.435,-366.613 804.886,-361.292"/>
</g>
<!-- Node25 -->
<g id="node19" class="node"><title>Node25</title>
<g id="a_node19"><a xlink:href="vtkvmtkPolyDataManifoldStencil_8h.html" target="_top" xlink:title="vtkvmtkPolyDataManifoldStencil.h">
<polygon fill="white" stroke="black" points="1013.83,-315.5 1013.83,-333.5 1180.45,-333.5 1180.45,-315.5 1013.83,-315.5"/>
<text text-anchor="middle" x="1097.14" y="-321.5" font-family="Helvetica,sans-Serif" font-size="10.00">vtkvmtkPolyDataManifoldStencil.h</text>
</a>
</g>
</g>
<!-- Node7&#45;&gt;Node25 -->
<g id="edge20" class="edge"><title>Node7&#45;&gt;Node25</title>
<path fill="none" stroke="midnightblue" d="M844.625,-369.094C903.184,-358.985 995.283,-343.085 1050.58,-333.538"/>
<polygon fill="midnightblue" stroke="midnightblue" points="843.714,-365.7 834.455,-370.85 844.905,-372.598 843.714,-365.7"/>
</g>
<!-- Node9 -->
<g id="node3" class="node"><title>Node9</title>
<g id="a_node3"><a xlink:href="vtkvmtkSparseMatrix_8h.html" target="_top" xlink:title="vtkvmtkSparseMatrix.h">
<polygon fill="white" stroke="black" points="523.576,-255.5 523.576,-273.5 640.709,-273.5 640.709,-255.5 523.576,-255.5"/>
<text text-anchor="middle" x="582.143" y="-261.5" font-family="Helvetica,sans-Serif" font-size="10.00">vtkvmtkSparseMatrix.h</text>
</a>
</g>
</g>
<!-- Node8&#45;&gt;Node9 -->
<g id="edge2" class="edge"><title>Node8&#45;&gt;Node9</title>
<path fill="none" stroke="midnightblue" d="M586.936,-305.214C585.668,-294.714 584.138,-282.033 583.153,-273.872"/>
<polygon fill="midnightblue" stroke="midnightblue" points="583.496,-305.927 588.169,-315.435 590.446,-305.088 583.496,-305.927"/>
</g>
<!-- Node10 -->
<g id="node4" class="node"><title>Node10</title>
<g id="a_node4"><a xlink:href="vtkvmtkLinearSystem_8h.html" target="_top" xlink:title="vtkvmtkLinearSystem.h">
<polygon fill="white" stroke="black" points="167.46,-190.5 167.46,-208.5 286.825,-208.5 286.825,-190.5 167.46,-190.5"/>
<text text-anchor="middle" x="227.143" y="-196.5" font-family="Helvetica,sans-Serif" font-size="10.00">vtkvmtkLinearSystem.h</text>
</a>
</g>
</g>
<!-- Node9&#45;&gt;Node10 -->
<g id="edge3" class="edge"><title>Node9&#45;&gt;Node10</title>
<path fill="none" stroke="midnightblue" d="M526.857,-253.689C456.813,-241.258 337.419,-220.07 272.474,-208.545"/>
<polygon fill="midnightblue" stroke="midnightblue" points="526.363,-257.156 536.821,-255.457 527.586,-250.263 526.363,-257.156"/>
</g>
<!-- Node16 -->
<g id="node10" class="node"><title>Node16</title>
<g id="a_node10"><a xlink:href="vtkvmtkFEAssembler_8h.html" target="_top" xlink:title="vtkvmtkFEAssembler.h">
<polygon fill="white" stroke="black" points="627.295,-190.5 627.295,-208.5 744.99,-208.5 744.99,-190.5 627.295,-190.5"/>
<text text-anchor="middle" x="686.143" y="-196.5" font-family="Helvetica,sans-Serif" font-size="10.00">vtkvmtkFEAssembler.h</text>
</a>
</g>
</g>
<!-- Node9&#45;&gt;Node16 -->
<g id="edge10" class="edge"><title>Node9&#45;&gt;Node16</title>
<path fill="none" stroke="midnightblue" d="M604.553,-249.924C625.365,-237.317 655.655,-218.968 672.872,-208.539"/>
<polygon fill="midnightblue" stroke="midnightblue" points="602.478,-247.089 595.739,-255.264 606.105,-253.076 602.478,-247.089"/>
</g>
<!-- Node11 -->
<g id="node5" class="node"><title>Node11</title>
<g id="a_node5"><a xlink:href="vtkvmtkBoundaryConditions_8h.html" target="_top" xlink:title="vtkvmtkBoundaryConditions.h">
<polygon fill="white" stroke="black" points="0,-125.5 0,-143.5 148.285,-143.5 148.285,-125.5 0,-125.5"/>
<text text-anchor="middle" x="74.1426" y="-131.5" font-family="Helvetica,sans-Serif" font-size="10.00">vtkvmtkBoundaryConditions.h</text>
</a>
</g>
</g>
<!-- Node10&#45;&gt;Node11 -->
<g id="edge4" class="edge"><title>Node10&#45;&gt;Node11</title>
<path fill="none" stroke="midnightblue" d="M198.162,-186.567C167.581,-173.975 120.225,-154.475 93.7559,-143.576"/>
<polygon fill="midnightblue" stroke="midnightblue" points="196.874,-189.822 207.454,-190.393 199.54,-183.349 196.874,-189.822"/>
</g>
<!-- Node13 -->
<g id="node7" class="node"><title>Node13</title>
<g id="a_node7"><a xlink:href="vtkvmtkEllipticProblem_8h.html" target="_top" xlink:title="vtkvmtkEllipticProblem.h">
<polygon fill="white" stroke="black" points="64.9629,-0.5 64.9629,-18.5 189.322,-18.5 189.322,-0.5 64.9629,-0.5"/>
<text text-anchor="middle" x="127.143" y="-6.5" font-family="Helvetica,sans-Serif" font-size="10.00">vtkvmtkEllipticProblem.h</text>
</a>
</g>
</g>
<!-- Node10&#45;&gt;Node13 -->
<g id="edge7" class="edge"><title>Node10&#45;&gt;Node13</title>
<path fill="none" stroke="midnightblue" d="M215.563,-181.917C209.189,-172.474 201.341,-160.306 195.143,-149 173.058,-108.715 172.967,-95.9507 152.143,-55 145.555,-42.046 137.148,-27.4265 131.956,-18.5918"/>
<polygon fill="midnightblue" stroke="midnightblue" points="212.784,-184.053 221.328,-190.318 218.555,-180.092 212.784,-184.053"/>
</g>
<!-- Node14 -->
<g id="node8" class="node"><title>Node14</title>
<g id="a_node8"><a xlink:href="vtkvmtkLinearSystemSolver_8h.html" target="_top" xlink:title="vtkvmtkLinearSystemSolver.h">
<polygon fill="white" stroke="black" points="204.562,-125.5 204.562,-143.5 351.724,-143.5 351.724,-125.5 204.562,-125.5"/>
<text text-anchor="middle" x="278.143" y="-131.5" font-family="Helvetica,sans-Serif" font-size="10.00">vtkvmtkLinearSystemSolver.h</text>
</a>
</g>
</g>
<!-- Node10&#45;&gt;Node14 -->
<g id="edge8" class="edge"><title>Node10&#45;&gt;Node14</title>
<path fill="none" stroke="midnightblue" d="M240.116,-182.474C250.186,-170.034 263.724,-153.311 271.635,-143.539"/>
<polygon fill="midnightblue" stroke="midnightblue" points="237.382,-180.289 233.81,-190.264 242.822,-184.694 237.382,-180.289"/>
</g>
<!-- Node12 -->
<g id="node6" class="node"><title>Node12</title>
<g id="a_node6"><a xlink:href="vtkvmtkDirichletBoundaryConditions_8h.html" target="_top" xlink:title="vtkvmtkDirichletBoundary\lConditions.h">
<polygon fill="white" stroke="black" points="14.7363,-55.5 14.7363,-83.5 143.549,-83.5 143.549,-55.5 14.7363,-55.5"/>
<text text-anchor="start" x="22.7363" y="-71.5" font-family="Helvetica,sans-Serif" font-size="10.00">vtkvmtkDirichletBoundary</text>
<text text-anchor="middle" x="79.1426" y="-61.5" font-family="Helvetica,sans-Serif" font-size="10.00">Conditions.h</text>
</a>
</g>
</g>
<!-- Node11&#45;&gt;Node12 -->
<g id="edge5" class="edge"><title>Node11&#45;&gt;Node12</title>
<path fill="none" stroke="midnightblue" d="M75.5999,-115.137C76.3962,-105.105 77.3643,-92.906 78.0872,-83.7981"/>
<polygon fill="midnightblue" stroke="midnightblue" points="72.0985,-115.018 74.7962,-125.264 79.0765,-115.572 72.0985,-115.018"/>
</g>
<!-- Node12&#45;&gt;Node13 -->
<g id="edge6" class="edge"><title>Node12&#45;&gt;Node13</title>
<path fill="none" stroke="midnightblue" d="M96.5828,-47.4264C104.801,-37.4957 114.132,-26.2217 120.297,-18.7715"/>
<polygon fill="midnightblue" stroke="midnightblue" points="93.7138,-45.4034 90.0345,-55.3389 99.1066,-49.8664 93.7138,-45.4034"/>
</g>
<!-- Node15 -->
<g id="node9" class="node"><title>Node15</title>
<g id="a_node9"><a xlink:href="vtkvmtkOpenNLLinearSystemSolver_8h.html" target="_top" xlink:title="vtkvmtkOpenNLLinearSystem\lSolver.h">
<polygon fill="white" stroke="black" points="204.007,-55.5 204.007,-83.5 352.278,-83.5 352.278,-55.5 204.007,-55.5"/>
<text text-anchor="start" x="212.007" y="-71.5" font-family="Helvetica,sans-Serif" font-size="10.00">vtkvmtkOpenNLLinearSystem</text>
<text text-anchor="middle" x="278.143" y="-61.5" font-family="Helvetica,sans-Serif" font-size="10.00">Solver.h</text>
</a>
</g>
</g>
<!-- Node14&#45;&gt;Node15 -->
<g id="edge9" class="edge"><title>Node14&#45;&gt;Node15</title>
<path fill="none" stroke="midnightblue" d="M278.143,-115.137C278.143,-105.105 278.143,-92.906 278.143,-83.7981"/>
<polygon fill="midnightblue" stroke="midnightblue" points="274.643,-115.264 278.143,-125.264 281.643,-115.264 274.643,-115.264"/>
</g>
<!-- Node17 -->
<g id="node11" class="node"><title>Node17</title>
<g id="a_node11"><a xlink:href="vtkvmtkPolyDataFEGradientAssembler_8h.html" target="_top" xlink:title="vtkvmtkPolyDataFEGradient\lAssembler.h">
<polygon fill="white" stroke="black" points="369.345,-120.5 369.345,-148.5 510.94,-148.5 510.94,-120.5 369.345,-120.5"/>
<text text-anchor="start" x="377.345" y="-136.5" font-family="Helvetica,sans-Serif" font-size="10.00">vtkvmtkPolyDataFEGradient</text>
<text text-anchor="middle" x="440.143" y="-126.5" font-family="Helvetica,sans-Serif" font-size="10.00">Assembler.h</text>
</a>
</g>
</g>
<!-- Node16&#45;&gt;Node17 -->
<g id="edge11" class="edge"><title>Node16&#45;&gt;Node17</title>
<path fill="none" stroke="midnightblue" d="M645.034,-187.972C602.693,-177.129 536.626,-160.209 491.018,-148.529"/>
<polygon fill="midnightblue" stroke="midnightblue" points="644.181,-191.367 654.737,-190.457 645.918,-184.585 644.181,-191.367"/>
</g>
<!-- Node18 -->
<g id="node12" class="node"><title>Node18</title>
<g id="a_node12"><a xlink:href="vtkvmtkPolyDataFELaplaceAssembler_8h.html" target="_top" xlink:title="vtkvmtkPolyDataFELaplace\lAssembler.h">
<polygon fill="white" stroke="black" points="529.007,-120.5 529.007,-148.5 667.278,-148.5 667.278,-120.5 529.007,-120.5"/>
<text text-anchor="start" x="537.007" y="-136.5" font-family="Helvetica,sans-Serif" font-size="10.00">vtkvmtkPolyDataFELaplace</text>
<text text-anchor="middle" x="598.143" y="-126.5" font-family="Helvetica,sans-Serif" font-size="10.00">Assembler.h</text>
</a>
</g>
</g>
<!-- Node16&#45;&gt;Node18 -->
<g id="edge12" class="edge"><title>Node16&#45;&gt;Node18</title>
<path fill="none" stroke="midnightblue" d="M666.114,-184.161C651.161,-173.456 630.892,-158.945 616.386,-148.561"/>
<polygon fill="midnightblue" stroke="midnightblue" points="664.47,-187.289 674.638,-190.264 668.544,-181.597 664.47,-187.289"/>
</g>
<!-- Node19 -->
<g id="node13" class="node"><title>Node19</title>
<g id="a_node13"><a xlink:href="vtkvmtkUnstructuredGridFEGradientAssembler_8h.html" target="_top" xlink:title="vtkvmtkUnstructuredGridFEGradient\lAssembler.h">
<polygon fill="white" stroke="black" points="685.564,-120.5 685.564,-148.5 862.721,-148.5 862.721,-120.5 685.564,-120.5"/>
<text text-anchor="start" x="693.564" y="-136.5" font-family="Helvetica,sans-Serif" font-size="10.00">vtkvmtkUnstructuredGridFEGradient</text>
<text text-anchor="middle" x="774.143" y="-126.5" font-family="Helvetica,sans-Serif" font-size="10.00">Assembler.h</text>
</a>
</g>
</g>
<!-- Node16&#45;&gt;Node19 -->
<g id="edge13" class="edge"><title>Node16&#45;&gt;Node19</title>
<path fill="none" stroke="midnightblue" d="M706.171,-184.161C721.124,-173.456 741.393,-158.945 755.899,-148.561"/>
<polygon fill="midnightblue" stroke="midnightblue" points="703.741,-181.597 697.647,-190.264 707.816,-187.289 703.741,-181.597"/>
</g>
<!-- Node20 -->
<g id="node14" class="node"><title>Node20</title>
<g id="a_node14"><a xlink:href="vtkvmtkUnstructuredGridFELaplaceAssembler_8h.html" target="_top" xlink:title="vtkvmtkUnstructuredGridFELaplace\lAssembler.h">
<polygon fill="white" stroke="black" points="880.227,-120.5 880.227,-148.5 1054.06,-148.5 1054.06,-120.5 880.227,-120.5"/>
<text text-anchor="start" x="888.227" y="-136.5" font-family="Helvetica,sans-Serif" font-size="10.00">vtkvmtkUnstructuredGridFELaplace</text>
<text text-anchor="middle" x="967.143" y="-126.5" font-family="Helvetica,sans-Serif" font-size="10.00">Assembler.h</text>
</a>
</g>
</g>
<!-- Node16&#45;&gt;Node20 -->
<g id="edge14" class="edge"><title>Node16&#45;&gt;Node20</title>
<path fill="none" stroke="midnightblue" d="M731.882,-188.245C780.19,-177.415 856.492,-160.308 909.029,-148.529"/>
<polygon fill="midnightblue" stroke="midnightblue" points="731.009,-184.854 722.017,-190.457 732.54,-191.684 731.009,-184.854"/>
</g>
<!-- Node21 -->
<g id="node15" class="node"><title>Node21</title>
<g id="a_node15"><a xlink:href="vtkvmtkUnstructuredGridFEVorticityAssembler_8h.html" target="_top" xlink:title="vtkvmtkUnstructuredGridFEVorticity\lAssembler.h">
<polygon fill="white" stroke="black" points="1072.23,-120.5 1072.23,-148.5 1246.05,-148.5 1246.05,-120.5 1072.23,-120.5"/>
<text text-anchor="start" x="1080.23" y="-136.5" font-family="Helvetica,sans-Serif" font-size="10.00">vtkvmtkUnstructuredGridFEVorticity</text>
<text text-anchor="middle" x="1159.14" y="-126.5" font-family="Helvetica,sans-Serif" font-size="10.00">Assembler.h</text>
</a>
</g>
</g>
<!-- Node16&#45;&gt;Node21 -->
<g id="edge15" class="edge"><title>Node16&#45;&gt;Node21</title>
<path fill="none" stroke="midnightblue" d="M755.604,-189.573C831.265,-179.805 955.845,-163.588 1063.14,-149 1066.06,-148.603 1069.03,-148.198 1072.03,-147.786"/>
<polygon fill="midnightblue" stroke="midnightblue" points="754.73,-186.157 745.26,-190.908 755.625,-193.099 754.73,-186.157"/>
</g>
<!-- Node22&#45;&gt;Node9 -->
<g id="edge17" class="edge"><title>Node22&#45;&gt;Node9</title>
<path fill="none" stroke="midnightblue" d="M699.187,-311.681C670.511,-300.366 628.004,-283.595 602.883,-273.683"/>
<polygon fill="midnightblue" stroke="midnightblue" points="698.116,-315.021 708.703,-315.435 700.685,-308.509 698.116,-315.021"/>
</g>
<!-- Node23 -->
<g id="node17" class="node"><title>Node23</title>
<g id="a_node17"><a xlink:href="vtkvmtkPolyDataMeanCurvature_8h.html" target="_top" xlink:title="vtkvmtkPolyDataMeanCurvature.h">
<polygon fill="white" stroke="black" points="658.281,-255.5 658.281,-273.5 826.004,-273.5 826.004,-255.5 658.281,-255.5"/>
<text text-anchor="middle" x="742.143" y="-261.5" font-family="Helvetica,sans-Serif" font-size="10.00">vtkvmtkPolyDataMeanCurvature.h</text>
</a>
</g>
</g>
<!-- Node22&#45;&gt;Node23 -->
<g id="edge18" class="edge"><title>Node22&#45;&gt;Node23</title>
<path fill="none" stroke="midnightblue" d="M733.166,-305.549C735.534,-294.984 738.417,-282.12 740.266,-273.872"/>
<polygon fill="midnightblue" stroke="midnightblue" points="729.722,-304.912 730.95,-315.435 736.553,-306.443 729.722,-304.912"/>
</g>
<!-- Node26 -->
<g id="node20" class="node"><title>Node26</title>
<g id="a_node20"><a xlink:href="vtkvmtkPolyDataAreaWeightedUmbrellaStencil_8h.html" target="_top" xlink:title="vtkvmtkPolyDataAreaWeighted\lUmbrellaStencil.h">
<polygon fill="white" stroke="black" points="844.314,-250.5 844.314,-278.5 997.971,-278.5 997.971,-250.5 844.314,-250.5"/>
<text text-anchor="start" x="852.314" y="-266.5" font-family="Helvetica,sans-Serif" font-size="10.00">vtkvmtkPolyDataAreaWeighted</text>
<text text-anchor="middle" x="921.143" y="-256.5" font-family="Helvetica,sans-Serif" font-size="10.00">UmbrellaStencil.h</text>
</a>
</g>
</g>
<!-- Node25&#45;&gt;Node26 -->
<g id="edge21" class="edge"><title>Node25&#45;&gt;Node26</title>
<path fill="none" stroke="midnightblue" d="M1062.88,-312.208C1033.56,-302.547 991.348,-288.636 960.62,-278.51"/>
<polygon fill="midnightblue" stroke="midnightblue" points="1062.08,-315.63 1072.67,-315.435 1064.27,-308.981 1062.08,-315.63"/>
</g>
<!-- Node27 -->
<g id="node21" class="node"><title>Node27</title>
<g id="a_node21"><a xlink:href="vtkvmtkPolyDataLaplaceBeltramiStencil_8h.html" target="_top" xlink:title="vtkvmtkPolyDataLaplaceBeltrami\lStencil.h">
<polygon fill="white" stroke="black" points="1016.06,-250.5 1016.06,-278.5 1178.23,-278.5 1178.23,-250.5 1016.06,-250.5"/>
<text text-anchor="start" x="1024.06" y="-266.5" font-family="Helvetica,sans-Serif" font-size="10.00">vtkvmtkPolyDataLaplaceBeltrami</text>
<text text-anchor="middle" x="1097.14" y="-256.5" font-family="Helvetica,sans-Serif" font-size="10.00">Stencil.h</text>
</a>
</g>
</g>
<!-- Node25&#45;&gt;Node27 -->
<g id="edge22" class="edge"><title>Node25&#45;&gt;Node27</title>
<path fill="none" stroke="midnightblue" d="M1097.14,-305.321C1097.14,-296.747 1097.14,-286.7 1097.14,-278.843"/>
<polygon fill="midnightblue" stroke="midnightblue" points="1093.64,-305.435 1097.14,-315.435 1100.64,-305.435 1093.64,-305.435"/>
</g>
<!-- Node30 -->
<g id="node24" class="node"><title>Node30</title>
<g id="a_node24"><a xlink:href="vtkvmtkPolyDataGradientStencil_8h.html" target="_top" xlink:title="vtkvmtkPolyDataGradientStencil.h">
<polygon fill="white" stroke="black" points="1196.56,-255.5 1196.56,-273.5 1363.73,-273.5 1363.73,-255.5 1196.56,-255.5"/>
<text text-anchor="middle" x="1280.14" y="-261.5" font-family="Helvetica,sans-Serif" font-size="10.00">vtkvmtkPolyDataGradientStencil.h</text>
</a>
</g>
</g>
<!-- Node25&#45;&gt;Node30 -->
<g id="edge25" class="edge"><title>Node25&#45;&gt;Node30</title>
<path fill="none" stroke="midnightblue" d="M1132.15,-312.405C1167.95,-301.058 1222.71,-283.702 1254.62,-273.589"/>
<polygon fill="midnightblue" stroke="midnightblue" points="1131.06,-309.078 1122.59,-315.435 1133.18,-315.75 1131.06,-309.078"/>
</g>
<!-- Node31 -->
<g id="node25" class="node"><title>Node31</title>
<g id="a_node25"><a xlink:href="vtkvmtkPolyDataUmbrellaStencil_8h.html" target="_top" xlink:title="vtkvmtkPolyDataUmbrellaStencil.h">
<polygon fill="white" stroke="black" points="1381.73,-255.5 1381.73,-273.5 1550.56,-273.5 1550.56,-255.5 1381.73,-255.5"/>
<text text-anchor="middle" x="1466.14" y="-261.5" font-family="Helvetica,sans-Serif" font-size="10.00">vtkvmtkPolyDataUmbrellaStencil.h</text>
</a>
</g>
</g>
<!-- Node25&#45;&gt;Node31 -->
<g id="edge26" class="edge"><title>Node25&#45;&gt;Node31</title>
<path fill="none" stroke="midnightblue" d="M1158.32,-313.884C1230.16,-302.592 1348.03,-284.065 1415.15,-273.515"/>
<polygon fill="midnightblue" stroke="midnightblue" points="1157.4,-310.486 1148.06,-315.496 1158.49,-317.401 1157.4,-310.486"/>
</g>
<!-- Node28 -->
<g id="node22" class="node"><title>Node28</title>
<g id="a_node22"><a xlink:href="vtkvmtkPolyDataFELaplaceBeltramiStencil_8h.html" target="_top" xlink:title="vtkvmtkPolyDataFELaplace\lBeltramiStencil.h">
<polygon fill="white" stroke="black" points="947.007,-185.5 947.007,-213.5 1085.28,-213.5 1085.28,-185.5 947.007,-185.5"/>
<text text-anchor="start" x="955.007" y="-201.5" font-family="Helvetica,sans-Serif" font-size="10.00">vtkvmtkPolyDataFELaplace</text>
<text text-anchor="middle" x="1016.14" y="-191.5" font-family="Helvetica,sans-Serif" font-size="10.00">BeltramiStencil.h</text>
</a>
</g>
</g>
<!-- Node27&#45;&gt;Node28 -->
<g id="edge23" class="edge"><title>Node27&#45;&gt;Node28</title>
<path fill="none" stroke="midnightblue" d="M1072.37,-244.236C1059.58,-234.284 1044.3,-222.403 1032.9,-213.537"/>
<polygon fill="midnightblue" stroke="midnightblue" points="1070.32,-247.07 1080.36,-250.446 1074.61,-241.544 1070.32,-247.07"/>
</g>
<!-- Node29 -->
<g id="node23" class="node"><title>Node29</title>
<g id="a_node23"><a xlink:href="vtkvmtkPolyDataFVFELaplaceBeltramiStencil_8h.html" target="_top" xlink:title="vtkvmtkPolyDataFVFELaplace\lBeltramiStencil.h">
<polygon fill="white" stroke="black" points="1103.62,-185.5 1103.62,-213.5 1254.67,-213.5 1254.67,-185.5 1103.62,-185.5"/>
<text text-anchor="start" x="1111.62" y="-201.5" font-family="Helvetica,sans-Serif" font-size="10.00">vtkvmtkPolyDataFVFELaplace</text>
<text text-anchor="middle" x="1179.14" y="-191.5" font-family="Helvetica,sans-Serif" font-size="10.00">BeltramiStencil.h</text>
</a>
</g>
</g>
<!-- Node27&#45;&gt;Node29 -->
<g id="edge24" class="edge"><title>Node27&#45;&gt;Node29</title>
<path fill="none" stroke="midnightblue" d="M1122.22,-244.236C1135.17,-234.284 1150.63,-222.403 1162.17,-213.537"/>
<polygon fill="midnightblue" stroke="midnightblue" points="1119.93,-241.578 1114.13,-250.446 1124.2,-247.129 1119.93,-241.578"/>
</g>
</g>
</svg>
