<?xml version="1.0" encoding="UTF-8" standalone="no"?>
<!DOCTYPE svg PUBLIC "-//W3C//DTD SVG 1.1//EN"
 "http://www.w3.org/Graphics/SVG/1.1/DTD/svg11.dtd">
<!-- Generated by graphviz version 2.38.0 (20140413.2041)
 -->
<!-- Title: vtkvmtkRecursiveGaussian2DImageFilter.h Pages: 1 -->
<svg width="300pt" height="92pt"
 viewBox="0.00 0.00 300.16 92.00" xmlns="http://www.w3.org/2000/svg" xmlns:xlink="http://www.w3.org/1999/xlink">
<g id="graph0" class="graph" transform="scale(1 1) rotate(0) translate(4 88)">
<title>vtkvmtkRecursiveGaussian2DImageFilter.h</title>
<polygon fill="white" stroke="none" points="-4,4 -4,-88 296.165,-88 296.165,4 -4,4"/>
<!-- Node0 -->
<g id="node1" class="node"><title>Node0</title>
<polygon fill="#bfbfbf" stroke="black" points="83.6772,-55.5 83.6772,-83.5 225.83,-83.5 225.83,-55.5 83.6772,-55.5"/>
<text text-anchor="start" x="91.6772" y="-71.5" font-family="Helvetica,sans-Serif" font-size="10.00">vtkvmtkRecursiveGaussian2</text>
<text text-anchor="middle" x="154.753" y="-61.5" font-family="Helvetica,sans-Serif" font-size="10.00">DImageFilter.h</text>
</g>
<!-- Node1 -->
<g id="node2" class="node"><title>Node1</title>
<polygon fill="white" stroke="#bfbfbf" points="0,-0.5 0,-18.5 155.507,-18.5 155.507,-0.5 0,-0.5"/>
<text text-anchor="middle" x="77.7534" y="-6.5" font-family="Helvetica,sans-Serif" font-size="10.00">vtkSimpleImageToImageFilter.h</text>
</g>
<!-- Node0&#45;&gt;Node1 -->
<g id="edge1" class="edge"><title>Node0&#45;&gt;Node1</title>
<path fill="none" stroke="midnightblue" d="M137.281,-55.3389C125.284,-46.3022 109.358,-34.3057 96.9972,-24.9954"/>
<polygon fill="midnightblue" stroke="midnightblue" points="98.8279,-21.9924 88.7345,-18.7715 94.6162,-27.5837 98.8279,-21.9924"/>
</g>
<!-- Node2 -->
<g id="node3" class="node"><title>Node2</title>
<polygon fill="white" stroke="#bfbfbf" points="173.342,-0.5 173.342,-18.5 292.165,-18.5 292.165,-0.5 173.342,-0.5"/>
<text text-anchor="middle" x="232.753" y="-6.5" font-family="Helvetica,sans-Serif" font-size="10.00">vtkvmtkWin32Header.h</text>
</g>
<!-- Node0&#45;&gt;Node2 -->
<g id="edge2" class="edge"><title>Node0&#45;&gt;Node2</title>
<path fill="none" stroke="midnightblue" d="M172.453,-55.3389C184.606,-46.3022 200.739,-34.3057 213.26,-24.9954"/>
<polygon fill="midnightblue" stroke="midnightblue" points="215.694,-27.5472 221.63,-18.7715 211.517,-21.9299 215.694,-27.5472"/>
</g>
</g>
</svg>
