<?xml version="1.0" encoding="UTF-8" standalone="no"?>
<!DOCTYPE svg PUBLIC "-//W3C//DTD SVG 1.1//EN"
 "http://www.w3.org/Graphics/SVG/1.1/DTD/svg11.dtd">
<!-- Generated by graphviz version 2.38.0 (20140413.2041)
 -->
<!-- Title: vtkvmtkPolyDataHarmonicMappingFilter.h Pages: 1 -->
<svg width="452pt" height="92pt"
 viewBox="0.00 0.00 452.39 92.00" xmlns="http://www.w3.org/2000/svg" xmlns:xlink="http://www.w3.org/1999/xlink">
<g id="graph0" class="graph" transform="scale(1 1) rotate(0) translate(4 88)">
<title>vtkvmtkPolyDataHarmonicMappingFilter.h</title>
<polygon fill="white" stroke="none" points="-4,4 -4,-88 448.392,-88 448.392,4 -4,4"/>
<!-- Node0 -->
<g id="node1" class="node"><title>Node0</title>
<polygon fill="#bfbfbf" stroke="black" points="164.606,-55.5 164.606,-83.5 336.216,-83.5 336.216,-55.5 164.606,-55.5"/>
<text text-anchor="start" x="172.606" y="-71.5" font-family="Helvetica,sans-Serif" font-size="10.00">vtkvmtkPolyDataHarmonicMapping</text>
<text text-anchor="middle" x="250.411" y="-61.5" font-family="Helvetica,sans-Serif" font-size="10.00">Filter.h</text>
</g>
<!-- Node1 -->
<g id="node2" class="node"><title>Node1</title>
<polygon fill="white" stroke="#bfbfbf" points="0,-0.5 0,-18.5 118.822,-18.5 118.822,-0.5 0,-0.5"/>
<text text-anchor="middle" x="59.4111" y="-6.5" font-family="Helvetica,sans-Serif" font-size="10.00">vtkvmtkWin32Header.h</text>
</g>
<!-- Node0&#45;&gt;Node1 -->
<g id="edge1" class="edge"><title>Node0&#45;&gt;Node1</title>
<path fill="none" stroke="midnightblue" d="M207.547,-55.4837C173.903,-45.2671 127.583,-31.2015 95.7436,-21.5329"/>
<polygon fill="midnightblue" stroke="midnightblue" points="96.5348,-18.1154 85.9493,-18.5587 94.5008,-24.8134 96.5348,-18.1154"/>
</g>
<!-- Node2 -->
<g id="node3" class="node"><title>Node2</title>
<polygon fill="white" stroke="#bfbfbf" points="136.446,-0.5 136.446,-18.5 256.376,-18.5 256.376,-0.5 136.446,-0.5"/>
<text text-anchor="middle" x="196.411" y="-6.5" font-family="Helvetica,sans-Serif" font-size="10.00">vtkPolyDataAlgorithm.h</text>
</g>
<!-- Node0&#45;&gt;Node2 -->
<g id="edge2" class="edge"><title>Node0&#45;&gt;Node2</title>
<path fill="none" stroke="midnightblue" d="M238.158,-55.3389C230.071,-46.6532 219.438,-35.233 210.928,-26.0919"/>
<polygon fill="midnightblue" stroke="midnightblue" points="213.488,-23.7055 204.112,-18.7715 208.365,-28.4754 213.488,-23.7055"/>
</g>
<!-- Node3 -->
<g id="node4" class="node"><title>Node3</title>
<polygon fill="white" stroke="#bfbfbf" points="273.901,-0.5 273.901,-18.5 334.921,-18.5 334.921,-0.5 273.901,-0.5"/>
<text text-anchor="middle" x="304.411" y="-6.5" font-family="Helvetica,sans-Serif" font-size="10.00">vtkIdList.h</text>
</g>
<!-- Node0&#45;&gt;Node3 -->
<g id="edge3" class="edge"><title>Node0&#45;&gt;Node3</title>
<path fill="none" stroke="midnightblue" d="M262.665,-55.3389C270.751,-46.6532 281.384,-35.233 289.895,-26.0919"/>
<polygon fill="midnightblue" stroke="midnightblue" points="292.458,-28.4754 296.71,-18.7715 287.334,-23.7055 292.458,-28.4754"/>
</g>
<!-- Node4 -->
<g id="node5" class="node"><title>Node4</title>
<polygon fill="white" stroke="#bfbfbf" points="352.43,-0.5 352.43,-18.5 444.392,-18.5 444.392,-0.5 352.43,-0.5"/>
<text text-anchor="middle" x="398.411" y="-6.5" font-family="Helvetica,sans-Serif" font-size="10.00">vtkDoubleArray.h</text>
</g>
<!-- Node0&#45;&gt;Node4 -->
<g id="edge4" class="edge"><title>Node0&#45;&gt;Node4</title>
<path fill="none" stroke="midnightblue" d="M283.625,-55.4837C308.943,-45.5618 343.524,-32.0098 368.096,-22.3804"/>
<polygon fill="midnightblue" stroke="midnightblue" points="369.598,-25.5509 377.631,-18.6434 367.044,-19.0335 369.598,-25.5509"/>
</g>
</g>
</svg>
