<?xml version="1.0" encoding="UTF-8" standalone="no"?>
<!DOCTYPE svg PUBLIC "-//W3C//DTD SVG 1.1//EN"
 "http://www.w3.org/Graphics/SVG/1.1/DTD/svg11.dtd">
<!-- Generated by graphviz version 2.38.0 (20140413.2041)
 -->
<!-- Title: vtkvmtkPolyDataAreaWeightedUmbrellaStencil.h Pages: 1 -->
<!--zoomable 367 -->
<svg id="main" version="1.1" xmlns="http://www.w3.org/2000/svg" xmlns:xlink="http://www.w3.org/1999/xlink" xml:space="preserve" onload="init(evt)">
<style type="text/css"><![CDATA[
.edge:hover path { stroke: red; }
.edge:hover polygon { stroke: red; fill: red; }
]]></style>
<script type="text/javascript"><![CDATA[
var edges = document.getElementsByTagName('g');
if (edges && edges.length) {
  for (var i=0;i<edges.length;i++) {
    if (edges[i].id.substr(0,4)=='edge') {
      edges[i].setAttribute('class','edge');
    }
  }
}
]]></script>
        <defs>
                <circle id="rim" cx="0" cy="0" r="7"/>
                <circle id="rim2" cx="0" cy="0" r="3.5"/>
                <g id="zoomPlus">
                        <use xlink:href="#rim" fill="#404040">
                                <set attributeName="fill" to="#808080" begin="zoomplus.mouseover" end="zoomplus.mouseout"/>
                        </use>
                        <path d="M-4,0h8M0,-4v8" fill="none" stroke="white" stroke-width="1.5" pointer-events="none"/>
                </g>
                <g id="zoomMin">
                        <use xlink:href="#rim" fill="#404040">
                                <set attributeName="fill" to="#808080" begin="zoomminus.mouseover" end="zoomminus.mouseout"/>
                        </use>
                        <path d="M-4,0h8" fill="none" stroke="white" stroke-width="1.5" pointer-events="none"/>
                </g>
                <g id="dirArrow">
                        <path fill="none" stroke="white" stroke-width="1.5" d="M0,-3.0v7 M-2.5,-0.5L0,-3.0L2.5,-0.5"/>
                </g>
               <g id="resetDef">
                       <use xlink:href="#rim2" fill="#404040">
                               <set attributeName="fill" to="#808080" begin="reset.mouseover" end="reset.mouseout"/>
                       </use>
               </g>
        </defs>

<script type="text/javascript">
var viewWidth = 616;
var viewHeight = 367;
var sectionId = 'dynsection-0';
</script>
<script xlink:href="svgpan.js"/>
<svg id="graph" class="graph">
<g id="viewport">
<title>vtkvmtkPolyDataAreaWeightedUmbrellaStencil.h</title>
<polygon fill="white" stroke="none" points="-4,4 -4,-363 611.625,-363 611.625,4 -4,4"/>
<!-- Node0 -->
<g id="node1" class="node"><title>Node0</title>
<polygon fill="#bfbfbf" stroke="black" points="343.172,-330.5 343.172,-358.5 496.828,-358.5 496.828,-330.5 343.172,-330.5"/>
<text text-anchor="start" x="351.172" y="-346.5" font-family="Helvetica,sans-Serif" font-size="10.00">vtkvmtkPolyDataAreaWeighted</text>
<text text-anchor="middle" x="420" y="-336.5" font-family="Helvetica,sans-Serif" font-size="10.00">UmbrellaStencil.h</text>
</g>
<!-- Node1 -->
<g id="node2" class="node"><title>Node1</title>
<polygon fill="white" stroke="#bfbfbf" points="61.9902,-0.5 61.9902,-18.5 128.01,-18.5 128.01,-0.5 61.9902,-0.5"/>
<text text-anchor="middle" x="95" y="-6.5" font-family="Helvetica,sans-Serif" font-size="10.00">vtkObject.h</text>
</g>
<!-- Node0&#45;&gt;Node1 -->
<g id="edge1" class="edge"><title>Node0&#45;&gt;Node1</title>
<path fill="none" stroke="midnightblue" d="M342.966,-338.526C221.715,-328.556 0,-300.724 0,-230.5 0,-230.5 0,-230.5 0,-118.5 0,-75.6483 42.6861,-41.7178 70.8317,-24.0029"/>
<polygon fill="midnightblue" stroke="midnightblue" points="72.9843,-26.7918 79.7366,-18.6274 69.3667,-20.799 72.9843,-26.7918"/>
</g>
<!-- Node2 -->
<g id="node3" class="node"><title>Node2</title>
<g id="a_node3"><a xlink:href="vtkvmtkConstants_8h.html" target="_top" xlink:title="vtkvmtkConstants.h">
<polygon fill="white" stroke="black" points="504.375,-275.5 504.375,-293.5 607.625,-293.5 607.625,-275.5 504.375,-275.5"/>
<text text-anchor="middle" x="556" y="-281.5" font-family="Helvetica,sans-Serif" font-size="10.00">vtkvmtkConstants.h</text>
</a>
</g>
</g>
<!-- Node0&#45;&gt;Node2 -->
<g id="edge2" class="edge"><title>Node0&#45;&gt;Node2</title>
<path fill="none" stroke="midnightblue" d="M450.521,-330.484C473.579,-320.65 504.999,-307.25 527.538,-297.638"/>
<polygon fill="midnightblue" stroke="midnightblue" points="529.08,-300.786 536.905,-293.643 526.334,-294.347 529.08,-300.786"/>
</g>
<!-- Node3 -->
<g id="node4" class="node"><title>Node3</title>
<g id="a_node4"><a xlink:href="vtkvmtkPolyDataManifoldStencil_8h.html" target="_top" xlink:title="vtkvmtkPolyDataManifoldStencil.h">
<polygon fill="white" stroke="black" points="281.692,-275.5 281.692,-293.5 448.308,-293.5 448.308,-275.5 281.692,-275.5"/>
<text text-anchor="middle" x="365" y="-281.5" font-family="Helvetica,sans-Serif" font-size="10.00">vtkvmtkPolyDataManifoldStencil.h</text>
</a>
</g>
</g>
<!-- Node0&#45;&gt;Node3 -->
<g id="edge3" class="edge"><title>Node0&#45;&gt;Node3</title>
<path fill="none" stroke="midnightblue" d="M407.52,-330.339C399.283,-321.653 388.454,-310.233 379.785,-301.092"/>
<polygon fill="midnightblue" stroke="midnightblue" points="382.264,-298.619 372.844,-293.771 377.185,-303.436 382.264,-298.619"/>
</g>
<!-- Node9 -->
<g id="node10" class="node"><title>Node9</title>
<polygon fill="white" stroke="#bfbfbf" points="321.589,-0.5 321.589,-18.5 440.411,-18.5 440.411,-0.5 321.589,-0.5"/>
<text text-anchor="middle" x="381" y="-6.5" font-family="Helvetica,sans-Serif" font-size="10.00">vtkvmtkWin32Header.h</text>
</g>
<!-- Node0&#45;&gt;Node9 -->
<g id="edge21" class="edge"><title>Node0&#45;&gt;Node9</title>
<path fill="none" stroke="midnightblue" d="M431.746,-330.485C439.814,-320.963 450.247,-307.417 457,-294 470.244,-267.687 476,-259.958 476,-230.5 476,-230.5 476,-230.5 476,-118.5 476,-75.6483 433.314,-41.7178 405.168,-24.0029"/>
<polygon fill="midnightblue" stroke="midnightblue" points="406.633,-20.799 396.263,-18.6274 403.016,-26.7918 406.633,-20.799"/>
</g>
<!-- Node3&#45;&gt;Node1 -->
<g id="edge4" class="edge"><title>Node3&#45;&gt;Node1</title>
<path fill="none" stroke="midnightblue" d="M300.004,-275.452C204.641,-261.801 38,-230.13 38,-175.5 38,-175.5 38,-175.5 38,-118.5 38,-82.3023 63.3534,-46.3493 80.2423,-26.4152"/>
<polygon fill="midnightblue" stroke="midnightblue" points="83.0846,-28.4839 87.0744,-18.669 77.8347,-23.8536 83.0846,-28.4839"/>
</g>
<!-- Node4 -->
<g id="node5" class="node"><title>Node4</title>
<g id="a_node5"><a xlink:href="vtkvmtkStencil_8h.html" target="_top" xlink:title="vtkvmtkStencil.h">
<polygon fill="white" stroke="black" points="222.879,-220.5 222.879,-238.5 311.121,-238.5 311.121,-220.5 222.879,-220.5"/>
<text text-anchor="middle" x="267" y="-226.5" font-family="Helvetica,sans-Serif" font-size="10.00">vtkvmtkStencil.h</text>
</a>
</g>
</g>
<!-- Node3&#45;&gt;Node4 -->
<g id="edge5" class="edge"><title>Node3&#45;&gt;Node4</title>
<path fill="none" stroke="midnightblue" d="M350.116,-275.45C334.43,-266.968 309.486,-253.477 291.012,-243.486"/>
<polygon fill="midnightblue" stroke="midnightblue" points="292.485,-240.304 282.024,-238.625 289.155,-246.461 292.485,-240.304"/>
</g>
<!-- Node3&#45;&gt;Node9 -->
<g id="edge20" class="edge"><title>Node3&#45;&gt;Node9</title>
<path fill="none" stroke="midnightblue" d="M377.574,-275.391C389.053,-267.397 405.749,-254.197 416,-239 432.703,-214.239 438,-205.368 438,-175.5 438,-175.5 438,-175.5 438,-118.5 438,-82.3023 412.647,-46.3493 395.758,-26.4152"/>
<polygon fill="midnightblue" stroke="midnightblue" points="398.165,-23.8536 388.926,-18.669 392.915,-28.4839 398.165,-23.8536"/>
</g>
<!-- Node10 -->
<g id="node11" class="node"><title>Node10</title>
<polygon fill="white" stroke="#bfbfbf" points="329.153,-220.5 329.153,-238.5 406.847,-238.5 406.847,-220.5 329.153,-220.5"/>
<text text-anchor="middle" x="368" y="-226.5" font-family="Helvetica,sans-Serif" font-size="10.00">vtkPolyData.h</text>
</g>
<!-- Node3&#45;&gt;Node10 -->
<g id="edge19" class="edge"><title>Node3&#45;&gt;Node10</title>
<path fill="none" stroke="midnightblue" d="M365.469,-275.219C365.867,-268.177 366.454,-257.808 366.963,-248.828"/>
<polygon fill="midnightblue" stroke="midnightblue" points="370.474,-248.731 367.544,-238.55 363.485,-248.336 370.474,-248.731"/>
</g>
<!-- Node4&#45;&gt;Node1 -->
<g id="edge6" class="edge"><title>Node4&#45;&gt;Node1</title>
<path fill="none" stroke="midnightblue" d="M250.352,-220.483C235.237,-212.644 212.937,-199.628 197,-184 148.824,-136.761 115.291,-62.0701 101.722,-28.2192"/>
<polygon fill="midnightblue" stroke="midnightblue" points="104.922,-26.7922 98.0244,-18.7503 98.4015,-29.3384 104.922,-26.7922"/>
</g>
<!-- Node5 -->
<g id="node6" class="node"><title>Node5</title>
<g id="a_node6"><a xlink:href="vtkvmtkNeighborhood_8h.html" target="_top" xlink:title="vtkvmtkNeighborhood.h">
<polygon fill="white" stroke="black" points="206.473,-165.5 206.473,-183.5 327.527,-183.5 327.527,-165.5 206.473,-165.5"/>
<text text-anchor="middle" x="267" y="-171.5" font-family="Helvetica,sans-Serif" font-size="10.00">vtkvmtkNeighborhood.h</text>
</a>
</g>
</g>
<!-- Node4&#45;&gt;Node5 -->
<g id="edge7" class="edge"><title>Node4&#45;&gt;Node5</title>
<path fill="none" stroke="midnightblue" d="M267,-220.219C267,-213.177 267,-202.808 267,-193.828"/>
<polygon fill="midnightblue" stroke="midnightblue" points="270.5,-193.55 267,-183.55 263.5,-193.55 270.5,-193.55"/>
</g>
<!-- Node4&#45;&gt;Node9 -->
<g id="edge18" class="edge"><title>Node4&#45;&gt;Node9</title>
<path fill="none" stroke="midnightblue" d="M285.972,-220.481C301.546,-213.045 323.208,-200.625 337,-184 370.619,-143.475 371.043,-125.705 381,-74 383.873,-59.0813 383.653,-41.8227 382.837,-29.0669"/>
<polygon fill="midnightblue" stroke="midnightblue" points="386.302,-28.4933 381.992,-18.8146 379.325,-29.0683 386.302,-28.4933"/>
</g>
<!-- Node5&#45;&gt;Node1 -->
<g id="edge8" class="edge"><title>Node5&#45;&gt;Node1</title>
<path fill="none" stroke="midnightblue" d="M253.649,-165.415C239.986,-156.933 218.356,-142.922 201,-129 173.289,-106.772 166.68,-100.482 143,-74 129.509,-58.913 115.745,-40.3058 106.435,-27.1438"/>
<polygon fill="midnightblue" stroke="midnightblue" points="109.102,-24.8501 100.511,-18.6504 103.361,-28.8547 109.102,-24.8501"/>
</g>
<!-- Node6 -->
<g id="node7" class="node"><title>Node6</title>
<g id="a_node7"><a xlink:href="vtkvmtkDataSetItem_8h.html" target="_top" xlink:title="vtkvmtkDataSetItem.h">
<polygon fill="white" stroke="black" points="210.096,-110.5 210.096,-128.5 323.904,-128.5 323.904,-110.5 210.096,-110.5"/>
<text text-anchor="middle" x="267" y="-116.5" font-family="Helvetica,sans-Serif" font-size="10.00">vtkvmtkDataSetItem.h</text>
</a>
</g>
</g>
<!-- Node5&#45;&gt;Node6 -->
<g id="edge9" class="edge"><title>Node5&#45;&gt;Node6</title>
<path fill="none" stroke="midnightblue" d="M267,-165.219C267,-158.177 267,-147.808 267,-138.828"/>
<polygon fill="midnightblue" stroke="midnightblue" points="270.5,-138.55 267,-128.55 263.5,-138.55 270.5,-138.55"/>
</g>
<!-- Node5&#45;&gt;Node9 -->
<g id="edge17" class="edge"><title>Node5&#45;&gt;Node9</title>
<path fill="none" stroke="midnightblue" d="M284.569,-165.363C299.258,-157.78 319.859,-145.21 333,-129 357.849,-98.3474 371.334,-53.1226 377.254,-28.3459"/>
<polygon fill="midnightblue" stroke="midnightblue" points="380.683,-29.0502 379.456,-18.5267 373.853,-27.5186 380.683,-29.0502"/>
</g>
<!-- Node6&#45;&gt;Node1 -->
<g id="edge10" class="edge"><title>Node6&#45;&gt;Node1</title>
<path fill="none" stroke="midnightblue" d="M245.578,-110.459C225.557,-102.513 195.203,-89.3448 171,-74 148.456,-59.7069 125.304,-39.396 110.573,-25.6229"/>
<polygon fill="midnightblue" stroke="midnightblue" points="112.973,-23.075 103.313,-18.7235 108.151,-28.1493 112.973,-23.075"/>
</g>
<!-- Node7 -->
<g id="node8" class="node"><title>Node7</title>
<g id="a_node8"><a xlink:href="vtkvmtkItem_8h.html" target="_top" xlink:title="vtkvmtkItem.h">
<polygon fill="white" stroke="black" points="180.163,-55.5 180.163,-73.5 257.837,-73.5 257.837,-55.5 180.163,-55.5"/>
<text text-anchor="middle" x="219" y="-61.5" font-family="Helvetica,sans-Serif" font-size="10.00">vtkvmtkItem.h</text>
</a>
</g>
</g>
<!-- Node6&#45;&gt;Node7 -->
<g id="edge11" class="edge"><title>Node6&#45;&gt;Node7</title>
<path fill="none" stroke="midnightblue" d="M259.5,-110.219C252.485,-102.473 241.824,-90.7013 233.201,-81.1799"/>
<polygon fill="midnightblue" stroke="midnightblue" points="235.597,-78.6121 226.29,-73.5496 230.409,-83.3111 235.597,-78.6121"/>
</g>
<!-- Node8 -->
<g id="node9" class="node"><title>Node8</title>
<polygon fill="white" stroke="#bfbfbf" points="196.375,-0.5 196.375,-18.5 269.625,-18.5 269.625,-0.5 196.375,-0.5"/>
<text text-anchor="middle" x="233" y="-6.5" font-family="Helvetica,sans-Serif" font-size="10.00">vtkDataSet.h</text>
</g>
<!-- Node6&#45;&gt;Node8 -->
<g id="edge15" class="edge"><title>Node6&#45;&gt;Node8</title>
<path fill="none" stroke="midnightblue" d="M268.612,-110.414C270.717,-98.0828 273.43,-74.0061 267,-55 263.346,-44.2 255.906,-33.957 248.914,-26.0268"/>
<polygon fill="midnightblue" stroke="midnightblue" points="251.38,-23.5398 241.969,-18.6736 246.291,-28.3466 251.38,-23.5398"/>
</g>
<!-- Node6&#45;&gt;Node9 -->
<g id="edge16" class="edge"><title>Node6&#45;&gt;Node9</title>
<path fill="none" stroke="midnightblue" d="M275.569,-110.382C294.55,-92.4004 340.393,-48.9695 364.906,-25.7467"/>
<polygon fill="midnightblue" stroke="midnightblue" points="367.48,-28.1301 372.332,-18.7118 362.665,-23.0484 367.48,-28.1301"/>
</g>
<!-- Node7&#45;&gt;Node1 -->
<g id="edge12" class="edge"><title>Node7&#45;&gt;Node1</title>
<path fill="none" stroke="midnightblue" d="M200.167,-55.4504C179.774,-46.734 147.011,-32.7306 123.471,-22.6691"/>
<polygon fill="midnightblue" stroke="midnightblue" points="124.581,-19.3373 114.01,-18.6253 121.83,-25.774 124.581,-19.3373"/>
</g>
<!-- Node7&#45;&gt;Node8 -->
<g id="edge13" class="edge"><title>Node7&#45;&gt;Node8</title>
<path fill="none" stroke="midnightblue" d="M221.188,-55.2188C223.089,-48.0204 225.909,-37.3458 228.316,-28.2311"/>
<polygon fill="midnightblue" stroke="midnightblue" points="231.704,-29.1118 230.874,-18.5496 224.936,-27.324 231.704,-29.1118"/>
</g>
<!-- Node7&#45;&gt;Node9 -->
<g id="edge14" class="edge"><title>Node7&#45;&gt;Node9</title>
<path fill="none" stroke="midnightblue" d="M243.604,-55.4504C271.159,-46.4355 316,-31.7653 346.92,-21.6496"/>
<polygon fill="midnightblue" stroke="midnightblue" points="348.014,-24.9743 356.43,-18.5383 345.837,-18.3213 348.014,-24.9743"/>
</g>
</g>
</svg>
        <g id="navigator" transform="translate(0 0)" fill="#404254">
                <rect fill="#f2f5e9" fill-opacity="0.5" stroke="#606060" stroke-width=".5" x="0" y="0" width="60" height="60"/>
                <use id="zoomplus" xlink:href="#zoomPlus" x="17" y="9" onmousedown="handleZoom(evt,'in')"/>
                <use id="zoomminus" xlink:href="#zoomMin" x="42" y="9" onmousedown="handleZoom(evt,'out')"/>
                <use id="reset" xlink:href="#resetDef" x="30" y="36" onmousedown="handleReset()"/>
                <g id="arrowUp" xlink:href="#dirArrow" transform="translate(30 24)" onmousedown="handlePan(0,-1)">
                  <use xlink:href="#rim" fill="#404040">
                        <set attributeName="fill" to="#808080" begin="arrowUp.mouseover" end="arrowUp.mouseout"/>
                  </use>
                  <path fill="none" stroke="white" stroke-width="1.5" d="M0,-3.0v7 M-2.5,-0.5L0,-3.0L2.5,-0.5"/>
                </g>
                <g id="arrowRight" xlink:href="#dirArrow" transform="rotate(90) translate(36 -43)" onmousedown="handlePan(1,0)">
                  <use xlink:href="#rim" fill="#404040">
                        <set attributeName="fill" to="#808080" begin="arrowRight.mouseover" end="arrowRight.mouseout"/>
                  </use>
                  <path fill="none" stroke="white" stroke-width="1.5" d="M0,-3.0v7 M-2.5,-0.5L0,-3.0L2.5,-0.5"/>
                </g>
                <g id="arrowDown" xlink:href="#dirArrow" transform="rotate(180) translate(-30 -48)" onmousedown="handlePan(0,1)">
                  <use xlink:href="#rim" fill="#404040">
                        <set attributeName="fill" to="#808080" begin="arrowDown.mouseover" end="arrowDown.mouseout"/>
                  </use>
                  <path fill="none" stroke="white" stroke-width="1.5" d="M0,-3.0v7 M-2.5,-0.5L0,-3.0L2.5,-0.5"/>
                </g>
                <g id="arrowLeft" xlink:href="#dirArrow" transform="rotate(270) translate(-36 17)" onmousedown="handlePan(-1,0)">
                  <use xlink:href="#rim" fill="#404040">
                        <set attributeName="fill" to="#808080" begin="arrowLeft.mouseover" end="arrowLeft.mouseout"/>
                  </use>
                  <path fill="none" stroke="white" stroke-width="1.5" d="M0,-3.0v7 M-2.5,-0.5L0,-3.0L2.5,-0.5"/>
                </g>
        </g>
        <svg viewBox="0 0 15 15" width="100%" height="30px" preserveAspectRatio="xMaxYMin meet">
         <g id="arrow_out" transform="scale(0.3 0.3)">
          <a xlink:href="vtkvmtkPolyDataAreaWeightedUmbrellaStencil_8h__incl_org.svg" target="_base">
           <rect id="button" ry="5" rx="5" y="6" x="6" height="38" width="38"
                fill="#f2f5e9" fill-opacity="0.5" stroke="#606060" stroke-width="1.0"/>
           <path id="arrow"
             d="M 11.500037,31.436501 C 11.940474,20.09759 22.043105,11.32322 32.158766,21.979434 L 37.068811,17.246167 C 37.068811,17.246167 37.088388,32 37.088388,32 L 22.160133,31.978069 C 22.160133,31.978069 26.997745,27.140456 26.997745,27.140456 C 18.528582,18.264221 13.291696,25.230495 11.500037,31.436501 z"
             style="fill:#404040;"/>
          </a>
         </g>
        </svg>
</svg>
