<?xml version="1.0" encoding="UTF-8" standalone="no"?>
<!DOCTYPE svg PUBLIC "-//W3C//DTD SVG 1.1//EN"
 "http://www.w3.org/Graphics/SVG/1.1/DTD/svg11.dtd">
<!-- Generated by graphviz version 2.38.0 (20140413.2041)
 -->
<!-- Title: vtkvmtkFWHMFeatureImageFilter.h Pages: 1 -->
<svg width="300pt" height="82pt"
 viewBox="0.00 0.00 300.16 82.00" xmlns="http://www.w3.org/2000/svg" xmlns:xlink="http://www.w3.org/1999/xlink">
<g id="graph0" class="graph" transform="scale(1 1) rotate(0) translate(4 78)">
<title>vtkvmtkFWHMFeatureImageFilter.h</title>
<polygon fill="white" stroke="none" points="-4,4 -4,-78 296.165,-78 296.165,4 -4,4"/>
<!-- Node0 -->
<g id="node1" class="node"><title>Node0</title>
<polygon fill="#bfbfbf" stroke="black" points="68.1255,-55.5 68.1255,-73.5 241.381,-73.5 241.381,-55.5 68.1255,-55.5"/>
<text text-anchor="middle" x="154.753" y="-61.5" font-family="Helvetica,sans-Serif" font-size="10.00">vtkvmtkFWHMFeatureImageFilter.h</text>
</g>
<!-- Node1 -->
<g id="node2" class="node"><title>Node1</title>
<polygon fill="white" stroke="#bfbfbf" points="0,-0.5 0,-18.5 155.507,-18.5 155.507,-0.5 0,-0.5"/>
<text text-anchor="middle" x="77.7534" y="-6.5" font-family="Helvetica,sans-Serif" font-size="10.00">vtkSimpleImageToImageFilter.h</text>
</g>
<!-- Node0&#45;&gt;Node1 -->
<g id="edge1" class="edge"><title>Node0&#45;&gt;Node1</title>
<path fill="none" stroke="midnightblue" d="M143.059,-55.4504C131.074,-47.201 112.209,-34.2158 97.8296,-24.3187"/>
<polygon fill="midnightblue" stroke="midnightblue" points="99.7799,-21.4121 89.5581,-18.6253 95.811,-27.1782 99.7799,-21.4121"/>
</g>
<!-- Node2 -->
<g id="node3" class="node"><title>Node2</title>
<polygon fill="white" stroke="#bfbfbf" points="173.342,-0.5 173.342,-18.5 292.165,-18.5 292.165,-0.5 173.342,-0.5"/>
<text text-anchor="middle" x="232.753" y="-6.5" font-family="Helvetica,sans-Serif" font-size="10.00">vtkvmtkWin32Header.h</text>
</g>
<!-- Node0&#45;&gt;Node2 -->
<g id="edge2" class="edge"><title>Node0&#45;&gt;Node2</title>
<path fill="none" stroke="midnightblue" d="M166.6,-55.4504C178.741,-47.201 197.851,-34.2158 212.416,-24.3187"/>
<polygon fill="midnightblue" stroke="midnightblue" points="214.491,-27.1405 220.795,-18.6253 210.557,-21.3506 214.491,-27.1405"/>
</g>
</g>
</svg>
