<?xml version="1.0" encoding="UTF-8" standalone="no"?>
<!DOCTYPE svg PUBLIC "-//W3C//DTD SVG 1.1//EN"
 "http://www.w3.org/Graphics/SVG/1.1/DTD/svg11.dtd">
<!-- Generated by graphviz version 2.38.0 (20140413.2041)
 -->
<!-- Title: vtkvmtkLinearToQuadraticSurfaceMeshFilter.h Pages: 1 -->
<svg width="300pt" height="92pt"
 viewBox="0.00 0.00 300.16 92.00" xmlns="http://www.w3.org/2000/svg" xmlns:xlink="http://www.w3.org/1999/xlink">
<g id="graph0" class="graph" transform="scale(1 1) rotate(0) translate(4 88)">
<title>vtkvmtkLinearToQuadraticSurfaceMeshFilter.h</title>
<polygon fill="white" stroke="none" points="-4,4 -4,-88 296.157,-88 296.157,4 -4,4"/>
<!-- Node0 -->
<g id="node1" class="node"><title>Node0</title>
<polygon fill="#bfbfbf" stroke="black" points="88.9458,-55.5 88.9458,-83.5 220.546,-83.5 220.546,-55.5 88.9458,-55.5"/>
<text text-anchor="start" x="96.9458" y="-71.5" font-family="Helvetica,sans-Serif" font-size="10.00">vtkvmtkLinearToQuadratic</text>
<text text-anchor="middle" x="154.746" y="-61.5" font-family="Helvetica,sans-Serif" font-size="10.00">SurfaceMeshFilter.h</text>
</g>
<!-- Node1 -->
<g id="node2" class="node"><title>Node1</title>
<polygon fill="white" stroke="#bfbfbf" points="0,-0.5 0,-18.5 155.492,-18.5 155.492,-0.5 0,-0.5"/>
<text text-anchor="middle" x="77.7461" y="-6.5" font-family="Helvetica,sans-Serif" font-size="10.00">vtkUnstructuredGridAlgorithm.h</text>
</g>
<!-- Node0&#45;&gt;Node1 -->
<g id="edge1" class="edge"><title>Node0&#45;&gt;Node1</title>
<path fill="none" stroke="midnightblue" d="M137.274,-55.3389C125.277,-46.3022 109.35,-34.3057 96.9899,-24.9954"/>
<polygon fill="midnightblue" stroke="midnightblue" points="98.8206,-21.9924 88.7272,-18.7715 94.6089,-27.5837 98.8206,-21.9924"/>
</g>
<!-- Node2 -->
<g id="node3" class="node"><title>Node2</title>
<polygon fill="white" stroke="#bfbfbf" points="173.335,-0.5 173.335,-18.5 292.157,-18.5 292.157,-0.5 173.335,-0.5"/>
<text text-anchor="middle" x="232.746" y="-6.5" font-family="Helvetica,sans-Serif" font-size="10.00">vtkvmtkWin32Header.h</text>
</g>
<!-- Node0&#45;&gt;Node2 -->
<g id="edge2" class="edge"><title>Node0&#45;&gt;Node2</title>
<path fill="none" stroke="midnightblue" d="M172.446,-55.3389C184.598,-46.3022 200.732,-34.3057 213.252,-24.9954"/>
<polygon fill="midnightblue" stroke="midnightblue" points="215.686,-27.5472 221.622,-18.7715 211.509,-21.9299 215.686,-27.5472"/>
</g>
</g>
</svg>
