<?xml version="1.0" encoding="UTF-8" standalone="no"?>
<!DOCTYPE svg PUBLIC "-//W3C//DTD SVG 1.1//EN"
 "http://www.w3.org/Graphics/SVG/1.1/DTD/svg11.dtd">
<!-- Generated by graphviz version 2.38.0 (20140413.2041)
 -->
<!-- Title: vtkvmtkFEShapeFunctions.h Pages: 1 -->
<svg width="393pt" height="82pt"
 viewBox="0.00 0.00 392.99 82.00" xmlns="http://www.w3.org/2000/svg" xmlns:xlink="http://www.w3.org/1999/xlink">
<g id="graph0" class="graph" transform="scale(1 1) rotate(0) translate(4 78)">
<title>vtkvmtkFEShapeFunctions.h</title>
<polygon fill="white" stroke="none" points="-4,4 -4,-78 388.991,-78 388.991,4 -4,4"/>
<!-- Node0 -->
<g id="node1" class="node"><title>Node0</title>
<polygon fill="#bfbfbf" stroke="black" points="123.372,-55.5 123.372,-73.5 266.647,-73.5 266.647,-55.5 123.372,-55.5"/>
<text text-anchor="middle" x="195.01" y="-61.5" font-family="Helvetica,sans-Serif" font-size="10.00">vtkvmtkFEShapeFunctions.h</text>
</g>
<!-- Node1 -->
<g id="node2" class="node"><title>Node1</title>
<polygon fill="white" stroke="#bfbfbf" points="0,-0.5 0,-18.5 66.0195,-18.5 66.0195,-0.5 0,-0.5"/>
<text text-anchor="middle" x="33.0098" y="-6.5" font-family="Helvetica,sans-Serif" font-size="10.00">vtkObject.h</text>
</g>
<!-- Node0&#45;&gt;Node1 -->
<g id="edge1" class="edge"><title>Node0&#45;&gt;Node1</title>
<path fill="none" stroke="midnightblue" d="M170.405,-55.4504C142.85,-46.4355 98.0093,-31.7653 67.0898,-21.6496"/>
<polygon fill="midnightblue" stroke="midnightblue" points="68.1723,-18.3213 57.5797,-18.5383 65.9957,-24.9743 68.1723,-18.3213"/>
</g>
<!-- Node2 -->
<g id="node3" class="node"><title>Node2</title>
<polygon fill="white" stroke="#bfbfbf" points="83.5986,-0.5 83.5986,-18.5 202.421,-18.5 202.421,-0.5 83.5986,-0.5"/>
<text text-anchor="middle" x="143.01" y="-6.5" font-family="Helvetica,sans-Serif" font-size="10.00">vtkvmtkWin32Header.h</text>
</g>
<!-- Node0&#45;&gt;Node2 -->
<g id="edge2" class="edge"><title>Node0&#45;&gt;Node2</title>
<path fill="none" stroke="midnightblue" d="M186.885,-55.2188C179.208,-47.3944 167.502,-35.4631 158.111,-25.8921"/>
<polygon fill="midnightblue" stroke="midnightblue" points="160.409,-23.2365 150.907,-18.5496 155.413,-28.1389 160.409,-23.2365"/>
</g>
<!-- Node3 -->
<g id="node4" class="node"><title>Node3</title>
<polygon fill="white" stroke="#bfbfbf" points="220.837,-0.5 220.837,-18.5 275.182,-18.5 275.182,-0.5 220.837,-0.5"/>
<text text-anchor="middle" x="248.01" y="-6.5" font-family="Helvetica,sans-Serif" font-size="10.00">vtkCell.h</text>
</g>
<!-- Node0&#45;&gt;Node3 -->
<g id="edge3" class="edge"><title>Node0&#45;&gt;Node3</title>
<path fill="none" stroke="midnightblue" d="M203.291,-55.2188C211.115,-47.3944 223.047,-35.4631 232.618,-25.8921"/>
<polygon fill="midnightblue" stroke="midnightblue" points="235.364,-28.0955 239.96,-18.5496 230.414,-23.1458 235.364,-28.0955"/>
</g>
<!-- Node4 -->
<g id="node5" class="node"><title>Node4</title>
<polygon fill="white" stroke="#bfbfbf" points="293.029,-0.5 293.029,-18.5 384.991,-18.5 384.991,-0.5 293.029,-0.5"/>
<text text-anchor="middle" x="339.01" y="-6.5" font-family="Helvetica,sans-Serif" font-size="10.00">vtkDoubleArray.h</text>
</g>
<!-- Node0&#45;&gt;Node4 -->
<g id="edge4" class="edge"><title>Node0&#45;&gt;Node4</title>
<path fill="none" stroke="midnightblue" d="M216.88,-55.4504C240.985,-46.5784 279.973,-32.2288 307.401,-22.134"/>
<polygon fill="midnightblue" stroke="midnightblue" points="308.758,-25.364 316.933,-18.6253 306.34,-18.7948 308.758,-25.364"/>
</g>
</g>
</svg>
