<?xml version="1.0" encoding="UTF-8" standalone="no"?>
<!DOCTYPE svg PUBLIC "-//W3C//DTD SVG 1.1//EN"
 "http://www.w3.org/Graphics/SVG/1.1/DTD/svg11.dtd">
<!-- Generated by graphviz version 2.38.0 (20140413.2041)
 -->
<!-- Title: vtkvmtkPolyDataLocalGeometry.h Pages: 1 -->
<svg width="439pt" height="82pt"
 viewBox="0.00 0.00 439.38 82.00" xmlns="http://www.w3.org/2000/svg" xmlns:xlink="http://www.w3.org/1999/xlink">
<g id="graph0" class="graph" transform="scale(1 1) rotate(0) translate(4 78)">
<title>vtkvmtkPolyDataLocalGeometry.h</title>
<polygon fill="white" stroke="none" points="-4,4 -4,-78 435.376,-78 435.376,4 -4,4"/>
<!-- Node0 -->
<g id="node1" class="node"><title>Node0</title>
<polygon fill="#bfbfbf" stroke="black" points="137.029,-55.5 137.029,-73.5 302.902,-73.5 302.902,-55.5 137.029,-55.5"/>
<text text-anchor="middle" x="219.965" y="-61.5" font-family="Helvetica,sans-Serif" font-size="10.00">vtkvmtkPolyDataLocalGeometry.h</text>
</g>
<!-- Node1 -->
<g id="node2" class="node"><title>Node1</title>
<polygon fill="white" stroke="#bfbfbf" points="0,-0.5 0,-18.5 119.931,-18.5 119.931,-0.5 0,-0.5"/>
<text text-anchor="middle" x="59.9653" y="-6.5" font-family="Helvetica,sans-Serif" font-size="10.00">vtkPolyDataAlgorithm.h</text>
</g>
<!-- Node0&#45;&gt;Node1 -->
<g id="edge1" class="edge"><title>Node0&#45;&gt;Node1</title>
<path fill="none" stroke="midnightblue" d="M195.665,-55.4504C168.568,-46.4745 124.546,-31.8922 94.022,-21.7813"/>
<polygon fill="midnightblue" stroke="midnightblue" points="94.8253,-18.3604 84.2319,-18.5383 92.6241,-25.0053 94.8253,-18.3604"/>
</g>
<!-- Node2 -->
<g id="node3" class="node"><title>Node2</title>
<polygon fill="white" stroke="#bfbfbf" points="138.118,-0.5 138.118,-18.5 215.812,-18.5 215.812,-0.5 138.118,-0.5"/>
<text text-anchor="middle" x="176.965" y="-6.5" font-family="Helvetica,sans-Serif" font-size="10.00">vtkPolyData.h</text>
</g>
<!-- Node0&#45;&gt;Node2 -->
<g id="edge2" class="edge"><title>Node0&#45;&gt;Node2</title>
<path fill="none" stroke="midnightblue" d="M213.247,-55.2188C207.026,-47.5509 197.604,-35.9387 189.921,-26.4691"/>
<polygon fill="midnightblue" stroke="midnightblue" points="192.515,-24.11 183.496,-18.5496 187.079,-28.5204 192.515,-24.11"/>
</g>
<!-- Node3 -->
<g id="node4" class="node"><title>Node3</title>
<polygon fill="white" stroke="#bfbfbf" points="233.456,-0.5 233.456,-18.5 294.475,-18.5 294.475,-0.5 233.456,-0.5"/>
<text text-anchor="middle" x="263.965" y="-6.5" font-family="Helvetica,sans-Serif" font-size="10.00">vtkIdList.h</text>
</g>
<!-- Node0&#45;&gt;Node3 -->
<g id="edge3" class="edge"><title>Node0&#45;&gt;Node3</title>
<path fill="none" stroke="midnightblue" d="M226.84,-55.2188C233.206,-47.5509 242.846,-35.9387 250.708,-26.4691"/>
<polygon fill="midnightblue" stroke="midnightblue" points="253.588,-28.4793 257.283,-18.5496 248.202,-24.008 253.588,-28.4793"/>
</g>
<!-- Node4 -->
<g id="node5" class="node"><title>Node4</title>
<polygon fill="white" stroke="#bfbfbf" points="312.554,-0.5 312.554,-18.5 431.376,-18.5 431.376,-0.5 312.554,-0.5"/>
<text text-anchor="middle" x="371.965" y="-6.5" font-family="Helvetica,sans-Serif" font-size="10.00">vtkvmtkWin32Header.h</text>
</g>
<!-- Node0&#45;&gt;Node4 -->
<g id="edge4" class="edge"><title>Node0&#45;&gt;Node4</title>
<path fill="none" stroke="midnightblue" d="M243.051,-55.4504C268.607,-46.5395 310.01,-32.1029 338.98,-22.0014"/>
<polygon fill="midnightblue" stroke="midnightblue" points="340.372,-25.2227 348.663,-18.6253 338.068,-18.613 340.372,-25.2227"/>
</g>
</g>
</svg>
