<?xml version="1.0" encoding="UTF-8" standalone="no"?>
<!DOCTYPE svg PUBLIC "-//W3C//DTD SVG 1.1//EN"
 "http://www.w3.org/Graphics/SVG/1.1/DTD/svg11.dtd">
<!-- Generated by graphviz version 2.38.0 (20140413.2041)
 -->
<!-- Title: vtkvmtkFastMarchingDirectionalFreezeImageFilter.h Pages: 1 -->
<svg width="379pt" height="92pt"
 viewBox="0.00 0.00 379.16 92.00" xmlns="http://www.w3.org/2000/svg" xmlns:xlink="http://www.w3.org/1999/xlink">
<g id="graph0" class="graph" transform="scale(1 1) rotate(0) translate(4 88)">
<title>vtkvmtkFastMarchingDirectionalFreezeImageFilter.h</title>
<polygon fill="white" stroke="none" points="-4,4 -4,-88 375.165,-88 375.165,4 -4,4"/>
<!-- Node0 -->
<g id="node1" class="node"><title>Node0</title>
<polygon fill="#bfbfbf" stroke="black" points="124.901,-55.5 124.901,-83.5 282.605,-83.5 282.605,-55.5 124.901,-55.5"/>
<text text-anchor="start" x="132.901" y="-71.5" font-family="Helvetica,sans-Serif" font-size="10.00">vtkvmtkFastMarchingDirectional</text>
<text text-anchor="middle" x="203.753" y="-61.5" font-family="Helvetica,sans-Serif" font-size="10.00">FreezeImageFilter.h</text>
</g>
<!-- Node1 -->
<g id="node2" class="node"><title>Node1</title>
<polygon fill="white" stroke="#bfbfbf" points="0,-0.5 0,-18.5 155.507,-18.5 155.507,-0.5 0,-0.5"/>
<text text-anchor="middle" x="77.7534" y="-6.5" font-family="Helvetica,sans-Serif" font-size="10.00">vtkSimpleImageToImageFilter.h</text>
</g>
<!-- Node0&#45;&gt;Node1 -->
<g id="edge1" class="edge"><title>Node0&#45;&gt;Node1</title>
<path fill="none" stroke="midnightblue" d="M175.477,-55.4837C154.305,-45.7382 125.526,-32.4905 104.686,-22.8977"/>
<polygon fill="midnightblue" stroke="midnightblue" points="105.992,-19.6456 95.4443,-18.6434 103.065,-26.0042 105.992,-19.6456"/>
</g>
<!-- Node2 -->
<g id="node3" class="node"><title>Node2</title>
<polygon fill="white" stroke="#bfbfbf" points="173.244,-0.5 173.244,-18.5 234.263,-18.5 234.263,-0.5 173.244,-0.5"/>
<text text-anchor="middle" x="203.753" y="-6.5" font-family="Helvetica,sans-Serif" font-size="10.00">vtkIdList.h</text>
</g>
<!-- Node0&#45;&gt;Node2 -->
<g id="edge2" class="edge"><title>Node0&#45;&gt;Node2</title>
<path fill="none" stroke="midnightblue" d="M203.753,-55.3389C203.753,-47.5305 203.753,-37.5122 203.753,-28.9265"/>
<polygon fill="midnightblue" stroke="midnightblue" points="207.254,-28.7714 203.753,-18.7715 200.254,-28.7715 207.254,-28.7714"/>
</g>
<!-- Node3 -->
<g id="node4" class="node"><title>Node3</title>
<polygon fill="white" stroke="#bfbfbf" points="252.342,-0.5 252.342,-18.5 371.165,-18.5 371.165,-0.5 252.342,-0.5"/>
<text text-anchor="middle" x="311.753" y="-6.5" font-family="Helvetica,sans-Serif" font-size="10.00">vtkvmtkWin32Header.h</text>
</g>
<!-- Node0&#45;&gt;Node3 -->
<g id="edge3" class="edge"><title>Node0&#45;&gt;Node3</title>
<path fill="none" stroke="midnightblue" d="M227.991,-55.4837C245.727,-45.9587 269.693,-33.0882 287.445,-23.5543"/>
<polygon fill="midnightblue" stroke="midnightblue" points="289.436,-26.4582 296.59,-18.6434 286.124,-20.2912 289.436,-26.4582"/>
</g>
</g>
</svg>
