<?xml version="1.0" encoding="UTF-8" standalone="no"?>
<!DOCTYPE svg PUBLIC "-//W3C//DTD SVG 1.1//EN"
 "http://www.w3.org/Graphics/SVG/1.1/DTD/svg11.dtd">
<!-- Generated by graphviz version 2.38.0 (20140413.2041)
 -->
<!-- Title: vtkvmtkPolyBallLine.h Pages: 1 -->
<svg width="426pt" height="82pt"
 viewBox="0.00 0.00 425.70 82.00" xmlns="http://www.w3.org/2000/svg" xmlns:xlink="http://www.w3.org/1999/xlink">
<g id="graph0" class="graph" transform="scale(1 1) rotate(0) translate(4 78)">
<title>vtkvmtkPolyBallLine.h</title>
<polygon fill="white" stroke="none" points="-4,4 -4,-78 421.704,-78 421.704,4 -4,4"/>
<!-- Node0 -->
<g id="node1" class="node"><title>Node0</title>
<polygon fill="#bfbfbf" stroke="black" points="149.663,-55.5 149.663,-73.5 262.923,-73.5 262.923,-55.5 149.663,-55.5"/>
<text text-anchor="middle" x="206.293" y="-61.5" font-family="Helvetica,sans-Serif" font-size="10.00">vtkvmtkPolyBallLine.h</text>
</g>
<!-- Node1 -->
<g id="node2" class="node"><title>Node1</title>
<polygon fill="white" stroke="#bfbfbf" points="0,-0.5 0,-18.5 106.586,-18.5 106.586,-0.5 0,-0.5"/>
<text text-anchor="middle" x="53.293" y="-6.5" font-family="Helvetica,sans-Serif" font-size="10.00">vtkImplicitFunction.h</text>
</g>
<!-- Node0&#45;&gt;Node1 -->
<g id="edge1" class="edge"><title>Node0&#45;&gt;Node1</title>
<path fill="none" stroke="midnightblue" d="M183.056,-55.4504C157.331,-46.5395 115.656,-32.1029 86.4951,-22.0014"/>
<polygon fill="midnightblue" stroke="midnightblue" points="87.3438,-18.5914 76.7491,-18.6253 85.0525,-25.2058 87.3438,-18.5914"/>
</g>
<!-- Node2 -->
<g id="node3" class="node"><title>Node2</title>
<polygon fill="white" stroke="#bfbfbf" points="124.446,-0.5 124.446,-18.5 202.14,-18.5 202.14,-0.5 124.446,-0.5"/>
<text text-anchor="middle" x="163.293" y="-6.5" font-family="Helvetica,sans-Serif" font-size="10.00">vtkPolyData.h</text>
</g>
<!-- Node0&#45;&gt;Node2 -->
<g id="edge2" class="edge"><title>Node0&#45;&gt;Node2</title>
<path fill="none" stroke="midnightblue" d="M199.574,-55.2188C193.353,-47.5509 183.932,-35.9387 176.249,-26.4691"/>
<polygon fill="midnightblue" stroke="midnightblue" points="178.842,-24.11 169.824,-18.5496 173.406,-28.5204 178.842,-24.11"/>
</g>
<!-- Node3 -->
<g id="node4" class="node"><title>Node3</title>
<polygon fill="white" stroke="#bfbfbf" points="219.783,-0.5 219.783,-18.5 280.803,-18.5 280.803,-0.5 219.783,-0.5"/>
<text text-anchor="middle" x="250.293" y="-6.5" font-family="Helvetica,sans-Serif" font-size="10.00">vtkIdList.h</text>
</g>
<!-- Node0&#45;&gt;Node3 -->
<g id="edge3" class="edge"><title>Node0&#45;&gt;Node3</title>
<path fill="none" stroke="midnightblue" d="M213.168,-55.2188C219.534,-47.5509 229.174,-35.9387 237.036,-26.4691"/>
<polygon fill="midnightblue" stroke="midnightblue" points="239.916,-28.4793 243.61,-18.5496 234.53,-24.008 239.916,-28.4793"/>
</g>
<!-- Node4 -->
<g id="node5" class="node"><title>Node4</title>
<polygon fill="white" stroke="#bfbfbf" points="298.882,-0.5 298.882,-18.5 417.704,-18.5 417.704,-0.5 298.882,-0.5"/>
<text text-anchor="middle" x="358.293" y="-6.5" font-family="Helvetica,sans-Serif" font-size="10.00">vtkvmtkWin32Header.h</text>
</g>
<!-- Node0&#45;&gt;Node4 -->
<g id="edge4" class="edge"><title>Node0&#45;&gt;Node4</title>
<path fill="none" stroke="midnightblue" d="M229.378,-55.4504C254.934,-46.5395 296.338,-32.1029 325.308,-22.0014"/>
<polygon fill="midnightblue" stroke="midnightblue" points="326.7,-25.2227 334.99,-18.6253 324.395,-18.613 326.7,-25.2227"/>
</g>
</g>
</svg>
