<?xml version="1.0" encoding="UTF-8" standalone="no"?>
<!DOCTYPE svg PUBLIC "-//W3C//DTD SVG 1.1//EN"
 "http://www.w3.org/Graphics/SVG/1.1/DTD/svg11.dtd">
<!-- Generated by graphviz version 2.38.0 (20140413.2041)
 -->
<!-- Title: vtkvmtkNeighborhoods.h Pages: 1 -->
<svg width="1254pt" height="322pt"
 viewBox="0.00 0.00 1254.05 322.00" xmlns="http://www.w3.org/2000/svg" xmlns:xlink="http://www.w3.org/1999/xlink">
<g id="graph0" class="graph" transform="scale(1 1) rotate(0) translate(4 318)">
<title>vtkvmtkNeighborhoods.h</title>
<polygon fill="white" stroke="none" points="-4,4 -4,-318 1250.05,-318 1250.05,4 -4,4"/>
<!-- Node10 -->
<g id="node1" class="node"><title>Node10</title>
<polygon fill="#bfbfbf" stroke="black" points="375.116,-295.5 375.116,-313.5 501.169,-313.5 501.169,-295.5 375.116,-295.5"/>
<text text-anchor="middle" x="438.143" y="-301.5" font-family="Helvetica,sans-Serif" font-size="10.00">vtkvmtkNeighborhoods.h</text>
</g>
<!-- Node11 -->
<g id="node2" class="node"><title>Node11</title>
<g id="a_node2"><a xlink:href="vtkvmtkSparseMatrix_8h.html" target="_top" xlink:title="vtkvmtkSparseMatrix.h">
<polygon fill="white" stroke="black" points="379.576,-240.5 379.576,-258.5 496.709,-258.5 496.709,-240.5 379.576,-240.5"/>
<text text-anchor="middle" x="438.143" y="-246.5" font-family="Helvetica,sans-Serif" font-size="10.00">vtkvmtkSparseMatrix.h</text>
</a>
</g>
</g>
<!-- Node10&#45;&gt;Node11 -->
<g id="edge1" class="edge"><title>Node10&#45;&gt;Node11</title>
<path fill="none" stroke="midnightblue" d="M438.143,-285.175C438.143,-276.094 438.143,-265.595 438.143,-258.55"/>
<polygon fill="midnightblue" stroke="midnightblue" points="434.643,-285.219 438.143,-295.219 441.643,-285.219 434.643,-285.219"/>
</g>
<!-- Node12 -->
<g id="node3" class="node"><title>Node12</title>
<g id="a_node3"><a xlink:href="vtkvmtkLinearSystem_8h.html" target="_top" xlink:title="vtkvmtkLinearSystem.h">
<polygon fill="white" stroke="black" points="167.46,-185.5 167.46,-203.5 286.825,-203.5 286.825,-185.5 167.46,-185.5"/>
<text text-anchor="middle" x="227.143" y="-191.5" font-family="Helvetica,sans-Serif" font-size="10.00">vtkvmtkLinearSystem.h</text>
</a>
</g>
</g>
<!-- Node11&#45;&gt;Node12 -->
<g id="edge2" class="edge"><title>Node11&#45;&gt;Node12</title>
<path fill="none" stroke="midnightblue" d="M396.294,-237.988C355.956,-227.856 295.791,-212.744 259.144,-203.538"/>
<polygon fill="midnightblue" stroke="midnightblue" points="395.545,-241.409 406.096,-240.45 397.25,-234.62 395.545,-241.409"/>
</g>
<!-- Node18 -->
<g id="node9" class="node"><title>Node18</title>
<g id="a_node9"><a xlink:href="vtkvmtkFEAssembler_8h.html" target="_top" xlink:title="vtkvmtkFEAssembler.h">
<polygon fill="white" stroke="black" points="627.295,-185.5 627.295,-203.5 744.99,-203.5 744.99,-185.5 627.295,-185.5"/>
<text text-anchor="middle" x="686.143" y="-191.5" font-family="Helvetica,sans-Serif" font-size="10.00">vtkvmtkFEAssembler.h</text>
</a>
</g>
</g>
<!-- Node11&#45;&gt;Node18 -->
<g id="edge9" class="edge"><title>Node11&#45;&gt;Node18</title>
<path fill="none" stroke="midnightblue" d="M485.83,-238.309C533.24,-228.177 604.999,-212.841 648.529,-203.538"/>
<polygon fill="midnightblue" stroke="midnightblue" points="484.856,-234.938 475.808,-240.45 486.319,-241.783 484.856,-234.938"/>
</g>
<!-- Node13 -->
<g id="node4" class="node"><title>Node13</title>
<g id="a_node4"><a xlink:href="vtkvmtkBoundaryConditions_8h.html" target="_top" xlink:title="vtkvmtkBoundaryConditions.h">
<polygon fill="white" stroke="black" points="0,-125.5 0,-143.5 148.285,-143.5 148.285,-125.5 0,-125.5"/>
<text text-anchor="middle" x="74.1426" y="-131.5" font-family="Helvetica,sans-Serif" font-size="10.00">vtkvmtkBoundaryConditions.h</text>
</a>
</g>
</g>
<!-- Node12&#45;&gt;Node13 -->
<g id="edge3" class="edge"><title>Node12&#45;&gt;Node13</title>
<path fill="none" stroke="midnightblue" d="M196.355,-181.829C166.504,-170.513 121.99,-153.638 95.7291,-143.683"/>
<polygon fill="midnightblue" stroke="midnightblue" points="195.277,-185.163 205.869,-185.435 197.759,-178.618 195.277,-185.163"/>
</g>
<!-- Node15 -->
<g id="node6" class="node"><title>Node15</title>
<g id="a_node6"><a xlink:href="vtkvmtkEllipticProblem_8h.html" target="_top" xlink:title="vtkvmtkEllipticProblem.h">
<polygon fill="white" stroke="black" points="64.9629,-0.5 64.9629,-18.5 189.322,-18.5 189.322,-0.5 64.9629,-0.5"/>
<text text-anchor="middle" x="127.143" y="-6.5" font-family="Helvetica,sans-Serif" font-size="10.00">vtkvmtkEllipticProblem.h</text>
</a>
</g>
</g>
<!-- Node12&#45;&gt;Node15 -->
<g id="edge6" class="edge"><title>Node12&#45;&gt;Node15</title>
<path fill="none" stroke="midnightblue" d="M214.34,-177.314C208.141,-169.09 200.829,-158.789 195.143,-149 172.067,-109.274 172.967,-95.9507 152.143,-55 145.555,-42.046 137.148,-27.4265 131.956,-18.5918"/>
<polygon fill="midnightblue" stroke="midnightblue" points="211.62,-179.518 220.499,-185.298 217.163,-175.243 211.62,-179.518"/>
</g>
<!-- Node16 -->
<g id="node7" class="node"><title>Node16</title>
<g id="a_node7"><a xlink:href="vtkvmtkLinearSystemSolver_8h.html" target="_top" xlink:title="vtkvmtkLinearSystemSolver.h">
<polygon fill="white" stroke="black" points="204.562,-125.5 204.562,-143.5 351.724,-143.5 351.724,-125.5 204.562,-125.5"/>
<text text-anchor="middle" x="278.143" y="-131.5" font-family="Helvetica,sans-Serif" font-size="10.00">vtkvmtkLinearSystemSolver.h</text>
</a>
</g>
</g>
<!-- Node12&#45;&gt;Node16 -->
<g id="edge7" class="edge"><title>Node12&#45;&gt;Node16</title>
<path fill="none" stroke="midnightblue" d="M240.909,-177.844C250.528,-166.905 262.994,-152.728 270.781,-143.872"/>
<polygon fill="midnightblue" stroke="midnightblue" points="238.209,-175.614 234.234,-185.435 243.466,-180.237 238.209,-175.614"/>
</g>
<!-- Node14 -->
<g id="node5" class="node"><title>Node14</title>
<g id="a_node5"><a xlink:href="vtkvmtkDirichletBoundaryConditions_8h.html" target="_top" xlink:title="vtkvmtkDirichletBoundary\lConditions.h">
<polygon fill="white" stroke="black" points="14.7363,-55.5 14.7363,-83.5 143.549,-83.5 143.549,-55.5 14.7363,-55.5"/>
<text text-anchor="start" x="22.7363" y="-71.5" font-family="Helvetica,sans-Serif" font-size="10.00">vtkvmtkDirichletBoundary</text>
<text text-anchor="middle" x="79.1426" y="-61.5" font-family="Helvetica,sans-Serif" font-size="10.00">Conditions.h</text>
</a>
</g>
</g>
<!-- Node13&#45;&gt;Node14 -->
<g id="edge4" class="edge"><title>Node13&#45;&gt;Node14</title>
<path fill="none" stroke="midnightblue" d="M75.5999,-115.137C76.3962,-105.105 77.3643,-92.906 78.0872,-83.7981"/>
<polygon fill="midnightblue" stroke="midnightblue" points="72.0985,-115.018 74.7962,-125.264 79.0765,-115.572 72.0985,-115.018"/>
</g>
<!-- Node14&#45;&gt;Node15 -->
<g id="edge5" class="edge"><title>Node14&#45;&gt;Node15</title>
<path fill="none" stroke="midnightblue" d="M96.5828,-47.4264C104.801,-37.4957 114.132,-26.2217 120.297,-18.7715"/>
<polygon fill="midnightblue" stroke="midnightblue" points="93.7138,-45.4034 90.0345,-55.3389 99.1066,-49.8664 93.7138,-45.4034"/>
</g>
<!-- Node17 -->
<g id="node8" class="node"><title>Node17</title>
<g id="a_node8"><a xlink:href="vtkvmtkOpenNLLinearSystemSolver_8h.html" target="_top" xlink:title="vtkvmtkOpenNLLinearSystem\lSolver.h">
<polygon fill="white" stroke="black" points="204.007,-55.5 204.007,-83.5 352.278,-83.5 352.278,-55.5 204.007,-55.5"/>
<text text-anchor="start" x="212.007" y="-71.5" font-family="Helvetica,sans-Serif" font-size="10.00">vtkvmtkOpenNLLinearSystem</text>
<text text-anchor="middle" x="278.143" y="-61.5" font-family="Helvetica,sans-Serif" font-size="10.00">Solver.h</text>
</a>
</g>
</g>
<!-- Node16&#45;&gt;Node17 -->
<g id="edge8" class="edge"><title>Node16&#45;&gt;Node17</title>
<path fill="none" stroke="midnightblue" d="M278.143,-115.137C278.143,-105.105 278.143,-92.906 278.143,-83.7981"/>
<polygon fill="midnightblue" stroke="midnightblue" points="274.643,-115.264 278.143,-125.264 281.643,-115.264 274.643,-115.264"/>
</g>
<!-- Node19 -->
<g id="node10" class="node"><title>Node19</title>
<g id="a_node10"><a xlink:href="vtkvmtkPolyDataFEGradientAssembler_8h.html" target="_top" xlink:title="vtkvmtkPolyDataFEGradient\lAssembler.h">
<polygon fill="white" stroke="black" points="369.345,-120.5 369.345,-148.5 510.94,-148.5 510.94,-120.5 369.345,-120.5"/>
<text text-anchor="start" x="377.345" y="-136.5" font-family="Helvetica,sans-Serif" font-size="10.00">vtkvmtkPolyDataFEGradient</text>
<text text-anchor="middle" x="440.143" y="-126.5" font-family="Helvetica,sans-Serif" font-size="10.00">Assembler.h</text>
</a>
</g>
</g>
<!-- Node18&#45;&gt;Node19 -->
<g id="edge10" class="edge"><title>Node18&#45;&gt;Node19</title>
<path fill="none" stroke="midnightblue" d="M642.227,-183.146C601.201,-173.473 539.794,-158.995 495.444,-148.538"/>
<polygon fill="midnightblue" stroke="midnightblue" points="641.659,-186.608 652.196,-185.496 643.266,-179.795 641.659,-186.608"/>
</g>
<!-- Node20 -->
<g id="node11" class="node"><title>Node20</title>
<g id="a_node11"><a xlink:href="vtkvmtkPolyDataFELaplaceAssembler_8h.html" target="_top" xlink:title="vtkvmtkPolyDataFELaplace\lAssembler.h">
<polygon fill="white" stroke="black" points="529.007,-120.5 529.007,-148.5 667.278,-148.5 667.278,-120.5 529.007,-120.5"/>
<text text-anchor="start" x="537.007" y="-136.5" font-family="Helvetica,sans-Serif" font-size="10.00">vtkvmtkPolyDataFELaplace</text>
<text text-anchor="middle" x="598.143" y="-126.5" font-family="Helvetica,sans-Serif" font-size="10.00">Assembler.h</text>
</a>
</g>
</g>
<!-- Node18&#45;&gt;Node20 -->
<g id="edge11" class="edge"><title>Node18&#45;&gt;Node20</title>
<path fill="none" stroke="midnightblue" d="M665.266,-179.74C650.972,-170.32 632.131,-157.901 618.049,-148.62"/>
<polygon fill="midnightblue" stroke="midnightblue" points="663.631,-182.855 673.907,-185.435 667.483,-177.01 663.631,-182.855"/>
</g>
<!-- Node21 -->
<g id="node12" class="node"><title>Node21</title>
<g id="a_node12"><a xlink:href="vtkvmtkUnstructuredGridFEGradientAssembler_8h.html" target="_top" xlink:title="vtkvmtkUnstructuredGridFEGradient\lAssembler.h">
<polygon fill="white" stroke="black" points="685.564,-120.5 685.564,-148.5 862.721,-148.5 862.721,-120.5 685.564,-120.5"/>
<text text-anchor="start" x="693.564" y="-136.5" font-family="Helvetica,sans-Serif" font-size="10.00">vtkvmtkUnstructuredGridFEGradient</text>
<text text-anchor="middle" x="774.143" y="-126.5" font-family="Helvetica,sans-Serif" font-size="10.00">Assembler.h</text>
</a>
</g>
</g>
<!-- Node18&#45;&gt;Node21 -->
<g id="edge12" class="edge"><title>Node18&#45;&gt;Node21</title>
<path fill="none" stroke="midnightblue" d="M707.019,-179.74C721.313,-170.32 740.154,-157.901 754.236,-148.62"/>
<polygon fill="midnightblue" stroke="midnightblue" points="704.802,-177.01 698.379,-185.435 708.654,-182.855 704.802,-177.01"/>
</g>
<!-- Node22 -->
<g id="node13" class="node"><title>Node22</title>
<g id="a_node13"><a xlink:href="vtkvmtkUnstructuredGridFELaplaceAssembler_8h.html" target="_top" xlink:title="vtkvmtkUnstructuredGridFELaplace\lAssembler.h">
<polygon fill="white" stroke="black" points="880.227,-120.5 880.227,-148.5 1054.06,-148.5 1054.06,-120.5 880.227,-120.5"/>
<text text-anchor="start" x="888.227" y="-136.5" font-family="Helvetica,sans-Serif" font-size="10.00">vtkvmtkUnstructuredGridFELaplace</text>
<text text-anchor="middle" x="967.143" y="-126.5" font-family="Helvetica,sans-Serif" font-size="10.00">Assembler.h</text>
</a>
</g>
</g>
<!-- Node18&#45;&gt;Node22 -->
<g id="edge13" class="edge"><title>Node18&#45;&gt;Node22</title>
<path fill="none" stroke="midnightblue" d="M734.825,-183.452C781.681,-173.78 852.776,-159.106 903.973,-148.538"/>
<polygon fill="midnightblue" stroke="midnightblue" points="734.005,-180.047 724.919,-185.496 735.42,-186.902 734.005,-180.047"/>
</g>
<!-- Node23 -->
<g id="node14" class="node"><title>Node23</title>
<g id="a_node14"><a xlink:href="vtkvmtkUnstructuredGridFEVorticityAssembler_8h.html" target="_top" xlink:title="vtkvmtkUnstructuredGridFEVorticity\lAssembler.h">
<polygon fill="white" stroke="black" points="1072.23,-120.5 1072.23,-148.5 1246.05,-148.5 1246.05,-120.5 1072.23,-120.5"/>
<text text-anchor="start" x="1080.23" y="-136.5" font-family="Helvetica,sans-Serif" font-size="10.00">vtkvmtkUnstructuredGridFEVorticity</text>
<text text-anchor="middle" x="1159.14" y="-126.5" font-family="Helvetica,sans-Serif" font-size="10.00">Assembler.h</text>
</a>
</g>
</g>
<!-- Node18&#45;&gt;Node23 -->
<g id="edge14" class="edge"><title>Node18&#45;&gt;Node23</title>
<path fill="none" stroke="midnightblue" d="M755.636,-185.765C831.324,-177.232 955.927,-162.865 1063.14,-149 1066.06,-148.622 1069.03,-148.233 1072.03,-147.836"/>
<polygon fill="midnightblue" stroke="midnightblue" points="754.833,-182.333 745.288,-186.93 755.616,-189.29 754.833,-182.333"/>
</g>
</g>
</svg>
