<?xml version="1.0" encoding="UTF-8" standalone="no"?>
<!DOCTYPE svg PUBLIC "-//W3C//DTD SVG 1.1//EN"
 "http://www.w3.org/Graphics/SVG/1.1/DTD/svg11.dtd">
<!-- Generated by graphviz version 2.38.0 (20140413.2041)
 -->
<!-- Title: vtkvmtkPolyDataLaplaceBeltramiStencil.h Pages: 1 -->
<!--zoomable 367 -->
<svg id="main" version="1.1" xmlns="http://www.w3.org/2000/svg" xmlns:xlink="http://www.w3.org/1999/xlink" xml:space="preserve" onload="init(evt)">
<style type="text/css"><![CDATA[
.edge:hover path { stroke: red; }
.edge:hover polygon { stroke: red; fill: red; }
]]></style>
<script type="text/javascript"><![CDATA[
var edges = document.getElementsByTagName('g');
if (edges && edges.length) {
  for (var i=0;i<edges.length;i++) {
    if (edges[i].id.substr(0,4)=='edge') {
      edges[i].setAttribute('class','edge');
    }
  }
}
]]></script>
        <defs>
                <circle id="rim" cx="0" cy="0" r="7"/>
                <circle id="rim2" cx="0" cy="0" r="3.5"/>
                <g id="zoomPlus">
                        <use xlink:href="#rim" fill="#404040">
                                <set attributeName="fill" to="#808080" begin="zoomplus.mouseover" end="zoomplus.mouseout"/>
                        </use>
                        <path d="M-4,0h8M0,-4v8" fill="none" stroke="white" stroke-width="1.5" pointer-events="none"/>
                </g>
                <g id="zoomMin">
                        <use xlink:href="#rim" fill="#404040">
                                <set attributeName="fill" to="#808080" begin="zoomminus.mouseover" end="zoomminus.mouseout"/>
                        </use>
                        <path d="M-4,0h8" fill="none" stroke="white" stroke-width="1.5" pointer-events="none"/>
                </g>
                <g id="dirArrow">
                        <path fill="none" stroke="white" stroke-width="1.5" d="M0,-3.0v7 M-2.5,-0.5L0,-3.0L2.5,-0.5"/>
                </g>
               <g id="resetDef">
                       <use xlink:href="#rim2" fill="#404040">
                               <set attributeName="fill" to="#808080" begin="reset.mouseover" end="reset.mouseout"/>
                       </use>
               </g>
        </defs>

<script type="text/javascript">
var viewWidth = 562;
var viewHeight = 367;
var sectionId = 'dynsection-0';
</script>
<script xlink:href="svgpan.js"/>
<svg id="graph" class="graph">
<g id="viewport">
<title>vtkvmtkPolyDataLaplaceBeltramiStencil.h</title>
<polygon fill="white" stroke="none" points="-4,4 -4,-363 558,-363 558,4 -4,4"/>
<!-- Node0 -->
<g id="node1" class="node"><title>Node0</title>
<polygon fill="#bfbfbf" stroke="black" points="266.917,-330.5 266.917,-358.5 429.083,-358.5 429.083,-330.5 266.917,-330.5"/>
<text text-anchor="start" x="274.917" y="-346.5" font-family="Helvetica,sans-Serif" font-size="10.00">vtkvmtkPolyDataLaplaceBeltrami</text>
<text text-anchor="middle" x="348" y="-336.5" font-family="Helvetica,sans-Serif" font-size="10.00">Stencil.h</text>
</g>
<!-- Node1 -->
<g id="node2" class="node"><title>Node1</title>
<polygon fill="white" stroke="#bfbfbf" points="61.9902,-0.5 61.9902,-18.5 128.01,-18.5 128.01,-0.5 61.9902,-0.5"/>
<text text-anchor="middle" x="95" y="-6.5" font-family="Helvetica,sans-Serif" font-size="10.00">vtkObject.h</text>
</g>
<!-- Node0&#45;&gt;Node1 -->
<g id="edge1" class="edge"><title>Node0&#45;&gt;Node1</title>
<path fill="none" stroke="midnightblue" d="M266.849,-333.605C164.017,-318.755 0,-286.32 0,-230.5 0,-230.5 0,-230.5 0,-118.5 0,-75.6483 42.6861,-41.7178 70.8317,-24.0029"/>
<polygon fill="midnightblue" stroke="midnightblue" points="72.9843,-26.7918 79.7366,-18.6274 69.3667,-20.799 72.9843,-26.7918"/>
</g>
<!-- Node2 -->
<g id="node3" class="node"><title>Node2</title>
<g id="a_node3"><a xlink:href="vtkvmtkPolyDataManifoldStencil_8h.html" target="_top" xlink:title="vtkvmtkPolyDataManifoldStencil.h">
<polygon fill="white" stroke="black" points="264.692,-275.5 264.692,-293.5 431.308,-293.5 431.308,-275.5 264.692,-275.5"/>
<text text-anchor="middle" x="348" y="-281.5" font-family="Helvetica,sans-Serif" font-size="10.00">vtkvmtkPolyDataManifoldStencil.h</text>
</a>
</g>
</g>
<!-- Node0&#45;&gt;Node2 -->
<g id="edge2" class="edge"><title>Node0&#45;&gt;Node2</title>
<path fill="none" stroke="midnightblue" d="M348,-330.339C348,-322.531 348,-312.512 348,-303.927"/>
<polygon fill="midnightblue" stroke="midnightblue" points="351.5,-303.771 348,-293.771 344.5,-303.772 351.5,-303.771"/>
</g>
<!-- Node8 -->
<g id="node9" class="node"><title>Node8</title>
<polygon fill="white" stroke="#bfbfbf" points="321.589,-0.5 321.589,-18.5 440.411,-18.5 440.411,-0.5 321.589,-0.5"/>
<text text-anchor="middle" x="381" y="-6.5" font-family="Helvetica,sans-Serif" font-size="10.00">vtkvmtkWin32Header.h</text>
</g>
<!-- Node0&#45;&gt;Node8 -->
<g id="edge20" class="edge"><title>Node0&#45;&gt;Node8</title>
<path fill="none" stroke="midnightblue" d="M429.121,-331.895C486.768,-318.531 554,-290.157 554,-230.5 554,-230.5 554,-230.5 554,-118.5 554,-62.2363 487.343,-34.2087 436.78,-21.042"/>
<polygon fill="midnightblue" stroke="midnightblue" points="437.454,-17.6034 426.907,-18.6028 435.775,-24.3991 437.454,-17.6034"/>
</g>
<!-- Node2&#45;&gt;Node1 -->
<g id="edge3" class="edge"><title>Node2&#45;&gt;Node1</title>
<path fill="none" stroke="midnightblue" d="M290.418,-275.466C200.768,-261.321 38,-228.36 38,-175.5 38,-175.5 38,-175.5 38,-118.5 38,-82.3023 63.3534,-46.3493 80.2423,-26.4152"/>
<polygon fill="midnightblue" stroke="midnightblue" points="83.0846,-28.4839 87.0744,-18.669 77.8347,-23.8536 83.0846,-28.4839"/>
</g>
<!-- Node3 -->
<g id="node4" class="node"><title>Node3</title>
<g id="a_node4"><a xlink:href="vtkvmtkStencil_8h.html" target="_top" xlink:title="vtkvmtkStencil.h">
<polygon fill="white" stroke="black" points="267.879,-220.5 267.879,-238.5 356.121,-238.5 356.121,-220.5 267.879,-220.5"/>
<text text-anchor="middle" x="312" y="-226.5" font-family="Helvetica,sans-Serif" font-size="10.00">vtkvmtkStencil.h</text>
</a>
</g>
</g>
<!-- Node2&#45;&gt;Node3 -->
<g id="edge4" class="edge"><title>Node2&#45;&gt;Node3</title>
<path fill="none" stroke="midnightblue" d="M342.375,-275.219C337.273,-267.707 329.6,-256.411 323.243,-247.052"/>
<polygon fill="midnightblue" stroke="midnightblue" points="325.982,-244.855 317.468,-238.55 320.191,-248.788 325.982,-244.855"/>
</g>
<!-- Node2&#45;&gt;Node8 -->
<g id="edge19" class="edge"><title>Node2&#45;&gt;Node8</title>
<path fill="none" stroke="midnightblue" d="M351.253,-275.342C354.767,-266.451 360.469,-251.784 365,-239 382.094,-190.769 390.862,-179.52 399,-129 402.89,-104.851 400.555,-98.4566 401,-74 401.153,-65.557 402.77,-63.2568 401,-55 398.978,-45.5664 394.795,-35.7177 390.776,-27.6909"/>
<polygon fill="midnightblue" stroke="midnightblue" points="393.75,-25.8317 385.946,-18.6665 387.579,-29.1348 393.75,-25.8317"/>
</g>
<!-- Node9 -->
<g id="node10" class="node"><title>Node9</title>
<polygon fill="white" stroke="#bfbfbf" points="448.153,-220.5 448.153,-238.5 525.847,-238.5 525.847,-220.5 448.153,-220.5"/>
<text text-anchor="middle" x="487" y="-226.5" font-family="Helvetica,sans-Serif" font-size="10.00">vtkPolyData.h</text>
</g>
<!-- Node2&#45;&gt;Node9 -->
<g id="edge18" class="edge"><title>Node2&#45;&gt;Node9</title>
<path fill="none" stroke="midnightblue" d="M369.111,-275.45C392.277,-266.617 429.683,-252.355 456.139,-242.267"/>
<polygon fill="midnightblue" stroke="midnightblue" points="457.593,-245.458 465.69,-238.625 455.099,-238.918 457.593,-245.458"/>
</g>
<!-- Node3&#45;&gt;Node1 -->
<g id="edge5" class="edge"><title>Node3&#45;&gt;Node1</title>
<path fill="none" stroke="midnightblue" d="M291.251,-220.492C272.626,-212.745 245.058,-199.864 224,-184 170.748,-143.882 158.251,-129.956 122,-74 112.739,-59.7045 105.436,-41.6998 100.773,-28.5163"/>
<polygon fill="midnightblue" stroke="midnightblue" points="103.998,-27.1254 97.4923,-18.7633 97.3634,-29.3574 103.998,-27.1254"/>
</g>
<!-- Node4 -->
<g id="node5" class="node"><title>Node4</title>
<g id="a_node5"><a xlink:href="vtkvmtkNeighborhood_8h.html" target="_top" xlink:title="vtkvmtkNeighborhood.h">
<polygon fill="white" stroke="black" points="233.473,-165.5 233.473,-183.5 354.527,-183.5 354.527,-165.5 233.473,-165.5"/>
<text text-anchor="middle" x="294" y="-171.5" font-family="Helvetica,sans-Serif" font-size="10.00">vtkvmtkNeighborhood.h</text>
</a>
</g>
</g>
<!-- Node3&#45;&gt;Node4 -->
<g id="edge6" class="edge"><title>Node3&#45;&gt;Node4</title>
<path fill="none" stroke="midnightblue" d="M309.188,-220.219C306.743,-213.02 303.117,-202.346 300.022,-193.231"/>
<polygon fill="midnightblue" stroke="midnightblue" points="303.264,-191.893 296.734,-183.55 296.636,-194.144 303.264,-191.893"/>
</g>
<!-- Node3&#45;&gt;Node8 -->
<g id="edge17" class="edge"><title>Node3&#45;&gt;Node8</title>
<path fill="none" stroke="midnightblue" d="M325.846,-220.493C337.919,-212.748 354.885,-199.867 364,-184 392.724,-133.996 388.108,-62.3154 383.869,-28.9248"/>
<polygon fill="midnightblue" stroke="midnightblue" points="387.304,-28.2216 382.44,-18.8093 380.373,-29.2005 387.304,-28.2216"/>
</g>
<!-- Node4&#45;&gt;Node1 -->
<g id="edge7" class="edge"><title>Node4&#45;&gt;Node1</title>
<path fill="none" stroke="midnightblue" d="M276.576,-165.491C246.122,-150.827 182.511,-117.164 141,-74 127.181,-59.6301 114.118,-40.9196 105.469,-27.5378"/>
<polygon fill="midnightblue" stroke="midnightblue" points="108.299,-25.4642 100.004,-18.8738 102.379,-29.199 108.299,-25.4642"/>
</g>
<!-- Node5 -->
<g id="node6" class="node"><title>Node5</title>
<g id="a_node6"><a xlink:href="vtkvmtkDataSetItem_8h.html" target="_top" xlink:title="vtkvmtkDataSetItem.h">
<polygon fill="white" stroke="black" points="220.096,-110.5 220.096,-128.5 333.904,-128.5 333.904,-110.5 220.096,-110.5"/>
<text text-anchor="middle" x="277" y="-116.5" font-family="Helvetica,sans-Serif" font-size="10.00">vtkvmtkDataSetItem.h</text>
</a>
</g>
</g>
<!-- Node4&#45;&gt;Node5 -->
<g id="edge8" class="edge"><title>Node4&#45;&gt;Node5</title>
<path fill="none" stroke="midnightblue" d="M291.344,-165.219C289.035,-158.02 285.611,-147.346 282.687,-138.231"/>
<polygon fill="midnightblue" stroke="midnightblue" points="285.969,-137.003 279.582,-128.55 279.304,-139.141 285.969,-137.003"/>
</g>
<!-- Node4&#45;&gt;Node8 -->
<g id="edge16" class="edge"><title>Node4&#45;&gt;Node8</title>
<path fill="none" stroke="midnightblue" d="M306.148,-165.335C317.224,-157.301 333.297,-144.074 343,-129 363.593,-97.0064 373.836,-52.9519 378.224,-28.5714"/>
<polygon fill="midnightblue" stroke="midnightblue" points="381.695,-29.0335 379.886,-18.5943 374.79,-27.8832 381.695,-29.0335"/>
</g>
<!-- Node5&#45;&gt;Node1 -->
<g id="edge9" class="edge"><title>Node5&#45;&gt;Node1</title>
<path fill="none" stroke="midnightblue" d="M251.998,-110.396C229.853,-102.671 197.085,-89.8765 171,-74 148.198,-60.1217 125.101,-39.7225 110.453,-25.8156"/>
<polygon fill="midnightblue" stroke="midnightblue" points="112.862,-23.276 103.24,-18.8402 107.996,-28.3079 112.862,-23.276"/>
</g>
<!-- Node6 -->
<g id="node7" class="node"><title>Node6</title>
<g id="a_node7"><a xlink:href="vtkvmtkItem_8h.html" target="_top" xlink:title="vtkvmtkItem.h">
<polygon fill="white" stroke="black" points="180.163,-55.5 180.163,-73.5 257.837,-73.5 257.837,-55.5 180.163,-55.5"/>
<text text-anchor="middle" x="219" y="-61.5" font-family="Helvetica,sans-Serif" font-size="10.00">vtkvmtkItem.h</text>
</a>
</g>
</g>
<!-- Node5&#45;&gt;Node6 -->
<g id="edge10" class="edge"><title>Node5&#45;&gt;Node6</title>
<path fill="none" stroke="midnightblue" d="M267.938,-110.219C259.204,-102.238 245.794,-89.9842 235.219,-80.3207"/>
<polygon fill="midnightblue" stroke="midnightblue" points="237.552,-77.7116 227.809,-73.5496 232.83,-82.879 237.552,-77.7116"/>
</g>
<!-- Node7 -->
<g id="node8" class="node"><title>Node7</title>
<polygon fill="white" stroke="#bfbfbf" points="196.375,-0.5 196.375,-18.5 269.625,-18.5 269.625,-0.5 196.375,-0.5"/>
<text text-anchor="middle" x="233" y="-6.5" font-family="Helvetica,sans-Serif" font-size="10.00">vtkDataSet.h</text>
</g>
<!-- Node5&#45;&gt;Node7 -->
<g id="edge14" class="edge"><title>Node5&#45;&gt;Node7</title>
<path fill="none" stroke="midnightblue" d="M276.979,-110.331C276.674,-97.8908 274.99,-73.6738 267,-55 262.458,-44.3853 254.814,-34.043 247.923,-26.0044"/>
<polygon fill="midnightblue" stroke="midnightblue" points="250.48,-23.6142 241.176,-18.5465 245.289,-28.3103 250.48,-23.6142"/>
</g>
<!-- Node5&#45;&gt;Node8 -->
<g id="edge15" class="edge"><title>Node5&#45;&gt;Node8</title>
<path fill="none" stroke="midnightblue" d="M284.817,-110.382C302.058,-92.4786 343.592,-49.3466 366.025,-26.0507"/>
<polygon fill="midnightblue" stroke="midnightblue" points="368.677,-28.3427 373.092,-18.7118 363.635,-23.4872 368.677,-28.3427"/>
</g>
<!-- Node6&#45;&gt;Node1 -->
<g id="edge11" class="edge"><title>Node6&#45;&gt;Node1</title>
<path fill="none" stroke="midnightblue" d="M200.167,-55.4504C179.774,-46.734 147.011,-32.7306 123.471,-22.6691"/>
<polygon fill="midnightblue" stroke="midnightblue" points="124.581,-19.3373 114.01,-18.6253 121.83,-25.774 124.581,-19.3373"/>
</g>
<!-- Node6&#45;&gt;Node7 -->
<g id="edge12" class="edge"><title>Node6&#45;&gt;Node7</title>
<path fill="none" stroke="midnightblue" d="M221.188,-55.2188C223.089,-48.0204 225.909,-37.3458 228.316,-28.2311"/>
<polygon fill="midnightblue" stroke="midnightblue" points="231.704,-29.1118 230.874,-18.5496 224.936,-27.324 231.704,-29.1118"/>
</g>
<!-- Node6&#45;&gt;Node8 -->
<g id="edge13" class="edge"><title>Node6&#45;&gt;Node8</title>
<path fill="none" stroke="midnightblue" d="M243.604,-55.4504C271.159,-46.4355 316,-31.7653 346.92,-21.6496"/>
<polygon fill="midnightblue" stroke="midnightblue" points="348.014,-24.9743 356.43,-18.5383 345.837,-18.3213 348.014,-24.9743"/>
</g>
</g>
</svg>
        <g id="navigator" transform="translate(0 0)" fill="#404254">
                <rect fill="#f2f5e9" fill-opacity="0.5" stroke="#606060" stroke-width=".5" x="0" y="0" width="60" height="60"/>
                <use id="zoomplus" xlink:href="#zoomPlus" x="17" y="9" onmousedown="handleZoom(evt,'in')"/>
                <use id="zoomminus" xlink:href="#zoomMin" x="42" y="9" onmousedown="handleZoom(evt,'out')"/>
                <use id="reset" xlink:href="#resetDef" x="30" y="36" onmousedown="handleReset()"/>
                <g id="arrowUp" xlink:href="#dirArrow" transform="translate(30 24)" onmousedown="handlePan(0,-1)">
                  <use xlink:href="#rim" fill="#404040">
                        <set attributeName="fill" to="#808080" begin="arrowUp.mouseover" end="arrowUp.mouseout"/>
                  </use>
                  <path fill="none" stroke="white" stroke-width="1.5" d="M0,-3.0v7 M-2.5,-0.5L0,-3.0L2.5,-0.5"/>
                </g>
                <g id="arrowRight" xlink:href="#dirArrow" transform="rotate(90) translate(36 -43)" onmousedown="handlePan(1,0)">
                  <use xlink:href="#rim" fill="#404040">
                        <set attributeName="fill" to="#808080" begin="arrowRight.mouseover" end="arrowRight.mouseout"/>
                  </use>
                  <path fill="none" stroke="white" stroke-width="1.5" d="M0,-3.0v7 M-2.5,-0.5L0,-3.0L2.5,-0.5"/>
                </g>
                <g id="arrowDown" xlink:href="#dirArrow" transform="rotate(180) translate(-30 -48)" onmousedown="handlePan(0,1)">
                  <use xlink:href="#rim" fill="#404040">
                        <set attributeName="fill" to="#808080" begin="arrowDown.mouseover" end="arrowDown.mouseout"/>
                  </use>
                  <path fill="none" stroke="white" stroke-width="1.5" d="M0,-3.0v7 M-2.5,-0.5L0,-3.0L2.5,-0.5"/>
                </g>
                <g id="arrowLeft" xlink:href="#dirArrow" transform="rotate(270) translate(-36 17)" onmousedown="handlePan(-1,0)">
                  <use xlink:href="#rim" fill="#404040">
                        <set attributeName="fill" to="#808080" begin="arrowLeft.mouseover" end="arrowLeft.mouseout"/>
                  </use>
                  <path fill="none" stroke="white" stroke-width="1.5" d="M0,-3.0v7 M-2.5,-0.5L0,-3.0L2.5,-0.5"/>
                </g>
        </g>
        <svg viewBox="0 0 15 15" width="100%" height="30px" preserveAspectRatio="xMaxYMin meet">
         <g id="arrow_out" transform="scale(0.3 0.3)">
          <a xlink:href="vtkvmtkPolyDataLaplaceBeltramiStencil_8h__incl_org.svg" target="_base">
           <rect id="button" ry="5" rx="5" y="6" x="6" height="38" width="38"
                fill="#f2f5e9" fill-opacity="0.5" stroke="#606060" stroke-width="1.0"/>
           <path id="arrow"
             d="M 11.500037,31.436501 C 11.940474,20.09759 22.043105,11.32322 32.158766,21.979434 L 37.068811,17.246167 C 37.068811,17.246167 37.088388,32 37.088388,32 L 22.160133,31.978069 C 22.160133,31.978069 26.997745,27.140456 26.997745,27.140456 C 18.528582,18.264221 13.291696,25.230495 11.500037,31.436501 z"
             style="fill:#404040;"/>
          </a>
         </g>
        </svg>
</svg>
