<?xml version="1.0" encoding="UTF-8" standalone="no"?>
<!DOCTYPE svg PUBLIC "-//W3C//DTD SVG 1.1//EN"
 "http://www.w3.org/Graphics/SVG/1.1/DTD/svg11.dtd">
<!-- Generated by graphviz version 2.38.0 (20140413.2041)
 -->
<!-- Title: vtkvmtkPolyDataFELaplaceAssembler.h Pages: 1 -->
<svg width="1277pt" height="477pt"
 viewBox="0.00 0.00 1277.00 477.00" xmlns="http://www.w3.org/2000/svg" xmlns:xlink="http://www.w3.org/1999/xlink">
<g id="graph0" class="graph" transform="scale(1 1) rotate(0) translate(4 473)">
<title>vtkvmtkPolyDataFELaplaceAssembler.h</title>
<polygon fill="white" stroke="none" points="-4,4 -4,-473 1273,-473 1273,4 -4,4"/>
<!-- Node0 -->
<g id="node1" class="node"><title>Node0</title>
<polygon fill="#bfbfbf" stroke="black" points="242.865,-440.5 242.865,-468.5 381.135,-468.5 381.135,-440.5 242.865,-440.5"/>
<text text-anchor="start" x="250.865" y="-456.5" font-family="Helvetica,sans-Serif" font-size="10.00">vtkvmtkPolyDataFELaplace</text>
<text text-anchor="middle" x="312" y="-446.5" font-family="Helvetica,sans-Serif" font-size="10.00">Assembler.h</text>
</g>
<!-- Node1 -->
<g id="node2" class="node"><title>Node1</title>
<g id="a_node2"><a xlink:href="vtkvmtkFEAssembler_8h.html" target="_top" xlink:title="vtkvmtkFEAssembler.h">
<polygon fill="white" stroke="black" points="566.153,-385.5 566.153,-403.5 683.847,-403.5 683.847,-385.5 566.153,-385.5"/>
<text text-anchor="middle" x="625" y="-391.5" font-family="Helvetica,sans-Serif" font-size="10.00">vtkvmtkFEAssembler.h</text>
</a>
</g>
</g>
<!-- Node0&#45;&gt;Node1 -->
<g id="edge1" class="edge"><title>Node0&#45;&gt;Node1</title>
<path fill="none" stroke="midnightblue" d="M381.465,-440.628C438.872,-429.99 519.19,-415.107 571.642,-405.387"/>
<polygon fill="midnightblue" stroke="midnightblue" points="572.551,-408.779 581.746,-403.515 571.275,-401.896 572.551,-408.779"/>
</g>
<!-- Node11 -->
<g id="node12" class="node"><title>Node11</title>
<polygon fill="white" stroke="#bfbfbf" points="215.589,-0.5 215.589,-18.5 334.411,-18.5 334.411,-0.5 215.589,-0.5"/>
<text text-anchor="middle" x="275" y="-6.5" font-family="Helvetica,sans-Serif" font-size="10.00">vtkvmtkWin32Header.h</text>
</g>
<!-- Node0&#45;&gt;Node11 -->
<g id="edge55" class="edge"><title>Node0&#45;&gt;Node11</title>
<path fill="none" stroke="midnightblue" d="M242.757,-442.701C150.839,-426.375 0,-391.773 0,-340.5 0,-340.5 0,-340.5 0,-118.5 0,-82.3023 20.0487,-73.7693 51,-55 97.5875,-26.7487 158.703,-16.005 205.326,-12.1135"/>
<polygon fill="midnightblue" stroke="midnightblue" points="205.633,-15.6004 215.343,-11.3634 205.11,-8.61999 205.633,-15.6004"/>
</g>
<!-- Node2 -->
<g id="node3" class="node"><title>Node2</title>
<polygon fill="white" stroke="#bfbfbf" points="926.99,-0.5 926.99,-18.5 993.01,-18.5 993.01,-0.5 926.99,-0.5"/>
<text text-anchor="middle" x="960" y="-6.5" font-family="Helvetica,sans-Serif" font-size="10.00">vtkObject.h</text>
</g>
<!-- Node1&#45;&gt;Node2 -->
<g id="edge2" class="edge"><title>Node1&#45;&gt;Node2</title>
<path fill="none" stroke="midnightblue" d="M683.858,-389.79C842.837,-378.986 1269,-344.522 1269,-285.5 1269,-285.5 1269,-285.5 1269,-118.5 1269,-62.8561 1088.18,-29.1448 1003.18,-16.3721"/>
<polygon fill="midnightblue" stroke="midnightblue" points="1003.47,-12.8768 993.068,-14.8831 1002.45,-19.8022 1003.47,-12.8768"/>
</g>
<!-- Node3 -->
<g id="node4" class="node"><title>Node3</title>
<polygon fill="white" stroke="#bfbfbf" points="529.153,-330.5 529.153,-348.5 606.847,-348.5 606.847,-330.5 529.153,-330.5"/>
<text text-anchor="middle" x="568" y="-336.5" font-family="Helvetica,sans-Serif" font-size="10.00">vtkPolyData.h</text>
</g>
<!-- Node1&#45;&gt;Node3 -->
<g id="edge3" class="edge"><title>Node1&#45;&gt;Node3</title>
<path fill="none" stroke="midnightblue" d="M616.094,-385.219C607.595,-377.316 594.59,-365.224 584.246,-355.606"/>
<polygon fill="midnightblue" stroke="midnightblue" points="586.364,-352.796 576.657,-348.55 581.597,-357.922 586.364,-352.796"/>
</g>
<!-- Node4 -->
<g id="node5" class="node"><title>Node4</title>
<g id="a_node5"><a xlink:href="vtkvmtkSparseMatrix_8h.html" target="_top" xlink:title="vtkvmtkSparseMatrix.h">
<polygon fill="white" stroke="black" points="624.434,-330.5 624.434,-348.5 741.566,-348.5 741.566,-330.5 624.434,-330.5"/>
<text text-anchor="middle" x="683" y="-336.5" font-family="Helvetica,sans-Serif" font-size="10.00">vtkvmtkSparseMatrix.h</text>
</a>
</g>
</g>
<!-- Node1&#45;&gt;Node4 -->
<g id="edge4" class="edge"><title>Node1&#45;&gt;Node4</title>
<path fill="none" stroke="midnightblue" d="M634.062,-385.219C642.796,-377.238 656.206,-364.984 666.781,-355.321"/>
<polygon fill="midnightblue" stroke="midnightblue" points="669.17,-357.879 674.191,-348.55 664.448,-352.712 669.17,-357.879"/>
</g>
<!-- Node1&#45;&gt;Node11 -->
<g id="edge54" class="edge"><title>Node1&#45;&gt;Node11</title>
<path fill="none" stroke="midnightblue" d="M566.029,-388.811C417.173,-376.187 38,-338.8 38,-285.5 38,-285.5 38,-285.5 38,-118.5 38,-44.2653 135.474,-20.8274 205.399,-13.5645"/>
<polygon fill="midnightblue" stroke="midnightblue" points="205.876,-17.035 215.501,-12.6062 205.215,-10.0663 205.876,-17.035"/>
</g>
<!-- Node17 -->
<g id="node18" class="node"><title>Node17</title>
<g id="a_node18"><a xlink:href="vtkvmtkDoubleVector_8h.html" target="_top" xlink:title="vtkvmtkDoubleVector.h">
<polygon fill="white" stroke="black" points="1097.14,-275.5 1097.14,-293.5 1214.86,-293.5 1214.86,-275.5 1097.14,-275.5"/>
<text text-anchor="middle" x="1156" y="-281.5" font-family="Helvetica,sans-Serif" font-size="10.00">vtkvmtkDoubleVector.h</text>
</a>
</g>
</g>
<!-- Node1&#45;&gt;Node17 -->
<g id="edge53" class="edge"><title>Node1&#45;&gt;Node17</title>
<path fill="none" stroke="midnightblue" d="M664.477,-385.471C759.73,-366.097 1002.01,-316.82 1106.64,-295.539"/>
<polygon fill="midnightblue" stroke="midnightblue" points="1107.52,-298.932 1116.62,-293.509 1106.13,-292.072 1107.52,-298.932"/>
</g>
<!-- Node4&#45;&gt;Node2 -->
<g id="edge5" class="edge"><title>Node4&#45;&gt;Node2</title>
<path fill="none" stroke="midnightblue" d="M741.762,-335.435C793.408,-331.022 869.676,-320.256 931,-294 1013.01,-258.888 1093,-264.706 1093,-175.5 1093,-175.5 1093,-175.5 1093,-118.5 1093,-68.3204 1035.24,-37.3753 995.849,-22.1056"/>
<polygon fill="midnightblue" stroke="midnightblue" points="996.87,-18.7512 986.277,-18.559 994.438,-25.3152 996.87,-18.7512"/>
</g>
<!-- Node5 -->
<g id="node6" class="node"><title>Node5</title>
<g id="a_node6"><a xlink:href="vtkvmtkSparseMatrixRow_8h.html" target="_top" xlink:title="vtkvmtkSparseMatrixRow.h">
<polygon fill="white" stroke="black" points="614.705,-275.5 614.705,-293.5 751.295,-293.5 751.295,-275.5 614.705,-275.5"/>
<text text-anchor="middle" x="683" y="-281.5" font-family="Helvetica,sans-Serif" font-size="10.00">vtkvmtkSparseMatrixRow.h</text>
</a>
</g>
</g>
<!-- Node4&#45;&gt;Node5 -->
<g id="edge6" class="edge"><title>Node4&#45;&gt;Node5</title>
<path fill="none" stroke="midnightblue" d="M683,-330.219C683,-323.177 683,-312.808 683,-303.828"/>
<polygon fill="midnightblue" stroke="midnightblue" points="686.5,-303.55 683,-293.55 679.5,-303.55 686.5,-303.55"/>
</g>
<!-- Node10 -->
<g id="node11" class="node"><title>Node10</title>
<polygon fill="white" stroke="#bfbfbf" points="542.375,-0.5 542.375,-18.5 615.625,-18.5 615.625,-0.5 542.375,-0.5"/>
<text text-anchor="middle" x="579" y="-6.5" font-family="Helvetica,sans-Serif" font-size="10.00">vtkDataSet.h</text>
</g>
<!-- Node4&#45;&gt;Node10 -->
<g id="edge51" class="edge"><title>Node4&#45;&gt;Node10</title>
<path fill="none" stroke="midnightblue" d="M741.867,-338.533C818.013,-335.121 941,-316.326 941,-230.5 941,-230.5 941,-230.5 941,-173.5 941,-36.8397 723.847,-14.0909 625.916,-10.7802"/>
<polygon fill="midnightblue" stroke="midnightblue" points="625.798,-7.27551 615.703,-10.4911 625.6,-14.2727 625.798,-7.27551"/>
</g>
<!-- Node4&#45;&gt;Node11 -->
<g id="edge52" class="edge"><title>Node4&#45;&gt;Node11</title>
<path fill="none" stroke="midnightblue" d="M624.187,-330.931C621.42,-330.608 618.68,-330.297 616,-330 446.944,-311.294 400.33,-333.949 235,-294 161.035,-276.128 76,-306.594 76,-230.5 76,-230.5 76,-230.5 76,-118.5 76,-57.9634 148.017,-31.177 205.403,-19.442"/>
<polygon fill="midnightblue" stroke="midnightblue" points="206.405,-22.8136 215.563,-17.487 205.082,-15.9397 206.405,-22.8136"/>
</g>
<!-- Node13 -->
<g id="node14" class="node"><title>Node13</title>
<g id="a_node14"><a xlink:href="vtkvmtkNeighborhoods_8h.html" target="_top" xlink:title="vtkvmtkNeighborhoods.h">
<polygon fill="white" stroke="black" points="494.973,-220.5 494.973,-238.5 621.027,-238.5 621.027,-220.5 494.973,-220.5"/>
<text text-anchor="middle" x="558" y="-226.5" font-family="Helvetica,sans-Serif" font-size="10.00">vtkvmtkNeighborhoods.h</text>
</a>
</g>
</g>
<!-- Node4&#45;&gt;Node13 -->
<g id="edge25" class="edge"><title>Node4&#45;&gt;Node13</title>
<path fill="none" stroke="midnightblue" d="M664.554,-330.435C648.062,-322.651 623.817,-309.746 606,-294 590.668,-280.45 577.015,-261.332 568.227,-247.62"/>
<polygon fill="midnightblue" stroke="midnightblue" points="570.973,-245.407 562.733,-238.747 565.022,-249.092 570.973,-245.407"/>
</g>
<!-- Node16 -->
<g id="node17" class="node"><title>Node16</title>
<g id="a_node17"><a xlink:href="vtkvmtkStencils_8h.html" target="_top" xlink:title="vtkvmtkStencils.h">
<polygon fill="white" stroke="black" points="244.379,-275.5 244.379,-293.5 337.621,-293.5 337.621,-275.5 244.379,-275.5"/>
<text text-anchor="middle" x="291" y="-281.5" font-family="Helvetica,sans-Serif" font-size="10.00">vtkvmtkStencils.h</text>
</a>
</g>
</g>
<!-- Node4&#45;&gt;Node16 -->
<g id="edge40" class="edge"><title>Node4&#45;&gt;Node16</title>
<path fill="none" stroke="midnightblue" d="M624.314,-330.565C549.654,-320.471 421.574,-303.154 347.818,-293.182"/>
<polygon fill="midnightblue" stroke="midnightblue" points="348.161,-289.697 337.783,-291.825 347.224,-296.634 348.161,-289.697"/>
</g>
<!-- Node4&#45;&gt;Node17 -->
<g id="edge47" class="edge"><title>Node4&#45;&gt;Node17</title>
<path fill="none" stroke="midnightblue" d="M741.64,-332.071C819.604,-323.502 961.681,-307.811 1083,-294 1084.28,-293.854 1085.58,-293.706 1086.89,-293.557"/>
<polygon fill="midnightblue" stroke="midnightblue" points="1087.5,-297.009 1097.04,-292.392 1086.7,-290.055 1087.5,-297.009"/>
</g>
<!-- Node5&#45;&gt;Node2 -->
<g id="edge7" class="edge"><title>Node5&#45;&gt;Node2</title>
<path fill="none" stroke="midnightblue" d="M751.664,-277.675C859.151,-266.638 1055,-237.958 1055,-175.5 1055,-175.5 1055,-175.5 1055,-118.5 1055,-88.3293 1050.11,-78.3429 1031,-55 1019.73,-41.2431 1003.04,-30.4786 988.672,-22.985"/>
<polygon fill="midnightblue" stroke="midnightblue" points="990.162,-19.8172 979.645,-18.5343 987.066,-26.0956 990.162,-19.8172"/>
</g>
<!-- Node6 -->
<g id="node7" class="node"><title>Node6</title>
<g id="a_node7"><a xlink:href="vtkvmtkStencil_8h.html" target="_top" xlink:title="vtkvmtkStencil.h">
<polygon fill="white" stroke="black" points="638.879,-220.5 638.879,-238.5 727.121,-238.5 727.121,-220.5 638.879,-220.5"/>
<text text-anchor="middle" x="683" y="-226.5" font-family="Helvetica,sans-Serif" font-size="10.00">vtkvmtkStencil.h</text>
</a>
</g>
</g>
<!-- Node5&#45;&gt;Node6 -->
<g id="edge8" class="edge"><title>Node5&#45;&gt;Node6</title>
<path fill="none" stroke="midnightblue" d="M683,-275.219C683,-268.177 683,-257.808 683,-248.828"/>
<polygon fill="midnightblue" stroke="midnightblue" points="686.5,-248.55 683,-238.55 679.5,-248.55 686.5,-248.55"/>
</g>
<!-- Node7 -->
<g id="node8" class="node"><title>Node7</title>
<g id="a_node8"><a xlink:href="vtkvmtkNeighborhood_8h.html" target="_top" xlink:title="vtkvmtkNeighborhood.h">
<polygon fill="white" stroke="black" points="694.473,-165.5 694.473,-183.5 815.527,-183.5 815.527,-165.5 694.473,-165.5"/>
<text text-anchor="middle" x="755" y="-171.5" font-family="Helvetica,sans-Serif" font-size="10.00">vtkvmtkNeighborhood.h</text>
</a>
</g>
</g>
<!-- Node5&#45;&gt;Node7 -->
<g id="edge22" class="edge"><title>Node5&#45;&gt;Node7</title>
<path fill="none" stroke="midnightblue" d="M696.696,-275.299C708.721,-267.424 725.836,-254.461 736,-239 745.087,-225.178 749.959,-206.856 752.486,-193.447"/>
<polygon fill="midnightblue" stroke="midnightblue" points="755.945,-193.977 754.097,-183.545 749.036,-192.853 755.945,-193.977"/>
</g>
<!-- Node5&#45;&gt;Node11 -->
<g id="edge24" class="edge"><title>Node5&#45;&gt;Node11</title>
<path fill="none" stroke="midnightblue" d="M614.413,-282.267C539.748,-279.302 417.563,-269.669 317,-239 265.477,-223.287 241.911,-226.643 209,-184 173.37,-137.833 154.23,-104.539 185,-55 194.841,-39.1566 212.178,-28.7832 229.026,-22.0751"/>
<polygon fill="midnightblue" stroke="midnightblue" points="230.612,-25.2236 238.829,-18.5353 228.235,-18.6397 230.612,-25.2236"/>
</g>
<!-- Node12 -->
<g id="node13" class="node"><title>Node12</title>
<g id="a_node13"><a xlink:href="vtkvmtkConstants_8h.html" target="_top" xlink:title="vtkvmtkConstants.h">
<polygon fill="white" stroke="black" points="218.375,-165.5 218.375,-183.5 321.625,-183.5 321.625,-165.5 218.375,-165.5"/>
<text text-anchor="middle" x="270" y="-171.5" font-family="Helvetica,sans-Serif" font-size="10.00">vtkvmtkConstants.h</text>
</a>
</g>
</g>
<!-- Node5&#45;&gt;Node12 -->
<g id="edge23" class="edge"><title>Node5&#45;&gt;Node12</title>
<path fill="none" stroke="midnightblue" d="M614.558,-278.429C532.1,-271.599 398.916,-258.065 353,-239 326.174,-227.862 300.441,-205.821 284.924,-190.869"/>
<polygon fill="midnightblue" stroke="midnightblue" points="287.354,-188.35 277.79,-183.792 282.424,-193.32 287.354,-188.35"/>
</g>
<!-- Node6&#45;&gt;Node2 -->
<g id="edge9" class="edge"><title>Node6&#45;&gt;Node2</title>
<path fill="none" stroke="midnightblue" d="M718.867,-220.485C748.289,-213.16 790.554,-200.892 825,-184 863.412,-165.163 872.758,-158.228 904,-129 926.86,-107.613 934.929,-102.445 948,-74 954.595,-59.6496 957.565,-41.8814 958.903,-28.793"/>
<polygon fill="midnightblue" stroke="midnightblue" points="962.402,-28.946 959.709,-18.6992 955.424,-28.389 962.402,-28.946"/>
</g>
<!-- Node6&#45;&gt;Node7 -->
<g id="edge10" class="edge"><title>Node6&#45;&gt;Node7</title>
<path fill="none" stroke="midnightblue" d="M693.935,-220.45C705.036,-212.279 722.45,-199.46 735.846,-189.6"/>
<polygon fill="midnightblue" stroke="midnightblue" points="737.983,-192.372 743.962,-183.625 733.834,-186.735 737.983,-192.372"/>
</g>
<!-- Node6&#45;&gt;Node11 -->
<g id="edge21" class="edge"><title>Node6&#45;&gt;Node11</title>
<path fill="none" stroke="midnightblue" d="M665.515,-220.462C607.497,-193.72 421.818,-107.547 365,-74 357.814,-69.7571 318.581,-41.7751 294.347,-24.4015"/>
<polygon fill="midnightblue" stroke="midnightblue" points="296.35,-21.5308 286.184,-18.5443 292.269,-27.2181 296.35,-21.5308"/>
</g>
<!-- Node7&#45;&gt;Node2 -->
<g id="edge11" class="edge"><title>Node7&#45;&gt;Node2</title>
<path fill="none" stroke="midnightblue" d="M796.377,-165.467C822.111,-158.911 854.792,-147.609 879,-129 914.771,-101.502 940.46,-53.6266 952.436,-27.9517"/>
<polygon fill="midnightblue" stroke="midnightblue" points="955.68,-29.2703 956.595,-18.715 949.297,-26.396 955.68,-29.2703"/>
</g>
<!-- Node8 -->
<g id="node9" class="node"><title>Node8</title>
<g id="a_node9"><a xlink:href="vtkvmtkDataSetItem_8h.html" target="_top" xlink:title="vtkvmtkDataSetItem.h">
<polygon fill="white" stroke="black" points="685.096,-110.5 685.096,-128.5 798.904,-128.5 798.904,-110.5 685.096,-110.5"/>
<text text-anchor="middle" x="742" y="-116.5" font-family="Helvetica,sans-Serif" font-size="10.00">vtkvmtkDataSetItem.h</text>
</a>
</g>
</g>
<!-- Node7&#45;&gt;Node8 -->
<g id="edge12" class="edge"><title>Node7&#45;&gt;Node8</title>
<path fill="none" stroke="midnightblue" d="M752.969,-165.219C751.222,-158.099 748.642,-147.577 746.422,-138.529"/>
<polygon fill="midnightblue" stroke="midnightblue" points="749.756,-137.428 743.974,-128.55 742.957,-139.095 749.756,-137.428"/>
</g>
<!-- Node7&#45;&gt;Node11 -->
<g id="edge20" class="edge"><title>Node7&#45;&gt;Node11</title>
<path fill="none" stroke="midnightblue" d="M719.839,-165.463C683.617,-157.019 625.608,-143.037 576,-129 498.367,-107.034 477.753,-104.355 403,-74 385.505,-66.8958 381.908,-63.4068 365,-55 343.271,-44.196 318.559,-31.9823 300.534,-23.0874"/>
<polygon fill="midnightblue" stroke="midnightblue" points="301.786,-19.8025 291.27,-18.5173 298.689,-26.0802 301.786,-19.8025"/>
</g>
<!-- Node8&#45;&gt;Node2 -->
<g id="edge13" class="edge"><title>Node8&#45;&gt;Node2</title>
<path fill="none" stroke="midnightblue" d="M754.437,-110.481C774.355,-97.8175 814.848,-72.8015 851,-55 876.284,-42.55 905.952,-30.602 927.947,-22.227"/>
<polygon fill="midnightblue" stroke="midnightblue" points="929.344,-25.4408 937.47,-18.6414 926.878,-18.8898 929.344,-25.4408"/>
</g>
<!-- Node9 -->
<g id="node10" class="node"><title>Node9</title>
<g id="a_node10"><a xlink:href="vtkvmtkItem_8h.html" target="_top" xlink:title="vtkvmtkItem.h">
<polygon fill="white" stroke="black" points="607.163,-55.5 607.163,-73.5 684.837,-73.5 684.837,-55.5 607.163,-55.5"/>
<text text-anchor="middle" x="646" y="-61.5" font-family="Helvetica,sans-Serif" font-size="10.00">vtkvmtkItem.h</text>
</a>
</g>
</g>
<!-- Node8&#45;&gt;Node9 -->
<g id="edge14" class="edge"><title>Node8&#45;&gt;Node9</title>
<path fill="none" stroke="midnightblue" d="M727.42,-110.45C712.054,-101.968 687.619,-88.477 669.522,-78.486"/>
<polygon fill="midnightblue" stroke="midnightblue" points="671.164,-75.3945 660.718,-73.6253 667.78,-81.5226 671.164,-75.3945"/>
</g>
<!-- Node8&#45;&gt;Node10 -->
<g id="edge18" class="edge"><title>Node8&#45;&gt;Node10</title>
<path fill="none" stroke="midnightblue" d="M737.799,-110.326C730.56,-96.9877 714.519,-70.4815 694,-55 673.159,-39.2756 646.077,-28.434 623.429,-21.3916"/>
<polygon fill="midnightblue" stroke="midnightblue" points="624.283,-17.9943 613.701,-18.5112 622.296,-24.7063 624.283,-17.9943"/>
</g>
<!-- Node8&#45;&gt;Node11 -->
<g id="edge19" class="edge"><title>Node8&#45;&gt;Node11</title>
<path fill="none" stroke="midnightblue" d="M707.281,-110.471C623.847,-91.1755 412.15,-42.2177 319.532,-20.7985"/>
<polygon fill="midnightblue" stroke="midnightblue" points="320.162,-17.352 309.631,-18.5088 318.585,-24.172 320.162,-17.352"/>
</g>
<!-- Node9&#45;&gt;Node2 -->
<g id="edge15" class="edge"><title>Node9&#45;&gt;Node2</title>
<path fill="none" stroke="midnightblue" d="M685.133,-56.8947C744.034,-46.9529 855.092,-28.2073 916.473,-17.847"/>
<polygon fill="midnightblue" stroke="midnightblue" points="917.329,-21.2521 926.607,-16.1364 916.164,-14.3497 917.329,-21.2521"/>
</g>
<!-- Node9&#45;&gt;Node10 -->
<g id="edge16" class="edge"><title>Node9&#45;&gt;Node10</title>
<path fill="none" stroke="midnightblue" d="M635.824,-55.4504C625.592,-47.3566 609.598,-34.7042 597.181,-24.8822"/>
<polygon fill="midnightblue" stroke="midnightblue" points="599.286,-22.0844 589.272,-18.6253 594.943,-27.5744 599.286,-22.0844"/>
</g>
<!-- Node9&#45;&gt;Node11 -->
<g id="edge17" class="edge"><title>Node9&#45;&gt;Node11</title>
<path fill="none" stroke="midnightblue" d="M606.998,-57.9282C543.88,-48.9114 418.636,-31.0194 341.313,-19.9733"/>
<polygon fill="midnightblue" stroke="midnightblue" points="341.593,-16.4778 331.198,-18.5283 340.603,-23.4074 341.593,-16.4778"/>
</g>
<!-- Node13&#45;&gt;Node2 -->
<g id="edge26" class="edge"><title>Node13&#45;&gt;Node2</title>
<path fill="none" stroke="midnightblue" d="M571.626,-220.361C594.387,-207.075 641.899,-180.64 685,-165 750.26,-141.318 776.063,-162.263 837,-129 861.991,-115.358 918.706,-55.4975 945.484,-26.4388"/>
<polygon fill="midnightblue" stroke="midnightblue" points="948.302,-28.5444 952.48,-18.808 943.142,-23.814 948.302,-28.5444"/>
</g>
<!-- Node13&#45;&gt;Node7 -->
<g id="edge37" class="edge"><title>Node13&#45;&gt;Node7</title>
<path fill="none" stroke="midnightblue" d="M587.92,-220.45C621.864,-211.318 677.377,-196.383 715.013,-186.258"/>
<polygon fill="midnightblue" stroke="midnightblue" points="716.374,-189.516 725.122,-183.538 714.556,-182.757 716.374,-189.516"/>
</g>
<!-- Node13&#45;&gt;Node10 -->
<g id="edge38" class="edge"><title>Node13&#45;&gt;Node10</title>
<path fill="none" stroke="midnightblue" d="M558.772,-220.483C561.795,-189.107 572.868,-74.1587 577.223,-28.9443"/>
<polygon fill="midnightblue" stroke="midnightblue" points="580.723,-29.1126 578.198,-18.8231 573.755,-28.4414 580.723,-29.1126"/>
</g>
<!-- Node13&#45;&gt;Node11 -->
<g id="edge39" class="edge"><title>Node13&#45;&gt;Node11</title>
<path fill="none" stroke="midnightblue" d="M504.159,-220.446C473.81,-214.066 436.24,-202.954 407,-184 344.563,-143.527 300.177,-62.8963 282.939,-27.6542"/>
<polygon fill="midnightblue" stroke="midnightblue" points="286.098,-26.1482 278.636,-18.6269 279.779,-29.1599 286.098,-26.1482"/>
</g>
<!-- Node13&#45;&gt;Node12 -->
<g id="edge27" class="edge"><title>Node13&#45;&gt;Node12</title>
<path fill="none" stroke="midnightblue" d="M514.259,-220.45C463.152,-211.045 378.595,-195.485 323.592,-185.362"/>
<polygon fill="midnightblue" stroke="midnightblue" points="324.148,-181.906 313.68,-183.538 322.881,-188.79 324.148,-181.906"/>
</g>
<!-- Node14 -->
<g id="node15" class="node"><title>Node14</title>
<g id="a_node15"><a xlink:href="vtkvmtkDataSetItems_8h.html" target="_top" xlink:title="vtkvmtkDataSetItems.h">
<polygon fill="white" stroke="black" points="415.596,-165.5 415.596,-183.5 534.404,-183.5 534.404,-165.5 415.596,-165.5"/>
<text text-anchor="middle" x="475" y="-171.5" font-family="Helvetica,sans-Serif" font-size="10.00">vtkvmtkDataSetItems.h</text>
</a>
</g>
</g>
<!-- Node13&#45;&gt;Node14 -->
<g id="edge28" class="edge"><title>Node13&#45;&gt;Node14</title>
<path fill="none" stroke="midnightblue" d="M545.394,-220.45C532.353,-212.123 511.756,-198.97 496.203,-189.039"/>
<polygon fill="midnightblue" stroke="midnightblue" points="498.036,-186.057 487.725,-183.625 494.269,-191.957 498.036,-186.057"/>
</g>
<!-- Node14&#45;&gt;Node2 -->
<g id="edge29" class="edge"><title>Node14&#45;&gt;Node2</title>
<path fill="none" stroke="midnightblue" d="M534.417,-169.835C616.736,-164.034 760.694,-151.072 808,-129 852.188,-108.383 850.184,-84.5123 889,-55 904.199,-43.4439 922.476,-32.0402 936.68,-23.6702"/>
<polygon fill="midnightblue" stroke="midnightblue" points="938.46,-26.6838 945.352,-18.6369 934.946,-20.6296 938.46,-26.6838"/>
</g>
<!-- Node14&#45;&gt;Node10 -->
<g id="edge35" class="edge"><title>Node14&#45;&gt;Node10</title>
<path fill="none" stroke="midnightblue" d="M477.185,-165.375C482.887,-145.203 499.694,-91.8096 527,-55 535.628,-43.3693 547.826,-32.727 558.24,-24.768"/>
<polygon fill="midnightblue" stroke="midnightblue" points="560.454,-27.4851 566.451,-18.7508 556.316,-21.839 560.454,-27.4851"/>
</g>
<!-- Node14&#45;&gt;Node11 -->
<g id="edge36" class="edge"><title>Node14&#45;&gt;Node11</title>
<path fill="none" stroke="midnightblue" d="M462.277,-165.399C437.281,-149.254 380.417,-111.395 337,-74 319.571,-58.988 301.384,-39.8886 289.251,-26.5751"/>
<polygon fill="midnightblue" stroke="midnightblue" points="291.511,-23.855 282.221,-18.7628 286.308,-28.5374 291.511,-23.855"/>
</g>
<!-- Node15 -->
<g id="node16" class="node"><title>Node15</title>
<g id="a_node16"><a xlink:href="vtkvmtkItems_8h.html" target="_top" xlink:title="vtkvmtkItems.h">
<polygon fill="white" stroke="black" points="584.663,-110.5 584.663,-128.5 667.337,-128.5 667.337,-110.5 584.663,-110.5"/>
<text text-anchor="middle" x="626" y="-116.5" font-family="Helvetica,sans-Serif" font-size="10.00">vtkvmtkItems.h</text>
</a>
</g>
</g>
<!-- Node14&#45;&gt;Node15 -->
<g id="edge30" class="edge"><title>Node14&#45;&gt;Node15</title>
<path fill="none" stroke="midnightblue" d="M497.934,-165.45C523.322,-156.539 564.452,-142.103 593.232,-132.001"/>
<polygon fill="midnightblue" stroke="midnightblue" points="594.574,-135.24 602.851,-128.625 592.256,-128.635 594.574,-135.24"/>
</g>
<!-- Node15&#45;&gt;Node2 -->
<g id="edge31" class="edge"><title>Node15&#45;&gt;Node2</title>
<path fill="none" stroke="midnightblue" d="M649.081,-110.456C684.467,-98.1801 754.304,-74.1744 814,-55 850.899,-43.1481 893.29,-30.3137 922.854,-21.488"/>
<polygon fill="midnightblue" stroke="midnightblue" points="924.162,-24.7506 932.747,-18.5416 922.164,-18.0418 924.162,-24.7506"/>
</g>
<!-- Node15&#45;&gt;Node9 -->
<g id="edge32" class="edge"><title>Node15&#45;&gt;Node9</title>
<path fill="none" stroke="midnightblue" d="M629.125,-110.219C631.871,-102.942 635.957,-92.1134 639.421,-82.9345"/>
<polygon fill="midnightblue" stroke="midnightblue" points="642.706,-84.1413 642.962,-73.5496 636.157,-81.6699 642.706,-84.1413"/>
</g>
<!-- Node15&#45;&gt;Node10 -->
<g id="edge33" class="edge"><title>Node15&#45;&gt;Node10</title>
<path fill="none" stroke="midnightblue" d="M619.919,-110.353C613.702,-101.708 604.113,-87.4644 598,-74 591.304,-59.2507 586.227,-41.5223 583.013,-28.5505"/>
<polygon fill="midnightblue" stroke="midnightblue" points="586.364,-27.5078 580.675,-18.5699 579.548,-29.1047 586.364,-27.5078"/>
</g>
<!-- Node15&#45;&gt;Node11 -->
<g id="edge34" class="edge"><title>Node15&#45;&gt;Node11</title>
<path fill="none" stroke="midnightblue" d="M588.737,-110.481C553.038,-102.457 497.827,-89.1529 451,-74 429.171,-66.9362 424.507,-62.9911 403,-55 371.265,-43.2087 334.764,-30.613 308.882,-21.8428"/>
<polygon fill="midnightblue" stroke="midnightblue" points="309.766,-18.4474 299.172,-18.5633 307.526,-25.0793 309.766,-18.4474"/>
</g>
<!-- Node16&#45;&gt;Node2 -->
<g id="edge41" class="edge"><title>Node16&#45;&gt;Node2</title>
<path fill="none" stroke="midnightblue" d="M337.697,-283.793C419.745,-283.219 594.495,-277.121 736,-239 831.333,-213.318 861.317,-200.881 929,-129 949.196,-107.551 957.404,-102.179 966,-74 970.548,-59.0908 968.281,-41.3783 965.317,-28.4533"/>
<polygon fill="midnightblue" stroke="midnightblue" points="968.63,-27.2899 962.688,-18.5181 961.863,-29.0807 968.63,-27.2899"/>
</g>
<!-- Node16&#45;&gt;Node6 -->
<g id="edge44" class="edge"><title>Node16&#45;&gt;Node6</title>
<path fill="none" stroke="midnightblue" d="M337.668,-277.801C401.169,-269.952 518.602,-255.103 628.811,-239.139"/>
<polygon fill="midnightblue" stroke="midnightblue" points="629.376,-242.593 638.768,-237.69 628.368,-235.666 629.376,-242.593"/>
</g>
<!-- Node16&#45;&gt;Node10 -->
<g id="edge45" class="edge"><title>Node16&#45;&gt;Node10</title>
<path fill="none" stroke="midnightblue" d="M244.242,-278.008C219.568,-272.466 191.309,-261.339 176,-239 157.774,-212.405 195.818,-176.399 209,-165 306.438,-80.7456 456.335,-37.5703 531.942,-20.1096"/>
<polygon fill="midnightblue" stroke="midnightblue" points="533.12,-23.4316 542.104,-17.8148 531.578,-16.6035 533.12,-23.4316"/>
</g>
<!-- Node16&#45;&gt;Node11 -->
<g id="edge46" class="edge"><title>Node16&#45;&gt;Node11</title>
<path fill="none" stroke="midnightblue" d="M244.159,-280.751C210.763,-276.443 166.842,-265.668 138,-239 115.847,-218.518 114,-205.671 114,-175.5 114,-175.5 114,-175.5 114,-118.5 114,-86.6943 122.943,-75.8056 147,-55 166.308,-38.3018 192.242,-27.7644 215.717,-21.165"/>
<polygon fill="midnightblue" stroke="midnightblue" points="216.817,-24.495 225.601,-18.5714 215.04,-17.7243 216.817,-24.495"/>
</g>
<!-- Node16&#45;&gt;Node12 -->
<g id="edge42" class="edge"><title>Node16&#45;&gt;Node12</title>
<path fill="none" stroke="midnightblue" d="M287.934,-275.425C284.71,-266.605 279.734,-251.998 277,-239 273.854,-224.042 272.067,-206.787 271.087,-194.042"/>
<polygon fill="midnightblue" stroke="midnightblue" points="274.561,-193.544 270.398,-183.801 267.577,-194.014 274.561,-193.544"/>
</g>
<!-- Node16&#45;&gt;Node14 -->
<g id="edge43" class="edge"><title>Node16&#45;&gt;Node14</title>
<path fill="none" stroke="midnightblue" d="M304.83,-275.382C336.265,-256.931 413.349,-211.686 452.049,-188.971"/>
<polygon fill="midnightblue" stroke="midnightblue" points="454.157,-191.792 461.01,-183.712 450.614,-185.755 454.157,-191.792"/>
</g>
<!-- Node17&#45;&gt;Node2 -->
<g id="edge48" class="edge"><title>Node17&#45;&gt;Node2</title>
<path fill="none" stroke="midnightblue" d="M1152.73,-275.249C1145.96,-257.373 1131,-213.607 1131,-175.5 1131,-175.5 1131,-175.5 1131,-118.5 1131,-88.3293 1129.04,-75.6029 1107,-55 1078.79,-28.6291 1035.45,-17.8536 1003.13,-13.4679"/>
<polygon fill="midnightblue" stroke="midnightblue" points="1003.4,-9.97556 993.056,-12.2568 1002.57,-16.9255 1003.4,-9.97556"/>
</g>
<!-- Node17&#45;&gt;Node11 -->
<g id="edge50" class="edge"><title>Node17&#45;&gt;Node11</title>
<path fill="none" stroke="midnightblue" d="M1096.92,-282.671C955.355,-280.189 600.099,-270.882 486,-239 403.943,-216.071 380.608,-196.791 329,-129 311.593,-106.134 306.964,-100.129 295,-74 288.226,-59.2071 282.855,-41.4831 279.392,-28.524"/>
<polygon fill="midnightblue" stroke="midnightblue" points="282.713,-27.3821 276.852,-18.5558 275.929,-29.1104 282.713,-27.3821"/>
</g>
<!-- Node18 -->
<g id="node19" class="node"><title>Node18</title>
<polygon fill="white" stroke="#bfbfbf" points="1159.3,-220.5 1159.3,-238.5 1240.7,-238.5 1240.7,-220.5 1159.3,-220.5"/>
<text text-anchor="middle" x="1200" y="-226.5" font-family="Helvetica,sans-Serif" font-size="10.00">vtkDataArray.h</text>
</g>
<!-- Node17&#45;&gt;Node18 -->
<g id="edge49" class="edge"><title>Node17&#45;&gt;Node18</title>
<path fill="none" stroke="midnightblue" d="M1162.88,-275.219C1169.24,-267.551 1178.88,-255.939 1186.74,-246.469"/>
<polygon fill="midnightblue" stroke="midnightblue" points="1189.62,-248.479 1193.32,-238.55 1184.24,-244.008 1189.62,-248.479"/>
</g>
</g>
</svg>
