<?xml version="1.0" encoding="UTF-8" standalone="no"?>
<!DOCTYPE svg PUBLIC "-//W3C//DTD SVG 1.1//EN"
 "http://www.w3.org/Graphics/SVG/1.1/DTD/svg11.dtd">
<!-- Generated by graphviz version 2.38.0 (20140413.2041)
 -->
<!-- Title: vtkvmtkTetGenReader.h Pages: 1 -->
<svg width="351pt" height="82pt"
 viewBox="0.00 0.00 351.03 82.00" xmlns="http://www.w3.org/2000/svg" xmlns:xlink="http://www.w3.org/1999/xlink">
<g id="graph0" class="graph" transform="scale(1 1) rotate(0) translate(4 78)">
<title>vtkvmtkTetGenReader.h</title>
<polygon fill="white" stroke="none" points="-4,4 -4,-78 347.027,-78 347.027,4 -4,4"/>
<!-- Node0 -->
<g id="node1" class="node"><title>Node0</title>
<polygon fill="#bfbfbf" stroke="black" points="148.052,-55.5 148.052,-73.5 270.771,-73.5 270.771,-55.5 148.052,-55.5"/>
<text text-anchor="middle" x="209.411" y="-61.5" font-family="Helvetica,sans-Serif" font-size="10.00">vtkvmtkTetGenReader.h</text>
</g>
<!-- Node1 -->
<g id="node2" class="node"><title>Node1</title>
<polygon fill="white" stroke="#bfbfbf" points="0,-0.5 0,-18.5 118.822,-18.5 118.822,-0.5 0,-0.5"/>
<text text-anchor="middle" x="59.4111" y="-6.5" font-family="Helvetica,sans-Serif" font-size="10.00">vtkvmtkWin32Header.h</text>
</g>
<!-- Node0&#45;&gt;Node1 -->
<g id="edge1" class="edge"><title>Node0&#45;&gt;Node1</title>
<path fill="none" stroke="midnightblue" d="M186.629,-55.4504C161.41,-46.5395 120.551,-32.1029 91.9622,-22.0014"/>
<polygon fill="midnightblue" stroke="midnightblue" points="93.0021,-18.6568 82.4073,-18.6253 90.67,-25.2569 93.0021,-18.6568"/>
</g>
<!-- Node2 -->
<g id="node3" class="node"><title>Node2</title>
<polygon fill="white" stroke="#bfbfbf" points="136.658,-0.5 136.658,-18.5 282.165,-18.5 282.165,-0.5 136.658,-0.5"/>
<text text-anchor="middle" x="209.411" y="-6.5" font-family="Helvetica,sans-Serif" font-size="10.00">vtkUnstructuredGridReader.h</text>
</g>
<!-- Node0&#45;&gt;Node2 -->
<g id="edge2" class="edge"><title>Node0&#45;&gt;Node2</title>
<path fill="none" stroke="midnightblue" d="M209.411,-55.2188C209.411,-48.1769 209.411,-37.8083 209.411,-28.8277"/>
<polygon fill="midnightblue" stroke="midnightblue" points="212.911,-28.5495 209.411,-18.5496 205.911,-28.5496 212.911,-28.5495"/>
</g>
<!-- Node3 -->
<g id="node4" class="node"><title>Node3</title>
<polygon fill="white" stroke="#bfbfbf" points="299.795,-0.5 299.795,-18.5 343.027,-18.5 343.027,-0.5 299.795,-0.5"/>
<text text-anchor="middle" x="321.411" y="-6.5" font-family="Helvetica,sans-Serif" font-size="10.00">vector</text>
</g>
<!-- Node0&#45;&gt;Node3 -->
<g id="edge3" class="edge"><title>Node0&#45;&gt;Node3</title>
<path fill="none" stroke="midnightblue" d="M226.422,-55.4504C244.677,-46.8119 273.906,-32.9803 295.124,-22.9396"/>
<polygon fill="midnightblue" stroke="midnightblue" points="296.699,-26.0664 304.241,-18.6253 293.705,-19.7391 296.699,-26.0664"/>
</g>
</g>
</svg>
