<?xml version="1.0" encoding="UTF-8" standalone="no"?>
<!DOCTYPE svg PUBLIC "-//W3C//DTD SVG 1.1//EN"
 "http://www.w3.org/Graphics/SVG/1.1/DTD/svg11.dtd">
<!-- Generated by graphviz version 2.38.0 (20140413.2041)
 -->
<!-- Title: vtkvmtkVesselEnhancingDiffusion3DImageFilter.h Pages: 1 -->
<svg width="572pt" height="102pt"
 viewBox="0.00 0.00 571.87 102.00" xmlns="http://www.w3.org/2000/svg" xmlns:xlink="http://www.w3.org/1999/xlink">
<g id="graph0" class="graph" transform="scale(1 1) rotate(0) translate(4 98)">
<title>vtkvmtkVesselEnhancingDiffusion3DImageFilter.h</title>
<polygon fill="white" stroke="none" points="-4,4 -4,-98 567.869,-98 567.869,4 -4,4"/>
<!-- Node0 -->
<g id="node1" class="node"><title>Node0</title>
<polygon fill="#bfbfbf" stroke="black" points="254.177,-65.5 254.177,-93.5 425.084,-93.5 425.084,-65.5 254.177,-65.5"/>
<text text-anchor="start" x="262.177" y="-81.5" font-family="Helvetica,sans-Serif" font-size="10.00">vtkvmtkVesselEnhancingDiffusion3</text>
<text text-anchor="middle" x="339.63" y="-71.5" font-family="Helvetica,sans-Serif" font-size="10.00">DImageFilter.h</text>
</g>
<!-- Node1 -->
<g id="node2" class="node"><title>Node1</title>
<polygon fill="white" stroke="#bfbfbf" points="0,-5.5 0,-23.5 173.261,-23.5 173.261,-5.5 0,-5.5"/>
<text text-anchor="middle" x="86.6304" y="-11.5" font-family="Helvetica,sans-Serif" font-size="10.00">vtkvmtkITKImageToImageFilterFF.h</text>
</g>
<!-- Node0&#45;&gt;Node1 -->
<g id="edge1" class="edge"><title>Node0&#45;&gt;Node1</title>
<path fill="none" stroke="midnightblue" d="M287.209,-65.4464C240.31,-53.7682 172.439,-36.8673 128.923,-26.0313"/>
<polygon fill="midnightblue" stroke="midnightblue" points="129.5,-22.5681 118.95,-23.548 127.808,-29.3607 129.5,-22.5681"/>
</g>
<!-- Node2 -->
<g id="node3" class="node"><title>Node2</title>
<polygon fill="white" stroke="#bfbfbf" points="191.12,-0.5 191.12,-28.5 338.141,-28.5 338.141,-0.5 191.12,-0.5"/>
<text text-anchor="start" x="199.12" y="-16.5" font-family="Helvetica,sans-Serif" font-size="10.00">itkVesselEnhancingDiffusion3</text>
<text text-anchor="middle" x="264.63" y="-6.5" font-family="Helvetica,sans-Serif" font-size="10.00">DImageFilter.h</text>
</g>
<!-- Node0&#45;&gt;Node2 -->
<g id="edge2" class="edge"><title>Node0&#45;&gt;Node2</title>
<path fill="none" stroke="midnightblue" d="M324.09,-65.4464C313.632,-56.6613 299.655,-44.9208 287.88,-35.0299"/>
<polygon fill="midnightblue" stroke="midnightblue" points="290.059,-32.2889 280.151,-28.5369 285.556,-37.6488 290.059,-32.2889"/>
</g>
<!-- Node3 -->
<g id="node4" class="node"><title>Node3</title>
<polygon fill="white" stroke="#bfbfbf" points="356.219,-5.5 356.219,-23.5 475.042,-23.5 475.042,-5.5 356.219,-5.5"/>
<text text-anchor="middle" x="415.63" y="-11.5" font-family="Helvetica,sans-Serif" font-size="10.00">vtkvmtkWin32Header.h</text>
</g>
<!-- Node0&#45;&gt;Node3 -->
<g id="edge3" class="edge"><title>Node0&#45;&gt;Node3</title>
<path fill="none" stroke="midnightblue" d="M355.378,-65.4464C367.789,-55.1577 385.091,-40.8153 397.972,-30.1379"/>
<polygon fill="midnightblue" stroke="midnightblue" points="400.237,-32.8066 405.702,-23.7301 395.77,-27.4174 400.237,-32.8066"/>
</g>
<!-- Node4 -->
<g id="node5" class="node"><title>Node4</title>
<polygon fill="white" stroke="#bfbfbf" points="493.392,-5.5 493.392,-23.5 563.869,-23.5 563.869,-5.5 493.392,-5.5"/>
<text text-anchor="middle" x="528.63" y="-11.5" font-family="Helvetica,sans-Serif" font-size="10.00">vtkVersion.h</text>
</g>
<!-- Node0&#45;&gt;Node4 -->
<g id="edge4" class="edge"><title>Node0&#45;&gt;Node4</title>
<path fill="none" stroke="midnightblue" d="M378.791,-65.4464C413.087,-54.0145 462.396,-37.5781 494.955,-26.7252"/>
<polygon fill="midnightblue" stroke="midnightblue" points="496.106,-30.0307 504.486,-23.548 493.893,-23.3899 496.106,-30.0307"/>
</g>
</g>
</svg>
