<?xml version="1.0" encoding="UTF-8" standalone="no"?>
<!DOCTYPE svg PUBLIC "-//W3C//DTD SVG 1.1//EN"
 "http://www.w3.org/Graphics/SVG/1.1/DTD/svg11.dtd">
<!-- Generated by graphviz version 2.38.0 (20140413.2041)
 -->
<!-- Title: vtkvmtkItem.h Pages: 1 -->
<!--zoomable 572 -->
<svg id="main" version="1.1" xmlns="http://www.w3.org/2000/svg" xmlns:xlink="http://www.w3.org/1999/xlink" xml:space="preserve" onload="init(evt)">
<style type="text/css"><![CDATA[
.edge:hover path { stroke: red; }
.edge:hover polygon { stroke: red; fill: red; }
]]></style>
<script type="text/javascript"><![CDATA[
var edges = document.getElementsByTagName('g');
if (edges && edges.length) {
  for (var i=0;i<edges.length;i++) {
    if (edges[i].id.substr(0,4)=='edge') {
      edges[i].setAttribute('class','edge');
    }
  }
}
]]></script>
        <defs>
                <circle id="rim" cx="0" cy="0" r="7"/>
                <circle id="rim2" cx="0" cy="0" r="3.5"/>
                <g id="zoomPlus">
                        <use xlink:href="#rim" fill="#404040">
                                <set attributeName="fill" to="#808080" begin="zoomplus.mouseover" end="zoomplus.mouseout"/>
                        </use>
                        <path d="M-4,0h8M0,-4v8" fill="none" stroke="white" stroke-width="1.5" pointer-events="none"/>
                </g>
                <g id="zoomMin">
                        <use xlink:href="#rim" fill="#404040">
                                <set attributeName="fill" to="#808080" begin="zoomminus.mouseover" end="zoomminus.mouseout"/>
                        </use>
                        <path d="M-4,0h8" fill="none" stroke="white" stroke-width="1.5" pointer-events="none"/>
                </g>
                <g id="dirArrow">
                        <path fill="none" stroke="white" stroke-width="1.5" d="M0,-3.0v7 M-2.5,-0.5L0,-3.0L2.5,-0.5"/>
                </g>
               <g id="resetDef">
                       <use xlink:href="#rim2" fill="#404040">
                               <set attributeName="fill" to="#808080" begin="reset.mouseover" end="reset.mouseout"/>
                       </use>
               </g>
        </defs>

<script type="text/javascript">
var viewWidth = 1940;
var viewHeight = 572;
var sectionId = 'dynsection-1';
</script>
<script xlink:href="svgpan.js"/>
<svg id="graph" class="graph">
<g id="viewport">
<title>vtkvmtkItem.h</title>
<polygon fill="white" stroke="none" points="-4,4 -4,-568 1935.51,-568 1935.51,4 -4,4"/>
<!-- Node4 -->
<g id="node1" class="node"><title>Node4</title>
<polygon fill="#bfbfbf" stroke="black" points="800.758,-545.5 800.758,-563.5 878.433,-563.5 878.433,-545.5 800.758,-545.5"/>
<text text-anchor="middle" x="839.596" y="-551.5" font-family="Helvetica,sans-Serif" font-size="10.00">vtkvmtkItem.h</text>
</g>
<!-- Node5 -->
<g id="node2" class="node"><title>Node5</title>
<g id="a_node2"><a xlink:href="vtkvmtkDataSetItem_8h.html" target="_top" xlink:title="vtkvmtkDataSetItem.h">
<polygon fill="white" stroke="black" points="680.692,-490.5 680.692,-508.5 794.5,-508.5 794.5,-490.5 680.692,-490.5"/>
<text text-anchor="middle" x="737.596" y="-496.5" font-family="Helvetica,sans-Serif" font-size="10.00">vtkvmtkDataSetItem.h</text>
</a>
</g>
</g>
<!-- Node4&#45;&gt;Node5 -->
<g id="edge1" class="edge"><title>Node4&#45;&gt;Node5</title>
<path fill="none" stroke="midnightblue" d="M815.039,-540.74C795.826,-530.757 769.691,-517.177 753.233,-508.625"/>
<polygon fill="midnightblue" stroke="midnightblue" points="813.617,-543.945 824.104,-545.45 816.844,-537.734 813.617,-543.945"/>
</g>
<!-- Node38 -->
<g id="node35" class="node"><title>Node38</title>
<g id="a_node35"><a xlink:href="vtkvmtkItems_8h.html" target="_top" xlink:title="vtkvmtkItems.h">
<polygon fill="white" stroke="black" points="901.258,-490.5 901.258,-508.5 983.933,-508.5 983.933,-490.5 901.258,-490.5"/>
<text text-anchor="middle" x="942.596" y="-496.5" font-family="Helvetica,sans-Serif" font-size="10.00">vtkvmtkItems.h</text>
</a>
</g>
</g>
<!-- Node4&#45;&gt;Node38 -->
<g id="edge38" class="edge"><title>Node4&#45;&gt;Node38</title>
<path fill="none" stroke="midnightblue" d="M864.393,-540.74C883.795,-530.757 910.186,-517.177 926.805,-508.625"/>
<polygon fill="midnightblue" stroke="midnightblue" points="862.53,-537.763 855.239,-545.45 865.732,-543.987 862.53,-537.763"/>
</g>
<!-- Node6 -->
<g id="node3" class="node"><title>Node6</title>
<g id="a_node3"><a xlink:href="vtkvmtkNeighborhood_8h.html" target="_top" xlink:title="vtkvmtkNeighborhood.h">
<polygon fill="white" stroke="black" points="499.069,-435.5 499.069,-453.5 620.123,-453.5 620.123,-435.5 499.069,-435.5"/>
<text text-anchor="middle" x="559.596" y="-441.5" font-family="Helvetica,sans-Serif" font-size="10.00">vtkvmtkNeighborhood.h</text>
</a>
</g>
</g>
<!-- Node5&#45;&gt;Node6 -->
<g id="edge2" class="edge"><title>Node5&#45;&gt;Node6</title>
<path fill="none" stroke="midnightblue" d="M700.548,-487.469C666.548,-477.345 616.984,-462.588 586.592,-453.538"/>
<polygon fill="midnightblue" stroke="midnightblue" points="699.978,-490.951 710.561,-490.45 701.976,-484.242 699.978,-490.951"/>
</g>
<!-- Node7 -->
<g id="node4" class="node"><title>Node7</title>
<g id="a_node4"><a xlink:href="vtkvmtkStencil_8h.html" target="_top" xlink:title="vtkvmtkStencil.h">
<polygon fill="white" stroke="black" points="470.475,-380.5 470.475,-398.5 558.716,-398.5 558.716,-380.5 470.475,-380.5"/>
<text text-anchor="middle" x="514.596" y="-386.5" font-family="Helvetica,sans-Serif" font-size="10.00">vtkvmtkStencil.h</text>
</a>
</g>
</g>
<!-- Node6&#45;&gt;Node7 -->
<g id="edge3" class="edge"><title>Node6&#45;&gt;Node7</title>
<path fill="none" stroke="midnightblue" d="M546.039,-427.533C537.917,-417.967 527.938,-406.214 521.43,-398.55"/>
<polygon fill="midnightblue" stroke="midnightblue" points="543.424,-429.861 552.564,-435.219 548.76,-425.33 543.424,-429.861"/>
</g>
<!-- Node8 -->
<g id="node5" class="node"><title>Node8</title>
<g id="a_node5"><a xlink:href="vtkvmtkSparseMatrixRow_8h.html" target="_top" xlink:title="vtkvmtkSparseMatrixRow.h">
<polygon fill="white" stroke="black" points="492.3,-320.5 492.3,-338.5 628.891,-338.5 628.891,-320.5 492.3,-320.5"/>
<text text-anchor="middle" x="560.596" y="-326.5" font-family="Helvetica,sans-Serif" font-size="10.00">vtkvmtkSparseMatrixRow.h</text>
</a>
</g>
</g>
<!-- Node6&#45;&gt;Node8 -->
<g id="edge30" class="edge"><title>Node6&#45;&gt;Node8</title>
<path fill="none" stroke="midnightblue" d="M513.08,-432.609C480.692,-422.588 445.9,-405.397 461.596,-380 475.133,-358.096 501.623,-345.56 523.797,-338.587"/>
<polygon fill="midnightblue" stroke="midnightblue" points="512.416,-436.061 522.995,-435.49 514.369,-429.339 512.416,-436.061"/>
</g>
<!-- Node32 -->
<g id="node29" class="node"><title>Node32</title>
<g id="a_node29"><a xlink:href="vtkvmtkNeighborhoods_8h.html" target="_top" xlink:title="vtkvmtkNeighborhoods.h">
<polygon fill="white" stroke="black" points="924.569,-380.5 924.569,-398.5 1050.62,-398.5 1050.62,-380.5 924.569,-380.5"/>
<text text-anchor="middle" x="987.596" y="-386.5" font-family="Helvetica,sans-Serif" font-size="10.00">vtkvmtkNeighborhoods.h</text>
</a>
</g>
</g>
<!-- Node6&#45;&gt;Node32 -->
<g id="edge31" class="edge"><title>Node6&#45;&gt;Node32</title>
<path fill="none" stroke="midnightblue" d="M630.437,-434.728C712.367,-424.582 846.009,-408.033 924.5,-398.313"/>
<polygon fill="midnightblue" stroke="midnightblue" points="629.957,-431.26 620.463,-435.963 630.817,-438.207 629.957,-431.26"/>
</g>
<!-- Node33 -->
<g id="node30" class="node"><title>Node33</title>
<g id="a_node30"><a xlink:href="vtkvmtkEmptyNeighborhood_8h.html" target="_top" xlink:title="vtkvmtkEmptyNeighborhood.h">
<polygon fill="white" stroke="black" points="576.899,-380.5 576.899,-398.5 726.292,-398.5 726.292,-380.5 576.899,-380.5"/>
<text text-anchor="middle" x="651.596" y="-386.5" font-family="Helvetica,sans-Serif" font-size="10.00">vtkvmtkEmptyNeighborhood.h</text>
</a>
</g>
</g>
<!-- Node6&#45;&gt;Node33 -->
<g id="edge33" class="edge"><title>Node6&#45;&gt;Node33</title>
<path fill="none" stroke="midnightblue" d="M582.461,-430.328C599.719,-420.386 622.85,-407.06 637.491,-398.625"/>
<polygon fill="midnightblue" stroke="midnightblue" points="580.486,-427.426 573.569,-435.45 583.981,-433.491 580.486,-427.426"/>
</g>
<!-- Node34 -->
<g id="node31" class="node"><title>Node34</title>
<g id="a_node31"><a xlink:href="vtkvmtkPolyDataManifoldNeighborhood_8h.html" target="_top" xlink:title="vtkvmtkPolyDataManifoldNeighborhood.h">
<polygon fill="white" stroke="black" points="214.882,-380.5 214.882,-398.5 414.31,-398.5 414.31,-380.5 214.882,-380.5"/>
<text text-anchor="middle" x="314.596" y="-386.5" font-family="Helvetica,sans-Serif" font-size="10.00">vtkvmtkPolyDataManifoldNeighborhood.h</text>
</a>
</g>
</g>
<!-- Node6&#45;&gt;Node34 -->
<g id="edge34" class="edge"><title>Node6&#45;&gt;Node34</title>
<path fill="none" stroke="midnightblue" d="M512.485,-433.309C465.649,-423.177 394.757,-407.841 351.754,-398.538"/>
<polygon fill="midnightblue" stroke="midnightblue" points="511.872,-436.757 522.385,-435.45 513.352,-429.915 511.872,-436.757"/>
</g>
<!-- Node36 -->
<g id="node33" class="node"><title>Node36</title>
<g id="a_node33"><a xlink:href="vtkvmtkPolyDataNeighborhood_8h.html" target="_top" xlink:title="vtkvmtkPolyDataNeighborhood.h">
<polygon fill="white" stroke="black" points="744.781,-380.5 744.781,-398.5 906.411,-398.5 906.411,-380.5 744.781,-380.5"/>
<text text-anchor="middle" x="825.596" y="-386.5" font-family="Helvetica,sans-Serif" font-size="10.00">vtkvmtkPolyDataNeighborhood.h</text>
</a>
</g>
</g>
<!-- Node6&#45;&gt;Node36 -->
<g id="edge36" class="edge"><title>Node6&#45;&gt;Node36</title>
<path fill="none" stroke="midnightblue" d="M610.106,-433.436C660.949,-423.306 738.367,-407.88 785.252,-398.538"/>
<polygon fill="midnightblue" stroke="midnightblue" points="609.119,-430.064 599.995,-435.45 610.487,-436.929 609.119,-430.064"/>
</g>
<!-- Node37 -->
<g id="node34" class="node"><title>Node37</title>
<g id="a_node34"><a xlink:href="vtkvmtkUnstructuredGridNeighborhood_8h.html" target="_top" xlink:title="vtkvmtkUnstructuredGridNeighborhood.h">
<polygon fill="white" stroke="black" points="0,-380.5 0,-398.5 197.191,-398.5 197.191,-380.5 0,-380.5"/>
<text text-anchor="middle" x="98.5957" y="-386.5" font-family="Helvetica,sans-Serif" font-size="10.00">vtkvmtkUnstructuredGridNeighborhood.h</text>
</a>
</g>
</g>
<!-- Node6&#45;&gt;Node37 -->
<g id="edge37" class="edge"><title>Node6&#45;&gt;Node37</title>
<path fill="none" stroke="midnightblue" d="M488.809,-435.362C401.815,-425.36 255.121,-408.495 168.523,-398.539"/>
<polygon fill="midnightblue" stroke="midnightblue" points="488.52,-438.852 498.854,-436.517 489.319,-431.897 488.52,-438.852"/>
</g>
<!-- Node7&#45;&gt;Node8 -->
<g id="edge4" class="edge"><title>Node7&#45;&gt;Node8</title>
<path fill="none" stroke="midnightblue" d="M527.269,-372.521C535.908,-361.628 547.001,-347.641 553.956,-338.872"/>
<polygon fill="midnightblue" stroke="midnightblue" points="524.464,-370.425 520.992,-380.435 529.948,-374.775 524.464,-370.425"/>
</g>
<!-- Node22 -->
<g id="node19" class="node"><title>Node22</title>
<g id="a_node19"><a xlink:href="vtkvmtkStencils_8h.html" target="_top" xlink:title="vtkvmtkStencils.h">
<polygon fill="white" stroke="black" points="1000.98,-320.5 1000.98,-338.5 1094.22,-338.5 1094.22,-320.5 1000.98,-320.5"/>
<text text-anchor="middle" x="1047.6" y="-326.5" font-family="Helvetica,sans-Serif" font-size="10.00">vtkvmtkStencils.h</text>
</a>
</g>
</g>
<!-- Node7&#45;&gt;Node22 -->
<g id="edge19" class="edge"><title>Node7&#45;&gt;Node22</title>
<path fill="none" stroke="midnightblue" d="M569.129,-379.866C733.732,-358.439 916.619,-341.733 1000.82,-334.443"/>
<polygon fill="midnightblue" stroke="midnightblue" points="568.275,-376.447 558.815,-381.218 569.185,-383.388 568.275,-376.447"/>
</g>
<!-- Node24 -->
<g id="node21" class="node"><title>Node24</title>
<g id="a_node21"><a xlink:href="vtkvmtkEmptyStencil_8h.html" target="_top" xlink:title="vtkvmtkEmptyStencil.h">
<polygon fill="white" stroke="black" points="647.305,-320.5 647.305,-338.5 763.886,-338.5 763.886,-320.5 647.305,-320.5"/>
<text text-anchor="middle" x="705.596" y="-326.5" font-family="Helvetica,sans-Serif" font-size="10.00">vtkvmtkEmptyStencil.h</text>
</a>
</g>
</g>
<!-- Node7&#45;&gt;Node24 -->
<g id="edge22" class="edge"><title>Node7&#45;&gt;Node24</title>
<path fill="none" stroke="midnightblue" d="M551.132,-377.405C588.5,-366.058 645.656,-348.702 678.956,-338.589"/>
<polygon fill="midnightblue" stroke="midnightblue" points="549.705,-374.181 541.153,-380.435 551.739,-380.879 549.705,-374.181"/>
</g>
<!-- Node25 -->
<g id="node22" class="node"><title>Node25</title>
<g id="a_node22"><a xlink:href="vtkvmtkPolyDataManifoldStencil_8h.html" target="_top" xlink:title="vtkvmtkPolyDataManifoldStencil.h">
<polygon fill="white" stroke="black" points="307.288,-320.5 307.288,-338.5 473.903,-338.5 473.903,-320.5 307.288,-320.5"/>
<text text-anchor="middle" x="390.596" y="-326.5" font-family="Helvetica,sans-Serif" font-size="10.00">vtkvmtkPolyDataManifoldStencil.h</text>
</a>
</g>
</g>
<!-- Node7&#45;&gt;Node25 -->
<g id="edge23" class="edge"><title>Node7&#45;&gt;Node25</title>
<path fill="none" stroke="midnightblue" d="M488.049,-376.083C463.889,-364.783 428.911,-348.422 408.091,-338.683"/>
<polygon fill="midnightblue" stroke="midnightblue" points="486.813,-379.369 497.354,-380.435 489.779,-373.028 486.813,-379.369"/>
</g>
<!-- Node9 -->
<g id="node6" class="node"><title>Node9</title>
<g id="a_node6"><a xlink:href="vtkvmtkSparseMatrix_8h.html" target="_top" xlink:title="vtkvmtkSparseMatrix.h">
<polygon fill="white" stroke="black" points="868.029,-255.5 868.029,-273.5 985.162,-273.5 985.162,-255.5 868.029,-255.5"/>
<text text-anchor="middle" x="926.596" y="-261.5" font-family="Helvetica,sans-Serif" font-size="10.00">vtkvmtkSparseMatrix.h</text>
</a>
</g>
</g>
<!-- Node8&#45;&gt;Node9 -->
<g id="edge5" class="edge"><title>Node8&#45;&gt;Node9</title>
<path fill="none" stroke="midnightblue" d="M616.727,-318.777C624.082,-317.505 631.519,-316.22 638.596,-315 723.587,-300.341 822.701,-283.323 879.702,-273.543"/>
<polygon fill="midnightblue" stroke="midnightblue" points="616.045,-315.343 606.788,-320.496 617.238,-322.24 616.045,-315.343"/>
</g>
<!-- Node10 -->
<g id="node7" class="node"><title>Node10</title>
<g id="a_node7"><a xlink:href="vtkvmtkLinearSystem_8h.html" target="_top" xlink:title="vtkvmtkLinearSystem.h">
<polygon fill="white" stroke="black" points="852.914,-190.5 852.914,-208.5 972.278,-208.5 972.278,-190.5 852.914,-190.5"/>
<text text-anchor="middle" x="912.596" y="-196.5" font-family="Helvetica,sans-Serif" font-size="10.00">vtkvmtkLinearSystem.h</text>
</a>
</g>
</g>
<!-- Node9&#45;&gt;Node10 -->
<g id="edge6" class="edge"><title>Node9&#45;&gt;Node10</title>
<path fill="none" stroke="midnightblue" d="M922.547,-245.281C919.846,-233.128 916.428,-217.747 914.382,-208.539"/>
<polygon fill="midnightblue" stroke="midnightblue" points="919.179,-246.261 924.765,-255.264 926.013,-244.743 919.179,-246.261"/>
</g>
<!-- Node16 -->
<g id="node13" class="node"><title>Node16</title>
<g id="a_node13"><a xlink:href="vtkvmtkFEAssembler_8h.html" target="_top" xlink:title="vtkvmtkFEAssembler.h">
<polygon fill="white" stroke="black" points="1337.75,-190.5 1337.75,-208.5 1455.44,-208.5 1455.44,-190.5 1337.75,-190.5"/>
<text text-anchor="middle" x="1396.6" y="-196.5" font-family="Helvetica,sans-Serif" font-size="10.00">vtkvmtkFEAssembler.h</text>
</a>
</g>
</g>
<!-- Node9&#45;&gt;Node16 -->
<g id="edge13" class="edge"><title>Node9&#45;&gt;Node16</title>
<path fill="none" stroke="midnightblue" d="M973.925,-253.494C980.517,-252.238 987.216,-251.033 993.596,-250 1115.37,-230.283 1258.98,-214.391 1337.66,-206.309"/>
<polygon fill="midnightblue" stroke="midnightblue" points="972.855,-250.137 963.714,-255.494 974.201,-257.006 972.855,-250.137"/>
</g>
<!-- Node11 -->
<g id="node8" class="node"><title>Node11</title>
<g id="a_node8"><a xlink:href="vtkvmtkBoundaryConditions_8h.html" target="_top" xlink:title="vtkvmtkBoundaryConditions.h">
<polygon fill="white" stroke="black" points="685.453,-125.5 685.453,-143.5 833.738,-143.5 833.738,-125.5 685.453,-125.5"/>
<text text-anchor="middle" x="759.596" y="-131.5" font-family="Helvetica,sans-Serif" font-size="10.00">vtkvmtkBoundaryConditions.h</text>
</a>
</g>
</g>
<!-- Node10&#45;&gt;Node11 -->
<g id="edge7" class="edge"><title>Node10&#45;&gt;Node11</title>
<path fill="none" stroke="midnightblue" d="M883.615,-186.567C853.034,-173.975 805.678,-154.475 779.209,-143.576"/>
<polygon fill="midnightblue" stroke="midnightblue" points="882.327,-189.822 892.907,-190.393 884.993,-183.349 882.327,-189.822"/>
</g>
<!-- Node13 -->
<g id="node10" class="node"><title>Node13</title>
<g id="a_node10"><a xlink:href="vtkvmtkEllipticProblem_8h.html" target="_top" xlink:title="vtkvmtkEllipticProblem.h">
<polygon fill="white" stroke="black" points="750.416,-0.5 750.416,-18.5 874.775,-18.5 874.775,-0.5 750.416,-0.5"/>
<text text-anchor="middle" x="812.596" y="-6.5" font-family="Helvetica,sans-Serif" font-size="10.00">vtkvmtkEllipticProblem.h</text>
</a>
</g>
</g>
<!-- Node10&#45;&gt;Node13 -->
<g id="edge10" class="edge"><title>Node10&#45;&gt;Node13</title>
<path fill="none" stroke="midnightblue" d="M901.016,-181.917C894.643,-172.474 886.794,-160.306 880.596,-149 858.511,-108.715 858.42,-95.9507 837.596,-55 831.008,-42.046 822.601,-27.4265 817.409,-18.5918"/>
<polygon fill="midnightblue" stroke="midnightblue" points="898.237,-184.053 906.781,-190.318 904.009,-180.092 898.237,-184.053"/>
</g>
<!-- Node14 -->
<g id="node11" class="node"><title>Node14</title>
<g id="a_node11"><a xlink:href="vtkvmtkLinearSystemSolver_8h.html" target="_top" xlink:title="vtkvmtkLinearSystemSolver.h">
<polygon fill="white" stroke="black" points="890.015,-125.5 890.015,-143.5 1037.18,-143.5 1037.18,-125.5 890.015,-125.5"/>
<text text-anchor="middle" x="963.596" y="-131.5" font-family="Helvetica,sans-Serif" font-size="10.00">vtkvmtkLinearSystemSolver.h</text>
</a>
</g>
</g>
<!-- Node10&#45;&gt;Node14 -->
<g id="edge11" class="edge"><title>Node10&#45;&gt;Node14</title>
<path fill="none" stroke="midnightblue" d="M925.569,-182.474C935.639,-170.034 949.178,-153.311 957.088,-143.539"/>
<polygon fill="midnightblue" stroke="midnightblue" points="922.835,-180.289 919.263,-190.264 928.275,-184.694 922.835,-180.289"/>
</g>
<!-- Node12 -->
<g id="node9" class="node"><title>Node12</title>
<g id="a_node9"><a xlink:href="vtkvmtkDirichletBoundaryConditions_8h.html" target="_top" xlink:title="vtkvmtkDirichletBoundary\lConditions.h">
<polygon fill="white" stroke="black" points="700.189,-55.5 700.189,-83.5 829.002,-83.5 829.002,-55.5 700.189,-55.5"/>
<text text-anchor="start" x="708.189" y="-71.5" font-family="Helvetica,sans-Serif" font-size="10.00">vtkvmtkDirichletBoundary</text>
<text text-anchor="middle" x="764.596" y="-61.5" font-family="Helvetica,sans-Serif" font-size="10.00">Conditions.h</text>
</a>
</g>
</g>
<!-- Node11&#45;&gt;Node12 -->
<g id="edge8" class="edge"><title>Node11&#45;&gt;Node12</title>
<path fill="none" stroke="midnightblue" d="M761.053,-115.137C761.849,-105.105 762.817,-92.906 763.54,-83.7981"/>
<polygon fill="midnightblue" stroke="midnightblue" points="757.552,-115.018 760.249,-125.264 764.53,-115.572 757.552,-115.018"/>
</g>
<!-- Node12&#45;&gt;Node13 -->
<g id="edge9" class="edge"><title>Node12&#45;&gt;Node13</title>
<path fill="none" stroke="midnightblue" d="M782.036,-47.4264C790.254,-37.4957 799.585,-26.2217 805.75,-18.7715"/>
<polygon fill="midnightblue" stroke="midnightblue" points="779.167,-45.4034 775.488,-55.3389 784.56,-49.8664 779.167,-45.4034"/>
</g>
<!-- Node15 -->
<g id="node12" class="node"><title>Node15</title>
<g id="a_node12"><a xlink:href="vtkvmtkOpenNLLinearSystemSolver_8h.html" target="_top" xlink:title="vtkvmtkOpenNLLinearSystem\lSolver.h">
<polygon fill="white" stroke="black" points="889.46,-55.5 889.46,-83.5 1037.73,-83.5 1037.73,-55.5 889.46,-55.5"/>
<text text-anchor="start" x="897.46" y="-71.5" font-family="Helvetica,sans-Serif" font-size="10.00">vtkvmtkOpenNLLinearSystem</text>
<text text-anchor="middle" x="963.596" y="-61.5" font-family="Helvetica,sans-Serif" font-size="10.00">Solver.h</text>
</a>
</g>
</g>
<!-- Node14&#45;&gt;Node15 -->
<g id="edge12" class="edge"><title>Node14&#45;&gt;Node15</title>
<path fill="none" stroke="midnightblue" d="M963.596,-115.137C963.596,-105.105 963.596,-92.906 963.596,-83.7981"/>
<polygon fill="midnightblue" stroke="midnightblue" points="960.096,-115.264 963.596,-125.264 967.096,-115.264 960.096,-115.264"/>
</g>
<!-- Node17 -->
<g id="node14" class="node"><title>Node17</title>
<g id="a_node14"><a xlink:href="vtkvmtkPolyDataFEGradientAssembler_8h.html" target="_top" xlink:title="vtkvmtkPolyDataFEGradient\lAssembler.h">
<polygon fill="white" stroke="black" points="1246.8,-120.5 1246.8,-148.5 1388.39,-148.5 1388.39,-120.5 1246.8,-120.5"/>
<text text-anchor="start" x="1254.8" y="-136.5" font-family="Helvetica,sans-Serif" font-size="10.00">vtkvmtkPolyDataFEGradient</text>
<text text-anchor="middle" x="1317.6" y="-126.5" font-family="Helvetica,sans-Serif" font-size="10.00">Assembler.h</text>
</a>
</g>
</g>
<!-- Node16&#45;&gt;Node17 -->
<g id="edge14" class="edge"><title>Node16&#45;&gt;Node17</title>
<path fill="none" stroke="midnightblue" d="M1378.23,-183.857C1364.85,-173.183 1346.87,-158.847 1333.97,-148.561"/>
<polygon fill="midnightblue" stroke="midnightblue" points="1376.27,-186.765 1386.27,-190.264 1380.63,-181.293 1376.27,-186.765"/>
</g>
<!-- Node18 -->
<g id="node15" class="node"><title>Node18</title>
<g id="a_node15"><a xlink:href="vtkvmtkPolyDataFELaplaceAssembler_8h.html" target="_top" xlink:title="vtkvmtkPolyDataFELaplace\lAssembler.h">
<polygon fill="white" stroke="black" points="1406.46,-120.5 1406.46,-148.5 1544.73,-148.5 1544.73,-120.5 1406.46,-120.5"/>
<text text-anchor="start" x="1414.46" y="-136.5" font-family="Helvetica,sans-Serif" font-size="10.00">vtkvmtkPolyDataFELaplace</text>
<text text-anchor="middle" x="1475.6" y="-126.5" font-family="Helvetica,sans-Serif" font-size="10.00">Assembler.h</text>
</a>
</g>
</g>
<!-- Node16&#45;&gt;Node18 -->
<g id="edge15" class="edge"><title>Node16&#45;&gt;Node18</title>
<path fill="none" stroke="midnightblue" d="M1414.96,-183.857C1428.34,-173.183 1446.32,-158.847 1459.22,-148.561"/>
<polygon fill="midnightblue" stroke="midnightblue" points="1412.56,-181.293 1406.92,-190.264 1416.92,-186.765 1412.56,-181.293"/>
</g>
<!-- Node19 -->
<g id="node16" class="node"><title>Node19</title>
<g id="a_node16"><a xlink:href="vtkvmtkUnstructuredGridFEGradientAssembler_8h.html" target="_top" xlink:title="vtkvmtkUnstructuredGridFEGradient\lAssembler.h">
<polygon fill="white" stroke="black" points="1563.02,-120.5 1563.02,-148.5 1740.17,-148.5 1740.17,-120.5 1563.02,-120.5"/>
<text text-anchor="start" x="1571.02" y="-136.5" font-family="Helvetica,sans-Serif" font-size="10.00">vtkvmtkUnstructuredGridFEGradient</text>
<text text-anchor="middle" x="1651.6" y="-126.5" font-family="Helvetica,sans-Serif" font-size="10.00">Assembler.h</text>
</a>
</g>
</g>
<!-- Node16&#45;&gt;Node19 -->
<g id="edge16" class="edge"><title>Node16&#45;&gt;Node19</title>
<path fill="none" stroke="midnightblue" d="M1438.93,-188.041C1482.81,-177.2 1551.48,-160.234 1598.86,-148.529"/>
<polygon fill="midnightblue" stroke="midnightblue" points="1438.02,-184.661 1429.15,-190.457 1439.7,-191.456 1438.02,-184.661"/>
</g>
<!-- Node20 -->
<g id="node17" class="node"><title>Node20</title>
<g id="a_node17"><a xlink:href="vtkvmtkUnstructuredGridFELaplaceAssembler_8h.html" target="_top" xlink:title="vtkvmtkUnstructuredGridFELaplace\lAssembler.h">
<polygon fill="white" stroke="black" points="1757.68,-120.5 1757.68,-148.5 1931.51,-148.5 1931.51,-120.5 1757.68,-120.5"/>
<text text-anchor="start" x="1765.68" y="-136.5" font-family="Helvetica,sans-Serif" font-size="10.00">vtkvmtkUnstructuredGridFELaplace</text>
<text text-anchor="middle" x="1844.6" y="-126.5" font-family="Helvetica,sans-Serif" font-size="10.00">Assembler.h</text>
</a>
</g>
</g>
<!-- Node16&#45;&gt;Node20 -->
<g id="edge17" class="edge"><title>Node16&#45;&gt;Node20</title>
<path fill="none" stroke="midnightblue" d="M1464.23,-189.053C1535.29,-179.12 1650.31,-163.016 1749.6,-149 1752.23,-148.627 1754.92,-148.249 1757.62,-147.866"/>
<polygon fill="midnightblue" stroke="midnightblue" points="1463.49,-185.622 1454.07,-190.473 1464.46,-192.555 1463.49,-185.622"/>
</g>
<!-- Node21 -->
<g id="node18" class="node"><title>Node21</title>
<g id="a_node18"><a xlink:href="vtkvmtkUnstructuredGridFEVorticityAssembler_8h.html" target="_top" xlink:title="vtkvmtkUnstructuredGridFEVorticity\lAssembler.h">
<polygon fill="white" stroke="black" points="1054.69,-120.5 1054.69,-148.5 1228.5,-148.5 1228.5,-120.5 1054.69,-120.5"/>
<text text-anchor="start" x="1062.69" y="-136.5" font-family="Helvetica,sans-Serif" font-size="10.00">vtkvmtkUnstructuredGridFEVorticity</text>
<text text-anchor="middle" x="1141.6" y="-126.5" font-family="Helvetica,sans-Serif" font-size="10.00">Assembler.h</text>
</a>
</g>
</g>
<!-- Node16&#45;&gt;Node21 -->
<g id="edge18" class="edge"><title>Node16&#45;&gt;Node21</title>
<path fill="none" stroke="midnightblue" d="M1354.26,-188.041C1310.38,-177.2 1241.71,-160.234 1194.33,-148.529"/>
<polygon fill="midnightblue" stroke="midnightblue" points="1353.49,-191.456 1364.04,-190.457 1355.17,-184.661 1353.49,-191.456"/>
</g>
<!-- Node22&#45;&gt;Node9 -->
<g id="edge20" class="edge"><title>Node22&#45;&gt;Node9</title>
<path fill="none" stroke="midnightblue" d="M1022.82,-315.6C998.583,-302.981 962.428,-284.156 942.036,-273.539"/>
<polygon fill="midnightblue" stroke="midnightblue" points="1021.29,-318.75 1031.78,-320.264 1024.52,-312.541 1021.29,-318.75"/>
</g>
<!-- Node23 -->
<g id="node20" class="node"><title>Node23</title>
<g id="a_node20"><a xlink:href="vtkvmtkPolyDataMeanCurvature_8h.html" target="_top" xlink:title="vtkvmtkPolyDataMeanCurvature.h">
<polygon fill="white" stroke="black" points="1002.73,-255.5 1002.73,-273.5 1170.46,-273.5 1170.46,-255.5 1002.73,-255.5"/>
<text text-anchor="middle" x="1086.6" y="-261.5" font-family="Helvetica,sans-Serif" font-size="10.00">vtkvmtkPolyDataMeanCurvature.h</text>
</a>
</g>
</g>
<!-- Node22&#45;&gt;Node23 -->
<g id="edge21" class="edge"><title>Node22&#45;&gt;Node23</title>
<path fill="none" stroke="midnightblue" d="M1057.96,-311.752C1065.61,-299.394 1075.69,-283.123 1081.62,-273.539"/>
<polygon fill="midnightblue" stroke="midnightblue" points="1054.98,-309.919 1052.69,-320.264 1060.93,-313.603 1054.98,-309.919"/>
</g>
<!-- Node26 -->
<g id="node23" class="node"><title>Node26</title>
<g id="a_node23"><a xlink:href="vtkvmtkPolyDataAreaWeightedUmbrellaStencil_8h.html" target="_top" xlink:title="vtkvmtkPolyDataAreaWeighted\lUmbrellaStencil.h">
<polygon fill="white" stroke="black" points="414.768,-250.5 414.768,-278.5 568.424,-278.5 568.424,-250.5 414.768,-250.5"/>
<text text-anchor="start" x="422.768" y="-266.5" font-family="Helvetica,sans-Serif" font-size="10.00">vtkvmtkPolyDataAreaWeighted</text>
<text text-anchor="middle" x="491.596" y="-256.5" font-family="Helvetica,sans-Serif" font-size="10.00">UmbrellaStencil.h</text>
</a>
</g>
</g>
<!-- Node25&#45;&gt;Node26 -->
<g id="edge24" class="edge"><title>Node25&#45;&gt;Node26</title>
<path fill="none" stroke="midnightblue" d="M412.618,-314.763C429.865,-304.005 453.695,-289.141 470.657,-278.561"/>
<polygon fill="midnightblue" stroke="midnightblue" points="410.432,-312.002 403.8,-320.264 414.137,-317.941 410.432,-312.002"/>
</g>
<!-- Node27 -->
<g id="node24" class="node"><title>Node27</title>
<g id="a_node24"><a xlink:href="vtkvmtkPolyDataLaplaceBeltramiStencil_8h.html" target="_top" xlink:title="vtkvmtkPolyDataLaplaceBeltrami\lStencil.h">
<polygon fill="white" stroke="black" points="586.512,-250.5 586.512,-278.5 748.679,-278.5 748.679,-250.5 586.512,-250.5"/>
<text text-anchor="start" x="594.512" y="-266.5" font-family="Helvetica,sans-Serif" font-size="10.00">vtkvmtkPolyDataLaplaceBeltrami</text>
<text text-anchor="middle" x="667.596" y="-256.5" font-family="Helvetica,sans-Serif" font-size="10.00">Stencil.h</text>
</a>
</g>
</g>
<!-- Node25&#45;&gt;Node27 -->
<g id="edge25" class="edge"><title>Node25&#45;&gt;Node27</title>
<path fill="none" stroke="midnightblue" d="M435.983,-318.177C483.619,-307.343 558.628,-290.283 610.309,-278.529"/>
<polygon fill="midnightblue" stroke="midnightblue" points="434.934,-314.826 425.959,-320.457 436.487,-321.652 434.934,-314.826"/>
</g>
<!-- Node30 -->
<g id="node27" class="node"><title>Node30</title>
<g id="a_node27"><a xlink:href="vtkvmtkPolyDataGradientStencil_8h.html" target="_top" xlink:title="vtkvmtkPolyDataGradientStencil.h">
<polygon fill="white" stroke="black" points="43.0098,-255.5 43.0098,-273.5 210.182,-273.5 210.182,-255.5 43.0098,-255.5"/>
<text text-anchor="middle" x="126.596" y="-261.5" font-family="Helvetica,sans-Serif" font-size="10.00">vtkvmtkPolyDataGradientStencil.h</text>
</a>
</g>
</g>
<!-- Node25&#45;&gt;Node30 -->
<g id="edge28" class="edge"><title>Node25&#45;&gt;Node30</title>
<path fill="none" stroke="midnightblue" d="M346.905,-318.074C294.585,-305.588 208.07,-284.943 160.516,-273.595"/>
<polygon fill="midnightblue" stroke="midnightblue" points="346.352,-321.54 356.892,-320.457 347.977,-314.731 346.352,-321.54"/>
</g>
<!-- Node31 -->
<g id="node28" class="node"><title>Node31</title>
<g id="a_node28"><a xlink:href="vtkvmtkPolyDataUmbrellaStencil_8h.html" target="_top" xlink:title="vtkvmtkPolyDataUmbrellaStencil.h">
<polygon fill="white" stroke="black" points="228.182,-255.5 228.182,-273.5 397.009,-273.5 397.009,-255.5 228.182,-255.5"/>
<text text-anchor="middle" x="312.596" y="-261.5" font-family="Helvetica,sans-Serif" font-size="10.00">vtkvmtkPolyDataUmbrellaStencil.h</text>
</a>
</g>
</g>
<!-- Node25&#45;&gt;Node31 -->
<g id="edge29" class="edge"><title>Node25&#45;&gt;Node31</title>
<path fill="none" stroke="midnightblue" d="M372.507,-313.89C356.958,-301.331 335.112,-283.686 322.549,-273.539"/>
<polygon fill="midnightblue" stroke="midnightblue" points="370.42,-316.703 380.399,-320.264 374.818,-311.258 370.42,-316.703"/>
</g>
<!-- Node28 -->
<g id="node25" class="node"><title>Node28</title>
<g id="a_node25"><a xlink:href="vtkvmtkPolyDataFELaplaceBeltramiStencil_8h.html" target="_top" xlink:title="vtkvmtkPolyDataFELaplace\lBeltramiStencil.h">
<polygon fill="white" stroke="black" points="520.46,-185.5 520.46,-213.5 658.731,-213.5 658.731,-185.5 520.46,-185.5"/>
<text text-anchor="start" x="528.46" y="-201.5" font-family="Helvetica,sans-Serif" font-size="10.00">vtkvmtkPolyDataFELaplace</text>
<text text-anchor="middle" x="589.596" y="-191.5" font-family="Helvetica,sans-Serif" font-size="10.00">BeltramiStencil.h</text>
</a>
</g>
</g>
<!-- Node27&#45;&gt;Node28 -->
<g id="edge26" class="edge"><title>Node27&#45;&gt;Node28</title>
<path fill="none" stroke="midnightblue" d="M643.393,-243.951C631.144,-234.058 616.609,-222.318 605.737,-213.537"/>
<polygon fill="midnightblue" stroke="midnightblue" points="641.455,-246.886 651.434,-250.446 645.854,-241.44 641.455,-246.886"/>
</g>
<!-- Node29 -->
<g id="node26" class="node"><title>Node29</title>
<g id="a_node26"><a xlink:href="vtkvmtkPolyDataFVFELaplaceBeltramiStencil_8h.html" target="_top" xlink:title="vtkvmtkPolyDataFVFELaplace\lBeltramiStencil.h">
<polygon fill="white" stroke="black" points="677.071,-185.5 677.071,-213.5 828.12,-213.5 828.12,-185.5 677.071,-185.5"/>
<text text-anchor="start" x="685.071" y="-201.5" font-family="Helvetica,sans-Serif" font-size="10.00">vtkvmtkPolyDataFVFELaplace</text>
<text text-anchor="middle" x="752.596" y="-191.5" font-family="Helvetica,sans-Serif" font-size="10.00">BeltramiStencil.h</text>
</a>
</g>
</g>
<!-- Node27&#45;&gt;Node29 -->
<g id="edge27" class="edge"><title>Node27&#45;&gt;Node29</title>
<path fill="none" stroke="midnightblue" d="M693.587,-244.236C707.014,-234.284 723.045,-222.403 735.006,-213.537"/>
<polygon fill="midnightblue" stroke="midnightblue" points="691.158,-241.68 685.208,-250.446 695.326,-247.304 691.158,-241.68"/>
</g>
<!-- Node32&#45;&gt;Node9 -->
<g id="edge32" class="edge"><title>Node32&#45;&gt;Node9</title>
<path fill="none" stroke="midnightblue" d="M979.144,-371.459C965.855,-344.662 940.569,-293.676 930.693,-273.761"/>
<polygon fill="midnightblue" stroke="midnightblue" points="976.015,-373.026 983.593,-380.43 982.286,-369.916 976.015,-373.026"/>
</g>
<!-- Node35 -->
<g id="node32" class="node"><title>Node35</title>
<g id="a_node32"><a xlink:href="vtkvmtkPolyDataManifoldExtendedNeighborhood_8h.html" target="_top" xlink:title="vtkvmtkPolyDataManifoldExtended\lNeighborhood.h">
<polygon fill="white" stroke="black" points="118.337,-315.5 118.337,-343.5 288.854,-343.5 288.854,-315.5 118.337,-315.5"/>
<text text-anchor="start" x="126.337" y="-331.5" font-family="Helvetica,sans-Serif" font-size="10.00">vtkvmtkPolyDataManifoldExtended</text>
<text text-anchor="middle" x="203.596" y="-321.5" font-family="Helvetica,sans-Serif" font-size="10.00">Neighborhood.h</text>
</a>
</g>
</g>
<!-- Node34&#45;&gt;Node35 -->
<g id="edge35" class="edge"><title>Node34&#45;&gt;Node35</title>
<path fill="none" stroke="midnightblue" d="M290.298,-375.804C272.053,-366.27 247.144,-353.255 228.705,-343.62"/>
<polygon fill="midnightblue" stroke="midnightblue" points="288.678,-378.906 299.162,-380.435 291.92,-372.702 288.678,-378.906"/>
</g>
<!-- Node39 -->
<g id="node36" class="node"><title>Node39</title>
<g id="a_node36"><a xlink:href="vtkvmtkDataSetItems_8h.html" target="_top" xlink:title="vtkvmtkDataSetItems.h">
<polygon fill="white" stroke="black" points="928.192,-435.5 928.192,-453.5 1047,-453.5 1047,-435.5 928.192,-435.5"/>
<text text-anchor="middle" x="987.596" y="-441.5" font-family="Helvetica,sans-Serif" font-size="10.00">vtkvmtkDataSetItems.h</text>
</a>
</g>
</g>
<!-- Node38&#45;&gt;Node39 -->
<g id="edge39" class="edge"><title>Node38&#45;&gt;Node39</title>
<path fill="none" stroke="midnightblue" d="M956.152,-482.533C964.274,-472.967 974.253,-461.214 980.761,-453.55"/>
<polygon fill="midnightblue" stroke="midnightblue" points="953.431,-480.33 949.627,-490.219 958.767,-484.861 953.431,-480.33"/>
</g>
<!-- Node39&#45;&gt;Node22 -->
<g id="edge41" class="edge"><title>Node39&#45;&gt;Node22</title>
<path fill="none" stroke="midnightblue" d="M1021.63,-431.276C1036.04,-424.211 1051.38,-413.74 1059.6,-399 1070.53,-379.386 1059.24,-352.113 1052.25,-338.664"/>
<polygon fill="midnightblue" stroke="midnightblue" points="1020.06,-428.144 1012.38,-435.438 1022.93,-434.528 1020.06,-428.144"/>
</g>
<!-- Node39&#45;&gt;Node32 -->
<g id="edge40" class="edge"><title>Node39&#45;&gt;Node32</title>
<path fill="none" stroke="midnightblue" d="M987.596,-425.175C987.596,-416.094 987.596,-405.595 987.596,-398.55"/>
<polygon fill="midnightblue" stroke="midnightblue" points="984.096,-425.219 987.596,-435.219 991.096,-425.219 984.096,-425.219"/>
</g>
</g>
</svg>
        <g id="navigator" transform="translate(0 0)" fill="#404254">
                <rect fill="#f2f5e9" fill-opacity="0.5" stroke="#606060" stroke-width=".5" x="0" y="0" width="60" height="60"/>
                <use id="zoomplus" xlink:href="#zoomPlus" x="17" y="9" onmousedown="handleZoom(evt,'in')"/>
                <use id="zoomminus" xlink:href="#zoomMin" x="42" y="9" onmousedown="handleZoom(evt,'out')"/>
                <use id="reset" xlink:href="#resetDef" x="30" y="36" onmousedown="handleReset()"/>
                <g id="arrowUp" xlink:href="#dirArrow" transform="translate(30 24)" onmousedown="handlePan(0,-1)">
                  <use xlink:href="#rim" fill="#404040">
                        <set attributeName="fill" to="#808080" begin="arrowUp.mouseover" end="arrowUp.mouseout"/>
                  </use>
                  <path fill="none" stroke="white" stroke-width="1.5" d="M0,-3.0v7 M-2.5,-0.5L0,-3.0L2.5,-0.5"/>
                </g>
                <g id="arrowRight" xlink:href="#dirArrow" transform="rotate(90) translate(36 -43)" onmousedown="handlePan(1,0)">
                  <use xlink:href="#rim" fill="#404040">
                        <set attributeName="fill" to="#808080" begin="arrowRight.mouseover" end="arrowRight.mouseout"/>
                  </use>
                  <path fill="none" stroke="white" stroke-width="1.5" d="M0,-3.0v7 M-2.5,-0.5L0,-3.0L2.5,-0.5"/>
                </g>
                <g id="arrowDown" xlink:href="#dirArrow" transform="rotate(180) translate(-30 -48)" onmousedown="handlePan(0,1)">
                  <use xlink:href="#rim" fill="#404040">
                        <set attributeName="fill" to="#808080" begin="arrowDown.mouseover" end="arrowDown.mouseout"/>
                  </use>
                  <path fill="none" stroke="white" stroke-width="1.5" d="M0,-3.0v7 M-2.5,-0.5L0,-3.0L2.5,-0.5"/>
                </g>
                <g id="arrowLeft" xlink:href="#dirArrow" transform="rotate(270) translate(-36 17)" onmousedown="handlePan(-1,0)">
                  <use xlink:href="#rim" fill="#404040">
                        <set attributeName="fill" to="#808080" begin="arrowLeft.mouseover" end="arrowLeft.mouseout"/>
                  </use>
                  <path fill="none" stroke="white" stroke-width="1.5" d="M0,-3.0v7 M-2.5,-0.5L0,-3.0L2.5,-0.5"/>
                </g>
        </g>
        <svg viewBox="0 0 15 15" width="100%" height="30px" preserveAspectRatio="xMaxYMin meet">
         <g id="arrow_out" transform="scale(0.3 0.3)">
          <a xlink:href="vtkvmtkItem_8h__dep__incl_org.svg" target="_base">
           <rect id="button" ry="5" rx="5" y="6" x="6" height="38" width="38"
                fill="#f2f5e9" fill-opacity="0.5" stroke="#606060" stroke-width="1.0"/>
           <path id="arrow"
             d="M 11.500037,31.436501 C 11.940474,20.09759 22.043105,11.32322 32.158766,21.979434 L 37.068811,17.246167 C 37.068811,17.246167 37.088388,32 37.088388,32 L 22.160133,31.978069 C 22.160133,31.978069 26.997745,27.140456 26.997745,27.140456 C 18.528582,18.264221 13.291696,25.230495 11.500037,31.436501 z"
             style="fill:#404040;"/>
          </a>
         </g>
        </svg>
</svg>
