<?xml version="1.0" encoding="UTF-8" standalone="no"?>
<!DOCTYPE svg PUBLIC "-//W3C//DTD SVG 1.1//EN"
 "http://www.w3.org/Graphics/SVG/1.1/DTD/svg11.dtd">
<!-- Generated by graphviz version 2.38.0 (20140413.2041)
 -->
<!-- Title: vtkvmtkStaticTemporalStreamTracer.h Pages: 1 -->
<svg width="242pt" height="92pt"
 viewBox="0.00 0.00 242.08 92.00" xmlns="http://www.w3.org/2000/svg" xmlns:xlink="http://www.w3.org/1999/xlink">
<g id="graph0" class="graph" transform="scale(1 1) rotate(0) translate(4 88)">
<title>vtkvmtkStaticTemporalStreamTracer.h</title>
<polygon fill="white" stroke="none" points="-4,4 -4,-88 238.075,-88 238.075,4 -4,4"/>
<!-- Node0 -->
<g id="node1" class="node"><title>Node0</title>
<polygon fill="#bfbfbf" stroke="black" points="37.5361,-55.5 37.5361,-83.5 185.792,-83.5 185.792,-55.5 37.5361,-55.5"/>
<text text-anchor="start" x="45.5361" y="-71.5" font-family="Helvetica,sans-Serif" font-size="10.00">vtkvmtkStaticTemporalStream</text>
<text text-anchor="middle" x="111.664" y="-61.5" font-family="Helvetica,sans-Serif" font-size="10.00">Tracer.h</text>
</g>
<!-- Node1 -->
<g id="node2" class="node"><title>Node1</title>
<polygon fill="white" stroke="#bfbfbf" points="0,-0.5 0,-18.5 97.3281,-18.5 97.3281,-0.5 0,-0.5"/>
<text text-anchor="middle" x="48.6641" y="-6.5" font-family="Helvetica,sans-Serif" font-size="10.00">vtkStreamTracer.h</text>
</g>
<!-- Node0&#45;&gt;Node1 -->
<g id="edge1" class="edge"><title>Node0&#45;&gt;Node1</title>
<path fill="none" stroke="midnightblue" d="M97.3684,-55.3389C87.8386,-46.5654 75.2783,-35.002 65.2999,-25.8156"/>
<polygon fill="midnightblue" stroke="midnightblue" points="67.3762,-22.9696 57.6486,-18.7715 62.635,-28.1195 67.3762,-22.9696"/>
</g>
<!-- Node2 -->
<g id="node3" class="node"><title>Node2</title>
<polygon fill="white" stroke="#bfbfbf" points="115.253,-0.5 115.253,-18.5 234.075,-18.5 234.075,-0.5 115.253,-0.5"/>
<text text-anchor="middle" x="174.664" y="-6.5" font-family="Helvetica,sans-Serif" font-size="10.00">vtkvmtkWin32Header.h</text>
</g>
<!-- Node0&#45;&gt;Node2 -->
<g id="edge2" class="edge"><title>Node0&#45;&gt;Node2</title>
<path fill="none" stroke="midnightblue" d="M125.96,-55.3389C135.49,-46.5654 148.05,-35.002 158.028,-25.8156"/>
<polygon fill="midnightblue" stroke="midnightblue" points="160.693,-28.1195 165.68,-18.7715 155.952,-22.9696 160.693,-28.1195"/>
</g>
</g>
</svg>
