<?xml version="1.0" encoding="UTF-8" standalone="no"?>
<!DOCTYPE svg PUBLIC "-//W3C//DTD SVG 1.1//EN"
 "http://www.w3.org/Graphics/SVG/1.1/DTD/svg11.dtd">
<!-- Generated by graphviz version 2.38.0 (20140413.2041)
 -->
<!-- Title: vtkvmtkDoubleVector.h Pages: 1 -->
<!--zoomable 322 -->
<svg id="main" version="1.1" xmlns="http://www.w3.org/2000/svg" xmlns:xlink="http://www.w3.org/1999/xlink" xml:space="preserve" onload="init(evt)">
<style type="text/css"><![CDATA[
.edge:hover path { stroke: red; }
.edge:hover polygon { stroke: red; fill: red; }
]]></style>
<script type="text/javascript"><![CDATA[
var edges = document.getElementsByTagName('g');
if (edges && edges.length) {
  for (var i=0;i<edges.length;i++) {
    if (edges[i].id.substr(0,4)=='edge') {
      edges[i].setAttribute('class','edge');
    }
  }
}
]]></script>
        <defs>
                <circle id="rim" cx="0" cy="0" r="7"/>
                <circle id="rim2" cx="0" cy="0" r="3.5"/>
                <g id="zoomPlus">
                        <use xlink:href="#rim" fill="#404040">
                                <set attributeName="fill" to="#808080" begin="zoomplus.mouseover" end="zoomplus.mouseout"/>
                        </use>
                        <path d="M-4,0h8M0,-4v8" fill="none" stroke="white" stroke-width="1.5" pointer-events="none"/>
                </g>
                <g id="zoomMin">
                        <use xlink:href="#rim" fill="#404040">
                                <set attributeName="fill" to="#808080" begin="zoomminus.mouseover" end="zoomminus.mouseout"/>
                        </use>
                        <path d="M-4,0h8" fill="none" stroke="white" stroke-width="1.5" pointer-events="none"/>
                </g>
                <g id="dirArrow">
                        <path fill="none" stroke="white" stroke-width="1.5" d="M0,-3.0v7 M-2.5,-0.5L0,-3.0L2.5,-0.5"/>
                </g>
               <g id="resetDef">
                       <use xlink:href="#rim2" fill="#404040">
                               <set attributeName="fill" to="#808080" begin="reset.mouseover" end="reset.mouseout"/>
                       </use>
               </g>
        </defs>

<script type="text/javascript">
var viewWidth = 1254;
var viewHeight = 322;
var sectionId = 'dynsection-1';
</script>
<script xlink:href="svgpan.js"/>
<svg id="graph" class="graph">
<g id="viewport">
<title>vtkvmtkDoubleVector.h</title>
<polygon fill="white" stroke="none" points="-4,4 -4,-318 1250.05,-318 1250.05,4 -4,4"/>
<!-- Node4 -->
<g id="node1" class="node"><title>Node4</title>
<polygon fill="#bfbfbf" stroke="black" points="415.281,-295.5 415.281,-313.5 533.004,-313.5 533.004,-295.5 415.281,-295.5"/>
<text text-anchor="middle" x="474.143" y="-301.5" font-family="Helvetica,sans-Serif" font-size="10.00">vtkvmtkDoubleVector.h</text>
</g>
<!-- Node5 -->
<g id="node2" class="node"><title>Node5</title>
<g id="a_node2"><a xlink:href="vtkvmtkSparseMatrix_8h.html" target="_top" xlink:title="vtkvmtkSparseMatrix.h">
<polygon fill="white" stroke="black" points="415.576,-240.5 415.576,-258.5 532.709,-258.5 532.709,-240.5 415.576,-240.5"/>
<text text-anchor="middle" x="474.143" y="-246.5" font-family="Helvetica,sans-Serif" font-size="10.00">vtkvmtkSparseMatrix.h</text>
</a>
</g>
</g>
<!-- Node4&#45;&gt;Node5 -->
<g id="edge1" class="edge"><title>Node4&#45;&gt;Node5</title>
<path fill="none" stroke="midnightblue" d="M474.143,-285.175C474.143,-276.094 474.143,-265.595 474.143,-258.55"/>
<polygon fill="midnightblue" stroke="midnightblue" points="470.643,-285.219 474.143,-295.219 477.643,-285.219 470.643,-285.219"/>
</g>
<!-- Node6 -->
<g id="node3" class="node"><title>Node6</title>
<g id="a_node3"><a xlink:href="vtkvmtkLinearSystem_8h.html" target="_top" xlink:title="vtkvmtkLinearSystem.h">
<polygon fill="white" stroke="black" points="218.46,-185.5 218.46,-203.5 337.825,-203.5 337.825,-185.5 218.46,-185.5"/>
<text text-anchor="middle" x="278.143" y="-191.5" font-family="Helvetica,sans-Serif" font-size="10.00">vtkvmtkLinearSystem.h</text>
</a>
</g>
</g>
<!-- Node4&#45;&gt;Node6 -->
<g id="edge15" class="edge"><title>Node4&#45;&gt;Node6</title>
<path fill="none" stroke="midnightblue" d="M450.4,-290.417C409.376,-267.812 326.394,-222.087 292.778,-203.564"/>
<polygon fill="midnightblue" stroke="midnightblue" points="448.963,-293.622 459.411,-295.382 452.341,-287.491 448.963,-293.622"/>
</g>
<!-- Node12 -->
<g id="node9" class="node"><title>Node12</title>
<g id="a_node9"><a xlink:href="vtkvmtkFEAssembler_8h.html" target="_top" xlink:title="vtkvmtkFEAssembler.h">
<polygon fill="white" stroke="black" points="539.295,-185.5 539.295,-203.5 656.99,-203.5 656.99,-185.5 539.295,-185.5"/>
<text text-anchor="middle" x="598.143" y="-191.5" font-family="Helvetica,sans-Serif" font-size="10.00">vtkvmtkFEAssembler.h</text>
</a>
</g>
</g>
<!-- Node4&#45;&gt;Node12 -->
<g id="edge16" class="edge"><title>Node4&#45;&gt;Node12</title>
<path fill="none" stroke="midnightblue" d="M497.785,-290.189C511.392,-282.013 528.452,-270.858 542.143,-259 562.587,-241.293 582.572,-216.236 592.197,-203.542"/>
<polygon fill="midnightblue" stroke="midnightblue" points="495.853,-287.265 489,-295.345 499.396,-293.302 495.853,-287.265"/>
</g>
<!-- Node5&#45;&gt;Node6 -->
<g id="edge2" class="edge"><title>Node5&#45;&gt;Node6</title>
<path fill="none" stroke="midnightblue" d="M434.313,-237.73C396.853,-227.6 341.623,-212.666 307.869,-203.538"/>
<polygon fill="midnightblue" stroke="midnightblue" points="433.807,-241.219 444.374,-240.45 435.635,-234.461 433.807,-241.219"/>
</g>
<!-- Node5&#45;&gt;Node12 -->
<g id="edge9" class="edge"><title>Node5&#45;&gt;Node12</title>
<path fill="none" stroke="midnightblue" d="M502.41,-236.418C525.896,-226.379 558.668,-212.372 579.132,-203.625"/>
<polygon fill="midnightblue" stroke="midnightblue" points="500.795,-233.302 492.976,-240.45 503.546,-239.738 500.795,-233.302"/>
</g>
<!-- Node7 -->
<g id="node4" class="node"><title>Node7</title>
<g id="a_node4"><a xlink:href="vtkvmtkBoundaryConditions_8h.html" target="_top" xlink:title="vtkvmtkBoundaryConditions.h">
<polygon fill="white" stroke="black" points="0,-125.5 0,-143.5 148.285,-143.5 148.285,-125.5 0,-125.5"/>
<text text-anchor="middle" x="74.1426" y="-131.5" font-family="Helvetica,sans-Serif" font-size="10.00">vtkvmtkBoundaryConditions.h</text>
</a>
</g>
</g>
<!-- Node6&#45;&gt;Node7 -->
<g id="edge3" class="edge"><title>Node6&#45;&gt;Node7</title>
<path fill="none" stroke="midnightblue" d="M240.138,-182.695C200.253,-171.355 138.466,-153.788 102.595,-143.589"/>
<polygon fill="midnightblue" stroke="midnightblue" points="239.201,-186.067 249.777,-185.435 241.116,-179.334 239.201,-186.067"/>
</g>
<!-- Node9 -->
<g id="node6" class="node"><title>Node9</title>
<g id="a_node6"><a xlink:href="vtkvmtkEllipticProblem_8h.html" target="_top" xlink:title="vtkvmtkEllipticProblem.h">
<polygon fill="white" stroke="black" points="64.9629,-0.5 64.9629,-18.5 189.322,-18.5 189.322,-0.5 64.9629,-0.5"/>
<text text-anchor="middle" x="127.143" y="-6.5" font-family="Helvetica,sans-Serif" font-size="10.00">vtkvmtkEllipticProblem.h</text>
</a>
</g>
</g>
<!-- Node6&#45;&gt;Node9 -->
<g id="edge6" class="edge"><title>Node6&#45;&gt;Node9</title>
<path fill="none" stroke="midnightblue" d="M244.625,-181.498C228.034,-174.191 208.707,-163.449 195.143,-149 163.698,-115.506 172.967,-95.9507 152.143,-55 145.555,-42.046 137.148,-27.4265 131.956,-18.5918"/>
<polygon fill="midnightblue" stroke="midnightblue" points="243.436,-184.794 254.014,-185.405 246.126,-178.332 243.436,-184.794"/>
</g>
<!-- Node10 -->
<g id="node7" class="node"><title>Node10</title>
<g id="a_node7"><a xlink:href="vtkvmtkLinearSystemSolver_8h.html" target="_top" xlink:title="vtkvmtkLinearSystemSolver.h">
<polygon fill="white" stroke="black" points="204.562,-125.5 204.562,-143.5 351.724,-143.5 351.724,-125.5 204.562,-125.5"/>
<text text-anchor="middle" x="278.143" y="-131.5" font-family="Helvetica,sans-Serif" font-size="10.00">vtkvmtkLinearSystemSolver.h</text>
</a>
</g>
</g>
<!-- Node6&#45;&gt;Node10 -->
<g id="edge7" class="edge"><title>Node6&#45;&gt;Node10</title>
<path fill="none" stroke="midnightblue" d="M278.143,-175.214C278.143,-164.714 278.143,-152.033 278.143,-143.872"/>
<polygon fill="midnightblue" stroke="midnightblue" points="274.643,-175.435 278.143,-185.435 281.643,-175.435 274.643,-175.435"/>
</g>
<!-- Node8 -->
<g id="node5" class="node"><title>Node8</title>
<g id="a_node5"><a xlink:href="vtkvmtkDirichletBoundaryConditions_8h.html" target="_top" xlink:title="vtkvmtkDirichletBoundary\lConditions.h">
<polygon fill="white" stroke="black" points="14.7363,-55.5 14.7363,-83.5 143.549,-83.5 143.549,-55.5 14.7363,-55.5"/>
<text text-anchor="start" x="22.7363" y="-71.5" font-family="Helvetica,sans-Serif" font-size="10.00">vtkvmtkDirichletBoundary</text>
<text text-anchor="middle" x="79.1426" y="-61.5" font-family="Helvetica,sans-Serif" font-size="10.00">Conditions.h</text>
</a>
</g>
</g>
<!-- Node7&#45;&gt;Node8 -->
<g id="edge4" class="edge"><title>Node7&#45;&gt;Node8</title>
<path fill="none" stroke="midnightblue" d="M75.5999,-115.137C76.3962,-105.105 77.3643,-92.906 78.0872,-83.7981"/>
<polygon fill="midnightblue" stroke="midnightblue" points="72.0985,-115.018 74.7962,-125.264 79.0765,-115.572 72.0985,-115.018"/>
</g>
<!-- Node8&#45;&gt;Node9 -->
<g id="edge5" class="edge"><title>Node8&#45;&gt;Node9</title>
<path fill="none" stroke="midnightblue" d="M96.5828,-47.4264C104.801,-37.4957 114.132,-26.2217 120.297,-18.7715"/>
<polygon fill="midnightblue" stroke="midnightblue" points="93.7138,-45.4034 90.0345,-55.3389 99.1066,-49.8664 93.7138,-45.4034"/>
</g>
<!-- Node11 -->
<g id="node8" class="node"><title>Node11</title>
<g id="a_node8"><a xlink:href="vtkvmtkOpenNLLinearSystemSolver_8h.html" target="_top" xlink:title="vtkvmtkOpenNLLinearSystem\lSolver.h">
<polygon fill="white" stroke="black" points="204.007,-55.5 204.007,-83.5 352.278,-83.5 352.278,-55.5 204.007,-55.5"/>
<text text-anchor="start" x="212.007" y="-71.5" font-family="Helvetica,sans-Serif" font-size="10.00">vtkvmtkOpenNLLinearSystem</text>
<text text-anchor="middle" x="278.143" y="-61.5" font-family="Helvetica,sans-Serif" font-size="10.00">Solver.h</text>
</a>
</g>
</g>
<!-- Node10&#45;&gt;Node11 -->
<g id="edge8" class="edge"><title>Node10&#45;&gt;Node11</title>
<path fill="none" stroke="midnightblue" d="M278.143,-115.137C278.143,-105.105 278.143,-92.906 278.143,-83.7981"/>
<polygon fill="midnightblue" stroke="midnightblue" points="274.643,-115.264 278.143,-125.264 281.643,-115.264 274.643,-115.264"/>
</g>
<!-- Node13 -->
<g id="node10" class="node"><title>Node13</title>
<g id="a_node10"><a xlink:href="vtkvmtkPolyDataFEGradientAssembler_8h.html" target="_top" xlink:title="vtkvmtkPolyDataFEGradient\lAssembler.h">
<polygon fill="white" stroke="black" points="369.345,-120.5 369.345,-148.5 510.94,-148.5 510.94,-120.5 369.345,-120.5"/>
<text text-anchor="start" x="377.345" y="-136.5" font-family="Helvetica,sans-Serif" font-size="10.00">vtkvmtkPolyDataFEGradient</text>
<text text-anchor="middle" x="440.143" y="-126.5" font-family="Helvetica,sans-Serif" font-size="10.00">Assembler.h</text>
</a>
</g>
</g>
<!-- Node12&#45;&gt;Node13 -->
<g id="edge10" class="edge"><title>Node12&#45;&gt;Node13</title>
<path fill="none" stroke="midnightblue" d="M566.69,-181.954C540.402,-172.304 502.927,-158.547 475.582,-148.51"/>
<polygon fill="midnightblue" stroke="midnightblue" points="565.58,-185.275 576.173,-185.435 567.992,-178.704 565.58,-185.275"/>
</g>
<!-- Node14 -->
<g id="node11" class="node"><title>Node14</title>
<g id="a_node11"><a xlink:href="vtkvmtkPolyDataFELaplaceAssembler_8h.html" target="_top" xlink:title="vtkvmtkPolyDataFELaplace\lAssembler.h">
<polygon fill="white" stroke="black" points="529.007,-120.5 529.007,-148.5 667.278,-148.5 667.278,-120.5 529.007,-120.5"/>
<text text-anchor="start" x="537.007" y="-136.5" font-family="Helvetica,sans-Serif" font-size="10.00">vtkvmtkPolyDataFELaplace</text>
<text text-anchor="middle" x="598.143" y="-126.5" font-family="Helvetica,sans-Serif" font-size="10.00">Assembler.h</text>
</a>
</g>
</g>
<!-- Node12&#45;&gt;Node14 -->
<g id="edge11" class="edge"><title>Node12&#45;&gt;Node14</title>
<path fill="none" stroke="midnightblue" d="M598.143,-175.321C598.143,-166.747 598.143,-156.7 598.143,-148.843"/>
<polygon fill="midnightblue" stroke="midnightblue" points="594.643,-175.435 598.143,-185.435 601.643,-175.435 594.643,-175.435"/>
</g>
<!-- Node15 -->
<g id="node12" class="node"><title>Node15</title>
<g id="a_node12"><a xlink:href="vtkvmtkUnstructuredGridFEGradientAssembler_8h.html" target="_top" xlink:title="vtkvmtkUnstructuredGridFEGradient\lAssembler.h">
<polygon fill="white" stroke="black" points="685.564,-120.5 685.564,-148.5 862.721,-148.5 862.721,-120.5 685.564,-120.5"/>
<text text-anchor="start" x="693.564" y="-136.5" font-family="Helvetica,sans-Serif" font-size="10.00">vtkvmtkUnstructuredGridFEGradient</text>
<text text-anchor="middle" x="774.143" y="-126.5" font-family="Helvetica,sans-Serif" font-size="10.00">Assembler.h</text>
</a>
</g>
</g>
<!-- Node12&#45;&gt;Node15 -->
<g id="edge12" class="edge"><title>Node12&#45;&gt;Node15</title>
<path fill="none" stroke="midnightblue" d="M632.407,-182.208C661.725,-172.547 703.937,-158.636 734.665,-148.51"/>
<polygon fill="midnightblue" stroke="midnightblue" points="631.017,-178.981 622.615,-185.435 633.208,-185.63 631.017,-178.981"/>
</g>
<!-- Node16 -->
<g id="node13" class="node"><title>Node16</title>
<g id="a_node13"><a xlink:href="vtkvmtkUnstructuredGridFELaplaceAssembler_8h.html" target="_top" xlink:title="vtkvmtkUnstructuredGridFELaplace\lAssembler.h">
<polygon fill="white" stroke="black" points="880.227,-120.5 880.227,-148.5 1054.06,-148.5 1054.06,-120.5 880.227,-120.5"/>
<text text-anchor="start" x="888.227" y="-136.5" font-family="Helvetica,sans-Serif" font-size="10.00">vtkvmtkUnstructuredGridFELaplace</text>
<text text-anchor="middle" x="967.143" y="-126.5" font-family="Helvetica,sans-Serif" font-size="10.00">Assembler.h</text>
</a>
</g>
</g>
<!-- Node12&#45;&gt;Node16 -->
<g id="edge13" class="edge"><title>Node12&#45;&gt;Node16</title>
<path fill="none" stroke="midnightblue" d="M659.002,-183.934C720.462,-174.274 815.833,-159.283 884.191,-148.538"/>
<polygon fill="midnightblue" stroke="midnightblue" points="658.398,-180.486 649.063,-185.496 659.485,-187.401 658.398,-180.486"/>
</g>
<!-- Node17 -->
<g id="node14" class="node"><title>Node17</title>
<g id="a_node14"><a xlink:href="vtkvmtkUnstructuredGridFEVorticityAssembler_8h.html" target="_top" xlink:title="vtkvmtkUnstructuredGridFEVorticity\lAssembler.h">
<polygon fill="white" stroke="black" points="1072.23,-120.5 1072.23,-148.5 1246.05,-148.5 1246.05,-120.5 1072.23,-120.5"/>
<text text-anchor="start" x="1080.23" y="-136.5" font-family="Helvetica,sans-Serif" font-size="10.00">vtkvmtkUnstructuredGridFEVorticity</text>
<text text-anchor="middle" x="1159.14" y="-126.5" font-family="Helvetica,sans-Serif" font-size="10.00">Assembler.h</text>
</a>
</g>
</g>
<!-- Node12&#45;&gt;Node17 -->
<g id="edge14" class="edge"><title>Node12&#45;&gt;Node17</title>
<path fill="none" stroke="midnightblue" d="M667.505,-187.828C758.469,-180.168 922.972,-165.555 1063.14,-149 1066.07,-148.655 1069.04,-148.293 1072.04,-147.92"/>
<polygon fill="midnightblue" stroke="midnightblue" points="666.994,-184.358 657.322,-188.682 667.579,-191.334 666.994,-184.358"/>
</g>
</g>
</svg>
        <g id="navigator" transform="translate(0 0)" fill="#404254">
                <rect fill="#f2f5e9" fill-opacity="0.5" stroke="#606060" stroke-width=".5" x="0" y="0" width="60" height="60"/>
                <use id="zoomplus" xlink:href="#zoomPlus" x="17" y="9" onmousedown="handleZoom(evt,'in')"/>
                <use id="zoomminus" xlink:href="#zoomMin" x="42" y="9" onmousedown="handleZoom(evt,'out')"/>
                <use id="reset" xlink:href="#resetDef" x="30" y="36" onmousedown="handleReset()"/>
                <g id="arrowUp" xlink:href="#dirArrow" transform="translate(30 24)" onmousedown="handlePan(0,-1)">
                  <use xlink:href="#rim" fill="#404040">
                        <set attributeName="fill" to="#808080" begin="arrowUp.mouseover" end="arrowUp.mouseout"/>
                  </use>
                  <path fill="none" stroke="white" stroke-width="1.5" d="M0,-3.0v7 M-2.5,-0.5L0,-3.0L2.5,-0.5"/>
                </g>
                <g id="arrowRight" xlink:href="#dirArrow" transform="rotate(90) translate(36 -43)" onmousedown="handlePan(1,0)">
                  <use xlink:href="#rim" fill="#404040">
                        <set attributeName="fill" to="#808080" begin="arrowRight.mouseover" end="arrowRight.mouseout"/>
                  </use>
                  <path fill="none" stroke="white" stroke-width="1.5" d="M0,-3.0v7 M-2.5,-0.5L0,-3.0L2.5,-0.5"/>
                </g>
                <g id="arrowDown" xlink:href="#dirArrow" transform="rotate(180) translate(-30 -48)" onmousedown="handlePan(0,1)">
                  <use xlink:href="#rim" fill="#404040">
                        <set attributeName="fill" to="#808080" begin="arrowDown.mouseover" end="arrowDown.mouseout"/>
                  </use>
                  <path fill="none" stroke="white" stroke-width="1.5" d="M0,-3.0v7 M-2.5,-0.5L0,-3.0L2.5,-0.5"/>
                </g>
                <g id="arrowLeft" xlink:href="#dirArrow" transform="rotate(270) translate(-36 17)" onmousedown="handlePan(-1,0)">
                  <use xlink:href="#rim" fill="#404040">
                        <set attributeName="fill" to="#808080" begin="arrowLeft.mouseover" end="arrowLeft.mouseout"/>
                  </use>
                  <path fill="none" stroke="white" stroke-width="1.5" d="M0,-3.0v7 M-2.5,-0.5L0,-3.0L2.5,-0.5"/>
                </g>
        </g>
        <svg viewBox="0 0 15 15" width="100%" height="30px" preserveAspectRatio="xMaxYMin meet">
         <g id="arrow_out" transform="scale(0.3 0.3)">
          <a xlink:href="vtkvmtkDoubleVector_8h__dep__incl_org.svg" target="_base">
           <rect id="button" ry="5" rx="5" y="6" x="6" height="38" width="38"
                fill="#f2f5e9" fill-opacity="0.5" stroke="#606060" stroke-width="1.0"/>
           <path id="arrow"
             d="M 11.500037,31.436501 C 11.940474,20.09759 22.043105,11.32322 32.158766,21.979434 L 37.068811,17.246167 C 37.068811,17.246167 37.088388,32 37.088388,32 L 22.160133,31.978069 C 22.160133,31.978069 26.997745,27.140456 26.997745,27.140456 C 18.528582,18.264221 13.291696,25.230495 11.500037,31.436501 z"
             style="fill:#404040;"/>
          </a>
         </g>
        </svg>
</svg>
