<?xml version="1.0" encoding="UTF-8" standalone="no"?>
<!DOCTYPE svg PUBLIC "-//W3C//DTD SVG 1.1//EN"
 "http://www.w3.org/Graphics/SVG/1.1/DTD/svg11.dtd">
<!-- Generated by graphviz version 2.38.0 (20140413.2041)
 -->
<!-- Title: vtkvmtkEmptyStencil.h Pages: 1 -->
<svg width="540pt" height="302pt"
 viewBox="0.00 0.00 539.63 302.00" xmlns="http://www.w3.org/2000/svg" xmlns:xlink="http://www.w3.org/1999/xlink">
<g id="graph0" class="graph" transform="scale(1 1) rotate(0) translate(4 298)">
<title>vtkvmtkEmptyStencil.h</title>
<polygon fill="white" stroke="none" points="-4,4 -4,-298 535.625,-298 535.625,4 -4,4"/>
<!-- Node0 -->
<g id="node1" class="node"><title>Node0</title>
<polygon fill="#bfbfbf" stroke="black" points="284.709,-275.5 284.709,-293.5 401.291,-293.5 401.291,-275.5 284.709,-275.5"/>
<text text-anchor="middle" x="343" y="-281.5" font-family="Helvetica,sans-Serif" font-size="10.00">vtkvmtkEmptyStencil.h</text>
</g>
<!-- Node1 -->
<g id="node2" class="node"><title>Node1</title>
<polygon fill="white" stroke="#bfbfbf" points="42.9902,-0.5 42.9902,-18.5 109.01,-18.5 109.01,-0.5 42.9902,-0.5"/>
<text text-anchor="middle" x="76" y="-6.5" font-family="Helvetica,sans-Serif" font-size="10.00">vtkObject.h</text>
</g>
<!-- Node0&#45;&gt;Node1 -->
<g id="edge1" class="edge"><title>Node0&#45;&gt;Node1</title>
<path fill="none" stroke="midnightblue" d="M284.426,-277.255C186.461,-265.166 0,-234.419 0,-175.5 0,-175.5 0,-175.5 0,-118.5 0,-79.0599 34.317,-43.8584 56.8312,-25.0079"/>
<polygon fill="midnightblue" stroke="midnightblue" points="59.1877,-27.6042 64.7859,-18.6091 54.8002,-22.1498 59.1877,-27.6042"/>
</g>
<!-- Node2 -->
<g id="node3" class="node"><title>Node2</title>
<g id="a_node3"><a xlink:href="vtkvmtkConstants_8h.html" target="_top" xlink:title="vtkvmtkConstants.h">
<polygon fill="white" stroke="black" points="428.375,-220.5 428.375,-238.5 531.625,-238.5 531.625,-220.5 428.375,-220.5"/>
<text text-anchor="middle" x="480" y="-226.5" font-family="Helvetica,sans-Serif" font-size="10.00">vtkvmtkConstants.h</text>
</a>
</g>
</g>
<!-- Node0&#45;&gt;Node2 -->
<g id="edge2" class="edge"><title>Node0&#45;&gt;Node2</title>
<path fill="none" stroke="midnightblue" d="M363.807,-275.45C386.64,-266.617 423.508,-252.355 449.583,-242.267"/>
<polygon fill="midnightblue" stroke="midnightblue" points="450.933,-245.498 458.997,-238.625 448.408,-238.969 450.933,-245.498"/>
</g>
<!-- Node3 -->
<g id="node4" class="node"><title>Node3</title>
<g id="a_node4"><a xlink:href="vtkvmtkStencil_8h.html" target="_top" xlink:title="vtkvmtkStencil.h">
<polygon fill="white" stroke="black" points="242.879,-220.5 242.879,-238.5 331.121,-238.5 331.121,-220.5 242.879,-220.5"/>
<text text-anchor="middle" x="287" y="-226.5" font-family="Helvetica,sans-Serif" font-size="10.00">vtkvmtkStencil.h</text>
</a>
</g>
</g>
<!-- Node0&#45;&gt;Node3 -->
<g id="edge3" class="edge"><title>Node0&#45;&gt;Node3</title>
<path fill="none" stroke="midnightblue" d="M334.25,-275.219C325.9,-267.316 313.124,-255.224 302.961,-245.606"/>
<polygon fill="midnightblue" stroke="midnightblue" points="305.174,-242.881 295.505,-238.55 300.362,-247.965 305.174,-242.881"/>
</g>
<!-- Node8 -->
<g id="node9" class="node"><title>Node8</title>
<polygon fill="white" stroke="#bfbfbf" points="264.589,-0.5 264.589,-18.5 383.411,-18.5 383.411,-0.5 264.589,-0.5"/>
<text text-anchor="middle" x="324" y="-6.5" font-family="Helvetica,sans-Serif" font-size="10.00">vtkvmtkWin32Header.h</text>
</g>
<!-- Node0&#45;&gt;Node8 -->
<g id="edge17" class="edge"><title>Node0&#45;&gt;Node8</title>
<path fill="none" stroke="midnightblue" d="M350.926,-275.331C366.588,-258.286 400,-217.054 400,-175.5 400,-175.5 400,-175.5 400,-118.5 400,-79.0599 365.683,-43.8584 343.169,-25.0079"/>
<polygon fill="midnightblue" stroke="midnightblue" points="345.2,-22.1498 335.214,-18.6091 340.812,-27.6042 345.2,-22.1498"/>
</g>
<!-- Node3&#45;&gt;Node1 -->
<g id="edge4" class="edge"><title>Node3&#45;&gt;Node1</title>
<path fill="none" stroke="midnightblue" d="M255.145,-220.488C231.679,-213.51 199.837,-201.699 176,-184 127.041,-147.649 119.995,-129.159 94,-74 87.1237,-59.4093 82.3671,-41.6651 79.4782,-28.6469"/>
<polygon fill="midnightblue" stroke="midnightblue" points="82.8588,-27.71 77.414,-18.6213 76.0027,-29.1217 82.8588,-27.71"/>
</g>
<!-- Node4 -->
<g id="node5" class="node"><title>Node4</title>
<g id="a_node5"><a xlink:href="vtkvmtkNeighborhood_8h.html" target="_top" xlink:title="vtkvmtkNeighborhood.h">
<polygon fill="white" stroke="black" points="185.473,-165.5 185.473,-183.5 306.527,-183.5 306.527,-165.5 185.473,-165.5"/>
<text text-anchor="middle" x="246" y="-171.5" font-family="Helvetica,sans-Serif" font-size="10.00">vtkvmtkNeighborhood.h</text>
</a>
</g>
</g>
<!-- Node3&#45;&gt;Node4 -->
<g id="edge5" class="edge"><title>Node3&#45;&gt;Node4</title>
<path fill="none" stroke="midnightblue" d="M280.594,-220.219C274.662,-212.551 265.679,-200.939 258.353,-191.469"/>
<polygon fill="midnightblue" stroke="midnightblue" points="261.114,-189.318 252.227,-183.55 255.577,-193.601 261.114,-189.318"/>
</g>
<!-- Node3&#45;&gt;Node8 -->
<g id="edge16" class="edge"><title>Node3&#45;&gt;Node8</title>
<path fill="none" stroke="midnightblue" d="M294.135,-220.3C301.043,-211.837 311.162,-197.938 316,-184 334.67,-130.215 330.152,-61.3877 326.494,-28.9651"/>
<polygon fill="midnightblue" stroke="midnightblue" points="329.933,-28.256 325.23,-18.7623 322.986,-29.1168 329.933,-28.256"/>
</g>
<!-- Node4&#45;&gt;Node1 -->
<g id="edge6" class="edge"><title>Node4&#45;&gt;Node1</title>
<path fill="none" stroke="midnightblue" d="M220.122,-165.461C200.126,-158.289 172.639,-146.24 153,-129 119.926,-99.9668 95.3973,-53.4413 83.6765,-28.1907"/>
<polygon fill="midnightblue" stroke="midnightblue" points="86.7411,-26.4715 79.4499,-18.7846 80.3561,-29.3406 86.7411,-26.4715"/>
</g>
<!-- Node5 -->
<g id="node6" class="node"><title>Node5</title>
<g id="a_node6"><a xlink:href="vtkvmtkDataSetItem_8h.html" target="_top" xlink:title="vtkvmtkDataSetItem.h">
<polygon fill="white" stroke="black" points="162.096,-110.5 162.096,-128.5 275.904,-128.5 275.904,-110.5 162.096,-110.5"/>
<text text-anchor="middle" x="219" y="-116.5" font-family="Helvetica,sans-Serif" font-size="10.00">vtkvmtkDataSetItem.h</text>
</a>
</g>
</g>
<!-- Node4&#45;&gt;Node5 -->
<g id="edge7" class="edge"><title>Node4&#45;&gt;Node5</title>
<path fill="none" stroke="midnightblue" d="M241.781,-165.219C238.034,-157.864 232.439,-146.88 227.731,-137.639"/>
<polygon fill="midnightblue" stroke="midnightblue" points="230.759,-135.871 223.101,-128.55 224.521,-139.049 230.759,-135.871"/>
</g>
<!-- Node4&#45;&gt;Node8 -->
<g id="edge15" class="edge"><title>Node4&#45;&gt;Node8</title>
<path fill="none" stroke="midnightblue" d="M254.902,-165.442C263.653,-157.088 276.85,-143.274 285,-129 303.819,-96.0385 315.149,-52.674 320.424,-28.5956"/>
<polygon fill="midnightblue" stroke="midnightblue" points="323.867,-29.2284 322.48,-18.7247 317.014,-27.8007 323.867,-29.2284"/>
</g>
<!-- Node5&#45;&gt;Node1 -->
<g id="edge8" class="edge"><title>Node5&#45;&gt;Node1</title>
<path fill="none" stroke="midnightblue" d="M208.252,-110.382C184.132,-92.1658 125.431,-47.8322 94.9983,-24.8483"/>
<polygon fill="midnightblue" stroke="midnightblue" points="96.9622,-21.9456 86.873,-18.7118 92.7435,-27.5315 96.9622,-21.9456"/>
</g>
<!-- Node6 -->
<g id="node7" class="node"><title>Node6</title>
<g id="a_node7"><a xlink:href="vtkvmtkItem_8h.html" target="_top" xlink:title="vtkvmtkItem.h">
<polygon fill="white" stroke="black" points="180.163,-55.5 180.163,-73.5 257.837,-73.5 257.837,-55.5 180.163,-55.5"/>
<text text-anchor="middle" x="219" y="-61.5" font-family="Helvetica,sans-Serif" font-size="10.00">vtkvmtkItem.h</text>
</a>
</g>
</g>
<!-- Node5&#45;&gt;Node6 -->
<g id="edge9" class="edge"><title>Node5&#45;&gt;Node6</title>
<path fill="none" stroke="midnightblue" d="M219,-110.219C219,-103.177 219,-92.8083 219,-83.8277"/>
<polygon fill="midnightblue" stroke="midnightblue" points="222.5,-83.5495 219,-73.5496 215.5,-83.5496 222.5,-83.5495"/>
</g>
<!-- Node7 -->
<g id="node8" class="node"><title>Node7</title>
<polygon fill="white" stroke="#bfbfbf" points="150.375,-0.5 150.375,-18.5 223.625,-18.5 223.625,-0.5 150.375,-0.5"/>
<text text-anchor="middle" x="187" y="-6.5" font-family="Helvetica,sans-Serif" font-size="10.00">vtkDataSet.h</text>
</g>
<!-- Node5&#45;&gt;Node7 -->
<g id="edge13" class="edge"><title>Node5&#45;&gt;Node7</title>
<path fill="none" stroke="midnightblue" d="M205.092,-110.272C193.537,-102.55 177.911,-89.83 171,-74 164.403,-58.8887 170.416,-40.5188 176.869,-27.4324"/>
<polygon fill="midnightblue" stroke="midnightblue" points="179.972,-29.0518 181.687,-18.5966 173.827,-25.7004 179.972,-29.0518"/>
</g>
<!-- Node5&#45;&gt;Node8 -->
<g id="edge14" class="edge"><title>Node5&#45;&gt;Node8</title>
<path fill="none" stroke="midnightblue" d="M228.44,-110.214C238.296,-101.456 254.088,-87.1213 267,-74 282.513,-58.2356 299.318,-39.2614 310.632,-26.1829"/>
<polygon fill="midnightblue" stroke="midnightblue" points="313.343,-28.3986 317.206,-18.5329 308.034,-23.8366 313.343,-28.3986"/>
</g>
<!-- Node6&#45;&gt;Node1 -->
<g id="edge10" class="edge"><title>Node6&#45;&gt;Node1</title>
<path fill="none" stroke="midnightblue" d="M197.281,-55.4504C173.344,-46.5784 134.627,-32.2288 107.39,-22.134"/>
<polygon fill="midnightblue" stroke="midnightblue" points="108.516,-18.8188 97.923,-18.6253 106.083,-25.3825 108.516,-18.8188"/>
</g>
<!-- Node6&#45;&gt;Node7 -->
<g id="edge11" class="edge"><title>Node6&#45;&gt;Node7</title>
<path fill="none" stroke="midnightblue" d="M214,-55.2188C209.512,-47.7856 202.786,-36.646 197.17,-27.3446"/>
<polygon fill="midnightblue" stroke="midnightblue" points="200.025,-25.3012 191.86,-18.5496 194.033,-28.9193 200.025,-25.3012"/>
</g>
<!-- Node6&#45;&gt;Node8 -->
<g id="edge12" class="edge"><title>Node6&#45;&gt;Node8</title>
<path fill="none" stroke="midnightblue" d="M234.947,-55.4504C251.907,-46.8897 278.971,-33.2291 298.816,-23.2119"/>
<polygon fill="midnightblue" stroke="midnightblue" points="300.553,-26.256 307.903,-18.6253 297.398,-20.007 300.553,-26.256"/>
</g>
</g>
</svg>
