<?xml version="1.0" encoding="UTF-8" standalone="no"?>
<!DOCTYPE svg PUBLIC "-//W3C//DTD SVG 1.1//EN"
 "http://www.w3.org/Graphics/SVG/1.1/DTD/svg11.dtd">
<!-- Generated by graphviz version 2.38.0 (20140413.2041)
 -->
<!-- Title: vtkvmtkIterativeClosestPointTransform.h Pages: 1 -->
<svg width="266pt" height="102pt"
 viewBox="0.00 0.00 265.65 102.00" xmlns="http://www.w3.org/2000/svg" xmlns:xlink="http://www.w3.org/1999/xlink">
<g id="graph0" class="graph" transform="scale(1 1) rotate(0) translate(4 98)">
<title>vtkvmtkIterativeClosestPointTransform.h</title>
<polygon fill="white" stroke="none" points="-4,4 -4,-98 261.655,-98 261.655,4 -4,4"/>
<!-- Node0 -->
<g id="node1" class="node"><title>Node0</title>
<polygon fill="#bfbfbf" stroke="black" points="58.4458,-65.5 58.4458,-93.5 200.042,-93.5 200.042,-65.5 58.4458,-65.5"/>
<text text-anchor="start" x="66.4458" y="-81.5" font-family="Helvetica,sans-Serif" font-size="10.00">vtkvmtkIterativeClosestPoint</text>
<text text-anchor="middle" x="129.244" y="-71.5" font-family="Helvetica,sans-Serif" font-size="10.00">Transform.h</text>
</g>
<!-- Node1 -->
<g id="node2" class="node"><title>Node1</title>
<polygon fill="white" stroke="#bfbfbf" points="0,-0.5 0,-28.5 120.487,-28.5 120.487,-0.5 0,-0.5"/>
<text text-anchor="start" x="8" y="-16.5" font-family="Helvetica,sans-Serif" font-size="10.00">vtkIterativeClosestPoint</text>
<text text-anchor="middle" x="60.2437" y="-6.5" font-family="Helvetica,sans-Serif" font-size="10.00">Transform.h</text>
</g>
<!-- Node0&#45;&gt;Node1 -->
<g id="edge1" class="edge"><title>Node0&#45;&gt;Node1</title>
<path fill="none" stroke="midnightblue" d="M114.947,-65.4464C105.418,-56.7458 92.7134,-45.1463 81.9466,-35.3157"/>
<polygon fill="midnightblue" stroke="midnightblue" points="84.267,-32.6949 74.5222,-28.5369 79.5471,-37.8644 84.267,-32.6949"/>
</g>
<!-- Node2 -->
<g id="node3" class="node"><title>Node2</title>
<polygon fill="white" stroke="#bfbfbf" points="138.833,-5.5 138.833,-23.5 257.655,-23.5 257.655,-5.5 138.833,-5.5"/>
<text text-anchor="middle" x="198.244" y="-11.5" font-family="Helvetica,sans-Serif" font-size="10.00">vtkvmtkWin32Header.h</text>
</g>
<!-- Node0&#45;&gt;Node2 -->
<g id="edge2" class="edge"><title>Node0&#45;&gt;Node2</title>
<path fill="none" stroke="midnightblue" d="M143.54,-65.4464C154.594,-55.3537 169.921,-41.3602 181.539,-30.752"/>
<polygon fill="midnightblue" stroke="midnightblue" points="184.205,-33.0575 189.23,-23.7301 179.485,-27.8881 184.205,-33.0575"/>
</g>
</g>
</svg>
