<?xml version="1.0" encoding="UTF-8" standalone="no"?>
<!DOCTYPE svg PUBLIC "-//W3C//DTD SVG 1.1//EN"
 "http://www.w3.org/Graphics/SVG/1.1/DTD/svg11.dtd">
<!-- Generated by graphviz version 2.38.0 (20140413.2041)
 -->
<!-- Title: vtkvmtkSteepestDescentShooter.h Pages: 1 -->
<svg width="786pt" height="147pt"
 viewBox="0.00 0.00 786.48 147.00" xmlns="http://www.w3.org/2000/svg" xmlns:xlink="http://www.w3.org/1999/xlink">
<g id="graph0" class="graph" transform="scale(1 1) rotate(0) translate(4 143)">
<title>vtkvmtkSteepestDescentShooter.h</title>
<polygon fill="white" stroke="none" points="-4,4 -4,-143 782.475,-143 782.475,4 -4,4"/>
<!-- Node0 -->
<g id="node1" class="node"><title>Node0</title>
<polygon fill="#bfbfbf" stroke="black" points="373.535,-120.5 373.535,-138.5 542.396,-138.5 542.396,-120.5 373.535,-120.5"/>
<text text-anchor="middle" x="457.965" y="-126.5" font-family="Helvetica,sans-Serif" font-size="10.00">vtkvmtkSteepestDescentShooter.h</text>
</g>
<!-- Node1 -->
<g id="node2" class="node"><title>Node1</title>
<g id="a_node2"><a xlink:href="vtkvmtkNonManifoldSteepestDescent_8h.html" target="_top" xlink:title="vtkvmtkNonManifoldSteepest\lDescent.h">
<polygon fill="white" stroke="black" points="110.214,-55.5 110.214,-83.5 255.716,-83.5 255.716,-55.5 110.214,-55.5"/>
<text text-anchor="start" x="118.214" y="-71.5" font-family="Helvetica,sans-Serif" font-size="10.00">vtkvmtkNonManifoldSteepest</text>
<text text-anchor="middle" x="182.965" y="-61.5" font-family="Helvetica,sans-Serif" font-size="10.00">Descent.h</text>
</a>
</g>
</g>
<!-- Node0&#45;&gt;Node1 -->
<g id="edge1" class="edge"><title>Node0&#45;&gt;Node1</title>
<path fill="none" stroke="midnightblue" d="M420.016,-120.496C377.521,-111.534 307.682,-96.8039 254.789,-85.6483"/>
<polygon fill="midnightblue" stroke="midnightblue" points="255.293,-82.1776 244.786,-83.5385 253.848,-89.0269 255.293,-82.1776"/>
</g>
<!-- Node4 -->
<g id="node5" class="node"><title>Node4</title>
<polygon fill="white" stroke="#bfbfbf" points="237.554,-0.5 237.554,-18.5 356.376,-18.5 356.376,-0.5 237.554,-0.5"/>
<text text-anchor="middle" x="296.965" y="-6.5" font-family="Helvetica,sans-Serif" font-size="10.00">vtkvmtkWin32Header.h</text>
</g>
<!-- Node0&#45;&gt;Node4 -->
<g id="edge10" class="edge"><title>Node0&#45;&gt;Node4</title>
<path fill="none" stroke="midnightblue" d="M377.921,-120.481C353.296,-114.162 328.173,-103.131 310.965,-84 297.544,-69.0788 295.223,-45.397 295.493,-28.9636"/>
<polygon fill="midnightblue" stroke="midnightblue" points="299.012,-28.6727 296.026,-18.5076 292.021,-28.3166 299.012,-28.6727"/>
</g>
<!-- Node5 -->
<g id="node6" class="node"><title>Node5</title>
<polygon fill="white" stroke="#bfbfbf" points="320.118,-60.5 320.118,-78.5 397.812,-78.5 397.812,-60.5 320.118,-60.5"/>
<text text-anchor="middle" x="358.965" y="-66.5" font-family="Helvetica,sans-Serif" font-size="10.00">vtkPolyData.h</text>
</g>
<!-- Node0&#45;&gt;Node5 -->
<g id="edge5" class="edge"><title>Node0&#45;&gt;Node5</title>
<path fill="none" stroke="midnightblue" d="M444.2,-120.435C428.037,-110.966 400.989,-95.1201 381.698,-83.8184"/>
<polygon fill="midnightblue" stroke="midnightblue" points="383.331,-80.7182 372.933,-78.6831 379.792,-86.758 383.331,-80.7182"/>
</g>
<!-- Node6 -->
<g id="node7" class="node"><title>Node6</title>
<polygon fill="white" stroke="#bfbfbf" points="415.776,-60.5 415.776,-78.5 500.155,-78.5 500.155,-60.5 415.776,-60.5"/>
<text text-anchor="middle" x="457.965" y="-66.5" font-family="Helvetica,sans-Serif" font-size="10.00">vtkEdgeTable.h</text>
</g>
<!-- Node0&#45;&gt;Node6 -->
<g id="edge6" class="edge"><title>Node0&#45;&gt;Node6</title>
<path fill="none" stroke="midnightblue" d="M457.965,-120.435C457.965,-112.389 457.965,-99.7388 457.965,-89.1846"/>
<polygon fill="midnightblue" stroke="midnightblue" points="461.465,-88.8717 457.965,-78.8718 454.465,-88.8718 461.465,-88.8717"/>
</g>
<!-- Node7 -->
<g id="node8" class="node"><title>Node7</title>
<polygon fill="white" stroke="#bfbfbf" points="518.27,-60.5 518.27,-78.5 589.661,-78.5 589.661,-60.5 518.27,-60.5"/>
<text text-anchor="middle" x="553.965" y="-66.5" font-family="Helvetica,sans-Serif" font-size="10.00">vtkIntArray.h</text>
</g>
<!-- Node0&#45;&gt;Node7 -->
<g id="edge7" class="edge"><title>Node0&#45;&gt;Node7</title>
<path fill="none" stroke="midnightblue" d="M471.314,-120.435C486.916,-111.009 512.977,-95.2641 531.666,-83.9728"/>
<polygon fill="midnightblue" stroke="midnightblue" points="533.672,-86.85 540.421,-78.6831 530.052,-80.8586 533.672,-86.85"/>
</g>
<!-- Node8 -->
<g id="node9" class="node"><title>Node8</title>
<polygon fill="white" stroke="#bfbfbf" points="607.984,-60.5 607.984,-78.5 699.946,-78.5 699.946,-60.5 607.984,-60.5"/>
<text text-anchor="middle" x="653.965" y="-66.5" font-family="Helvetica,sans-Serif" font-size="10.00">vtkDoubleArray.h</text>
</g>
<!-- Node0&#45;&gt;Node8 -->
<g id="edge8" class="edge"><title>Node0&#45;&gt;Node8</title>
<path fill="none" stroke="midnightblue" d="M485.218,-120.435C519.496,-110.292 578.501,-92.8314 616.869,-81.4774"/>
<polygon fill="midnightblue" stroke="midnightblue" points="618.033,-84.7832 626.629,-78.5894 616.046,-78.0709 618.033,-84.7832"/>
</g>
<!-- Node9 -->
<g id="node10" class="node"><title>Node9</title>
<polygon fill="white" stroke="#bfbfbf" points="717.456,-60.5 717.456,-78.5 778.475,-78.5 778.475,-60.5 717.456,-60.5"/>
<text text-anchor="middle" x="747.965" y="-66.5" font-family="Helvetica,sans-Serif" font-size="10.00">vtkIdList.h</text>
</g>
<!-- Node0&#45;&gt;Node9 -->
<g id="edge9" class="edge"><title>Node0&#45;&gt;Node9</title>
<path fill="none" stroke="midnightblue" d="M518.639,-120.484C569.836,-113.069 644.824,-100.676 708.965,-84 711.605,-83.3138 714.321,-82.5332 717.034,-81.7014"/>
<polygon fill="midnightblue" stroke="midnightblue" points="718.278,-84.9771 726.695,-78.5425 716.103,-78.3238 718.278,-84.9771"/>
</g>
<!-- Node2 -->
<g id="node3" class="node"><title>Node2</title>
<polygon fill="white" stroke="#bfbfbf" points="0,-0.5 0,-18.5 119.931,-18.5 119.931,-0.5 0,-0.5"/>
<text text-anchor="middle" x="59.9653" y="-6.5" font-family="Helvetica,sans-Serif" font-size="10.00">vtkPolyDataAlgorithm.h</text>
</g>
<!-- Node1&#45;&gt;Node2 -->
<g id="edge2" class="edge"><title>Node1&#45;&gt;Node2</title>
<path fill="none" stroke="midnightblue" d="M155.362,-55.4837C134.788,-45.7823 106.854,-32.6103 86.5336,-23.0281"/>
<polygon fill="midnightblue" stroke="midnightblue" points="87.7726,-19.7428 77.235,-18.6434 84.787,-26.0742 87.7726,-19.7428"/>
</g>
<!-- Node3 -->
<g id="node4" class="node"><title>Node3</title>
<polygon fill="white" stroke="#bfbfbf" points="138.268,-0.5 138.268,-18.5 219.663,-18.5 219.663,-0.5 138.268,-0.5"/>
<text text-anchor="middle" x="178.965" y="-6.5" font-family="Helvetica,sans-Serif" font-size="10.00">vtkDataArray.h</text>
</g>
<!-- Node1&#45;&gt;Node3 -->
<g id="edge3" class="edge"><title>Node1&#45;&gt;Node3</title>
<path fill="none" stroke="midnightblue" d="M182.058,-55.3389C181.519,-47.5305 180.828,-37.5122 180.236,-28.9265"/>
<polygon fill="midnightblue" stroke="midnightblue" points="183.716,-28.5069 179.536,-18.7715 176.732,-28.9886 183.716,-28.5069"/>
</g>
<!-- Node1&#45;&gt;Node4 -->
<g id="edge4" class="edge"><title>Node1&#45;&gt;Node4</title>
<path fill="none" stroke="midnightblue" d="M208.549,-55.4837C227.444,-45.8705 253.037,-32.8495 271.826,-23.2903"/>
<polygon fill="midnightblue" stroke="midnightblue" points="273.634,-26.2975 280.959,-18.6434 270.459,-20.0586 273.634,-26.2975"/>
</g>
</g>
</svg>
