<?xml version="1.0" encoding="UTF-8" standalone="no"?>
<!DOCTYPE svg PUBLIC "-//W3C//DTD SVG 1.1//EN"
 "http://www.w3.org/Graphics/SVG/1.1/DTD/svg11.dtd">
<!-- Generated by graphviz version 2.38.0 (20140413.2041)
 -->
<!-- Title: vtkvmtkPolyBall.h Pages: 1 -->
<svg width="347pt" height="82pt"
 viewBox="0.00 0.00 346.70 82.00" xmlns="http://www.w3.org/2000/svg" xmlns:xlink="http://www.w3.org/1999/xlink">
<g id="graph0" class="graph" transform="scale(1 1) rotate(0) translate(4 78)">
<title>vtkvmtkPolyBall.h</title>
<polygon fill="white" stroke="none" points="-4,4 -4,-78 342.704,-78 342.704,4 -4,4"/>
<!-- Node0 -->
<g id="node1" class="node"><title>Node0</title>
<polygon fill="#bfbfbf" stroke="black" points="116.116,-55.5 116.116,-73.5 210.47,-73.5 210.47,-55.5 116.116,-55.5"/>
<text text-anchor="middle" x="163.293" y="-61.5" font-family="Helvetica,sans-Serif" font-size="10.00">vtkvmtkPolyBall.h</text>
</g>
<!-- Node1 -->
<g id="node2" class="node"><title>Node1</title>
<polygon fill="white" stroke="#bfbfbf" points="0,-0.5 0,-18.5 106.586,-18.5 106.586,-0.5 0,-0.5"/>
<text text-anchor="middle" x="53.293" y="-6.5" font-family="Helvetica,sans-Serif" font-size="10.00">vtkImplicitFunction.h</text>
</g>
<!-- Node0&#45;&gt;Node1 -->
<g id="edge1" class="edge"><title>Node0&#45;&gt;Node1</title>
<path fill="none" stroke="midnightblue" d="M146.586,-55.4504C128.738,-46.8508 100.209,-33.1048 79.3931,-23.0755"/>
<polygon fill="midnightblue" stroke="midnightblue" points="80.6849,-19.8129 70.1568,-18.6253 77.6464,-26.1191 80.6849,-19.8129"/>
</g>
<!-- Node2 -->
<g id="node3" class="node"><title>Node2</title>
<polygon fill="white" stroke="#bfbfbf" points="124.446,-0.5 124.446,-18.5 202.14,-18.5 202.14,-0.5 124.446,-0.5"/>
<text text-anchor="middle" x="163.293" y="-6.5" font-family="Helvetica,sans-Serif" font-size="10.00">vtkPolyData.h</text>
</g>
<!-- Node0&#45;&gt;Node2 -->
<g id="edge2" class="edge"><title>Node0&#45;&gt;Node2</title>
<path fill="none" stroke="midnightblue" d="M163.293,-55.2188C163.293,-48.1769 163.293,-37.8083 163.293,-28.8277"/>
<polygon fill="midnightblue" stroke="midnightblue" points="166.793,-28.5495 163.293,-18.5496 159.793,-28.5496 166.793,-28.5495"/>
</g>
<!-- Node3 -->
<g id="node4" class="node"><title>Node3</title>
<polygon fill="white" stroke="#bfbfbf" points="219.882,-0.5 219.882,-18.5 338.704,-18.5 338.704,-0.5 219.882,-0.5"/>
<text text-anchor="middle" x="279.293" y="-6.5" font-family="Helvetica,sans-Serif" font-size="10.00">vtkvmtkWin32Header.h</text>
</g>
<!-- Node0&#45;&gt;Node3 -->
<g id="edge3" class="edge"><title>Node0&#45;&gt;Node3</title>
<path fill="none" stroke="midnightblue" d="M180.911,-55.4504C199.903,-46.7729 230.364,-32.8556 252.363,-22.8041"/>
<polygon fill="midnightblue" stroke="midnightblue" points="253.868,-25.9646 261.509,-18.6253 250.959,-19.5977 253.868,-25.9646"/>
</g>
</g>
</svg>
