<?xml version="1.0" encoding="UTF-8" standalone="no"?>
<!DOCTYPE svg PUBLIC "-//W3C//DTD SVG 1.1//EN"
 "http://www.w3.org/Graphics/SVG/1.1/DTD/svg11.dtd">
<!-- Generated by graphviz version 2.38.0 (20140413.2041)
 -->
<!-- Title: vtkvmtkPolyDataManifoldStencil.h Pages: 1 -->
<svg width="714pt" height="157pt"
 viewBox="0.00 0.00 714.24 157.00" xmlns="http://www.w3.org/2000/svg" xmlns:xlink="http://www.w3.org/1999/xlink">
<g id="graph0" class="graph" transform="scale(1 1) rotate(0) translate(4 153)">
<title>vtkvmtkPolyDataManifoldStencil.h</title>
<polygon fill="white" stroke="none" points="-4,4 -4,-153 710.242,-153 710.242,4 -4,4"/>
<!-- Node9 -->
<g id="node1" class="node"><title>Node9</title>
<polygon fill="#bfbfbf" stroke="black" points="260.521,-130.5 260.521,-148.5 427.136,-148.5 427.136,-130.5 260.521,-130.5"/>
<text text-anchor="middle" x="343.828" y="-136.5" font-family="Helvetica,sans-Serif" font-size="10.00">vtkvmtkPolyDataManifoldStencil.h</text>
</g>
<!-- Node10 -->
<g id="node2" class="node"><title>Node10</title>
<g id="a_node2"><a xlink:href="vtkvmtkPolyDataAreaWeightedUmbrellaStencil_8h.html" target="_top" xlink:title="vtkvmtkPolyDataAreaWeighted\lUmbrellaStencil.h">
<polygon fill="white" stroke="black" points="0,-65.5 0,-93.5 153.656,-93.5 153.656,-65.5 0,-65.5"/>
<text text-anchor="start" x="8" y="-81.5" font-family="Helvetica,sans-Serif" font-size="10.00">vtkvmtkPolyDataAreaWeighted</text>
<text text-anchor="middle" x="76.8281" y="-71.5" font-family="Helvetica,sans-Serif" font-size="10.00">UmbrellaStencil.h</text>
</a>
</g>
</g>
<!-- Node9&#45;&gt;Node10 -->
<g id="edge1" class="edge"><title>Node9&#45;&gt;Node10</title>
<path fill="none" stroke="midnightblue" d="M297.01,-128.33C252.483,-118.657 185.293,-104.062 136.85,-93.5385"/>
<polygon fill="midnightblue" stroke="midnightblue" points="296.468,-131.794 306.983,-130.496 297.954,-124.953 296.468,-131.794"/>
</g>
<!-- Node11 -->
<g id="node3" class="node"><title>Node11</title>
<g id="a_node3"><a xlink:href="vtkvmtkPolyDataLaplaceBeltramiStencil_8h.html" target="_top" xlink:title="vtkvmtkPolyDataLaplaceBeltrami\lStencil.h">
<polygon fill="white" stroke="black" points="171.745,-65.5 171.745,-93.5 333.912,-93.5 333.912,-65.5 171.745,-65.5"/>
<text text-anchor="start" x="179.745" y="-81.5" font-family="Helvetica,sans-Serif" font-size="10.00">vtkvmtkPolyDataLaplaceBeltrami</text>
<text text-anchor="middle" x="252.828" y="-71.5" font-family="Helvetica,sans-Serif" font-size="10.00">Stencil.h</text>
</a>
</g>
</g>
<!-- Node9&#45;&gt;Node11 -->
<g id="edge2" class="edge"><title>Node9&#45;&gt;Node11</title>
<path fill="none" stroke="midnightblue" d="M322.661,-125.009C307.831,-115.557 288.114,-102.99 273.413,-93.6203"/>
<polygon fill="midnightblue" stroke="midnightblue" points="320.861,-128.012 331.175,-130.435 324.623,-122.109 320.861,-128.012"/>
</g>
<!-- Node14 -->
<g id="node6" class="node"><title>Node14</title>
<g id="a_node6"><a xlink:href="vtkvmtkPolyDataGradientStencil_8h.html" target="_top" xlink:title="vtkvmtkPolyDataGradientStencil.h">
<polygon fill="white" stroke="black" points="352.242,-70.5 352.242,-88.5 519.414,-88.5 519.414,-70.5 352.242,-70.5"/>
<text text-anchor="middle" x="435.828" y="-76.5" font-family="Helvetica,sans-Serif" font-size="10.00">vtkvmtkPolyDataGradientStencil.h</text>
</a>
</g>
</g>
<!-- Node9&#45;&gt;Node14 -->
<g id="edge5" class="edge"><title>Node9&#45;&gt;Node14</title>
<path fill="none" stroke="midnightblue" d="M365.22,-125.014C383.054,-113.771 407.881,-98.1187 422.848,-88.6831"/>
<polygon fill="midnightblue" stroke="midnightblue" points="363.213,-122.142 356.62,-130.435 366.946,-128.063 363.213,-122.142"/>
</g>
<!-- Node15 -->
<g id="node7" class="node"><title>Node15</title>
<g id="a_node7"><a xlink:href="vtkvmtkPolyDataUmbrellaStencil_8h.html" target="_top" xlink:title="vtkvmtkPolyDataUmbrellaStencil.h">
<polygon fill="white" stroke="black" points="537.415,-70.5 537.415,-88.5 706.242,-88.5 706.242,-70.5 537.415,-70.5"/>
<text text-anchor="middle" x="621.828" y="-76.5" font-family="Helvetica,sans-Serif" font-size="10.00">vtkvmtkPolyDataUmbrellaStencil.h</text>
</a>
</g>
</g>
<!-- Node9&#45;&gt;Node15 -->
<g id="edge6" class="edge"><title>Node9&#45;&gt;Node15</title>
<path fill="none" stroke="midnightblue" d="M392.267,-128.394C446.584,-117.062 533.571,-98.9133 583.413,-88.5147"/>
<polygon fill="midnightblue" stroke="midnightblue" points="391.265,-125.028 382.191,-130.496 392.695,-131.88 391.265,-125.028"/>
</g>
<!-- Node12 -->
<g id="node4" class="node"><title>Node12</title>
<g id="a_node4"><a xlink:href="vtkvmtkPolyDataFELaplaceBeltramiStencil_8h.html" target="_top" xlink:title="vtkvmtkPolyDataFELaplace\lBeltramiStencil.h">
<polygon fill="white" stroke="black" points="101.693,-0.5 101.693,-28.5 239.963,-28.5 239.963,-0.5 101.693,-0.5"/>
<text text-anchor="start" x="109.693" y="-16.5" font-family="Helvetica,sans-Serif" font-size="10.00">vtkvmtkPolyDataFELaplace</text>
<text text-anchor="middle" x="170.828" y="-6.5" font-family="Helvetica,sans-Serif" font-size="10.00">BeltramiStencil.h</text>
</a>
</g>
</g>
<!-- Node11&#45;&gt;Node12 -->
<g id="edge3" class="edge"><title>Node11&#45;&gt;Node12</title>
<path fill="none" stroke="midnightblue" d="M227.755,-59.2361C214.801,-49.2841 199.336,-37.4026 187.797,-28.5369"/>
<polygon fill="midnightblue" stroke="midnightblue" points="225.775,-62.1293 235.838,-65.4464 230.04,-56.5784 225.775,-62.1293"/>
</g>
<!-- Node13 -->
<g id="node5" class="node"><title>Node13</title>
<g id="a_node5"><a xlink:href="vtkvmtkPolyDataFVFELaplaceBeltramiStencil_8h.html" target="_top" xlink:title="vtkvmtkPolyDataFVFELaplace\lBeltramiStencil.h">
<polygon fill="white" stroke="black" points="258.304,-0.5 258.304,-28.5 409.353,-28.5 409.353,-0.5 258.304,-0.5"/>
<text text-anchor="start" x="266.304" y="-16.5" font-family="Helvetica,sans-Serif" font-size="10.00">vtkvmtkPolyDataFVFELaplace</text>
<text text-anchor="middle" x="333.828" y="-6.5" font-family="Helvetica,sans-Serif" font-size="10.00">BeltramiStencil.h</text>
</a>
</g>
</g>
<!-- Node11&#45;&gt;Node13 -->
<g id="edge4" class="edge"><title>Node11&#45;&gt;Node13</title>
<path fill="none" stroke="midnightblue" d="M277.596,-59.2361C290.391,-49.2841 305.668,-37.4026 317.066,-28.5369"/>
<polygon fill="midnightblue" stroke="midnightblue" points="275.356,-56.5442 269.611,-65.4464 279.654,-62.0697 275.356,-56.5442"/>
</g>
</g>
</svg>
