<?xml version="1.0" encoding="UTF-8" standalone="no"?>
<!DOCTYPE svg PUBLIC "-//W3C//DTD SVG 1.1//EN"
 "http://www.w3.org/Graphics/SVG/1.1/DTD/svg11.dtd">
<!-- Generated by graphviz version 2.38.0 (20140413.2041)
 -->
<!-- Title: vtkvmtkDoubleVector.h Pages: 1 -->
<svg width="310pt" height="82pt"
 viewBox="0.00 0.00 310.42 82.00" xmlns="http://www.w3.org/2000/svg" xmlns:xlink="http://www.w3.org/1999/xlink">
<g id="graph0" class="graph" transform="scale(1 1) rotate(0) translate(4 78)">
<title>vtkvmtkDoubleVector.h</title>
<polygon fill="white" stroke="none" points="-4,4 -4,-78 306.421,-78 306.421,4 -4,4"/>
<!-- Node0 -->
<g id="node1" class="node"><title>Node0</title>
<polygon fill="#bfbfbf" stroke="black" points="66.1479,-55.5 66.1479,-73.5 183.872,-73.5 183.872,-55.5 66.1479,-55.5"/>
<text text-anchor="middle" x="125.01" y="-61.5" font-family="Helvetica,sans-Serif" font-size="10.00">vtkvmtkDoubleVector.h</text>
</g>
<!-- Node1 -->
<g id="node2" class="node"><title>Node1</title>
<polygon fill="white" stroke="#bfbfbf" points="0,-0.5 0,-18.5 66.0195,-18.5 66.0195,-0.5 0,-0.5"/>
<text text-anchor="middle" x="33.0098" y="-6.5" font-family="Helvetica,sans-Serif" font-size="10.00">vtkObject.h</text>
</g>
<!-- Node0&#45;&gt;Node1 -->
<g id="edge1" class="edge"><title>Node0&#45;&gt;Node1</title>
<path fill="none" stroke="midnightblue" d="M111.037,-55.4504C96.4469,-47.0453 73.3234,-33.7241 56.0303,-23.7618"/>
<polygon fill="midnightblue" stroke="midnightblue" points="57.5262,-20.5844 47.1141,-18.6253 54.0319,-26.6499 57.5262,-20.5844"/>
</g>
<!-- Node2 -->
<g id="node3" class="node"><title>Node2</title>
<polygon fill="white" stroke="#bfbfbf" points="84.312,-0.5 84.312,-18.5 165.708,-18.5 165.708,-0.5 84.312,-0.5"/>
<text text-anchor="middle" x="125.01" y="-6.5" font-family="Helvetica,sans-Serif" font-size="10.00">vtkDataArray.h</text>
</g>
<!-- Node0&#45;&gt;Node2 -->
<g id="edge2" class="edge"><title>Node0&#45;&gt;Node2</title>
<path fill="none" stroke="midnightblue" d="M125.01,-55.2188C125.01,-48.1769 125.01,-37.8083 125.01,-28.8277"/>
<polygon fill="midnightblue" stroke="midnightblue" points="128.51,-28.5495 125.01,-18.5496 121.51,-28.5496 128.51,-28.5495"/>
</g>
<!-- Node3 -->
<g id="node4" class="node"><title>Node3</title>
<polygon fill="white" stroke="#bfbfbf" points="183.599,-0.5 183.599,-18.5 302.421,-18.5 302.421,-0.5 183.599,-0.5"/>
<text text-anchor="middle" x="243.01" y="-6.5" font-family="Helvetica,sans-Serif" font-size="10.00">vtkvmtkWin32Header.h</text>
</g>
<!-- Node0&#45;&gt;Node3 -->
<g id="edge3" class="edge"><title>Node0&#45;&gt;Node3</title>
<path fill="none" stroke="midnightblue" d="M142.931,-55.4504C162.251,-46.7729 193.237,-32.8556 215.616,-22.8041"/>
<polygon fill="midnightblue" stroke="midnightblue" points="217.231,-25.9153 224.919,-18.6253 214.363,-19.5298 217.231,-25.9153"/>
</g>
</g>
</svg>
