<?xml version="1.0" encoding="UTF-8" standalone="no"?>
<!DOCTYPE svg PUBLIC "-//W3C//DTD SVG 1.1//EN"
 "http://www.w3.org/Graphics/SVG/1.1/DTD/svg11.dtd">
<!-- Generated by graphviz version 2.38.0 (20140413.2041)
 -->
<!-- Title: vtkvmtkOpenNLLinearSystemSolver.h Pages: 1 -->
<svg width="1382pt" height="532pt"
 viewBox="0.00 0.00 1382.00 532.00" xmlns="http://www.w3.org/2000/svg" xmlns:xlink="http://www.w3.org/1999/xlink">
<g id="graph0" class="graph" transform="scale(1 1) rotate(0) translate(4 528)">
<title>vtkvmtkOpenNLLinearSystemSolver.h</title>
<polygon fill="white" stroke="none" points="-4,4 -4,-528 1378,-528 1378,4 -4,4"/>
<!-- Node0 -->
<g id="node1" class="node"><title>Node0</title>
<polygon fill="#bfbfbf" stroke="black" points="763.865,-495.5 763.865,-523.5 912.135,-523.5 912.135,-495.5 763.865,-495.5"/>
<text text-anchor="start" x="771.865" y="-511.5" font-family="Helvetica,sans-Serif" font-size="10.00">vtkvmtkOpenNLLinearSystem</text>
<text text-anchor="middle" x="838" y="-501.5" font-family="Helvetica,sans-Serif" font-size="10.00">Solver.h</text>
</g>
<!-- Node1 -->
<g id="node2" class="node"><title>Node1</title>
<polygon fill="white" stroke="#bfbfbf" points="213.99,-0.5 213.99,-18.5 280.01,-18.5 280.01,-0.5 213.99,-0.5"/>
<text text-anchor="middle" x="247" y="-6.5" font-family="Helvetica,sans-Serif" font-size="10.00">vtkObject.h</text>
</g>
<!-- Node0&#45;&gt;Node1 -->
<g id="edge1" class="edge"><title>Node0&#45;&gt;Node1</title>
<path fill="none" stroke="midnightblue" d="M763.633,-506.228C558.543,-498.982 0,-472.204 0,-395.5 0,-395.5 0,-395.5 0,-118.5 0,-30.6908 132.669,-13.5807 203.544,-10.7052"/>
<polygon fill="midnightblue" stroke="midnightblue" points="204.064,-14.1902 213.945,-10.3672 203.836,-7.19394 204.064,-14.1902"/>
</g>
<!-- Node2 -->
<g id="node3" class="node"><title>Node2</title>
<g id="a_node3"><a xlink:href="vtkvmtkLinearSystemSolver_8h.html" target="_top" xlink:title="vtkvmtkLinearSystemSolver.h">
<polygon fill="white" stroke="black" points="764.419,-440.5 764.419,-458.5 911.581,-458.5 911.581,-440.5 764.419,-440.5"/>
<text text-anchor="middle" x="838" y="-446.5" font-family="Helvetica,sans-Serif" font-size="10.00">vtkvmtkLinearSystemSolver.h</text>
</a>
</g>
</g>
<!-- Node0&#45;&gt;Node2 -->
<g id="edge2" class="edge"><title>Node0&#45;&gt;Node2</title>
<path fill="none" stroke="midnightblue" d="M838,-495.339C838,-487.531 838,-477.512 838,-468.927"/>
<polygon fill="midnightblue" stroke="midnightblue" points="841.5,-468.771 838,-458.771 834.5,-468.772 841.5,-468.771"/>
</g>
<!-- Node11 -->
<g id="node12" class="node"><title>Node11</title>
<polygon fill="white" stroke="#bfbfbf" points="967.589,-0.5 967.589,-18.5 1086.41,-18.5 1086.41,-0.5 967.589,-0.5"/>
<text text-anchor="middle" x="1027" y="-6.5" font-family="Helvetica,sans-Serif" font-size="10.00">vtkvmtkWin32Header.h</text>
</g>
<!-- Node0&#45;&gt;Node11 -->
<g id="edge58" class="edge"><title>Node0&#45;&gt;Node11</title>
<path fill="none" stroke="midnightblue" d="M912.247,-508.152C1059.41,-505.447 1374,-488.758 1374,-395.5 1374,-395.5 1374,-395.5 1374,-118.5 1374,-70.2696 1330.47,-73.6757 1286,-55 1225.04,-29.3994 1150.11,-18.5229 1096.55,-13.9041"/>
<polygon fill="midnightblue" stroke="midnightblue" points="1096.72,-10.4065 1086.47,-13.0868 1096.16,-17.3836 1096.72,-10.4065"/>
</g>
<!-- Node2&#45;&gt;Node1 -->
<g id="edge3" class="edge"><title>Node2&#45;&gt;Node1</title>
<path fill="none" stroke="midnightblue" d="M764.172,-446.219C566.125,-439.126 38,-413.377 38,-340.5 38,-340.5 38,-340.5 38,-118.5 38,-44.5632 142.509,-21.1886 203.723,-13.8391"/>
<polygon fill="midnightblue" stroke="midnightblue" points="204.328,-17.2937 213.883,-12.7177 203.56,-10.3359 204.328,-17.2937"/>
</g>
<!-- Node3 -->
<g id="node4" class="node"><title>Node3</title>
<g id="a_node4"><a xlink:href="vtkvmtkLinearSystem_8h.html" target="_top" xlink:title="vtkvmtkLinearSystem.h">
<polygon fill="white" stroke="black" points="778.318,-385.5 778.318,-403.5 897.682,-403.5 897.682,-385.5 778.318,-385.5"/>
<text text-anchor="middle" x="838" y="-391.5" font-family="Helvetica,sans-Serif" font-size="10.00">vtkvmtkLinearSystem.h</text>
</a>
</g>
</g>
<!-- Node2&#45;&gt;Node3 -->
<g id="edge4" class="edge"><title>Node2&#45;&gt;Node3</title>
<path fill="none" stroke="midnightblue" d="M838,-440.219C838,-433.177 838,-422.808 838,-413.828"/>
<polygon fill="midnightblue" stroke="midnightblue" points="841.5,-413.55 838,-403.55 834.5,-413.55 841.5,-413.55"/>
</g>
<!-- Node2&#45;&gt;Node11 -->
<g id="edge57" class="edge"><title>Node2&#45;&gt;Node11</title>
<path fill="none" stroke="midnightblue" d="M911.75,-447.658C1050.38,-444.065 1336,-426.259 1336,-340.5 1336,-340.5 1336,-340.5 1336,-118.5 1336,-67.6279 1184.86,-35.0879 1093.99,-20.1206"/>
<polygon fill="midnightblue" stroke="midnightblue" points="1094.47,-16.6522 1084.04,-18.5114 1093.35,-23.5625 1094.47,-16.6522"/>
</g>
<!-- Node3&#45;&gt;Node1 -->
<g id="edge5" class="edge"><title>Node3&#45;&gt;Node1</title>
<path fill="none" stroke="midnightblue" d="M778.207,-391.301C598.573,-383.908 76,-356.315 76,-285.5 76,-285.5 76,-285.5 76,-118.5 76,-58.2208 152.899,-30.2201 203.56,-18.3137"/>
<polygon fill="midnightblue" stroke="midnightblue" points="204.621,-21.6633 213.624,-16.0767 203.102,-14.8301 204.621,-21.6633"/>
</g>
<!-- Node4 -->
<g id="node5" class="node"><title>Node4</title>
<g id="a_node5"><a xlink:href="vtkvmtkSparseMatrix_8h.html" target="_top" xlink:title="vtkvmtkSparseMatrix.h">
<polygon fill="white" stroke="black" points="622.434,-330.5 622.434,-348.5 739.566,-348.5 739.566,-330.5 622.434,-330.5"/>
<text text-anchor="middle" x="681" y="-336.5" font-family="Helvetica,sans-Serif" font-size="10.00">vtkvmtkSparseMatrix.h</text>
</a>
</g>
</g>
<!-- Node3&#45;&gt;Node4 -->
<g id="edge6" class="edge"><title>Node3&#45;&gt;Node4</title>
<path fill="none" stroke="midnightblue" d="M814.155,-385.45C787.566,-376.475 744.369,-361.892 714.418,-351.781"/>
<polygon fill="midnightblue" stroke="midnightblue" points="715.406,-348.421 704.812,-348.538 713.167,-355.053 715.406,-348.421"/>
</g>
<!-- Node3&#45;&gt;Node11 -->
<g id="edge56" class="edge"><title>Node3&#45;&gt;Node11</title>
<path fill="none" stroke="midnightblue" d="M898.137,-391.887C1022.83,-386.906 1298,-366.712 1298,-285.5 1298,-285.5 1298,-285.5 1298,-118.5 1298,-72.2709 1160.19,-37.0544 1081.12,-20.6525"/>
<polygon fill="midnightblue" stroke="midnightblue" points="1081.34,-17.1254 1070.84,-18.5577 1079.94,-23.9844 1081.34,-17.1254"/>
</g>
<!-- Node17 -->
<g id="node18" class="node"><title>Node17</title>
<g id="a_node18"><a xlink:href="vtkvmtkDoubleVector_8h.html" target="_top" xlink:title="vtkvmtkDoubleVector.h">
<polygon fill="white" stroke="black" points="1125.14,-275.5 1125.14,-293.5 1242.86,-293.5 1242.86,-275.5 1125.14,-275.5"/>
<text text-anchor="middle" x="1184" y="-281.5" font-family="Helvetica,sans-Serif" font-size="10.00">vtkvmtkDoubleVector.h</text>
</a>
</g>
</g>
<!-- Node3&#45;&gt;Node17 -->
<g id="edge55" class="edge"><title>Node3&#45;&gt;Node17</title>
<path fill="none" stroke="midnightblue" d="M863.724,-385.471C924.776,-366.414 1078.53,-318.423 1148.42,-296.605"/>
<polygon fill="midnightblue" stroke="midnightblue" points="1149.6,-299.903 1158.11,-293.582 1147.52,-293.221 1149.6,-299.903"/>
</g>
<!-- Node4&#45;&gt;Node1 -->
<g id="edge7" class="edge"><title>Node4&#45;&gt;Node1</title>
<path fill="none" stroke="midnightblue" d="M622.191,-333.439C477.146,-320.171 114,-281.825 114,-230.5 114,-230.5 114,-230.5 114,-118.5 114,-68.3204 171.759,-37.3753 211.151,-22.1056"/>
<polygon fill="midnightblue" stroke="midnightblue" points="212.562,-25.3152 220.723,-18.559 210.13,-18.7512 212.562,-25.3152"/>
</g>
<!-- Node5 -->
<g id="node6" class="node"><title>Node5</title>
<g id="a_node6"><a xlink:href="vtkvmtkSparseMatrixRow_8h.html" target="_top" xlink:title="vtkvmtkSparseMatrixRow.h">
<polygon fill="white" stroke="black" points="385.705,-275.5 385.705,-293.5 522.295,-293.5 522.295,-275.5 385.705,-275.5"/>
<text text-anchor="middle" x="454" y="-281.5" font-family="Helvetica,sans-Serif" font-size="10.00">vtkvmtkSparseMatrixRow.h</text>
</a>
</g>
</g>
<!-- Node4&#45;&gt;Node5 -->
<g id="edge8" class="edge"><title>Node4&#45;&gt;Node5</title>
<path fill="none" stroke="midnightblue" d="M646.524,-330.45C606.91,-321.201 541.799,-305.999 498.418,-295.871"/>
<polygon fill="midnightblue" stroke="midnightblue" points="498.962,-292.404 488.428,-293.538 497.371,-299.22 498.962,-292.404"/>
</g>
<!-- Node10 -->
<g id="node11" class="node"><title>Node10</title>
<polygon fill="white" stroke="#bfbfbf" points="600.375,-0.5 600.375,-18.5 673.625,-18.5 673.625,-0.5 600.375,-0.5"/>
<text text-anchor="middle" x="637" y="-6.5" font-family="Helvetica,sans-Serif" font-size="10.00">vtkDataSet.h</text>
</g>
<!-- Node4&#45;&gt;Node10 -->
<g id="edge53" class="edge"><title>Node4&#45;&gt;Node10</title>
<path fill="none" stroke="midnightblue" d="M622.382,-333.777C546.705,-327.019 419.665,-313.248 377,-294 318.904,-267.791 299.417,-246.082 285,-184 254.121,-51.0245 487.216,-19.9195 589.982,-12.6802"/>
<polygon fill="midnightblue" stroke="midnightblue" points="590.344,-16.164 600.093,-12.0156 589.885,-9.1791 590.344,-16.164"/>
</g>
<!-- Node4&#45;&gt;Node11 -->
<g id="edge54" class="edge"><title>Node4&#45;&gt;Node11</title>
<path fill="none" stroke="midnightblue" d="M733.757,-330.449C850.812,-311.1 1122,-257.431 1122,-175.5 1122,-175.5 1122,-175.5 1122,-118.5 1122,-75.6483 1079.31,-41.7178 1051.17,-24.0029"/>
<polygon fill="midnightblue" stroke="midnightblue" points="1052.63,-20.799 1042.26,-18.6274 1049.02,-26.7918 1052.63,-20.799"/>
</g>
<!-- Node13 -->
<g id="node14" class="node"><title>Node13</title>
<g id="a_node14"><a xlink:href="vtkvmtkNeighborhoods_8h.html" target="_top" xlink:title="vtkvmtkNeighborhoods.h">
<polygon fill="white" stroke="black" points="568.973,-220.5 568.973,-238.5 695.027,-238.5 695.027,-220.5 568.973,-220.5"/>
<text text-anchor="middle" x="632" y="-226.5" font-family="Helvetica,sans-Serif" font-size="10.00">vtkvmtkNeighborhoods.h</text>
</a>
</g>
</g>
<!-- Node4&#45;&gt;Node13 -->
<g id="edge27" class="edge"><title>Node4&#45;&gt;Node13</title>
<path fill="none" stroke="midnightblue" d="M677.317,-330.382C669.407,-312.948 650.642,-271.59 639.904,-247.922"/>
<polygon fill="midnightblue" stroke="midnightblue" points="643.045,-246.372 635.726,-238.712 636.67,-249.264 643.045,-246.372"/>
</g>
<!-- Node16 -->
<g id="node17" class="node"><title>Node16</title>
<g id="a_node17"><a xlink:href="vtkvmtkStencils_8h.html" target="_top" xlink:title="vtkvmtkStencils.h">
<polygon fill="white" stroke="black" points="676.379,-275.5 676.379,-293.5 769.621,-293.5 769.621,-275.5 676.379,-275.5"/>
<text text-anchor="middle" x="723" y="-281.5" font-family="Helvetica,sans-Serif" font-size="10.00">vtkvmtkStencils.h</text>
</a>
</g>
</g>
<!-- Node4&#45;&gt;Node16 -->
<g id="edge42" class="edge"><title>Node4&#45;&gt;Node16</title>
<path fill="none" stroke="midnightblue" d="M687.562,-330.219C693.639,-322.551 702.841,-310.939 710.345,-301.469"/>
<polygon fill="midnightblue" stroke="midnightblue" points="713.153,-303.561 716.621,-293.55 707.667,-299.213 713.153,-303.561"/>
</g>
<!-- Node4&#45;&gt;Node17 -->
<g id="edge49" class="edge"><title>Node4&#45;&gt;Node17</title>
<path fill="none" stroke="midnightblue" d="M739.797,-332.656C822.631,-324.367 978.395,-308.581 1111,-294 1112.28,-293.859 1113.58,-293.715 1114.89,-293.57"/>
<polygon fill="midnightblue" stroke="midnightblue" points="1115.49,-297.024 1125.04,-292.431 1114.71,-290.068 1115.49,-297.024"/>
</g>
<!-- Node5&#45;&gt;Node1 -->
<g id="edge9" class="edge"><title>Node5&#45;&gt;Node1</title>
<path fill="none" stroke="midnightblue" d="M408.256,-275.484C379.083,-268.899 341.378,-257.558 312,-239 283.816,-221.196 281.861,-210.002 261,-184 227.16,-141.821 215.722,-127.657 209,-74 207.95,-65.621 206.078,-62.9226 209,-55 213.114,-43.8482 221.404,-33.5948 229.195,-25.748"/>
<polygon fill="midnightblue" stroke="midnightblue" points="231.747,-28.1533 236.646,-18.7592 226.958,-23.0479 231.747,-28.1533"/>
</g>
<!-- Node6 -->
<g id="node7" class="node"><title>Node6</title>
<g id="a_node7"><a xlink:href="vtkvmtkStencil_8h.html" target="_top" xlink:title="vtkvmtkStencil.h">
<polygon fill="white" stroke="black" points="327.879,-220.5 327.879,-238.5 416.121,-238.5 416.121,-220.5 327.879,-220.5"/>
<text text-anchor="middle" x="372" y="-226.5" font-family="Helvetica,sans-Serif" font-size="10.00">vtkvmtkStencil.h</text>
</a>
</g>
</g>
<!-- Node5&#45;&gt;Node6 -->
<g id="edge10" class="edge"><title>Node5&#45;&gt;Node6</title>
<path fill="none" stroke="midnightblue" d="M441.546,-275.45C428.783,-267.201 408.692,-254.216 393.38,-244.319"/>
<polygon fill="midnightblue" stroke="midnightblue" points="394.87,-241.114 384.571,-238.625 391.07,-246.993 394.87,-241.114"/>
</g>
<!-- Node7 -->
<g id="node8" class="node"><title>Node7</title>
<g id="a_node8"><a xlink:href="vtkvmtkNeighborhood_8h.html" target="_top" xlink:title="vtkvmtkNeighborhood.h">
<polygon fill="white" stroke="black" points="294.473,-165.5 294.473,-183.5 415.527,-183.5 415.527,-165.5 294.473,-165.5"/>
<text text-anchor="middle" x="355" y="-171.5" font-family="Helvetica,sans-Serif" font-size="10.00">vtkvmtkNeighborhood.h</text>
</a>
</g>
</g>
<!-- Node5&#45;&gt;Node7 -->
<g id="edge24" class="edge"><title>Node5&#45;&gt;Node7</title>
<path fill="none" stroke="midnightblue" d="M385.412,-277.484C360.354,-271.574 334.403,-260.295 319,-239 307.7,-223.378 322.546,-203.896 336.452,-190.661"/>
<polygon fill="midnightblue" stroke="midnightblue" points="339.175,-192.924 344.326,-183.666 334.526,-187.69 339.175,-192.924"/>
</g>
<!-- Node5&#45;&gt;Node11 -->
<g id="edge26" class="edge"><title>Node5&#45;&gt;Node11</title>
<path fill="none" stroke="midnightblue" d="M522.542,-283.688C616.326,-280.747 786.288,-263.687 903,-184 962.853,-143.134 1003.67,-63.321 1019.57,-28.0164"/>
<polygon fill="midnightblue" stroke="midnightblue" points="1022.9,-29.1456 1023.7,-18.5811 1016.49,-26.34 1022.9,-29.1456"/>
</g>
<!-- Node12 -->
<g id="node13" class="node"><title>Node12</title>
<g id="a_node13"><a xlink:href="vtkvmtkConstants_8h.html" target="_top" xlink:title="vtkvmtkConstants.h">
<polygon fill="white" stroke="black" points="790.375,-165.5 790.375,-183.5 893.625,-183.5 893.625,-165.5 790.375,-165.5"/>
<text text-anchor="middle" x="842" y="-171.5" font-family="Helvetica,sans-Serif" font-size="10.00">vtkvmtkConstants.h</text>
</a>
</g>
</g>
<!-- Node5&#45;&gt;Node12 -->
<g id="edge25" class="edge"><title>Node5&#45;&gt;Node12</title>
<path fill="none" stroke="midnightblue" d="M522.5,-276.093C573.382,-269.447 644.054,-257.787 704,-239 745.913,-225.864 791.699,-202.944 818.579,-188.53"/>
<polygon fill="midnightblue" stroke="midnightblue" points="820.468,-191.487 827.585,-183.638 817.127,-185.336 820.468,-191.487"/>
</g>
<!-- Node6&#45;&gt;Node1 -->
<g id="edge11" class="edge"><title>Node6&#45;&gt;Node1</title>
<path fill="none" stroke="midnightblue" d="M348.556,-220.415C329.791,-213.083 303.623,-200.842 285,-184 241.842,-144.971 230.449,-129.815 214,-74 211.613,-65.9 211.351,-63.0183 214,-55 217.5,-44.4031 224.607,-34.2704 231.332,-26.3582"/>
<polygon fill="midnightblue" stroke="midnightblue" points="234.138,-28.4746 238.29,-18.7271 228.966,-23.7581 234.138,-28.4746"/>
</g>
<!-- Node6&#45;&gt;Node7 -->
<g id="edge12" class="edge"><title>Node6&#45;&gt;Node7</title>
<path fill="none" stroke="midnightblue" d="M369.344,-220.219C367.035,-213.02 363.611,-202.346 360.687,-193.231"/>
<polygon fill="midnightblue" stroke="midnightblue" points="363.969,-192.003 357.582,-183.55 357.304,-194.141 363.969,-192.003"/>
</g>
<!-- Node6&#45;&gt;Node11 -->
<g id="edge23" class="edge"><title>Node6&#45;&gt;Node11</title>
<path fill="none" stroke="midnightblue" d="M400.492,-220.448C444.616,-208.06 532.195,-183.787 607,-165 675.592,-147.773 694.364,-149.665 762,-129 827.519,-108.981 843.559,-102.189 906,-74 940.932,-58.2296 979.964,-37.0746 1004.01,-23.6119"/>
<polygon fill="midnightblue" stroke="midnightblue" points="1005.75,-26.6462 1012.75,-18.6878 1002.32,-20.5478 1005.75,-26.6462"/>
</g>
<!-- Node7&#45;&gt;Node1 -->
<g id="edge13" class="edge"><title>Node7&#45;&gt;Node1</title>
<path fill="none" stroke="midnightblue" d="M349.496,-165.193C332.522,-139.575 280.764,-61.4591 257.972,-27.0602"/>
<polygon fill="midnightblue" stroke="midnightblue" points="260.806,-25.0001 252.365,-18.5971 254.971,-28.8665 260.806,-25.0001"/>
</g>
<!-- Node8 -->
<g id="node9" class="node"><title>Node8</title>
<g id="a_node9"><a xlink:href="vtkvmtkDataSetItem_8h.html" target="_top" xlink:title="vtkvmtkDataSetItem.h">
<polygon fill="white" stroke="black" points="446.096,-110.5 446.096,-128.5 559.904,-128.5 559.904,-110.5 446.096,-110.5"/>
<text text-anchor="middle" x="503" y="-116.5" font-family="Helvetica,sans-Serif" font-size="10.00">vtkvmtkDataSetItem.h</text>
</a>
</g>
</g>
<!-- Node7&#45;&gt;Node8 -->
<g id="edge14" class="edge"><title>Node7&#45;&gt;Node8</title>
<path fill="none" stroke="midnightblue" d="M377.478,-165.45C402.361,-156.539 442.675,-142.103 470.883,-132.001"/>
<polygon fill="midnightblue" stroke="midnightblue" points="472.076,-135.292 480.31,-128.625 469.716,-128.702 472.076,-135.292"/>
</g>
<!-- Node7&#45;&gt;Node11 -->
<g id="edge22" class="edge"><title>Node7&#45;&gt;Node11</title>
<path fill="none" stroke="midnightblue" d="M415.763,-170.829C489.428,-166.525 616.892,-155.644 723,-129 750.95,-121.982 926.549,-51.2465 997.406,-22.5249"/>
<polygon fill="midnightblue" stroke="midnightblue" points="999.12,-25.607 1007.07,-18.6048 996.489,-19.1203 999.12,-25.607"/>
</g>
<!-- Node8&#45;&gt;Node1 -->
<g id="edge15" class="edge"><title>Node8&#45;&gt;Node1</title>
<path fill="none" stroke="midnightblue" d="M496.461,-110.495C484.919,-96.915 459.535,-69.4358 432,-55 386.88,-31.3449 328.984,-20.0409 290.08,-14.7916"/>
<polygon fill="midnightblue" stroke="midnightblue" points="290.49,-11.3157 280.128,-13.5249 289.606,-18.2596 290.49,-11.3157"/>
</g>
<!-- Node9 -->
<g id="node10" class="node"><title>Node9</title>
<g id="a_node10"><a xlink:href="vtkvmtkItem_8h.html" target="_top" xlink:title="vtkvmtkItem.h">
<polygon fill="white" stroke="black" points="598.163,-55.5 598.163,-73.5 675.837,-73.5 675.837,-55.5 598.163,-55.5"/>
<text text-anchor="middle" x="637" y="-61.5" font-family="Helvetica,sans-Serif" font-size="10.00">vtkvmtkItem.h</text>
</a>
</g>
</g>
<!-- Node8&#45;&gt;Node9 -->
<g id="edge16" class="edge"><title>Node8&#45;&gt;Node9</title>
<path fill="none" stroke="midnightblue" d="M523.352,-110.45C545.586,-101.656 581.428,-87.4802 606.912,-77.4006"/>
<polygon fill="midnightblue" stroke="midnightblue" points="608.445,-80.558 616.457,-73.6253 605.87,-74.0487 608.445,-80.558"/>
</g>
<!-- Node8&#45;&gt;Node10 -->
<g id="edge20" class="edge"><title>Node8&#45;&gt;Node10</title>
<path fill="none" stroke="midnightblue" d="M508.379,-110.242C517.147,-97.2511 535.603,-71.7946 556,-55 571.946,-41.8708 592.337,-30.6931 608.671,-22.8243"/>
<polygon fill="midnightblue" stroke="midnightblue" points="610.174,-25.9853 617.755,-18.5839 607.213,-19.6424 610.174,-25.9853"/>
</g>
<!-- Node8&#45;&gt;Node11 -->
<g id="edge21" class="edge"><title>Node8&#45;&gt;Node11</title>
<path fill="none" stroke="midnightblue" d="M537.012,-110.472C590.215,-98.0098 696.416,-73.5182 787,-55 849.793,-42.1631 922.159,-28.962 970.87,-20.3076"/>
<polygon fill="midnightblue" stroke="midnightblue" points="971.657,-23.7227 980.893,-18.5317 970.436,-16.8301 971.657,-23.7227"/>
</g>
<!-- Node9&#45;&gt;Node1 -->
<g id="edge17" class="edge"><title>Node9&#45;&gt;Node1</title>
<path fill="none" stroke="midnightblue" d="M597.82,-58.1755C524.487,-48.2098 367.022,-26.8106 290.51,-16.4129"/>
<polygon fill="midnightblue" stroke="midnightblue" points="290.648,-12.8996 280.268,-15.021 289.706,-19.8358 290.648,-12.8996"/>
</g>
<!-- Node9&#45;&gt;Node10 -->
<g id="edge18" class="edge"><title>Node9&#45;&gt;Node10</title>
<path fill="none" stroke="midnightblue" d="M637,-55.2188C637,-48.1769 637,-37.8083 637,-28.8277"/>
<polygon fill="midnightblue" stroke="midnightblue" points="640.5,-28.5495 637,-18.5496 633.5,-28.5496 640.5,-28.5495"/>
</g>
<!-- Node9&#45;&gt;Node11 -->
<g id="edge19" class="edge"><title>Node9&#45;&gt;Node11</title>
<path fill="none" stroke="midnightblue" d="M676.18,-58.1755C742.1,-49.2172 876.002,-31.0202 957.976,-19.8802"/>
<polygon fill="midnightblue" stroke="midnightblue" points="958.516,-23.3391 967.953,-18.5243 957.573,-16.4029 958.516,-23.3391"/>
</g>
<!-- Node13&#45;&gt;Node1 -->
<g id="edge28" class="edge"><title>Node13&#45;&gt;Node1</title>
<path fill="none" stroke="midnightblue" d="M605.627,-220.43C563.119,-206.551 478.144,-175.132 418,-129 383.955,-102.886 390.657,-80.2958 356,-55 335.383,-39.9521 308.944,-28.9963 287.269,-21.7209"/>
<polygon fill="midnightblue" stroke="midnightblue" points="288.274,-18.3678 277.683,-18.6357 286.13,-25.0312 288.274,-18.3678"/>
</g>
<!-- Node13&#45;&gt;Node7 -->
<g id="edge39" class="edge"><title>Node13&#45;&gt;Node7</title>
<path fill="none" stroke="midnightblue" d="M589.93,-220.45C540.876,-211.065 459.785,-195.549 406.874,-185.425"/>
<polygon fill="midnightblue" stroke="midnightblue" points="407.491,-181.98 397.012,-183.538 406.176,-188.855 407.491,-181.98"/>
</g>
<!-- Node13&#45;&gt;Node10 -->
<g id="edge40" class="edge"><title>Node13&#45;&gt;Node10</title>
<path fill="none" stroke="midnightblue" d="M626.293,-220.229C609.441,-194.711 562.679,-115.295 589,-55 594.345,-42.7565 604.903,-32.3735 614.76,-24.7242"/>
<polygon fill="midnightblue" stroke="midnightblue" points="617.02,-27.4099 623.092,-18.7278 612.931,-21.7282 617.02,-27.4099"/>
</g>
<!-- Node13&#45;&gt;Node11 -->
<g id="edge41" class="edge"><title>Node13&#45;&gt;Node11</title>
<path fill="none" stroke="midnightblue" d="M653.499,-220.485C676.021,-211.947 712.323,-197.79 743,-184 760.222,-176.258 763.448,-171.961 781,-165 832.76,-144.473 851.404,-154.311 901,-129 936.867,-110.695 943.79,-101.718 973,-74 988.523,-59.2696 1004.13,-40.3692 1014.55,-27.0312"/>
<polygon fill="midnightblue" stroke="midnightblue" points="1017.55,-28.8688 1020.86,-18.8056 1012,-24.6056 1017.55,-28.8688"/>
</g>
<!-- Node13&#45;&gt;Node12 -->
<g id="edge29" class="edge"><title>Node13&#45;&gt;Node12</title>
<path fill="none" stroke="midnightblue" d="M663.894,-220.45C700.387,-211.24 760.268,-196.128 800.399,-185.999"/>
<polygon fill="midnightblue" stroke="midnightblue" points="801.311,-189.379 810.15,-183.538 799.598,-182.592 801.311,-189.379"/>
</g>
<!-- Node14 -->
<g id="node15" class="node"><title>Node14</title>
<g id="a_node15"><a xlink:href="vtkvmtkDataSetItems_8h.html" target="_top" xlink:title="vtkvmtkDataSetItems.h">
<polygon fill="white" stroke="black" points="615.596,-165.5 615.596,-183.5 734.404,-183.5 734.404,-165.5 615.596,-165.5"/>
<text text-anchor="middle" x="675" y="-171.5" font-family="Helvetica,sans-Serif" font-size="10.00">vtkvmtkDataSetItems.h</text>
</a>
</g>
</g>
<!-- Node13&#45;&gt;Node14 -->
<g id="edge30" class="edge"><title>Node13&#45;&gt;Node14</title>
<path fill="none" stroke="midnightblue" d="M638.719,-220.219C644.94,-212.551 654.361,-200.939 662.044,-191.469"/>
<polygon fill="midnightblue" stroke="midnightblue" points="664.887,-193.52 668.469,-183.55 659.451,-189.11 664.887,-193.52"/>
</g>
<!-- Node14&#45;&gt;Node1 -->
<g id="edge31" class="edge"><title>Node14&#45;&gt;Node1</title>
<path fill="none" stroke="midnightblue" d="M615.512,-168.06C554.642,-161.51 465.118,-148.846 437,-129 405.923,-107.065 423.835,-78.5967 394,-55 364.218,-31.445 322.084,-20.326 290.555,-15.0962"/>
<polygon fill="midnightblue" stroke="midnightblue" points="290.714,-11.5804 280.302,-13.5389 289.663,-18.501 290.714,-11.5804"/>
</g>
<!-- Node14&#45;&gt;Node10 -->
<g id="edge37" class="edge"><title>Node14&#45;&gt;Node10</title>
<path fill="none" stroke="midnightblue" d="M688.908,-165.272C700.463,-157.55 716.089,-144.83 723,-129 726.378,-121.261 724.597,-118.292 723,-110 718.021,-84.1476 717.387,-75.6055 701,-55 690.697,-42.0449 675.629,-31.3109 662.702,-23.633"/>
<polygon fill="midnightblue" stroke="midnightblue" points="664.196,-20.4573 653.766,-18.5944 660.758,-26.5548 664.196,-20.4573"/>
</g>
<!-- Node14&#45;&gt;Node11 -->
<g id="edge38" class="edge"><title>Node14&#45;&gt;Node11</title>
<path fill="none" stroke="midnightblue" d="M734.579,-166.25C774.253,-159.914 826.826,-148.561 870,-129 907.979,-111.793 912.698,-99.089 946,-74 967.796,-57.5796 992.413,-38.1522 1008.73,-25.1492"/>
<polygon fill="midnightblue" stroke="midnightblue" points="1011.24,-27.6225 1016.87,-18.6461 1006.87,-22.1536 1011.24,-27.6225"/>
</g>
<!-- Node15 -->
<g id="node16" class="node"><title>Node15</title>
<g id="a_node16"><a xlink:href="vtkvmtkItems_8h.html" target="_top" xlink:title="vtkvmtkItems.h">
<polygon fill="white" stroke="black" points="631.663,-110.5 631.663,-128.5 714.337,-128.5 714.337,-110.5 631.663,-110.5"/>
<text text-anchor="middle" x="673" y="-116.5" font-family="Helvetica,sans-Serif" font-size="10.00">vtkvmtkItems.h</text>
</a>
</g>
</g>
<!-- Node14&#45;&gt;Node15 -->
<g id="edge32" class="edge"><title>Node14&#45;&gt;Node15</title>
<path fill="none" stroke="midnightblue" d="M674.688,-165.219C674.422,-158.177 674.031,-147.808 673.692,-138.828"/>
<polygon fill="midnightblue" stroke="midnightblue" points="677.178,-138.41 673.304,-128.55 670.183,-138.674 677.178,-138.41"/>
</g>
<!-- Node15&#45;&gt;Node1 -->
<g id="edge33" class="edge"><title>Node15&#45;&gt;Node1</title>
<path fill="none" stroke="midnightblue" d="M648.144,-110.405C608.439,-97.6374 528.131,-72.4812 459,-55 400.943,-40.3192 333.088,-26.6847 290.086,-18.4749"/>
<polygon fill="midnightblue" stroke="midnightblue" points="290.718,-15.0324 280.241,-16.6072 289.413,-21.9098 290.718,-15.0324"/>
</g>
<!-- Node15&#45;&gt;Node9 -->
<g id="edge34" class="edge"><title>Node15&#45;&gt;Node9</title>
<path fill="none" stroke="midnightblue" d="M667.375,-110.219C662.273,-102.707 654.6,-91.411 648.243,-82.0515"/>
<polygon fill="midnightblue" stroke="midnightblue" points="650.982,-79.8551 642.468,-73.5496 645.191,-83.7883 650.982,-79.8551"/>
</g>
<!-- Node15&#45;&gt;Node10 -->
<g id="edge35" class="edge"><title>Node15&#45;&gt;Node10</title>
<path fill="none" stroke="midnightblue" d="M677.476,-110.341C683.658,-97.9139 693.169,-73.7139 685,-55 679.655,-42.7565 669.097,-32.3735 659.24,-24.7242"/>
<polygon fill="midnightblue" stroke="midnightblue" points="661.069,-21.7282 650.908,-18.7278 656.98,-27.4099 661.069,-21.7282"/>
</g>
<!-- Node15&#45;&gt;Node11 -->
<g id="edge36" class="edge"><title>Node15&#45;&gt;Node11</title>
<path fill="none" stroke="midnightblue" d="M691.996,-110.481C722.995,-97.5971 786.567,-72.0103 842,-55 887.177,-41.1372 939.63,-28.8722 977.122,-20.7479"/>
<polygon fill="midnightblue" stroke="midnightblue" points="978.238,-24.0882 987.282,-18.5684 976.77,-17.2439 978.238,-24.0882"/>
</g>
<!-- Node16&#45;&gt;Node1 -->
<g id="edge43" class="edge"><title>Node16&#45;&gt;Node1</title>
<path fill="none" stroke="midnightblue" d="M676.247,-280.652C576.339,-274.239 348.679,-257.749 319,-239 247.034,-193.538 244.118,-74.7295 245.842,-28.9012"/>
<polygon fill="midnightblue" stroke="midnightblue" points="249.338,-29.0737 246.342,-18.9114 242.347,-28.7242 249.338,-29.0737"/>
</g>
<!-- Node16&#45;&gt;Node6 -->
<g id="edge46" class="edge"><title>Node16&#45;&gt;Node6</title>
<path fill="none" stroke="midnightblue" d="M676.027,-276.407C611.261,-266.628 494.801,-249.043 426.354,-238.707"/>
<polygon fill="midnightblue" stroke="midnightblue" points="426.616,-235.207 416.205,-237.175 425.571,-242.129 426.616,-235.207"/>
</g>
<!-- Node16&#45;&gt;Node10 -->
<g id="edge47" class="edge"><title>Node16&#45;&gt;Node10</title>
<path fill="none" stroke="midnightblue" d="M763.16,-275.488C826.041,-260.914 937.207,-225.817 903,-165 856.004,-81.4439 744.128,-39.1022 681.467,-21.2587"/>
<polygon fill="midnightblue" stroke="midnightblue" points="682.05,-17.7888 671.479,-18.5036 680.188,-24.5368 682.05,-17.7888"/>
</g>
<!-- Node16&#45;&gt;Node11 -->
<g id="edge48" class="edge"><title>Node16&#45;&gt;Node11</title>
<path fill="none" stroke="midnightblue" d="M769.824,-279.391C867.502,-269.526 1084,-240.346 1084,-175.5 1084,-175.5 1084,-175.5 1084,-118.5 1084,-82.3023 1058.65,-46.3493 1041.76,-26.4152"/>
<polygon fill="midnightblue" stroke="midnightblue" points="1044.17,-23.8536 1034.93,-18.669 1038.92,-28.4839 1044.17,-23.8536"/>
</g>
<!-- Node16&#45;&gt;Node12 -->
<g id="edge44" class="edge"><title>Node16&#45;&gt;Node12</title>
<path fill="none" stroke="midnightblue" d="M752.819,-275.448C772.972,-268.657 798.922,-257.092 816,-239 828.001,-226.286 834.787,-207.279 838.394,-193.373"/>
<polygon fill="midnightblue" stroke="midnightblue" points="841.827,-194.061 840.643,-183.533 835.002,-192.501 841.827,-194.061"/>
</g>
<!-- Node16&#45;&gt;Node14 -->
<g id="edge45" class="edge"><title>Node16&#45;&gt;Node14</title>
<path fill="none" stroke="midnightblue" d="M721.363,-275.413C718.696,-263.079 712.809,-239 704,-220 699.434,-210.153 692.937,-199.954 687.249,-191.808"/>
<polygon fill="midnightblue" stroke="midnightblue" points="690.015,-189.661 681.317,-183.611 684.344,-193.765 690.015,-189.661"/>
</g>
<!-- Node17&#45;&gt;Node1 -->
<g id="edge50" class="edge"><title>Node17&#45;&gt;Node1</title>
<path fill="none" stroke="midnightblue" d="M1125.09,-282.913C990.488,-280.989 663.978,-272.869 560,-239 491.687,-216.748 319.505,-72.5854 264.312,-25.4137"/>
<polygon fill="midnightblue" stroke="midnightblue" points="266.362,-22.561 256.492,-18.7092 261.805,-27.8752 266.362,-22.561"/>
</g>
<!-- Node17&#45;&gt;Node11 -->
<g id="edge52" class="edge"><title>Node17&#45;&gt;Node11</title>
<path fill="none" stroke="midnightblue" d="M1180.86,-275.237C1174.36,-257.339 1160,-213.531 1160,-175.5 1160,-175.5 1160,-175.5 1160,-118.5 1160,-88.3293 1157.05,-76.612 1136,-55 1120.12,-38.6946 1097.43,-28.1543 1076.86,-21.4489"/>
<polygon fill="midnightblue" stroke="midnightblue" points="1077.86,-18.097 1067.28,-18.544 1075.83,-24.7957 1077.86,-18.097"/>
</g>
<!-- Node18 -->
<g id="node19" class="node"><title>Node18</title>
<polygon fill="white" stroke="#bfbfbf" points="1188.3,-220.5 1188.3,-238.5 1269.7,-238.5 1269.7,-220.5 1188.3,-220.5"/>
<text text-anchor="middle" x="1229" y="-226.5" font-family="Helvetica,sans-Serif" font-size="10.00">vtkDataArray.h</text>
</g>
<!-- Node17&#45;&gt;Node18 -->
<g id="edge51" class="edge"><title>Node17&#45;&gt;Node18</title>
<path fill="none" stroke="midnightblue" d="M1191.03,-275.219C1197.61,-267.473 1207.6,-255.701 1215.69,-246.18"/>
<polygon fill="midnightblue" stroke="midnightblue" points="1218.36,-248.438 1222.17,-238.55 1213.03,-243.907 1218.36,-248.438"/>
</g>
</g>
</svg>
