<?xml version="1.0" encoding="UTF-8" standalone="no"?>
<!DOCTYPE svg PUBLIC "-//W3C//DTD SVG 1.1//EN"
 "http://www.w3.org/Graphics/SVG/1.1/DTD/svg11.dtd">
<!-- Generated by graphviz version 2.38.0 (20140413.2041)
 -->
<!-- Title: vtkvmtkConstrainedLaplacianPolyDataFilter.h Pages: 1 -->
<svg width="296pt" height="92pt"
 viewBox="0.00 0.00 295.66 92.00" xmlns="http://www.w3.org/2000/svg" xmlns:xlink="http://www.w3.org/1999/xlink">
<g id="graph0" class="graph" transform="scale(1 1) rotate(0) translate(4 88)">
<title>vtkvmtkConstrainedLaplacianPolyDataFilter.h</title>
<polygon fill="white" stroke="none" points="-4,4 -4,-88 291.665,-88 291.665,4 -4,4"/>
<!-- Node0 -->
<g id="node1" class="node"><title>Node0</title>
<polygon fill="#bfbfbf" stroke="black" points="77.9434,-55.5 77.9434,-83.5 224.563,-83.5 224.563,-55.5 77.9434,-55.5"/>
<text text-anchor="start" x="85.9434" y="-71.5" font-family="Helvetica,sans-Serif" font-size="10.00">vtkvmtkConstrainedLaplacian</text>
<text text-anchor="middle" x="151.253" y="-61.5" font-family="Helvetica,sans-Serif" font-size="10.00">PolyDataFilter.h</text>
</g>
<!-- Node1 -->
<g id="node2" class="node"><title>Node1</title>
<polygon fill="white" stroke="#bfbfbf" points="0,-0.5 0,-18.5 150.507,-18.5 150.507,-0.5 0,-0.5"/>
<text text-anchor="middle" x="75.2534" y="-6.5" font-family="Helvetica,sans-Serif" font-size="10.00">vtkPolyDataToPolyDataFilter.h</text>
</g>
<!-- Node0&#45;&gt;Node1 -->
<g id="edge1" class="edge"><title>Node0&#45;&gt;Node1</title>
<path fill="none" stroke="midnightblue" d="M134.008,-55.3389C122.167,-46.3022 106.447,-34.3057 94.2473,-24.9954"/>
<polygon fill="midnightblue" stroke="midnightblue" points="96.1648,-22.0559 86.0919,-18.7715 91.9181,-27.6206 96.1648,-22.0559"/>
</g>
<!-- Node2 -->
<g id="node3" class="node"><title>Node2</title>
<polygon fill="white" stroke="#bfbfbf" points="168.842,-0.5 168.842,-18.5 287.665,-18.5 287.665,-0.5 168.842,-0.5"/>
<text text-anchor="middle" x="228.253" y="-6.5" font-family="Helvetica,sans-Serif" font-size="10.00">vtkvmtkWin32Header.h</text>
</g>
<!-- Node0&#45;&gt;Node2 -->
<g id="edge2" class="edge"><title>Node0&#45;&gt;Node2</title>
<path fill="none" stroke="midnightblue" d="M168.726,-55.3389C180.723,-46.3022 196.649,-34.3057 209.01,-24.9954"/>
<polygon fill="midnightblue" stroke="midnightblue" points="211.391,-27.5837 217.272,-18.7715 207.179,-21.9924 211.391,-27.5837"/>
</g>
</g>
</svg>
