<?xml version="1.0" encoding="UTF-8" standalone="no"?>
<!DOCTYPE svg PUBLIC "-//W3C//DTD SVG 1.1//EN"
 "http://www.w3.org/Graphics/SVG/1.1/DTD/svg11.dtd">
<!-- Generated by graphviz version 2.38.0 (20140413.2041)
 -->
<!-- Title: vtkvmtkUnstructuredGridHarmonicMappingFilter.h Pages: 1 -->
<svg width="488pt" height="92pt"
 viewBox="0.00 0.00 488.39 92.00" xmlns="http://www.w3.org/2000/svg" xmlns:xlink="http://www.w3.org/1999/xlink">
<g id="graph0" class="graph" transform="scale(1 1) rotate(0) translate(4 88)">
<title>vtkvmtkUnstructuredGridHarmonicMappingFilter.h</title>
<polygon fill="white" stroke="none" points="-4,4 -4,-88 484.392,-88 484.392,4 -4,4"/>
<!-- Node0 -->
<g id="node1" class="node"><title>Node0</title>
<polygon fill="#bfbfbf" stroke="black" points="193.005,-55.5 193.005,-83.5 361.817,-83.5 361.817,-55.5 193.005,-55.5"/>
<text text-anchor="start" x="201.005" y="-71.5" font-family="Helvetica,sans-Serif" font-size="10.00">vtkvmtkUnstructuredGridHarmonic</text>
<text text-anchor="middle" x="277.411" y="-61.5" font-family="Helvetica,sans-Serif" font-size="10.00">MappingFilter.h</text>
</g>
<!-- Node1 -->
<g id="node2" class="node"><title>Node1</title>
<polygon fill="white" stroke="#bfbfbf" points="0,-0.5 0,-18.5 118.822,-18.5 118.822,-0.5 0,-0.5"/>
<text text-anchor="middle" x="59.4111" y="-6.5" font-family="Helvetica,sans-Serif" font-size="10.00">vtkvmtkWin32Header.h</text>
</g>
<!-- Node0&#45;&gt;Node1 -->
<g id="edge1" class="edge"><title>Node0&#45;&gt;Node1</title>
<path fill="none" stroke="midnightblue" d="M228.488,-55.4837C189.589,-45.1344 135.845,-30.8355 99.4722,-21.1584"/>
<polygon fill="midnightblue" stroke="midnightblue" points="100.264,-17.7475 89.7007,-18.5587 98.4646,-24.5122 100.264,-17.7475"/>
</g>
<!-- Node2 -->
<g id="node3" class="node"><title>Node2</title>
<polygon fill="white" stroke="#bfbfbf" points="136.665,-0.5 136.665,-18.5 292.157,-18.5 292.157,-0.5 136.665,-0.5"/>
<text text-anchor="middle" x="214.411" y="-6.5" font-family="Helvetica,sans-Serif" font-size="10.00">vtkUnstructuredGridAlgorithm.h</text>
</g>
<!-- Node0&#45;&gt;Node2 -->
<g id="edge2" class="edge"><title>Node0&#45;&gt;Node2</title>
<path fill="none" stroke="midnightblue" d="M263.115,-55.3389C253.586,-46.5654 241.025,-35.002 231.047,-25.8156"/>
<polygon fill="midnightblue" stroke="midnightblue" points="233.123,-22.9696 223.396,-18.7715 228.382,-28.1195 233.123,-22.9696"/>
</g>
<!-- Node3 -->
<g id="node4" class="node"><title>Node3</title>
<polygon fill="white" stroke="#bfbfbf" points="309.901,-0.5 309.901,-18.5 370.921,-18.5 370.921,-0.5 309.901,-0.5"/>
<text text-anchor="middle" x="340.411" y="-6.5" font-family="Helvetica,sans-Serif" font-size="10.00">vtkIdList.h</text>
</g>
<!-- Node0&#45;&gt;Node3 -->
<g id="edge3" class="edge"><title>Node0&#45;&gt;Node3</title>
<path fill="none" stroke="midnightblue" d="M291.707,-55.3389C301.237,-46.5654 313.797,-35.002 323.775,-25.8156"/>
<polygon fill="midnightblue" stroke="midnightblue" points="326.44,-28.1195 331.427,-18.7715 321.699,-22.9696 326.44,-28.1195"/>
</g>
<!-- Node4 -->
<g id="node5" class="node"><title>Node4</title>
<polygon fill="white" stroke="#bfbfbf" points="388.43,-0.5 388.43,-18.5 480.392,-18.5 480.392,-0.5 388.43,-0.5"/>
<text text-anchor="middle" x="434.411" y="-6.5" font-family="Helvetica,sans-Serif" font-size="10.00">vtkDoubleArray.h</text>
</g>
<!-- Node0&#45;&gt;Node4 -->
<g id="edge4" class="edge"><title>Node0&#45;&gt;Node4</title>
<path fill="none" stroke="midnightblue" d="M312.645,-55.4837C339.741,-45.4736 376.839,-31.7686 402.945,-22.1246"/>
<polygon fill="midnightblue" stroke="midnightblue" points="404.2,-25.392 412.368,-18.6434 401.774,-18.8257 404.2,-25.392"/>
</g>
</g>
</svg>
