<?xml version="1.0" encoding="UTF-8" standalone="no"?>
<!DOCTYPE svg PUBLIC "-//W3C//DTD SVG 1.1//EN"
 "http://www.w3.org/Graphics/SVG/1.1/DTD/svg11.dtd">
<!-- Generated by graphviz version 2.38.0 (20140413.2041)
 -->
<!-- Title: vtkvmtkNeighborhood.h Pages: 1 -->
<!--zoomable 462 -->
<svg id="main" version="1.1" xmlns="http://www.w3.org/2000/svg" xmlns:xlink="http://www.w3.org/1999/xlink" xml:space="preserve" onload="init(evt)">
<style type="text/css"><![CDATA[
.edge:hover path { stroke: red; }
.edge:hover polygon { stroke: red; fill: red; }
]]></style>
<script type="text/javascript"><![CDATA[
var edges = document.getElementsByTagName('g');
if (edges && edges.length) {
  for (var i=0;i<edges.length;i++) {
    if (edges[i].id.substr(0,4)=='edge') {
      edges[i].setAttribute('class','edge');
    }
  }
}
]]></script>
        <defs>
                <circle id="rim" cx="0" cy="0" r="7"/>
                <circle id="rim2" cx="0" cy="0" r="3.5"/>
                <g id="zoomPlus">
                        <use xlink:href="#rim" fill="#404040">
                                <set attributeName="fill" to="#808080" begin="zoomplus.mouseover" end="zoomplus.mouseout"/>
                        </use>
                        <path d="M-4,0h8M0,-4v8" fill="none" stroke="white" stroke-width="1.5" pointer-events="none"/>
                </g>
                <g id="zoomMin">
                        <use xlink:href="#rim" fill="#404040">
                                <set attributeName="fill" to="#808080" begin="zoomminus.mouseover" end="zoomminus.mouseout"/>
                        </use>
                        <path d="M-4,0h8" fill="none" stroke="white" stroke-width="1.5" pointer-events="none"/>
                </g>
                <g id="dirArrow">
                        <path fill="none" stroke="white" stroke-width="1.5" d="M0,-3.0v7 M-2.5,-0.5L0,-3.0L2.5,-0.5"/>
                </g>
               <g id="resetDef">
                       <use xlink:href="#rim2" fill="#404040">
                               <set attributeName="fill" to="#808080" begin="reset.mouseover" end="reset.mouseout"/>
                       </use>
               </g>
        </defs>

<script type="text/javascript">
var viewWidth = 1999;
var viewHeight = 462;
var sectionId = 'dynsection-1';
</script>
<script xlink:href="svgpan.js"/>
<svg id="graph" class="graph">
<g id="viewport">
<title>vtkvmtkNeighborhood.h</title>
<polygon fill="white" stroke="none" points="-4,4 -4,-458 1995.38,-458 1995.38,4 -4,4"/>
<!-- Node6 -->
<g id="node1" class="node"><title>Node6</title>
<polygon fill="#bfbfbf" stroke="black" points="1102.06,-435.5 1102.06,-453.5 1223.11,-453.5 1223.11,-435.5 1102.06,-435.5"/>
<text text-anchor="middle" x="1162.59" y="-441.5" font-family="Helvetica,sans-Serif" font-size="10.00">vtkvmtkNeighborhood.h</text>
</g>
<!-- Node7 -->
<g id="node2" class="node"><title>Node7</title>
<g id="a_node2"><a xlink:href="vtkvmtkStencil_8h.html" target="_top" xlink:title="vtkvmtkStencil.h">
<polygon fill="white" stroke="black" points="832.465,-380.5 832.465,-398.5 920.707,-398.5 920.707,-380.5 832.465,-380.5"/>
<text text-anchor="middle" x="876.586" y="-386.5" font-family="Helvetica,sans-Serif" font-size="10.00">vtkvmtkStencil.h</text>
</a>
</g>
</g>
<!-- Node6&#45;&gt;Node7 -->
<g id="edge1" class="edge"><title>Node6&#45;&gt;Node7</title>
<path fill="none" stroke="midnightblue" d="M1109.3,-433.626C1054.66,-423.499 970.688,-407.939 919.962,-398.538"/>
<polygon fill="midnightblue" stroke="midnightblue" points="1108.68,-437.07 1119.15,-435.45 1109.95,-430.187 1108.68,-437.07"/>
</g>
<!-- Node8 -->
<g id="node3" class="node"><title>Node8</title>
<g id="a_node3"><a xlink:href="vtkvmtkSparseMatrixRow_8h.html" target="_top" xlink:title="vtkvmtkSparseMatrixRow.h">
<polygon fill="white" stroke="black" points="953.291,-320.5 953.291,-338.5 1089.88,-338.5 1089.88,-320.5 953.291,-320.5"/>
<text text-anchor="middle" x="1021.59" y="-326.5" font-family="Helvetica,sans-Serif" font-size="10.00">vtkvmtkSparseMatrixRow.h</text>
</a>
</g>
</g>
<!-- Node6&#45;&gt;Node8 -->
<g id="edge28" class="edge"><title>Node6&#45;&gt;Node8</title>
<path fill="none" stroke="midnightblue" d="M1129.29,-431.794C1110.99,-424.288 1088.61,-413.267 1071.59,-399 1050.37,-381.22 1033.35,-352.612 1025.8,-338.668"/>
<polygon fill="midnightblue" stroke="midnightblue" points="1128.12,-435.095 1138.71,-435.498 1130.68,-428.581 1128.12,-435.095"/>
</g>
<!-- Node32 -->
<g id="node27" class="node"><title>Node32</title>
<g id="a_node27"><a xlink:href="vtkvmtkNeighborhoods_8h.html" target="_top" xlink:title="vtkvmtkNeighborhoods.h">
<polygon fill="white" stroke="black" points="1107.56,-320.5 1107.56,-338.5 1233.61,-338.5 1233.61,-320.5 1107.56,-320.5"/>
<text text-anchor="middle" x="1170.59" y="-326.5" font-family="Helvetica,sans-Serif" font-size="10.00">vtkvmtkNeighborhoods.h</text>
</a>
</g>
</g>
<!-- Node6&#45;&gt;Node32 -->
<g id="edge29" class="edge"><title>Node6&#45;&gt;Node32</title>
<path fill="none" stroke="midnightblue" d="M1124.6,-432.162C1096.17,-421.517 1064.43,-403.687 1078.59,-380 1091.52,-358.358 1117.53,-345.625 1138.6,-338.506"/>
<polygon fill="midnightblue" stroke="midnightblue" points="1123.45,-435.468 1134.05,-435.494 1125.78,-428.866 1123.45,-435.468"/>
</g>
<!-- Node33 -->
<g id="node28" class="node"><title>Node33</title>
<g id="a_node28"><a xlink:href="vtkvmtkEmptyNeighborhood_8h.html" target="_top" xlink:title="vtkvmtkEmptyNeighborhood.h">
<polygon fill="white" stroke="black" points="1087.89,-380.5 1087.89,-398.5 1237.28,-398.5 1237.28,-380.5 1087.89,-380.5"/>
<text text-anchor="middle" x="1162.59" y="-386.5" font-family="Helvetica,sans-Serif" font-size="10.00">vtkvmtkEmptyNeighborhood.h</text>
</a>
</g>
</g>
<!-- Node6&#45;&gt;Node33 -->
<g id="edge31" class="edge"><title>Node6&#45;&gt;Node33</title>
<path fill="none" stroke="midnightblue" d="M1162.59,-425.175C1162.59,-416.094 1162.59,-405.595 1162.59,-398.55"/>
<polygon fill="midnightblue" stroke="midnightblue" points="1159.09,-425.219 1162.59,-435.219 1166.09,-425.219 1159.09,-425.219"/>
</g>
<!-- Node34 -->
<g id="node29" class="node"><title>Node34</title>
<g id="a_node29"><a xlink:href="vtkvmtkPolyDataManifoldNeighborhood_8h.html" target="_top" xlink:title="vtkvmtkPolyDataManifoldNeighborhood.h">
<polygon fill="white" stroke="black" points="1254.87,-380.5 1254.87,-398.5 1454.3,-398.5 1454.3,-380.5 1254.87,-380.5"/>
<text text-anchor="middle" x="1354.59" y="-386.5" font-family="Helvetica,sans-Serif" font-size="10.00">vtkvmtkPolyDataManifoldNeighborhood.h</text>
</a>
</g>
</g>
<!-- Node6&#45;&gt;Node34 -->
<g id="edge32" class="edge"><title>Node6&#45;&gt;Node34</title>
<path fill="none" stroke="midnightblue" d="M1201.6,-432.73C1238.3,-422.6 1292.4,-407.666 1325.47,-398.538"/>
<polygon fill="midnightblue" stroke="midnightblue" points="1200.45,-429.416 1191.75,-435.45 1202.32,-436.163 1200.45,-429.416"/>
</g>
<!-- Node36 -->
<g id="node31" class="node"><title>Node36</title>
<g id="a_node31"><a xlink:href="vtkvmtkPolyDataNeighborhood_8h.html" target="_top" xlink:title="vtkvmtkPolyDataNeighborhood.h">
<polygon fill="white" stroke="black" points="1472.77,-380.5 1472.77,-398.5 1634.4,-398.5 1634.4,-380.5 1472.77,-380.5"/>
<text text-anchor="middle" x="1553.59" y="-386.5" font-family="Helvetica,sans-Serif" font-size="10.00">vtkvmtkPolyDataNeighborhood.h</text>
</a>
</g>
</g>
<!-- Node6&#45;&gt;Node36 -->
<g id="edge34" class="edge"><title>Node6&#45;&gt;Node36</title>
<path fill="none" stroke="midnightblue" d="M1232.2,-434.063C1306.8,-423.952 1423.93,-408.075 1494.28,-398.538"/>
<polygon fill="midnightblue" stroke="midnightblue" points="1231.41,-430.639 1221.97,-435.45 1232.35,-437.575 1231.41,-430.639"/>
</g>
<!-- Node37 -->
<g id="node32" class="node"><title>Node37</title>
<g id="a_node32"><a xlink:href="vtkvmtkUnstructuredGridNeighborhood_8h.html" target="_top" xlink:title="vtkvmtkUnstructuredGridNeighborhood.h">
<polygon fill="white" stroke="black" points="1651.99,-380.5 1651.99,-398.5 1849.18,-398.5 1849.18,-380.5 1651.99,-380.5"/>
<text text-anchor="middle" x="1750.59" y="-386.5" font-family="Helvetica,sans-Serif" font-size="10.00">vtkvmtkUnstructuredGridNeighborhood.h</text>
</a>
</g>
</g>
<!-- Node6&#45;&gt;Node37 -->
<g id="edge35" class="edge"><title>Node6&#45;&gt;Node37</title>
<path fill="none" stroke="midnightblue" d="M1233.38,-437.119C1340.7,-427.446 1544.45,-409.08 1661.64,-398.518"/>
<polygon fill="midnightblue" stroke="midnightblue" points="1232.94,-433.644 1223.3,-438.028 1233.57,-440.616 1232.94,-433.644"/>
</g>
<!-- Node7&#45;&gt;Node8 -->
<g id="edge2" class="edge"><title>Node7&#45;&gt;Node8</title>
<path fill="none" stroke="midnightblue" d="M906.133,-376.681C934.42,-365.366 976.349,-348.595 1001.13,-338.683"/>
<polygon fill="midnightblue" stroke="midnightblue" points="904.732,-373.472 896.748,-380.435 907.332,-379.971 904.732,-373.472"/>
</g>
<!-- Node22 -->
<g id="node17" class="node"><title>Node22</title>
<g id="a_node17"><a xlink:href="vtkvmtkStencils_8h.html" target="_top" xlink:title="vtkvmtkStencils.h">
<polygon fill="white" stroke="black" points="706.965,-320.5 706.965,-338.5 800.207,-338.5 800.207,-320.5 706.965,-320.5"/>
<text text-anchor="middle" x="753.586" y="-326.5" font-family="Helvetica,sans-Serif" font-size="10.00">vtkvmtkStencils.h</text>
</a>
</g>
</g>
<!-- Node7&#45;&gt;Node22 -->
<g id="edge17" class="edge"><title>Node7&#45;&gt;Node22</title>
<path fill="none" stroke="midnightblue" d="M850.254,-376.083C826.289,-364.783 791.592,-348.422 770.94,-338.683"/>
<polygon fill="midnightblue" stroke="midnightblue" points="848.946,-379.336 859.483,-380.435 851.931,-373.005 848.946,-379.336"/>
</g>
<!-- Node24 -->
<g id="node19" class="node"><title>Node24</title>
<g id="a_node19"><a xlink:href="vtkvmtkEmptyStencil_8h.html" target="_top" xlink:title="vtkvmtkEmptyStencil.h">
<polygon fill="white" stroke="black" points="818.295,-320.5 818.295,-338.5 934.876,-338.5 934.876,-320.5 818.295,-320.5"/>
<text text-anchor="middle" x="876.586" y="-326.5" font-family="Helvetica,sans-Serif" font-size="10.00">vtkvmtkEmptyStencil.h</text>
</a>
</g>
</g>
<!-- Node7&#45;&gt;Node24 -->
<g id="edge20" class="edge"><title>Node7&#45;&gt;Node24</title>
<path fill="none" stroke="midnightblue" d="M876.586,-370.214C876.586,-359.714 876.586,-347.033 876.586,-338.872"/>
<polygon fill="midnightblue" stroke="midnightblue" points="873.086,-370.435 876.586,-380.435 880.086,-370.435 873.086,-370.435"/>
</g>
<!-- Node25 -->
<g id="node20" class="node"><title>Node25</title>
<g id="a_node20"><a xlink:href="vtkvmtkPolyDataManifoldStencil_8h.html" target="_top" xlink:title="vtkvmtkPolyDataManifoldStencil.h">
<polygon fill="white" stroke="black" points="365.278,-320.5 365.278,-338.5 531.894,-338.5 531.894,-320.5 365.278,-320.5"/>
<text text-anchor="middle" x="448.586" y="-326.5" font-family="Helvetica,sans-Serif" font-size="10.00">vtkvmtkPolyDataManifoldStencil.h</text>
</a>
</g>
</g>
<!-- Node7&#45;&gt;Node25 -->
<g id="edge21" class="edge"><title>Node7&#45;&gt;Node25</title>
<path fill="none" stroke="midnightblue" d="M822.461,-381.165C741.955,-370.256 591.221,-349.829 507.843,-338.53"/>
<polygon fill="midnightblue" stroke="midnightblue" points="822.015,-384.637 832.394,-382.511 822.955,-377.7 822.015,-384.637"/>
</g>
<!-- Node9 -->
<g id="node4" class="node"><title>Node9</title>
<g id="a_node4"><a xlink:href="vtkvmtkSparseMatrix_8h.html" target="_top" xlink:title="vtkvmtkSparseMatrix.h">
<polygon fill="white" stroke="black" points="963.02,-255.5 963.02,-273.5 1080.15,-273.5 1080.15,-255.5 963.02,-255.5"/>
<text text-anchor="middle" x="1021.59" y="-261.5" font-family="Helvetica,sans-Serif" font-size="10.00">vtkvmtkSparseMatrix.h</text>
</a>
</g>
</g>
<!-- Node8&#45;&gt;Node9 -->
<g id="edge3" class="edge"><title>Node8&#45;&gt;Node9</title>
<path fill="none" stroke="midnightblue" d="M1021.59,-309.907C1021.59,-297.815 1021.59,-282.653 1021.59,-273.539"/>
<polygon fill="midnightblue" stroke="midnightblue" points="1018.09,-310.264 1021.59,-320.264 1025.09,-310.264 1018.09,-310.264"/>
</g>
<!-- Node10 -->
<g id="node5" class="node"><title>Node10</title>
<g id="a_node5"><a xlink:href="vtkvmtkLinearSystem_8h.html" target="_top" xlink:title="vtkvmtkLinearSystem.h">
<polygon fill="white" stroke="black" points="879.904,-190.5 879.904,-208.5 999.268,-208.5 999.268,-190.5 879.904,-190.5"/>
<text text-anchor="middle" x="939.586" y="-196.5" font-family="Helvetica,sans-Serif" font-size="10.00">vtkvmtkLinearSystem.h</text>
</a>
</g>
</g>
<!-- Node9&#45;&gt;Node10 -->
<g id="edge4" class="edge"><title>Node9&#45;&gt;Node10</title>
<path fill="none" stroke="midnightblue" d="M1002.57,-248.89C986.223,-236.331 963.257,-218.686 950.049,-208.539"/>
<polygon fill="midnightblue" stroke="midnightblue" points="1000.8,-251.947 1010.87,-255.264 1005.07,-246.396 1000.8,-251.947"/>
</g>
<!-- Node16 -->
<g id="node11" class="node"><title>Node16</title>
<g id="a_node11"><a xlink:href="vtkvmtkFEAssembler_8h.html" target="_top" xlink:title="vtkvmtkFEAssembler.h">
<polygon fill="white" stroke="black" points="1396.74,-190.5 1396.74,-208.5 1514.43,-208.5 1514.43,-190.5 1396.74,-190.5"/>
<text text-anchor="middle" x="1455.59" y="-196.5" font-family="Helvetica,sans-Serif" font-size="10.00">vtkvmtkFEAssembler.h</text>
</a>
</g>
</g>
<!-- Node9&#45;&gt;Node16 -->
<g id="edge11" class="edge"><title>Node9&#45;&gt;Node16</title>
<path fill="none" stroke="midnightblue" d="M1087.08,-253.993C1172.41,-241.606 1320.12,-220.165 1400.17,-208.545"/>
<polygon fill="midnightblue" stroke="midnightblue" points="1086.39,-250.557 1076.99,-255.457 1087.39,-257.484 1086.39,-250.557"/>
</g>
<!-- Node11 -->
<g id="node6" class="node"><title>Node11</title>
<g id="a_node6"><a xlink:href="vtkvmtkBoundaryConditions_8h.html" target="_top" xlink:title="vtkvmtkBoundaryConditions.h">
<polygon fill="white" stroke="black" points="948.443,-125.5 948.443,-143.5 1096.73,-143.5 1096.73,-125.5 948.443,-125.5"/>
<text text-anchor="middle" x="1022.59" y="-131.5" font-family="Helvetica,sans-Serif" font-size="10.00">vtkvmtkBoundaryConditions.h</text>
</a>
</g>
</g>
<!-- Node10&#45;&gt;Node11 -->
<g id="edge5" class="edge"><title>Node10&#45;&gt;Node11</title>
<path fill="none" stroke="midnightblue" d="M958.834,-183.89C975.38,-171.331 998.626,-153.686 1011.99,-143.539"/>
<polygon fill="midnightblue" stroke="midnightblue" points="956.286,-181.43 950.437,-190.264 960.518,-187.006 956.286,-181.43"/>
</g>
<!-- Node13 -->
<g id="node8" class="node"><title>Node13</title>
<g id="a_node8"><a xlink:href="vtkvmtkEllipticProblem_8h.html" target="_top" xlink:title="vtkvmtkEllipticProblem.h">
<polygon fill="white" stroke="black" points="823.406,-0.5 823.406,-18.5 947.766,-18.5 947.766,-0.5 823.406,-0.5"/>
<text text-anchor="middle" x="885.586" y="-6.5" font-family="Helvetica,sans-Serif" font-size="10.00">vtkvmtkEllipticProblem.h</text>
</a>
</g>
</g>
<!-- Node10&#45;&gt;Node13 -->
<g id="edge8" class="edge"><title>Node10&#45;&gt;Node13</title>
<path fill="none" stroke="midnightblue" d="M869.515,-196.3C834.794,-191.218 795.668,-178.628 773.586,-149 748.62,-115.503 750.124,-89.5677 773.586,-55 786.687,-35.697 809.623,-24.767 831.34,-18.5782"/>
<polygon fill="midnightblue" stroke="midnightblue" points="869.285,-199.799 879.648,-197.595 870.173,-192.856 869.285,-199.799"/>
</g>
<!-- Node14 -->
<g id="node9" class="node"><title>Node14</title>
<g id="a_node9"><a xlink:href="vtkvmtkLinearSystemSolver_8h.html" target="_top" xlink:title="vtkvmtkLinearSystemSolver.h">
<polygon fill="white" stroke="black" points="783.005,-125.5 783.005,-143.5 930.167,-143.5 930.167,-125.5 783.005,-125.5"/>
<text text-anchor="middle" x="856.586" y="-131.5" font-family="Helvetica,sans-Serif" font-size="10.00">vtkvmtkLinearSystemSolver.h</text>
</a>
</g>
</g>
<!-- Node10&#45;&gt;Node14 -->
<g id="edge9" class="edge"><title>Node10&#45;&gt;Node14</title>
<path fill="none" stroke="midnightblue" d="M920.338,-183.89C903.792,-171.331 880.546,-153.686 867.177,-143.539"/>
<polygon fill="midnightblue" stroke="midnightblue" points="918.654,-187.006 928.735,-190.264 922.886,-181.43 918.654,-187.006"/>
</g>
<!-- Node12 -->
<g id="node7" class="node"><title>Node12</title>
<g id="a_node7"><a xlink:href="vtkvmtkDirichletBoundaryConditions_8h.html" target="_top" xlink:title="vtkvmtkDirichletBoundary\lConditions.h">
<polygon fill="white" stroke="black" points="953.18,-55.5 953.18,-83.5 1081.99,-83.5 1081.99,-55.5 953.18,-55.5"/>
<text text-anchor="start" x="961.18" y="-71.5" font-family="Helvetica,sans-Serif" font-size="10.00">vtkvmtkDirichletBoundary</text>
<text text-anchor="middle" x="1017.59" y="-61.5" font-family="Helvetica,sans-Serif" font-size="10.00">Conditions.h</text>
</a>
</g>
</g>
<!-- Node11&#45;&gt;Node12 -->
<g id="edge6" class="edge"><title>Node11&#45;&gt;Node12</title>
<path fill="none" stroke="midnightblue" d="M1021.13,-115.137C1020.33,-105.105 1019.36,-92.906 1018.64,-83.7981"/>
<polygon fill="midnightblue" stroke="midnightblue" points="1017.65,-115.572 1021.93,-125.264 1024.63,-115.018 1017.65,-115.572"/>
</g>
<!-- Node12&#45;&gt;Node13 -->
<g id="edge7" class="edge"><title>Node12&#45;&gt;Node13</title>
<path fill="none" stroke="midnightblue" d="M978.53,-51.3392C953.943,-40.5358 923.333,-27.0859 904.119,-18.6434"/>
<polygon fill="midnightblue" stroke="midnightblue" points="977.399,-54.6652 987.963,-55.4837 980.215,-48.2566 977.399,-54.6652"/>
</g>
<!-- Node15 -->
<g id="node10" class="node"><title>Node15</title>
<g id="a_node10"><a xlink:href="vtkvmtkOpenNLLinearSystemSolver_8h.html" target="_top" xlink:title="vtkvmtkOpenNLLinearSystem\lSolver.h">
<polygon fill="white" stroke="black" points="782.451,-55.5 782.451,-83.5 930.721,-83.5 930.721,-55.5 782.451,-55.5"/>
<text text-anchor="start" x="790.451" y="-71.5" font-family="Helvetica,sans-Serif" font-size="10.00">vtkvmtkOpenNLLinearSystem</text>
<text text-anchor="middle" x="856.586" y="-61.5" font-family="Helvetica,sans-Serif" font-size="10.00">Solver.h</text>
</a>
</g>
</g>
<!-- Node14&#45;&gt;Node15 -->
<g id="edge10" class="edge"><title>Node14&#45;&gt;Node15</title>
<path fill="none" stroke="midnightblue" d="M856.586,-115.137C856.586,-105.105 856.586,-92.906 856.586,-83.7981"/>
<polygon fill="midnightblue" stroke="midnightblue" points="853.086,-115.264 856.586,-125.264 860.086,-115.264 853.086,-115.264"/>
</g>
<!-- Node17 -->
<g id="node12" class="node"><title>Node17</title>
<g id="a_node12"><a xlink:href="vtkvmtkPolyDataFEGradientAssembler_8h.html" target="_top" xlink:title="vtkvmtkPolyDataFEGradient\lAssembler.h">
<polygon fill="white" stroke="black" points="1849.79,-120.5 1849.79,-148.5 1991.38,-148.5 1991.38,-120.5 1849.79,-120.5"/>
<text text-anchor="start" x="1857.79" y="-136.5" font-family="Helvetica,sans-Serif" font-size="10.00">vtkvmtkPolyDataFEGradient</text>
<text text-anchor="middle" x="1920.59" y="-126.5" font-family="Helvetica,sans-Serif" font-size="10.00">Assembler.h</text>
</a>
</g>
</g>
<!-- Node16&#45;&gt;Node17 -->
<g id="edge12" class="edge"><title>Node16&#45;&gt;Node17</title>
<path fill="none" stroke="midnightblue" d="M1524.79,-190.433C1601.95,-181.246 1730.38,-165.377 1840.59,-149 1843.51,-148.565 1846.5,-148.111 1849.51,-147.643"/>
<polygon fill="midnightblue" stroke="midnightblue" points="1524.23,-186.974 1514.72,-191.629 1525.06,-193.926 1524.23,-186.974"/>
</g>
<!-- Node18 -->
<g id="node13" class="node"><title>Node18</title>
<g id="a_node13"><a xlink:href="vtkvmtkPolyDataFELaplaceAssembler_8h.html" target="_top" xlink:title="vtkvmtkPolyDataFELaplace\lAssembler.h">
<polygon fill="white" stroke="black" points="1114.45,-120.5 1114.45,-148.5 1252.72,-148.5 1252.72,-120.5 1114.45,-120.5"/>
<text text-anchor="start" x="1122.45" y="-136.5" font-family="Helvetica,sans-Serif" font-size="10.00">vtkvmtkPolyDataFELaplace</text>
<text text-anchor="middle" x="1183.59" y="-126.5" font-family="Helvetica,sans-Serif" font-size="10.00">Assembler.h</text>
</a>
</g>
</g>
<!-- Node16&#45;&gt;Node18 -->
<g id="edge13" class="edge"><title>Node16&#45;&gt;Node18</title>
<path fill="none" stroke="midnightblue" d="M1411.02,-188.177C1364.24,-177.343 1290.59,-160.283 1239.84,-148.529"/>
<polygon fill="midnightblue" stroke="midnightblue" points="1410.33,-191.61 1420.86,-190.457 1411.91,-184.791 1410.33,-191.61"/>
</g>
<!-- Node19 -->
<g id="node14" class="node"><title>Node19</title>
<g id="a_node14"><a xlink:href="vtkvmtkUnstructuredGridFEGradientAssembler_8h.html" target="_top" xlink:title="vtkvmtkUnstructuredGridFEGradient\lAssembler.h">
<polygon fill="white" stroke="black" points="1271.01,-120.5 1271.01,-148.5 1448.16,-148.5 1448.16,-120.5 1271.01,-120.5"/>
<text text-anchor="start" x="1279.01" y="-136.5" font-family="Helvetica,sans-Serif" font-size="10.00">vtkvmtkUnstructuredGridFEGradient</text>
<text text-anchor="middle" x="1359.59" y="-126.5" font-family="Helvetica,sans-Serif" font-size="10.00">Assembler.h</text>
</a>
</g>
</g>
<!-- Node16&#45;&gt;Node19 -->
<g id="edge14" class="edge"><title>Node16&#45;&gt;Node19</title>
<path fill="none" stroke="midnightblue" d="M1434.65,-184.763C1418.26,-174.005 1395.61,-159.141 1379.49,-148.561"/>
<polygon fill="midnightblue" stroke="midnightblue" points="1432.75,-187.703 1443.04,-190.264 1436.6,-181.851 1432.75,-187.703"/>
</g>
<!-- Node20 -->
<g id="node15" class="node"><title>Node20</title>
<g id="a_node15"><a xlink:href="vtkvmtkUnstructuredGridFELaplaceAssembler_8h.html" target="_top" xlink:title="vtkvmtkUnstructuredGridFELaplace\lAssembler.h">
<polygon fill="white" stroke="black" points="1465.67,-120.5 1465.67,-148.5 1639.5,-148.5 1639.5,-120.5 1465.67,-120.5"/>
<text text-anchor="start" x="1473.67" y="-136.5" font-family="Helvetica,sans-Serif" font-size="10.00">vtkvmtkUnstructuredGridFELaplace</text>
<text text-anchor="middle" x="1552.59" y="-126.5" font-family="Helvetica,sans-Serif" font-size="10.00">Assembler.h</text>
</a>
</g>
</g>
<!-- Node16&#45;&gt;Node20 -->
<g id="edge15" class="edge"><title>Node16&#45;&gt;Node20</title>
<path fill="none" stroke="midnightblue" d="M1476.74,-184.763C1493.3,-174.005 1516.19,-159.141 1532.48,-148.561"/>
<polygon fill="midnightblue" stroke="midnightblue" points="1474.75,-181.882 1468.27,-190.264 1478.56,-187.752 1474.75,-181.882"/>
</g>
<!-- Node21 -->
<g id="node16" class="node"><title>Node21</title>
<g id="a_node16"><a xlink:href="vtkvmtkUnstructuredGridFEVorticityAssembler_8h.html" target="_top" xlink:title="vtkvmtkUnstructuredGridFEVorticity\lAssembler.h">
<polygon fill="white" stroke="black" points="1657.68,-120.5 1657.68,-148.5 1831.49,-148.5 1831.49,-120.5 1657.68,-120.5"/>
<text text-anchor="start" x="1665.68" y="-136.5" font-family="Helvetica,sans-Serif" font-size="10.00">vtkvmtkUnstructuredGridFEVorticity</text>
<text text-anchor="middle" x="1744.59" y="-126.5" font-family="Helvetica,sans-Serif" font-size="10.00">Assembler.h</text>
</a>
</g>
</g>
<!-- Node16&#45;&gt;Node21 -->
<g id="edge16" class="edge"><title>Node16&#45;&gt;Node21</title>
<path fill="none" stroke="midnightblue" d="M1502.32,-188.313C1551.98,-177.486 1630.67,-160.332 1684.82,-148.529"/>
<polygon fill="midnightblue" stroke="midnightblue" points="1501.51,-184.907 1492.48,-190.457 1503,-191.747 1501.51,-184.907"/>
</g>
<!-- Node22&#45;&gt;Node9 -->
<g id="edge18" class="edge"><title>Node22&#45;&gt;Node9</title>
<path fill="none" stroke="midnightblue" d="M796.763,-318.058C801.094,-317.021 805.426,-315.987 809.586,-315 871.919,-300.21 944.648,-283.305 986.68,-273.569"/>
<polygon fill="midnightblue" stroke="midnightblue" points="795.647,-314.727 786.742,-320.466 797.282,-321.533 795.647,-314.727"/>
</g>
<!-- Node23 -->
<g id="node18" class="node"><title>Node23</title>
<g id="a_node18"><a xlink:href="vtkvmtkPolyDataMeanCurvature_8h.html" target="_top" xlink:title="vtkvmtkPolyDataMeanCurvature.h">
<polygon fill="white" stroke="black" points="723.724,-255.5 723.724,-273.5 891.448,-273.5 891.448,-255.5 723.724,-255.5"/>
<text text-anchor="middle" x="807.586" y="-261.5" font-family="Helvetica,sans-Serif" font-size="10.00">vtkvmtkPolyDataMeanCurvature.h</text>
</a>
</g>
</g>
<!-- Node22&#45;&gt;Node23 -->
<g id="edge19" class="edge"><title>Node22&#45;&gt;Node23</title>
<path fill="none" stroke="midnightblue" d="M767.322,-312.474C777.985,-300.034 792.32,-283.311 800.695,-273.539"/>
<polygon fill="midnightblue" stroke="midnightblue" points="764.496,-310.393 760.645,-320.264 769.811,-314.949 764.496,-310.393"/>
</g>
<!-- Node26 -->
<g id="node21" class="node"><title>Node26</title>
<g id="a_node21"><a xlink:href="vtkvmtkPolyDataAreaWeightedUmbrellaStencil_8h.html" target="_top" xlink:title="vtkvmtkPolyDataAreaWeighted\lUmbrellaStencil.h">
<polygon fill="white" stroke="black" points="371.758,-250.5 371.758,-278.5 525.414,-278.5 525.414,-250.5 371.758,-250.5"/>
<text text-anchor="start" x="379.758" y="-266.5" font-family="Helvetica,sans-Serif" font-size="10.00">vtkvmtkPolyDataAreaWeighted</text>
<text text-anchor="middle" x="448.586" y="-256.5" font-family="Helvetica,sans-Serif" font-size="10.00">UmbrellaStencil.h</text>
</a>
</g>
</g>
<!-- Node25&#45;&gt;Node26 -->
<g id="edge22" class="edge"><title>Node25&#45;&gt;Node26</title>
<path fill="none" stroke="midnightblue" d="M448.586,-310.137C448.586,-300.105 448.586,-287.906 448.586,-278.798"/>
<polygon fill="midnightblue" stroke="midnightblue" points="445.086,-310.264 448.586,-320.264 452.086,-310.264 445.086,-310.264"/>
</g>
<!-- Node27 -->
<g id="node22" class="node"><title>Node27</title>
<g id="a_node22"><a xlink:href="vtkvmtkPolyDataLaplaceBeltramiStencil_8h.html" target="_top" xlink:title="vtkvmtkPolyDataLaplaceBeltrami\lStencil.h">
<polygon fill="white" stroke="black" points="543.502,-250.5 543.502,-278.5 705.669,-278.5 705.669,-250.5 543.502,-250.5"/>
<text text-anchor="start" x="551.502" y="-266.5" font-family="Helvetica,sans-Serif" font-size="10.00">vtkvmtkPolyDataLaplaceBeltrami</text>
<text text-anchor="middle" x="624.586" y="-256.5" font-family="Helvetica,sans-Serif" font-size="10.00">Stencil.h</text>
</a>
</g>
</g>
<!-- Node25&#45;&gt;Node27 -->
<g id="edge23" class="edge"><title>Node25&#45;&gt;Node27</title>
<path fill="none" stroke="midnightblue" d="M480.917,-316.927C511.286,-306.056 556.664,-289.813 588.268,-278.5"/>
<polygon fill="midnightblue" stroke="midnightblue" points="479.47,-313.727 471.235,-320.393 481.829,-320.318 479.47,-313.727"/>
</g>
<!-- Node30 -->
<g id="node25" class="node"><title>Node30</title>
<g id="a_node25"><a xlink:href="vtkvmtkPolyDataGradientStencil_8h.html" target="_top" xlink:title="vtkvmtkPolyDataGradientStencil.h">
<polygon fill="white" stroke="black" points="0,-255.5 0,-273.5 167.172,-273.5 167.172,-255.5 0,-255.5"/>
<text text-anchor="middle" x="83.5859" y="-261.5" font-family="Helvetica,sans-Serif" font-size="10.00">vtkvmtkPolyDataGradientStencil.h</text>
</a>
</g>
</g>
<!-- Node25&#45;&gt;Node30 -->
<g id="edge26" class="edge"><title>Node25&#45;&gt;Node30</title>
<path fill="none" stroke="midnightblue" d="M391.743,-318.689C319.726,-306.258 196.969,-285.07 130.195,-273.545"/>
<polygon fill="midnightblue" stroke="midnightblue" points="391.538,-322.205 401.988,-320.457 392.729,-315.307 391.538,-322.205"/>
</g>
<!-- Node31 -->
<g id="node26" class="node"><title>Node31</title>
<g id="a_node26"><a xlink:href="vtkvmtkPolyDataUmbrellaStencil_8h.html" target="_top" xlink:title="vtkvmtkPolyDataUmbrellaStencil.h">
<polygon fill="white" stroke="black" points="185.172,-255.5 185.172,-273.5 354,-273.5 354,-255.5 185.172,-255.5"/>
<text text-anchor="middle" x="269.586" y="-261.5" font-family="Helvetica,sans-Serif" font-size="10.00">vtkvmtkPolyDataUmbrellaStencil.h</text>
</a>
</g>
</g>
<!-- Node25&#45;&gt;Node31 -->
<g id="edge27" class="edge"><title>Node25&#45;&gt;Node31</title>
<path fill="none" stroke="midnightblue" d="M416.064,-317.054C380.346,-304.483 323.902,-284.617 292.532,-273.576"/>
<polygon fill="midnightblue" stroke="midnightblue" points="414.956,-320.374 425.551,-320.393 417.28,-313.771 414.956,-320.374"/>
</g>
<!-- Node28 -->
<g id="node23" class="node"><title>Node28</title>
<g id="a_node23"><a xlink:href="vtkvmtkPolyDataFELaplaceBeltramiStencil_8h.html" target="_top" xlink:title="vtkvmtkPolyDataFELaplace\lBeltramiStencil.h">
<polygon fill="white" stroke="black" points="473.451,-185.5 473.451,-213.5 611.721,-213.5 611.721,-185.5 473.451,-185.5"/>
<text text-anchor="start" x="481.451" y="-201.5" font-family="Helvetica,sans-Serif" font-size="10.00">vtkvmtkPolyDataFELaplace</text>
<text text-anchor="middle" x="542.586" y="-191.5" font-family="Helvetica,sans-Serif" font-size="10.00">BeltramiStencil.h</text>
</a>
</g>
</g>
<!-- Node27&#45;&gt;Node28 -->
<g id="edge24" class="edge"><title>Node27&#45;&gt;Node28</title>
<path fill="none" stroke="midnightblue" d="M599.512,-244.236C586.559,-234.284 571.094,-222.403 559.555,-213.537"/>
<polygon fill="midnightblue" stroke="midnightblue" points="597.533,-247.129 607.595,-250.446 601.798,-241.578 597.533,-247.129"/>
</g>
<!-- Node29 -->
<g id="node24" class="node"><title>Node29</title>
<g id="a_node24"><a xlink:href="vtkvmtkPolyDataFVFELaplaceBeltramiStencil_8h.html" target="_top" xlink:title="vtkvmtkPolyDataFVFELaplace\lBeltramiStencil.h">
<polygon fill="white" stroke="black" points="630.062,-185.5 630.062,-213.5 781.11,-213.5 781.11,-185.5 630.062,-185.5"/>
<text text-anchor="start" x="638.062" y="-201.5" font-family="Helvetica,sans-Serif" font-size="10.00">vtkvmtkPolyDataFVFELaplace</text>
<text text-anchor="middle" x="705.586" y="-191.5" font-family="Helvetica,sans-Serif" font-size="10.00">BeltramiStencil.h</text>
</a>
</g>
</g>
<!-- Node27&#45;&gt;Node29 -->
<g id="edge25" class="edge"><title>Node27&#45;&gt;Node29</title>
<path fill="none" stroke="midnightblue" d="M649.354,-244.236C662.149,-234.284 677.425,-222.403 688.824,-213.537"/>
<polygon fill="midnightblue" stroke="midnightblue" points="647.114,-241.544 641.369,-250.446 651.412,-247.07 647.114,-241.544"/>
</g>
<!-- Node32&#45;&gt;Node9 -->
<g id="edge30" class="edge"><title>Node32&#45;&gt;Node9</title>
<path fill="none" stroke="midnightblue" d="M1141.98,-316.403C1112.18,-303.806 1066.35,-284.428 1040.69,-273.576"/>
<polygon fill="midnightblue" stroke="midnightblue" points="1140.84,-319.722 1151.41,-320.393 1143.56,-313.275 1140.84,-319.722"/>
</g>
<!-- Node35 -->
<g id="node30" class="node"><title>Node35</title>
<g id="a_node30"><a xlink:href="vtkvmtkPolyDataManifoldExtendedNeighborhood_8h.html" target="_top" xlink:title="vtkvmtkPolyDataManifoldExtended\lNeighborhood.h">
<polygon fill="white" stroke="black" points="1269.33,-315.5 1269.33,-343.5 1439.84,-343.5 1439.84,-315.5 1269.33,-315.5"/>
<text text-anchor="start" x="1277.33" y="-331.5" font-family="Helvetica,sans-Serif" font-size="10.00">vtkvmtkPolyDataManifoldExtended</text>
<text text-anchor="middle" x="1354.59" y="-321.5" font-family="Helvetica,sans-Serif" font-size="10.00">Neighborhood.h</text>
</a>
</g>
</g>
<!-- Node34&#45;&gt;Node35 -->
<g id="edge33" class="edge"><title>Node34&#45;&gt;Node35</title>
<path fill="none" stroke="midnightblue" d="M1354.59,-370.321C1354.59,-361.747 1354.59,-351.7 1354.59,-343.843"/>
<polygon fill="midnightblue" stroke="midnightblue" points="1351.09,-370.435 1354.59,-380.435 1358.09,-370.435 1351.09,-370.435"/>
</g>
</g>
</svg>
        <g id="navigator" transform="translate(0 0)" fill="#404254">
                <rect fill="#f2f5e9" fill-opacity="0.5" stroke="#606060" stroke-width=".5" x="0" y="0" width="60" height="60"/>
                <use id="zoomplus" xlink:href="#zoomPlus" x="17" y="9" onmousedown="handleZoom(evt,'in')"/>
                <use id="zoomminus" xlink:href="#zoomMin" x="42" y="9" onmousedown="handleZoom(evt,'out')"/>
                <use id="reset" xlink:href="#resetDef" x="30" y="36" onmousedown="handleReset()"/>
                <g id="arrowUp" xlink:href="#dirArrow" transform="translate(30 24)" onmousedown="handlePan(0,-1)">
                  <use xlink:href="#rim" fill="#404040">
                        <set attributeName="fill" to="#808080" begin="arrowUp.mouseover" end="arrowUp.mouseout"/>
                  </use>
                  <path fill="none" stroke="white" stroke-width="1.5" d="M0,-3.0v7 M-2.5,-0.5L0,-3.0L2.5,-0.5"/>
                </g>
                <g id="arrowRight" xlink:href="#dirArrow" transform="rotate(90) translate(36 -43)" onmousedown="handlePan(1,0)">
                  <use xlink:href="#rim" fill="#404040">
                        <set attributeName="fill" to="#808080" begin="arrowRight.mouseover" end="arrowRight.mouseout"/>
                  </use>
                  <path fill="none" stroke="white" stroke-width="1.5" d="M0,-3.0v7 M-2.5,-0.5L0,-3.0L2.5,-0.5"/>
                </g>
                <g id="arrowDown" xlink:href="#dirArrow" transform="rotate(180) translate(-30 -48)" onmousedown="handlePan(0,1)">
                  <use xlink:href="#rim" fill="#404040">
                        <set attributeName="fill" to="#808080" begin="arrowDown.mouseover" end="arrowDown.mouseout"/>
                  </use>
                  <path fill="none" stroke="white" stroke-width="1.5" d="M0,-3.0v7 M-2.5,-0.5L0,-3.0L2.5,-0.5"/>
                </g>
                <g id="arrowLeft" xlink:href="#dirArrow" transform="rotate(270) translate(-36 17)" onmousedown="handlePan(-1,0)">
                  <use xlink:href="#rim" fill="#404040">
                        <set attributeName="fill" to="#808080" begin="arrowLeft.mouseover" end="arrowLeft.mouseout"/>
                  </use>
                  <path fill="none" stroke="white" stroke-width="1.5" d="M0,-3.0v7 M-2.5,-0.5L0,-3.0L2.5,-0.5"/>
                </g>
        </g>
        <svg viewBox="0 0 15 15" width="100%" height="30px" preserveAspectRatio="xMaxYMin meet">
         <g id="arrow_out" transform="scale(0.3 0.3)">
          <a xlink:href="vtkvmtkNeighborhood_8h__dep__incl_org.svg" target="_base">
           <rect id="button" ry="5" rx="5" y="6" x="6" height="38" width="38"
                fill="#f2f5e9" fill-opacity="0.5" stroke="#606060" stroke-width="1.0"/>
           <path id="arrow"
             d="M 11.500037,31.436501 C 11.940474,20.09759 22.043105,11.32322 32.158766,21.979434 L 37.068811,17.246167 C 37.068811,17.246167 37.088388,32 37.088388,32 L 22.160133,31.978069 C 22.160133,31.978069 26.997745,27.140456 26.997745,27.140456 C 18.528582,18.264221 13.291696,25.230495 11.500037,31.436501 z"
             style="fill:#404040;"/>
          </a>
         </g>
        </svg>
</svg>
