<?xml version="1.0" encoding="UTF-8" standalone="no"?>
<!DOCTYPE svg PUBLIC "-//W3C//DTD SVG 1.1//EN"
 "http://www.w3.org/Graphics/SVG/1.1/DTD/svg11.dtd">
<!-- Generated by graphviz version 2.38.0 (20140413.2041)
 -->
<!-- Title: vtkvmtkItem.h Pages: 1 -->
<svg width="302pt" height="82pt"
 viewBox="0.00 0.00 302.42 82.00" xmlns="http://www.w3.org/2000/svg" xmlns:xlink="http://www.w3.org/1999/xlink">
<g id="graph0" class="graph" transform="scale(1 1) rotate(0) translate(4 78)">
<title>vtkvmtkItem.h</title>
<polygon fill="white" stroke="none" points="-4,4 -4,-78 298.421,-78 298.421,4 -4,4"/>
<!-- Node0 -->
<g id="node1" class="node"><title>Node0</title>
<polygon fill="#bfbfbf" stroke="black" points="82.1724,-55.5 82.1724,-73.5 159.847,-73.5 159.847,-55.5 82.1724,-55.5"/>
<text text-anchor="middle" x="121.01" y="-61.5" font-family="Helvetica,sans-Serif" font-size="10.00">vtkvmtkItem.h</text>
</g>
<!-- Node1 -->
<g id="node2" class="node"><title>Node1</title>
<polygon fill="white" stroke="#bfbfbf" points="0,-0.5 0,-18.5 66.0195,-18.5 66.0195,-0.5 0,-0.5"/>
<text text-anchor="middle" x="33.0098" y="-6.5" font-family="Helvetica,sans-Serif" font-size="10.00">vtkObject.h</text>
</g>
<!-- Node0&#45;&gt;Node1 -->
<g id="edge1" class="edge"><title>Node0&#45;&gt;Node1</title>
<path fill="none" stroke="midnightblue" d="M107.644,-55.4504C93.818,-47.1232 71.9795,-33.9704 55.4903,-24.0394"/>
<polygon fill="midnightblue" stroke="midnightblue" points="56.873,-20.7864 46.5009,-18.6253 53.2614,-26.7828 56.873,-20.7864"/>
</g>
<!-- Node2 -->
<g id="node3" class="node"><title>Node2</title>
<polygon fill="white" stroke="#bfbfbf" points="84.3843,-0.5 84.3843,-18.5 157.635,-18.5 157.635,-0.5 84.3843,-0.5"/>
<text text-anchor="middle" x="121.01" y="-6.5" font-family="Helvetica,sans-Serif" font-size="10.00">vtkDataSet.h</text>
</g>
<!-- Node0&#45;&gt;Node2 -->
<g id="edge2" class="edge"><title>Node0&#45;&gt;Node2</title>
<path fill="none" stroke="midnightblue" d="M121.01,-55.2188C121.01,-48.1769 121.01,-37.8083 121.01,-28.8277"/>
<polygon fill="midnightblue" stroke="midnightblue" points="124.51,-28.5495 121.01,-18.5496 117.51,-28.5496 124.51,-28.5495"/>
</g>
<!-- Node3 -->
<g id="node4" class="node"><title>Node3</title>
<polygon fill="white" stroke="#bfbfbf" points="175.599,-0.5 175.599,-18.5 294.421,-18.5 294.421,-0.5 175.599,-0.5"/>
<text text-anchor="middle" x="235.01" y="-6.5" font-family="Helvetica,sans-Serif" font-size="10.00">vtkvmtkWin32Header.h</text>
</g>
<!-- Node0&#45;&gt;Node3 -->
<g id="edge3" class="edge"><title>Node0&#45;&gt;Node3</title>
<path fill="none" stroke="midnightblue" d="M138.324,-55.4504C156.905,-46.8119 186.656,-32.9803 208.253,-22.9396"/>
<polygon fill="midnightblue" stroke="midnightblue" points="209.94,-26.0149 217.533,-18.6253 206.989,-19.6674 209.94,-26.0149"/>
</g>
</g>
</svg>
