<?xml version="1.0" encoding="UTF-8" standalone="no"?>
<!DOCTYPE svg PUBLIC "-//W3C//DTD SVG 1.1//EN"
 "http://www.w3.org/Graphics/SVG/1.1/DTD/svg11.dtd">
<!-- Generated by graphviz version 2.38.0 (20140413.2041)
 -->
<!-- Title: vtkvmtkPolyDataCenterlineMetricFilter.h Pages: 1 -->
<svg width="360pt" height="92pt"
 viewBox="0.00 0.00 359.81 92.00" xmlns="http://www.w3.org/2000/svg" xmlns:xlink="http://www.w3.org/1999/xlink">
<g id="graph0" class="graph" transform="scale(1 1) rotate(0) translate(4 88)">
<title>vtkvmtkPolyDataCenterlineMetricFilter.h</title>
<polygon fill="white" stroke="none" points="-4,4 -4,-88 355.812,-88 355.812,4 -4,4"/>
<!-- Node0 -->
<g id="node1" class="node"><title>Node0</title>
<polygon fill="#bfbfbf" stroke="black" points="128.943,-55.5 128.943,-83.5 264.987,-83.5 264.987,-55.5 128.943,-55.5"/>
<text text-anchor="start" x="136.943" y="-71.5" font-family="Helvetica,sans-Serif" font-size="10.00">vtkvmtkPolyDataCenterline</text>
<text text-anchor="middle" x="196.965" y="-61.5" font-family="Helvetica,sans-Serif" font-size="10.00">MetricFilter.h</text>
</g>
<!-- Node1 -->
<g id="node2" class="node"><title>Node1</title>
<polygon fill="white" stroke="#bfbfbf" points="0,-0.5 0,-18.5 119.931,-18.5 119.931,-0.5 0,-0.5"/>
<text text-anchor="middle" x="59.9653" y="-6.5" font-family="Helvetica,sans-Serif" font-size="10.00">vtkPolyDataAlgorithm.h</text>
</g>
<!-- Node0&#45;&gt;Node1 -->
<g id="edge1" class="edge"><title>Node0&#45;&gt;Node1</title>
<path fill="none" stroke="midnightblue" d="M166.22,-55.4837C142.992,-45.65 111.341,-32.2505 88.6364,-22.6381"/>
<polygon fill="midnightblue" stroke="midnightblue" points="89.7739,-19.319 79.2006,-18.6434 87.0448,-25.7651 89.7739,-19.319"/>
</g>
<!-- Node2 -->
<g id="node3" class="node"><title>Node2</title>
<polygon fill="white" stroke="#bfbfbf" points="137.554,-0.5 137.554,-18.5 256.376,-18.5 256.376,-0.5 137.554,-0.5"/>
<text text-anchor="middle" x="196.965" y="-6.5" font-family="Helvetica,sans-Serif" font-size="10.00">vtkvmtkWin32Header.h</text>
</g>
<!-- Node0&#45;&gt;Node2 -->
<g id="edge2" class="edge"><title>Node0&#45;&gt;Node2</title>
<path fill="none" stroke="midnightblue" d="M196.965,-55.3389C196.965,-47.5305 196.965,-37.5122 196.965,-28.9265"/>
<polygon fill="midnightblue" stroke="midnightblue" points="200.465,-28.7714 196.965,-18.7715 193.465,-28.7715 200.465,-28.7714"/>
</g>
<!-- Node3 -->
<g id="node4" class="node"><title>Node3</title>
<polygon fill="white" stroke="#bfbfbf" points="274.118,-0.5 274.118,-18.5 351.812,-18.5 351.812,-0.5 274.118,-0.5"/>
<text text-anchor="middle" x="312.965" y="-6.5" font-family="Helvetica,sans-Serif" font-size="10.00">vtkPolyData.h</text>
</g>
<!-- Node0&#45;&gt;Node3 -->
<g id="edge3" class="edge"><title>Node0&#45;&gt;Node3</title>
<path fill="none" stroke="midnightblue" d="M222.998,-55.4837C242.313,-45.8264 268.505,-32.73 287.647,-23.159"/>
<polygon fill="midnightblue" stroke="midnightblue" points="289.299,-26.2461 296.679,-18.6434 286.169,-19.9851 289.299,-26.2461"/>
</g>
</g>
</svg>
