<?xml version="1.0" encoding="UTF-8" standalone="no"?>
<!DOCTYPE svg PUBLIC "-//W3C//DTD SVG 1.1//EN"
 "http://www.w3.org/Graphics/SVG/1.1/DTD/svg11.dtd">
<!-- Generated by graphviz version 2.38.0 (20140413.2041)
 -->
<!-- Title: vtkvmtkFEAssembler.h Pages: 1 -->
<svg width="885pt" height="92pt"
 viewBox="0.00 0.00 884.71 92.00" xmlns="http://www.w3.org/2000/svg" xmlns:xlink="http://www.w3.org/1999/xlink">
<g id="graph0" class="graph" transform="scale(1 1) rotate(0) translate(4 88)">
<title>vtkvmtkFEAssembler.h</title>
<polygon fill="white" stroke="none" points="-4,4 -4,-88 880.707,-88 880.707,4 -4,4"/>
<!-- Node18 -->
<g id="node1" class="node"><title>Node18</title>
<polygon fill="#bfbfbf" stroke="black" points="345.951,-65.5 345.951,-83.5 463.645,-83.5 463.645,-65.5 345.951,-65.5"/>
<text text-anchor="middle" x="404.798" y="-71.5" font-family="Helvetica,sans-Serif" font-size="10.00">vtkvmtkFEAssembler.h</text>
</g>
<!-- Node19 -->
<g id="node2" class="node"><title>Node19</title>
<g id="a_node2"><a xlink:href="vtkvmtkPolyDataFEGradientAssembler_8h.html" target="_top" xlink:title="vtkvmtkPolyDataFEGradient\lAssembler.h">
<polygon fill="white" stroke="black" points="0,-0.5 0,-28.5 141.596,-28.5 141.596,-0.5 0,-0.5"/>
<text text-anchor="start" x="8" y="-16.5" font-family="Helvetica,sans-Serif" font-size="10.00">vtkvmtkPolyDataFEGradient</text>
<text text-anchor="middle" x="70.7979" y="-6.5" font-family="Helvetica,sans-Serif" font-size="10.00">Assembler.h</text>
</a>
</g>
</g>
<!-- Node18&#45;&gt;Node19 -->
<g id="edge1" class="edge"><title>Node18&#45;&gt;Node19</title>
<path fill="none" stroke="midnightblue" d="M348.809,-63.7774C291.9,-53.895 203.554,-38.5535 141.77,-27.8245"/>
<polygon fill="midnightblue" stroke="midnightblue" points="348.256,-67.2336 358.707,-65.4962 349.454,-60.3368 348.256,-67.2336"/>
</g>
<!-- Node20 -->
<g id="node3" class="node"><title>Node20</title>
<g id="a_node3"><a xlink:href="vtkvmtkPolyDataFELaplaceAssembler_8h.html" target="_top" xlink:title="vtkvmtkPolyDataFELaplace\lAssembler.h">
<polygon fill="white" stroke="black" points="159.663,-0.5 159.663,-28.5 297.933,-28.5 297.933,-0.5 159.663,-0.5"/>
<text text-anchor="start" x="167.663" y="-16.5" font-family="Helvetica,sans-Serif" font-size="10.00">vtkvmtkPolyDataFELaplace</text>
<text text-anchor="middle" x="228.798" y="-6.5" font-family="Helvetica,sans-Serif" font-size="10.00">Assembler.h</text>
</a>
</g>
</g>
<!-- Node18&#45;&gt;Node20 -->
<g id="edge2" class="edge"><title>Node18&#45;&gt;Node20</title>
<path fill="none" stroke="midnightblue" d="M370.533,-62.2083C341.215,-52.5466 299.003,-38.6359 268.275,-28.5096"/>
<polygon fill="midnightblue" stroke="midnightblue" points="369.733,-65.6296 380.326,-65.4353 371.924,-58.9812 369.733,-65.6296"/>
</g>
<!-- Node21 -->
<g id="node4" class="node"><title>Node21</title>
<g id="a_node4"><a xlink:href="vtkvmtkUnstructuredGridFEGradientAssembler_8h.html" target="_top" xlink:title="vtkvmtkUnstructuredGridFEGradient\lAssembler.h">
<polygon fill="white" stroke="black" points="316.219,-0.5 316.219,-28.5 493.376,-28.5 493.376,-0.5 316.219,-0.5"/>
<text text-anchor="start" x="324.219" y="-16.5" font-family="Helvetica,sans-Serif" font-size="10.00">vtkvmtkUnstructuredGridFEGradient</text>
<text text-anchor="middle" x="404.798" y="-6.5" font-family="Helvetica,sans-Serif" font-size="10.00">Assembler.h</text>
</a>
</g>
</g>
<!-- Node18&#45;&gt;Node21 -->
<g id="edge3" class="edge"><title>Node18&#45;&gt;Node21</title>
<path fill="none" stroke="midnightblue" d="M404.798,-55.3209C404.798,-46.747 404.798,-36.6999 404.798,-28.8428"/>
<polygon fill="midnightblue" stroke="midnightblue" points="401.298,-55.4353 404.798,-65.4353 408.298,-55.4354 401.298,-55.4353"/>
</g>
<!-- Node22 -->
<g id="node5" class="node"><title>Node22</title>
<g id="a_node5"><a xlink:href="vtkvmtkUnstructuredGridFELaplaceAssembler_8h.html" target="_top" xlink:title="vtkvmtkUnstructuredGridFELaplace\lAssembler.h">
<polygon fill="white" stroke="black" points="510.882,-0.5 510.882,-28.5 684.714,-28.5 684.714,-0.5 510.882,-0.5"/>
<text text-anchor="start" x="518.882" y="-16.5" font-family="Helvetica,sans-Serif" font-size="10.00">vtkvmtkUnstructuredGridFELaplace</text>
<text text-anchor="middle" x="597.798" y="-6.5" font-family="Helvetica,sans-Serif" font-size="10.00">Assembler.h</text>
</a>
</g>
</g>
<!-- Node18&#45;&gt;Node22 -->
<g id="edge4" class="edge"><title>Node18&#45;&gt;Node22</title>
<path fill="none" stroke="midnightblue" d="M441.533,-62.4604C473.713,-52.7899 520.517,-38.7244 554.507,-28.5096"/>
<polygon fill="midnightblue" stroke="midnightblue" points="440.203,-59.2053 431.634,-65.4353 442.218,-65.9092 440.203,-59.2053"/>
</g>
<!-- Node23 -->
<g id="node6" class="node"><title>Node23</title>
<g id="a_node6"><a xlink:href="vtkvmtkUnstructuredGridFEVorticityAssembler_8h.html" target="_top" xlink:title="vtkvmtkUnstructuredGridFEVorticity\lAssembler.h">
<polygon fill="white" stroke="black" points="702.889,-0.5 702.889,-28.5 876.707,-28.5 876.707,-0.5 702.889,-0.5"/>
<text text-anchor="start" x="710.889" y="-16.5" font-family="Helvetica,sans-Serif" font-size="10.00">vtkvmtkUnstructuredGridFEVorticity</text>
<text text-anchor="middle" x="789.798" y="-6.5" font-family="Helvetica,sans-Serif" font-size="10.00">Assembler.h</text>
</a>
</g>
</g>
<!-- Node18&#45;&gt;Node23 -->
<g id="edge5" class="edge"><title>Node18&#45;&gt;Node23</title>
<path fill="none" stroke="midnightblue" d="M467.9,-63.9938C532.01,-54.3355 631.78,-39.3053 703.249,-28.5385"/>
<polygon fill="midnightblue" stroke="midnightblue" points="467.293,-60.5455 457.926,-65.4962 468.336,-67.4674 467.293,-60.5455"/>
</g>
</g>
</svg>
