<?xml version="1.0" encoding="UTF-8" standalone="no"?>
<!DOCTYPE svg PUBLIC "-//W3C//DTD SVG 1.1//EN"
 "http://www.w3.org/Graphics/SVG/1.1/DTD/svg11.dtd">
<!-- Generated by graphviz version 2.38.0 (20140413.2041)
 -->
<!-- Title: vtkvmtkPolyDataBranchSections.h Pages: 1 -->
<svg width="360pt" height="82pt"
 viewBox="0.00 0.00 359.81 82.00" xmlns="http://www.w3.org/2000/svg" xmlns:xlink="http://www.w3.org/1999/xlink">
<g id="graph0" class="graph" transform="scale(1 1) rotate(0) translate(4 78)">
<title>vtkvmtkPolyDataBranchSections.h</title>
<polygon fill="white" stroke="none" points="-4,4 -4,-78 355.812,-78 355.812,4 -4,4"/>
<!-- Node0 -->
<g id="node1" class="node"><title>Node0</title>
<polygon fill="#bfbfbf" stroke="black" points="112.544,-55.5 112.544,-73.5 281.386,-73.5 281.386,-55.5 112.544,-55.5"/>
<text text-anchor="middle" x="196.965" y="-61.5" font-family="Helvetica,sans-Serif" font-size="10.00">vtkvmtkPolyDataBranchSections.h</text>
</g>
<!-- Node1 -->
<g id="node2" class="node"><title>Node1</title>
<polygon fill="white" stroke="#bfbfbf" points="0,-0.5 0,-18.5 119.931,-18.5 119.931,-0.5 0,-0.5"/>
<text text-anchor="middle" x="59.9653" y="-6.5" font-family="Helvetica,sans-Serif" font-size="10.00">vtkPolyDataAlgorithm.h</text>
</g>
<!-- Node0&#45;&gt;Node1 -->
<g id="edge1" class="edge"><title>Node0&#45;&gt;Node1</title>
<path fill="none" stroke="midnightblue" d="M176.158,-55.4504C153.325,-46.6173 116.457,-32.3546 90.382,-22.267"/>
<polygon fill="midnightblue" stroke="midnightblue" points="91.5578,-18.9692 80.9685,-18.6253 89.0321,-25.4977 91.5578,-18.9692"/>
</g>
<!-- Node2 -->
<g id="node3" class="node"><title>Node2</title>
<polygon fill="white" stroke="#bfbfbf" points="137.554,-0.5 137.554,-18.5 256.376,-18.5 256.376,-0.5 137.554,-0.5"/>
<text text-anchor="middle" x="196.965" y="-6.5" font-family="Helvetica,sans-Serif" font-size="10.00">vtkvmtkWin32Header.h</text>
</g>
<!-- Node0&#45;&gt;Node2 -->
<g id="edge2" class="edge"><title>Node0&#45;&gt;Node2</title>
<path fill="none" stroke="midnightblue" d="M196.965,-55.2188C196.965,-48.1769 196.965,-37.8083 196.965,-28.8277"/>
<polygon fill="midnightblue" stroke="midnightblue" points="200.465,-28.5495 196.965,-18.5496 193.465,-28.5496 200.465,-28.5495"/>
</g>
<!-- Node3 -->
<g id="node4" class="node"><title>Node3</title>
<polygon fill="white" stroke="#bfbfbf" points="274.118,-0.5 274.118,-18.5 351.812,-18.5 351.812,-0.5 274.118,-0.5"/>
<text text-anchor="middle" x="312.965" y="-6.5" font-family="Helvetica,sans-Serif" font-size="10.00">vtkPolyData.h</text>
</g>
<!-- Node0&#45;&gt;Node3 -->
<g id="edge3" class="edge"><title>Node0&#45;&gt;Node3</title>
<path fill="none" stroke="midnightblue" d="M214.583,-55.4504C233.575,-46.7729 264.036,-32.8556 286.036,-22.8041"/>
<polygon fill="midnightblue" stroke="midnightblue" points="287.541,-25.9646 295.182,-18.6253 284.631,-19.5977 287.541,-25.9646"/>
</g>
</g>
</svg>
