<?xml version="1.0" encoding="UTF-8" standalone="no"?>
<!DOCTYPE svg PUBLIC "-//W3C//DTD SVG 1.1//EN"
 "http://www.w3.org/Graphics/SVG/1.1/DTD/svg11.dtd">
<!-- Generated by graphviz version 2.38.0 (20140413.2041)
 -->
<!-- Title: vtkvmtkInternalTetrahedraExtractor.h Pages: 1 -->
<svg width="475pt" height="92pt"
 viewBox="0.00 0.00 475.16 92.00" xmlns="http://www.w3.org/2000/svg" xmlns:xlink="http://www.w3.org/1999/xlink">
<g id="graph0" class="graph" transform="scale(1 1) rotate(0) translate(4 88)">
<title>vtkvmtkInternalTetrahedraExtractor.h</title>
<polygon fill="white" stroke="none" points="-4,4 -4,-88 471.157,-88 471.157,4 -4,4"/>
<!-- Node0 -->
<g id="node1" class="node"><title>Node0</title>
<polygon fill="#bfbfbf" stroke="black" points="190.222,-55.5 190.222,-83.5 321.271,-83.5 321.271,-55.5 190.222,-55.5"/>
<text text-anchor="start" x="198.222" y="-71.5" font-family="Helvetica,sans-Serif" font-size="10.00">vtkvmtkInternalTetrahedra</text>
<text text-anchor="middle" x="255.746" y="-61.5" font-family="Helvetica,sans-Serif" font-size="10.00">Extractor.h</text>
</g>
<!-- Node1 -->
<g id="node2" class="node"><title>Node1</title>
<polygon fill="white" stroke="#bfbfbf" points="0,-0.5 0,-18.5 155.492,-18.5 155.492,-0.5 0,-0.5"/>
<text text-anchor="middle" x="77.7461" y="-6.5" font-family="Helvetica,sans-Serif" font-size="10.00">vtkUnstructuredGridAlgorithm.h</text>
</g>
<!-- Node0&#45;&gt;Node1 -->
<g id="edge1" class="edge"><title>Node0&#45;&gt;Node1</title>
<path fill="none" stroke="midnightblue" d="M215.799,-55.4837C184.581,-45.3113 141.652,-31.3232 111.992,-21.6587"/>
<polygon fill="midnightblue" stroke="midnightblue" points="113.07,-18.3291 102.478,-18.5587 110.902,-24.9847 113.07,-18.3291"/>
</g>
<!-- Node2 -->
<g id="node3" class="node"><title>Node2</title>
<polygon fill="white" stroke="#bfbfbf" points="173.899,-0.5 173.899,-18.5 251.593,-18.5 251.593,-0.5 173.899,-0.5"/>
<text text-anchor="middle" x="212.746" y="-6.5" font-family="Helvetica,sans-Serif" font-size="10.00">vtkPolyData.h</text>
</g>
<!-- Node0&#45;&gt;Node2 -->
<g id="edge2" class="edge"><title>Node0&#45;&gt;Node2</title>
<path fill="none" stroke="midnightblue" d="M245.989,-55.3389C239.744,-46.9164 231.594,-35.9226 224.926,-26.929"/>
<polygon fill="midnightblue" stroke="midnightblue" points="227.646,-24.7201 218.878,-18.7715 222.022,-28.8891 227.646,-24.7201"/>
</g>
<!-- Node3 -->
<g id="node4" class="node"><title>Node3</title>
<polygon fill="white" stroke="#bfbfbf" points="269.236,-0.5 269.236,-18.5 330.256,-18.5 330.256,-0.5 269.236,-0.5"/>
<text text-anchor="middle" x="299.746" y="-6.5" font-family="Helvetica,sans-Serif" font-size="10.00">vtkIdList.h</text>
</g>
<!-- Node0&#45;&gt;Node3 -->
<g id="edge3" class="edge"><title>Node0&#45;&gt;Node3</title>
<path fill="none" stroke="midnightblue" d="M265.73,-55.3389C272.12,-46.9164 280.46,-35.9226 287.283,-26.929"/>
<polygon fill="midnightblue" stroke="midnightblue" points="290.216,-28.8538 293.471,-18.7715 284.639,-24.623 290.216,-28.8538"/>
</g>
<!-- Node4 -->
<g id="node5" class="node"><title>Node4</title>
<polygon fill="white" stroke="#bfbfbf" points="348.335,-0.5 348.335,-18.5 467.157,-18.5 467.157,-0.5 348.335,-0.5"/>
<text text-anchor="middle" x="407.746" y="-6.5" font-family="Helvetica,sans-Serif" font-size="10.00">vtkvmtkWin32Header.h</text>
</g>
<!-- Node0&#45;&gt;Node4 -->
<g id="edge4" class="edge"><title>Node0&#45;&gt;Node4</title>
<path fill="none" stroke="midnightblue" d="M289.858,-55.4837C315.976,-45.5177 351.691,-31.8893 376.947,-22.2523"/>
<polygon fill="midnightblue" stroke="midnightblue" points="378.31,-25.4786 386.405,-18.6434 375.814,-18.9385 378.31,-25.4786"/>
</g>
</g>
</svg>
