<?xml version="1.0" encoding="UTF-8" standalone="no"?>
<!DOCTYPE svg PUBLIC "-//W3C//DTD SVG 1.1//EN"
 "http://www.w3.org/Graphics/SVG/1.1/DTD/svg11.dtd">
<!-- Generated by graphviz version 2.38.0 (20140413.2041)
 -->
<!-- Title: vtkvmtkPolyDataStencilFlowFilter.h Pages: 1 -->
<svg width="386pt" height="92pt"
 viewBox="0.00 0.00 386.38 92.00" xmlns="http://www.w3.org/2000/svg" xmlns:xlink="http://www.w3.org/1999/xlink">
<g id="graph0" class="graph" transform="scale(1 1) rotate(0) translate(4 88)">
<title>vtkvmtkPolyDataStencilFlowFilter.h</title>
<polygon fill="white" stroke="none" points="-4,4 -4,-88 382.376,-88 382.376,4 -4,4"/>
<!-- Node0 -->
<g id="node1" class="node"><title>Node0</title>
<polygon fill="#bfbfbf" stroke="black" points="119.17,-55.5 119.17,-83.5 260.761,-83.5 260.761,-55.5 119.17,-55.5"/>
<text text-anchor="start" x="127.17" y="-71.5" font-family="Helvetica,sans-Serif" font-size="10.00">vtkvmtkPolyDataStencilFlow</text>
<text text-anchor="middle" x="189.965" y="-61.5" font-family="Helvetica,sans-Serif" font-size="10.00">Filter.h</text>
</g>
<!-- Node1 -->
<g id="node2" class="node"><title>Node1</title>
<polygon fill="white" stroke="#bfbfbf" points="0,-0.5 0,-18.5 119.931,-18.5 119.931,-0.5 0,-0.5"/>
<text text-anchor="middle" x="59.9653" y="-6.5" font-family="Helvetica,sans-Serif" font-size="10.00">vtkPolyDataAlgorithm.h</text>
</g>
<!-- Node0&#45;&gt;Node1 -->
<g id="edge1" class="edge"><title>Node0&#45;&gt;Node1</title>
<path fill="none" stroke="midnightblue" d="M160.791,-55.4837C138.849,-45.6941 108.986,-32.3706 87.4618,-22.7677"/>
<polygon fill="midnightblue" stroke="midnightblue" points="88.7762,-19.5216 78.2178,-18.6434 85.9241,-25.9142 88.7762,-19.5216"/>
</g>
<!-- Node2 -->
<g id="node3" class="node"><title>Node2</title>
<g id="a_node3"><a xlink:href="vtkvmtkConstants_8h.html" target="_top" xlink:title="vtkvmtkConstants.h">
<polygon fill="white" stroke="black" points="138.34,-0.5 138.34,-18.5 241.591,-18.5 241.591,-0.5 138.34,-0.5"/>
<text text-anchor="middle" x="189.965" y="-6.5" font-family="Helvetica,sans-Serif" font-size="10.00">vtkvmtkConstants.h</text>
</a>
</g>
</g>
<!-- Node0&#45;&gt;Node2 -->
<g id="edge2" class="edge"><title>Node0&#45;&gt;Node2</title>
<path fill="none" stroke="midnightblue" d="M189.965,-55.3389C189.965,-47.5305 189.965,-37.5122 189.965,-28.9265"/>
<polygon fill="midnightblue" stroke="midnightblue" points="193.465,-28.7714 189.965,-18.7715 186.465,-28.7715 193.465,-28.7714"/>
</g>
<!-- Node3 -->
<g id="node4" class="node"><title>Node3</title>
<polygon fill="white" stroke="#bfbfbf" points="259.554,-0.5 259.554,-18.5 378.376,-18.5 378.376,-0.5 259.554,-0.5"/>
<text text-anchor="middle" x="318.965" y="-6.5" font-family="Helvetica,sans-Serif" font-size="10.00">vtkvmtkWin32Header.h</text>
</g>
<!-- Node0&#45;&gt;Node3 -->
<g id="edge3" class="edge"><title>Node0&#45;&gt;Node3</title>
<path fill="none" stroke="midnightblue" d="M218.915,-55.4837C240.689,-45.6941 270.322,-32.3706 291.68,-22.7677"/>
<polygon fill="midnightblue" stroke="midnightblue" points="293.168,-25.9364 300.853,-18.6434 290.297,-19.552 293.168,-25.9364"/>
</g>
</g>
</svg>
