<?xml version="1.0" encoding="UTF-8" standalone="no"?>
<!DOCTYPE svg PUBLIC "-//W3C//DTD SVG 1.1//EN"
 "http://www.w3.org/Graphics/SVG/1.1/DTD/svg11.dtd">
<!-- Generated by graphviz version 2.38.0 (20140413.2041)
 -->
<!-- Title: vtkvmtkDataSetItem.h Pages: 1 -->
<svg width="302pt" height="137pt"
 viewBox="0.00 0.00 302.42 137.00" xmlns="http://www.w3.org/2000/svg" xmlns:xlink="http://www.w3.org/1999/xlink">
<g id="graph0" class="graph" transform="scale(1 1) rotate(0) translate(4 133)">
<title>vtkvmtkDataSetItem.h</title>
<polygon fill="white" stroke="none" points="-4,4 -4,-133 298.421,-133 298.421,4 -4,4"/>
<!-- Node0 -->
<g id="node1" class="node"><title>Node0</title>
<polygon fill="#bfbfbf" stroke="black" points="87.106,-110.5 87.106,-128.5 200.914,-128.5 200.914,-110.5 87.106,-110.5"/>
<text text-anchor="middle" x="144.01" y="-116.5" font-family="Helvetica,sans-Serif" font-size="10.00">vtkvmtkDataSetItem.h</text>
</g>
<!-- Node1 -->
<g id="node2" class="node"><title>Node1</title>
<polygon fill="white" stroke="#bfbfbf" points="0,-0.5 0,-18.5 66.0195,-18.5 66.0195,-0.5 0,-0.5"/>
<text text-anchor="middle" x="33.0098" y="-6.5" font-family="Helvetica,sans-Serif" font-size="10.00">vtkObject.h</text>
</g>
<!-- Node0&#45;&gt;Node1 -->
<g id="edge1" class="edge"><title>Node0&#45;&gt;Node1</title>
<path fill="none" stroke="midnightblue" d="M120.887,-110.363C103.15,-103.137 79.0612,-91.0619 63.0098,-74 50.88,-61.1066 42.8593,-42.4134 38.1884,-28.646"/>
<polygon fill="midnightblue" stroke="midnightblue" points="41.4585,-27.3749 35.1461,-18.8659 34.7745,-29.4542 41.4585,-27.3749"/>
</g>
<!-- Node2 -->
<g id="node3" class="node"><title>Node2</title>
<g id="a_node3"><a xlink:href="vtkvmtkItem_8h.html" target="_top" xlink:title="vtkvmtkItem.h">
<polygon fill="white" stroke="black" points="72.1724,-55.5 72.1724,-73.5 149.847,-73.5 149.847,-55.5 72.1724,-55.5"/>
<text text-anchor="middle" x="111.01" y="-61.5" font-family="Helvetica,sans-Serif" font-size="10.00">vtkvmtkItem.h</text>
</a>
</g>
</g>
<!-- Node0&#45;&gt;Node2 -->
<g id="edge2" class="edge"><title>Node0&#45;&gt;Node2</title>
<path fill="none" stroke="midnightblue" d="M138.854,-110.219C134.177,-102.707 127.143,-91.411 121.315,-82.0515"/>
<polygon fill="midnightblue" stroke="midnightblue" points="124.279,-80.1886 116.022,-73.5496 118.336,-83.8885 124.279,-80.1886"/>
</g>
<!-- Node3 -->
<g id="node4" class="node"><title>Node3</title>
<polygon fill="white" stroke="#bfbfbf" points="84.3843,-0.5 84.3843,-18.5 157.635,-18.5 157.635,-0.5 84.3843,-0.5"/>
<text text-anchor="middle" x="121.01" y="-6.5" font-family="Helvetica,sans-Serif" font-size="10.00">vtkDataSet.h</text>
</g>
<!-- Node0&#45;&gt;Node3 -->
<g id="edge6" class="edge"><title>Node0&#45;&gt;Node3</title>
<path fill="none" stroke="midnightblue" d="M148.834,-110.498C155.553,-98.2773 166.145,-74.3425 159.01,-55 154.896,-43.8482 146.605,-33.5948 138.815,-25.748"/>
<polygon fill="midnightblue" stroke="midnightblue" points="141.052,-23.0479 131.364,-18.7592 136.263,-28.1533 141.052,-23.0479"/>
</g>
<!-- Node4 -->
<g id="node5" class="node"><title>Node4</title>
<polygon fill="white" stroke="#bfbfbf" points="175.599,-0.5 175.599,-18.5 294.421,-18.5 294.421,-0.5 175.599,-0.5"/>
<text text-anchor="middle" x="235.01" y="-6.5" font-family="Helvetica,sans-Serif" font-size="10.00">vtkvmtkWin32Header.h</text>
</g>
<!-- Node0&#45;&gt;Node4 -->
<g id="edge7" class="edge"><title>Node0&#45;&gt;Node4</title>
<path fill="none" stroke="midnightblue" d="M150.85,-110.382C165.803,-92.6349 201.645,-50.0981 221.389,-26.6656"/>
<polygon fill="midnightblue" stroke="midnightblue" points="224.324,-28.6143 228.091,-18.7118 218.97,-24.1038 224.324,-28.6143"/>
</g>
<!-- Node2&#45;&gt;Node1 -->
<g id="edge3" class="edge"><title>Node2&#45;&gt;Node1</title>
<path fill="none" stroke="midnightblue" d="M99.1632,-55.4504C87.0225,-47.201 67.9123,-34.2158 53.3467,-24.3187"/>
<polygon fill="midnightblue" stroke="midnightblue" points="55.2061,-21.3506 44.9678,-18.6253 51.2719,-27.1405 55.2061,-21.3506"/>
</g>
<!-- Node2&#45;&gt;Node3 -->
<g id="edge4" class="edge"><title>Node2&#45;&gt;Node3</title>
<path fill="none" stroke="midnightblue" d="M112.572,-55.2188C113.916,-48.0986 115.901,-37.5775 117.608,-28.5289"/>
<polygon fill="midnightblue" stroke="midnightblue" points="121.076,-29.0251 119.491,-18.5496 114.198,-27.7272 121.076,-29.0251"/>
</g>
<!-- Node2&#45;&gt;Node4 -->
<g id="edge5" class="edge"><title>Node2&#45;&gt;Node4</title>
<path fill="none" stroke="midnightblue" d="M129.843,-55.4504C150.236,-46.734 182.998,-32.7306 206.539,-22.6691"/>
<polygon fill="midnightblue" stroke="midnightblue" points="208.18,-25.774 216,-18.6253 205.429,-19.3373 208.18,-25.774"/>
</g>
</g>
</svg>
