<?xml version="1.0" encoding="UTF-8" standalone="no"?>
<!DOCTYPE svg PUBLIC "-//W3C//DTD SVG 1.1//EN"
 "http://www.w3.org/Graphics/SVG/1.1/DTD/svg11.dtd">
<!-- Generated by graphviz version 2.38.0 (20140413.2041)
 -->
<!-- Title: vtkvmtkVesselnessMeasureImageFilter.h Pages: 1 -->
<svg width="404pt" height="92pt"
 viewBox="0.00 0.00 403.77 92.00" xmlns="http://www.w3.org/2000/svg" xmlns:xlink="http://www.w3.org/1999/xlink">
<g id="graph0" class="graph" transform="scale(1 1) rotate(0) translate(4 88)">
<title>vtkvmtkVesselnessMeasureImageFilter.h</title>
<polygon fill="white" stroke="none" points="-4,4 -4,-88 399.771,-88 399.771,4 -4,4"/>
<!-- Node0 -->
<g id="node1" class="node"><title>Node0</title>
<polygon fill="#bfbfbf" stroke="black" points="163.062,-55.5 163.062,-83.5 302.445,-83.5 302.445,-55.5 163.062,-55.5"/>
<text text-anchor="start" x="171.062" y="-71.5" font-family="Helvetica,sans-Serif" font-size="10.00">vtkvmtkVesselnessMeasure</text>
<text text-anchor="middle" x="232.753" y="-61.5" font-family="Helvetica,sans-Serif" font-size="10.00">ImageFilter.h</text>
</g>
<!-- Node1 -->
<g id="node2" class="node"><title>Node1</title>
<polygon fill="white" stroke="#bfbfbf" points="0,-0.5 0,-18.5 155.507,-18.5 155.507,-0.5 0,-0.5"/>
<text text-anchor="middle" x="77.7534" y="-6.5" font-family="Helvetica,sans-Serif" font-size="10.00">vtkSimpleImageToImageFilter.h</text>
</g>
<!-- Node0&#45;&gt;Node1 -->
<g id="edge1" class="edge"><title>Node0&#45;&gt;Node1</title>
<path fill="none" stroke="midnightblue" d="M197.968,-55.4837C171.335,-45.5177 134.914,-31.8893 109.16,-22.2523"/>
<polygon fill="midnightblue" stroke="midnightblue" points="110.108,-18.8701 99.516,-18.6434 107.655,-25.4261 110.108,-18.8701"/>
</g>
<!-- Node2 -->
<g id="node3" class="node"><title>Node2</title>
<polygon fill="white" stroke="#bfbfbf" points="173.342,-0.5 173.342,-18.5 292.165,-18.5 292.165,-0.5 173.342,-0.5"/>
<text text-anchor="middle" x="232.753" y="-6.5" font-family="Helvetica,sans-Serif" font-size="10.00">vtkvmtkWin32Header.h</text>
</g>
<!-- Node0&#45;&gt;Node2 -->
<g id="edge2" class="edge"><title>Node0&#45;&gt;Node2</title>
<path fill="none" stroke="midnightblue" d="M232.753,-55.3389C232.753,-47.5305 232.753,-37.5122 232.753,-28.9265"/>
<polygon fill="midnightblue" stroke="midnightblue" points="236.254,-28.7714 232.753,-18.7715 229.254,-28.7715 236.254,-28.7714"/>
</g>
<!-- Node3 -->
<g id="node4" class="node"><title>Node3</title>
<polygon fill="white" stroke="#bfbfbf" points="309.736,-0.5 309.736,-18.5 395.771,-18.5 395.771,-0.5 309.736,-0.5"/>
<text text-anchor="middle" x="352.753" y="-6.5" font-family="Helvetica,sans-Serif" font-size="10.00">vtkImageData.h</text>
</g>
<!-- Node0&#45;&gt;Node3 -->
<g id="edge3" class="edge"><title>Node0&#45;&gt;Node3</title>
<path fill="none" stroke="midnightblue" d="M259.684,-55.4837C279.756,-45.7823 307.008,-32.6103 326.833,-23.0281"/>
<polygon fill="midnightblue" stroke="midnightblue" points="328.425,-26.1464 335.905,-18.6434 325.378,-19.8439 328.425,-26.1464"/>
</g>
</g>
</svg>
