<?xml version="1.0" encoding="UTF-8" standalone="no"?>
<!DOCTYPE svg PUBLIC "-//W3C//DTD SVG 1.1//EN"
 "http://www.w3.org/Graphics/SVG/1.1/DTD/svg11.dtd">
<!-- Generated by graphviz version 2.38.0 (20140413.2041)
 -->
<!-- Title: vtkvmtkCurvesLevelSetImageFilter.h Pages: 1 -->
<svg width="404pt" height="92pt"
 viewBox="0.00 0.00 404.16 92.00" xmlns="http://www.w3.org/2000/svg" xmlns:xlink="http://www.w3.org/1999/xlink">
<g id="graph0" class="graph" transform="scale(1 1) rotate(0) translate(4 88)">
<title>vtkvmtkCurvesLevelSetImageFilter.h</title>
<polygon fill="white" stroke="none" points="-4,4 -4,-88 400.165,-88 400.165,4 -4,4"/>
<!-- Node0 -->
<g id="node1" class="node"><title>Node0</title>
<polygon fill="#bfbfbf" stroke="black" points="142.618,-55.5 142.618,-83.5 290.889,-83.5 290.889,-55.5 142.618,-55.5"/>
<text text-anchor="start" x="150.618" y="-71.5" font-family="Helvetica,sans-Serif" font-size="10.00">vtkvmtkCurvesLevelSetImage</text>
<text text-anchor="middle" x="216.753" y="-61.5" font-family="Helvetica,sans-Serif" font-size="10.00">Filter.h</text>
</g>
<!-- Node1 -->
<g id="node2" class="node"><title>Node1</title>
<polygon fill="white" stroke="#bfbfbf" points="0,-0.5 0,-18.5 155.507,-18.5 155.507,-0.5 0,-0.5"/>
<text text-anchor="middle" x="77.7534" y="-6.5" font-family="Helvetica,sans-Serif" font-size="10.00">vtkSimpleImageToImageFilter.h</text>
</g>
<!-- Node0&#45;&gt;Node1 -->
<g id="edge1" class="edge"><title>Node0&#45;&gt;Node1</title>
<path fill="none" stroke="midnightblue" d="M185.559,-55.4837C161.886,-45.6059 129.591,-32.1302 106.534,-22.509"/>
<polygon fill="midnightblue" stroke="midnightblue" points="107.846,-19.2643 97.2695,-18.6434 105.151,-25.7244 107.846,-19.2643"/>
</g>
<!-- Node2 -->
<g id="node3" class="node"><title>Node2</title>
<polygon fill="white" stroke="#bfbfbf" points="173.736,-0.5 173.736,-18.5 259.771,-18.5 259.771,-0.5 173.736,-0.5"/>
<text text-anchor="middle" x="216.753" y="-6.5" font-family="Helvetica,sans-Serif" font-size="10.00">vtkImageData.h</text>
</g>
<!-- Node0&#45;&gt;Node2 -->
<g id="edge2" class="edge"><title>Node0&#45;&gt;Node2</title>
<path fill="none" stroke="midnightblue" d="M216.753,-55.3389C216.753,-47.5305 216.753,-37.5122 216.753,-28.9265"/>
<polygon fill="midnightblue" stroke="midnightblue" points="220.254,-28.7714 216.753,-18.7715 213.254,-28.7715 220.254,-28.7714"/>
</g>
<!-- Node3 -->
<g id="node4" class="node"><title>Node3</title>
<polygon fill="white" stroke="#bfbfbf" points="277.342,-0.5 277.342,-18.5 396.165,-18.5 396.165,-0.5 277.342,-0.5"/>
<text text-anchor="middle" x="336.753" y="-6.5" font-family="Helvetica,sans-Serif" font-size="10.00">vtkvmtkWin32Header.h</text>
</g>
<!-- Node0&#45;&gt;Node3 -->
<g id="edge3" class="edge"><title>Node0&#45;&gt;Node3</title>
<path fill="none" stroke="midnightblue" d="M243.684,-55.4837C263.756,-45.7823 291.008,-32.6103 310.833,-23.0281"/>
<polygon fill="midnightblue" stroke="midnightblue" points="312.425,-26.1464 319.905,-18.6434 309.378,-19.8439 312.425,-26.1464"/>
</g>
</g>
</svg>
