<?xml version="1.0" encoding="UTF-8" standalone="no"?>
<!DOCTYPE svg PUBLIC "-//W3C//DTD SVG 1.1//EN"
 "http://www.w3.org/Graphics/SVG/1.1/DTD/svg11.dtd">
<!-- Generated by graphviz version 2.38.0 (20140413.2041)
 -->
<!-- Title: vtkvmtkSteepestDescentLineTracer.h Pages: 1 -->
<!--zoomable 157 -->
<svg id="main" version="1.1" xmlns="http://www.w3.org/2000/svg" xmlns:xlink="http://www.w3.org/1999/xlink" xml:space="preserve" onload="init(evt)">
<style type="text/css"><![CDATA[
.edge:hover path { stroke: red; }
.edge:hover polygon { stroke: red; fill: red; }
]]></style>
<script type="text/javascript"><![CDATA[
var edges = document.getElementsByTagName('g');
if (edges && edges.length) {
  for (var i=0;i<edges.length;i++) {
    if (edges[i].id.substr(0,4)=='edge') {
      edges[i].setAttribute('class','edge');
    }
  }
}
]]></script>
        <defs>
                <circle id="rim" cx="0" cy="0" r="7"/>
                <circle id="rim2" cx="0" cy="0" r="3.5"/>
                <g id="zoomPlus">
                        <use xlink:href="#rim" fill="#404040">
                                <set attributeName="fill" to="#808080" begin="zoomplus.mouseover" end="zoomplus.mouseout"/>
                        </use>
                        <path d="M-4,0h8M0,-4v8" fill="none" stroke="white" stroke-width="1.5" pointer-events="none"/>
                </g>
                <g id="zoomMin">
                        <use xlink:href="#rim" fill="#404040">
                                <set attributeName="fill" to="#808080" begin="zoomminus.mouseover" end="zoomminus.mouseout"/>
                        </use>
                        <path d="M-4,0h8" fill="none" stroke="white" stroke-width="1.5" pointer-events="none"/>
                </g>
                <g id="dirArrow">
                        <path fill="none" stroke="white" stroke-width="1.5" d="M0,-3.0v7 M-2.5,-0.5L0,-3.0L2.5,-0.5"/>
                </g>
               <g id="resetDef">
                       <use xlink:href="#rim2" fill="#404040">
                               <set attributeName="fill" to="#808080" begin="reset.mouseover" end="reset.mouseout"/>
                       </use>
               </g>
        </defs>

<script type="text/javascript">
var viewWidth = 588;
var viewHeight = 157;
var sectionId = 'dynsection-0';
</script>
<script xlink:href="svgpan.js"/>
<svg id="graph" class="graph">
<g id="viewport">
<title>vtkvmtkSteepestDescentLineTracer.h</title>
<polygon fill="white" stroke="none" points="-4,4 -4,-153 584.475,-153 584.475,4 -4,4"/>
<!-- Node0 -->
<g id="node1" class="node"><title>Node0</title>
<polygon fill="#bfbfbf" stroke="black" points="283.49,-120.5 283.49,-148.5 428.44,-148.5 428.44,-120.5 283.49,-120.5"/>
<text text-anchor="start" x="291.49" y="-136.5" font-family="Helvetica,sans-Serif" font-size="10.00">vtkvmtkSteepestDescentLine</text>
<text text-anchor="middle" x="355.965" y="-126.5" font-family="Helvetica,sans-Serif" font-size="10.00">Tracer.h</text>
</g>
<!-- Node1 -->
<g id="node2" class="node"><title>Node1</title>
<g id="a_node2"><a xlink:href="vtkvmtkNonManifoldSteepestDescent_8h.html" target="_top" xlink:title="vtkvmtkNonManifoldSteepest\lDescent.h">
<polygon fill="white" stroke="black" points="110.214,-55.5 110.214,-83.5 255.716,-83.5 255.716,-55.5 110.214,-55.5"/>
<text text-anchor="start" x="118.214" y="-71.5" font-family="Helvetica,sans-Serif" font-size="10.00">vtkvmtkNonManifoldSteepest</text>
<text text-anchor="middle" x="182.965" y="-61.5" font-family="Helvetica,sans-Serif" font-size="10.00">Descent.h</text>
</a>
</g>
</g>
<!-- Node0&#45;&gt;Node1 -->
<g id="edge1" class="edge"><title>Node0&#45;&gt;Node1</title>
<path fill="none" stroke="midnightblue" d="M320.12,-120.446C293.444,-110.732 256.845,-97.4041 228.163,-86.9592"/>
<polygon fill="midnightblue" stroke="midnightblue" points="229.359,-83.6701 218.765,-83.5369 226.964,-90.2475 229.359,-83.6701"/>
</g>
<!-- Node4 -->
<g id="node5" class="node"><title>Node4</title>
<polygon fill="white" stroke="#bfbfbf" points="237.554,-0.5 237.554,-18.5 356.376,-18.5 356.376,-0.5 237.554,-0.5"/>
<text text-anchor="middle" x="296.965" y="-6.5" font-family="Helvetica,sans-Serif" font-size="10.00">vtkvmtkWin32Header.h</text>
</g>
<!-- Node0&#45;&gt;Node4 -->
<g id="edge8" class="edge"><title>Node0&#45;&gt;Node4</title>
<path fill="none" stroke="midnightblue" d="M340.222,-120.383C330.28,-111.219 318.02,-98.1321 310.965,-84 302.273,-66.5886 298.96,-44.3845 297.707,-28.9599"/>
<polygon fill="midnightblue" stroke="midnightblue" points="301.183,-28.4523 297.095,-18.6778 294.195,-28.8681 301.183,-28.4523"/>
</g>
<!-- Node5 -->
<g id="node6" class="node"><title>Node5</title>
<polygon fill="white" stroke="#bfbfbf" points="320.27,-60.5 320.27,-78.5 391.661,-78.5 391.661,-60.5 320.27,-60.5"/>
<text text-anchor="middle" x="355.965" y="-66.5" font-family="Helvetica,sans-Serif" font-size="10.00">vtkIntArray.h</text>
</g>
<!-- Node0&#45;&gt;Node5 -->
<g id="edge5" class="edge"><title>Node0&#45;&gt;Node5</title>
<path fill="none" stroke="midnightblue" d="M355.965,-120.446C355.965,-111.334 355.965,-99.0406 355.965,-88.9308"/>
<polygon fill="midnightblue" stroke="midnightblue" points="359.465,-88.7301 355.965,-78.7301 352.465,-88.7301 359.465,-88.7301"/>
</g>
<!-- Node6 -->
<g id="node7" class="node"><title>Node6</title>
<polygon fill="white" stroke="#bfbfbf" points="409.984,-60.5 409.984,-78.5 501.946,-78.5 501.946,-60.5 409.984,-60.5"/>
<text text-anchor="middle" x="455.965" y="-66.5" font-family="Helvetica,sans-Serif" font-size="10.00">vtkDoubleArray.h</text>
</g>
<!-- Node0&#45;&gt;Node6 -->
<g id="edge6" class="edge"><title>Node0&#45;&gt;Node6</title>
<path fill="none" stroke="midnightblue" d="M376.685,-120.446C393.58,-109.803 417.36,-94.8214 434.463,-84.0468"/>
<polygon fill="midnightblue" stroke="midnightblue" points="436.595,-86.8397 443.191,-78.548 432.864,-80.9171 436.595,-86.8397"/>
</g>
<!-- Node7 -->
<g id="node8" class="node"><title>Node7</title>
<polygon fill="white" stroke="#bfbfbf" points="519.456,-60.5 519.456,-78.5 580.475,-78.5 580.475,-60.5 519.456,-60.5"/>
<text text-anchor="middle" x="549.965" y="-66.5" font-family="Helvetica,sans-Serif" font-size="10.00">vtkIdList.h</text>
</g>
<!-- Node0&#45;&gt;Node7 -->
<g id="edge7" class="edge"><title>Node0&#45;&gt;Node7</title>
<path fill="none" stroke="midnightblue" d="M397.829,-120.431C429.07,-110.606 472.769,-96.7078 510.965,-84 513.064,-83.3016 515.224,-82.5754 517.4,-81.8381"/>
<polygon fill="midnightblue" stroke="midnightblue" points="518.571,-85.1366 526.9,-78.5874 516.305,-78.5136 518.571,-85.1366"/>
</g>
<!-- Node2 -->
<g id="node3" class="node"><title>Node2</title>
<polygon fill="white" stroke="#bfbfbf" points="0,-0.5 0,-18.5 119.931,-18.5 119.931,-0.5 0,-0.5"/>
<text text-anchor="middle" x="59.9653" y="-6.5" font-family="Helvetica,sans-Serif" font-size="10.00">vtkPolyDataAlgorithm.h</text>
</g>
<!-- Node1&#45;&gt;Node2 -->
<g id="edge2" class="edge"><title>Node1&#45;&gt;Node2</title>
<path fill="none" stroke="midnightblue" d="M155.362,-55.4837C134.788,-45.7823 106.854,-32.6103 86.5336,-23.0281"/>
<polygon fill="midnightblue" stroke="midnightblue" points="87.7726,-19.7428 77.235,-18.6434 84.787,-26.0742 87.7726,-19.7428"/>
</g>
<!-- Node3 -->
<g id="node4" class="node"><title>Node3</title>
<polygon fill="white" stroke="#bfbfbf" points="138.268,-0.5 138.268,-18.5 219.663,-18.5 219.663,-0.5 138.268,-0.5"/>
<text text-anchor="middle" x="178.965" y="-6.5" font-family="Helvetica,sans-Serif" font-size="10.00">vtkDataArray.h</text>
</g>
<!-- Node1&#45;&gt;Node3 -->
<g id="edge3" class="edge"><title>Node1&#45;&gt;Node3</title>
<path fill="none" stroke="midnightblue" d="M182.058,-55.3389C181.519,-47.5305 180.828,-37.5122 180.236,-28.9265"/>
<polygon fill="midnightblue" stroke="midnightblue" points="183.716,-28.5069 179.536,-18.7715 176.732,-28.9886 183.716,-28.5069"/>
</g>
<!-- Node1&#45;&gt;Node4 -->
<g id="edge4" class="edge"><title>Node1&#45;&gt;Node4</title>
<path fill="none" stroke="midnightblue" d="M208.549,-55.4837C227.444,-45.8705 253.037,-32.8495 271.826,-23.2903"/>
<polygon fill="midnightblue" stroke="midnightblue" points="273.634,-26.2975 280.959,-18.6434 270.459,-20.0586 273.634,-26.2975"/>
</g>
</g>
</svg>
        <g id="navigator" transform="translate(0 0)" fill="#404254">
                <rect fill="#f2f5e9" fill-opacity="0.5" stroke="#606060" stroke-width=".5" x="0" y="0" width="60" height="60"/>
                <use id="zoomplus" xlink:href="#zoomPlus" x="17" y="9" onmousedown="handleZoom(evt,'in')"/>
                <use id="zoomminus" xlink:href="#zoomMin" x="42" y="9" onmousedown="handleZoom(evt,'out')"/>
                <use id="reset" xlink:href="#resetDef" x="30" y="36" onmousedown="handleReset()"/>
                <g id="arrowUp" xlink:href="#dirArrow" transform="translate(30 24)" onmousedown="handlePan(0,-1)">
                  <use xlink:href="#rim" fill="#404040">
                        <set attributeName="fill" to="#808080" begin="arrowUp.mouseover" end="arrowUp.mouseout"/>
                  </use>
                  <path fill="none" stroke="white" stroke-width="1.5" d="M0,-3.0v7 M-2.5,-0.5L0,-3.0L2.5,-0.5"/>
                </g>
                <g id="arrowRight" xlink:href="#dirArrow" transform="rotate(90) translate(36 -43)" onmousedown="handlePan(1,0)">
                  <use xlink:href="#rim" fill="#404040">
                        <set attributeName="fill" to="#808080" begin="arrowRight.mouseover" end="arrowRight.mouseout"/>
                  </use>
                  <path fill="none" stroke="white" stroke-width="1.5" d="M0,-3.0v7 M-2.5,-0.5L0,-3.0L2.5,-0.5"/>
                </g>
                <g id="arrowDown" xlink:href="#dirArrow" transform="rotate(180) translate(-30 -48)" onmousedown="handlePan(0,1)">
                  <use xlink:href="#rim" fill="#404040">
                        <set attributeName="fill" to="#808080" begin="arrowDown.mouseover" end="arrowDown.mouseout"/>
                  </use>
                  <path fill="none" stroke="white" stroke-width="1.5" d="M0,-3.0v7 M-2.5,-0.5L0,-3.0L2.5,-0.5"/>
                </g>
                <g id="arrowLeft" xlink:href="#dirArrow" transform="rotate(270) translate(-36 17)" onmousedown="handlePan(-1,0)">
                  <use xlink:href="#rim" fill="#404040">
                        <set attributeName="fill" to="#808080" begin="arrowLeft.mouseover" end="arrowLeft.mouseout"/>
                  </use>
                  <path fill="none" stroke="white" stroke-width="1.5" d="M0,-3.0v7 M-2.5,-0.5L0,-3.0L2.5,-0.5"/>
                </g>
        </g>
        <svg viewBox="0 0 15 15" width="100%" height="30px" preserveAspectRatio="xMaxYMin meet">
         <g id="arrow_out" transform="scale(0.3 0.3)">
          <a xlink:href="vtkvmtkSteepestDescentLineTracer_8h__incl_org.svg" target="_base">
           <rect id="button" ry="5" rx="5" y="6" x="6" height="38" width="38"
                fill="#f2f5e9" fill-opacity="0.5" stroke="#606060" stroke-width="1.0"/>
           <path id="arrow"
             d="M 11.500037,31.436501 C 11.940474,20.09759 22.043105,11.32322 32.158766,21.979434 L 37.068811,17.246167 C 37.068811,17.246167 37.088388,32 37.088388,32 L 22.160133,31.978069 C 22.160133,31.978069 26.997745,27.140456 26.997745,27.140456 C 18.528582,18.264221 13.291696,25.230495 11.500037,31.436501 z"
             style="fill:#404040;"/>
          </a>
         </g>
        </svg>
</svg>
