<?xml version="1.0" encoding="UTF-8" standalone="no"?>
<!DOCTYPE svg PUBLIC "-//W3C//DTD SVG 1.1//EN"
 "http://www.w3.org/Graphics/SVG/1.1/DTD/svg11.dtd">
<!-- Generated by graphviz version 2.38.0 (20140413.2041)
 -->
<!-- Title: vtkvmtkDirichletBoundaryConditions.h Pages: 1 -->
<!--zoomable 532 -->
<svg id="main" version="1.1" xmlns="http://www.w3.org/2000/svg" xmlns:xlink="http://www.w3.org/1999/xlink" xml:space="preserve" onload="init(evt)">
<style type="text/css"><![CDATA[
.edge:hover path { stroke: red; }
.edge:hover polygon { stroke: red; fill: red; }
]]></style>
<script type="text/javascript"><![CDATA[
var edges = document.getElementsByTagName('g');
if (edges && edges.length) {
  for (var i=0;i<edges.length;i++) {
    if (edges[i].id.substr(0,4)=='edge') {
      edges[i].setAttribute('class','edge');
    }
  }
}
]]></script>
        <defs>
                <circle id="rim" cx="0" cy="0" r="7"/>
                <circle id="rim2" cx="0" cy="0" r="3.5"/>
                <g id="zoomPlus">
                        <use xlink:href="#rim" fill="#404040">
                                <set attributeName="fill" to="#808080" begin="zoomplus.mouseover" end="zoomplus.mouseout"/>
                        </use>
                        <path d="M-4,0h8M0,-4v8" fill="none" stroke="white" stroke-width="1.5" pointer-events="none"/>
                </g>
                <g id="zoomMin">
                        <use xlink:href="#rim" fill="#404040">
                                <set attributeName="fill" to="#808080" begin="zoomminus.mouseover" end="zoomminus.mouseout"/>
                        </use>
                        <path d="M-4,0h8" fill="none" stroke="white" stroke-width="1.5" pointer-events="none"/>
                </g>
                <g id="dirArrow">
                        <path fill="none" stroke="white" stroke-width="1.5" d="M0,-3.0v7 M-2.5,-0.5L0,-3.0L2.5,-0.5"/>
                </g>
               <g id="resetDef">
                       <use xlink:href="#rim2" fill="#404040">
                               <set attributeName="fill" to="#808080" begin="reset.mouseover" end="reset.mouseout"/>
                       </use>
               </g>
        </defs>

<script type="text/javascript">
var viewWidth = 1374;
var viewHeight = 532;
var sectionId = 'dynsection-0';
</script>
<script xlink:href="svgpan.js"/>
<svg id="graph" class="graph">
<g id="viewport">
<title>vtkvmtkDirichletBoundaryConditions.h</title>
<polygon fill="white" stroke="none" points="-4,4 -4,-528 1370,-528 1370,4 -4,4"/>
<!-- Node0 -->
<g id="node1" class="node"><title>Node0</title>
<polygon fill="#bfbfbf" stroke="black" points="1054.59,-495.5 1054.59,-523.5 1183.41,-523.5 1183.41,-495.5 1054.59,-495.5"/>
<text text-anchor="start" x="1062.59" y="-511.5" font-family="Helvetica,sans-Serif" font-size="10.00">vtkvmtkDirichletBoundary</text>
<text text-anchor="middle" x="1119" y="-501.5" font-family="Helvetica,sans-Serif" font-size="10.00">Conditions.h</text>
</g>
<!-- Node1 -->
<g id="node2" class="node"><title>Node1</title>
<polygon fill="white" stroke="#bfbfbf" points="213.99,-0.5 213.99,-18.5 280.01,-18.5 280.01,-0.5 213.99,-0.5"/>
<text text-anchor="middle" x="247" y="-6.5" font-family="Helvetica,sans-Serif" font-size="10.00">vtkObject.h</text>
</g>
<!-- Node0&#45;&gt;Node1 -->
<g id="edge1" class="edge"><title>Node0&#45;&gt;Node1</title>
<path fill="none" stroke="midnightblue" d="M1054.41,-508.802C816.112,-509.075 0,-502.221 0,-395.5 0,-395.5 0,-395.5 0,-118.5 0,-30.6908 132.669,-13.5807 203.544,-10.7052"/>
<polygon fill="midnightblue" stroke="midnightblue" points="204.064,-14.1902 213.945,-10.3672 203.836,-7.19394 204.064,-14.1902"/>
</g>
<!-- Node2 -->
<g id="node3" class="node"><title>Node2</title>
<g id="a_node3"><a xlink:href="vtkvmtkBoundaryConditions_8h.html" target="_top" xlink:title="vtkvmtkBoundaryConditions.h">
<polygon fill="white" stroke="black" points="1044.86,-440.5 1044.86,-458.5 1193.14,-458.5 1193.14,-440.5 1044.86,-440.5"/>
<text text-anchor="middle" x="1119" y="-446.5" font-family="Helvetica,sans-Serif" font-size="10.00">vtkvmtkBoundaryConditions.h</text>
</a>
</g>
</g>
<!-- Node0&#45;&gt;Node2 -->
<g id="edge2" class="edge"><title>Node0&#45;&gt;Node2</title>
<path fill="none" stroke="midnightblue" d="M1119,-495.339C1119,-487.531 1119,-477.512 1119,-468.927"/>
<polygon fill="midnightblue" stroke="midnightblue" points="1122.5,-468.771 1119,-458.771 1115.5,-468.772 1122.5,-468.771"/>
</g>
<!-- Node11 -->
<g id="node12" class="node"><title>Node11</title>
<polygon fill="white" stroke="#bfbfbf" points="967.589,-0.5 967.589,-18.5 1086.41,-18.5 1086.41,-0.5 967.589,-0.5"/>
<text text-anchor="middle" x="1027" y="-6.5" font-family="Helvetica,sans-Serif" font-size="10.00">vtkvmtkWin32Header.h</text>
</g>
<!-- Node0&#45;&gt;Node11 -->
<g id="edge60" class="edge"><title>Node0&#45;&gt;Node11</title>
<path fill="none" stroke="midnightblue" d="M1183.57,-505.981C1256.76,-499.261 1366,-475.784 1366,-395.5 1366,-395.5 1366,-395.5 1366,-118.5 1366,-80.8709 1342.99,-73.1071 1310,-55 1274.31,-35.4111 1168.55,-22.6786 1096.92,-16.0436"/>
<polygon fill="midnightblue" stroke="midnightblue" points="1096.89,-12.5264 1086.61,-15.1088 1096.26,-19.4978 1096.89,-12.5264"/>
</g>
<!-- Node2&#45;&gt;Node1 -->
<g id="edge3" class="edge"><title>Node2&#45;&gt;Node1</title>
<path fill="none" stroke="midnightblue" d="M1044.7,-448.878C800.47,-449.149 38,-441.877 38,-340.5 38,-340.5 38,-340.5 38,-118.5 38,-44.5632 142.509,-21.1886 203.723,-13.8391"/>
<polygon fill="midnightblue" stroke="midnightblue" points="204.328,-17.2937 213.883,-12.7177 203.56,-10.3359 204.328,-17.2937"/>
</g>
<!-- Node3 -->
<g id="node4" class="node"><title>Node3</title>
<g id="a_node4"><a xlink:href="vtkvmtkLinearSystem_8h.html" target="_top" xlink:title="vtkvmtkLinearSystem.h">
<polygon fill="white" stroke="black" points="935.318,-385.5 935.318,-403.5 1054.68,-403.5 1054.68,-385.5 935.318,-385.5"/>
<text text-anchor="middle" x="995" y="-391.5" font-family="Helvetica,sans-Serif" font-size="10.00">vtkvmtkLinearSystem.h</text>
</a>
</g>
</g>
<!-- Node2&#45;&gt;Node3 -->
<g id="edge4" class="edge"><title>Node2&#45;&gt;Node3</title>
<path fill="none" stroke="midnightblue" d="M1100.17,-440.45C1079.77,-431.734 1047.01,-417.731 1023.47,-407.669"/>
<polygon fill="midnightblue" stroke="midnightblue" points="1024.58,-404.337 1014.01,-403.625 1021.83,-410.774 1024.58,-404.337"/>
</g>
<!-- Node2&#45;&gt;Node11 -->
<g id="edge59" class="edge"><title>Node2&#45;&gt;Node11</title>
<path fill="none" stroke="midnightblue" d="M1193.27,-440.467C1253.35,-429.361 1328,-402.99 1328,-340.5 1328,-340.5 1328,-340.5 1328,-118.5 1328,-83.9096 1312.25,-73.4675 1283,-55 1252.72,-35.8823 1161.55,-23.3623 1096.65,-16.6092"/>
<polygon fill="midnightblue" stroke="midnightblue" points="1096.77,-13.104 1086.47,-15.5748 1096.06,-20.0682 1096.77,-13.104"/>
</g>
<!-- Node19 -->
<g id="node20" class="node"><title>Node19</title>
<polygon fill="white" stroke="#bfbfbf" points="1073.02,-385.5 1073.02,-403.5 1164.98,-403.5 1164.98,-385.5 1073.02,-385.5"/>
<text text-anchor="middle" x="1119" y="-391.5" font-family="Helvetica,sans-Serif" font-size="10.00">vtkDoubleArray.h</text>
</g>
<!-- Node2&#45;&gt;Node19 -->
<g id="edge57" class="edge"><title>Node2&#45;&gt;Node19</title>
<path fill="none" stroke="midnightblue" d="M1119,-440.219C1119,-433.177 1119,-422.808 1119,-413.828"/>
<polygon fill="midnightblue" stroke="midnightblue" points="1122.5,-413.55 1119,-403.55 1115.5,-413.55 1122.5,-413.55"/>
</g>
<!-- Node20 -->
<g id="node21" class="node"><title>Node20</title>
<polygon fill="white" stroke="#bfbfbf" points="1182.49,-385.5 1182.49,-403.5 1243.51,-403.5 1243.51,-385.5 1182.49,-385.5"/>
<text text-anchor="middle" x="1213" y="-391.5" font-family="Helvetica,sans-Serif" font-size="10.00">vtkIdList.h</text>
</g>
<!-- Node2&#45;&gt;Node20 -->
<g id="edge58" class="edge"><title>Node2&#45;&gt;Node20</title>
<path fill="none" stroke="midnightblue" d="M1133.28,-440.45C1148.18,-432.045 1171.81,-418.724 1189.48,-408.762"/>
<polygon fill="midnightblue" stroke="midnightblue" points="1191.6,-411.586 1198.59,-403.625 1188.16,-405.488 1191.6,-411.586"/>
</g>
<!-- Node3&#45;&gt;Node1 -->
<g id="edge5" class="edge"><title>Node3&#45;&gt;Node1</title>
<path fill="none" stroke="midnightblue" d="M935.056,-392.773C731.006,-389.516 76,-372.299 76,-285.5 76,-285.5 76,-285.5 76,-118.5 76,-58.2208 152.899,-30.2201 203.56,-18.3137"/>
<polygon fill="midnightblue" stroke="midnightblue" points="204.621,-21.6633 213.624,-16.0767 203.102,-14.8301 204.621,-21.6633"/>
</g>
<!-- Node4 -->
<g id="node5" class="node"><title>Node4</title>
<g id="a_node5"><a xlink:href="vtkvmtkSparseMatrix_8h.html" target="_top" xlink:title="vtkvmtkSparseMatrix.h">
<polygon fill="white" stroke="black" points="881.434,-330.5 881.434,-348.5 998.566,-348.5 998.566,-330.5 881.434,-330.5"/>
<text text-anchor="middle" x="940" y="-336.5" font-family="Helvetica,sans-Serif" font-size="10.00">vtkvmtkSparseMatrix.h</text>
</a>
</g>
</g>
<!-- Node3&#45;&gt;Node4 -->
<g id="edge6" class="edge"><title>Node3&#45;&gt;Node4</title>
<path fill="none" stroke="midnightblue" d="M986.406,-385.219C978.205,-377.316 965.657,-365.224 955.676,-355.606"/>
<polygon fill="midnightblue" stroke="midnightblue" points="957.983,-352.968 948.353,-348.55 953.125,-358.009 957.983,-352.968"/>
</g>
<!-- Node3&#45;&gt;Node11 -->
<g id="edge56" class="edge"><title>Node3&#45;&gt;Node11</title>
<path fill="none" stroke="midnightblue" d="M1046.72,-385.481C1131.33,-370.89 1290,-336.699 1290,-285.5 1290,-285.5 1290,-285.5 1290,-118.5 1290,-34.8875 1174.85,-14.6402 1096.93,-10.5102"/>
<polygon fill="midnightblue" stroke="midnightblue" points="1096.83,-7.00186 1086.68,-10.0471 1096.51,-13.9947 1096.83,-7.00186"/>
</g>
<!-- Node17 -->
<g id="node18" class="node"><title>Node17</title>
<g id="a_node18"><a xlink:href="vtkvmtkDoubleVector_8h.html" target="_top" xlink:title="vtkvmtkDoubleVector.h">
<polygon fill="white" stroke="black" points="1142.14,-275.5 1142.14,-293.5 1259.86,-293.5 1259.86,-275.5 1142.14,-275.5"/>
<text text-anchor="middle" x="1201" y="-281.5" font-family="Helvetica,sans-Serif" font-size="10.00">vtkvmtkDoubleVector.h</text>
</a>
</g>
</g>
<!-- Node3&#45;&gt;Node17 -->
<g id="edge55" class="edge"><title>Node3&#45;&gt;Node17</title>
<path fill="none" stroke="midnightblue" d="M1010.48,-385.382C1046.06,-366.729 1133.87,-320.692 1176.71,-298.234"/>
<polygon fill="midnightblue" stroke="midnightblue" points="1178.39,-301.308 1185.62,-293.564 1175.14,-295.108 1178.39,-301.308"/>
</g>
<!-- Node4&#45;&gt;Node1 -->
<g id="edge7" class="edge"><title>Node4&#45;&gt;Node1</title>
<path fill="none" stroke="midnightblue" d="M881.258,-337C692.551,-331.412 114,-307.964 114,-230.5 114,-230.5 114,-230.5 114,-118.5 114,-68.3204 171.759,-37.3753 211.151,-22.1056"/>
<polygon fill="midnightblue" stroke="midnightblue" points="212.562,-25.3152 220.723,-18.559 210.13,-18.7512 212.562,-25.3152"/>
</g>
<!-- Node5 -->
<g id="node6" class="node"><title>Node5</title>
<g id="a_node6"><a xlink:href="vtkvmtkSparseMatrixRow_8h.html" target="_top" xlink:title="vtkvmtkSparseMatrixRow.h">
<polygon fill="white" stroke="black" points="472.705,-275.5 472.705,-293.5 609.295,-293.5 609.295,-275.5 472.705,-275.5"/>
<text text-anchor="middle" x="541" y="-281.5" font-family="Helvetica,sans-Serif" font-size="10.00">vtkvmtkSparseMatrixRow.h</text>
</a>
</g>
</g>
<!-- Node4&#45;&gt;Node5 -->
<g id="edge8" class="edge"><title>Node4&#45;&gt;Node5</title>
<path fill="none" stroke="midnightblue" d="M881.126,-330.68C809.345,-321.145 688.145,-305.046 611.473,-294.861"/>
<polygon fill="midnightblue" stroke="midnightblue" points="611.797,-291.373 601.423,-293.526 610.875,-298.313 611.797,-291.373"/>
</g>
<!-- Node10 -->
<g id="node11" class="node"><title>Node10</title>
<polygon fill="white" stroke="#bfbfbf" points="667.375,-0.5 667.375,-18.5 740.625,-18.5 740.625,-0.5 667.375,-0.5"/>
<text text-anchor="middle" x="704" y="-6.5" font-family="Helvetica,sans-Serif" font-size="10.00">vtkDataSet.h</text>
</g>
<!-- Node4&#45;&gt;Node10 -->
<g id="edge53" class="edge"><title>Node4&#45;&gt;Node10</title>
<path fill="none" stroke="midnightblue" d="M944.048,-330.297C956.255,-304.311 990.067,-222.158 960,-165 916.504,-82.3123 807.632,-39.5257 746.809,-21.406"/>
<polygon fill="midnightblue" stroke="midnightblue" points="747.696,-18.0191 737.117,-18.6066 745.753,-24.7442 747.696,-18.0191"/>
</g>
<!-- Node4&#45;&gt;Node11 -->
<g id="edge54" class="edge"><title>Node4&#45;&gt;Node11</title>
<path fill="none" stroke="midnightblue" d="M998.646,-337.244C1031.12,-333.161 1069.04,-322.081 1090,-294 1153.63,-208.75 1129.9,-147.293 1077,-55 1070.05,-42.8702 1058.59,-32.3129 1048.39,-24.5291"/>
<polygon fill="midnightblue" stroke="midnightblue" points="1050.41,-21.6709 1040.25,-18.6695 1046.32,-27.3522 1050.41,-21.6709"/>
</g>
<!-- Node13 -->
<g id="node14" class="node"><title>Node13</title>
<g id="a_node14"><a xlink:href="vtkvmtkNeighborhoods_8h.html" target="_top" xlink:title="vtkvmtkNeighborhoods.h">
<polygon fill="white" stroke="black" points="651.973,-220.5 651.973,-238.5 778.027,-238.5 778.027,-220.5 651.973,-220.5"/>
<text text-anchor="middle" x="715" y="-226.5" font-family="Helvetica,sans-Serif" font-size="10.00">vtkvmtkNeighborhoods.h</text>
</a>
</g>
</g>
<!-- Node4&#45;&gt;Node13 -->
<g id="edge27" class="edge"><title>Node4&#45;&gt;Node13</title>
<path fill="none" stroke="midnightblue" d="M916.429,-330.45C893.073,-322.207 856.478,-308.569 826,-294 793.751,-278.585 758.162,-257.443 736.189,-243.875"/>
<polygon fill="midnightblue" stroke="midnightblue" points="737.995,-240.876 727.656,-238.563 734.295,-246.819 737.995,-240.876"/>
</g>
<!-- Node16 -->
<g id="node17" class="node"><title>Node16</title>
<g id="a_node17"><a xlink:href="vtkvmtkStencils_8h.html" target="_top" xlink:title="vtkvmtkStencils.h">
<polygon fill="white" stroke="black" points="835.379,-275.5 835.379,-293.5 928.621,-293.5 928.621,-275.5 835.379,-275.5"/>
<text text-anchor="middle" x="882" y="-281.5" font-family="Helvetica,sans-Serif" font-size="10.00">vtkvmtkStencils.h</text>
</a>
</g>
</g>
<!-- Node4&#45;&gt;Node16 -->
<g id="edge42" class="edge"><title>Node4&#45;&gt;Node16</title>
<path fill="none" stroke="midnightblue" d="M930.938,-330.219C922.204,-322.238 908.794,-309.984 898.219,-300.321"/>
<polygon fill="midnightblue" stroke="midnightblue" points="900.552,-297.712 890.809,-293.55 895.83,-302.879 900.552,-297.712"/>
</g>
<!-- Node4&#45;&gt;Node17 -->
<g id="edge49" class="edge"><title>Node4&#45;&gt;Node17</title>
<path fill="none" stroke="midnightblue" d="M979.64,-330.45C1025.67,-321.104 1101.63,-305.678 1151.5,-295.552"/>
<polygon fill="midnightblue" stroke="midnightblue" points="1152.31,-298.958 1161.42,-293.538 1150.92,-292.098 1152.31,-298.958"/>
</g>
<!-- Node5&#45;&gt;Node1 -->
<g id="edge9" class="edge"><title>Node5&#45;&gt;Node1</title>
<path fill="none" stroke="midnightblue" d="M472.35,-278.554C360.676,-268.6 152,-241.209 152,-175.5 152,-175.5 152,-175.5 152,-118.5 152,-88.3293 156.885,-78.3429 176,-55 187.265,-41.2431 203.958,-30.4786 218.328,-22.985"/>
<polygon fill="midnightblue" stroke="midnightblue" points="219.934,-26.0956 227.355,-18.5343 216.838,-19.8172 219.934,-26.0956"/>
</g>
<!-- Node6 -->
<g id="node7" class="node"><title>Node6</title>
<g id="a_node7"><a xlink:href="vtkvmtkStencil_8h.html" target="_top" xlink:title="vtkvmtkStencil.h">
<polygon fill="white" stroke="black" points="276.879,-220.5 276.879,-238.5 365.121,-238.5 365.121,-220.5 276.879,-220.5"/>
<text text-anchor="middle" x="321" y="-226.5" font-family="Helvetica,sans-Serif" font-size="10.00">vtkvmtkStencil.h</text>
</a>
</g>
</g>
<!-- Node5&#45;&gt;Node6 -->
<g id="edge10" class="edge"><title>Node5&#45;&gt;Node6</title>
<path fill="none" stroke="midnightblue" d="M507.587,-275.45C469.275,-266.221 406.358,-251.063 364.315,-240.935"/>
<polygon fill="midnightblue" stroke="midnightblue" points="364.908,-237.478 354.367,-238.538 363.269,-244.283 364.908,-237.478"/>
</g>
<!-- Node7 -->
<g id="node8" class="node"><title>Node7</title>
<g id="a_node8"><a xlink:href="vtkvmtkNeighborhood_8h.html" target="_top" xlink:title="vtkvmtkNeighborhood.h">
<polygon fill="white" stroke="black" points="341.473,-165.5 341.473,-183.5 462.527,-183.5 462.527,-165.5 341.473,-165.5"/>
<text text-anchor="middle" x="402" y="-171.5" font-family="Helvetica,sans-Serif" font-size="10.00">vtkvmtkNeighborhood.h</text>
</a>
</g>
</g>
<!-- Node5&#45;&gt;Node7 -->
<g id="edge24" class="edge"><title>Node5&#45;&gt;Node7</title>
<path fill="none" stroke="midnightblue" d="M472.419,-282.099C400.297,-279.004 293.739,-269.275 268,-239 244.358,-211.193 288.003,-194.709 331.656,-185.536"/>
<polygon fill="midnightblue" stroke="midnightblue" points="332.403,-188.956 341.532,-183.579 331.042,-182.09 332.403,-188.956"/>
</g>
<!-- Node5&#45;&gt;Node11 -->
<g id="edge26" class="edge"><title>Node5&#45;&gt;Node11</title>
<path fill="none" stroke="midnightblue" d="M609.344,-281.865C694.945,-276.629 842.547,-256.74 943,-184 992.823,-147.922 1010.19,-133.171 1027,-74 1031.24,-59.0725 1030.82,-41.3618 1029.58,-28.4421"/>
<polygon fill="midnightblue" stroke="midnightblue" points="1033.05,-28.0183 1028.37,-18.5121 1026.1,-28.8607 1033.05,-28.0183"/>
</g>
<!-- Node12 -->
<g id="node13" class="node"><title>Node12</title>
<g id="a_node13"><a xlink:href="vtkvmtkConstants_8h.html" target="_top" xlink:title="vtkvmtkConstants.h">
<polygon fill="white" stroke="black" points="830.375,-165.5 830.375,-183.5 933.625,-183.5 933.625,-165.5 830.375,-165.5"/>
<text text-anchor="middle" x="882" y="-171.5" font-family="Helvetica,sans-Serif" font-size="10.00">vtkvmtkConstants.h</text>
</a>
</g>
</g>
<!-- Node5&#45;&gt;Node12 -->
<g id="edge25" class="edge"><title>Node5&#45;&gt;Node12</title>
<path fill="none" stroke="midnightblue" d="M609.375,-278.681C659.932,-273.338 729.659,-262.175 787,-239 816.716,-226.99 846.762,-204.848 864.886,-190.145"/>
<polygon fill="midnightblue" stroke="midnightblue" points="867.31,-192.682 872.772,-183.603 862.841,-187.294 867.31,-192.682"/>
</g>
<!-- Node6&#45;&gt;Node1 -->
<g id="edge11" class="edge"><title>Node6&#45;&gt;Node1</title>
<path fill="none" stroke="midnightblue" d="M310.29,-220.303C300.101,-212.052 284.899,-198.499 275,-184 242.068,-135.762 242.73,-62.6513 245.16,-28.839"/>
<polygon fill="midnightblue" stroke="midnightblue" points="248.669,-28.887 246.041,-18.6232 241.695,-28.2856 248.669,-28.887"/>
</g>
<!-- Node6&#45;&gt;Node7 -->
<g id="edge12" class="edge"><title>Node6&#45;&gt;Node7</title>
<path fill="none" stroke="midnightblue" d="M333.302,-220.45C345.91,-212.201 365.755,-199.216 380.881,-189.319"/>
<polygon fill="midnightblue" stroke="midnightblue" points="383.131,-192.029 389.582,-183.625 379.298,-186.172 383.131,-192.029"/>
</g>
<!-- Node6&#45;&gt;Node11 -->
<g id="edge23" class="edge"><title>Node6&#45;&gt;Node11</title>
<path fill="none" stroke="midnightblue" d="M361.914,-220.478C469.292,-199.346 753.739,-142.819 795,-129 849.484,-110.752 860.823,-100.123 912,-74 944.493,-57.4138 981.28,-36.7627 1004.31,-23.6024"/>
<polygon fill="midnightblue" stroke="midnightblue" points="1006.06,-26.6311 1013,-18.6196 1002.58,-20.5589 1006.06,-26.6311"/>
</g>
<!-- Node7&#45;&gt;Node1 -->
<g id="edge13" class="edge"><title>Node7&#45;&gt;Node1</title>
<path fill="none" stroke="midnightblue" d="M383.711,-165.427C367.703,-157.722 344.492,-144.94 328,-129 299.813,-101.755 302.353,-87.2045 280,-55 273.395,-45.4838 265.701,-35.0723 259.404,-26.7141"/>
<polygon fill="midnightblue" stroke="midnightblue" points="262.072,-24.4395 253.238,-18.5901 256.496,-28.6716 262.072,-24.4395"/>
</g>
<!-- Node8 -->
<g id="node9" class="node"><title>Node8</title>
<g id="a_node9"><a xlink:href="vtkvmtkDataSetItem_8h.html" target="_top" xlink:title="vtkvmtkDataSetItem.h">
<polygon fill="white" stroke="black" points="408.096,-110.5 408.096,-128.5 521.904,-128.5 521.904,-110.5 408.096,-110.5"/>
<text text-anchor="middle" x="465" y="-116.5" font-family="Helvetica,sans-Serif" font-size="10.00">vtkvmtkDataSetItem.h</text>
</a>
</g>
</g>
<!-- Node7&#45;&gt;Node8 -->
<g id="edge14" class="edge"><title>Node7&#45;&gt;Node8</title>
<path fill="none" stroke="midnightblue" d="M411.568,-165.45C421.097,-157.434 435.94,-144.947 447.567,-135.166"/>
<polygon fill="midnightblue" stroke="midnightblue" points="449.943,-137.741 455.342,-128.625 445.436,-132.385 449.943,-137.741"/>
</g>
<!-- Node7&#45;&gt;Node11 -->
<g id="edge22" class="edge"><title>Node7&#45;&gt;Node11</title>
<path fill="none" stroke="midnightblue" d="M462.542,-168.04C548.296,-159.932 700.642,-144.044 754,-129 830.965,-107.3 844.527,-86.5619 918,-55 944.546,-43.5964 975.009,-31.219 996.969,-22.4198"/>
<polygon fill="midnightblue" stroke="midnightblue" points="998.429,-25.6057 1006.42,-18.6451 995.832,-19.1054 998.429,-25.6057"/>
</g>
<!-- Node8&#45;&gt;Node1 -->
<g id="edge15" class="edge"><title>Node8&#45;&gt;Node1</title>
<path fill="none" stroke="midnightblue" d="M457.993,-110.232C446.146,-96.7597 420.817,-70.0647 394,-55 361.417,-36.6964 320.45,-25.0963 290.045,-18.3458"/>
<polygon fill="midnightblue" stroke="midnightblue" points="290.676,-14.9018 280.166,-16.2398 289.217,-21.748 290.676,-14.9018"/>
</g>
<!-- Node9 -->
<g id="node10" class="node"><title>Node9</title>
<g id="a_node10"><a xlink:href="vtkvmtkItem_8h.html" target="_top" xlink:title="vtkvmtkItem.h">
<polygon fill="white" stroke="black" points="522.163,-55.5 522.163,-73.5 599.837,-73.5 599.837,-55.5 522.163,-55.5"/>
<text text-anchor="middle" x="561" y="-61.5" font-family="Helvetica,sans-Serif" font-size="10.00">vtkvmtkItem.h</text>
</a>
</g>
</g>
<!-- Node8&#45;&gt;Node9 -->
<g id="edge16" class="edge"><title>Node8&#45;&gt;Node9</title>
<path fill="none" stroke="midnightblue" d="M479.58,-110.45C494.946,-101.968 519.381,-88.477 537.478,-78.486"/>
<polygon fill="midnightblue" stroke="midnightblue" points="539.22,-81.5226 546.282,-73.6253 535.836,-75.3945 539.22,-81.5226"/>
</g>
<!-- Node8&#45;&gt;Node10 -->
<g id="edge20" class="edge"><title>Node8&#45;&gt;Node10</title>
<path fill="none" stroke="midnightblue" d="M468.75,-110.435C475.54,-96.7662 491.214,-69.1557 513,-55 556.691,-26.6111 616.398,-16.2612 657.362,-12.528"/>
<polygon fill="midnightblue" stroke="midnightblue" points="657.668,-16.0148 667.351,-11.7145 657.1,-9.03785 657.668,-16.0148"/>
</g>
<!-- Node8&#45;&gt;Node11 -->
<g id="edge21" class="edge"><title>Node8&#45;&gt;Node11</title>
<path fill="none" stroke="midnightblue" d="M506.782,-110.471C607.799,-91.0582 865.053,-41.6214 975.426,-20.411"/>
<polygon fill="midnightblue" stroke="midnightblue" points="976.165,-23.8332 985.325,-18.5088 974.844,-16.9589 976.165,-23.8332"/>
</g>
<!-- Node9&#45;&gt;Node1 -->
<g id="edge17" class="edge"><title>Node9&#45;&gt;Node1</title>
<path fill="none" stroke="midnightblue" d="M521.867,-56.8947C462.966,-46.9529 351.908,-28.2073 290.527,-17.847"/>
<polygon fill="midnightblue" stroke="midnightblue" points="290.836,-14.3497 280.393,-16.1364 289.671,-21.2521 290.836,-14.3497"/>
</g>
<!-- Node9&#45;&gt;Node10 -->
<g id="edge18" class="edge"><title>Node9&#45;&gt;Node10</title>
<path fill="none" stroke="midnightblue" d="M582.719,-55.4504C606.656,-46.5784 645.373,-32.2288 672.61,-22.134"/>
<polygon fill="midnightblue" stroke="midnightblue" points="673.917,-25.3825 682.077,-18.6253 671.484,-18.8188 673.917,-25.3825"/>
</g>
<!-- Node9&#45;&gt;Node11 -->
<g id="edge19" class="edge"><title>Node9&#45;&gt;Node11</title>
<path fill="none" stroke="midnightblue" d="M599.929,-59.0724C678.707,-50.1127 857.955,-29.7262 957.36,-18.4204"/>
<polygon fill="midnightblue" stroke="midnightblue" points="957.772,-21.8963 967.312,-17.2886 956.98,-14.9411 957.772,-21.8963"/>
</g>
<!-- Node13&#45;&gt;Node1 -->
<g id="edge28" class="edge"><title>Node13&#45;&gt;Node1</title>
<path fill="none" stroke="midnightblue" d="M680.538,-220.441C605.858,-202.635 431.588,-159.132 379,-129 337.258,-105.082 335.991,-86.9238 300,-55 288.484,-44.7851 275.219,-33.6483 264.841,-25.0712"/>
<polygon fill="midnightblue" stroke="midnightblue" points="266.851,-22.1927 256.904,-18.5448 262.405,-27.5995 266.851,-22.1927"/>
</g>
<!-- Node13&#45;&gt;Node7 -->
<g id="edge39" class="edge"><title>Node13&#45;&gt;Node7</title>
<path fill="none" stroke="midnightblue" d="M667.462,-220.45C611.688,-211.006 519.259,-195.355 459.501,-185.237"/>
<polygon fill="midnightblue" stroke="midnightblue" points="459.916,-181.757 449.472,-183.538 458.747,-188.659 459.916,-181.757"/>
</g>
<!-- Node13&#45;&gt;Node10 -->
<g id="edge40" class="edge"><title>Node13&#45;&gt;Node10</title>
<path fill="none" stroke="midnightblue" d="M692.225,-220.37C676.409,-213.388 656.529,-201.623 647,-184 617.766,-129.932 665.497,-58.2559 690.389,-26.6466"/>
<polygon fill="midnightblue" stroke="midnightblue" points="693.408,-28.4811 696.997,-18.5126 687.975,-24.0672 693.408,-28.4811"/>
</g>
<!-- Node13&#45;&gt;Node11 -->
<g id="edge41" class="edge"><title>Node13&#45;&gt;Node11</title>
<path fill="none" stroke="midnightblue" d="M727.618,-220.28C751.322,-204.95 801.841,-172.84 821,-165 884.053,-139.2 917.016,-171.826 970,-129 1002.01,-103.124 1017.21,-54.9091 1023.39,-28.6626"/>
<polygon fill="midnightblue" stroke="midnightblue" points="1026.88,-29.1116 1025.57,-18.5974 1020.04,-27.63 1026.88,-29.1116"/>
</g>
<!-- Node13&#45;&gt;Node12 -->
<g id="edge29" class="edge"><title>Node13&#45;&gt;Node12</title>
<path fill="none" stroke="midnightblue" d="M740.364,-220.45C768.769,-211.436 814.994,-196.765 846.868,-186.65"/>
<polygon fill="midnightblue" stroke="midnightblue" points="848.199,-189.899 856.672,-183.538 846.081,-183.227 848.199,-189.899"/>
</g>
<!-- Node14 -->
<g id="node15" class="node"><title>Node14</title>
<g id="a_node15"><a xlink:href="vtkvmtkDataSetItems_8h.html" target="_top" xlink:title="vtkvmtkDataSetItems.h">
<polygon fill="white" stroke="black" points="655.596,-165.5 655.596,-183.5 774.404,-183.5 774.404,-165.5 655.596,-165.5"/>
<text text-anchor="middle" x="715" y="-171.5" font-family="Helvetica,sans-Serif" font-size="10.00">vtkvmtkDataSetItems.h</text>
</a>
</g>
</g>
<!-- Node13&#45;&gt;Node14 -->
<g id="edge30" class="edge"><title>Node13&#45;&gt;Node14</title>
<path fill="none" stroke="midnightblue" d="M715,-220.219C715,-213.177 715,-202.808 715,-193.828"/>
<polygon fill="midnightblue" stroke="midnightblue" points="718.5,-193.55 715,-183.55 711.5,-193.55 718.5,-193.55"/>
</g>
<!-- Node14&#45;&gt;Node1 -->
<g id="edge31" class="edge"><title>Node14&#45;&gt;Node1</title>
<path fill="none" stroke="midnightblue" d="M655.59,-167.952C569.981,-159.535 419.859,-143.031 399,-129 367.438,-107.769 384.697,-79.9674 356,-55 337.145,-38.5955 311.435,-27.7098 289.72,-20.8133"/>
<polygon fill="midnightblue" stroke="midnightblue" points="290.647,-17.4373 280.063,-17.9199 288.637,-24.1428 290.647,-17.4373"/>
</g>
<!-- Node14&#45;&gt;Node10 -->
<g id="edge37" class="edge"><title>Node14&#45;&gt;Node10</title>
<path fill="none" stroke="midnightblue" d="M725.621,-165.3C735.11,-157.243 748.357,-143.999 754,-129 756.973,-121.096 755.948,-118.217 754,-110 746.559,-78.62 727.585,-45.8867 715.267,-26.8883"/>
<polygon fill="midnightblue" stroke="midnightblue" points="718.14,-24.8881 709.682,-18.5078 712.316,-28.7702 718.14,-24.8881"/>
</g>
<!-- Node14&#45;&gt;Node11 -->
<g id="edge38" class="edge"><title>Node14&#45;&gt;Node11</title>
<path fill="none" stroke="midnightblue" d="M768.31,-165.483C831.876,-155.576 931.414,-138.826 946,-129 978.512,-107.097 971.647,-87.2045 994,-55 1000.61,-45.4838 1008.3,-35.0723 1014.6,-26.7141"/>
<polygon fill="midnightblue" stroke="midnightblue" points="1017.5,-28.6716 1020.76,-18.5901 1011.93,-24.4395 1017.5,-28.6716"/>
</g>
<!-- Node15 -->
<g id="node16" class="node"><title>Node15</title>
<g id="a_node16"><a xlink:href="vtkvmtkItems_8h.html" target="_top" xlink:title="vtkvmtkItems.h">
<polygon fill="white" stroke="black" points="662.663,-110.5 662.663,-128.5 745.337,-128.5 745.337,-110.5 662.663,-110.5"/>
<text text-anchor="middle" x="704" y="-116.5" font-family="Helvetica,sans-Serif" font-size="10.00">vtkvmtkItems.h</text>
</a>
</g>
</g>
<!-- Node14&#45;&gt;Node15 -->
<g id="edge32" class="edge"><title>Node14&#45;&gt;Node15</title>
<path fill="none" stroke="midnightblue" d="M713.281,-165.219C711.803,-158.099 709.62,-147.577 707.742,-138.529"/>
<polygon fill="midnightblue" stroke="midnightblue" points="711.13,-137.63 705.671,-128.55 704.276,-139.052 711.13,-137.63"/>
</g>
<!-- Node15&#45;&gt;Node1 -->
<g id="edge33" class="edge"><title>Node15&#45;&gt;Node1</title>
<path fill="none" stroke="midnightblue" d="M669.134,-110.437C630.833,-101.565 567.513,-86.857 513,-74 434.37,-55.4551 342.75,-33.5091 290.147,-20.8762"/>
<polygon fill="midnightblue" stroke="midnightblue" points="290.703,-17.4102 280.162,-18.4776 289.067,-24.2166 290.703,-17.4102"/>
</g>
<!-- Node15&#45;&gt;Node9 -->
<g id="edge34" class="edge"><title>Node15&#45;&gt;Node9</title>
<path fill="none" stroke="midnightblue" d="M682.281,-110.45C658.344,-101.578 619.627,-87.2288 592.39,-77.134"/>
<polygon fill="midnightblue" stroke="midnightblue" points="593.516,-73.8188 582.923,-73.6253 591.083,-80.3825 593.516,-73.8188"/>
</g>
<!-- Node15&#45;&gt;Node10 -->
<g id="edge35" class="edge"><title>Node15&#45;&gt;Node10</title>
<path fill="none" stroke="midnightblue" d="M704,-110.382C704,-93.1822 704,-52.698 704,-28.8866"/>
<polygon fill="midnightblue" stroke="midnightblue" points="707.5,-28.7117 704,-18.7118 700.5,-28.7118 707.5,-28.7117"/>
</g>
<!-- Node15&#45;&gt;Node11 -->
<g id="edge36" class="edge"><title>Node15&#45;&gt;Node11</title>
<path fill="none" stroke="midnightblue" d="M725.278,-110.416C758.243,-97.9831 823.729,-73.6542 880,-55 916.791,-42.8035 959.196,-30.1102 988.978,-21.4167"/>
<polygon fill="midnightblue" stroke="midnightblue" points="990.33,-24.6685 998.956,-18.5159 988.376,-17.9468 990.33,-24.6685"/>
</g>
<!-- Node16&#45;&gt;Node1 -->
<g id="edge43" class="edge"><title>Node16&#45;&gt;Node1</title>
<path fill="none" stroke="midnightblue" d="M835.216,-281.64C695.445,-275.883 289.296,-257.622 268,-239 207.032,-185.687 229.655,-72.9416 241.553,-28.7837"/>
<polygon fill="midnightblue" stroke="midnightblue" points="244.996,-29.471 244.354,-18.8957 238.261,-27.5632 244.996,-29.471"/>
</g>
<!-- Node16&#45;&gt;Node6 -->
<g id="edge46" class="edge"><title>Node16&#45;&gt;Node6</title>
<path fill="none" stroke="midnightblue" d="M835.099,-280.252C746.043,-273.885 546.391,-258.654 379,-239 377.888,-238.869 376.765,-238.734 375.633,-238.596"/>
<polygon fill="midnightblue" stroke="midnightblue" points="375.665,-235.071 365.299,-237.259 374.767,-242.013 375.665,-235.071"/>
</g>
<!-- Node16&#45;&gt;Node10 -->
<g id="edge47" class="edge"><title>Node16&#45;&gt;Node10</title>
<path fill="none" stroke="midnightblue" d="M892.129,-275.303C914.917,-255.835 966.46,-205.426 943,-165 926.813,-137.107 907.394,-146.017 880,-129 822.188,-93.0871 756.148,-47.2875 723.871,-24.5788"/>
<polygon fill="midnightblue" stroke="midnightblue" points="725.529,-21.465 715.34,-18.5606 721.494,-27.185 725.529,-21.465"/>
</g>
<!-- Node16&#45;&gt;Node11 -->
<g id="edge48" class="edge"><title>Node16&#45;&gt;Node11</title>
<path fill="none" stroke="midnightblue" d="M928.782,-277.542C956.537,-271.825 990.73,-260.676 1014,-239 1075.68,-181.546 1086.44,-135.041 1060,-55 1056.5,-44.4031 1049.39,-34.2704 1042.67,-26.3582"/>
<polygon fill="midnightblue" stroke="midnightblue" points="1045.03,-23.7581 1035.71,-18.7271 1039.86,-28.4746 1045.03,-23.7581"/>
</g>
<!-- Node16&#45;&gt;Node12 -->
<g id="edge44" class="edge"><title>Node16&#45;&gt;Node12</title>
<path fill="none" stroke="midnightblue" d="M882,-275.382C882,-258.182 882,-217.698 882,-193.887"/>
<polygon fill="midnightblue" stroke="midnightblue" points="885.5,-193.712 882,-183.712 878.5,-193.712 885.5,-193.712"/>
</g>
<!-- Node16&#45;&gt;Node14 -->
<g id="edge45" class="edge"><title>Node16&#45;&gt;Node14</title>
<path fill="none" stroke="midnightblue" d="M870.093,-275.343C852.187,-263.122 817.203,-239.419 787,-220 770.371,-209.309 751.336,-197.565 737.016,-188.827"/>
<polygon fill="midnightblue" stroke="midnightblue" points="738.721,-185.768 728.359,-183.561 735.083,-191.749 738.721,-185.768"/>
</g>
<!-- Node17&#45;&gt;Node1 -->
<g id="edge50" class="edge"><title>Node17&#45;&gt;Node1</title>
<path fill="none" stroke="midnightblue" d="M1142.13,-280.194C957.261,-269.345 396.724,-232.709 332,-184 279.764,-144.689 257.797,-64.6663 250.287,-28.7109"/>
<polygon fill="midnightblue" stroke="midnightblue" points="253.684,-27.8399 248.337,-18.693 246.813,-29.1775 253.684,-27.8399"/>
</g>
<!-- Node17&#45;&gt;Node11 -->
<g id="edge52" class="edge"><title>Node17&#45;&gt;Node11</title>
<path fill="none" stroke="midnightblue" d="M1193.9,-275.236C1186.98,-266.722 1176.68,-252.785 1171,-239 1139.31,-162.025 1188.7,-119.435 1136,-55 1122.55,-38.5552 1102.05,-28.1283 1082.45,-21.5435"/>
<polygon fill="midnightblue" stroke="midnightblue" points="1083.21,-18.1173 1072.63,-18.5246 1081.16,-24.8083 1083.21,-18.1173"/>
</g>
<!-- Node18 -->
<g id="node19" class="node"><title>Node18</title>
<polygon fill="white" stroke="#bfbfbf" points="1180.3,-220.5 1180.3,-238.5 1261.7,-238.5 1261.7,-220.5 1180.3,-220.5"/>
<text text-anchor="middle" x="1221" y="-226.5" font-family="Helvetica,sans-Serif" font-size="10.00">vtkDataArray.h</text>
</g>
<!-- Node17&#45;&gt;Node18 -->
<g id="edge51" class="edge"><title>Node17&#45;&gt;Node18</title>
<path fill="none" stroke="midnightblue" d="M1204.12,-275.219C1206.87,-267.942 1210.96,-257.113 1214.42,-247.934"/>
<polygon fill="midnightblue" stroke="midnightblue" points="1217.71,-249.141 1217.96,-238.55 1211.16,-246.67 1217.71,-249.141"/>
</g>
</g>
</svg>
        <g id="navigator" transform="translate(0 0)" fill="#404254">
                <rect fill="#f2f5e9" fill-opacity="0.5" stroke="#606060" stroke-width=".5" x="0" y="0" width="60" height="60"/>
                <use id="zoomplus" xlink:href="#zoomPlus" x="17" y="9" onmousedown="handleZoom(evt,'in')"/>
                <use id="zoomminus" xlink:href="#zoomMin" x="42" y="9" onmousedown="handleZoom(evt,'out')"/>
                <use id="reset" xlink:href="#resetDef" x="30" y="36" onmousedown="handleReset()"/>
                <g id="arrowUp" xlink:href="#dirArrow" transform="translate(30 24)" onmousedown="handlePan(0,-1)">
                  <use xlink:href="#rim" fill="#404040">
                        <set attributeName="fill" to="#808080" begin="arrowUp.mouseover" end="arrowUp.mouseout"/>
                  </use>
                  <path fill="none" stroke="white" stroke-width="1.5" d="M0,-3.0v7 M-2.5,-0.5L0,-3.0L2.5,-0.5"/>
                </g>
                <g id="arrowRight" xlink:href="#dirArrow" transform="rotate(90) translate(36 -43)" onmousedown="handlePan(1,0)">
                  <use xlink:href="#rim" fill="#404040">
                        <set attributeName="fill" to="#808080" begin="arrowRight.mouseover" end="arrowRight.mouseout"/>
                  </use>
                  <path fill="none" stroke="white" stroke-width="1.5" d="M0,-3.0v7 M-2.5,-0.5L0,-3.0L2.5,-0.5"/>
                </g>
                <g id="arrowDown" xlink:href="#dirArrow" transform="rotate(180) translate(-30 -48)" onmousedown="handlePan(0,1)">
                  <use xlink:href="#rim" fill="#404040">
                        <set attributeName="fill" to="#808080" begin="arrowDown.mouseover" end="arrowDown.mouseout"/>
                  </use>
                  <path fill="none" stroke="white" stroke-width="1.5" d="M0,-3.0v7 M-2.5,-0.5L0,-3.0L2.5,-0.5"/>
                </g>
                <g id="arrowLeft" xlink:href="#dirArrow" transform="rotate(270) translate(-36 17)" onmousedown="handlePan(-1,0)">
                  <use xlink:href="#rim" fill="#404040">
                        <set attributeName="fill" to="#808080" begin="arrowLeft.mouseover" end="arrowLeft.mouseout"/>
                  </use>
                  <path fill="none" stroke="white" stroke-width="1.5" d="M0,-3.0v7 M-2.5,-0.5L0,-3.0L2.5,-0.5"/>
                </g>
        </g>
        <svg viewBox="0 0 15 15" width="100%" height="30px" preserveAspectRatio="xMaxYMin meet">
         <g id="arrow_out" transform="scale(0.3 0.3)">
          <a xlink:href="vtkvmtkDirichletBoundaryConditions_8h__incl_org.svg" target="_base">
           <rect id="button" ry="5" rx="5" y="6" x="6" height="38" width="38"
                fill="#f2f5e9" fill-opacity="0.5" stroke="#606060" stroke-width="1.0"/>
           <path id="arrow"
             d="M 11.500037,31.436501 C 11.940474,20.09759 22.043105,11.32322 32.158766,21.979434 L 37.068811,17.246167 C 37.068811,17.246167 37.088388,32 37.088388,32 L 22.160133,31.978069 C 22.160133,31.978069 26.997745,27.140456 26.997745,27.140456 C 18.528582,18.264221 13.291696,25.230495 11.500037,31.436501 z"
             style="fill:#404040;"/>
          </a>
         </g>
        </svg>
</svg>
