<?xml version="1.0" encoding="UTF-8" standalone="no"?>
<!DOCTYPE svg PUBLIC "-//W3C//DTD SVG 1.1//EN"
 "http://www.w3.org/Graphics/SVG/1.1/DTD/svg11.dtd">
<!-- Generated by graphviz version 2.38.0 (20140413.2041)
 -->
<!-- Title: vtkvmtkCapPolyData.h Pages: 1 -->
<svg width="522pt" height="82pt"
 viewBox="0.00 0.00 522.38 82.00" xmlns="http://www.w3.org/2000/svg" xmlns:xlink="http://www.w3.org/1999/xlink">
<g id="graph0" class="graph" transform="scale(1 1) rotate(0) translate(4 78)">
<title>vtkvmtkCapPolyData.h</title>
<polygon fill="white" stroke="none" points="-4,4 -4,-78 518.376,-78 518.376,4 -4,4"/>
<!-- Node0 -->
<g id="node1" class="node"><title>Node0</title>
<polygon fill="#bfbfbf" stroke="black" points="207.392,-55.5 207.392,-73.5 324.539,-73.5 324.539,-55.5 207.392,-55.5"/>
<text text-anchor="middle" x="265.965" y="-61.5" font-family="Helvetica,sans-Serif" font-size="10.00">vtkvmtkCapPolyData.h</text>
</g>
<!-- Node1 -->
<g id="node2" class="node"><title>Node1</title>
<polygon fill="white" stroke="#bfbfbf" points="0,-0.5 0,-18.5 119.931,-18.5 119.931,-0.5 0,-0.5"/>
<text text-anchor="middle" x="59.9653" y="-6.5" font-family="Helvetica,sans-Serif" font-size="10.00">vtkPolyDataAlgorithm.h</text>
</g>
<!-- Node0&#45;&gt;Node1 -->
<g id="edge1" class="edge"><title>Node0&#45;&gt;Node1</title>
<path fill="none" stroke="midnightblue" d="M234.678,-55.4504C198.957,-46.2599 140.389,-31.1916 101.024,-21.0637"/>
<polygon fill="midnightblue" stroke="midnightblue" points="101.765,-17.6404 91.2086,-18.5383 100.021,-24.4197 101.765,-17.6404"/>
</g>
<!-- Node2 -->
<g id="node3" class="node"><title>Node2</title>
<polygon fill="white" stroke="#bfbfbf" points="138.118,-0.5 138.118,-18.5 215.812,-18.5 215.812,-0.5 138.118,-0.5"/>
<text text-anchor="middle" x="176.965" y="-6.5" font-family="Helvetica,sans-Serif" font-size="10.00">vtkPolyData.h</text>
</g>
<!-- Node0&#45;&gt;Node2 -->
<g id="edge2" class="edge"><title>Node0&#45;&gt;Node2</title>
<path fill="none" stroke="midnightblue" d="M252.448,-55.4504C238.334,-47.0453 215.964,-33.7241 199.235,-23.7618"/>
<polygon fill="midnightblue" stroke="midnightblue" points="200.992,-20.7347 190.61,-18.6253 197.411,-26.7491 200.992,-20.7347"/>
</g>
<!-- Node3 -->
<g id="node4" class="node"><title>Node3</title>
<polygon fill="white" stroke="#bfbfbf" points="233.51,-0.5 233.51,-18.5 298.421,-18.5 298.421,-0.5 233.51,-0.5"/>
<text text-anchor="middle" x="265.965" y="-6.5" font-family="Helvetica,sans-Serif" font-size="10.00">vtkPoints.h</text>
</g>
<!-- Node0&#45;&gt;Node3 -->
<g id="edge3" class="edge"><title>Node0&#45;&gt;Node3</title>
<path fill="none" stroke="midnightblue" d="M265.965,-55.2188C265.965,-48.1769 265.965,-37.8083 265.965,-28.8277"/>
<polygon fill="midnightblue" stroke="midnightblue" points="269.465,-28.5495 265.965,-18.5496 262.465,-28.5496 269.465,-28.5495"/>
</g>
<!-- Node4 -->
<g id="node5" class="node"><title>Node4</title>
<polygon fill="white" stroke="#bfbfbf" points="316.456,-0.5 316.456,-18.5 377.475,-18.5 377.475,-0.5 316.456,-0.5"/>
<text text-anchor="middle" x="346.965" y="-6.5" font-family="Helvetica,sans-Serif" font-size="10.00">vtkIdList.h</text>
</g>
<!-- Node0&#45;&gt;Node4 -->
<g id="edge4" class="edge"><title>Node0&#45;&gt;Node4</title>
<path fill="none" stroke="midnightblue" d="M278.267,-55.4504C290.875,-47.201 310.72,-34.2158 325.846,-24.3187"/>
<polygon fill="midnightblue" stroke="midnightblue" points="328.096,-27.0294 334.547,-18.6253 324.263,-21.1719 328.096,-27.0294"/>
</g>
<!-- Node5 -->
<g id="node6" class="node"><title>Node5</title>
<polygon fill="white" stroke="#bfbfbf" points="395.554,-0.5 395.554,-18.5 514.376,-18.5 514.376,-0.5 395.554,-0.5"/>
<text text-anchor="middle" x="454.965" y="-6.5" font-family="Helvetica,sans-Serif" font-size="10.00">vtkvmtkWin32Header.h</text>
</g>
<!-- Node0&#45;&gt;Node5 -->
<g id="edge5" class="edge"><title>Node0&#45;&gt;Node5</title>
<path fill="none" stroke="midnightblue" d="M294.67,-55.4504C327.235,-46.3184 380.495,-31.3833 416.602,-21.2578"/>
<polygon fill="midnightblue" stroke="midnightblue" points="417.617,-24.6085 426.3,-18.5383 415.727,-17.8685 417.617,-24.6085"/>
</g>
</g>
</svg>
