<?xml version="1.0" encoding="UTF-8" standalone="no"?>
<!DOCTYPE svg PUBLIC "-//W3C//DTD SVG 1.1//EN"
 "http://www.w3.org/Graphics/SVG/1.1/DTD/svg11.dtd">
<!-- Generated by graphviz version 2.38.0 (20140413.2041)
 -->
<!-- Title: vtkvmtkPolyDataCenterlineMetricFilter.h Pages: 1 -->
<svg width="298pt" height="102pt"
 viewBox="0.00 0.00 298.04 102.00" xmlns="http://www.w3.org/2000/svg" xmlns:xlink="http://www.w3.org/1999/xlink">
<g id="graph0" class="graph" transform="scale(1 1) rotate(0) translate(4 98)">
<title>vtkvmtkPolyDataCenterlineMetricFilter.h</title>
<polygon fill="white" stroke="none" points="-4,4 -4,-98 294.044,-98 294.044,4 -4,4"/>
<!-- Node4 -->
<g id="node1" class="node"><title>Node4</title>
<polygon fill="#bfbfbf" stroke="black" points="77,-65.5 77,-93.5 213.044,-93.5 213.044,-65.5 77,-65.5"/>
<text text-anchor="start" x="85" y="-81.5" font-family="Helvetica,sans-Serif" font-size="10.00">vtkvmtkPolyDataCenterline</text>
<text text-anchor="middle" x="145.022" y="-71.5" font-family="Helvetica,sans-Serif" font-size="10.00">MetricFilter.h</text>
</g>
<!-- Node5 -->
<g id="node2" class="node"><title>Node5</title>
<g id="a_node2"><a xlink:href="vtkvmtkPolyDataCenterlineAbscissaMetricFilter_8h.html" target="_top" xlink:title="vtkvmtkPolyDataCenterline\lAbscissaMetricFilter.h">
<polygon fill="white" stroke="black" points="0,-0.5 0,-28.5 136.044,-28.5 136.044,-0.5 0,-0.5"/>
<text text-anchor="start" x="8" y="-16.5" font-family="Helvetica,sans-Serif" font-size="10.00">vtkvmtkPolyDataCenterline</text>
<text text-anchor="middle" x="68.022" y="-6.5" font-family="Helvetica,sans-Serif" font-size="10.00">AbscissaMetricFilter.h</text>
</a>
</g>
</g>
<!-- Node4&#45;&gt;Node5 -->
<g id="edge1" class="edge"><title>Node4&#45;&gt;Node5</title>
<path fill="none" stroke="midnightblue" d="M121.129,-58.9513C109.037,-49.0581 94.6887,-37.3182 83.956,-28.5369"/>
<polygon fill="midnightblue" stroke="midnightblue" points="119.112,-61.8228 129.068,-65.4464 123.544,-56.4051 119.112,-61.8228"/>
</g>
<!-- Node6 -->
<g id="node3" class="node"><title>Node6</title>
<g id="a_node3"><a xlink:href="vtkvmtkPolyDataCenterlineAngularMetricFilter_8h.html" target="_top" xlink:title="vtkvmtkPolyDataCenterline\lAngularMetricFilter.h">
<polygon fill="white" stroke="black" points="154,-0.5 154,-28.5 290.044,-28.5 290.044,-0.5 154,-0.5"/>
<text text-anchor="start" x="162" y="-16.5" font-family="Helvetica,sans-Serif" font-size="10.00">vtkvmtkPolyDataCenterline</text>
<text text-anchor="middle" x="222.022" y="-6.5" font-family="Helvetica,sans-Serif" font-size="10.00">AngularMetricFilter.h</text>
</a>
</g>
</g>
<!-- Node4&#45;&gt;Node6 -->
<g id="edge2" class="edge"><title>Node4&#45;&gt;Node6</title>
<path fill="none" stroke="midnightblue" d="M168.915,-58.9513C181.007,-49.0581 195.355,-37.3182 206.088,-28.5369"/>
<polygon fill="midnightblue" stroke="midnightblue" points="166.5,-56.4051 160.976,-65.4464 170.932,-61.8228 166.5,-56.4051"/>
</g>
</g>
</svg>
