<?xml version="1.0" encoding="UTF-8" standalone="no"?>
<!DOCTYPE svg PUBLIC "-//W3C//DTD SVG 1.1//EN"
 "http://www.w3.org/Graphics/SVG/1.1/DTD/svg11.dtd">
<!-- Generated by graphviz version 2.38.0 (20140413.2041)
 -->
<!-- Title: vtkvmtkUnstructuredGridCenterlineGroupsClipper.h Pages: 1 -->
<svg width="605pt" height="92pt"
 viewBox="0.00 0.00 605.16 92.00" xmlns="http://www.w3.org/2000/svg" xmlns:xlink="http://www.w3.org/1999/xlink">
<g id="graph0" class="graph" transform="scale(1 1) rotate(0) translate(4 88)">
<title>vtkvmtkUnstructuredGridCenterlineGroupsClipper.h</title>
<polygon fill="white" stroke="none" points="-4,4 -4,-88 601.157,-88 601.157,4 -4,4"/>
<!-- Node0 -->
<g id="node1" class="node"><title>Node0</title>
<polygon fill="#bfbfbf" stroke="black" points="256.943,-55.5 256.943,-83.5 428.549,-83.5 428.549,-55.5 256.943,-55.5"/>
<text text-anchor="start" x="264.943" y="-71.5" font-family="Helvetica,sans-Serif" font-size="10.00">vtkvmtkUnstructuredGridCenterline</text>
<text text-anchor="middle" x="342.746" y="-61.5" font-family="Helvetica,sans-Serif" font-size="10.00">GroupsClipper.h</text>
</g>
<!-- Node1 -->
<g id="node2" class="node"><title>Node1</title>
<polygon fill="white" stroke="#bfbfbf" points="0,-0.5 0,-18.5 155.492,-18.5 155.492,-0.5 0,-0.5"/>
<text text-anchor="middle" x="77.7461" y="-6.5" font-family="Helvetica,sans-Serif" font-size="10.00">vtkUnstructuredGridAlgorithm.h</text>
</g>
<!-- Node0&#45;&gt;Node1 -->
<g id="edge1" class="edge"><title>Node0&#45;&gt;Node1</title>
<path fill="none" stroke="midnightblue" d="M283.275,-55.4837C235.282,-44.9796 168.7,-30.4069 124.475,-20.7274"/>
<polygon fill="midnightblue" stroke="midnightblue" points="125.083,-17.2778 114.566,-18.5587 123.586,-24.1159 125.083,-17.2778"/>
</g>
<!-- Node2 -->
<g id="node3" class="node"><title>Node2</title>
<polygon fill="white" stroke="#bfbfbf" points="173.118,-0.5 173.118,-18.5 286.374,-18.5 286.374,-0.5 173.118,-0.5"/>
<text text-anchor="middle" x="229.746" y="-6.5" font-family="Helvetica,sans-Serif" font-size="10.00">vtkUnstructuredGrid.h</text>
</g>
<!-- Node0&#45;&gt;Node2 -->
<g id="edge2" class="edge"><title>Node0&#45;&gt;Node2</title>
<path fill="none" stroke="midnightblue" d="M317.387,-55.4837C298.658,-45.8705 273.289,-32.8495 254.665,-23.2903"/>
<polygon fill="midnightblue" stroke="midnightblue" points="256.106,-20.096 245.612,-18.6434 252.91,-26.3236 256.106,-20.096"/>
</g>
<!-- Node3 -->
<g id="node4" class="node"><title>Node3</title>
<polygon fill="white" stroke="#bfbfbf" points="303.899,-0.5 303.899,-18.5 381.593,-18.5 381.593,-0.5 303.899,-0.5"/>
<text text-anchor="middle" x="342.746" y="-6.5" font-family="Helvetica,sans-Serif" font-size="10.00">vtkPolyData.h</text>
</g>
<!-- Node0&#45;&gt;Node3 -->
<g id="edge3" class="edge"><title>Node0&#45;&gt;Node3</title>
<path fill="none" stroke="midnightblue" d="M342.746,-55.3389C342.746,-47.5305 342.746,-37.5122 342.746,-28.9265"/>
<polygon fill="midnightblue" stroke="midnightblue" points="346.246,-28.7714 342.746,-18.7715 339.246,-28.7715 346.246,-28.7714"/>
</g>
<!-- Node4 -->
<g id="node5" class="node"><title>Node4</title>
<polygon fill="white" stroke="#bfbfbf" points="399.236,-0.5 399.236,-18.5 460.256,-18.5 460.256,-0.5 399.236,-0.5"/>
<text text-anchor="middle" x="429.746" y="-6.5" font-family="Helvetica,sans-Serif" font-size="10.00">vtkIdList.h</text>
</g>
<!-- Node0&#45;&gt;Node4 -->
<g id="edge4" class="edge"><title>Node0&#45;&gt;Node4</title>
<path fill="none" stroke="midnightblue" d="M362.488,-55.3389C376.306,-46.1268 394.738,-33.8387 408.812,-24.4561"/>
<polygon fill="midnightblue" stroke="midnightblue" points="410.96,-27.2307 417.339,-18.7715 407.077,-21.4063 410.96,-27.2307"/>
</g>
<!-- Node5 -->
<g id="node6" class="node"><title>Node5</title>
<polygon fill="white" stroke="#bfbfbf" points="478.335,-0.5 478.335,-18.5 597.157,-18.5 597.157,-0.5 478.335,-0.5"/>
<text text-anchor="middle" x="537.746" y="-6.5" font-family="Helvetica,sans-Serif" font-size="10.00">vtkvmtkWin32Header.h</text>
</g>
<!-- Node0&#45;&gt;Node5 -->
<g id="edge5" class="edge"><title>Node0&#45;&gt;Node5</title>
<path fill="none" stroke="midnightblue" d="M386.508,-55.4837C420.857,-45.2671 468.146,-31.2015 500.653,-21.5329"/>
<polygon fill="midnightblue" stroke="midnightblue" points="502.065,-24.7644 510.652,-18.5587 500.069,-18.0549 502.065,-24.7644"/>
</g>
</g>
</svg>
