<?xml version="1.0" encoding="UTF-8" standalone="no"?>
<!DOCTYPE svg PUBLIC "-//W3C//DTD SVG 1.1//EN"
 "http://www.w3.org/Graphics/SVG/1.1/DTD/svg11.dtd">
<!-- Generated by graphviz version 2.38.0 (20140413.2041)
 -->
<!-- Title: vtkvmtkBoundaryConditions.h Pages: 1 -->
<svg width="156pt" height="147pt"
 viewBox="0.00 0.00 156.29 147.00" xmlns="http://www.w3.org/2000/svg" xmlns:xlink="http://www.w3.org/1999/xlink">
<g id="graph0" class="graph" transform="scale(1 1) rotate(0) translate(4 143)">
<title>vtkvmtkBoundaryConditions.h</title>
<polygon fill="white" stroke="none" points="-4,4 -4,-143 152.285,-143 152.285,4 -4,4"/>
<!-- Node20 -->
<g id="node1" class="node"><title>Node20</title>
<polygon fill="#bfbfbf" stroke="black" points="0,-120.5 0,-138.5 148.285,-138.5 148.285,-120.5 0,-120.5"/>
<text text-anchor="middle" x="74.1426" y="-126.5" font-family="Helvetica,sans-Serif" font-size="10.00">vtkvmtkBoundaryConditions.h</text>
</g>
<!-- Node21 -->
<g id="node2" class="node"><title>Node21</title>
<g id="a_node2"><a xlink:href="vtkvmtkDirichletBoundaryConditions_8h.html" target="_top" xlink:title="vtkvmtkDirichletBoundary\lConditions.h">
<polygon fill="white" stroke="black" points="9.73633,-55.5 9.73633,-83.5 138.549,-83.5 138.549,-55.5 9.73633,-55.5"/>
<text text-anchor="start" x="17.7363" y="-71.5" font-family="Helvetica,sans-Serif" font-size="10.00">vtkvmtkDirichletBoundary</text>
<text text-anchor="middle" x="74.1426" y="-61.5" font-family="Helvetica,sans-Serif" font-size="10.00">Conditions.h</text>
</a>
</g>
</g>
<!-- Node20&#45;&gt;Node21 -->
<g id="edge1" class="edge"><title>Node20&#45;&gt;Node21</title>
<path fill="none" stroke="midnightblue" d="M74.1426,-110.321C74.1426,-101.747 74.1426,-91.6999 74.1426,-83.8428"/>
<polygon fill="midnightblue" stroke="midnightblue" points="70.6427,-110.435 74.1426,-120.435 77.6427,-110.435 70.6427,-110.435"/>
</g>
<!-- Node22 -->
<g id="node3" class="node"><title>Node22</title>
<g id="a_node3"><a xlink:href="vtkvmtkEllipticProblem_8h.html" target="_top" xlink:title="vtkvmtkEllipticProblem.h">
<polygon fill="white" stroke="black" points="11.9629,-0.5 11.9629,-18.5 136.322,-18.5 136.322,-0.5 11.9629,-0.5"/>
<text text-anchor="middle" x="74.1426" y="-6.5" font-family="Helvetica,sans-Serif" font-size="10.00">vtkvmtkEllipticProblem.h</text>
</a>
</g>
</g>
<!-- Node21&#45;&gt;Node22 -->
<g id="edge2" class="edge"><title>Node21&#45;&gt;Node22</title>
<path fill="none" stroke="midnightblue" d="M74.1426,-45.323C74.1426,-35.936 74.1426,-25.7002 74.1426,-18.7715"/>
<polygon fill="midnightblue" stroke="midnightblue" points="70.6427,-45.3389 74.1426,-55.3389 77.6427,-45.3389 70.6427,-45.3389"/>
</g>
</g>
</svg>
