<?xml version="1.0" encoding="UTF-8" standalone="no"?>
<!DOCTYPE svg PUBLIC "-//W3C//DTD SVG 1.1//EN"
 "http://www.w3.org/Graphics/SVG/1.1/DTD/svg11.dtd">
<!-- Generated by graphviz version 2.38.0 (20140413.2041)
 -->
<!-- Title: vtkvmtkMinHeap.h Pages: 1 -->
<svg width="320pt" height="82pt"
 viewBox="0.00 0.00 320.42 82.00" xmlns="http://www.w3.org/2000/svg" xmlns:xlink="http://www.w3.org/1999/xlink">
<g id="graph0" class="graph" transform="scale(1 1) rotate(0) translate(4 78)">
<title>vtkvmtkMinHeap.h</title>
<polygon fill="white" stroke="none" points="-4,4 -4,-78 316.421,-78 316.421,4 -4,4"/>
<!-- Node0 -->
<g id="node1" class="node"><title>Node0</title>
<polygon fill="#bfbfbf" stroke="black" points="80.8867,-55.5 80.8867,-73.5 179.133,-73.5 179.133,-55.5 80.8867,-55.5"/>
<text text-anchor="middle" x="130.01" y="-61.5" font-family="Helvetica,sans-Serif" font-size="10.00">vtkvmtkMinHeap.h</text>
</g>
<!-- Node1 -->
<g id="node2" class="node"><title>Node1</title>
<polygon fill="white" stroke="#bfbfbf" points="0,-0.5 0,-18.5 66.0195,-18.5 66.0195,-0.5 0,-0.5"/>
<text text-anchor="middle" x="33.0098" y="-6.5" font-family="Helvetica,sans-Serif" font-size="10.00">vtkObject.h</text>
</g>
<!-- Node0&#45;&gt;Node1 -->
<g id="edge1" class="edge"><title>Node0&#45;&gt;Node1</title>
<path fill="none" stroke="midnightblue" d="M115.278,-55.4504C99.7522,-46.9675 75.0621,-33.477 56.7765,-23.486"/>
<polygon fill="midnightblue" stroke="midnightblue" points="58.3343,-20.3488 47.8806,-18.6253 54.9779,-26.4917 58.3343,-20.3488"/>
</g>
<!-- Node2 -->
<g id="node3" class="node"><title>Node2</title>
<polygon fill="white" stroke="#bfbfbf" points="84.0288,-0.5 84.0288,-18.5 175.991,-18.5 175.991,-0.5 84.0288,-0.5"/>
<text text-anchor="middle" x="130.01" y="-6.5" font-family="Helvetica,sans-Serif" font-size="10.00">vtkDoubleArray.h</text>
</g>
<!-- Node0&#45;&gt;Node2 -->
<g id="edge2" class="edge"><title>Node0&#45;&gt;Node2</title>
<path fill="none" stroke="midnightblue" d="M130.01,-55.2188C130.01,-48.1769 130.01,-37.8083 130.01,-28.8277"/>
<polygon fill="midnightblue" stroke="midnightblue" points="133.51,-28.5495 130.01,-18.5496 126.51,-28.5496 133.51,-28.5495"/>
</g>
<!-- Node3 -->
<g id="node4" class="node"><title>Node3</title>
<polygon fill="white" stroke="#bfbfbf" points="193.599,-0.5 193.599,-18.5 312.421,-18.5 312.421,-0.5 193.599,-0.5"/>
<text text-anchor="middle" x="253.01" y="-6.5" font-family="Helvetica,sans-Serif" font-size="10.00">vtkvmtkWin32Header.h</text>
</g>
<!-- Node0&#45;&gt;Node3 -->
<g id="edge3" class="edge"><title>Node0&#45;&gt;Node3</title>
<path fill="none" stroke="midnightblue" d="M148.691,-55.4504C168.919,-46.734 201.418,-32.7306 224.768,-22.6691"/>
<polygon fill="midnightblue" stroke="midnightblue" points="226.354,-25.7969 234.153,-18.6253 223.584,-19.3683 226.354,-25.7969"/>
</g>
</g>
</svg>
