<?xml version="1.0" encoding="UTF-8" standalone="no"?>
<!DOCTYPE svg PUBLIC "-//W3C//DTD SVG 1.1//EN"
 "http://www.w3.org/Graphics/SVG/1.1/DTD/svg11.dtd">
<!-- Generated by graphviz version 2.38.0 (20140413.2041)
 -->
<!-- Title: vtkvmtkStaticTemporalInterpolatedVelocityField.h Pages: 1 -->
<svg width="387pt" height="102pt"
 viewBox="0.00 0.00 386.78 102.00" xmlns="http://www.w3.org/2000/svg" xmlns:xlink="http://www.w3.org/1999/xlink">
<g id="graph0" class="graph" transform="scale(1 1) rotate(0) translate(4 98)">
<title>vtkvmtkStaticTemporalInterpolatedVelocityField.h</title>
<polygon fill="white" stroke="none" points="-4,4 -4,-98 382.783,-98 382.783,4 -4,4"/>
<!-- Node0 -->
<g id="node1" class="node"><title>Node0</title>
<polygon fill="#bfbfbf" stroke="black" points="87.9902,-65.5 87.9902,-93.5 256.832,-93.5 256.832,-65.5 87.9902,-65.5"/>
<text text-anchor="start" x="95.9902" y="-81.5" font-family="Helvetica,sans-Serif" font-size="10.00">vtkvmtkStaticTemporalInterpolated</text>
<text text-anchor="middle" x="172.411" y="-71.5" font-family="Helvetica,sans-Serif" font-size="10.00">VelocityField.h</text>
</g>
<!-- Node1 -->
<g id="node2" class="node"><title>Node1</title>
<polygon fill="white" stroke="#bfbfbf" points="0,-5.5 0,-23.5 118.822,-23.5 118.822,-5.5 0,-5.5"/>
<text text-anchor="middle" x="59.4111" y="-11.5" font-family="Helvetica,sans-Serif" font-size="10.00">vtkvmtkWin32Header.h</text>
</g>
<!-- Node0&#45;&gt;Node1 -->
<g id="edge1" class="edge"><title>Node0&#45;&gt;Node1</title>
<path fill="none" stroke="midnightblue" d="M148.997,-65.4464C129.553,-54.6058 102.037,-39.265 82.6435,-28.4526"/>
<polygon fill="midnightblue" stroke="midnightblue" points="84.2851,-25.3606 73.8464,-23.548 80.8763,-31.4746 84.2851,-25.3606"/>
</g>
<!-- Node2 -->
<g id="node3" class="node"><title>Node2</title>
<polygon fill="white" stroke="#bfbfbf" points="137.172,-5.5 137.172,-23.5 207.65,-23.5 207.65,-5.5 137.172,-5.5"/>
<text text-anchor="middle" x="172.411" y="-11.5" font-family="Helvetica,sans-Serif" font-size="10.00">vtkVersion.h</text>
</g>
<!-- Node0&#45;&gt;Node2 -->
<g id="edge2" class="edge"><title>Node0&#45;&gt;Node2</title>
<path fill="none" stroke="midnightblue" d="M172.411,-65.4464C172.411,-56.3336 172.411,-44.0406 172.411,-33.9308"/>
<polygon fill="midnightblue" stroke="midnightblue" points="175.911,-33.7301 172.411,-23.7301 168.911,-33.7301 175.911,-33.7301"/>
</g>
<!-- Node3 -->
<g id="node4" class="node"><title>Node3</title>
<polygon fill="white" stroke="#bfbfbf" points="226.04,-0.5 226.04,-28.5 378.783,-28.5 378.783,-0.5 226.04,-0.5"/>
<text text-anchor="start" x="234.04" y="-16.5" font-family="Helvetica,sans-Serif" font-size="10.00">vtkAbstractInterpolatedVelocity</text>
<text text-anchor="middle" x="302.411" y="-6.5" font-family="Helvetica,sans-Serif" font-size="10.00">Field.h</text>
</g>
<!-- Node0&#45;&gt;Node3 -->
<g id="edge3" class="edge"><title>Node0&#45;&gt;Node3</title>
<path fill="none" stroke="midnightblue" d="M199.347,-65.4464C218.782,-56.0278 245.228,-43.212 266.464,-32.9207"/>
<polygon fill="midnightblue" stroke="midnightblue" points="268.037,-36.0477 275.51,-28.5369 264.984,-29.7484 268.037,-36.0477"/>
</g>
</g>
</svg>
