<?xml version="1.0" encoding="UTF-8" standalone="no"?>
<!DOCTYPE svg PUBLIC "-//W3C//DTD SVG 1.1//EN"
 "http://www.w3.org/Graphics/SVG/1.1/DTD/svg11.dtd">
<!-- Generated by graphviz version 2.38.0 (20140413.2041)
 -->
<!-- Title: vtkvmtkEmptyNeighborhood.h Pages: 1 -->
<svg width="452pt" height="247pt"
 viewBox="0.00 0.00 451.64 247.00" xmlns="http://www.w3.org/2000/svg" xmlns:xlink="http://www.w3.org/1999/xlink">
<g id="graph0" class="graph" transform="scale(1 1) rotate(0) translate(4 243)">
<title>vtkvmtkEmptyNeighborhood.h</title>
<polygon fill="white" stroke="none" points="-4,4 -4,-243 447.635,-243 447.635,4 -4,4"/>
<!-- Node0 -->
<g id="node1" class="node"><title>Node0</title>
<polygon fill="#bfbfbf" stroke="black" points="179.313,-220.5 179.313,-238.5 328.707,-238.5 328.707,-220.5 179.313,-220.5"/>
<text text-anchor="middle" x="254.01" y="-226.5" font-family="Helvetica,sans-Serif" font-size="10.00">vtkvmtkEmptyNeighborhood.h</text>
</g>
<!-- Node1 -->
<g id="node2" class="node"><title>Node1</title>
<polygon fill="white" stroke="#bfbfbf" points="0,-0.5 0,-18.5 66.0195,-18.5 66.0195,-0.5 0,-0.5"/>
<text text-anchor="middle" x="33.0098" y="-6.5" font-family="Helvetica,sans-Serif" font-size="10.00">vtkObject.h</text>
</g>
<!-- Node0&#45;&gt;Node1 -->
<g id="edge1" class="edge"><title>Node0&#45;&gt;Node1</title>
<path fill="none" stroke="midnightblue" d="M212.568,-220.458C186.026,-213.843 151.843,-202.478 126.01,-184 77.472,-149.282 72.263,-128.96 49.0098,-74 42.7739,-59.2614 38.5582,-41.532 36.0264,-28.557"/>
<polygon fill="midnightblue" stroke="midnightblue" points="39.4453,-27.7937 34.2266,-18.5734 32.5564,-29.0357 39.4453,-27.7937"/>
</g>
<!-- Node2 -->
<g id="node3" class="node"><title>Node2</title>
<g id="a_node3"><a xlink:href="vtkvmtkConstants_8h.html" target="_top" xlink:title="vtkvmtkConstants.h">
<polygon fill="white" stroke="black" points="340.384,-165.5 340.384,-183.5 443.635,-183.5 443.635,-165.5 340.384,-165.5"/>
<text text-anchor="middle" x="392.01" y="-171.5" font-family="Helvetica,sans-Serif" font-size="10.00">vtkvmtkConstants.h</text>
</a>
</g>
</g>
<!-- Node0&#45;&gt;Node2 -->
<g id="edge2" class="edge"><title>Node0&#45;&gt;Node2</title>
<path fill="none" stroke="midnightblue" d="M274.969,-220.45C297.969,-211.617 335.105,-197.355 361.371,-187.267"/>
<polygon fill="midnightblue" stroke="midnightblue" points="362.773,-190.478 370.853,-183.625 360.263,-183.943 362.773,-190.478"/>
</g>
<!-- Node3 -->
<g id="node4" class="node"><title>Node3</title>
<g id="a_node4"><a xlink:href="vtkvmtkNeighborhood_8h.html" target="_top" xlink:title="vtkvmtkNeighborhood.h">
<polygon fill="white" stroke="black" points="135.483,-165.5 135.483,-183.5 256.537,-183.5 256.537,-165.5 135.483,-165.5"/>
<text text-anchor="middle" x="196.01" y="-171.5" font-family="Helvetica,sans-Serif" font-size="10.00">vtkvmtkNeighborhood.h</text>
</a>
</g>
</g>
<!-- Node0&#45;&gt;Node3 -->
<g id="edge3" class="edge"><title>Node0&#45;&gt;Node3</title>
<path fill="none" stroke="midnightblue" d="M244.947,-220.219C236.214,-212.238 222.804,-199.984 212.229,-190.321"/>
<polygon fill="midnightblue" stroke="midnightblue" points="214.562,-187.712 204.819,-183.55 209.84,-192.879 214.562,-187.712"/>
</g>
<!-- Node7 -->
<g id="node8" class="node"><title>Node7</title>
<polygon fill="white" stroke="#bfbfbf" points="195.599,-0.5 195.599,-18.5 314.421,-18.5 314.421,-0.5 195.599,-0.5"/>
<text text-anchor="middle" x="255.01" y="-6.5" font-family="Helvetica,sans-Serif" font-size="10.00">vtkvmtkWin32Header.h</text>
</g>
<!-- Node0&#45;&gt;Node7 -->
<g id="edge14" class="edge"><title>Node0&#45;&gt;Node7</title>
<path fill="none" stroke="midnightblue" d="M256.855,-220.427C259.804,-211.607 264.227,-197.001 266.01,-184 273.797,-127.196 274.539,-111.839 267.01,-55 265.825,-46.0563 263.356,-36.3587 260.964,-28.3061"/>
<polygon fill="midnightblue" stroke="midnightblue" points="264.236,-27.0451 257.878,-18.5704 257.563,-29.1606 264.236,-27.0451"/>
</g>
<!-- Node3&#45;&gt;Node1 -->
<g id="edge4" class="edge"><title>Node3&#45;&gt;Node1</title>
<path fill="none" stroke="midnightblue" d="M169.095,-165.399C149.063,-158.316 122.013,-146.413 103.01,-129 71.4098,-100.044 49.726,-53.4876 39.5764,-28.2115"/>
<polygon fill="midnightblue" stroke="midnightblue" points="42.8069,-26.8612 35.9374,-18.7951 36.2775,-29.3845 42.8069,-26.8612"/>
</g>
<!-- Node4 -->
<g id="node5" class="node"><title>Node4</title>
<g id="a_node5"><a xlink:href="vtkvmtkDataSetItem_8h.html" target="_top" xlink:title="vtkvmtkDataSetItem.h">
<polygon fill="white" stroke="black" points="112.106,-110.5 112.106,-128.5 225.914,-128.5 225.914,-110.5 112.106,-110.5"/>
<text text-anchor="middle" x="169.01" y="-116.5" font-family="Helvetica,sans-Serif" font-size="10.00">vtkvmtkDataSetItem.h</text>
</a>
</g>
</g>
<!-- Node3&#45;&gt;Node4 -->
<g id="edge5" class="edge"><title>Node3&#45;&gt;Node4</title>
<path fill="none" stroke="midnightblue" d="M191.791,-165.219C188.044,-157.864 182.449,-146.88 177.741,-137.639"/>
<polygon fill="midnightblue" stroke="midnightblue" points="180.768,-135.871 173.11,-128.55 174.531,-139.049 180.768,-135.871"/>
</g>
<!-- Node3&#45;&gt;Node7 -->
<g id="edge13" class="edge"><title>Node3&#45;&gt;Node7</title>
<path fill="none" stroke="midnightblue" d="M205.718,-165.375C214.822,-157.176 228.046,-143.661 235.01,-129 250.625,-96.1222 254.246,-53.0245 254.968,-28.9037"/>
<polygon fill="midnightblue" stroke="midnightblue" points="258.47,-28.7692 255.13,-18.7149 251.471,-28.6582 258.47,-28.7692"/>
</g>
<!-- Node4&#45;&gt;Node1 -->
<g id="edge6" class="edge"><title>Node4&#45;&gt;Node1</title>
<path fill="none" stroke="midnightblue" d="M158.788,-110.382C135.947,-92.244 80.4992,-48.2122 51.4522,-25.1455"/>
<polygon fill="midnightblue" stroke="midnightblue" points="53.3582,-22.1897 43.3505,-18.7118 49.005,-27.6715 53.3582,-22.1897"/>
</g>
<!-- Node5 -->
<g id="node6" class="node"><title>Node5</title>
<g id="a_node6"><a xlink:href="vtkvmtkItem_8h.html" target="_top" xlink:title="vtkvmtkItem.h">
<polygon fill="white" stroke="black" points="130.172,-55.5 130.172,-73.5 207.847,-73.5 207.847,-55.5 130.172,-55.5"/>
<text text-anchor="middle" x="169.01" y="-61.5" font-family="Helvetica,sans-Serif" font-size="10.00">vtkvmtkItem.h</text>
</a>
</g>
</g>
<!-- Node4&#45;&gt;Node5 -->
<g id="edge7" class="edge"><title>Node4&#45;&gt;Node5</title>
<path fill="none" stroke="midnightblue" d="M169.01,-110.219C169.01,-103.177 169.01,-92.8083 169.01,-83.8277"/>
<polygon fill="midnightblue" stroke="midnightblue" points="172.51,-83.5495 169.01,-73.5496 165.51,-83.5496 172.51,-83.5495"/>
</g>
<!-- Node6 -->
<g id="node7" class="node"><title>Node6</title>
<polygon fill="white" stroke="#bfbfbf" points="97.3843,-0.5 97.3843,-18.5 170.635,-18.5 170.635,-0.5 97.3843,-0.5"/>
<text text-anchor="middle" x="134.01" y="-6.5" font-family="Helvetica,sans-Serif" font-size="10.00">vtkDataSet.h</text>
</g>
<!-- Node4&#45;&gt;Node6 -->
<g id="edge11" class="edge"><title>Node4&#45;&gt;Node6</title>
<path fill="none" stroke="midnightblue" d="M155.102,-110.272C143.546,-102.55 127.92,-89.83 121.01,-74 114.544,-59.1894 119.424,-41.0126 124.954,-27.9071"/>
<polygon fill="midnightblue" stroke="midnightblue" points="128.223,-29.1824 129.325,-18.6451 121.892,-26.195 128.223,-29.1824"/>
</g>
<!-- Node4&#45;&gt;Node7 -->
<g id="edge12" class="edge"><title>Node4&#45;&gt;Node7</title>
<path fill="none" stroke="midnightblue" d="M179.367,-110.378C189.672,-101.975 205.56,-88.1234 217.01,-74 228.744,-59.5261 239.379,-41.0713 246.394,-27.7917"/>
<polygon fill="midnightblue" stroke="midnightblue" points="249.558,-29.2919 251.011,-18.7971 243.331,-26.0952 249.558,-29.2919"/>
</g>
<!-- Node5&#45;&gt;Node1 -->
<g id="edge8" class="edge"><title>Node5&#45;&gt;Node1</title>
<path fill="none" stroke="midnightblue" d="M148.354,-55.4504C125.688,-46.6173 89.0895,-32.3546 63.2044,-22.267"/>
<polygon fill="midnightblue" stroke="midnightblue" points="64.448,-18.9953 53.8596,-18.6253 61.9062,-25.5176 64.448,-18.9953"/>
</g>
<!-- Node5&#45;&gt;Node6 -->
<g id="edge9" class="edge"><title>Node5&#45;&gt;Node6</title>
<path fill="none" stroke="midnightblue" d="M163.541,-55.2188C158.581,-47.7074 151.121,-36.411 144.94,-27.0515"/>
<polygon fill="midnightblue" stroke="midnightblue" points="147.757,-24.9655 139.326,-18.5496 141.916,-28.823 147.757,-24.9655"/>
</g>
<!-- Node5&#45;&gt;Node7 -->
<g id="edge10" class="edge"><title>Node5&#45;&gt;Node7</title>
<path fill="none" stroke="midnightblue" d="M182.071,-55.4504C195.584,-47.1232 216.926,-33.9704 233.04,-24.0394"/>
<polygon fill="midnightblue" stroke="midnightblue" points="235.148,-26.8515 241.825,-18.6253 231.476,-20.8922 235.148,-26.8515"/>
</g>
</g>
</svg>
