<?xml version="1.0" encoding="UTF-8" standalone="no"?>
<!DOCTYPE svg PUBLIC "-//W3C//DTD SVG 1.1//EN"
 "http://www.w3.org/Graphics/SVG/1.1/DTD/svg11.dtd">
<!-- Generated by graphviz version 2.38.0 (20140413.2041)
 -->
<!-- Title: vtkvmtkMeshVelocityStatistics.h Pages: 1 -->
<svg width="510pt" height="82pt"
 viewBox="0.00 0.00 510.26 82.00" xmlns="http://www.w3.org/2000/svg" xmlns:xlink="http://www.w3.org/1999/xlink">
<g id="graph0" class="graph" transform="scale(1 1) rotate(0) translate(4 78)">
<title>vtkvmtkMeshVelocityStatistics.h</title>
<polygon fill="white" stroke="none" points="-4,4 -4,-78 506.256,-78 506.256,4 -4,4"/>
<!-- Node0 -->
<g id="node1" class="node"><title>Node0</title>
<polygon fill="#bfbfbf" stroke="black" points="218.167,-55.5 218.167,-73.5 375.325,-73.5 375.325,-55.5 218.167,-55.5"/>
<text text-anchor="middle" x="296.746" y="-61.5" font-family="Helvetica,sans-Serif" font-size="10.00">vtkvmtkMeshVelocityStatistics.h</text>
</g>
<!-- Node1 -->
<g id="node2" class="node"><title>Node1</title>
<polygon fill="white" stroke="#bfbfbf" points="0,-0.5 0,-18.5 155.492,-18.5 155.492,-0.5 0,-0.5"/>
<text text-anchor="middle" x="77.7461" y="-6.5" font-family="Helvetica,sans-Serif" font-size="10.00">vtkUnstructuredGridAlgorithm.h</text>
</g>
<!-- Node0&#45;&gt;Node1 -->
<g id="edge1" class="edge"><title>Node0&#45;&gt;Node1</title>
<path fill="none" stroke="midnightblue" d="M263.485,-55.4504C225.347,-46.2209 162.716,-31.0635 120.864,-20.935"/>
<polygon fill="midnightblue" stroke="midnightblue" points="121.504,-17.4888 110.961,-18.5383 119.857,-24.2924 121.504,-17.4888"/>
</g>
<!-- Node2 -->
<g id="node3" class="node"><title>Node2</title>
<polygon fill="white" stroke="#bfbfbf" points="173.118,-0.5 173.118,-18.5 286.374,-18.5 286.374,-0.5 173.118,-0.5"/>
<text text-anchor="middle" x="229.746" y="-6.5" font-family="Helvetica,sans-Serif" font-size="10.00">vtkUnstructuredGrid.h</text>
</g>
<!-- Node0&#45;&gt;Node2 -->
<g id="edge2" class="edge"><title>Node0&#45;&gt;Node2</title>
<path fill="none" stroke="midnightblue" d="M286.57,-55.4504C276.338,-47.3566 260.344,-34.7042 247.927,-24.8822"/>
<polygon fill="midnightblue" stroke="midnightblue" points="250.032,-22.0844 240.018,-18.6253 245.689,-27.5744 250.032,-22.0844"/>
</g>
<!-- Node3 -->
<g id="node4" class="node"><title>Node3</title>
<polygon fill="white" stroke="#bfbfbf" points="304.335,-0.5 304.335,-18.5 423.157,-18.5 423.157,-0.5 304.335,-0.5"/>
<text text-anchor="middle" x="363.746" y="-6.5" font-family="Helvetica,sans-Serif" font-size="10.00">vtkvmtkWin32Header.h</text>
</g>
<!-- Node0&#45;&gt;Node3 -->
<g id="edge3" class="edge"><title>Node0&#45;&gt;Node3</title>
<path fill="none" stroke="midnightblue" d="M306.922,-55.4504C317.154,-47.3566 333.148,-34.7042 345.565,-24.8822"/>
<polygon fill="midnightblue" stroke="midnightblue" points="347.803,-27.5744 353.474,-18.6253 343.46,-22.0844 347.803,-27.5744"/>
</g>
<!-- Node4 -->
<g id="node5" class="node"><title>Node4</title>
<polygon fill="white" stroke="#bfbfbf" points="441.236,-0.5 441.236,-18.5 502.256,-18.5 502.256,-0.5 441.236,-0.5"/>
<text text-anchor="middle" x="471.746" y="-6.5" font-family="Helvetica,sans-Serif" font-size="10.00">vtkIdList.h</text>
</g>
<!-- Node0&#45;&gt;Node4 -->
<g id="edge4" class="edge"><title>Node0&#45;&gt;Node4</title>
<path fill="none" stroke="midnightblue" d="M323.325,-55.4504C353.22,-46.3965 401.95,-31.6382 435.364,-21.5185"/>
<polygon fill="midnightblue" stroke="midnightblue" points="436.648,-24.7867 445.205,-18.5383 434.619,-18.0872 436.648,-24.7867"/>
</g>
</g>
</svg>
