<?xml version="1.0" encoding="UTF-8" standalone="no"?>
<!DOCTYPE svg PUBLIC "-//W3C//DTD SVG 1.1//EN"
 "http://www.w3.org/Graphics/SVG/1.1/DTD/svg11.dtd">
<!-- Generated by graphviz version 2.38.0 (20140413.2041)
 -->
<!-- Title: vtkvmtkPNGWriter.h Pages: 1 -->
<svg width="230pt" height="82pt"
 viewBox="0.00 0.00 229.77 82.00" xmlns="http://www.w3.org/2000/svg" xmlns:xlink="http://www.w3.org/1999/xlink">
<g id="graph0" class="graph" transform="scale(1 1) rotate(0) translate(4 78)">
<title>vtkvmtkPNGWriter.h</title>
<polygon fill="white" stroke="none" points="-4,4 -4,-78 225.774,-78 225.774,4 -4,4"/>
<!-- Node0 -->
<g id="node1" class="node"><title>Node0</title>
<polygon fill="#bfbfbf" stroke="black" points="66.4941,-55.5 66.4941,-73.5 172.328,-73.5 172.328,-55.5 66.4941,-55.5"/>
<text text-anchor="middle" x="119.411" y="-61.5" font-family="Helvetica,sans-Serif" font-size="10.00">vtkvmtkPNGWriter.h</text>
</g>
<!-- Node1 -->
<g id="node2" class="node"><title>Node1</title>
<polygon fill="white" stroke="#bfbfbf" points="0,-0.5 0,-18.5 118.822,-18.5 118.822,-0.5 0,-0.5"/>
<text text-anchor="middle" x="59.4111" y="-6.5" font-family="Helvetica,sans-Serif" font-size="10.00">vtkvmtkWin32Header.h</text>
</g>
<!-- Node0&#45;&gt;Node1 -->
<g id="edge1" class="edge"><title>Node0&#45;&gt;Node1</title>
<path fill="none" stroke="midnightblue" d="M110.298,-55.4504C101.312,-47.5123 87.3611,-35.1891 76.3378,-25.4519"/>
<polygon fill="midnightblue" stroke="midnightblue" points="78.4215,-22.6225 68.6096,-18.6253 73.7872,-27.8689 78.4215,-22.6225"/>
</g>
<!-- Node2 -->
<g id="node3" class="node"><title>Node2</title>
<polygon fill="white" stroke="#bfbfbf" points="137.048,-0.5 137.048,-18.5 221.774,-18.5 221.774,-0.5 137.048,-0.5"/>
<text text-anchor="middle" x="179.411" y="-6.5" font-family="Helvetica,sans-Serif" font-size="10.00">vtkPNGWriter.h</text>
</g>
<!-- Node0&#45;&gt;Node2 -->
<g id="edge2" class="edge"><title>Node0&#45;&gt;Node2</title>
<path fill="none" stroke="midnightblue" d="M128.524,-55.4504C137.51,-47.5123 151.461,-35.1891 162.484,-25.4519"/>
<polygon fill="midnightblue" stroke="midnightblue" points="165.035,-27.8689 170.213,-18.6253 160.401,-22.6225 165.035,-27.8689"/>
</g>
</g>
</svg>
