<?xml version="1.0" encoding="UTF-8" standalone="no"?>
<!DOCTYPE svg PUBLIC "-//W3C//DTD SVG 1.1//EN"
 "http://www.w3.org/Graphics/SVG/1.1/DTD/svg11.dtd">
<!-- Generated by graphviz version 2.38.0 (20140413.2041)
 -->
<!-- Title: vtkvmtkPolyDataSurfaceRemeshing.h Pages: 1 -->
<svg width="428pt" height="82pt"
 viewBox="0.00 0.00 427.52 82.00" xmlns="http://www.w3.org/2000/svg" xmlns:xlink="http://www.w3.org/1999/xlink">
<g id="graph0" class="graph" transform="scale(1 1) rotate(0) translate(4 78)">
<title>vtkvmtkPolyDataSurfaceRemeshing.h</title>
<polygon fill="white" stroke="none" points="-4,4 -4,-78 423.52,-78 423.52,4 -4,4"/>
<!-- Node0 -->
<g id="node1" class="node"><title>Node0</title>
<polygon fill="#bfbfbf" stroke="black" points="120.086,-55.5 120.086,-73.5 303.933,-73.5 303.933,-55.5 120.086,-55.5"/>
<text text-anchor="middle" x="212.01" y="-61.5" font-family="Helvetica,sans-Serif" font-size="10.00">vtkvmtkPolyDataSurfaceRemeshing.h</text>
</g>
<!-- Node1 -->
<g id="node2" class="node"><title>Node1</title>
<polygon fill="white" stroke="#bfbfbf" points="0,-0.5 0,-18.5 66.0195,-18.5 66.0195,-0.5 0,-0.5"/>
<text text-anchor="middle" x="33.0098" y="-6.5" font-family="Helvetica,sans-Serif" font-size="10.00">vtkObject.h</text>
</g>
<!-- Node0&#45;&gt;Node1 -->
<g id="edge1" class="edge"><title>Node0&#45;&gt;Node1</title>
<path fill="none" stroke="midnightblue" d="M184.824,-55.4504C154.113,-46.3575 103.971,-31.5108 69.7822,-21.3879"/>
<polygon fill="midnightblue" stroke="midnightblue" points="70.7402,-18.0215 60.158,-18.5383 68.7528,-24.7334 70.7402,-18.0215"/>
</g>
<!-- Node2 -->
<g id="node3" class="node"><title>Node2</title>
<polygon fill="white" stroke="#bfbfbf" points="84.0444,-0.5 84.0444,-18.5 203.975,-18.5 203.975,-0.5 84.0444,-0.5"/>
<text text-anchor="middle" x="144.01" y="-6.5" font-family="Helvetica,sans-Serif" font-size="10.00">vtkPolyDataAlgorithm.h</text>
</g>
<!-- Node0&#45;&gt;Node2 -->
<g id="edge2" class="edge"><title>Node0&#45;&gt;Node2</title>
<path fill="none" stroke="midnightblue" d="M201.682,-55.4504C191.298,-47.3566 175.064,-34.7042 162.462,-24.8822"/>
<polygon fill="midnightblue" stroke="midnightblue" points="164.474,-22.0122 154.435,-18.6253 160.17,-27.5333 164.474,-22.0122"/>
</g>
<!-- Node3 -->
<g id="node4" class="node"><title>Node3</title>
<polygon fill="white" stroke="#bfbfbf" points="221.599,-0.5 221.599,-18.5 340.421,-18.5 340.421,-0.5 221.599,-0.5"/>
<text text-anchor="middle" x="281.01" y="-6.5" font-family="Helvetica,sans-Serif" font-size="10.00">vtkvmtkWin32Header.h</text>
</g>
<!-- Node0&#45;&gt;Node3 -->
<g id="edge3" class="edge"><title>Node0&#45;&gt;Node3</title>
<path fill="none" stroke="midnightblue" d="M222.489,-55.4504C233.027,-47.3566 249.499,-34.7042 262.286,-24.8822"/>
<polygon fill="midnightblue" stroke="midnightblue" points="264.633,-27.4926 270.432,-18.6253 260.369,-21.9412 264.633,-27.4926"/>
</g>
<!-- Node4 -->
<g id="node5" class="node"><title>Node4</title>
<polygon fill="white" stroke="#bfbfbf" points="358.5,-0.5 358.5,-18.5 419.52,-18.5 419.52,-0.5 358.5,-0.5"/>
<text text-anchor="middle" x="389.01" y="-6.5" font-family="Helvetica,sans-Serif" font-size="10.00">vtkIdList.h</text>
</g>
<!-- Node0&#45;&gt;Node4 -->
<g id="edge4" class="edge"><title>Node0&#45;&gt;Node4</title>
<path fill="none" stroke="midnightblue" d="M238.892,-55.4504C269.129,-46.3965 318.416,-31.6382 352.212,-21.5185"/>
<polygon fill="midnightblue" stroke="midnightblue" points="353.589,-24.7598 362.165,-18.5383 351.581,-18.054 353.589,-24.7598"/>
</g>
</g>
</svg>
