<?xml version="1.0" encoding="UTF-8" standalone="no"?>
<!DOCTYPE svg PUBLIC "-//W3C//DTD SVG 1.1//EN"
 "http://www.w3.org/Graphics/SVG/1.1/DTD/svg11.dtd">
<!-- Generated by graphviz version 2.38.0 (20140413.2041)
 -->
<!-- Title: vtkvmtkPolyDataManifoldExtendedNeighborhood.h Pages: 1 -->
<svg width="480pt" height="312pt"
 viewBox="0.00 0.00 480.00 312.00" xmlns="http://www.w3.org/2000/svg" xmlns:xlink="http://www.w3.org/1999/xlink">
<g id="graph0" class="graph" transform="scale(1 1) rotate(0) translate(4 308)">
<title>vtkvmtkPolyDataManifoldExtendedNeighborhood.h</title>
<polygon fill="white" stroke="none" points="-4,4 -4,-308 476,-308 476,4 -4,4"/>
<!-- Node0 -->
<g id="node1" class="node"><title>Node0</title>
<polygon fill="#bfbfbf" stroke="black" points="163.742,-275.5 163.742,-303.5 334.258,-303.5 334.258,-275.5 163.742,-275.5"/>
<text text-anchor="start" x="171.742" y="-291.5" font-family="Helvetica,sans-Serif" font-size="10.00">vtkvmtkPolyDataManifoldExtended</text>
<text text-anchor="middle" x="249" y="-281.5" font-family="Helvetica,sans-Serif" font-size="10.00">Neighborhood.h</text>
</g>
<!-- Node1 -->
<g id="node2" class="node"><title>Node1</title>
<polygon fill="white" stroke="#bfbfbf" points="81.9902,-0.5 81.9902,-18.5 148.01,-18.5 148.01,-0.5 81.9902,-0.5"/>
<text text-anchor="middle" x="115" y="-6.5" font-family="Helvetica,sans-Serif" font-size="10.00">vtkObject.h</text>
</g>
<!-- Node0&#45;&gt;Node1 -->
<g id="edge1" class="edge"><title>Node0&#45;&gt;Node1</title>
<path fill="none" stroke="midnightblue" d="M163.657,-284.015C91.5762,-275.069 0,-249.201 0,-175.5 0,-175.5 0,-175.5 0,-118.5 0,-71.5583 51.5433,-39.0637 85.6156,-22.7116"/>
<polygon fill="midnightblue" stroke="midnightblue" points="87.0838,-25.8888 94.705,-18.5289 84.1576,-19.5297 87.0838,-25.8888"/>
</g>
<!-- Node2 -->
<g id="node3" class="node"><title>Node2</title>
<g id="a_node3"><a xlink:href="vtkvmtkConstants_8h.html" target="_top" xlink:title="vtkvmtkConstants.h">
<polygon fill="white" stroke="black" points="28.3745,-165.5 28.3745,-183.5 131.625,-183.5 131.625,-165.5 28.3745,-165.5"/>
<text text-anchor="middle" x="80" y="-171.5" font-family="Helvetica,sans-Serif" font-size="10.00">vtkvmtkConstants.h</text>
</a>
</g>
</g>
<!-- Node0&#45;&gt;Node2 -->
<g id="edge2" class="edge"><title>Node0&#45;&gt;Node2</title>
<path fill="none" stroke="midnightblue" d="M210.994,-275.443C189.114,-266.929 161.736,-254.518 140,-239 121.368,-225.698 103.849,-206.008 92.6079,-192.086"/>
<polygon fill="midnightblue" stroke="midnightblue" points="95.1064,-189.6 86.1786,-183.895 89.6002,-193.923 95.1064,-189.6"/>
</g>
<!-- Node3 -->
<g id="node4" class="node"><title>Node3</title>
<g id="a_node4"><a xlink:href="vtkvmtkPolyDataManifoldNeighborhood_8h.html" target="_top" xlink:title="vtkvmtkPolyDataManifoldNeighborhood.h">
<polygon fill="white" stroke="black" points="149.286,-220.5 149.286,-238.5 348.714,-238.5 348.714,-220.5 149.286,-220.5"/>
<text text-anchor="middle" x="249" y="-226.5" font-family="Helvetica,sans-Serif" font-size="10.00">vtkvmtkPolyDataManifoldNeighborhood.h</text>
</a>
</g>
</g>
<!-- Node0&#45;&gt;Node3 -->
<g id="edge3" class="edge"><title>Node0&#45;&gt;Node3</title>
<path fill="none" stroke="midnightblue" d="M249,-275.339C249,-267.531 249,-257.512 249,-248.927"/>
<polygon fill="midnightblue" stroke="midnightblue" points="252.5,-248.771 249,-238.771 245.5,-248.772 252.5,-248.771"/>
</g>
<!-- Node8 -->
<g id="node9" class="node"><title>Node8</title>
<polygon fill="white" stroke="#bfbfbf" points="303.589,-0.5 303.589,-18.5 422.411,-18.5 422.411,-0.5 303.589,-0.5"/>
<text text-anchor="middle" x="363" y="-6.5" font-family="Helvetica,sans-Serif" font-size="10.00">vtkvmtkWin32Header.h</text>
</g>
<!-- Node0&#45;&gt;Node8 -->
<g id="edge20" class="edge"><title>Node0&#45;&gt;Node8</title>
<path fill="none" stroke="midnightblue" d="M334.261,-279.492C397.215,-267.56 472,-239.844 472,-175.5 472,-175.5 472,-175.5 472,-118.5 472,-72.9172 423.304,-40.0198 391.008,-23.2143"/>
<polygon fill="midnightblue" stroke="midnightblue" points="392.497,-20.0456 381.986,-18.7112 389.371,-26.3088 392.497,-20.0456"/>
</g>
<!-- Node9 -->
<g id="node10" class="node"><title>Node9</title>
<polygon fill="white" stroke="#bfbfbf" points="366.153,-165.5 366.153,-183.5 443.847,-183.5 443.847,-165.5 366.153,-165.5"/>
<text text-anchor="middle" x="405" y="-171.5" font-family="Helvetica,sans-Serif" font-size="10.00">vtkPolyData.h</text>
</g>
<!-- Node0&#45;&gt;Node9 -->
<g id="edge19" class="edge"><title>Node0&#45;&gt;Node9</title>
<path fill="none" stroke="midnightblue" d="M290.332,-275.415C311.971,-267.226 338.041,-255.139 358,-239 373.963,-226.093 387.326,-206.572 395.673,-192.584"/>
<polygon fill="midnightblue" stroke="midnightblue" points="398.912,-193.969 400.829,-183.549 392.832,-190.499 398.912,-193.969"/>
</g>
<!-- Node3&#45;&gt;Node1 -->
<g id="edge4" class="edge"><title>Node3&#45;&gt;Node1</title>
<path fill="none" stroke="midnightblue" d="M230.16,-220.37C214.665,-212.867 193.047,-200.409 179,-184 138.858,-137.107 122.912,-62.787 117.461,-28.6876"/>
<polygon fill="midnightblue" stroke="midnightblue" points="120.919,-28.1441 115.995,-18.7631 113.994,-29.1673 120.919,-28.1441"/>
</g>
<!-- Node3&#45;&gt;Node2 -->
<g id="edge5" class="edge"><title>Node3&#45;&gt;Node2</title>
<path fill="none" stroke="midnightblue" d="M223.333,-220.45C194.587,-211.436 147.808,-196.765 115.553,-186.65"/>
<polygon fill="midnightblue" stroke="midnightblue" points="116.221,-183.191 105.632,-183.538 114.126,-189.87 116.221,-183.191"/>
</g>
<!-- Node4 -->
<g id="node5" class="node"><title>Node4</title>
<g id="a_node5"><a xlink:href="vtkvmtkNeighborhood_8h.html" target="_top" xlink:title="vtkvmtkNeighborhood.h">
<polygon fill="white" stroke="black" points="188.473,-165.5 188.473,-183.5 309.527,-183.5 309.527,-165.5 188.473,-165.5"/>
<text text-anchor="middle" x="249" y="-171.5" font-family="Helvetica,sans-Serif" font-size="10.00">vtkvmtkNeighborhood.h</text>
</a>
</g>
</g>
<!-- Node3&#45;&gt;Node4 -->
<g id="edge6" class="edge"><title>Node3&#45;&gt;Node4</title>
<path fill="none" stroke="midnightblue" d="M249,-220.219C249,-213.177 249,-202.808 249,-193.828"/>
<polygon fill="midnightblue" stroke="midnightblue" points="252.5,-193.55 249,-183.55 245.5,-193.55 252.5,-193.55"/>
</g>
<!-- Node3&#45;&gt;Node8 -->
<g id="edge18" class="edge"><title>Node3&#45;&gt;Node8</title>
<path fill="none" stroke="midnightblue" d="M267.972,-220.481C283.546,-213.045 305.208,-200.625 319,-184 352.619,-143.475 353.043,-125.705 363,-74 365.873,-59.0813 365.653,-41.8227 364.837,-29.0669"/>
<polygon fill="midnightblue" stroke="midnightblue" points="368.302,-28.4933 363.992,-18.8146 361.325,-29.0683 368.302,-28.4933"/>
</g>
<!-- Node3&#45;&gt;Node9 -->
<g id="edge17" class="edge"><title>Node3&#45;&gt;Node9</title>
<path fill="none" stroke="midnightblue" d="M272.693,-220.45C299.113,-211.475 342.034,-196.892 371.795,-186.781"/>
<polygon fill="midnightblue" stroke="midnightblue" points="372.998,-190.069 381.34,-183.538 370.746,-183.441 372.998,-190.069"/>
</g>
<!-- Node4&#45;&gt;Node1 -->
<g id="edge7" class="edge"><title>Node4&#45;&gt;Node1</title>
<path fill="none" stroke="midnightblue" d="M233.17,-165.443C218.827,-157.576 197.741,-144.541 183,-129 153.85,-98.2688 132.28,-52.7509 121.899,-28.0286"/>
<polygon fill="midnightblue" stroke="midnightblue" points="125.047,-26.4789 118.037,-18.5348 118.563,-29.1166 125.047,-26.4789"/>
</g>
<!-- Node5 -->
<g id="node6" class="node"><title>Node5</title>
<g id="a_node6"><a xlink:href="vtkvmtkDataSetItem_8h.html" target="_top" xlink:title="vtkvmtkDataSetItem.h">
<polygon fill="white" stroke="black" points="192.096,-110.5 192.096,-128.5 305.904,-128.5 305.904,-110.5 192.096,-110.5"/>
<text text-anchor="middle" x="249" y="-116.5" font-family="Helvetica,sans-Serif" font-size="10.00">vtkvmtkDataSetItem.h</text>
</a>
</g>
</g>
<!-- Node4&#45;&gt;Node5 -->
<g id="edge8" class="edge"><title>Node4&#45;&gt;Node5</title>
<path fill="none" stroke="midnightblue" d="M249,-165.219C249,-158.177 249,-147.808 249,-138.828"/>
<polygon fill="midnightblue" stroke="midnightblue" points="252.5,-138.55 249,-128.55 245.5,-138.55 252.5,-138.55"/>
</g>
<!-- Node4&#45;&gt;Node8 -->
<g id="edge16" class="edge"><title>Node4&#45;&gt;Node8</title>
<path fill="none" stroke="midnightblue" d="M266.569,-165.363C281.258,-157.78 301.859,-145.21 315,-129 339.849,-98.3474 353.334,-53.1226 359.254,-28.3459"/>
<polygon fill="midnightblue" stroke="midnightblue" points="362.683,-29.0502 361.456,-18.5267 355.853,-27.5186 362.683,-29.0502"/>
</g>
<!-- Node5&#45;&gt;Node1 -->
<g id="edge9" class="edge"><title>Node5&#45;&gt;Node1</title>
<path fill="none" stroke="midnightblue" d="M231.493,-110.381C215.205,-102.381 190.704,-89.1763 172,-74 154.637,-59.9112 137.933,-40.3615 127.148,-26.6881"/>
<polygon fill="midnightblue" stroke="midnightblue" points="129.844,-24.4523 120.967,-18.6677 124.299,-28.7251 129.844,-24.4523"/>
</g>
<!-- Node6 -->
<g id="node7" class="node"><title>Node6</title>
<g id="a_node7"><a xlink:href="vtkvmtkItem_8h.html" target="_top" xlink:title="vtkvmtkItem.h">
<polygon fill="white" stroke="black" points="181.163,-55.5 181.163,-73.5 258.837,-73.5 258.837,-55.5 181.163,-55.5"/>
<text text-anchor="middle" x="220" y="-61.5" font-family="Helvetica,sans-Serif" font-size="10.00">vtkvmtkItem.h</text>
</a>
</g>
</g>
<!-- Node5&#45;&gt;Node6 -->
<g id="edge10" class="edge"><title>Node5&#45;&gt;Node6</title>
<path fill="none" stroke="midnightblue" d="M244.469,-110.219C240.402,-102.786 234.306,-91.646 229.217,-82.3446"/>
<polygon fill="midnightblue" stroke="midnightblue" points="232.275,-80.6421 224.404,-73.5496 226.134,-84.0023 232.275,-80.6421"/>
</g>
<!-- Node7 -->
<g id="node8" class="node"><title>Node7</title>
<polygon fill="white" stroke="#bfbfbf" points="197.375,-0.5 197.375,-18.5 270.625,-18.5 270.625,-0.5 197.375,-0.5"/>
<text text-anchor="middle" x="234" y="-6.5" font-family="Helvetica,sans-Serif" font-size="10.00">vtkDataSet.h</text>
</g>
<!-- Node5&#45;&gt;Node7 -->
<g id="edge14" class="edge"><title>Node5&#45;&gt;Node7</title>
<path fill="none" stroke="midnightblue" d="M254.784,-110.221C262.548,-98.0432 274.638,-74.6206 268,-55 264.346,-44.2 256.906,-33.957 249.914,-26.0268"/>
<polygon fill="midnightblue" stroke="midnightblue" points="252.38,-23.5398 242.969,-18.6736 247.291,-28.3466 252.38,-23.5398"/>
</g>
<!-- Node5&#45;&gt;Node8 -->
<g id="edge15" class="edge"><title>Node5&#45;&gt;Node8</title>
<path fill="none" stroke="midnightblue" d="M257.569,-110.382C276.55,-92.4004 322.393,-48.9695 346.906,-25.7467"/>
<polygon fill="midnightblue" stroke="midnightblue" points="349.48,-28.1301 354.332,-18.7118 344.665,-23.0484 349.48,-28.1301"/>
</g>
<!-- Node6&#45;&gt;Node1 -->
<g id="edge11" class="edge"><title>Node6&#45;&gt;Node1</title>
<path fill="none" stroke="midnightblue" d="M204.053,-55.4504C187.093,-46.8897 160.029,-33.2291 140.184,-23.2119"/>
<polygon fill="midnightblue" stroke="midnightblue" points="141.602,-20.007 131.097,-18.6253 138.447,-26.256 141.602,-20.007"/>
</g>
<!-- Node6&#45;&gt;Node7 -->
<g id="edge12" class="edge"><title>Node6&#45;&gt;Node7</title>
<path fill="none" stroke="midnightblue" d="M222.188,-55.2188C224.089,-48.0204 226.909,-37.3458 229.316,-28.2311"/>
<polygon fill="midnightblue" stroke="midnightblue" points="232.704,-29.1118 231.874,-18.5496 225.936,-27.324 232.704,-29.1118"/>
</g>
<!-- Node6&#45;&gt;Node8 -->
<g id="edge13" class="edge"><title>Node6&#45;&gt;Node8</title>
<path fill="none" stroke="midnightblue" d="M241.719,-55.4504C265.656,-46.5784 304.373,-32.2288 331.61,-22.134"/>
<polygon fill="midnightblue" stroke="midnightblue" points="332.917,-25.3825 341.077,-18.6253 330.484,-18.8188 332.917,-25.3825"/>
</g>
</g>
</svg>
