<?xml version="1.0" encoding="UTF-8" standalone="no"?>
<!DOCTYPE svg PUBLIC "-//W3C//DTD SVG 1.1//EN"
 "http://www.w3.org/Graphics/SVG/1.1/DTD/svg11.dtd">
<!-- Generated by graphviz version 2.38.0 (20140413.2041)
 -->
<!-- Title: vtkvmtkSteepestDescentShooter.h Pages: 1 -->
<!--zoomable 147 -->
<svg id="main" version="1.1" xmlns="http://www.w3.org/2000/svg" xmlns:xlink="http://www.w3.org/1999/xlink" xml:space="preserve" onload="init(evt)">
<style type="text/css"><![CDATA[
.edge:hover path { stroke: red; }
.edge:hover polygon { stroke: red; fill: red; }
]]></style>
<script type="text/javascript"><![CDATA[
var edges = document.getElementsByTagName('g');
if (edges && edges.length) {
  for (var i=0;i<edges.length;i++) {
    if (edges[i].id.substr(0,4)=='edge') {
      edges[i].setAttribute('class','edge');
    }
  }
}
]]></script>
        <defs>
                <circle id="rim" cx="0" cy="0" r="7"/>
                <circle id="rim2" cx="0" cy="0" r="3.5"/>
                <g id="zoomPlus">
                        <use xlink:href="#rim" fill="#404040">
                                <set attributeName="fill" to="#808080" begin="zoomplus.mouseover" end="zoomplus.mouseout"/>
                        </use>
                        <path d="M-4,0h8M0,-4v8" fill="none" stroke="white" stroke-width="1.5" pointer-events="none"/>
                </g>
                <g id="zoomMin">
                        <use xlink:href="#rim" fill="#404040">
                                <set attributeName="fill" to="#808080" begin="zoomminus.mouseover" end="zoomminus.mouseout"/>
                        </use>
                        <path d="M-4,0h8" fill="none" stroke="white" stroke-width="1.5" pointer-events="none"/>
                </g>
                <g id="dirArrow">
                        <path fill="none" stroke="white" stroke-width="1.5" d="M0,-3.0v7 M-2.5,-0.5L0,-3.0L2.5,-0.5"/>
                </g>
               <g id="resetDef">
                       <use xlink:href="#rim2" fill="#404040">
                               <set attributeName="fill" to="#808080" begin="reset.mouseover" end="reset.mouseout"/>
                       </use>
               </g>
        </defs>

<script type="text/javascript">
var viewWidth = 786;
var viewHeight = 147;
var sectionId = 'dynsection-0';
</script>
<script xlink:href="svgpan.js"/>
<svg id="graph" class="graph">
<g id="viewport">
<title>vtkvmtkSteepestDescentShooter.h</title>
<polygon fill="white" stroke="none" points="-4,4 -4,-143 782.475,-143 782.475,4 -4,4"/>
<!-- Node0 -->
<g id="node1" class="node"><title>Node0</title>
<polygon fill="#bfbfbf" stroke="black" points="373.535,-120.5 373.535,-138.5 542.396,-138.5 542.396,-120.5 373.535,-120.5"/>
<text text-anchor="middle" x="457.965" y="-126.5" font-family="Helvetica,sans-Serif" font-size="10.00">vtkvmtkSteepestDescentShooter.h</text>
</g>
<!-- Node1 -->
<g id="node2" class="node"><title>Node1</title>
<g id="a_node2"><a xlink:href="vtkvmtkNonManifoldSteepestDescent_8h.html" target="_top" xlink:title="vtkvmtkNonManifoldSteepest\lDescent.h">
<polygon fill="white" stroke="black" points="110.214,-55.5 110.214,-83.5 255.716,-83.5 255.716,-55.5 110.214,-55.5"/>
<text text-anchor="start" x="118.214" y="-71.5" font-family="Helvetica,sans-Serif" font-size="10.00">vtkvmtkNonManifoldSteepest</text>
<text text-anchor="middle" x="182.965" y="-61.5" font-family="Helvetica,sans-Serif" font-size="10.00">Descent.h</text>
</a>
</g>
</g>
<!-- Node0&#45;&gt;Node1 -->
<g id="edge1" class="edge"><title>Node0&#45;&gt;Node1</title>
<path fill="none" stroke="midnightblue" d="M420.016,-120.496C377.521,-111.534 307.682,-96.8039 254.789,-85.6483"/>
<polygon fill="midnightblue" stroke="midnightblue" points="255.293,-82.1776 244.786,-83.5385 253.848,-89.0269 255.293,-82.1776"/>
</g>
<!-- Node4 -->
<g id="node5" class="node"><title>Node4</title>
<polygon fill="white" stroke="#bfbfbf" points="237.554,-0.5 237.554,-18.5 356.376,-18.5 356.376,-0.5 237.554,-0.5"/>
<text text-anchor="middle" x="296.965" y="-6.5" font-family="Helvetica,sans-Serif" font-size="10.00">vtkvmtkWin32Header.h</text>
</g>
<!-- Node0&#45;&gt;Node4 -->
<g id="edge10" class="edge"><title>Node0&#45;&gt;Node4</title>
<path fill="none" stroke="midnightblue" d="M377.921,-120.481C353.296,-114.162 328.173,-103.131 310.965,-84 297.544,-69.0788 295.223,-45.397 295.493,-28.9636"/>
<polygon fill="midnightblue" stroke="midnightblue" points="299.012,-28.6727 296.026,-18.5076 292.021,-28.3166 299.012,-28.6727"/>
</g>
<!-- Node5 -->
<g id="node6" class="node"><title>Node5</title>
<polygon fill="white" stroke="#bfbfbf" points="320.118,-60.5 320.118,-78.5 397.812,-78.5 397.812,-60.5 320.118,-60.5"/>
<text text-anchor="middle" x="358.965" y="-66.5" font-family="Helvetica,sans-Serif" font-size="10.00">vtkPolyData.h</text>
</g>
<!-- Node0&#45;&gt;Node5 -->
<g id="edge5" class="edge"><title>Node0&#45;&gt;Node5</title>
<path fill="none" stroke="midnightblue" d="M444.2,-120.435C428.037,-110.966 400.989,-95.1201 381.698,-83.8184"/>
<polygon fill="midnightblue" stroke="midnightblue" points="383.331,-80.7182 372.933,-78.6831 379.792,-86.758 383.331,-80.7182"/>
</g>
<!-- Node6 -->
<g id="node7" class="node"><title>Node6</title>
<polygon fill="white" stroke="#bfbfbf" points="415.776,-60.5 415.776,-78.5 500.155,-78.5 500.155,-60.5 415.776,-60.5"/>
<text text-anchor="middle" x="457.965" y="-66.5" font-family="Helvetica,sans-Serif" font-size="10.00">vtkEdgeTable.h</text>
</g>
<!-- Node0&#45;&gt;Node6 -->
<g id="edge6" class="edge"><title>Node0&#45;&gt;Node6</title>
<path fill="none" stroke="midnightblue" d="M457.965,-120.435C457.965,-112.389 457.965,-99.7388 457.965,-89.1846"/>
<polygon fill="midnightblue" stroke="midnightblue" points="461.465,-88.8717 457.965,-78.8718 454.465,-88.8718 461.465,-88.8717"/>
</g>
<!-- Node7 -->
<g id="node8" class="node"><title>Node7</title>
<polygon fill="white" stroke="#bfbfbf" points="518.27,-60.5 518.27,-78.5 589.661,-78.5 589.661,-60.5 518.27,-60.5"/>
<text text-anchor="middle" x="553.965" y="-66.5" font-family="Helvetica,sans-Serif" font-size="10.00">vtkIntArray.h</text>
</g>
<!-- Node0&#45;&gt;Node7 -->
<g id="edge7" class="edge"><title>Node0&#45;&gt;Node7</title>
<path fill="none" stroke="midnightblue" d="M471.314,-120.435C486.916,-111.009 512.977,-95.2641 531.666,-83.9728"/>
<polygon fill="midnightblue" stroke="midnightblue" points="533.672,-86.85 540.421,-78.6831 530.052,-80.8586 533.672,-86.85"/>
</g>
<!-- Node8 -->
<g id="node9" class="node"><title>Node8</title>
<polygon fill="white" stroke="#bfbfbf" points="607.984,-60.5 607.984,-78.5 699.946,-78.5 699.946,-60.5 607.984,-60.5"/>
<text text-anchor="middle" x="653.965" y="-66.5" font-family="Helvetica,sans-Serif" font-size="10.00">vtkDoubleArray.h</text>
</g>
<!-- Node0&#45;&gt;Node8 -->
<g id="edge8" class="edge"><title>Node0&#45;&gt;Node8</title>
<path fill="none" stroke="midnightblue" d="M485.218,-120.435C519.496,-110.292 578.501,-92.8314 616.869,-81.4774"/>
<polygon fill="midnightblue" stroke="midnightblue" points="618.033,-84.7832 626.629,-78.5894 616.046,-78.0709 618.033,-84.7832"/>
</g>
<!-- Node9 -->
<g id="node10" class="node"><title>Node9</title>
<polygon fill="white" stroke="#bfbfbf" points="717.456,-60.5 717.456,-78.5 778.475,-78.5 778.475,-60.5 717.456,-60.5"/>
<text text-anchor="middle" x="747.965" y="-66.5" font-family="Helvetica,sans-Serif" font-size="10.00">vtkIdList.h</text>
</g>
<!-- Node0&#45;&gt;Node9 -->
<g id="edge9" class="edge"><title>Node0&#45;&gt;Node9</title>
<path fill="none" stroke="midnightblue" d="M518.639,-120.484C569.836,-113.069 644.824,-100.676 708.965,-84 711.605,-83.3138 714.321,-82.5332 717.034,-81.7014"/>
<polygon fill="midnightblue" stroke="midnightblue" points="718.278,-84.9771 726.695,-78.5425 716.103,-78.3238 718.278,-84.9771"/>
</g>
<!-- Node2 -->
<g id="node3" class="node"><title>Node2</title>
<polygon fill="white" stroke="#bfbfbf" points="0,-0.5 0,-18.5 119.931,-18.5 119.931,-0.5 0,-0.5"/>
<text text-anchor="middle" x="59.9653" y="-6.5" font-family="Helvetica,sans-Serif" font-size="10.00">vtkPolyDataAlgorithm.h</text>
</g>
<!-- Node1&#45;&gt;Node2 -->
<g id="edge2" class="edge"><title>Node1&#45;&gt;Node2</title>
<path fill="none" stroke="midnightblue" d="M155.362,-55.4837C134.788,-45.7823 106.854,-32.6103 86.5336,-23.0281"/>
<polygon fill="midnightblue" stroke="midnightblue" points="87.7726,-19.7428 77.235,-18.6434 84.787,-26.0742 87.7726,-19.7428"/>
</g>
<!-- Node3 -->
<g id="node4" class="node"><title>Node3</title>
<polygon fill="white" stroke="#bfbfbf" points="138.268,-0.5 138.268,-18.5 219.663,-18.5 219.663,-0.5 138.268,-0.5"/>
<text text-anchor="middle" x="178.965" y="-6.5" font-family="Helvetica,sans-Serif" font-size="10.00">vtkDataArray.h</text>
</g>
<!-- Node1&#45;&gt;Node3 -->
<g id="edge3" class="edge"><title>Node1&#45;&gt;Node3</title>
<path fill="none" stroke="midnightblue" d="M182.058,-55.3389C181.519,-47.5305 180.828,-37.5122 180.236,-28.9265"/>
<polygon fill="midnightblue" stroke="midnightblue" points="183.716,-28.5069 179.536,-18.7715 176.732,-28.9886 183.716,-28.5069"/>
</g>
<!-- Node1&#45;&gt;Node4 -->
<g id="edge4" class="edge"><title>Node1&#45;&gt;Node4</title>
<path fill="none" stroke="midnightblue" d="M208.549,-55.4837C227.444,-45.8705 253.037,-32.8495 271.826,-23.2903"/>
<polygon fill="midnightblue" stroke="midnightblue" points="273.634,-26.2975 280.959,-18.6434 270.459,-20.0586 273.634,-26.2975"/>
</g>
</g>
</svg>
        <g id="navigator" transform="translate(0 0)" fill="#404254">
                <rect fill="#f2f5e9" fill-opacity="0.5" stroke="#606060" stroke-width=".5" x="0" y="0" width="60" height="60"/>
                <use id="zoomplus" xlink:href="#zoomPlus" x="17" y="9" onmousedown="handleZoom(evt,'in')"/>
                <use id="zoomminus" xlink:href="#zoomMin" x="42" y="9" onmousedown="handleZoom(evt,'out')"/>
                <use id="reset" xlink:href="#resetDef" x="30" y="36" onmousedown="handleReset()"/>
                <g id="arrowUp" xlink:href="#dirArrow" transform="translate(30 24)" onmousedown="handlePan(0,-1)">
                  <use xlink:href="#rim" fill="#404040">
                        <set attributeName="fill" to="#808080" begin="arrowUp.mouseover" end="arrowUp.mouseout"/>
                  </use>
                  <path fill="none" stroke="white" stroke-width="1.5" d="M0,-3.0v7 M-2.5,-0.5L0,-3.0L2.5,-0.5"/>
                </g>
                <g id="arrowRight" xlink:href="#dirArrow" transform="rotate(90) translate(36 -43)" onmousedown="handlePan(1,0)">
                  <use xlink:href="#rim" fill="#404040">
                        <set attributeName="fill" to="#808080" begin="arrowRight.mouseover" end="arrowRight.mouseout"/>
                  </use>
                  <path fill="none" stroke="white" stroke-width="1.5" d="M0,-3.0v7 M-2.5,-0.5L0,-3.0L2.5,-0.5"/>
                </g>
                <g id="arrowDown" xlink:href="#dirArrow" transform="rotate(180) translate(-30 -48)" onmousedown="handlePan(0,1)">
                  <use xlink:href="#rim" fill="#404040">
                        <set attributeName="fill" to="#808080" begin="arrowDown.mouseover" end="arrowDown.mouseout"/>
                  </use>
                  <path fill="none" stroke="white" stroke-width="1.5" d="M0,-3.0v7 M-2.5,-0.5L0,-3.0L2.5,-0.5"/>
                </g>
                <g id="arrowLeft" xlink:href="#dirArrow" transform="rotate(270) translate(-36 17)" onmousedown="handlePan(-1,0)">
                  <use xlink:href="#rim" fill="#404040">
                        <set attributeName="fill" to="#808080" begin="arrowLeft.mouseover" end="arrowLeft.mouseout"/>
                  </use>
                  <path fill="none" stroke="white" stroke-width="1.5" d="M0,-3.0v7 M-2.5,-0.5L0,-3.0L2.5,-0.5"/>
                </g>
        </g>
        <svg viewBox="0 0 15 15" width="100%" height="30px" preserveAspectRatio="xMaxYMin meet">
         <g id="arrow_out" transform="scale(0.3 0.3)">
          <a xlink:href="vtkvmtkSteepestDescentShooter_8h__incl_org.svg" target="_base">
           <rect id="button" ry="5" rx="5" y="6" x="6" height="38" width="38"
                fill="#f2f5e9" fill-opacity="0.5" stroke="#606060" stroke-width="1.0"/>
           <path id="arrow"
             d="M 11.500037,31.436501 C 11.940474,20.09759 22.043105,11.32322 32.158766,21.979434 L 37.068811,17.246167 C 37.068811,17.246167 37.088388,32 37.088388,32 L 22.160133,31.978069 C 22.160133,31.978069 26.997745,27.140456 26.997745,27.140456 C 18.528582,18.264221 13.291696,25.230495 11.500037,31.436501 z"
             style="fill:#404040;"/>
          </a>
         </g>
        </svg>
</svg>
