<?xml version="1.0" encoding="UTF-8" standalone="no"?>
<!DOCTYPE svg PUBLIC "-//W3C//DTD SVG 1.1//EN"
 "http://www.w3.org/Graphics/SVG/1.1/DTD/svg11.dtd">
<!-- Generated by graphviz version 2.38.0 (20140413.2041)
 -->
<!-- Title: vtkvmtkPolyDataLaplaceBeltramiStencil.h Pages: 1 -->
<svg width="316pt" height="102pt"
 viewBox="0.00 0.00 315.66 102.00" xmlns="http://www.w3.org/2000/svg" xmlns:xlink="http://www.w3.org/1999/xlink">
<g id="graph0" class="graph" transform="scale(1 1) rotate(0) translate(4 98)">
<title>vtkvmtkPolyDataLaplaceBeltramiStencil.h</title>
<polygon fill="white" stroke="none" points="-4,4 -4,-98 311.66,-98 311.66,4 -4,4"/>
<!-- Node10 -->
<g id="node1" class="node"><title>Node10</title>
<polygon fill="#bfbfbf" stroke="black" points="69.0518,-65.5 69.0518,-93.5 231.219,-93.5 231.219,-65.5 69.0518,-65.5"/>
<text text-anchor="start" x="77.0518" y="-81.5" font-family="Helvetica,sans-Serif" font-size="10.00">vtkvmtkPolyDataLaplaceBeltrami</text>
<text text-anchor="middle" x="150.135" y="-71.5" font-family="Helvetica,sans-Serif" font-size="10.00">Stencil.h</text>
</g>
<!-- Node11 -->
<g id="node2" class="node"><title>Node11</title>
<g id="a_node2"><a xlink:href="vtkvmtkPolyDataFELaplaceBeltramiStencil_8h.html" target="_top" xlink:title="vtkvmtkPolyDataFELaplace\lBeltramiStencil.h">
<polygon fill="white" stroke="black" points="0,-0.5 0,-28.5 138.271,-28.5 138.271,-0.5 0,-0.5"/>
<text text-anchor="start" x="8" y="-16.5" font-family="Helvetica,sans-Serif" font-size="10.00">vtkvmtkPolyDataFELaplace</text>
<text text-anchor="middle" x="69.1353" y="-6.5" font-family="Helvetica,sans-Serif" font-size="10.00">BeltramiStencil.h</text>
</a>
</g>
</g>
<!-- Node10&#45;&gt;Node11 -->
<g id="edge1" class="edge"><title>Node10&#45;&gt;Node11</title>
<path fill="none" stroke="midnightblue" d="M125.367,-59.2361C112.572,-49.2841 97.2958,-37.4026 85.897,-28.5369"/>
<polygon fill="midnightblue" stroke="midnightblue" points="123.31,-62.0697 133.352,-65.4464 127.607,-56.5442 123.31,-62.0697"/>
</g>
<!-- Node12 -->
<g id="node3" class="node"><title>Node12</title>
<g id="a_node3"><a xlink:href="vtkvmtkPolyDataFVFELaplaceBeltramiStencil_8h.html" target="_top" xlink:title="vtkvmtkPolyDataFVFELaplace\lBeltramiStencil.h">
<polygon fill="white" stroke="black" points="156.611,-0.5 156.611,-28.5 307.66,-28.5 307.66,-0.5 156.611,-0.5"/>
<text text-anchor="start" x="164.611" y="-16.5" font-family="Helvetica,sans-Serif" font-size="10.00">vtkvmtkPolyDataFVFELaplace</text>
<text text-anchor="middle" x="232.135" y="-6.5" font-family="Helvetica,sans-Serif" font-size="10.00">BeltramiStencil.h</text>
</a>
</g>
</g>
<!-- Node10&#45;&gt;Node12 -->
<g id="edge2" class="edge"><title>Node10&#45;&gt;Node12</title>
<path fill="none" stroke="midnightblue" d="M175.209,-59.2361C188.162,-49.2841 203.627,-37.4026 215.167,-28.5369"/>
<polygon fill="midnightblue" stroke="midnightblue" points="172.923,-56.5784 167.126,-65.4464 177.188,-62.1293 172.923,-56.5784"/>
</g>
</g>
</svg>
