<?xml version="1.0" encoding="UTF-8" standalone="no"?>
<!DOCTYPE svg PUBLIC "-//W3C//DTD SVG 1.1//EN"
 "http://www.w3.org/Graphics/SVG/1.1/DTD/svg11.dtd">
<!-- Generated by graphviz version 2.38.0 (20140413.2041)
 -->
<!-- Title: vtkvmtkRBFInterpolation.h Pages: 1 -->
<svg width="546pt" height="82pt"
 viewBox="0.00 0.00 545.53 82.00" xmlns="http://www.w3.org/2000/svg" xmlns:xlink="http://www.w3.org/1999/xlink">
<g id="graph0" class="graph" transform="scale(1 1) rotate(0) translate(4 78)">
<title>vtkvmtkRBFInterpolation.h</title>
<polygon fill="white" stroke="none" points="-4,4 -4,-78 541.532,-78 541.532,4 -4,4"/>
<!-- Node0 -->
<g id="node1" class="node"><title>Node0</title>
<polygon fill="#bfbfbf" stroke="black" points="199.66,-55.5 199.66,-73.5 332.926,-73.5 332.926,-55.5 199.66,-55.5"/>
<text text-anchor="middle" x="266.293" y="-61.5" font-family="Helvetica,sans-Serif" font-size="10.00">vtkvmtkRBFInterpolation.h</text>
</g>
<!-- Node1 -->
<g id="node2" class="node"><title>Node1</title>
<polygon fill="white" stroke="#bfbfbf" points="0,-0.5 0,-18.5 106.586,-18.5 106.586,-0.5 0,-0.5"/>
<text text-anchor="middle" x="53.293" y="-6.5" font-family="Helvetica,sans-Serif" font-size="10.00">vtkImplicitFunction.h</text>
</g>
<!-- Node0&#45;&gt;Node1 -->
<g id="edge1" class="edge"><title>Node0&#45;&gt;Node1</title>
<path fill="none" stroke="midnightblue" d="M233.943,-55.4504C196.929,-46.2404 136.192,-31.1276 95.4882,-20.9993"/>
<polygon fill="midnightblue" stroke="midnightblue" points="96.1471,-17.5566 85.5979,-18.5383 94.4568,-24.3495 96.1471,-17.5566"/>
</g>
<!-- Node2 -->
<g id="node3" class="node"><title>Node2</title>
<polygon fill="white" stroke="#bfbfbf" points="124.446,-0.5 124.446,-18.5 202.14,-18.5 202.14,-0.5 124.446,-0.5"/>
<text text-anchor="middle" x="163.293" y="-6.5" font-family="Helvetica,sans-Serif" font-size="10.00">vtkPolyData.h</text>
</g>
<!-- Node0&#45;&gt;Node2 -->
<g id="edge2" class="edge"><title>Node0&#45;&gt;Node2</title>
<path fill="none" stroke="midnightblue" d="M250.649,-55.4504C234.013,-46.8897 207.465,-33.2291 187.997,-23.2119"/>
<polygon fill="midnightblue" stroke="midnightblue" points="189.577,-20.0886 179.084,-18.6253 186.374,-26.313 189.577,-20.0886"/>
</g>
<!-- Node3 -->
<g id="node4" class="node"><title>Node3</title>
<polygon fill="white" stroke="#bfbfbf" points="220.312,-0.5 220.312,-18.5 312.274,-18.5 312.274,-0.5 220.312,-0.5"/>
<text text-anchor="middle" x="266.293" y="-6.5" font-family="Helvetica,sans-Serif" font-size="10.00">vtkDoubleArray.h</text>
</g>
<!-- Node0&#45;&gt;Node3 -->
<g id="edge3" class="edge"><title>Node0&#45;&gt;Node3</title>
<path fill="none" stroke="midnightblue" d="M266.293,-55.2188C266.293,-48.1769 266.293,-37.8083 266.293,-28.8277"/>
<polygon fill="midnightblue" stroke="midnightblue" points="269.793,-28.5495 266.293,-18.5496 262.793,-28.5496 269.793,-28.5495"/>
</g>
<!-- Node4 -->
<g id="node5" class="node"><title>Node4</title>
<polygon fill="white" stroke="#bfbfbf" points="329.882,-0.5 329.882,-18.5 448.704,-18.5 448.704,-0.5 329.882,-0.5"/>
<text text-anchor="middle" x="389.293" y="-6.5" font-family="Helvetica,sans-Serif" font-size="10.00">vtkvmtkWin32Header.h</text>
</g>
<!-- Node0&#45;&gt;Node4 -->
<g id="edge4" class="edge"><title>Node0&#45;&gt;Node4</title>
<path fill="none" stroke="midnightblue" d="M284.974,-55.4504C305.203,-46.734 337.701,-32.7306 361.051,-22.6691"/>
<polygon fill="midnightblue" stroke="midnightblue" points="362.637,-25.7969 370.436,-18.6253 359.867,-19.3683 362.637,-25.7969"/>
</g>
<!-- Node5 -->
<g id="node6" class="node"><title>Node5</title>
<polygon fill="white" stroke="#bfbfbf" points="467.054,-0.5 467.054,-18.5 537.532,-18.5 537.532,-0.5 467.054,-0.5"/>
<text text-anchor="middle" x="502.293" y="-6.5" font-family="Helvetica,sans-Serif" font-size="10.00">vtkVersion.h</text>
</g>
<!-- Node0&#45;&gt;Node5 -->
<g id="edge5" class="edge"><title>Node0&#45;&gt;Node5</title>
<path fill="none" stroke="midnightblue" d="M302.136,-55.4504C343.615,-46.1354 411.979,-30.7823 457.075,-20.6549"/>
<polygon fill="midnightblue" stroke="midnightblue" points="457.896,-24.0579 466.886,-18.4517 456.362,-17.228 457.896,-24.0579"/>
</g>
</g>
</svg>
