<?xml version="1.0" encoding="UTF-8" standalone="no"?>
<!DOCTYPE svg PUBLIC "-//W3C//DTD SVG 1.1//EN"
 "http://www.w3.org/Graphics/SVG/1.1/DTD/svg11.dtd">
<!-- Generated by graphviz version 2.38.0 (20140413.2041)
 -->
<!-- Title: vtkvmtkAppendFilter.h Pages: 1 -->
<svg width="238pt" height="82pt"
 viewBox="0.00 0.00 238.05 82.00" xmlns="http://www.w3.org/2000/svg" xmlns:xlink="http://www.w3.org/1999/xlink">
<g id="graph0" class="graph" transform="scale(1 1) rotate(0) translate(4 78)">
<title>vtkvmtkAppendFilter.h</title>
<polygon fill="white" stroke="none" points="-4,4 -4,-78 234.046,-78 234.046,4 -4,4"/>
<!-- Node0 -->
<g id="node1" class="node"><title>Node0</title>
<polygon fill="#bfbfbf" stroke="black" points="51.4458,-55.5 51.4458,-73.5 165.825,-73.5 165.825,-55.5 51.4458,-55.5"/>
<text text-anchor="middle" x="108.635" y="-61.5" font-family="Helvetica,sans-Serif" font-size="10.00">vtkvmtkAppendFilter.h</text>
</g>
<!-- Node1 -->
<g id="node2" class="node"><title>Node1</title>
<polygon fill="white" stroke="#bfbfbf" points="0,-0.5 0,-18.5 93.2705,-18.5 93.2705,-0.5 0,-0.5"/>
<text text-anchor="middle" x="46.6353" y="-6.5" font-family="Helvetica,sans-Serif" font-size="10.00">vtkAppendFilter.h</text>
</g>
<!-- Node0&#45;&gt;Node1 -->
<g id="edge1" class="edge"><title>Node0&#45;&gt;Node1</title>
<path fill="none" stroke="midnightblue" d="M99.2188,-55.4504C89.8416,-47.4345 75.2337,-34.9471 63.792,-25.1663"/>
<polygon fill="midnightblue" stroke="midnightblue" points="66.0158,-22.4627 56.1403,-18.6253 61.4673,-27.7836 66.0158,-22.4627"/>
</g>
<!-- Node2 -->
<g id="node3" class="node"><title>Node2</title>
<polygon fill="white" stroke="#bfbfbf" points="111.224,-0.5 111.224,-18.5 230.046,-18.5 230.046,-0.5 111.224,-0.5"/>
<text text-anchor="middle" x="170.635" y="-6.5" font-family="Helvetica,sans-Serif" font-size="10.00">vtkvmtkWin32Header.h</text>
</g>
<!-- Node0&#45;&gt;Node2 -->
<g id="edge2" class="edge"><title>Node0&#45;&gt;Node2</title>
<path fill="none" stroke="midnightblue" d="M118.052,-55.4504C127.429,-47.4345 142.037,-34.9471 153.479,-25.1663"/>
<polygon fill="midnightblue" stroke="midnightblue" points="155.803,-27.7836 161.13,-18.6253 151.255,-22.4627 155.803,-27.7836"/>
</g>
</g>
</svg>
