<?xml version="1.0" encoding="UTF-8" standalone="no"?>
<!DOCTYPE svg PUBLIC "-//W3C//DTD SVG 1.1//EN"
 "http://www.w3.org/Graphics/SVG/1.1/DTD/svg11.dtd">
<!-- Generated by graphviz version 2.38.0 (20140413.2041)
 -->
<!-- Title: vtkvmtkEllipticProblem.h Pages: 1 -->
<svg width="1408pt" height="587pt"
 viewBox="0.00 0.00 1408.00 587.00" xmlns="http://www.w3.org/2000/svg" xmlns:xlink="http://www.w3.org/1999/xlink">
<g id="graph0" class="graph" transform="scale(1 1) rotate(0) translate(4 583)">
<title>vtkvmtkEllipticProblem.h</title>
<polygon fill="white" stroke="none" points="-4,4 -4,-583 1404,-583 1404,4 -4,4"/>
<!-- Node0 -->
<g id="node1" class="node"><title>Node0</title>
<polygon fill="#bfbfbf" stroke="black" points="418.82,-560.5 418.82,-578.5 543.18,-578.5 543.18,-560.5 418.82,-560.5"/>
<text text-anchor="middle" x="481" y="-566.5" font-family="Helvetica,sans-Serif" font-size="10.00">vtkvmtkEllipticProblem.h</text>
</g>
<!-- Node1 -->
<g id="node2" class="node"><title>Node1</title>
<polygon fill="white" stroke="#bfbfbf" points="1024.99,-0.5 1024.99,-18.5 1091.01,-18.5 1091.01,-0.5 1024.99,-0.5"/>
<text text-anchor="middle" x="1058" y="-6.5" font-family="Helvetica,sans-Serif" font-size="10.00">vtkObject.h</text>
</g>
<!-- Node0&#45;&gt;Node1 -->
<g id="edge1" class="edge"><title>Node0&#45;&gt;Node1</title>
<path fill="none" stroke="midnightblue" d="M543.444,-567.062C750.286,-561.481 1400,-537.062 1400,-450.5 1400,-450.5 1400,-450.5 1400,-118.5 1400,-78.1136 1371.07,-73.1646 1335,-55 1259.03,-16.7438 1157.81,-9.97347 1101.14,-9.53448"/>
<polygon fill="midnightblue" stroke="midnightblue" points="1101.1,-6.03452 1091.09,-9.52003 1101.09,-13.0345 1101.1,-6.03452"/>
</g>
<!-- Node2 -->
<g id="node3" class="node"><title>Node2</title>
<g id="a_node3"><a xlink:href="vtkvmtkLinearSystem_8h.html" target="_top" xlink:title="vtkvmtkLinearSystem.h">
<polygon fill="white" stroke="black" points="123.318,-385.5 123.318,-403.5 242.682,-403.5 242.682,-385.5 123.318,-385.5"/>
<text text-anchor="middle" x="183" y="-391.5" font-family="Helvetica,sans-Serif" font-size="10.00">vtkvmtkLinearSystem.h</text>
</a>
</g>
</g>
<!-- Node0&#45;&gt;Node2 -->
<g id="edge2" class="edge"><title>Node0&#45;&gt;Node2</title>
<path fill="none" stroke="midnightblue" d="M467.027,-560.388C419.611,-532.861 264.549,-442.842 205.821,-408.748"/>
<polygon fill="midnightblue" stroke="midnightblue" points="207.349,-405.588 196.943,-403.595 203.834,-411.642 207.349,-405.588"/>
</g>
<!-- Node10 -->
<g id="node11" class="node"><title>Node10</title>
<polygon fill="white" stroke="#bfbfbf" points="256.589,-0.5 256.589,-18.5 375.411,-18.5 375.411,-0.5 256.589,-0.5"/>
<text text-anchor="middle" x="316" y="-6.5" font-family="Helvetica,sans-Serif" font-size="10.00">vtkvmtkWin32Header.h</text>
</g>
<!-- Node0&#45;&gt;Node10 -->
<g id="edge64" class="edge"><title>Node0&#45;&gt;Node10</title>
<path fill="none" stroke="midnightblue" d="M418.611,-566.206C288.464,-559.72 0,-535.731 0,-450.5 0,-450.5 0,-450.5 0,-118.5 0,-84.6631 13.5808,-73.3653 42,-55 74.9369,-33.7152 176.733,-21.5084 246.525,-15.4396"/>
<polygon fill="midnightblue" stroke="midnightblue" points="246.909,-18.9197 256.578,-14.5884 246.319,-11.9447 246.909,-18.9197"/>
</g>
<!-- Node18 -->
<g id="node19" class="node"><title>Node18</title>
<g id="a_node19"><a xlink:href="vtkvmtkDirichletBoundaryConditions_8h.html" target="_top" xlink:title="vtkvmtkDirichletBoundary\lConditions.h">
<polygon fill="white" stroke="black" points="865.594,-495.5 865.594,-523.5 994.406,-523.5 994.406,-495.5 865.594,-495.5"/>
<text text-anchor="start" x="873.594" y="-511.5" font-family="Helvetica,sans-Serif" font-size="10.00">vtkvmtkDirichletBoundary</text>
<text text-anchor="middle" x="930" y="-501.5" font-family="Helvetica,sans-Serif" font-size="10.00">Conditions.h</text>
</a>
</g>
</g>
<!-- Node0&#45;&gt;Node18 -->
<g id="edge55" class="edge"><title>Node0&#45;&gt;Node18</title>
<path fill="none" stroke="midnightblue" d="M542.96,-560.496C624.532,-549.959 767.81,-531.451 855.287,-520.151"/>
<polygon fill="midnightblue" stroke="midnightblue" points="855.939,-523.596 865.408,-518.844 855.042,-516.654 855.939,-523.596"/>
</g>
<!-- Node2&#45;&gt;Node1 -->
<g id="edge3" class="edge"><title>Node2&#45;&gt;Node1</title>
<path fill="none" stroke="midnightblue" d="M242.693,-393.973C472.332,-395.02 1286,-391.265 1286,-285.5 1286,-285.5 1286,-285.5 1286,-118.5 1286,-37.6359 1167.42,-17.2361 1101.29,-12.1468"/>
<polygon fill="midnightblue" stroke="midnightblue" points="1101.37,-8.64409 1091.15,-11.4545 1100.89,-15.6278 1101.37,-8.64409"/>
</g>
<!-- Node3 -->
<g id="node4" class="node"><title>Node3</title>
<g id="a_node4"><a xlink:href="vtkvmtkSparseMatrix_8h.html" target="_top" xlink:title="vtkvmtkSparseMatrix.h">
<polygon fill="white" stroke="black" points="581.434,-330.5 581.434,-348.5 698.566,-348.5 698.566,-330.5 581.434,-330.5"/>
<text text-anchor="middle" x="640" y="-336.5" font-family="Helvetica,sans-Serif" font-size="10.00">vtkvmtkSparseMatrix.h</text>
</a>
</g>
</g>
<!-- Node2&#45;&gt;Node3 -->
<g id="edge4" class="edge"><title>Node2&#45;&gt;Node3</title>
<path fill="none" stroke="midnightblue" d="M242.745,-386.571C327.428,-376.75 481.979,-358.826 571.297,-348.468"/>
<polygon fill="midnightblue" stroke="midnightblue" points="571.795,-351.933 581.326,-347.305 570.989,-344.98 571.795,-351.933"/>
</g>
<!-- Node2&#45;&gt;Node10 -->
<g id="edge54" class="edge"><title>Node2&#45;&gt;Node10</title>
<path fill="none" stroke="midnightblue" d="M172.101,-385.309C138.38,-358.941 38,-272.318 38,-175.5 38,-175.5 38,-175.5 38,-118.5 38,-88.3293 38.7586,-74.2382 62,-55 89.4569,-32.2724 181.025,-20.6016 246.328,-15.0259"/>
<polygon fill="midnightblue" stroke="midnightblue" points="246.891,-18.4915 256.57,-14.1826 246.316,-11.5151 246.891,-18.4915"/>
</g>
<!-- Node16 -->
<g id="node17" class="node"><title>Node16</title>
<g id="a_node17"><a xlink:href="vtkvmtkDoubleVector_8h.html" target="_top" xlink:title="vtkvmtkDoubleVector.h">
<polygon fill="white" stroke="black" points="124.138,-275.5 124.138,-293.5 241.862,-293.5 241.862,-275.5 124.138,-275.5"/>
<text text-anchor="middle" x="183" y="-281.5" font-family="Helvetica,sans-Serif" font-size="10.00">vtkvmtkDoubleVector.h</text>
</a>
</g>
</g>
<!-- Node2&#45;&gt;Node16 -->
<g id="edge53" class="edge"><title>Node2&#45;&gt;Node16</title>
<path fill="none" stroke="midnightblue" d="M183,-385.382C183,-368.182 183,-327.698 183,-303.887"/>
<polygon fill="midnightblue" stroke="midnightblue" points="186.5,-303.712 183,-293.712 179.5,-303.712 186.5,-303.712"/>
</g>
<!-- Node3&#45;&gt;Node1 -->
<g id="edge5" class="edge"><title>Node3&#45;&gt;Node1</title>
<path fill="none" stroke="midnightblue" d="M698.574,-334.221C850.955,-322.308 1248,-285.947 1248,-230.5 1248,-230.5 1248,-230.5 1248,-118.5 1248,-51.3474 1157.19,-25.4266 1101.13,-15.8229"/>
<polygon fill="midnightblue" stroke="midnightblue" points="1101.52,-12.3415 1091.1,-14.2133 1100.41,-19.2532 1101.52,-12.3415"/>
</g>
<!-- Node4 -->
<g id="node5" class="node"><title>Node4</title>
<g id="a_node5"><a xlink:href="vtkvmtkSparseMatrixRow_8h.html" target="_top" xlink:title="vtkvmtkSparseMatrixRow.h">
<polygon fill="white" stroke="black" points="509.705,-275.5 509.705,-293.5 646.295,-293.5 646.295,-275.5 509.705,-275.5"/>
<text text-anchor="middle" x="578" y="-281.5" font-family="Helvetica,sans-Serif" font-size="10.00">vtkvmtkSparseMatrixRow.h</text>
</a>
</g>
</g>
<!-- Node3&#45;&gt;Node4 -->
<g id="edge6" class="edge"><title>Node3&#45;&gt;Node4</title>
<path fill="none" stroke="midnightblue" d="M630.584,-330.45C621.206,-322.434 606.598,-309.947 595.157,-300.166"/>
<polygon fill="midnightblue" stroke="midnightblue" points="597.381,-297.463 587.505,-293.625 592.832,-302.784 597.381,-297.463"/>
</g>
<!-- Node9 -->
<g id="node10" class="node"><title>Node9</title>
<polygon fill="white" stroke="#bfbfbf" points="717.375,-0.5 717.375,-18.5 790.625,-18.5 790.625,-0.5 717.375,-0.5"/>
<text text-anchor="middle" x="754" y="-6.5" font-family="Helvetica,sans-Serif" font-size="10.00">vtkDataSet.h</text>
</g>
<!-- Node3&#45;&gt;Node9 -->
<g id="edge51" class="edge"><title>Node3&#45;&gt;Node9</title>
<path fill="none" stroke="midnightblue" d="M676.883,-330.483C717.397,-321.652 784.371,-306.978 842,-294 948.335,-270.053 1002.4,-314.514 1081,-239 1099.27,-221.446 1092.64,-209.113 1096,-184 1113.52,-53.1593 898.746,-20.9167 800.997,-13.0287"/>
<polygon fill="midnightblue" stroke="midnightblue" points="801.03,-9.52131 790.795,-12.2598 800.504,-16.5015 801.03,-9.52131"/>
</g>
<!-- Node3&#45;&gt;Node10 -->
<g id="edge52" class="edge"><title>Node3&#45;&gt;Node10</title>
<path fill="none" stroke="midnightblue" d="M581.394,-333.86C511.963,-325.554 396.249,-302.526 321,-239 257.843,-185.682 271.564,-134.55 294,-55 296.694,-45.4469 301.417,-35.4826 305.798,-27.4107"/>
<polygon fill="midnightblue" stroke="midnightblue" points="308.878,-29.0749 310.813,-18.6581 302.805,-25.595 308.878,-29.0749"/>
</g>
<!-- Node12 -->
<g id="node13" class="node"><title>Node12</title>
<g id="a_node13"><a xlink:href="vtkvmtkNeighborhoods_8h.html" target="_top" xlink:title="vtkvmtkNeighborhoods.h">
<polygon fill="white" stroke="black" points="631.973,-220.5 631.973,-238.5 758.027,-238.5 758.027,-220.5 631.973,-220.5"/>
<text text-anchor="middle" x="695" y="-226.5" font-family="Helvetica,sans-Serif" font-size="10.00">vtkvmtkNeighborhoods.h</text>
</a>
</g>
</g>
<!-- Node3&#45;&gt;Node12 -->
<g id="edge25" class="edge"><title>Node3&#45;&gt;Node12</title>
<path fill="none" stroke="midnightblue" d="M644.134,-330.382C653.013,-312.948 674.075,-271.59 686.128,-247.922"/>
<polygon fill="midnightblue" stroke="midnightblue" points="689.399,-249.211 690.818,-238.712 683.161,-246.034 689.399,-249.211"/>
</g>
<!-- Node15 -->
<g id="node16" class="node"><title>Node15</title>
<g id="a_node16"><a xlink:href="vtkvmtkStencils_8h.html" target="_top" xlink:title="vtkvmtkStencils.h">
<polygon fill="white" stroke="black" points="739.379,-275.5 739.379,-293.5 832.621,-293.5 832.621,-275.5 739.379,-275.5"/>
<text text-anchor="middle" x="786" y="-281.5" font-family="Helvetica,sans-Serif" font-size="10.00">vtkvmtkStencils.h</text>
</a>
</g>
</g>
<!-- Node3&#45;&gt;Node15 -->
<g id="edge40" class="edge"><title>Node3&#45;&gt;Node15</title>
<path fill="none" stroke="midnightblue" d="M662.174,-330.45C686.614,-321.578 726.143,-307.229 753.952,-297.134"/>
<polygon fill="midnightblue" stroke="midnightblue" points="755.412,-300.328 763.617,-293.625 753.023,-293.748 755.412,-300.328"/>
</g>
<!-- Node3&#45;&gt;Node16 -->
<g id="edge47" class="edge"><title>Node3&#45;&gt;Node16</title>
<path fill="none" stroke="midnightblue" d="M581.191,-331.68C496.813,-321.894 341.713,-303.907 252.016,-293.504"/>
<polygon fill="midnightblue" stroke="midnightblue" points="252.282,-290.011 241.945,-292.336 251.475,-296.965 252.282,-290.011"/>
</g>
<!-- Node4&#45;&gt;Node1 -->
<g id="edge7" class="edge"><title>Node4&#45;&gt;Node1</title>
<path fill="none" stroke="midnightblue" d="M646.583,-279.146C744.194,-272.393 918.009,-258.147 978,-239 1025.95,-223.696 1051.47,-227.382 1077,-184 1106.53,-133.805 1081.01,-61.1843 1066.46,-28.1046"/>
<polygon fill="midnightblue" stroke="midnightblue" points="1069.55,-26.46 1062.2,-18.8324 1063.19,-29.3807 1069.55,-26.46"/>
</g>
<!-- Node5 -->
<g id="node6" class="node"><title>Node5</title>
<g id="a_node6"><a xlink:href="vtkvmtkStencil_8h.html" target="_top" xlink:title="vtkvmtkStencil.h">
<polygon fill="white" stroke="black" points="525.879,-220.5 525.879,-238.5 614.121,-238.5 614.121,-220.5 525.879,-220.5"/>
<text text-anchor="middle" x="570" y="-226.5" font-family="Helvetica,sans-Serif" font-size="10.00">vtkvmtkStencil.h</text>
</a>
</g>
</g>
<!-- Node4&#45;&gt;Node5 -->
<g id="edge8" class="edge"><title>Node4&#45;&gt;Node5</title>
<path fill="none" stroke="midnightblue" d="M576.75,-275.219C575.675,-268.099 574.087,-257.577 572.721,-248.529"/>
<polygon fill="midnightblue" stroke="midnightblue" points="576.168,-247.915 571.215,-238.55 569.247,-248.96 576.168,-247.915"/>
</g>
<!-- Node6 -->
<g id="node7" class="node"><title>Node6</title>
<g id="a_node7"><a xlink:href="vtkvmtkNeighborhood_8h.html" target="_top" xlink:title="vtkvmtkNeighborhood.h">
<polygon fill="white" stroke="black" points="437.473,-165.5 437.473,-183.5 558.527,-183.5 558.527,-165.5 437.473,-165.5"/>
<text text-anchor="middle" x="498" y="-171.5" font-family="Helvetica,sans-Serif" font-size="10.00">vtkvmtkNeighborhood.h</text>
</a>
</g>
</g>
<!-- Node4&#45;&gt;Node6 -->
<g id="edge22" class="edge"><title>Node4&#45;&gt;Node6</title>
<path fill="none" stroke="midnightblue" d="M561.675,-275.489C547.854,-267.905 528.506,-255.267 517,-239 507.448,-225.495 502.632,-207.135 500.246,-193.63"/>
<polygon fill="midnightblue" stroke="midnightblue" points="503.693,-193.019 498.762,-183.641 496.769,-194.047 503.693,-193.019"/>
</g>
<!-- Node4&#45;&gt;Node10 -->
<g id="edge24" class="edge"><title>Node4&#45;&gt;Node10</title>
<path fill="none" stroke="midnightblue" d="M509.613,-281.205C462.654,-277.048 400.324,-266.266 352,-239 323.228,-222.766 313.913,-214.813 302,-184 281.335,-130.547 298.969,-61.0784 309.5,-28.6552"/>
<polygon fill="midnightblue" stroke="midnightblue" points="312.939,-29.4131 312.854,-18.8186 306.314,-27.1538 312.939,-29.4131"/>
</g>
<!-- Node11 -->
<g id="node12" class="node"><title>Node11</title>
<g id="a_node12"><a xlink:href="vtkvmtkConstants_8h.html" target="_top" xlink:title="vtkvmtkConstants.h">
<polygon fill="white" stroke="black" points="964.375,-165.5 964.375,-183.5 1067.63,-183.5 1067.63,-165.5 964.375,-165.5"/>
<text text-anchor="middle" x="1016" y="-171.5" font-family="Helvetica,sans-Serif" font-size="10.00">vtkvmtkConstants.h</text>
</a>
</g>
</g>
<!-- Node4&#45;&gt;Node11 -->
<g id="edge23" class="edge"><title>Node4&#45;&gt;Node11</title>
<path fill="none" stroke="midnightblue" d="M646.576,-277.672C746.518,-268.819 923.257,-251.675 950,-239 972.37,-228.398 991.941,-207.206 1003.84,-192.225"/>
<polygon fill="midnightblue" stroke="midnightblue" points="1006.95,-193.927 1010.22,-183.851 1001.38,-189.687 1006.95,-193.927"/>
</g>
<!-- Node5&#45;&gt;Node1 -->
<g id="edge9" class="edge"><title>Node5&#45;&gt;Node1</title>
<path fill="none" stroke="midnightblue" d="M614.318,-221.038C682.863,-209.422 807.724,-187.934 817,-184 911.911,-143.748 1005.6,-60.5171 1042.06,-26.0114"/>
<polygon fill="midnightblue" stroke="midnightblue" points="1044.89,-28.143 1049.7,-18.6993 1040.05,-23.0867 1044.89,-28.143"/>
</g>
<!-- Node5&#45;&gt;Node6 -->
<g id="edge10" class="edge"><title>Node5&#45;&gt;Node6</title>
<path fill="none" stroke="midnightblue" d="M559.065,-220.45C547.964,-212.279 530.55,-199.46 517.154,-189.6"/>
<polygon fill="midnightblue" stroke="midnightblue" points="519.166,-186.735 509.038,-183.625 515.017,-192.372 519.166,-186.735"/>
</g>
<!-- Node5&#45;&gt;Node10 -->
<g id="edge21" class="edge"><title>Node5&#45;&gt;Node10</title>
<path fill="none" stroke="midnightblue" d="M525.711,-222.679C495.699,-216.92 456.471,-205.672 428,-184 372.415,-141.689 336.562,-63.2785 322.605,-28.2298"/>
<polygon fill="midnightblue" stroke="midnightblue" points="325.844,-26.9021 318.978,-18.8327 319.313,-29.4223 325.844,-26.9021"/>
</g>
<!-- Node6&#45;&gt;Node1 -->
<g id="edge11" class="edge"><title>Node6&#45;&gt;Node1</title>
<path fill="none" stroke="midnightblue" d="M558.656,-168.601C615.132,-162.894 701.163,-151.257 773,-129 846.685,-106.171 858.58,-84.1508 930,-55 960.768,-42.4419 996.551,-30.1945 1022.45,-21.738"/>
<polygon fill="midnightblue" stroke="midnightblue" points="1023.77,-24.9895 1032.2,-18.5789 1021.61,-18.3299 1023.77,-24.9895"/>
</g>
<!-- Node7 -->
<g id="node8" class="node"><title>Node7</title>
<g id="a_node8"><a xlink:href="vtkvmtkDataSetItem_8h.html" target="_top" xlink:title="vtkvmtkDataSetItem.h">
<polygon fill="white" stroke="black" points="496.096,-110.5 496.096,-128.5 609.904,-128.5 609.904,-110.5 496.096,-110.5"/>
<text text-anchor="middle" x="553" y="-116.5" font-family="Helvetica,sans-Serif" font-size="10.00">vtkvmtkDataSetItem.h</text>
</a>
</g>
</g>
<!-- Node6&#45;&gt;Node7 -->
<g id="edge12" class="edge"><title>Node6&#45;&gt;Node7</title>
<path fill="none" stroke="midnightblue" d="M506.594,-165.219C514.795,-157.316 527.343,-145.224 537.324,-135.606"/>
<polygon fill="midnightblue" stroke="midnightblue" points="539.875,-138.009 544.647,-128.55 535.017,-132.968 539.875,-138.009"/>
</g>
<!-- Node6&#45;&gt;Node10 -->
<g id="edge20" class="edge"><title>Node6&#45;&gt;Node10</title>
<path fill="none" stroke="midnightblue" d="M476.641,-165.414C458.925,-157.938 433.838,-145.495 416,-129 387.217,-102.385 393.825,-84.4931 368,-55 358.215,-43.8257 345.588,-32.9542 335.227,-24.7539"/>
<polygon fill="midnightblue" stroke="midnightblue" points="337.227,-21.8764 327.169,-18.546 332.955,-27.4216 337.227,-21.8764"/>
</g>
<!-- Node7&#45;&gt;Node1 -->
<g id="edge13" class="edge"><title>Node7&#45;&gt;Node1</title>
<path fill="none" stroke="midnightblue" d="M587.925,-110.44C641.458,-98.1421 747.056,-74.1086 837,-55 898.622,-41.9084 970.123,-27.6872 1014.72,-18.9325"/>
<polygon fill="midnightblue" stroke="midnightblue" points="1015.49,-22.3475 1024.63,-16.9893 1014.15,-15.4782 1015.49,-22.3475"/>
</g>
<!-- Node8 -->
<g id="node9" class="node"><title>Node8</title>
<g id="a_node9"><a xlink:href="vtkvmtkItem_8h.html" target="_top" xlink:title="vtkvmtkItem.h">
<polygon fill="white" stroke="black" points="648.163,-55.5 648.163,-73.5 725.837,-73.5 725.837,-55.5 648.163,-55.5"/>
<text text-anchor="middle" x="687" y="-61.5" font-family="Helvetica,sans-Serif" font-size="10.00">vtkvmtkItem.h</text>
</a>
</g>
</g>
<!-- Node7&#45;&gt;Node8 -->
<g id="edge14" class="edge"><title>Node7&#45;&gt;Node8</title>
<path fill="none" stroke="midnightblue" d="M573.352,-110.45C595.586,-101.656 631.428,-87.4802 656.912,-77.4006"/>
<polygon fill="midnightblue" stroke="midnightblue" points="658.445,-80.558 666.457,-73.6253 655.87,-74.0487 658.445,-80.558"/>
</g>
<!-- Node7&#45;&gt;Node9 -->
<g id="edge18" class="edge"><title>Node7&#45;&gt;Node9</title>
<path fill="none" stroke="midnightblue" d="M557.722,-110.155C565.833,-96.5708 583.713,-69.7193 606,-55 636.474,-34.8737 676.382,-23.5694 707.076,-17.3956"/>
<polygon fill="midnightblue" stroke="midnightblue" points="707.933,-20.7955 717.106,-15.4932 706.629,-13.9182 707.933,-20.7955"/>
</g>
<!-- Node7&#45;&gt;Node10 -->
<g id="edge19" class="edge"><title>Node7&#45;&gt;Node10</title>
<path fill="none" stroke="midnightblue" d="M546.046,-110.135C534.276,-96.5238 509.055,-69.6332 482,-55 450.741,-38.0929 412.634,-27.2853 380.819,-20.5614"/>
<polygon fill="midnightblue" stroke="midnightblue" points="381.223,-17.0722 370.727,-18.5193 379.834,-23.9332 381.223,-17.0722"/>
</g>
<!-- Node8&#45;&gt;Node1 -->
<g id="edge15" class="edge"><title>Node8&#45;&gt;Node1</title>
<path fill="none" stroke="midnightblue" d="M726.002,-57.9282C795.866,-47.9477 941.848,-27.0932 1014.7,-16.6851"/>
<polygon fill="midnightblue" stroke="midnightblue" points="1015.5,-20.1069 1024.91,-15.2278 1014.51,-13.1773 1015.5,-20.1069"/>
</g>
<!-- Node8&#45;&gt;Node9 -->
<g id="edge16" class="edge"><title>Node8&#45;&gt;Node9</title>
<path fill="none" stroke="midnightblue" d="M697.176,-55.4504C707.408,-47.3566 723.402,-34.7042 735.819,-24.8822"/>
<polygon fill="midnightblue" stroke="midnightblue" points="738.057,-27.5744 743.728,-18.6253 733.714,-22.0844 738.057,-27.5744"/>
</g>
<!-- Node8&#45;&gt;Node10 -->
<g id="edge17" class="edge"><title>Node8&#45;&gt;Node10</title>
<path fill="none" stroke="midnightblue" d="M647.998,-57.9282C584.88,-48.9114 459.636,-31.0194 382.313,-19.9733"/>
<polygon fill="midnightblue" stroke="midnightblue" points="382.593,-16.4778 372.198,-18.5283 381.603,-23.4074 382.593,-16.4778"/>
</g>
<!-- Node12&#45;&gt;Node1 -->
<g id="edge26" class="edge"><title>Node12&#45;&gt;Node1</title>
<path fill="none" stroke="midnightblue" d="M736.131,-220.477C772.811,-212.805 827.707,-200.043 874,-184 888.05,-179.131 985.183,-139.202 996,-129 1026.31,-100.413 1044.59,-53.6784 1052.81,-28.2838"/>
<polygon fill="midnightblue" stroke="midnightblue" points="1056.22,-29.1268 1055.81,-18.5398 1049.53,-27.0694 1056.22,-29.1268"/>
</g>
<!-- Node12&#45;&gt;Node6 -->
<g id="edge37" class="edge"><title>Node12&#45;&gt;Node6</title>
<path fill="none" stroke="midnightblue" d="M665.08,-220.45C631.136,-211.318 575.623,-196.383 537.987,-186.258"/>
<polygon fill="midnightblue" stroke="midnightblue" points="538.444,-182.757 527.878,-183.538 536.626,-189.516 538.444,-182.757"/>
</g>
<!-- Node12&#45;&gt;Node9 -->
<g id="edge38" class="edge"><title>Node12&#45;&gt;Node9</title>
<path fill="none" stroke="midnightblue" d="M687.565,-220.166C664.964,-193.792 600.889,-110.612 639,-55 654.316,-32.6502 682.596,-21.5226 707.278,-15.9838"/>
<polygon fill="midnightblue" stroke="midnightblue" points="708.11,-19.3869 717.232,-13.998 706.74,-12.5222 708.11,-19.3869"/>
</g>
<!-- Node12&#45;&gt;Node10 -->
<g id="edge39" class="edge"><title>Node12&#45;&gt;Node10</title>
<path fill="none" stroke="midnightblue" d="M680.414,-220.478C657.078,-207.811 609.724,-182.789 568,-165 524.163,-146.31 507.609,-153.939 467,-129 426.28,-103.993 426.947,-84.0432 389,-55 373.627,-43.2337 354.969,-31.9057 340.364,-23.6237"/>
<polygon fill="midnightblue" stroke="midnightblue" points="341.867,-20.4545 331.428,-18.6471 338.462,-26.5702 341.867,-20.4545"/>
</g>
<!-- Node12&#45;&gt;Node11 -->
<g id="edge27" class="edge"><title>Node12&#45;&gt;Node11</title>
<path fill="none" stroke="midnightblue" d="M743.753,-220.45C801.071,-210.987 896.136,-195.291 957.409,-185.174"/>
<polygon fill="midnightblue" stroke="midnightblue" points="958.019,-188.621 967.315,-183.538 956.879,-181.714 958.019,-188.621"/>
</g>
<!-- Node13 -->
<g id="node14" class="node"><title>Node13</title>
<g id="a_node14"><a xlink:href="vtkvmtkDataSetItems_8h.html" target="_top" xlink:title="vtkvmtkDataSetItems.h">
<polygon fill="white" stroke="black" points="689.596,-165.5 689.596,-183.5 808.404,-183.5 808.404,-165.5 689.596,-165.5"/>
<text text-anchor="middle" x="749" y="-171.5" font-family="Helvetica,sans-Serif" font-size="10.00">vtkvmtkDataSetItems.h</text>
</a>
</g>
</g>
<!-- Node12&#45;&gt;Node13 -->
<g id="edge28" class="edge"><title>Node12&#45;&gt;Node13</title>
<path fill="none" stroke="midnightblue" d="M703.438,-220.219C711.489,-212.316 723.809,-200.224 733.609,-190.606"/>
<polygon fill="midnightblue" stroke="midnightblue" points="736.113,-193.052 740.799,-183.55 731.21,-188.056 736.113,-193.052"/>
</g>
<!-- Node13&#45;&gt;Node1 -->
<g id="edge29" class="edge"><title>Node13&#45;&gt;Node1</title>
<path fill="none" stroke="midnightblue" d="M763.51,-165.409C798.475,-145.964 890.255,-95.237 968,-55 989.421,-43.9137 1013.98,-31.8107 1032.03,-23.0293"/>
<polygon fill="midnightblue" stroke="midnightblue" points="1033.85,-26.034 1041.32,-18.5199 1030.8,-19.7361 1033.85,-26.034"/>
</g>
<!-- Node13&#45;&gt;Node9 -->
<g id="edge35" class="edge"><title>Node13&#45;&gt;Node9</title>
<path fill="none" stroke="midnightblue" d="M754.923,-165.483C760.833,-156.945 769.519,-142.787 773,-129 781.894,-93.7716 769.855,-51.552 761.274,-28.212"/>
<polygon fill="midnightblue" stroke="midnightblue" points="764.441,-26.698 757.555,-18.6463 757.917,-29.235 764.441,-26.698"/>
</g>
<!-- Node13&#45;&gt;Node10 -->
<g id="edge36" class="edge"><title>Node13&#45;&gt;Node10</title>
<path fill="none" stroke="midnightblue" d="M689.592,-169.247C622.649,-163.457 518.989,-151.183 487,-129 455.742,-107.324 473.349,-79.198 444,-55 423.738,-38.2942 396.811,-27.6964 372.883,-21.0563"/>
<polygon fill="midnightblue" stroke="midnightblue" points="373.748,-17.6649 363.188,-18.5315 371.983,-24.439 373.748,-17.6649"/>
</g>
<!-- Node14 -->
<g id="node15" class="node"><title>Node14</title>
<g id="a_node15"><a xlink:href="vtkvmtkItems_8h.html" target="_top" xlink:title="vtkvmtkItems.h">
<polygon fill="white" stroke="black" points="681.663,-110.5 681.663,-128.5 764.337,-128.5 764.337,-110.5 681.663,-110.5"/>
<text text-anchor="middle" x="723" y="-116.5" font-family="Helvetica,sans-Serif" font-size="10.00">vtkvmtkItems.h</text>
</a>
</g>
</g>
<!-- Node13&#45;&gt;Node14 -->
<g id="edge30" class="edge"><title>Node13&#45;&gt;Node14</title>
<path fill="none" stroke="midnightblue" d="M744.938,-165.219C741.329,-157.864 735.941,-146.88 731.408,-137.639"/>
<polygon fill="midnightblue" stroke="midnightblue" points="734.495,-135.986 726.949,-128.55 728.211,-139.069 734.495,-135.986"/>
</g>
<!-- Node14&#45;&gt;Node1 -->
<g id="edge31" class="edge"><title>Node14&#45;&gt;Node1</title>
<path fill="none" stroke="midnightblue" d="M742.554,-110.44C773.807,-97.7209 837.089,-72.6297 892,-55 933.321,-41.7333 981.276,-29.1765 1014.99,-20.8058"/>
<polygon fill="midnightblue" stroke="midnightblue" points="1016.1,-24.1372 1024.97,-18.3463 1014.42,-17.3405 1016.1,-24.1372"/>
</g>
<!-- Node14&#45;&gt;Node8 -->
<g id="edge32" class="edge"><title>Node14&#45;&gt;Node8</title>
<path fill="none" stroke="midnightblue" d="M717.375,-110.219C712.273,-102.707 704.6,-91.411 698.243,-82.0515"/>
<polygon fill="midnightblue" stroke="midnightblue" points="700.982,-79.8551 692.468,-73.5496 695.191,-83.7883 700.982,-79.8551"/>
</g>
<!-- Node14&#45;&gt;Node9 -->
<g id="edge33" class="edge"><title>Node14&#45;&gt;Node9</title>
<path fill="none" stroke="midnightblue" d="M725.33,-110.382C730.29,-93.104 741.993,-52.3294 748.815,-28.5629"/>
<polygon fill="midnightblue" stroke="midnightblue" points="752.248,-29.2893 751.643,-18.7118 745.52,-27.358 752.248,-29.2893"/>
</g>
<!-- Node14&#45;&gt;Node10 -->
<g id="edge34" class="edge"><title>Node14&#45;&gt;Node10</title>
<path fill="none" stroke="midnightblue" d="M697.777,-110.464C657.903,-97.885 577.768,-73.1122 509,-55 459.751,-42.0289 402.888,-29.1717 363.705,-20.6383"/>
<polygon fill="midnightblue" stroke="midnightblue" points="364.406,-17.209 353.891,-18.5109 362.923,-24.0501 364.406,-17.209"/>
</g>
<!-- Node15&#45;&gt;Node1 -->
<g id="edge41" class="edge"><title>Node15&#45;&gt;Node1</title>
<path fill="none" stroke="midnightblue" d="M832.81,-281.124C905.403,-276.671 1040.95,-265.061 1081,-239 1159.92,-187.645 1240.56,-131.735 1186,-55 1166.85,-28.0719 1130.19,-17.2965 1100.99,-13.0554"/>
<polygon fill="midnightblue" stroke="midnightblue" points="1101.37,-9.57592 1091.02,-11.812 1100.51,-16.5222 1101.37,-9.57592"/>
</g>
<!-- Node15&#45;&gt;Node5 -->
<g id="edge44" class="edge"><title>Node15&#45;&gt;Node5</title>
<path fill="none" stroke="midnightblue" d="M753.194,-275.45C715.579,-266.221 653.806,-251.063 612.527,-240.935"/>
<polygon fill="midnightblue" stroke="midnightblue" points="613.306,-237.522 602.76,-238.538 611.638,-244.321 613.306,-237.522"/>
</g>
<!-- Node15&#45;&gt;Node9 -->
<g id="edge45" class="edge"><title>Node15&#45;&gt;Node9</title>
<path fill="none" stroke="midnightblue" d="M832.911,-282.079C929.015,-277.292 1134.58,-256.376 1077,-165 1015.75,-67.81 874.604,-30.4267 800.836,-17.1509"/>
<polygon fill="midnightblue" stroke="midnightblue" points="801.339,-13.686 790.889,-15.4339 800.148,-20.584 801.339,-13.686"/>
</g>
<!-- Node15&#45;&gt;Node10 -->
<g id="edge46" class="edge"><title>Node15&#45;&gt;Node10</title>
<path fill="none" stroke="midnightblue" d="M739.355,-279.899C684.941,-274.763 592.771,-263.143 517,-239 463.781,-222.043 447.428,-219.126 404,-184 358.38,-147.101 351.98,-128.796 331,-74 325.298,-59.1087 321.332,-41.3944 318.916,-28.4641"/>
<polygon fill="midnightblue" stroke="midnightblue" points="322.349,-27.7765 317.188,-18.5239 315.452,-28.9757 322.349,-27.7765"/>
</g>
<!-- Node15&#45;&gt;Node11 -->
<g id="edge42" class="edge"><title>Node15&#45;&gt;Node11</title>
<path fill="none" stroke="midnightblue" d="M832.839,-280.522C891.114,-275.78 985.795,-264.322 1009,-239 1020,-226.999 1020.69,-207.888 1019.27,-193.763"/>
<polygon fill="midnightblue" stroke="midnightblue" points="1022.72,-193.142 1017.84,-183.735 1015.79,-194.129 1022.72,-193.142"/>
</g>
<!-- Node15&#45;&gt;Node13 -->
<g id="edge43" class="edge"><title>Node15&#45;&gt;Node13</title>
<path fill="none" stroke="midnightblue" d="M783.784,-275.201C780.466,-262.998 773.86,-239.544 767,-220 763.817,-210.932 759.85,-201.005 756.45,-192.832"/>
<polygon fill="midnightblue" stroke="midnightblue" points="759.67,-191.459 752.549,-183.614 753.223,-194.188 759.67,-191.459"/>
</g>
<!-- Node16&#45;&gt;Node1 -->
<g id="edge48" class="edge"><title>Node16&#45;&gt;Node1</title>
<path fill="none" stroke="midnightblue" d="M242.281,-281.154C370.146,-275.742 668.274,-261.124 767,-239 833.851,-224.019 848.387,-211.806 911,-184 923.307,-178.534 1009.69,-138.731 1019,-129 1045.74,-101.041 1054.15,-54.3993 1056.79,-28.7636"/>
<polygon fill="midnightblue" stroke="midnightblue" points="1060.3,-28.8634 1057.65,-18.6058 1053.32,-28.278 1060.3,-28.8634"/>
</g>
<!-- Node16&#45;&gt;Node10 -->
<g id="edge50" class="edge"><title>Node16&#45;&gt;Node10</title>
<path fill="none" stroke="midnightblue" d="M170.53,-275.434C159.175,-267.47 142.739,-254.29 133,-239 117.174,-214.153 114,-204.958 114,-175.5 114,-175.5 114,-175.5 114,-118.5 114,-56.8484 188.082,-30.2602 246.518,-18.8773"/>
<polygon fill="midnightblue" stroke="midnightblue" points="247.281,-22.296 256.486,-17.0506 246.019,-15.4106 247.281,-22.296"/>
</g>
<!-- Node17 -->
<g id="node18" class="node"><title>Node17</title>
<polygon fill="white" stroke="#bfbfbf" points="142.302,-220.5 142.302,-238.5 223.698,-238.5 223.698,-220.5 142.302,-220.5"/>
<text text-anchor="middle" x="183" y="-226.5" font-family="Helvetica,sans-Serif" font-size="10.00">vtkDataArray.h</text>
</g>
<!-- Node16&#45;&gt;Node17 -->
<g id="edge49" class="edge"><title>Node16&#45;&gt;Node17</title>
<path fill="none" stroke="midnightblue" d="M183,-275.219C183,-268.177 183,-257.808 183,-248.828"/>
<polygon fill="midnightblue" stroke="midnightblue" points="186.5,-248.55 183,-238.55 179.5,-248.55 186.5,-248.55"/>
</g>
<!-- Node18&#45;&gt;Node1 -->
<g id="edge56" class="edge"><title>Node18&#45;&gt;Node1</title>
<path fill="none" stroke="midnightblue" d="M994.675,-504.994C1115.19,-496.683 1362,-470.504 1362,-395.5 1362,-395.5 1362,-395.5 1362,-118.5 1362,-80.2771 1337.46,-73.4857 1304,-55 1239.67,-19.4564 1152.81,-11.4641 1101.37,-10.1263"/>
<polygon fill="midnightblue" stroke="midnightblue" points="1101.33,-6.62494 1091.27,-9.9377 1101.2,-13.6237 1101.33,-6.62494"/>
</g>
<!-- Node18&#45;&gt;Node10 -->
<g id="edge63" class="edge"><title>Node18&#45;&gt;Node10</title>
<path fill="none" stroke="midnightblue" d="M865.526,-506.918C663.792,-501.12 58,-476.932 58,-395.5 58,-395.5 58,-395.5 58,-338.5 58,-265.615 76,-248.385 76,-175.5 76,-175.5 76,-175.5 76,-118.5 76,-43.2686 175.281,-20.1343 246.134,-13.2033"/>
<polygon fill="midnightblue" stroke="midnightblue" points="246.715,-16.6655 256.366,-12.294 246.095,-9.69297 246.715,-16.6655"/>
</g>
<!-- Node19 -->
<g id="node20" class="node"><title>Node19</title>
<g id="a_node20"><a xlink:href="vtkvmtkBoundaryConditions_8h.html" target="_top" xlink:title="vtkvmtkBoundaryConditions.h">
<polygon fill="white" stroke="black" points="860.857,-440.5 860.857,-458.5 1009.14,-458.5 1009.14,-440.5 860.857,-440.5"/>
<text text-anchor="middle" x="935" y="-446.5" font-family="Helvetica,sans-Serif" font-size="10.00">vtkvmtkBoundaryConditions.h</text>
</a>
</g>
</g>
<!-- Node18&#45;&gt;Node19 -->
<g id="edge57" class="edge"><title>Node18&#45;&gt;Node19</title>
<path fill="none" stroke="midnightblue" d="M931.135,-495.339C931.808,-487.531 932.671,-477.512 933.412,-468.927"/>
<polygon fill="midnightblue" stroke="midnightblue" points="936.915,-469.035 934.287,-458.771 929.941,-468.434 936.915,-469.035"/>
</g>
<!-- Node19&#45;&gt;Node1 -->
<g id="edge58" class="edge"><title>Node19&#45;&gt;Node1</title>
<path fill="none" stroke="midnightblue" d="M961.432,-440.42C1048.99,-413.282 1324,-324.904 1324,-285.5 1324,-285.5 1324,-285.5 1324,-118.5 1324,-83.122 1305.93,-73.8655 1276,-55 1222.38,-21.2001 1147.93,-12.4472 1101.39,-10.519"/>
<polygon fill="midnightblue" stroke="midnightblue" points="1101.44,-7.01876 1091.33,-10.1907 1101.21,-14.015 1101.44,-7.01876"/>
</g>
<!-- Node19&#45;&gt;Node2 -->
<g id="edge59" class="edge"><title>Node19&#45;&gt;Node2</title>
<path fill="none" stroke="midnightblue" d="M860.667,-444.811C735.808,-438.348 476.109,-423.763 257,-404 255.696,-403.882 254.379,-403.761 253.053,-403.636"/>
<polygon fill="midnightblue" stroke="midnightblue" points="253.045,-400.118 242.749,-402.616 252.356,-407.084 253.045,-400.118"/>
</g>
<!-- Node19&#45;&gt;Node10 -->
<g id="edge62" class="edge"><title>Node19&#45;&gt;Node10</title>
<path fill="none" stroke="midnightblue" d="M879.775,-440.461C776.004,-423.844 546.632,-379.876 372,-294 312.977,-264.975 287.405,-248.177 273,-184 260.38,-127.775 262.891,-107.787 286,-55 290.398,-44.9537 297.094,-34.7384 303.044,-26.6333"/>
<polygon fill="midnightblue" stroke="midnightblue" points="305.974,-28.5648 309.284,-18.5004 300.42,-24.3037 305.974,-28.5648"/>
</g>
<!-- Node20 -->
<g id="node21" class="node"><title>Node20</title>
<polygon fill="white" stroke="#bfbfbf" points="1163.02,-385.5 1163.02,-403.5 1254.98,-403.5 1254.98,-385.5 1163.02,-385.5"/>
<text text-anchor="middle" x="1209" y="-391.5" font-family="Helvetica,sans-Serif" font-size="10.00">vtkDoubleArray.h</text>
</g>
<!-- Node19&#45;&gt;Node20 -->
<g id="edge60" class="edge"><title>Node19&#45;&gt;Node20</title>
<path fill="none" stroke="midnightblue" d="M976.615,-440.45C1025.04,-431.084 1105.02,-415.614 1157.36,-405.489"/>
<polygon fill="midnightblue" stroke="midnightblue" points="1158.29,-408.874 1167.44,-403.538 1156.96,-402.001 1158.29,-408.874"/>
</g>
<!-- Node21 -->
<g id="node22" class="node"><title>Node21</title>
<polygon fill="white" stroke="#bfbfbf" points="1272.49,-385.5 1272.49,-403.5 1333.51,-403.5 1333.51,-385.5 1272.49,-385.5"/>
<text text-anchor="middle" x="1303" y="-391.5" font-family="Helvetica,sans-Serif" font-size="10.00">vtkIdList.h</text>
</g>
<!-- Node19&#45;&gt;Node21 -->
<g id="edge61" class="edge"><title>Node19&#45;&gt;Node21</title>
<path fill="none" stroke="midnightblue" d="M1006.82,-440.467C1071.35,-432.865 1168.93,-420.424 1262.47,-404.156"/>
<polygon fill="midnightblue" stroke="midnightblue" points="1263.15,-407.592 1272.39,-402.414 1261.93,-400.697 1263.15,-407.592"/>
</g>
</g>
</svg>
