<?xml version="1.0" encoding="UTF-8" standalone="no"?>
<!DOCTYPE svg PUBLIC "-//W3C//DTD SVG 1.1//EN"
 "http://www.w3.org/Graphics/SVG/1.1/DTD/svg11.dtd">
<!-- Generated by graphviz version 2.38.0 (20140413.2041)
 -->
<!-- Title: vtkvmtkPolyDataMeanCurvature.h Pages: 1 -->
<svg width="898pt" height="357pt"
 viewBox="0.00 0.00 897.97 357.00" xmlns="http://www.w3.org/2000/svg" xmlns:xlink="http://www.w3.org/1999/xlink">
<g id="graph0" class="graph" transform="scale(1 1) rotate(0) translate(4 353)">
<title>vtkvmtkPolyDataMeanCurvature.h</title>
<polygon fill="white" stroke="none" points="-4,4 -4,-353 893.965,-353 893.965,4 -4,4"/>
<!-- Node0 -->
<g id="node1" class="node"><title>Node0</title>
<polygon fill="#bfbfbf" stroke="black" points="463.138,-330.5 463.138,-348.5 630.862,-348.5 630.862,-330.5 463.138,-330.5"/>
<text text-anchor="middle" x="547" y="-336.5" font-family="Helvetica,sans-Serif" font-size="10.00">vtkvmtkPolyDataMeanCurvature.h</text>
</g>
<!-- Node1 -->
<g id="node2" class="node"><title>Node1</title>
<polygon fill="white" stroke="#bfbfbf" points="99.9902,-0.5 99.9902,-18.5 166.01,-18.5 166.01,-0.5 99.9902,-0.5"/>
<text text-anchor="middle" x="133" y="-6.5" font-family="Helvetica,sans-Serif" font-size="10.00">vtkObject.h</text>
</g>
<!-- Node0&#45;&gt;Node1 -->
<g id="edge1" class="edge"><title>Node0&#45;&gt;Node1</title>
<path fill="none" stroke="midnightblue" d="M463.029,-339.061C309.694,-337.806 0,-323.729 0,-230.5 0,-230.5 0,-230.5 0,-118.5 0,-68.3204 57.7588,-37.3753 97.1507,-22.1056"/>
<polygon fill="midnightblue" stroke="midnightblue" points="98.5623,-25.3152 106.723,-18.559 96.1304,-18.7512 98.5623,-25.3152"/>
</g>
<!-- Node2 -->
<g id="node3" class="node"><title>Node2</title>
<polygon fill="white" stroke="#bfbfbf" points="770.035,-275.5 770.035,-293.5 889.965,-293.5 889.965,-275.5 770.035,-275.5"/>
<text text-anchor="middle" x="830" y="-281.5" font-family="Helvetica,sans-Serif" font-size="10.00">vtkPolyDataAlgorithm.h</text>
</g>
<!-- Node0&#45;&gt;Node2 -->
<g id="edge2" class="edge"><title>Node0&#45;&gt;Node2</title>
<path fill="none" stroke="midnightblue" d="M589.982,-330.45C640.098,-321.065 722.946,-305.549 777.002,-295.425"/>
<polygon fill="midnightblue" stroke="midnightblue" points="777.894,-298.819 787.078,-293.538 776.605,-291.939 777.894,-298.819"/>
</g>
<!-- Node3 -->
<g id="node4" class="node"><title>Node3</title>
<g id="a_node4"><a xlink:href="vtkvmtkStencils_8h.html" target="_top" xlink:title="vtkvmtkStencils.h">
<polygon fill="white" stroke="black" points="306.379,-275.5 306.379,-293.5 399.621,-293.5 399.621,-275.5 306.379,-275.5"/>
<text text-anchor="middle" x="353" y="-281.5" font-family="Helvetica,sans-Serif" font-size="10.00">vtkvmtkStencils.h</text>
</a>
</g>
</g>
<!-- Node0&#45;&gt;Node3 -->
<g id="edge3" class="edge"><title>Node0&#45;&gt;Node3</title>
<path fill="none" stroke="midnightblue" d="M517.536,-330.45C484.109,-321.318 429.441,-306.383 392.378,-296.258"/>
<polygon fill="midnightblue" stroke="midnightblue" points="392.992,-292.797 382.423,-293.538 391.147,-299.55 392.992,-292.797"/>
</g>
<!-- Node9 -->
<g id="node10" class="node"><title>Node9</title>
<polygon fill="white" stroke="#bfbfbf" points="549.589,-0.5 549.589,-18.5 668.411,-18.5 668.411,-0.5 549.589,-0.5"/>
<text text-anchor="middle" x="609" y="-6.5" font-family="Helvetica,sans-Serif" font-size="10.00">vtkvmtkWin32Header.h</text>
</g>
<!-- Node0&#45;&gt;Node9 -->
<g id="edge31" class="edge"><title>Node0&#45;&gt;Node9</title>
<path fill="none" stroke="midnightblue" d="M608.699,-330.45C665.828,-319.127 742,-292.42 742,-230.5 742,-230.5 742,-230.5 742,-118.5 742,-68.3204 684.241,-37.3753 644.849,-22.1056"/>
<polygon fill="midnightblue" stroke="midnightblue" points="645.87,-18.7512 635.277,-18.559 643.438,-25.3152 645.87,-18.7512"/>
</g>
<!-- Node3&#45;&gt;Node1 -->
<g id="edge4" class="edge"><title>Node3&#45;&gt;Node1</title>
<path fill="none" stroke="midnightblue" d="M306.181,-277.383C218.432,-264.6 38,-231.506 38,-175.5 38,-175.5 38,-175.5 38,-118.5 38,-75.6483 80.6861,-41.7178 108.832,-24.0029"/>
<polygon fill="midnightblue" stroke="midnightblue" points="110.984,-26.7918 117.737,-18.6274 107.367,-20.799 110.984,-26.7918"/>
</g>
<!-- Node4 -->
<g id="node5" class="node"><title>Node4</title>
<g id="a_node5"><a xlink:href="vtkvmtkConstants_8h.html" target="_top" xlink:title="vtkvmtkConstants.h">
<polygon fill="white" stroke="black" points="301.375,-220.5 301.375,-238.5 404.625,-238.5 404.625,-220.5 301.375,-220.5"/>
<text text-anchor="middle" x="353" y="-226.5" font-family="Helvetica,sans-Serif" font-size="10.00">vtkvmtkConstants.h</text>
</a>
</g>
</g>
<!-- Node3&#45;&gt;Node4 -->
<g id="edge5" class="edge"><title>Node3&#45;&gt;Node4</title>
<path fill="none" stroke="midnightblue" d="M353,-275.219C353,-268.177 353,-257.808 353,-248.828"/>
<polygon fill="midnightblue" stroke="midnightblue" points="356.5,-248.55 353,-238.55 349.5,-248.55 356.5,-248.55"/>
</g>
<!-- Node5 -->
<g id="node6" class="node"><title>Node5</title>
<g id="a_node6"><a xlink:href="vtkvmtkDataSetItems_8h.html" target="_top" xlink:title="vtkvmtkDataSetItems.h">
<polygon fill="white" stroke="black" points="213.596,-165.5 213.596,-183.5 332.404,-183.5 332.404,-165.5 213.596,-165.5"/>
<text text-anchor="middle" x="273" y="-171.5" font-family="Helvetica,sans-Serif" font-size="10.00">vtkvmtkDataSetItems.h</text>
</a>
</g>
</g>
<!-- Node3&#45;&gt;Node5 -->
<g id="edge6" class="edge"><title>Node3&#45;&gt;Node5</title>
<path fill="none" stroke="midnightblue" d="M336.675,-275.489C322.854,-267.905 303.506,-255.267 292,-239 282.448,-225.495 277.632,-207.135 275.246,-193.63"/>
<polygon fill="midnightblue" stroke="midnightblue" points="278.693,-193.019 273.762,-183.641 271.769,-194.047 278.693,-193.019"/>
</g>
<!-- Node8 -->
<g id="node9" class="node"><title>Node8</title>
<polygon fill="white" stroke="#bfbfbf" points="305.375,-0.5 305.375,-18.5 378.625,-18.5 378.625,-0.5 305.375,-0.5"/>
<text text-anchor="middle" x="342" y="-6.5" font-family="Helvetica,sans-Serif" font-size="10.00">vtkDataSet.h</text>
</g>
<!-- Node3&#45;&gt;Node8 -->
<g id="edge29" class="edge"><title>Node3&#45;&gt;Node8</title>
<path fill="none" stroke="midnightblue" d="M327.937,-275.457C292.682,-262.595 229.962,-233.654 205,-184 171.223,-116.812 269.406,-50.835 317.337,-23.5747"/>
<polygon fill="midnightblue" stroke="midnightblue" points="319.158,-26.5668 326.199,-18.6499 315.758,-20.4481 319.158,-26.5668"/>
</g>
<!-- Node3&#45;&gt;Node9 -->
<g id="edge30" class="edge"><title>Node3&#45;&gt;Node9</title>
<path fill="none" stroke="midnightblue" d="M399.973,-278.982C495.618,-268.479 704,-238.38 704,-175.5 704,-175.5 704,-175.5 704,-118.5 704,-75.6483 661.314,-41.7178 633.168,-24.0029"/>
<polygon fill="midnightblue" stroke="midnightblue" points="634.633,-20.799 624.263,-18.6274 631.016,-26.7918 634.633,-20.799"/>
</g>
<!-- Node10 -->
<g id="node11" class="node"><title>Node10</title>
<g id="a_node11"><a xlink:href="vtkvmtkStencil_8h.html" target="_top" xlink:title="vtkvmtkStencil.h">
<polygon fill="white" stroke="black" points="422.879,-220.5 422.879,-238.5 511.121,-238.5 511.121,-220.5 422.879,-220.5"/>
<text text-anchor="middle" x="467" y="-226.5" font-family="Helvetica,sans-Serif" font-size="10.00">vtkvmtkStencil.h</text>
</a>
</g>
</g>
<!-- Node3&#45;&gt;Node10 -->
<g id="edge18" class="edge"><title>Node3&#45;&gt;Node10</title>
<path fill="none" stroke="midnightblue" d="M370.314,-275.45C388.895,-266.812 418.646,-252.98 440.243,-242.94"/>
<polygon fill="midnightblue" stroke="midnightblue" points="441.931,-246.015 449.523,-238.625 438.979,-239.667 441.931,-246.015"/>
</g>
<!-- Node5&#45;&gt;Node1 -->
<g id="edge7" class="edge"><title>Node5&#45;&gt;Node1</title>
<path fill="none" stroke="midnightblue" d="M245.712,-165.397C224.966,-158.252 196.58,-146.269 176,-129 153.24,-109.901 147.953,-101.995 138,-74 132.785,-59.3329 131.794,-41.5963 131.958,-28.6005"/>
<polygon fill="midnightblue" stroke="midnightblue" points="135.456,-28.7173 132.322,-18.5966 128.46,-28.4625 135.456,-28.7173"/>
</g>
<!-- Node6 -->
<g id="node7" class="node"><title>Node6</title>
<g id="a_node7"><a xlink:href="vtkvmtkItems_8h.html" target="_top" xlink:title="vtkvmtkItems.h">
<polygon fill="white" stroke="black" points="300.663,-110.5 300.663,-128.5 383.337,-128.5 383.337,-110.5 300.663,-110.5"/>
<text text-anchor="middle" x="342" y="-116.5" font-family="Helvetica,sans-Serif" font-size="10.00">vtkvmtkItems.h</text>
</a>
</g>
</g>
<!-- Node5&#45;&gt;Node6 -->
<g id="edge8" class="edge"><title>Node5&#45;&gt;Node6</title>
<path fill="none" stroke="midnightblue" d="M283.48,-165.45C294.017,-157.357 310.489,-144.704 323.276,-134.882"/>
<polygon fill="midnightblue" stroke="midnightblue" points="325.623,-137.493 331.422,-128.625 321.359,-131.941 325.623,-137.493"/>
</g>
<!-- Node5&#45;&gt;Node8 -->
<g id="edge16" class="edge"><title>Node5&#45;&gt;Node8</title>
<path fill="none" stroke="midnightblue" d="M275.007,-165.123C278.066,-152.823 284.352,-129.249 292,-110 303.915,-80.0128 321.547,-46.8326 332.377,-27.3698"/>
<polygon fill="midnightblue" stroke="midnightblue" points="335.496,-28.9627 337.353,-18.5319 329.397,-25.5279 335.496,-28.9627"/>
</g>
<!-- Node5&#45;&gt;Node9 -->
<g id="edge17" class="edge"><title>Node5&#45;&gt;Node9</title>
<path fill="none" stroke="midnightblue" d="M332.677,-168.871C398.979,-162.769 500.929,-150.243 533,-129 570.071,-104.445 592.836,-54.9417 602.905,-28.352"/>
<polygon fill="midnightblue" stroke="midnightblue" points="606.253,-29.3861 606.349,-18.7917 599.667,-27.014 606.253,-29.3861"/>
</g>
<!-- Node6&#45;&gt;Node1 -->
<g id="edge9" class="edge"><title>Node6&#45;&gt;Node1</title>
<path fill="none" stroke="midnightblue" d="M326.291,-110.382C290.194,-91.7293 201.104,-45.6924 157.642,-23.2335"/>
<polygon fill="midnightblue" stroke="midnightblue" points="159.097,-20.0458 148.606,-18.5644 155.883,-26.2646 159.097,-20.0458"/>
</g>
<!-- Node7 -->
<g id="node8" class="node"><title>Node7</title>
<g id="a_node8"><a xlink:href="vtkvmtkItem_8h.html" target="_top" xlink:title="vtkvmtkItem.h">
<polygon fill="white" stroke="black" points="370.163,-55.5 370.163,-73.5 447.837,-73.5 447.837,-55.5 370.163,-55.5"/>
<text text-anchor="middle" x="409" y="-61.5" font-family="Helvetica,sans-Serif" font-size="10.00">vtkvmtkItem.h</text>
</a>
</g>
</g>
<!-- Node6&#45;&gt;Node7 -->
<g id="edge10" class="edge"><title>Node6&#45;&gt;Node7</title>
<path fill="none" stroke="midnightblue" d="M352.176,-110.45C362.408,-102.357 378.402,-89.7042 390.819,-79.8822"/>
<polygon fill="midnightblue" stroke="midnightblue" points="393.057,-82.5744 398.728,-73.6253 388.714,-77.0844 393.057,-82.5744"/>
</g>
<!-- Node6&#45;&gt;Node8 -->
<g id="edge14" class="edge"><title>Node6&#45;&gt;Node8</title>
<path fill="none" stroke="midnightblue" d="M342,-110.382C342,-93.1822 342,-52.698 342,-28.8866"/>
<polygon fill="midnightblue" stroke="midnightblue" points="345.5,-28.7117 342,-18.7118 338.5,-28.7118 345.5,-28.7117"/>
</g>
<!-- Node6&#45;&gt;Node9 -->
<g id="edge15" class="edge"><title>Node6&#45;&gt;Node9</title>
<path fill="none" stroke="midnightblue" d="M363.262,-110.466C386.393,-101.681 424.428,-87.1031 457,-74 500.147,-56.643 549.811,-35.7144 580.303,-22.7553"/>
<polygon fill="midnightblue" stroke="midnightblue" points="582.041,-25.8195 589.871,-18.6827 579.299,-19.3786 582.041,-25.8195"/>
</g>
<!-- Node7&#45;&gt;Node1 -->
<g id="edge11" class="edge"><title>Node7&#45;&gt;Node1</title>
<path fill="none" stroke="midnightblue" d="M370.041,-56.0188C318.916,-46.2013 229.46,-29.0231 176.276,-18.8103"/>
<polygon fill="midnightblue" stroke="midnightblue" points="176.626,-15.3136 166.145,-16.8648 175.306,-22.188 176.626,-15.3136"/>
</g>
<!-- Node7&#45;&gt;Node8 -->
<g id="edge12" class="edge"><title>Node7&#45;&gt;Node8</title>
<path fill="none" stroke="midnightblue" d="M398.824,-55.4504C388.592,-47.3566 372.598,-34.7042 360.181,-24.8822"/>
<polygon fill="midnightblue" stroke="midnightblue" points="362.286,-22.0844 352.272,-18.6253 357.943,-27.5744 362.286,-22.0844"/>
</g>
<!-- Node7&#45;&gt;Node9 -->
<g id="edge13" class="edge"><title>Node7&#45;&gt;Node9</title>
<path fill="none" stroke="midnightblue" d="M439.376,-55.4504C473.983,-46.2794 530.677,-31.2555 568.893,-21.1283"/>
<polygon fill="midnightblue" stroke="midnightblue" points="569.897,-24.4832 578.667,-18.5383 568.104,-17.7167 569.897,-24.4832"/>
</g>
<!-- Node10&#45;&gt;Node1 -->
<g id="edge19" class="edge"><title>Node10&#45;&gt;Node1</title>
<path fill="none" stroke="midnightblue" d="M422.699,-221.252C348.546,-209.082 207.128,-185.696 205,-184 155.29,-144.387 139.538,-64.5222 134.851,-28.6593"/>
<polygon fill="midnightblue" stroke="midnightblue" points="138.321,-28.1971 133.689,-18.6685 131.368,-29.0059 138.321,-28.1971"/>
</g>
<!-- Node10&#45;&gt;Node9 -->
<g id="edge28" class="edge"><title>Node10&#45;&gt;Node9</title>
<path fill="none" stroke="midnightblue" d="M490.299,-220.464C525.079,-207.194 590.008,-177.266 623,-129 641.764,-101.55 642.417,-87.1673 634,-55 631.42,-45.1413 626.113,-35.1601 621.05,-27.1558"/>
<polygon fill="midnightblue" stroke="midnightblue" points="623.897,-25.1172 615.396,-18.7935 618.098,-29.038 623.897,-25.1172"/>
</g>
<!-- Node11 -->
<g id="node12" class="node"><title>Node11</title>
<g id="a_node12"><a xlink:href="vtkvmtkNeighborhood_8h.html" target="_top" xlink:title="vtkvmtkNeighborhood.h">
<polygon fill="white" stroke="black" points="406.473,-165.5 406.473,-183.5 527.527,-183.5 527.527,-165.5 406.473,-165.5"/>
<text text-anchor="middle" x="467" y="-171.5" font-family="Helvetica,sans-Serif" font-size="10.00">vtkvmtkNeighborhood.h</text>
</a>
</g>
</g>
<!-- Node10&#45;&gt;Node11 -->
<g id="edge20" class="edge"><title>Node10&#45;&gt;Node11</title>
<path fill="none" stroke="midnightblue" d="M467,-220.219C467,-213.177 467,-202.808 467,-193.828"/>
<polygon fill="midnightblue" stroke="midnightblue" points="470.5,-193.55 467,-183.55 463.5,-193.55 470.5,-193.55"/>
</g>
<!-- Node11&#45;&gt;Node1 -->
<g id="edge21" class="edge"><title>Node11&#45;&gt;Node1</title>
<path fill="none" stroke="midnightblue" d="M413.454,-165.498C377.817,-158.839 330.629,-147.41 292,-129 233.981,-101.349 176.026,-51.0082 148.896,-25.7755"/>
<polygon fill="midnightblue" stroke="midnightblue" points="151.178,-23.1163 141.5,-18.8037 146.376,-28.2099 151.178,-23.1163"/>
</g>
<!-- Node11&#45;&gt;Node9 -->
<g id="edge27" class="edge"><title>Node11&#45;&gt;Node9</title>
<path fill="none" stroke="midnightblue" d="M527.602,-169.204C555.394,-163.888 586.079,-152.601 604,-129 626.237,-99.7153 619.884,-53.6258 614.007,-28.4256"/>
<polygon fill="midnightblue" stroke="midnightblue" points="617.396,-27.5508 611.523,-18.7325 610.615,-29.2883 617.396,-27.5508"/>
</g>
<!-- Node12 -->
<g id="node13" class="node"><title>Node12</title>
<g id="a_node13"><a xlink:href="vtkvmtkDataSetItem_8h.html" target="_top" xlink:title="vtkvmtkDataSetItem.h">
<polygon fill="white" stroke="black" points="410.096,-110.5 410.096,-128.5 523.904,-128.5 523.904,-110.5 410.096,-110.5"/>
<text text-anchor="middle" x="467" y="-116.5" font-family="Helvetica,sans-Serif" font-size="10.00">vtkvmtkDataSetItem.h</text>
</a>
</g>
</g>
<!-- Node11&#45;&gt;Node12 -->
<g id="edge22" class="edge"><title>Node11&#45;&gt;Node12</title>
<path fill="none" stroke="midnightblue" d="M467,-165.219C467,-158.177 467,-147.808 467,-138.828"/>
<polygon fill="midnightblue" stroke="midnightblue" points="470.5,-138.55 467,-128.55 463.5,-138.55 470.5,-138.55"/>
</g>
<!-- Node12&#45;&gt;Node1 -->
<g id="edge23" class="edge"><title>Node12&#45;&gt;Node1</title>
<path fill="none" stroke="midnightblue" d="M442.169,-110.471C383.354,-91.4529 235.424,-43.6192 167.758,-21.7392"/>
<polygon fill="midnightblue" stroke="midnightblue" points="168.587,-18.3287 157.995,-18.5822 166.433,-24.9892 168.587,-18.3287"/>
</g>
<!-- Node12&#45;&gt;Node7 -->
<g id="edge24" class="edge"><title>Node12&#45;&gt;Node7</title>
<path fill="none" stroke="midnightblue" d="M457.938,-110.219C449.204,-102.238 435.794,-89.9842 425.219,-80.3207"/>
<polygon fill="midnightblue" stroke="midnightblue" points="427.552,-77.7116 417.809,-73.5496 422.83,-82.879 427.552,-77.7116"/>
</g>
<!-- Node12&#45;&gt;Node8 -->
<g id="edge25" class="edge"><title>Node12&#45;&gt;Node8</title>
<path fill="none" stroke="midnightblue" d="M468.09,-110.477C469.407,-97.3561 470.035,-71.1553 457,-55 440.297,-34.2986 412.718,-23.2094 388.754,-17.2784"/>
<polygon fill="midnightblue" stroke="midnightblue" points="389.271,-13.8075 378.748,-15.0393 387.742,-20.6385 389.271,-13.8075"/>
</g>
<!-- Node12&#45;&gt;Node9 -->
<g id="edge26" class="edge"><title>Node12&#45;&gt;Node9</title>
<path fill="none" stroke="midnightblue" d="M478.329,-110.414C490.642,-101.584 510.854,-86.9689 528,-74 549.764,-57.5381 574.388,-38.1187 590.713,-25.1289"/>
<polygon fill="midnightblue" stroke="midnightblue" points="593.222,-27.6047 598.859,-18.6335 588.858,-22.1318 593.222,-27.6047"/>
</g>
</g>
</svg>
