<?xml version="1.0" encoding="UTF-8" standalone="no"?>
<!DOCTYPE svg PUBLIC "-//W3C//DTD SVG 1.1//EN"
 "http://www.w3.org/Graphics/SVG/1.1/DTD/svg11.dtd">
<!-- Generated by graphviz version 2.38.0 (20140413.2041)
 -->
<!-- Title: vtkvmtkPolyDataClampedSmoothingFilter.h Pages: 1 -->
<svg width="348pt" height="92pt"
 viewBox="0.00 0.00 348.42 92.00" xmlns="http://www.w3.org/2000/svg" xmlns:xlink="http://www.w3.org/1999/xlink">
<g id="graph0" class="graph" transform="scale(1 1) rotate(0) translate(4 88)">
<title>vtkvmtkPolyDataClampedSmoothingFilter.h</title>
<polygon fill="white" stroke="none" points="-4,4 -4,-88 344.421,-88 344.421,4 -4,4"/>
<!-- Node0 -->
<g id="node1" class="node"><title>Node0</title>
<polygon fill="#bfbfbf" stroke="black" points="54.8647,-55.5 54.8647,-83.5 233.155,-83.5 233.155,-55.5 54.8647,-55.5"/>
<text text-anchor="start" x="62.8647" y="-71.5" font-family="Helvetica,sans-Serif" font-size="10.00">vtkvmtkPolyDataClampedSmoothing</text>
<text text-anchor="middle" x="144.01" y="-61.5" font-family="Helvetica,sans-Serif" font-size="10.00">Filter.h</text>
</g>
<!-- Node1 -->
<g id="node2" class="node"><title>Node1</title>
<polygon fill="white" stroke="#bfbfbf" points="0,-0.5 0,-18.5 66.0195,-18.5 66.0195,-0.5 0,-0.5"/>
<text text-anchor="middle" x="33.0098" y="-6.5" font-family="Helvetica,sans-Serif" font-size="10.00">vtkObject.h</text>
</g>
<!-- Node0&#45;&gt;Node1 -->
<g id="edge1" class="edge"><title>Node0&#45;&gt;Node1</title>
<path fill="none" stroke="midnightblue" d="M119.099,-55.4837C100.702,-45.8705 75.7822,-32.8495 57.4878,-23.2903"/>
<polygon fill="midnightblue" stroke="midnightblue" points="59.0785,-20.1725 48.5946,-18.6434 55.8367,-26.3766 59.0785,-20.1725"/>
</g>
<!-- Node2 -->
<g id="node3" class="node"><title>Node2</title>
<polygon fill="white" stroke="#bfbfbf" points="84.0444,-0.5 84.0444,-18.5 203.975,-18.5 203.975,-0.5 84.0444,-0.5"/>
<text text-anchor="middle" x="144.01" y="-6.5" font-family="Helvetica,sans-Serif" font-size="10.00">vtkPolyDataAlgorithm.h</text>
</g>
<!-- Node0&#45;&gt;Node2 -->
<g id="edge2" class="edge"><title>Node0&#45;&gt;Node2</title>
<path fill="none" stroke="midnightblue" d="M144.01,-55.3389C144.01,-47.5305 144.01,-37.5122 144.01,-28.9265"/>
<polygon fill="midnightblue" stroke="midnightblue" points="147.51,-28.7714 144.01,-18.7715 140.51,-28.7715 147.51,-28.7714"/>
</g>
<!-- Node3 -->
<g id="node4" class="node"><title>Node3</title>
<polygon fill="white" stroke="#bfbfbf" points="221.599,-0.5 221.599,-18.5 340.421,-18.5 340.421,-0.5 221.599,-0.5"/>
<text text-anchor="middle" x="281.01" y="-6.5" font-family="Helvetica,sans-Serif" font-size="10.00">vtkvmtkWin32Header.h</text>
</g>
<!-- Node0&#45;&gt;Node3 -->
<g id="edge3" class="edge"><title>Node0&#45;&gt;Node3</title>
<path fill="none" stroke="midnightblue" d="M174.755,-55.4837C197.983,-45.65 229.634,-32.2505 252.339,-22.6381"/>
<polygon fill="midnightblue" stroke="midnightblue" points="253.93,-25.7651 261.774,-18.6434 251.201,-19.319 253.93,-25.7651"/>
</g>
</g>
</svg>
