<?xml version="1.0" encoding="UTF-8" standalone="no"?>
<!DOCTYPE svg PUBLIC "-//W3C//DTD SVG 1.1//EN"
 "http://www.w3.org/Graphics/SVG/1.1/DTD/svg11.dtd">
<!-- Generated by graphviz version 2.38.0 (20140413.2041)
 -->
<!-- Title: vtkvmtkCenterlineSplitExtractor.h Pages: 1 -->
<svg width="264pt" height="147pt"
 viewBox="0.00 0.00 264.38 147.00" xmlns="http://www.w3.org/2000/svg" xmlns:xlink="http://www.w3.org/1999/xlink">
<g id="graph0" class="graph" transform="scale(1 1) rotate(0) translate(4 143)">
<title>vtkvmtkCenterlineSplitExtractor.h</title>
<polygon fill="white" stroke="none" points="-4,4 -4,-143 260.376,-143 260.376,4 -4,4"/>
<!-- Node0 -->
<g id="node1" class="node"><title>Node0</title>
<polygon fill="#bfbfbf" stroke="black" points="68.6035,-120.5 68.6035,-138.5 231.327,-138.5 231.327,-120.5 68.6035,-120.5"/>
<text text-anchor="middle" x="149.965" y="-126.5" font-family="Helvetica,sans-Serif" font-size="10.00">vtkvmtkCenterlineSplitExtractor.h</text>
</g>
<!-- Node1 -->
<g id="node2" class="node"><title>Node1</title>
<g id="a_node2"><a xlink:href="vtkvmtkCenterlineSplittingAndGroupingFilter_8h.html" target="_top" xlink:title="vtkvmtkCenterlineSplitting\lAndGroupingFilter.h">
<polygon fill="white" stroke="black" points="37.4434,-55.5 37.4434,-83.5 168.487,-83.5 168.487,-55.5 37.4434,-55.5"/>
<text text-anchor="start" x="45.4434" y="-71.5" font-family="Helvetica,sans-Serif" font-size="10.00">vtkvmtkCenterlineSplitting</text>
<text text-anchor="middle" x="102.965" y="-61.5" font-family="Helvetica,sans-Serif" font-size="10.00">AndGroupingFilter.h</text>
</a>
</g>
</g>
<!-- Node0&#45;&gt;Node1 -->
<g id="edge1" class="edge"><title>Node0&#45;&gt;Node1</title>
<path fill="none" stroke="midnightblue" d="M143.43,-120.435C137.44,-113.043 128.3,-101.764 120.221,-91.7947"/>
<polygon fill="midnightblue" stroke="midnightblue" points="122.793,-89.4086 113.778,-83.8428 117.354,-93.8157 122.793,-89.4086"/>
</g>
<!-- Node3 -->
<g id="node4" class="node"><title>Node3</title>
<polygon fill="white" stroke="#bfbfbf" points="137.554,-0.5 137.554,-18.5 256.376,-18.5 256.376,-0.5 137.554,-0.5"/>
<text text-anchor="middle" x="196.965" y="-6.5" font-family="Helvetica,sans-Serif" font-size="10.00">vtkvmtkWin32Header.h</text>
</g>
<!-- Node0&#45;&gt;Node3 -->
<g id="edge4" class="edge"><title>Node0&#45;&gt;Node3</title>
<path fill="none" stroke="midnightblue" d="M156.149,-120.399C162.451,-111.791 172.108,-97.5774 177.965,-84 185.704,-66.063 190.85,-44.2578 193.813,-29.0765"/>
<polygon fill="midnightblue" stroke="midnightblue" points="197.312,-29.3972 195.659,-18.9321 190.425,-28.1439 197.312,-29.3972"/>
</g>
<!-- Node2 -->
<g id="node3" class="node"><title>Node2</title>
<polygon fill="white" stroke="#bfbfbf" points="0,-0.5 0,-18.5 119.931,-18.5 119.931,-0.5 0,-0.5"/>
<text text-anchor="middle" x="59.9653" y="-6.5" font-family="Helvetica,sans-Serif" font-size="10.00">vtkPolyDataAlgorithm.h</text>
</g>
<!-- Node1&#45;&gt;Node2 -->
<g id="edge2" class="edge"><title>Node1&#45;&gt;Node2</title>
<path fill="none" stroke="midnightblue" d="M93.208,-55.3389C86.9637,-46.9164 78.8131,-35.9226 72.1455,-26.929"/>
<polygon fill="midnightblue" stroke="midnightblue" points="74.8649,-24.7201 66.0976,-18.7715 69.2417,-28.8891 74.8649,-24.7201"/>
</g>
<!-- Node1&#45;&gt;Node3 -->
<g id="edge3" class="edge"><title>Node1&#45;&gt;Node3</title>
<path fill="none" stroke="midnightblue" d="M124.295,-55.3389C139.457,-45.9837 159.76,-33.4562 175.052,-24.021"/>
<polygon fill="midnightblue" stroke="midnightblue" points="177.162,-26.8316 183.835,-18.6018 173.486,-20.8743 177.162,-26.8316"/>
</g>
</g>
</svg>
