<?xml version="1.0" encoding="UTF-8" standalone="no"?>
<!DOCTYPE svg PUBLIC "-//W3C//DTD SVG 1.1//EN"
 "http://www.w3.org/Graphics/SVG/1.1/DTD/svg11.dtd">
<!-- Generated by graphviz version 2.38.0 (20140413.2041)
 -->
<!-- Title: vtkvmtkPolyDataCylinderHarmonicMappingFilter.h Pages: 1 -->
<svg width="452pt" height="157pt"
 viewBox="0.00 0.00 452.39 157.00" xmlns="http://www.w3.org/2000/svg" xmlns:xlink="http://www.w3.org/1999/xlink">
<g id="graph0" class="graph" transform="scale(1 1) rotate(0) translate(4 153)">
<title>vtkvmtkPolyDataCylinderHarmonicMappingFilter.h</title>
<polygon fill="white" stroke="none" points="-4,4 -4,-153 448.392,-153 448.392,4 -4,4"/>
<!-- Node0 -->
<g id="node1" class="node"><title>Node0</title>
<polygon fill="#bfbfbf" stroke="black" points="48.4458,-120.5 48.4458,-148.5 218.376,-148.5 218.376,-120.5 48.4458,-120.5"/>
<text text-anchor="start" x="56.4458" y="-136.5" font-family="Helvetica,sans-Serif" font-size="10.00">vtkvmtkPolyDataCylinderHarmonic</text>
<text text-anchor="middle" x="133.411" y="-126.5" font-family="Helvetica,sans-Serif" font-size="10.00">MappingFilter.h</text>
</g>
<!-- Node1 -->
<g id="node2" class="node"><title>Node1</title>
<g id="a_node2"><a xlink:href="vtkvmtkPolyDataHarmonicMappingFilter_8h.html" target="_top" xlink:title="vtkvmtkPolyDataHarmonicMapping\lFilter.h">
<polygon fill="white" stroke="black" points="110.606,-55.5 110.606,-83.5 282.216,-83.5 282.216,-55.5 110.606,-55.5"/>
<text text-anchor="start" x="118.606" y="-71.5" font-family="Helvetica,sans-Serif" font-size="10.00">vtkvmtkPolyDataHarmonicMapping</text>
<text text-anchor="middle" x="196.411" y="-61.5" font-family="Helvetica,sans-Serif" font-size="10.00">Filter.h</text>
</a>
</g>
</g>
<!-- Node0&#45;&gt;Node1 -->
<g id="edge1" class="edge"><title>Node0&#45;&gt;Node1</title>
<path fill="none" stroke="midnightblue" d="M146.465,-120.446C154.996,-111.915 166.315,-100.596 176.021,-90.8903"/>
<polygon fill="midnightblue" stroke="midnightblue" points="178.778,-93.0829 183.374,-83.5369 173.828,-88.1331 178.778,-93.0829"/>
</g>
<!-- Node2 -->
<g id="node3" class="node"><title>Node2</title>
<polygon fill="white" stroke="#bfbfbf" points="0,-0.5 0,-18.5 118.822,-18.5 118.822,-0.5 0,-0.5"/>
<text text-anchor="middle" x="59.4111" y="-6.5" font-family="Helvetica,sans-Serif" font-size="10.00">vtkvmtkWin32Header.h</text>
</g>
<!-- Node0&#45;&gt;Node2 -->
<g id="edge6" class="edge"><title>Node0&#45;&gt;Node2</title>
<path fill="none" stroke="midnightblue" d="M124.518,-120.18C117.983,-110.287 108.963,-96.4144 101.411,-84 89.868,-65.0246 77.3168,-42.8386 68.9703,-27.8454"/>
<polygon fill="midnightblue" stroke="midnightblue" points="71.8352,-25.7942 63.9279,-18.7426 65.7119,-29.1861 71.8352,-25.7942"/>
</g>
<!-- Node1&#45;&gt;Node2 -->
<g id="edge2" class="edge"><title>Node1&#45;&gt;Node2</title>
<path fill="none" stroke="midnightblue" d="M165.666,-55.4837C142.438,-45.65 110.787,-32.2505 88.0822,-22.6381"/>
<polygon fill="midnightblue" stroke="midnightblue" points="89.2197,-19.319 78.6464,-18.6434 86.4906,-25.7651 89.2197,-19.319"/>
</g>
<!-- Node3 -->
<g id="node4" class="node"><title>Node3</title>
<polygon fill="white" stroke="#bfbfbf" points="136.446,-0.5 136.446,-18.5 256.376,-18.5 256.376,-0.5 136.446,-0.5"/>
<text text-anchor="middle" x="196.411" y="-6.5" font-family="Helvetica,sans-Serif" font-size="10.00">vtkPolyDataAlgorithm.h</text>
</g>
<!-- Node1&#45;&gt;Node3 -->
<g id="edge3" class="edge"><title>Node1&#45;&gt;Node3</title>
<path fill="none" stroke="midnightblue" d="M196.411,-55.3389C196.411,-47.5305 196.411,-37.5122 196.411,-28.9265"/>
<polygon fill="midnightblue" stroke="midnightblue" points="199.911,-28.7714 196.411,-18.7715 192.911,-28.7715 199.911,-28.7714"/>
</g>
<!-- Node4 -->
<g id="node5" class="node"><title>Node4</title>
<polygon fill="white" stroke="#bfbfbf" points="273.901,-0.5 273.901,-18.5 334.921,-18.5 334.921,-0.5 273.901,-0.5"/>
<text text-anchor="middle" x="304.411" y="-6.5" font-family="Helvetica,sans-Serif" font-size="10.00">vtkIdList.h</text>
</g>
<!-- Node1&#45;&gt;Node4 -->
<g id="edge4" class="edge"><title>Node1&#45;&gt;Node4</title>
<path fill="none" stroke="midnightblue" d="M220.648,-55.4837C238.385,-45.9587 262.35,-33.0882 280.103,-23.5543"/>
<polygon fill="midnightblue" stroke="midnightblue" points="282.094,-26.4582 289.248,-18.6434 278.782,-20.2912 282.094,-26.4582"/>
</g>
<!-- Node5 -->
<g id="node6" class="node"><title>Node5</title>
<polygon fill="white" stroke="#bfbfbf" points="352.43,-0.5 352.43,-18.5 444.392,-18.5 444.392,-0.5 352.43,-0.5"/>
<text text-anchor="middle" x="398.411" y="-6.5" font-family="Helvetica,sans-Serif" font-size="10.00">vtkDoubleArray.h</text>
</g>
<!-- Node1&#45;&gt;Node5 -->
<g id="edge5" class="edge"><title>Node1&#45;&gt;Node5</title>
<path fill="none" stroke="midnightblue" d="M241.744,-55.4837C277.48,-45.2228 326.737,-31.0797 360.423,-21.4076"/>
<polygon fill="midnightblue" stroke="midnightblue" points="361.699,-24.6826 370.345,-18.5587 359.767,-17.9545 361.699,-24.6826"/>
</g>
</g>
</svg>
