<?xml version="1.0" encoding="UTF-8" standalone="no"?>
<!DOCTYPE svg PUBLIC "-//W3C//DTD SVG 1.1//EN"
 "http://www.w3.org/Graphics/SVG/1.1/DTD/svg11.dtd">
<!-- Generated by graphviz version 2.38.0 (20140413.2041)
 -->
<!-- Title: vtkvmtkStencils.h Pages: 1 -->
<svg width="806pt" height="302pt"
 viewBox="0.00 0.00 805.63 302.00" xmlns="http://www.w3.org/2000/svg" xmlns:xlink="http://www.w3.org/1999/xlink">
<g id="graph0" class="graph" transform="scale(1 1) rotate(0) translate(4 298)">
<title>vtkvmtkStencils.h</title>
<polygon fill="white" stroke="none" points="-4,4 -4,-298 801.625,-298 801.625,4 -4,4"/>
<!-- Node0 -->
<g id="node1" class="node"><title>Node0</title>
<polygon fill="#bfbfbf" stroke="black" points="498.379,-275.5 498.379,-293.5 591.621,-293.5 591.621,-275.5 498.379,-275.5"/>
<text text-anchor="middle" x="545" y="-281.5" font-family="Helvetica,sans-Serif" font-size="10.00">vtkvmtkStencils.h</text>
</g>
<!-- Node1 -->
<g id="node2" class="node"><title>Node1</title>
<polygon fill="white" stroke="#bfbfbf" points="80.9902,-0.5 80.9902,-18.5 147.01,-18.5 147.01,-0.5 80.9902,-0.5"/>
<text text-anchor="middle" x="114" y="-6.5" font-family="Helvetica,sans-Serif" font-size="10.00">vtkObject.h</text>
</g>
<!-- Node0&#45;&gt;Node1 -->
<g id="edge1" class="edge"><title>Node0&#45;&gt;Node1</title>
<path fill="none" stroke="midnightblue" d="M498.062,-284.104C365.865,-284.554 0,-276.66 0,-175.5 0,-175.5 0,-175.5 0,-118.5 0,-71.9745 50.6593,-39.4854 84.4371,-22.994"/>
<polygon fill="midnightblue" stroke="midnightblue" points="86.3042,-25.9848 93.8815,-18.5797 83.3402,-19.6433 86.3042,-25.9848"/>
</g>
<!-- Node2 -->
<g id="node3" class="node"><title>Node2</title>
<g id="a_node3"><a xlink:href="vtkvmtkConstants_8h.html" target="_top" xlink:title="vtkvmtkConstants.h">
<polygon fill="white" stroke="black" points="694.375,-220.5 694.375,-238.5 797.625,-238.5 797.625,-220.5 694.375,-220.5"/>
<text text-anchor="middle" x="746" y="-226.5" font-family="Helvetica,sans-Serif" font-size="10.00">vtkvmtkConstants.h</text>
</a>
</g>
</g>
<!-- Node0&#45;&gt;Node2 -->
<g id="edge2" class="edge"><title>Node0&#45;&gt;Node2</title>
<path fill="none" stroke="midnightblue" d="M575.528,-275.45C610.308,-266.279 667.286,-251.256 705.693,-241.128"/>
<polygon fill="midnightblue" stroke="midnightblue" points="706.738,-244.472 715.515,-238.538 704.953,-237.704 706.738,-244.472"/>
</g>
<!-- Node3 -->
<g id="node4" class="node"><title>Node3</title>
<g id="a_node4"><a xlink:href="vtkvmtkDataSetItems_8h.html" target="_top" xlink:title="vtkvmtkDataSetItems.h">
<polygon fill="white" stroke="black" points="237.596,-165.5 237.596,-183.5 356.404,-183.5 356.404,-165.5 237.596,-165.5"/>
<text text-anchor="middle" x="297" y="-171.5" font-family="Helvetica,sans-Serif" font-size="10.00">vtkvmtkDataSetItems.h</text>
</a>
</g>
</g>
<!-- Node0&#45;&gt;Node3 -->
<g id="edge3" class="edge"><title>Node0&#45;&gt;Node3</title>
<path fill="none" stroke="midnightblue" d="M526.381,-275.489C505.742,-266.601 471.474,-251.82 442,-239 401.197,-221.252 354.006,-200.553 324.828,-187.736"/>
<polygon fill="midnightblue" stroke="midnightblue" points="325.862,-184.367 315.299,-183.548 323.046,-190.776 325.862,-184.367"/>
</g>
<!-- Node6 -->
<g id="node7" class="node"><title>Node6</title>
<polygon fill="white" stroke="#bfbfbf" points="296.375,-0.5 296.375,-18.5 369.625,-18.5 369.625,-0.5 296.375,-0.5"/>
<text text-anchor="middle" x="333" y="-6.5" font-family="Helvetica,sans-Serif" font-size="10.00">vtkDataSet.h</text>
</g>
<!-- Node0&#45;&gt;Node6 -->
<g id="edge26" class="edge"><title>Node0&#45;&gt;Node6</title>
<path fill="none" stroke="midnightblue" d="M557.606,-275.389C580.825,-259.348 628,-221.14 628,-175.5 628,-175.5 628,-175.5 628,-118.5 628,-66.275 462.905,-31.7468 379.728,-17.6651"/>
<polygon fill="midnightblue" stroke="midnightblue" points="380.204,-14.1963 369.765,-16.01 379.057,-21.1016 380.204,-14.1963"/>
</g>
<!-- Node7 -->
<g id="node8" class="node"><title>Node7</title>
<polygon fill="white" stroke="#bfbfbf" points="454.589,-0.5 454.589,-18.5 573.411,-18.5 573.411,-0.5 454.589,-0.5"/>
<text text-anchor="middle" x="514" y="-6.5" font-family="Helvetica,sans-Serif" font-size="10.00">vtkvmtkWin32Header.h</text>
</g>
<!-- Node0&#45;&gt;Node7 -->
<g id="edge27" class="edge"><title>Node0&#45;&gt;Node7</title>
<path fill="none" stroke="midnightblue" d="M577.625,-275.475C598.504,-268.827 624.805,-257.42 642,-239 662.588,-216.945 666,-205.671 666,-175.5 666,-175.5 666,-175.5 666,-118.5 666,-88.3293 663.618,-76.0464 642,-55 624.746,-38.2019 600.828,-27.7227 578.332,-21.1947"/>
<polygon fill="midnightblue" stroke="midnightblue" points="579.03,-17.7583 568.465,-18.5486 577.217,-24.5194 579.03,-17.7583"/>
</g>
<!-- Node8 -->
<g id="node9" class="node"><title>Node8</title>
<g id="a_node9"><a xlink:href="vtkvmtkStencil_8h.html" target="_top" xlink:title="vtkvmtkStencil.h">
<polygon fill="white" stroke="black" points="450.879,-220.5 450.879,-238.5 539.121,-238.5 539.121,-220.5 450.879,-220.5"/>
<text text-anchor="middle" x="495" y="-226.5" font-family="Helvetica,sans-Serif" font-size="10.00">vtkvmtkStencil.h</text>
</a>
</g>
</g>
<!-- Node0&#45;&gt;Node8 -->
<g id="edge15" class="edge"><title>Node0&#45;&gt;Node8</title>
<path fill="none" stroke="midnightblue" d="M537.188,-275.219C529.806,-267.394 518.55,-255.463 509.521,-245.892"/>
<polygon fill="midnightblue" stroke="midnightblue" points="512.002,-243.422 502.594,-238.55 506.91,-248.225 512.002,-243.422"/>
</g>
<!-- Node3&#45;&gt;Node1 -->
<g id="edge4" class="edge"><title>Node3&#45;&gt;Node1</title>
<path fill="none" stroke="midnightblue" d="M253.858,-165.443C206.707,-154.082 133.43,-128.336 100,-74 91.3263,-59.9019 97.1811,-41.1223 103.767,-27.6487"/>
<polygon fill="midnightblue" stroke="midnightblue" points="107.015,-29.0023 108.718,-18.5451 100.866,-25.6581 107.015,-29.0023"/>
</g>
<!-- Node4 -->
<g id="node5" class="node"><title>Node4</title>
<g id="a_node5"><a xlink:href="vtkvmtkItems_8h.html" target="_top" xlink:title="vtkvmtkItems.h">
<polygon fill="white" stroke="black" points="255.663,-110.5 255.663,-128.5 338.337,-128.5 338.337,-110.5 255.663,-110.5"/>
<text text-anchor="middle" x="297" y="-116.5" font-family="Helvetica,sans-Serif" font-size="10.00">vtkvmtkItems.h</text>
</a>
</g>
</g>
<!-- Node3&#45;&gt;Node4 -->
<g id="edge5" class="edge"><title>Node3&#45;&gt;Node4</title>
<path fill="none" stroke="midnightblue" d="M297,-165.219C297,-158.177 297,-147.808 297,-138.828"/>
<polygon fill="midnightblue" stroke="midnightblue" points="300.5,-138.55 297,-128.55 293.5,-138.55 300.5,-138.55"/>
</g>
<!-- Node3&#45;&gt;Node6 -->
<g id="edge13" class="edge"><title>Node3&#45;&gt;Node6</title>
<path fill="none" stroke="midnightblue" d="M282.529,-165.414C270.502,-157.782 254.231,-145.115 247,-129 243.543,-121.296 244.857,-118.168 247,-110 254.122,-82.859 259.883,-76.4271 278,-55 287.887,-43.3067 301.188,-32.4487 312.234,-24.3856"/>
<polygon fill="midnightblue" stroke="midnightblue" points="314.345,-27.1796 320.5,-18.5559 310.31,-21.4592 314.345,-27.1796"/>
</g>
<!-- Node3&#45;&gt;Node7 -->
<g id="edge14" class="edge"><title>Node3&#45;&gt;Node7</title>
<path fill="none" stroke="midnightblue" d="M356.615,-165.442C402.686,-158.056 461.463,-145.725 479,-129 506.856,-102.433 512.857,-54.8869 513.955,-28.8258"/>
<polygon fill="midnightblue" stroke="midnightblue" points="517.455,-28.8798 514.176,-18.8052 510.457,-28.7259 517.455,-28.8798"/>
</g>
<!-- Node4&#45;&gt;Node1 -->
<g id="edge6" class="edge"><title>Node4&#45;&gt;Node1</title>
<path fill="none" stroke="midnightblue" d="M283.245,-110.382C251.981,-91.9313 175.315,-46.6862 136.826,-23.9713"/>
<polygon fill="midnightblue" stroke="midnightblue" points="138.305,-20.7801 127.914,-18.7118 134.748,-26.8086 138.305,-20.7801"/>
</g>
<!-- Node5 -->
<g id="node6" class="node"><title>Node5</title>
<g id="a_node6"><a xlink:href="vtkvmtkItem_8h.html" target="_top" xlink:title="vtkvmtkItem.h">
<polygon fill="white" stroke="black" points="294.163,-55.5 294.163,-73.5 371.837,-73.5 371.837,-55.5 294.163,-55.5"/>
<text text-anchor="middle" x="333" y="-61.5" font-family="Helvetica,sans-Serif" font-size="10.00">vtkvmtkItem.h</text>
</a>
</g>
</g>
<!-- Node4&#45;&gt;Node5 -->
<g id="edge7" class="edge"><title>Node4&#45;&gt;Node5</title>
<path fill="none" stroke="midnightblue" d="M302.625,-110.219C307.727,-102.707 315.4,-91.411 321.757,-82.0515"/>
<polygon fill="midnightblue" stroke="midnightblue" points="324.809,-83.7883 327.532,-73.5496 319.018,-79.8551 324.809,-83.7883"/>
</g>
<!-- Node4&#45;&gt;Node6 -->
<g id="edge11" class="edge"><title>Node4&#45;&gt;Node6</title>
<path fill="none" stroke="midnightblue" d="M292.524,-110.341C286.342,-97.9139 276.831,-73.7139 285,-55 290.345,-42.7565 300.903,-32.3735 310.76,-24.7242"/>
<polygon fill="midnightblue" stroke="midnightblue" points="313.02,-27.4099 319.092,-18.7278 308.931,-21.7282 313.02,-27.4099"/>
</g>
<!-- Node4&#45;&gt;Node7 -->
<g id="edge12" class="edge"><title>Node4&#45;&gt;Node7</title>
<path fill="none" stroke="midnightblue" d="M313.31,-110.382C350.868,-91.6901 443.678,-45.4989 488.699,-23.0923"/>
<polygon fill="midnightblue" stroke="midnightblue" points="490.403,-26.1535 497.796,-18.5644 487.284,-19.8867 490.403,-26.1535"/>
</g>
<!-- Node5&#45;&gt;Node1 -->
<g id="edge8" class="edge"><title>Node5&#45;&gt;Node1</title>
<path fill="none" stroke="midnightblue" d="M299.739,-55.4504C261.601,-46.2209 198.97,-31.0635 157.118,-20.935"/>
<polygon fill="midnightblue" stroke="midnightblue" points="157.758,-17.4888 147.215,-18.5383 156.111,-24.2924 157.758,-17.4888"/>
</g>
<!-- Node5&#45;&gt;Node6 -->
<g id="edge9" class="edge"><title>Node5&#45;&gt;Node6</title>
<path fill="none" stroke="midnightblue" d="M333,-55.2188C333,-48.1769 333,-37.8083 333,-28.8277"/>
<polygon fill="midnightblue" stroke="midnightblue" points="336.5,-28.5495 333,-18.5496 329.5,-28.5496 336.5,-28.5495"/>
</g>
<!-- Node5&#45;&gt;Node7 -->
<g id="edge10" class="edge"><title>Node5&#45;&gt;Node7</title>
<path fill="none" stroke="midnightblue" d="M360.49,-55.4504C391.543,-46.3575 442.246,-31.5108 476.817,-21.3879"/>
<polygon fill="midnightblue" stroke="midnightblue" points="477.935,-24.7075 486.548,-18.5383 475.968,-17.9896 477.935,-24.7075"/>
</g>
<!-- Node8&#45;&gt;Node1 -->
<g id="edge16" class="edge"><title>Node8&#45;&gt;Node1</title>
<path fill="none" stroke="midnightblue" d="M450.55,-225.704C396.782,-221.278 304.136,-210.277 229,-184 155.291,-158.222 115.248,-148.546 92,-74 87.0177,-58.0237 94.5252,-40.0154 102.091,-27.2678"/>
<polygon fill="midnightblue" stroke="midnightblue" points="105.166,-28.9578 107.681,-18.6658 99.2971,-25.1432 105.166,-28.9578"/>
</g>
<!-- Node8&#45;&gt;Node7 -->
<g id="edge25" class="edge"><title>Node8&#45;&gt;Node7</title>
<path fill="none" stroke="midnightblue" d="M506.239,-220.351C516.368,-212.329 530.749,-199.11 538,-184 562.865,-132.185 565.027,-109.572 547,-55 543.5,-44.4031 536.393,-34.2704 529.668,-26.3582"/>
<polygon fill="midnightblue" stroke="midnightblue" points="532.034,-23.7581 522.71,-18.7271 526.862,-28.4746 532.034,-23.7581"/>
</g>
<!-- Node9 -->
<g id="node10" class="node"><title>Node9</title>
<g id="a_node10"><a xlink:href="vtkvmtkNeighborhood_8h.html" target="_top" xlink:title="vtkvmtkNeighborhood.h">
<polygon fill="white" stroke="black" points="407.473,-165.5 407.473,-183.5 528.527,-183.5 528.527,-165.5 407.473,-165.5"/>
<text text-anchor="middle" x="468" y="-171.5" font-family="Helvetica,sans-Serif" font-size="10.00">vtkvmtkNeighborhood.h</text>
</a>
</g>
</g>
<!-- Node8&#45;&gt;Node9 -->
<g id="edge17" class="edge"><title>Node8&#45;&gt;Node9</title>
<path fill="none" stroke="midnightblue" d="M490.781,-220.219C487.034,-212.864 481.439,-201.88 476.731,-192.639"/>
<polygon fill="midnightblue" stroke="midnightblue" points="479.759,-190.871 472.101,-183.55 473.521,-194.049 479.759,-190.871"/>
</g>
<!-- Node9&#45;&gt;Node1 -->
<g id="edge18" class="edge"><title>Node9&#45;&gt;Node1</title>
<path fill="none" stroke="midnightblue" d="M407.062,-169.862C361.042,-165.117 297.419,-154.185 247,-129 195.547,-103.299 148.66,-52.4004 126.86,-26.4789"/>
<polygon fill="midnightblue" stroke="midnightblue" points="129.521,-24.2052 120.458,-18.7182 124.122,-28.6595 129.521,-24.2052"/>
</g>
<!-- Node9&#45;&gt;Node7 -->
<g id="edge24" class="edge"><title>Node9&#45;&gt;Node7</title>
<path fill="none" stroke="midnightblue" d="M486.708,-165.429C500.917,-158.174 519.429,-146.029 528,-129 544.551,-96.1177 531.378,-51.7871 521.772,-27.7462"/>
<polygon fill="midnightblue" stroke="midnightblue" points="524.98,-26.3456 517.85,-18.5091 518.537,-29.0817 524.98,-26.3456"/>
</g>
<!-- Node10 -->
<g id="node11" class="node"><title>Node10</title>
<g id="a_node11"><a xlink:href="vtkvmtkDataSetItem_8h.html" target="_top" xlink:title="vtkvmtkDataSetItem.h">
<polygon fill="white" stroke="black" points="356.096,-110.5 356.096,-128.5 469.904,-128.5 469.904,-110.5 356.096,-110.5"/>
<text text-anchor="middle" x="413" y="-116.5" font-family="Helvetica,sans-Serif" font-size="10.00">vtkvmtkDataSetItem.h</text>
</a>
</g>
</g>
<!-- Node9&#45;&gt;Node10 -->
<g id="edge19" class="edge"><title>Node9&#45;&gt;Node10</title>
<path fill="none" stroke="midnightblue" d="M459.406,-165.219C451.205,-157.316 438.657,-145.224 428.676,-135.606"/>
<polygon fill="midnightblue" stroke="midnightblue" points="430.983,-132.968 421.353,-128.55 426.125,-138.009 430.983,-132.968"/>
</g>
<!-- Node10&#45;&gt;Node1 -->
<g id="edge20" class="edge"><title>Node10&#45;&gt;Node1</title>
<path fill="none" stroke="midnightblue" d="M389.356,-110.446C363.629,-101.644 321.31,-87.0517 285,-74 235.77,-56.3039 178.871,-35.0049 144.7,-22.1213"/>
<polygon fill="midnightblue" stroke="midnightblue" points="145.866,-18.8204 135.274,-18.5635 143.394,-25.3694 145.866,-18.8204"/>
</g>
<!-- Node10&#45;&gt;Node5 -->
<g id="edge21" class="edge"><title>Node10&#45;&gt;Node5</title>
<path fill="none" stroke="midnightblue" d="M400.85,-110.45C388.398,-102.201 368.797,-89.2158 353.858,-79.3187"/>
<polygon fill="midnightblue" stroke="midnightblue" points="355.534,-76.2305 345.265,-73.6253 351.668,-82.0661 355.534,-76.2305"/>
</g>
<!-- Node10&#45;&gt;Node6 -->
<g id="edge22" class="edge"><title>Node10&#45;&gt;Node6</title>
<path fill="none" stroke="midnightblue" d="M409.91,-110.15C404.983,-97.4746 394.508,-72.9541 381,-55 372.651,-43.9032 361.336,-33.2605 351.788,-25.167"/>
<polygon fill="midnightblue" stroke="midnightblue" points="353.925,-22.3934 343.971,-18.7634 349.489,-27.8082 353.925,-22.3934"/>
</g>
<!-- Node10&#45;&gt;Node7 -->
<g id="edge23" class="edge"><title>Node10&#45;&gt;Node7</title>
<path fill="none" stroke="midnightblue" d="M420.591,-110.382C437.335,-92.4786 477.671,-49.3466 499.457,-26.0507"/>
<polygon fill="midnightblue" stroke="midnightblue" points="502.046,-28.4062 506.32,-18.7118 496.934,-23.6249 502.046,-28.4062"/>
</g>
</g>
</svg>
