<?xml version="1.0" encoding="UTF-8" standalone="no"?>
<!DOCTYPE svg PUBLIC "-//W3C//DTD SVG 1.1//EN"
 "http://www.w3.org/Graphics/SVG/1.1/DTD/svg11.dtd">
<!-- Generated by graphviz version 2.38.0 (20140413.2041)
 -->
<!-- Title: vtkvmtkPolyDataFELaplaceBeltramiStencil.h Pages: 1 -->
<svg width="692pt" height="432pt"
 viewBox="0.00 0.00 691.63 432.00" xmlns="http://www.w3.org/2000/svg" xmlns:xlink="http://www.w3.org/1999/xlink">
<g id="graph0" class="graph" transform="scale(1 1) rotate(0) translate(4 428)">
<title>vtkvmtkPolyDataFELaplaceBeltramiStencil.h</title>
<polygon fill="white" stroke="none" points="-4,4 -4,-428 687.625,-428 687.625,4 -4,4"/>
<!-- Node0 -->
<g id="node1" class="node"><title>Node0</title>
<polygon fill="#bfbfbf" stroke="black" points="411.865,-395.5 411.865,-423.5 550.135,-423.5 550.135,-395.5 411.865,-395.5"/>
<text text-anchor="start" x="419.865" y="-411.5" font-family="Helvetica,sans-Serif" font-size="10.00">vtkvmtkPolyDataFELaplace</text>
<text text-anchor="middle" x="481" y="-401.5" font-family="Helvetica,sans-Serif" font-size="10.00">BeltramiStencil.h</text>
</g>
<!-- Node1 -->
<g id="node2" class="node"><title>Node1</title>
<polygon fill="white" stroke="#bfbfbf" points="80.9902,-0.5 80.9902,-18.5 147.01,-18.5 147.01,-0.5 80.9902,-0.5"/>
<text text-anchor="middle" x="114" y="-6.5" font-family="Helvetica,sans-Serif" font-size="10.00">vtkObject.h</text>
</g>
<!-- Node0&#45;&gt;Node1 -->
<g id="edge1" class="edge"><title>Node0&#45;&gt;Node1</title>
<path fill="none" stroke="midnightblue" d="M411.828,-405.176C278.726,-396.881 0,-369.485 0,-285.5 0,-285.5 0,-285.5 0,-118.5 0,-71.9745 50.6593,-39.4854 84.4371,-22.994"/>
<polygon fill="midnightblue" stroke="midnightblue" points="86.3042,-25.9848 93.8815,-18.5797 83.3402,-19.6433 86.3042,-25.9848"/>
</g>
<!-- Node2 -->
<g id="node3" class="node"><title>Node2</title>
<g id="a_node3"><a xlink:href="vtkvmtkConstants_8h.html" target="_top" xlink:title="vtkvmtkConstants.h">
<polygon fill="white" stroke="black" points="580.375,-335.5 580.375,-353.5 683.625,-353.5 683.625,-335.5 580.375,-335.5"/>
<text text-anchor="middle" x="632" y="-341.5" font-family="Helvetica,sans-Serif" font-size="10.00">vtkvmtkConstants.h</text>
</a>
</g>
</g>
<!-- Node0&#45;&gt;Node2 -->
<g id="edge2" class="edge"><title>Node0&#45;&gt;Node2</title>
<path fill="none" stroke="midnightblue" d="M512.287,-395.446C539.097,-384.261 577.39,-368.284 603.395,-357.435"/>
<polygon fill="midnightblue" stroke="midnightblue" points="604.829,-360.629 612.71,-353.548 602.134,-354.168 604.829,-360.629"/>
</g>
<!-- Node3 -->
<g id="node4" class="node"><title>Node3</title>
<g id="a_node4"><a xlink:href="vtkvmtkPolyDataLaplaceBeltramiStencil_8h.html" target="_top" xlink:title="vtkvmtkPolyDataLaplaceBeltrami\lStencil.h">
<polygon fill="white" stroke="black" points="329.917,-330.5 329.917,-358.5 492.083,-358.5 492.083,-330.5 329.917,-330.5"/>
<text text-anchor="start" x="337.917" y="-346.5" font-family="Helvetica,sans-Serif" font-size="10.00">vtkvmtkPolyDataLaplaceBeltrami</text>
<text text-anchor="middle" x="411" y="-336.5" font-family="Helvetica,sans-Serif" font-size="10.00">Stencil.h</text>
</a>
</g>
</g>
<!-- Node0&#45;&gt;Node3 -->
<g id="edge3" class="edge"><title>Node0&#45;&gt;Node3</title>
<path fill="none" stroke="midnightblue" d="M466.496,-395.446C456.829,-386.746 443.94,-375.146 433.017,-365.316"/>
<polygon fill="midnightblue" stroke="midnightblue" points="435.26,-362.625 425.485,-358.537 430.577,-367.828 435.26,-362.625"/>
</g>
<!-- Node10 -->
<g id="node11" class="node"><title>Node10</title>
<polygon fill="white" stroke="#bfbfbf" points="378.589,-0.5 378.589,-18.5 497.411,-18.5 497.411,-0.5 378.589,-0.5"/>
<text text-anchor="middle" x="438" y="-6.5" font-family="Helvetica,sans-Serif" font-size="10.00">vtkvmtkWin32Header.h</text>
</g>
<!-- Node0&#45;&gt;Node10 -->
<g id="edge24" class="edge"><title>Node0&#45;&gt;Node10</title>
<path fill="none" stroke="midnightblue" d="M495.027,-395.206C515.719,-374.086 552,-330.621 552,-285.5 552,-285.5 552,-285.5 552,-118.5 552,-71.9745 501.341,-39.4854 467.563,-22.994"/>
<polygon fill="midnightblue" stroke="midnightblue" points="468.66,-19.6433 458.118,-18.5797 465.696,-25.9848 468.66,-19.6433"/>
</g>
<!-- Node3&#45;&gt;Node1 -->
<g id="edge4" class="edge"><title>Node3&#45;&gt;Node1</title>
<path fill="none" stroke="midnightblue" d="M329.604,-335.361C219.853,-322.089 38,-290.974 38,-230.5 38,-230.5 38,-230.5 38,-118.5 38,-79.0599 72.317,-43.8584 94.8312,-25.0079"/>
<polygon fill="midnightblue" stroke="midnightblue" points="97.1877,-27.6042 102.786,-18.6091 92.8002,-22.1498 97.1877,-27.6042"/>
</g>
<!-- Node4 -->
<g id="node5" class="node"><title>Node4</title>
<g id="a_node5"><a xlink:href="vtkvmtkPolyDataManifoldStencil_8h.html" target="_top" xlink:title="vtkvmtkPolyDataManifoldStencil.h">
<polygon fill="white" stroke="black" points="296.692,-275.5 296.692,-293.5 463.308,-293.5 463.308,-275.5 296.692,-275.5"/>
<text text-anchor="middle" x="380" y="-281.5" font-family="Helvetica,sans-Serif" font-size="10.00">vtkvmtkPolyDataManifoldStencil.h</text>
</a>
</g>
</g>
<!-- Node3&#45;&gt;Node4 -->
<g id="edge5" class="edge"><title>Node3&#45;&gt;Node4</title>
<path fill="none" stroke="midnightblue" d="M403.966,-330.339C399.605,-322.18 393.954,-311.607 389.235,-302.778"/>
<polygon fill="midnightblue" stroke="midnightblue" points="392.222,-300.941 384.421,-293.771 386.048,-304.241 392.222,-300.941"/>
</g>
<!-- Node3&#45;&gt;Node10 -->
<g id="edge23" class="edge"><title>Node3&#45;&gt;Node10</title>
<path fill="none" stroke="midnightblue" d="M435.933,-330.363C466.417,-312.292 514,-276.688 514,-230.5 514,-230.5 514,-230.5 514,-118.5 514,-79.0599 479.683,-43.8584 457.169,-25.0079"/>
<polygon fill="midnightblue" stroke="midnightblue" points="459.2,-22.1498 449.214,-18.6091 454.812,-27.6042 459.2,-22.1498"/>
</g>
<!-- Node4&#45;&gt;Node1 -->
<g id="edge6" class="edge"><title>Node4&#45;&gt;Node1</title>
<path fill="none" stroke="midnightblue" d="M324.948,-275.49C237.343,-261.178 76,-227.729 76,-175.5 76,-175.5 76,-175.5 76,-118.5 76,-84.6784 92.788,-48.1041 104.047,-27.3784"/>
<polygon fill="midnightblue" stroke="midnightblue" points="107.158,-28.9865 109.032,-18.5586 101.065,-25.542 107.158,-28.9865"/>
</g>
<!-- Node5 -->
<g id="node6" class="node"><title>Node5</title>
<g id="a_node6"><a xlink:href="vtkvmtkStencil_8h.html" target="_top" xlink:title="vtkvmtkStencil.h">
<polygon fill="white" stroke="black" points="263.879,-220.5 263.879,-238.5 352.121,-238.5 352.121,-220.5 263.879,-220.5"/>
<text text-anchor="middle" x="308" y="-226.5" font-family="Helvetica,sans-Serif" font-size="10.00">vtkvmtkStencil.h</text>
</a>
</g>
</g>
<!-- Node4&#45;&gt;Node5 -->
<g id="edge7" class="edge"><title>Node4&#45;&gt;Node5</title>
<path fill="none" stroke="midnightblue" d="M369.065,-275.45C357.964,-267.279 340.55,-254.46 327.154,-244.6"/>
<polygon fill="midnightblue" stroke="midnightblue" points="329.166,-241.735 319.038,-238.625 325.017,-247.372 329.166,-241.735"/>
</g>
<!-- Node4&#45;&gt;Node10 -->
<g id="edge22" class="edge"><title>Node4&#45;&gt;Node10</title>
<path fill="none" stroke="midnightblue" d="M382.387,-275.258C385.918,-263.126 392.788,-239.76 399,-220 419.364,-155.224 434.987,-141.3 444,-74 446.026,-58.8745 444.132,-41.6318 441.951,-28.9347"/>
<polygon fill="midnightblue" stroke="midnightblue" points="445.314,-27.8927 439.972,-18.7432 438.442,-29.227 445.314,-27.8927"/>
</g>
<!-- Node11 -->
<g id="node12" class="node"><title>Node11</title>
<polygon fill="white" stroke="#bfbfbf" points="408.153,-220.5 408.153,-238.5 485.847,-238.5 485.847,-220.5 408.153,-220.5"/>
<text text-anchor="middle" x="447" y="-226.5" font-family="Helvetica,sans-Serif" font-size="10.00">vtkPolyData.h</text>
</g>
<!-- Node4&#45;&gt;Node11 -->
<g id="edge21" class="edge"><title>Node4&#45;&gt;Node11</title>
<path fill="none" stroke="midnightblue" d="M390.176,-275.45C400.408,-267.357 416.402,-254.704 428.819,-244.882"/>
<polygon fill="midnightblue" stroke="midnightblue" points="431.057,-247.574 436.728,-238.625 426.714,-242.084 431.057,-247.574"/>
</g>
<!-- Node5&#45;&gt;Node1 -->
<g id="edge8" class="edge"><title>Node5&#45;&gt;Node1</title>
<path fill="none" stroke="midnightblue" d="M291.878,-220.387C276.925,-212.39 254.553,-199.188 238,-184 185.094,-135.455 141.183,-60.8888 123.002,-27.5877"/>
<polygon fill="midnightblue" stroke="midnightblue" points="126.018,-25.8067 118.204,-18.6522 119.851,-29.1182 126.018,-25.8067"/>
</g>
<!-- Node6 -->
<g id="node7" class="node"><title>Node6</title>
<g id="a_node7"><a xlink:href="vtkvmtkNeighborhood_8h.html" target="_top" xlink:title="vtkvmtkNeighborhood.h">
<polygon fill="white" stroke="black" points="247.473,-165.5 247.473,-183.5 368.527,-183.5 368.527,-165.5 247.473,-165.5"/>
<text text-anchor="middle" x="308" y="-171.5" font-family="Helvetica,sans-Serif" font-size="10.00">vtkvmtkNeighborhood.h</text>
</a>
</g>
</g>
<!-- Node5&#45;&gt;Node6 -->
<g id="edge9" class="edge"><title>Node5&#45;&gt;Node6</title>
<path fill="none" stroke="midnightblue" d="M308,-220.219C308,-213.177 308,-202.808 308,-193.828"/>
<polygon fill="midnightblue" stroke="midnightblue" points="311.5,-193.55 308,-183.55 304.5,-193.55 311.5,-193.55"/>
</g>
<!-- Node5&#45;&gt;Node10 -->
<g id="edge20" class="edge"><title>Node5&#45;&gt;Node10</title>
<path fill="none" stroke="midnightblue" d="M326.905,-220.425C342.439,-212.956 364.079,-200.517 378,-184 417.319,-137.347 431.385,-63.451 435.979,-29.1415"/>
<polygon fill="midnightblue" stroke="midnightblue" points="439.507,-29.1145 437.234,-18.7663 432.558,-28.2733 439.507,-29.1145"/>
</g>
<!-- Node6&#45;&gt;Node1 -->
<g id="edge10" class="edge"><title>Node6&#45;&gt;Node1</title>
<path fill="none" stroke="midnightblue" d="M295.081,-165.343C281.578,-156.691 259.904,-142.441 242,-129 211.464,-106.075 204.041,-99.9166 176,-74 159.107,-58.3868 140.831,-39.3875 128.53,-26.2618"/>
<polygon fill="midnightblue" stroke="midnightblue" points="130.758,-23.5177 121.384,-18.5791 125.632,-28.2852 130.758,-23.5177"/>
</g>
<!-- Node7 -->
<g id="node8" class="node"><title>Node7</title>
<g id="a_node8"><a xlink:href="vtkvmtkDataSetItem_8h.html" target="_top" xlink:title="vtkvmtkDataSetItem.h">
<polygon fill="white" stroke="black" points="251.096,-110.5 251.096,-128.5 364.904,-128.5 364.904,-110.5 251.096,-110.5"/>
<text text-anchor="middle" x="308" y="-116.5" font-family="Helvetica,sans-Serif" font-size="10.00">vtkvmtkDataSetItem.h</text>
</a>
</g>
</g>
<!-- Node6&#45;&gt;Node7 -->
<g id="edge11" class="edge"><title>Node6&#45;&gt;Node7</title>
<path fill="none" stroke="midnightblue" d="M308,-165.219C308,-158.177 308,-147.808 308,-138.828"/>
<polygon fill="midnightblue" stroke="midnightblue" points="311.5,-138.55 308,-128.55 304.5,-138.55 311.5,-138.55"/>
</g>
<!-- Node6&#45;&gt;Node10 -->
<g id="edge19" class="edge"><title>Node6&#45;&gt;Node10</title>
<path fill="none" stroke="midnightblue" d="M324.276,-165.446C338.726,-157.669 359.707,-144.768 374,-129 402.042,-98.0646 422.104,-52.6274 431.674,-27.9726"/>
<polygon fill="midnightblue" stroke="midnightblue" points="434.989,-29.0991 435.225,-18.5069 428.435,-26.6403 434.989,-29.0991"/>
</g>
<!-- Node7&#45;&gt;Node1 -->
<g id="edge12" class="edge"><title>Node7&#45;&gt;Node1</title>
<path fill="none" stroke="midnightblue" d="M287.42,-110.428C267.052,-102.168 235.21,-88.5175 209,-74 181.559,-58.8007 151.773,-38.1511 133.007,-24.5832"/>
<polygon fill="midnightblue" stroke="midnightblue" points="134.88,-21.6166 124.739,-18.5464 130.752,-27.27 134.88,-21.6166"/>
</g>
<!-- Node8 -->
<g id="node9" class="node"><title>Node8</title>
<g id="a_node9"><a xlink:href="vtkvmtkItem_8h.html" target="_top" xlink:title="vtkvmtkItem.h">
<polygon fill="white" stroke="black" points="218.163,-55.5 218.163,-73.5 295.837,-73.5 295.837,-55.5 218.163,-55.5"/>
<text text-anchor="middle" x="257" y="-61.5" font-family="Helvetica,sans-Serif" font-size="10.00">vtkvmtkItem.h</text>
</a>
</g>
</g>
<!-- Node7&#45;&gt;Node8 -->
<g id="edge13" class="edge"><title>Node7&#45;&gt;Node8</title>
<path fill="none" stroke="midnightblue" d="M300.031,-110.219C292.502,-102.394 281.021,-90.4631 271.811,-80.8921"/>
<polygon fill="midnightblue" stroke="midnightblue" points="274.202,-78.3285 264.746,-73.5496 269.158,-83.1821 274.202,-78.3285"/>
</g>
<!-- Node9 -->
<g id="node10" class="node"><title>Node9</title>
<polygon fill="white" stroke="#bfbfbf" points="253.375,-0.5 253.375,-18.5 326.625,-18.5 326.625,-0.5 253.375,-0.5"/>
<text text-anchor="middle" x="290" y="-6.5" font-family="Helvetica,sans-Serif" font-size="10.00">vtkDataSet.h</text>
</g>
<!-- Node7&#45;&gt;Node9 -->
<g id="edge17" class="edge"><title>Node7&#45;&gt;Node9</title>
<path fill="none" stroke="midnightblue" d="M308.336,-110.195C308.666,-97.985 308.677,-74.5226 305,-55 303.279,-45.8639 300.115,-36.0375 297.135,-27.9486"/>
<polygon fill="midnightblue" stroke="midnightblue" points="300.353,-26.5662 293.461,-18.5198 293.831,-29.1082 300.353,-26.5662"/>
</g>
<!-- Node7&#45;&gt;Node10 -->
<g id="edge18" class="edge"><title>Node7&#45;&gt;Node10</title>
<path fill="none" stroke="midnightblue" d="M317.771,-110.382C339.604,-92.244 392.606,-48.2122 420.371,-25.1455"/>
<polygon fill="midnightblue" stroke="midnightblue" points="422.66,-27.7942 428.115,-18.7118 418.187,-22.4098 422.66,-27.7942"/>
</g>
<!-- Node8&#45;&gt;Node1 -->
<g id="edge14" class="edge"><title>Node8&#45;&gt;Node1</title>
<path fill="none" stroke="midnightblue" d="M235.281,-55.4504C211.344,-46.5784 172.627,-32.2288 145.39,-22.134"/>
<polygon fill="midnightblue" stroke="midnightblue" points="146.516,-18.8188 135.923,-18.6253 144.083,-25.3825 146.516,-18.8188"/>
</g>
<!-- Node8&#45;&gt;Node9 -->
<g id="edge15" class="edge"><title>Node8&#45;&gt;Node9</title>
<path fill="none" stroke="midnightblue" d="M262.156,-55.2188C266.833,-47.7074 273.867,-36.411 279.694,-27.0515"/>
<polygon fill="midnightblue" stroke="midnightblue" points="282.674,-28.8885 284.988,-18.5496 276.731,-25.1886 282.674,-28.8885"/>
</g>
<!-- Node8&#45;&gt;Node10 -->
<g id="edge16" class="edge"><title>Node8&#45;&gt;Node10</title>
<path fill="none" stroke="midnightblue" d="M284.49,-55.4504C315.543,-46.3575 366.246,-31.5108 400.817,-21.3879"/>
<polygon fill="midnightblue" stroke="midnightblue" points="401.935,-24.7075 410.548,-18.5383 399.968,-17.9896 401.935,-24.7075"/>
</g>
</g>
</svg>
