<?xml version="1.0" encoding="UTF-8" standalone="no"?>
<!DOCTYPE svg PUBLIC "-//W3C//DTD SVG 1.1//EN"
 "http://www.w3.org/Graphics/SVG/1.1/DTD/svg11.dtd">
<!-- Generated by graphviz version 2.38.0 (20140413.2041)
 -->
<!-- Title: vtkvmtkStreamlineClusteringFilter.h Pages: 1 -->
<svg width="343pt" height="92pt"
 viewBox="0.00 0.00 343.38 92.00" xmlns="http://www.w3.org/2000/svg" xmlns:xlink="http://www.w3.org/1999/xlink">
<g id="graph0" class="graph" transform="scale(1 1) rotate(0) translate(4 88)">
<title>vtkvmtkStreamlineClusteringFilter.h</title>
<polygon fill="white" stroke="none" points="-4,4 -4,-88 339.376,-88 339.376,4 -4,4"/>
<!-- Node0 -->
<g id="node1" class="node"><title>Node0</title>
<polygon fill="#bfbfbf" stroke="black" points="96.6133,-55.5 96.6133,-83.5 239.317,-83.5 239.317,-55.5 96.6133,-55.5"/>
<text text-anchor="start" x="104.613" y="-71.5" font-family="Helvetica,sans-Serif" font-size="10.00">vtkvmtkStreamlineClustering</text>
<text text-anchor="middle" x="167.965" y="-61.5" font-family="Helvetica,sans-Serif" font-size="10.00">Filter.h</text>
</g>
<!-- Node1 -->
<g id="node2" class="node"><title>Node1</title>
<polygon fill="white" stroke="#bfbfbf" points="0,-0.5 0,-18.5 119.931,-18.5 119.931,-0.5 0,-0.5"/>
<text text-anchor="middle" x="59.9653" y="-6.5" font-family="Helvetica,sans-Serif" font-size="10.00">vtkPolyDataAlgorithm.h</text>
</g>
<!-- Node0&#45;&gt;Node1 -->
<g id="edge1" class="edge"><title>Node0&#45;&gt;Node1</title>
<path fill="none" stroke="midnightblue" d="M143.728,-55.4837C125.992,-45.9587 102.026,-33.0882 84.2733,-23.5543"/>
<polygon fill="midnightblue" stroke="midnightblue" points="85.5948,-20.2912 75.1289,-18.6434 82.2829,-26.4582 85.5948,-20.2912"/>
</g>
<!-- Node2 -->
<g id="node3" class="node"><title>Node2</title>
<polygon fill="white" stroke="#bfbfbf" points="137.456,-0.5 137.456,-18.5 198.475,-18.5 198.475,-0.5 137.456,-0.5"/>
<text text-anchor="middle" x="167.965" y="-6.5" font-family="Helvetica,sans-Serif" font-size="10.00">vtkIdList.h</text>
</g>
<!-- Node0&#45;&gt;Node2 -->
<g id="edge2" class="edge"><title>Node0&#45;&gt;Node2</title>
<path fill="none" stroke="midnightblue" d="M167.965,-55.3389C167.965,-47.5305 167.965,-37.5122 167.965,-28.9265"/>
<polygon fill="midnightblue" stroke="midnightblue" points="171.465,-28.7714 167.965,-18.7715 164.465,-28.7715 171.465,-28.7714"/>
</g>
<!-- Node3 -->
<g id="node4" class="node"><title>Node3</title>
<polygon fill="white" stroke="#bfbfbf" points="216.554,-0.5 216.554,-18.5 335.376,-18.5 335.376,-0.5 216.554,-0.5"/>
<text text-anchor="middle" x="275.965" y="-6.5" font-family="Helvetica,sans-Serif" font-size="10.00">vtkvmtkWin32Header.h</text>
</g>
<!-- Node0&#45;&gt;Node3 -->
<g id="edge3" class="edge"><title>Node0&#45;&gt;Node3</title>
<path fill="none" stroke="midnightblue" d="M192.203,-55.4837C209.939,-45.9587 233.905,-33.0882 251.657,-23.5543"/>
<polygon fill="midnightblue" stroke="midnightblue" points="253.648,-26.4582 260.802,-18.6434 250.336,-20.2912 253.648,-26.4582"/>
</g>
</g>
</svg>
