<?xml version="1.0" encoding="UTF-8" standalone="no"?>
<!DOCTYPE svg PUBLIC "-//W3C//DTD SVG 1.1//EN"
 "http://www.w3.org/Graphics/SVG/1.1/DTD/svg11.dtd">
<!-- Generated by graphviz version 2.38.0 (20140413.2041)
 -->
<!-- Title: vtkvmtkFEAssembler.h Pages: 1 -->
<svg width="1230pt" height="412pt"
 viewBox="0.00 0.00 1230.00 412.00" xmlns="http://www.w3.org/2000/svg" xmlns:xlink="http://www.w3.org/1999/xlink">
<g id="graph0" class="graph" transform="scale(1 1) rotate(0) translate(4 408)">
<title>vtkvmtkFEAssembler.h</title>
<polygon fill="white" stroke="none" points="-4,4 -4,-408 1226,-408 1226,4 -4,4"/>
<!-- Node0 -->
<g id="node1" class="node"><title>Node0</title>
<polygon fill="#bfbfbf" stroke="black" points="671.153,-385.5 671.153,-403.5 788.847,-403.5 788.847,-385.5 671.153,-385.5"/>
<text text-anchor="middle" x="730" y="-391.5" font-family="Helvetica,sans-Serif" font-size="10.00">vtkvmtkFEAssembler.h</text>
</g>
<!-- Node1 -->
<g id="node2" class="node"><title>Node1</title>
<polygon fill="white" stroke="#bfbfbf" points="417.99,-0.5 417.99,-18.5 484.01,-18.5 484.01,-0.5 417.99,-0.5"/>
<text text-anchor="middle" x="451" y="-6.5" font-family="Helvetica,sans-Serif" font-size="10.00">vtkObject.h</text>
</g>
<!-- Node0&#45;&gt;Node1 -->
<g id="edge1" class="edge"><title>Node0&#45;&gt;Node1</title>
<path fill="none" stroke="midnightblue" d="M671,-390.475C503.656,-381.116 38,-349.336 38,-285.5 38,-285.5 38,-285.5 38,-228.5 38,-62.548 302.021,-22.6068 407.868,-13.2623"/>
<polygon fill="midnightblue" stroke="midnightblue" points="408.226,-16.7448 417.901,-12.4271 407.645,-9.76893 408.226,-16.7448"/>
</g>
<!-- Node2 -->
<g id="node3" class="node"><title>Node2</title>
<polygon fill="white" stroke="#bfbfbf" points="576.153,-330.5 576.153,-348.5 653.847,-348.5 653.847,-330.5 576.153,-330.5"/>
<text text-anchor="middle" x="615" y="-336.5" font-family="Helvetica,sans-Serif" font-size="10.00">vtkPolyData.h</text>
</g>
<!-- Node0&#45;&gt;Node2 -->
<g id="edge2" class="edge"><title>Node0&#45;&gt;Node2</title>
<path fill="none" stroke="midnightblue" d="M712.534,-385.45C693.79,-376.812 663.778,-362.98 641.992,-352.94"/>
<polygon fill="midnightblue" stroke="midnightblue" points="643.177,-349.632 632.63,-348.625 640.247,-355.99 643.177,-349.632"/>
</g>
<!-- Node3 -->
<g id="node4" class="node"><title>Node3</title>
<g id="a_node4"><a xlink:href="vtkvmtkSparseMatrix_8h.html" target="_top" xlink:title="vtkvmtkSparseMatrix.h">
<polygon fill="white" stroke="black" points="671.434,-330.5 671.434,-348.5 788.566,-348.5 788.566,-330.5 671.434,-330.5"/>
<text text-anchor="middle" x="730" y="-336.5" font-family="Helvetica,sans-Serif" font-size="10.00">vtkvmtkSparseMatrix.h</text>
</a>
</g>
</g>
<!-- Node0&#45;&gt;Node3 -->
<g id="edge3" class="edge"><title>Node0&#45;&gt;Node3</title>
<path fill="none" stroke="midnightblue" d="M730,-385.219C730,-378.177 730,-367.808 730,-358.828"/>
<polygon fill="midnightblue" stroke="midnightblue" points="733.5,-358.55 730,-348.55 726.5,-358.55 733.5,-358.55"/>
</g>
<!-- Node10 -->
<g id="node11" class="node"><title>Node10</title>
<polygon fill="white" stroke="#bfbfbf" points="834.589,-0.5 834.589,-18.5 953.411,-18.5 953.411,-0.5 834.589,-0.5"/>
<text text-anchor="middle" x="894" y="-6.5" font-family="Helvetica,sans-Serif" font-size="10.00">vtkvmtkWin32Header.h</text>
</g>
<!-- Node0&#45;&gt;Node10 -->
<g id="edge53" class="edge"><title>Node0&#45;&gt;Node10</title>
<path fill="none" stroke="midnightblue" d="M788.858,-392.846C919.451,-389.802 1222,-373.278 1222,-285.5 1222,-285.5 1222,-285.5 1222,-118.5 1222,-64.578 1060.05,-33.1102 963.747,-19.1646"/>
<polygon fill="midnightblue" stroke="midnightblue" points="964.172,-15.6899 953.779,-17.7496 963.188,-22.6204 964.172,-15.6899"/>
</g>
<!-- Node16 -->
<g id="node17" class="node"><title>Node16</title>
<g id="a_node17"><a xlink:href="vtkvmtkDoubleVector_8h.html" target="_top" xlink:title="vtkvmtkDoubleVector.h">
<polygon fill="white" stroke="black" points="1045.14,-275.5 1045.14,-293.5 1162.86,-293.5 1162.86,-275.5 1045.14,-275.5"/>
<text text-anchor="middle" x="1104" y="-281.5" font-family="Helvetica,sans-Serif" font-size="10.00">vtkvmtkDoubleVector.h</text>
</a>
</g>
</g>
<!-- Node0&#45;&gt;Node16 -->
<g id="edge52" class="edge"><title>Node0&#45;&gt;Node16</title>
<path fill="none" stroke="midnightblue" d="M757.805,-385.471C824.014,-366.351 991.079,-318.108 1066.28,-296.391"/>
<polygon fill="midnightblue" stroke="midnightblue" points="1067.63,-299.646 1076.27,-293.509 1065.69,-292.921 1067.63,-299.646"/>
</g>
<!-- Node3&#45;&gt;Node1 -->
<g id="edge4" class="edge"><title>Node3&#45;&gt;Node1</title>
<path fill="none" stroke="midnightblue" d="M671.397,-330.611C524.453,-310.439 152,-256.723 152,-230.5 152,-230.5 152,-230.5 152,-173.5 152,-58.4046 324.905,-24.0976 407.745,-14.2657"/>
<polygon fill="midnightblue" stroke="midnightblue" points="408.311,-17.7243 417.859,-13.134 407.532,-10.7677 408.311,-17.7243"/>
</g>
<!-- Node4 -->
<g id="node5" class="node"><title>Node4</title>
<g id="a_node5"><a xlink:href="vtkvmtkSparseMatrixRow_8h.html" target="_top" xlink:title="vtkvmtkSparseMatrixRow.h">
<polygon fill="white" stroke="black" points="731.705,-275.5 731.705,-293.5 868.295,-293.5 868.295,-275.5 731.705,-275.5"/>
<text text-anchor="middle" x="800" y="-281.5" font-family="Helvetica,sans-Serif" font-size="10.00">vtkvmtkSparseMatrixRow.h</text>
</a>
</g>
</g>
<!-- Node3&#45;&gt;Node4 -->
<g id="edge5" class="edge"><title>Node3&#45;&gt;Node4</title>
<path fill="none" stroke="midnightblue" d="M740.631,-330.45C751.321,-322.357 768.032,-309.704 781.005,-299.882"/>
<polygon fill="midnightblue" stroke="midnightblue" points="783.409,-302.452 789.268,-293.625 779.183,-296.871 783.409,-302.452"/>
</g>
<!-- Node9 -->
<g id="node10" class="node"><title>Node9</title>
<polygon fill="white" stroke="#bfbfbf" points="115.375,-0.5 115.375,-18.5 188.625,-18.5 188.625,-0.5 115.375,-0.5"/>
<text text-anchor="middle" x="152" y="-6.5" font-family="Helvetica,sans-Serif" font-size="10.00">vtkDataSet.h</text>
</g>
<!-- Node3&#45;&gt;Node9 -->
<g id="edge50" class="edge"><title>Node3&#45;&gt;Node9</title>
<path fill="none" stroke="midnightblue" d="M671.183,-330.964C668.417,-330.633 665.679,-330.31 663,-330 510.296,-312.325 469.419,-325.704 319,-294 240.882,-277.535 222.766,-266.992 148,-239 80.9675,-213.903 0,-247.077 0,-175.5 0,-175.5 0,-175.5 0,-118.5 0,-65.0801 63.1589,-35.6539 108.051,-21.4854"/>
<polygon fill="midnightblue" stroke="midnightblue" points="109.319,-24.7591 117.888,-18.5287 107.304,-18.0553 109.319,-24.7591"/>
</g>
<!-- Node3&#45;&gt;Node10 -->
<g id="edge51" class="edge"><title>Node3&#45;&gt;Node10</title>
<path fill="none" stroke="midnightblue" d="M776.39,-330.451C806.559,-323.813 845.921,-312.426 877,-294 934.873,-259.688 946.805,-241.942 981,-184 1010.56,-133.911 1035.44,-103.277 1003,-55 991.934,-38.5296 973.586,-28.1515 955.071,-21.6137"/>
<polygon fill="midnightblue" stroke="midnightblue" points="956.002,-18.2369 945.411,-18.533 953.875,-24.906 956.002,-18.2369"/>
</g>
<!-- Node12 -->
<g id="node13" class="node"><title>Node12</title>
<g id="a_node13"><a xlink:href="vtkvmtkNeighborhoods_8h.html" target="_top" xlink:title="vtkvmtkNeighborhoods.h">
<polygon fill="white" stroke="black" points="552.973,-220.5 552.973,-238.5 679.027,-238.5 679.027,-220.5 552.973,-220.5"/>
<text text-anchor="middle" x="616" y="-226.5" font-family="Helvetica,sans-Serif" font-size="10.00">vtkvmtkNeighborhoods.h</text>
</a>
</g>
</g>
<!-- Node3&#45;&gt;Node12 -->
<g id="edge24" class="edge"><title>Node3&#45;&gt;Node12</title>
<path fill="none" stroke="midnightblue" d="M721.431,-330.382C702.45,-312.4 656.607,-268.969 632.094,-245.747"/>
<polygon fill="midnightblue" stroke="midnightblue" points="634.335,-243.048 624.668,-238.712 629.52,-248.13 634.335,-243.048"/>
</g>
<!-- Node15 -->
<g id="node16" class="node"><title>Node15</title>
<g id="a_node16"><a xlink:href="vtkvmtkStencils_8h.html" target="_top" xlink:title="vtkvmtkStencils.h">
<polygon fill="white" stroke="black" points="440.379,-275.5 440.379,-293.5 533.621,-293.5 533.621,-275.5 440.379,-275.5"/>
<text text-anchor="middle" x="487" y="-281.5" font-family="Helvetica,sans-Serif" font-size="10.00">vtkvmtkStencils.h</text>
</a>
</g>
</g>
<!-- Node3&#45;&gt;Node15 -->
<g id="edge39" class="edge"><title>Node3&#45;&gt;Node15</title>
<path fill="none" stroke="midnightblue" d="M693.094,-330.45C650.419,-321.143 580.104,-305.807 533.67,-295.679"/>
<polygon fill="midnightblue" stroke="midnightblue" points="534.371,-292.25 523.855,-293.538 532.879,-299.089 534.371,-292.25"/>
</g>
<!-- Node3&#45;&gt;Node16 -->
<g id="edge46" class="edge"><title>Node3&#45;&gt;Node16</title>
<path fill="none" stroke="midnightblue" d="M786.803,-330.45C853.997,-320.928 965.718,-305.096 1037.05,-294.987"/>
<polygon fill="midnightblue" stroke="midnightblue" points="1037.87,-298.407 1047.28,-293.538 1036.88,-291.476 1037.87,-298.407"/>
</g>
<!-- Node4&#45;&gt;Node1 -->
<g id="edge6" class="edge"><title>Node4&#45;&gt;Node1</title>
<path fill="none" stroke="midnightblue" d="M806.624,-275.246C821.831,-255.228 856.348,-202.955 835,-165 766.266,-42.7955 579.245,-17.1226 494.17,-11.8233"/>
<polygon fill="midnightblue" stroke="midnightblue" points="494.252,-8.32256 484.073,-11.261 493.863,-15.3117 494.252,-8.32256"/>
</g>
<!-- Node5 -->
<g id="node6" class="node"><title>Node5</title>
<g id="a_node6"><a xlink:href="vtkvmtkStencil_8h.html" target="_top" xlink:title="vtkvmtkStencil.h">
<polygon fill="white" stroke="black" points="700.879,-220.5 700.879,-238.5 789.121,-238.5 789.121,-220.5 700.879,-220.5"/>
<text text-anchor="middle" x="745" y="-226.5" font-family="Helvetica,sans-Serif" font-size="10.00">vtkvmtkStencil.h</text>
</a>
</g>
</g>
<!-- Node4&#45;&gt;Node5 -->
<g id="edge7" class="edge"><title>Node4&#45;&gt;Node5</title>
<path fill="none" stroke="midnightblue" d="M791.406,-275.219C783.205,-267.316 770.657,-255.224 760.676,-245.606"/>
<polygon fill="midnightblue" stroke="midnightblue" points="762.983,-242.968 753.353,-238.55 758.125,-248.009 762.983,-242.968"/>
</g>
<!-- Node6 -->
<g id="node7" class="node"><title>Node6</title>
<g id="a_node7"><a xlink:href="vtkvmtkNeighborhood_8h.html" target="_top" xlink:title="vtkvmtkNeighborhood.h">
<polygon fill="white" stroke="black" points="704.473,-165.5 704.473,-183.5 825.527,-183.5 825.527,-165.5 704.473,-165.5"/>
<text text-anchor="middle" x="765" y="-171.5" font-family="Helvetica,sans-Serif" font-size="10.00">vtkvmtkNeighborhood.h</text>
</a>
</g>
</g>
<!-- Node4&#45;&gt;Node6 -->
<g id="edge21" class="edge"><title>Node4&#45;&gt;Node6</title>
<path fill="none" stroke="midnightblue" d="M801.249,-275.402C802.824,-263.056 804.596,-238.96 798,-220 794.333,-209.459 787.211,-199.332 780.519,-191.409"/>
<polygon fill="midnightblue" stroke="midnightblue" points="782.911,-188.835 773.61,-183.761 777.716,-193.528 782.911,-188.835"/>
</g>
<!-- Node4&#45;&gt;Node10 -->
<g id="edge23" class="edge"><title>Node4&#45;&gt;Node10</title>
<path fill="none" stroke="midnightblue" d="M831.993,-275.388C854.676,-268.468 884.89,-256.773 907,-239 953.511,-201.611 966.059,-185.916 984,-129 993.888,-97.6326 1001.35,-82.9384 984,-55 974.159,-39.1566 956.822,-28.7832 939.974,-22.0751"/>
<polygon fill="midnightblue" stroke="midnightblue" points="940.765,-18.6397 930.171,-18.5353 938.388,-25.2236 940.765,-18.6397"/>
</g>
<!-- Node11 -->
<g id="node12" class="node"><title>Node11</title>
<g id="a_node12"><a xlink:href="vtkvmtkConstants_8h.html" target="_top" xlink:title="vtkvmtkConstants.h">
<polygon fill="white" stroke="black" points="468.375,-165.5 468.375,-183.5 571.625,-183.5 571.625,-165.5 468.375,-165.5"/>
<text text-anchor="middle" x="520" y="-171.5" font-family="Helvetica,sans-Serif" font-size="10.00">vtkvmtkConstants.h</text>
</a>
</g>
</g>
<!-- Node4&#45;&gt;Node11 -->
<g id="edge22" class="edge"><title>Node4&#45;&gt;Node11</title>
<path fill="none" stroke="midnightblue" d="M731.659,-279.197C665.735,-273.737 571.946,-262.101 544,-239 530.525,-227.861 524.608,-208.309 522.014,-193.835"/>
<polygon fill="midnightblue" stroke="midnightblue" points="525.429,-192.985 520.566,-183.573 518.498,-193.964 525.429,-192.985"/>
</g>
<!-- Node5&#45;&gt;Node1 -->
<g id="edge8" class="edge"><title>Node5&#45;&gt;Node1</title>
<path fill="none" stroke="midnightblue" d="M724.839,-220.496C680.494,-202.519 576.558,-158.232 553,-129 531.622,-102.473 554.124,-81.7298 533,-55 521.163,-40.0213 502.843,-29.4022 486.519,-22.3035"/>
<polygon fill="midnightblue" stroke="midnightblue" points="487.785,-19.04 477.203,-18.5243 485.154,-25.5267 487.785,-19.04"/>
</g>
<!-- Node5&#45;&gt;Node6 -->
<g id="edge9" class="edge"><title>Node5&#45;&gt;Node6</title>
<path fill="none" stroke="midnightblue" d="M748.125,-220.219C750.871,-212.942 754.957,-202.113 758.421,-192.934"/>
<polygon fill="midnightblue" stroke="midnightblue" points="761.706,-194.141 761.962,-183.55 755.157,-191.67 761.706,-194.141"/>
</g>
<!-- Node5&#45;&gt;Node10 -->
<g id="edge20" class="edge"><title>Node5&#45;&gt;Node10</title>
<path fill="none" stroke="midnightblue" d="M774.631,-220.382C794.23,-213.607 819.144,-202.089 835,-184 875.321,-138 888.356,-63.2313 892.348,-28.8535"/>
<polygon fill="midnightblue" stroke="midnightblue" points="895.835,-29.1498 893.381,-18.8433 888.872,-28.431 895.835,-29.1498"/>
</g>
<!-- Node6&#45;&gt;Node1 -->
<g id="edge10" class="edge"><title>Node6&#45;&gt;Node1</title>
<path fill="none" stroke="midnightblue" d="M757.949,-165.467C738.719,-144.074 682.853,-85.2914 624,-55 582.716,-33.7509 530.547,-22.1357 494.347,-16.1538"/>
<polygon fill="midnightblue" stroke="midnightblue" points="494.542,-12.6415 484.12,-14.5432 493.453,-19.5563 494.542,-12.6415"/>
</g>
<!-- Node7 -->
<g id="node8" class="node"><title>Node7</title>
<g id="a_node8"><a xlink:href="vtkvmtkDataSetItem_8h.html" target="_top" xlink:title="vtkvmtkDataSetItem.h">
<polygon fill="white" stroke="black" points="562.096,-110.5 562.096,-128.5 675.904,-128.5 675.904,-110.5 562.096,-110.5"/>
<text text-anchor="middle" x="619" y="-116.5" font-family="Helvetica,sans-Serif" font-size="10.00">vtkvmtkDataSetItem.h</text>
</a>
</g>
</g>
<!-- Node6&#45;&gt;Node7 -->
<g id="edge11" class="edge"><title>Node6&#45;&gt;Node7</title>
<path fill="none" stroke="midnightblue" d="M742.826,-165.45C718.386,-156.578 678.857,-142.229 651.048,-132.134"/>
<polygon fill="midnightblue" stroke="midnightblue" points="651.977,-128.748 641.383,-128.625 649.588,-135.328 651.977,-128.748"/>
</g>
<!-- Node6&#45;&gt;Node10 -->
<g id="edge19" class="edge"><title>Node6&#45;&gt;Node10</title>
<path fill="none" stroke="midnightblue" d="M771.574,-165.193C791.935,-139.466 854.2,-60.7905 881.241,-26.6216"/>
<polygon fill="midnightblue" stroke="midnightblue" points="884.131,-28.6106 887.592,-18.5971 878.642,-24.2665 884.131,-28.6106"/>
</g>
<!-- Node7&#45;&gt;Node1 -->
<g id="edge12" class="edge"><title>Node7&#45;&gt;Node1</title>
<path fill="none" stroke="midnightblue" d="M619.504,-110.279C619.855,-96.8742 618.513,-70.274 604,-55 575.766,-25.2857 528.96,-15.0608 494.539,-11.7188"/>
<polygon fill="midnightblue" stroke="midnightblue" points="494.538,-8.20742 484.288,-10.8887 493.973,-15.1846 494.538,-8.20742"/>
</g>
<!-- Node8 -->
<g id="node9" class="node"><title>Node8</title>
<g id="a_node9"><a xlink:href="vtkvmtkItem_8h.html" target="_top" xlink:title="vtkvmtkItem.h">
<polygon fill="white" stroke="black" points="446.163,-55.5 446.163,-73.5 523.837,-73.5 523.837,-55.5 446.163,-55.5"/>
<text text-anchor="middle" x="485" y="-61.5" font-family="Helvetica,sans-Serif" font-size="10.00">vtkvmtkItem.h</text>
</a>
</g>
</g>
<!-- Node7&#45;&gt;Node8 -->
<g id="edge13" class="edge"><title>Node7&#45;&gt;Node8</title>
<path fill="none" stroke="midnightblue" d="M598.648,-110.45C576.414,-101.656 540.572,-87.4802 515.088,-77.4006"/>
<polygon fill="midnightblue" stroke="midnightblue" points="516.13,-74.0487 505.543,-73.6253 513.555,-80.558 516.13,-74.0487"/>
</g>
<!-- Node7&#45;&gt;Node9 -->
<g id="edge17" class="edge"><title>Node7&#45;&gt;Node9</title>
<path fill="none" stroke="midnightblue" d="M584.281,-110.471C500.847,-91.1755 289.15,-42.2177 196.532,-20.7985"/>
<polygon fill="midnightblue" stroke="midnightblue" points="197.162,-17.352 186.631,-18.5088 195.585,-24.172 197.162,-17.352"/>
</g>
<!-- Node7&#45;&gt;Node10 -->
<g id="edge18" class="edge"><title>Node7&#45;&gt;Node10</title>
<path fill="none" stroke="midnightblue" d="M630.558,-110.367C649.896,-97.0876 690.397,-70.6643 728,-55 764.942,-39.6112 808.741,-28.1324 842.071,-20.6907"/>
<polygon fill="midnightblue" stroke="midnightblue" points="843.036,-24.0626 852.06,-18.5109 841.543,-17.2235 843.036,-24.0626"/>
</g>
<!-- Node8&#45;&gt;Node1 -->
<g id="edge14" class="edge"><title>Node8&#45;&gt;Node1</title>
<path fill="none" stroke="midnightblue" d="M479.688,-55.2188C474.869,-47.7074 467.622,-36.411 461.618,-27.0515"/>
<polygon fill="midnightblue" stroke="midnightblue" points="464.509,-25.0767 456.164,-18.5496 458.618,-28.8564 464.509,-25.0767"/>
</g>
<!-- Node8&#45;&gt;Node9 -->
<g id="edge15" class="edge"><title>Node8&#45;&gt;Node9</title>
<path fill="none" stroke="midnightblue" d="M446.149,-57.3165C384.672,-47.5318 265.169,-28.5119 198.973,-17.9762"/>
<polygon fill="midnightblue" stroke="midnightblue" points="199.249,-14.4762 188.823,-16.3608 198.149,-21.3892 199.249,-14.4762"/>
</g>
<!-- Node8&#45;&gt;Node10 -->
<g id="edge16" class="edge"><title>Node8&#45;&gt;Node10</title>
<path fill="none" stroke="midnightblue" d="M524.051,-57.0798C528.748,-56.3542 533.479,-55.6448 538,-55 637.178,-40.8528 752.259,-26.9167 824.111,-18.5108"/>
<polygon fill="midnightblue" stroke="midnightblue" points="824.864,-21.9467 834.391,-17.3113 824.053,-14.9939 824.864,-21.9467"/>
</g>
<!-- Node12&#45;&gt;Node1 -->
<g id="edge25" class="edge"><title>Node12&#45;&gt;Node1</title>
<path fill="none" stroke="midnightblue" d="M613.081,-220.2C608.157,-207.151 597.135,-181.617 581,-165 528.259,-110.685 472.817,-140.7 437,-74 429.254,-59.5754 434.778,-41.1141 441.023,-27.8195"/>
<polygon fill="midnightblue" stroke="midnightblue" points="444.2,-29.2964 445.73,-18.8127 437.996,-26.0538 444.2,-29.2964"/>
</g>
<!-- Node12&#45;&gt;Node6 -->
<g id="edge36" class="edge"><title>Node12&#45;&gt;Node6</title>
<path fill="none" stroke="midnightblue" d="M638.63,-220.45C663.681,-211.539 704.267,-197.103 732.666,-187.001"/>
<polygon fill="midnightblue" stroke="midnightblue" points="733.908,-190.274 742.157,-183.625 731.562,-183.679 733.908,-190.274"/>
</g>
<!-- Node12&#45;&gt;Node9 -->
<g id="edge37" class="edge"><title>Node12&#45;&gt;Node9</title>
<path fill="none" stroke="midnightblue" d="M552.708,-228.471C491.465,-226.275 397.26,-217.077 323,-184 252.615,-152.649 238.962,-132.658 189,-74 176.869,-59.7578 166.497,-40.9992 159.848,-27.5698"/>
<polygon fill="midnightblue" stroke="midnightblue" points="162.986,-26.0205 155.521,-18.5022 156.669,-29.0348 162.986,-26.0205"/>
</g>
<!-- Node12&#45;&gt;Node10 -->
<g id="edge38" class="edge"><title>Node12&#45;&gt;Node10</title>
<path fill="none" stroke="midnightblue" d="M626.182,-220.225C641.186,-208.052 670.146,-184.635 695,-165 760.811,-113.01 839.68,-52.2233 875.123,-24.9861"/>
<polygon fill="midnightblue" stroke="midnightblue" points="877.366,-27.6771 883.164,-18.81 873.102,-22.1257 877.366,-27.6771"/>
</g>
<!-- Node12&#45;&gt;Node11 -->
<g id="edge26" class="edge"><title>Node12&#45;&gt;Node11</title>
<path fill="none" stroke="midnightblue" d="M601.42,-220.45C586.054,-211.968 561.619,-198.477 543.522,-188.486"/>
<polygon fill="midnightblue" stroke="midnightblue" points="545.164,-185.394 534.718,-183.625 541.78,-191.523 545.164,-185.394"/>
</g>
<!-- Node13 -->
<g id="node14" class="node"><title>Node13</title>
<g id="a_node14"><a xlink:href="vtkvmtkDataSetItems_8h.html" target="_top" xlink:title="vtkvmtkDataSetItems.h">
<polygon fill="white" stroke="black" points="331.596,-165.5 331.596,-183.5 450.404,-183.5 450.404,-165.5 331.596,-165.5"/>
<text text-anchor="middle" x="391" y="-171.5" font-family="Helvetica,sans-Serif" font-size="10.00">vtkvmtkDataSetItems.h</text>
</a>
</g>
</g>
<!-- Node12&#45;&gt;Node13 -->
<g id="edge27" class="edge"><title>Node12&#45;&gt;Node13</title>
<path fill="none" stroke="midnightblue" d="M581.827,-220.45C542.562,-211.201 478.026,-195.999 435.027,-185.871"/>
<polygon fill="midnightblue" stroke="midnightblue" points="435.661,-182.424 425.125,-183.538 434.056,-189.238 435.661,-182.424"/>
</g>
<!-- Node13&#45;&gt;Node1 -->
<g id="edge28" class="edge"><title>Node13&#45;&gt;Node1</title>
<path fill="none" stroke="midnightblue" d="M382.615,-165.2C371.725,-153.374 354.799,-130.798 361,-110 372.105,-72.7564 406.966,-41.7937 429.899,-24.7454"/>
<polygon fill="midnightblue" stroke="midnightblue" points="432.23,-27.381 438.318,-18.7097 428.151,-21.692 432.23,-27.381"/>
</g>
<!-- Node13&#45;&gt;Node9 -->
<g id="edge34" class="edge"><title>Node13&#45;&gt;Node9</title>
<path fill="none" stroke="midnightblue" d="M372.891,-165.443C339.649,-150.208 267.407,-115.001 214,-74 195.377,-59.7034 176.958,-39.9291 165.098,-26.2629"/>
<polygon fill="midnightblue" stroke="midnightblue" points="167.764,-23.9948 158.618,-18.6467 162.432,-28.531 167.764,-23.9948"/>
</g>
<!-- Node13&#45;&gt;Node10 -->
<g id="edge35" class="edge"><title>Node13&#45;&gt;Node10</title>
<path fill="none" stroke="midnightblue" d="M449.889,-165.48C532.642,-154.081 674.488,-134.016 685,-129 729.007,-108 724.113,-79.9623 766,-55 791.782,-39.6359 823.652,-28.5341 849.142,-21.2617"/>
<polygon fill="midnightblue" stroke="midnightblue" points="850.215,-24.5967 858.926,-18.5671 848.356,-17.848 850.215,-24.5967"/>
</g>
<!-- Node14 -->
<g id="node15" class="node"><title>Node14</title>
<g id="a_node15"><a xlink:href="vtkvmtkItems_8h.html" target="_top" xlink:title="vtkvmtkItems.h">
<polygon fill="white" stroke="black" points="369.663,-110.5 369.663,-128.5 452.337,-128.5 452.337,-110.5 369.663,-110.5"/>
<text text-anchor="middle" x="411" y="-116.5" font-family="Helvetica,sans-Serif" font-size="10.00">vtkvmtkItems.h</text>
</a>
</g>
</g>
<!-- Node13&#45;&gt;Node14 -->
<g id="edge29" class="edge"><title>Node13&#45;&gt;Node14</title>
<path fill="none" stroke="midnightblue" d="M394.125,-165.219C396.871,-157.942 400.957,-147.113 404.421,-137.934"/>
<polygon fill="midnightblue" stroke="midnightblue" points="407.706,-139.141 407.962,-128.55 401.157,-136.67 407.706,-139.141"/>
</g>
<!-- Node14&#45;&gt;Node1 -->
<g id="edge30" class="edge"><title>Node14&#45;&gt;Node1</title>
<path fill="none" stroke="midnightblue" d="M407.583,-110.298C402.925,-97.8145 396.021,-73.542 404,-55 409.222,-42.8654 419.559,-32.4913 429.213,-24.8198"/>
<polygon fill="midnightblue" stroke="midnightblue" points="431.406,-27.5512 437.375,-18.7975 427.25,-21.9186 431.406,-27.5512"/>
</g>
<!-- Node14&#45;&gt;Node8 -->
<g id="edge31" class="edge"><title>Node14&#45;&gt;Node8</title>
<path fill="none" stroke="midnightblue" d="M422.239,-110.45C433.648,-102.279 451.546,-89.4604 465.314,-79.5996"/>
<polygon fill="midnightblue" stroke="midnightblue" points="467.563,-82.2936 473.655,-73.6253 463.487,-76.6027 467.563,-82.2936"/>
</g>
<!-- Node14&#45;&gt;Node9 -->
<g id="edge32" class="edge"><title>Node14&#45;&gt;Node9</title>
<path fill="none" stroke="midnightblue" d="M370.003,-110.498C337.201,-103.282 290.487,-91.156 252,-74 221.839,-60.5552 190.172,-38.9945 170.754,-24.7883"/>
<polygon fill="midnightblue" stroke="midnightblue" points="172.618,-21.8125 162.505,-18.6535 168.441,-27.4295 172.618,-21.8125"/>
</g>
<!-- Node14&#45;&gt;Node10 -->
<g id="edge33" class="edge"><title>Node14&#45;&gt;Node10</title>
<path fill="none" stroke="midnightblue" d="M445.387,-110.421C497.565,-98.2004 599.89,-74.3831 687,-55 741.363,-42.9037 803.882,-29.5387 845.863,-20.6435"/>
<polygon fill="midnightblue" stroke="midnightblue" points="846.754,-24.0326 855.812,-18.5376 845.304,-17.1843 846.754,-24.0326"/>
</g>
<!-- Node15&#45;&gt;Node1 -->
<g id="edge40" class="edge"><title>Node15&#45;&gt;Node1</title>
<path fill="none" stroke="midnightblue" d="M440.348,-276.647C386.13,-265.737 304,-238.768 304,-175.5 304,-175.5 304,-175.5 304,-118.5 304,-65.9104 365.857,-36.1032 409.32,-21.6507"/>
<polygon fill="midnightblue" stroke="midnightblue" points="410.628,-24.9075 419.103,-18.5493 408.513,-18.2347 410.628,-24.9075"/>
</g>
<!-- Node15&#45;&gt;Node5 -->
<g id="edge43" class="edge"><title>Node15&#45;&gt;Node5</title>
<path fill="none" stroke="midnightblue" d="M526.185,-275.45C571.683,-266.104 646.775,-250.678 696.068,-240.552"/>
<polygon fill="midnightblue" stroke="midnightblue" points="696.779,-243.979 705.87,-238.538 695.37,-237.122 696.779,-243.979"/>
</g>
<!-- Node15&#45;&gt;Node9 -->
<g id="edge44" class="edge"><title>Node15&#45;&gt;Node9</title>
<path fill="none" stroke="midnightblue" d="M440.363,-278.142C405.279,-272.496 357.074,-261.189 320,-239 235.472,-188.408 218.833,-160.667 172,-74 164.265,-59.6863 158.99,-41.9144 155.807,-28.8152"/>
<polygon fill="midnightblue" stroke="midnightblue" points="159.145,-27.7024 153.54,-18.7111 152.314,-29.2347 159.145,-27.7024"/>
</g>
<!-- Node15&#45;&gt;Node10 -->
<g id="edge45" class="edge"><title>Node15&#45;&gt;Node10</title>
<path fill="none" stroke="midnightblue" d="M533.799,-280.292C608.853,-274.569 752.336,-261.086 798,-239 875.824,-201.36 889.525,-159.684 901,-74 903.05,-58.6958 900.8,-41.2574 898.321,-28.5322"/>
<polygon fill="midnightblue" stroke="midnightblue" points="901.735,-27.7601 896.185,-18.7349 894.895,-29.2509 901.735,-27.7601"/>
</g>
<!-- Node15&#45;&gt;Node11 -->
<g id="edge41" class="edge"><title>Node15&#45;&gt;Node11</title>
<path fill="none" stroke="midnightblue" d="M489.48,-275.382C494.76,-258.104 507.219,-217.329 514.481,-193.563"/>
<polygon fill="midnightblue" stroke="midnightblue" points="517.916,-194.298 517.491,-183.712 511.221,-192.252 517.916,-194.298"/>
</g>
<!-- Node15&#45;&gt;Node13 -->
<g id="edge42" class="edge"><title>Node15&#45;&gt;Node13</title>
<path fill="none" stroke="midnightblue" d="M479.784,-275.382C463.939,-257.557 425.865,-214.723 405.095,-191.357"/>
<polygon fill="midnightblue" stroke="midnightblue" points="407.559,-188.861 398.299,-183.712 402.327,-193.511 407.559,-188.861"/>
</g>
<!-- Node16&#45;&gt;Node1 -->
<g id="edge47" class="edge"><title>Node16&#45;&gt;Node1</title>
<path fill="none" stroke="midnightblue" d="M1094.16,-275.336C1053.1,-241.729 890.151,-113.126 733,-55 652.04,-25.0547 550.719,-15.258 494.212,-12.0547"/>
<polygon fill="midnightblue" stroke="midnightblue" points="494.366,-8.55805 484.197,-11.5299 494,-15.5485 494.366,-8.55805"/>
</g>
<!-- Node16&#45;&gt;Node10 -->
<g id="edge49" class="edge"><title>Node16&#45;&gt;Node10</title>
<path fill="none" stroke="midnightblue" d="M1101.47,-275.465C1096.09,-257.659 1084,-213.447 1084,-175.5 1084,-175.5 1084,-175.5 1084,-118.5 1084,-88.3293 1082.37,-75.2472 1060,-55 1033.84,-31.3193 996.422,-20.0212 963.731,-14.7187"/>
<polygon fill="midnightblue" stroke="midnightblue" points="964.157,-11.2438 953.756,-13.2585 963.143,-18.17 964.157,-11.2438"/>
</g>
<!-- Node17 -->
<g id="node18" class="node"><title>Node17</title>
<polygon fill="white" stroke="#bfbfbf" points="1112.3,-220.5 1112.3,-238.5 1193.7,-238.5 1193.7,-220.5 1112.3,-220.5"/>
<text text-anchor="middle" x="1153" y="-226.5" font-family="Helvetica,sans-Serif" font-size="10.00">vtkDataArray.h</text>
</g>
<!-- Node16&#45;&gt;Node17 -->
<g id="edge48" class="edge"><title>Node16&#45;&gt;Node17</title>
<path fill="none" stroke="midnightblue" d="M1111.66,-275.219C1118.82,-267.473 1129.7,-255.701 1138.5,-246.18"/>
<polygon fill="midnightblue" stroke="midnightblue" points="1141.34,-248.268 1145.56,-238.55 1136.2,-243.516 1141.34,-248.268"/>
</g>
</g>
</svg>
