<?xml version="1.0" encoding="UTF-8" standalone="no"?>
<!DOCTYPE svg PUBLIC "-//W3C//DTD SVG 1.1//EN"
 "http://www.w3.org/Graphics/SVG/1.1/DTD/svg11.dtd">
<!-- Generated by graphviz version 2.38.0 (20140413.2041)
 -->
<!-- Title: vtkvmtkSparseMatrix.h Pages: 1 -->
<!--zoomable 357 -->
<svg id="main" version="1.1" xmlns="http://www.w3.org/2000/svg" xmlns:xlink="http://www.w3.org/1999/xlink" xml:space="preserve" onload="init(evt)">
<style type="text/css"><![CDATA[
.edge:hover path { stroke: red; }
.edge:hover polygon { stroke: red; fill: red; }
]]></style>
<script type="text/javascript"><![CDATA[
var edges = document.getElementsByTagName('g');
if (edges && edges.length) {
  for (var i=0;i<edges.length;i++) {
    if (edges[i].id.substr(0,4)=='edge') {
      edges[i].setAttribute('class','edge');
    }
  }
}
]]></script>
        <defs>
                <circle id="rim" cx="0" cy="0" r="7"/>
                <circle id="rim2" cx="0" cy="0" r="3.5"/>
                <g id="zoomPlus">
                        <use xlink:href="#rim" fill="#404040">
                                <set attributeName="fill" to="#808080" begin="zoomplus.mouseover" end="zoomplus.mouseout"/>
                        </use>
                        <path d="M-4,0h8M0,-4v8" fill="none" stroke="white" stroke-width="1.5" pointer-events="none"/>
                </g>
                <g id="zoomMin">
                        <use xlink:href="#rim" fill="#404040">
                                <set attributeName="fill" to="#808080" begin="zoomminus.mouseover" end="zoomminus.mouseout"/>
                        </use>
                        <path d="M-4,0h8" fill="none" stroke="white" stroke-width="1.5" pointer-events="none"/>
                </g>
                <g id="dirArrow">
                        <path fill="none" stroke="white" stroke-width="1.5" d="M0,-3.0v7 M-2.5,-0.5L0,-3.0L2.5,-0.5"/>
                </g>
               <g id="resetDef">
                       <use xlink:href="#rim2" fill="#404040">
                               <set attributeName="fill" to="#808080" begin="reset.mouseover" end="reset.mouseout"/>
                       </use>
               </g>
        </defs>

<script type="text/javascript">
var viewWidth = 1115;
var viewHeight = 357;
var sectionId = 'dynsection-0';
</script>
<script xlink:href="svgpan.js"/>
<svg id="graph" class="graph">
<g id="viewport">
<title>vtkvmtkSparseMatrix.h</title>
<polygon fill="white" stroke="none" points="-4,4 -4,-353 1110.78,-353 1110.78,4 -4,4"/>
<!-- Node0 -->
<g id="node1" class="node"><title>Node0</title>
<polygon fill="#bfbfbf" stroke="black" points="493.434,-330.5 493.434,-348.5 610.566,-348.5 610.566,-330.5 493.434,-330.5"/>
<text text-anchor="middle" x="552" y="-336.5" font-family="Helvetica,sans-Serif" font-size="10.00">vtkvmtkSparseMatrix.h</text>
</g>
<!-- Node1 -->
<g id="node2" class="node"><title>Node1</title>
<polygon fill="white" stroke="#bfbfbf" points="413.99,-0.5 413.99,-18.5 480.01,-18.5 480.01,-0.5 413.99,-0.5"/>
<text text-anchor="middle" x="447" y="-6.5" font-family="Helvetica,sans-Serif" font-size="10.00">vtkObject.h</text>
</g>
<!-- Node0&#45;&gt;Node1 -->
<g id="edge1" class="edge"><title>Node0&#45;&gt;Node1</title>
<path fill="none" stroke="midnightblue" d="M493.408,-334.875C382.304,-326.386 152,-300.363 152,-230.5 152,-230.5 152,-230.5 152,-118.5 152,-65.5436 321.752,-30.7831 403.718,-17.0855"/>
<polygon fill="midnightblue" stroke="midnightblue" points="404.431,-20.5154 413.733,-15.4437 403.299,-13.6076 404.431,-20.5154"/>
</g>
<!-- Node2 -->
<g id="node3" class="node"><title>Node2</title>
<g id="a_node3"><a xlink:href="vtkvmtkSparseMatrixRow_8h.html" target="_top" xlink:title="vtkvmtkSparseMatrixRow.h">
<polygon fill="white" stroke="black" points="723.705,-275.5 723.705,-293.5 860.295,-293.5 860.295,-275.5 723.705,-275.5"/>
<text text-anchor="middle" x="792" y="-281.5" font-family="Helvetica,sans-Serif" font-size="10.00">vtkvmtkSparseMatrixRow.h</text>
</a>
</g>
</g>
<!-- Node0&#45;&gt;Node2 -->
<g id="edge2" class="edge"><title>Node0&#45;&gt;Node2</title>
<path fill="none" stroke="midnightblue" d="M588.451,-330.45C630.51,-321.162 699.754,-305.871 745.617,-295.743"/>
<polygon fill="midnightblue" stroke="midnightblue" points="746.59,-299.112 755.6,-293.538 745.081,-292.277 746.59,-299.112"/>
</g>
<!-- Node7 -->
<g id="node8" class="node"><title>Node7</title>
<polygon fill="white" stroke="#bfbfbf" points="77.3745,-0.5 77.3745,-18.5 150.625,-18.5 150.625,-0.5 77.3745,-0.5"/>
<text text-anchor="middle" x="114" y="-6.5" font-family="Helvetica,sans-Serif" font-size="10.00">vtkDataSet.h</text>
</g>
<!-- Node0&#45;&gt;Node7 -->
<g id="edge47" class="edge"><title>Node0&#45;&gt;Node7</title>
<path fill="none" stroke="midnightblue" d="M493.188,-339.27C350.955,-339.556 0,-330.164 0,-230.5 0,-230.5 0,-230.5 0,-118.5 0,-71.9745 50.6593,-39.4854 84.4371,-22.994"/>
<polygon fill="midnightblue" stroke="midnightblue" points="86.3042,-25.9848 93.8815,-18.5797 83.3402,-19.6433 86.3042,-25.9848"/>
</g>
<!-- Node8 -->
<g id="node9" class="node"><title>Node8</title>
<polygon fill="white" stroke="#bfbfbf" points="758.589,-0.5 758.589,-18.5 877.411,-18.5 877.411,-0.5 758.589,-0.5"/>
<text text-anchor="middle" x="818" y="-6.5" font-family="Helvetica,sans-Serif" font-size="10.00">vtkvmtkWin32Header.h</text>
</g>
<!-- Node0&#45;&gt;Node8 -->
<g id="edge48" class="edge"><title>Node0&#45;&gt;Node8</title>
<path fill="none" stroke="midnightblue" d="M610.763,-339.313C753.342,-339.709 1106,-330.573 1106,-230.5 1106,-230.5 1106,-230.5 1106,-118.5 1106,-89.0415 1109.11,-74.4688 1087,-55 1058.09,-29.5433 957.223,-18.469 887.572,-13.7789"/>
<polygon fill="midnightblue" stroke="midnightblue" points="887.738,-10.2824 877.534,-13.1322 887.288,-17.2679 887.738,-10.2824"/>
</g>
<!-- Node10 -->
<g id="node11" class="node"><title>Node10</title>
<g id="a_node11"><a xlink:href="vtkvmtkNeighborhoods_8h.html" target="_top" xlink:title="vtkvmtkNeighborhoods.h">
<polygon fill="white" stroke="black" points="405.973,-220.5 405.973,-238.5 532.027,-238.5 532.027,-220.5 405.973,-220.5"/>
<text text-anchor="middle" x="469" y="-226.5" font-family="Helvetica,sans-Serif" font-size="10.00">vtkvmtkNeighborhoods.h</text>
</a>
</g>
</g>
<!-- Node0&#45;&gt;Node10 -->
<g id="edge21" class="edge"><title>Node0&#45;&gt;Node10</title>
<path fill="none" stroke="midnightblue" d="M551.284,-330.325C549.803,-317.449 545.422,-292.146 533,-275 523.416,-261.772 508.642,-251.125 495.703,-243.566"/>
<polygon fill="midnightblue" stroke="midnightblue" points="497.154,-240.37 486.706,-238.615 493.779,-246.503 497.154,-240.37"/>
</g>
<!-- Node13 -->
<g id="node14" class="node"><title>Node13</title>
<g id="a_node14"><a xlink:href="vtkvmtkStencils_8h.html" target="_top" xlink:title="vtkvmtkStencils.h">
<polygon fill="white" stroke="black" points="430.379,-275.5 430.379,-293.5 523.621,-293.5 523.621,-275.5 430.379,-275.5"/>
<text text-anchor="middle" x="477" y="-281.5" font-family="Helvetica,sans-Serif" font-size="10.00">vtkvmtkStencils.h</text>
</a>
</g>
</g>
<!-- Node0&#45;&gt;Node13 -->
<g id="edge36" class="edge"><title>Node0&#45;&gt;Node13</title>
<path fill="none" stroke="midnightblue" d="M540.609,-330.45C529.045,-322.279 510.906,-309.46 496.952,-299.6"/>
<polygon fill="midnightblue" stroke="midnightblue" points="498.685,-296.538 488.498,-293.625 494.645,-302.255 498.685,-296.538"/>
</g>
<!-- Node14 -->
<g id="node15" class="node"><title>Node14</title>
<g id="a_node15"><a xlink:href="vtkvmtkDoubleVector_8h.html" target="_top" xlink:title="vtkvmtkDoubleVector.h">
<polygon fill="white" stroke="black" points="960.138,-55.5 960.138,-73.5 1077.86,-73.5 1077.86,-55.5 960.138,-55.5"/>
<text text-anchor="middle" x="1019" y="-61.5" font-family="Helvetica,sans-Serif" font-size="10.00">vtkvmtkDoubleVector.h</text>
</a>
</g>
</g>
<!-- Node0&#45;&gt;Node14 -->
<g id="edge43" class="edge"><title>Node0&#45;&gt;Node14</title>
<path fill="none" stroke="midnightblue" d="M610.827,-336.405C731.332,-330.508 995,-308.673 995,-230.5 995,-230.5 995,-230.5 995,-173.5 995,-141.115 1005.41,-104.539 1012.52,-83.3421"/>
<polygon fill="midnightblue" stroke="midnightblue" points="1015.87,-84.3575 1015.86,-73.7627 1009.26,-82.0509 1015.87,-84.3575"/>
</g>
<!-- Node2&#45;&gt;Node1 -->
<g id="edge3" class="edge"><title>Node2&#45;&gt;Node1</title>
<path fill="none" stroke="midnightblue" d="M795.501,-275.236C803.585,-254.746 821.228,-200.685 799,-165 731.461,-56.573 568.14,-23.914 490.022,-14.336"/>
<polygon fill="midnightblue" stroke="midnightblue" points="490.367,-10.8527 480.031,-13.1807 489.563,-17.8063 490.367,-10.8527"/>
</g>
<!-- Node3 -->
<g id="node4" class="node"><title>Node3</title>
<g id="a_node4"><a xlink:href="vtkvmtkStencil_8h.html" target="_top" xlink:title="vtkvmtkStencil.h">
<polygon fill="white" stroke="black" points="684.879,-220.5 684.879,-238.5 773.121,-238.5 773.121,-220.5 684.879,-220.5"/>
<text text-anchor="middle" x="729" y="-226.5" font-family="Helvetica,sans-Serif" font-size="10.00">vtkvmtkStencil.h</text>
</a>
</g>
</g>
<!-- Node2&#45;&gt;Node3 -->
<g id="edge4" class="edge"><title>Node2&#45;&gt;Node3</title>
<path fill="none" stroke="midnightblue" d="M782.432,-275.45C772.903,-267.434 758.06,-254.947 746.433,-245.166"/>
<polygon fill="midnightblue" stroke="midnightblue" points="748.564,-242.385 738.658,-238.625 744.057,-247.741 748.564,-242.385"/>
</g>
<!-- Node4 -->
<g id="node5" class="node"><title>Node4</title>
<g id="a_node5"><a xlink:href="vtkvmtkNeighborhood_8h.html" target="_top" xlink:title="vtkvmtkNeighborhood.h">
<polygon fill="white" stroke="black" points="668.473,-165.5 668.473,-183.5 789.527,-183.5 789.527,-165.5 668.473,-165.5"/>
<text text-anchor="middle" x="729" y="-171.5" font-family="Helvetica,sans-Serif" font-size="10.00">vtkvmtkNeighborhood.h</text>
</a>
</g>
</g>
<!-- Node2&#45;&gt;Node4 -->
<g id="edge18" class="edge"><title>Node2&#45;&gt;Node4</title>
<path fill="none" stroke="midnightblue" d="M792.469,-275.499C792.848,-262.861 792.101,-237.879 782,-220 774.982,-207.578 763.07,-197.105 752.316,-189.446"/>
<polygon fill="midnightblue" stroke="midnightblue" points="753.948,-186.328 743.686,-183.693 750.065,-192.152 753.948,-186.328"/>
</g>
<!-- Node2&#45;&gt;Node8 -->
<g id="edge20" class="edge"><title>Node2&#45;&gt;Node8</title>
<path fill="none" stroke="midnightblue" d="M837.099,-275.482C860.88,-269.17 888.982,-258.112 908,-239 929.281,-217.613 932,-205.671 932,-175.5 932,-175.5 932,-175.5 932,-118.5 932,-88.3293 928.265,-77.3516 908,-55 894.269,-39.8552 874.23,-29.2471 856.544,-22.1977"/>
<polygon fill="midnightblue" stroke="midnightblue" points="857.608,-18.8591 847.016,-18.6412 855.16,-25.4172 857.608,-18.8591"/>
</g>
<!-- Node9 -->
<g id="node10" class="node"><title>Node9</title>
<g id="a_node10"><a xlink:href="vtkvmtkConstants_8h.html" target="_top" xlink:title="vtkvmtkConstants.h">
<polygon fill="white" stroke="black" points="508.375,-165.5 508.375,-183.5 611.625,-183.5 611.625,-165.5 508.375,-165.5"/>
<text text-anchor="middle" x="560" y="-171.5" font-family="Helvetica,sans-Serif" font-size="10.00">vtkvmtkConstants.h</text>
</a>
</g>
</g>
<!-- Node2&#45;&gt;Node9 -->
<g id="edge19" class="edge"><title>Node2&#45;&gt;Node9</title>
<path fill="none" stroke="midnightblue" d="M768.063,-275.381C744.333,-267.085 707.123,-253.409 676,-239 642.307,-223.401 604.891,-202.17 581.902,-188.647"/>
<polygon fill="midnightblue" stroke="midnightblue" points="583.656,-185.618 573.269,-183.532 580.088,-191.641 583.656,-185.618"/>
</g>
<!-- Node3&#45;&gt;Node1 -->
<g id="edge5" class="edge"><title>Node3&#45;&gt;Node1</title>
<path fill="none" stroke="midnightblue" d="M717.128,-220.422C697.694,-207.455 657.585,-181.755 621,-165 575.764,-144.283 549.048,-165.279 515,-129 491.686,-104.158 512.621,-84.1581 495,-55 487.909,-43.2655 476.839,-32.7071 467.117,-24.823"/>
<polygon fill="midnightblue" stroke="midnightblue" points="469.114,-21.9434 459.054,-18.6205 464.846,-27.4918 469.114,-21.9434"/>
</g>
<!-- Node3&#45;&gt;Node4 -->
<g id="edge6" class="edge"><title>Node3&#45;&gt;Node4</title>
<path fill="none" stroke="midnightblue" d="M729,-220.219C729,-213.177 729,-202.808 729,-193.828"/>
<polygon fill="midnightblue" stroke="midnightblue" points="732.5,-193.55 729,-183.55 725.5,-193.55 732.5,-193.55"/>
</g>
<!-- Node3&#45;&gt;Node8 -->
<g id="edge17" class="edge"><title>Node3&#45;&gt;Node8</title>
<path fill="none" stroke="midnightblue" d="M751.091,-220.453C767.128,-213.399 787.887,-201.508 799,-184 830.085,-135.026 825.305,-62.28 820.916,-28.6985"/>
<polygon fill="midnightblue" stroke="midnightblue" points="824.344,-27.9481 819.44,-18.5568 817.417,-28.9568 824.344,-27.9481"/>
</g>
<!-- Node4&#45;&gt;Node1 -->
<g id="edge7" class="edge"><title>Node4&#45;&gt;Node1</title>
<path fill="none" stroke="midnightblue" d="M719.47,-165.439C704.498,-152.933 674.346,-128.383 647,-110 606.511,-82.7809 595.655,-76.7828 552,-55 527.53,-42.7901 498.899,-30.8013 477.72,-22.3495"/>
<polygon fill="midnightblue" stroke="midnightblue" points="478.851,-19.0332 468.265,-18.6132 476.279,-25.5434 478.851,-19.0332"/>
</g>
<!-- Node5 -->
<g id="node6" class="node"><title>Node5</title>
<g id="a_node6"><a xlink:href="vtkvmtkDataSetItem_8h.html" target="_top" xlink:title="vtkvmtkDataSetItem.h">
<polygon fill="white" stroke="black" points="524.096,-110.5 524.096,-128.5 637.904,-128.5 637.904,-110.5 524.096,-110.5"/>
<text text-anchor="middle" x="581" y="-116.5" font-family="Helvetica,sans-Serif" font-size="10.00">vtkvmtkDataSetItem.h</text>
</a>
</g>
</g>
<!-- Node4&#45;&gt;Node5 -->
<g id="edge8" class="edge"><title>Node4&#45;&gt;Node5</title>
<path fill="none" stroke="midnightblue" d="M706.522,-165.45C681.639,-156.539 641.325,-142.103 613.117,-132.001"/>
<polygon fill="midnightblue" stroke="midnightblue" points="614.284,-128.702 603.69,-128.625 611.924,-135.292 614.284,-128.702"/>
</g>
<!-- Node4&#45;&gt;Node8 -->
<g id="edge16" class="edge"><title>Node4&#45;&gt;Node8</title>
<path fill="none" stroke="midnightblue" d="M735.209,-165.354C747.602,-148.827 775.777,-109.873 794,-74 801.589,-59.0597 808.152,-41.1265 812.487,-28.134"/>
<polygon fill="midnightblue" stroke="midnightblue" points="815.838,-29.1481 815.578,-18.5564 809.176,-26.9979 815.838,-29.1481"/>
</g>
<!-- Node5&#45;&gt;Node1 -->
<g id="edge9" class="edge"><title>Node5&#45;&gt;Node1</title>
<path fill="none" stroke="midnightblue" d="M575.621,-110.242C566.853,-97.2511 548.397,-71.7946 528,-55 512.054,-41.8708 491.663,-30.6931 475.329,-22.8243"/>
<polygon fill="midnightblue" stroke="midnightblue" points="476.787,-19.6424 466.245,-18.5839 473.826,-25.9853 476.787,-19.6424"/>
</g>
<!-- Node6 -->
<g id="node7" class="node"><title>Node6</title>
<g id="a_node7"><a xlink:href="vtkvmtkItem_8h.html" target="_top" xlink:title="vtkvmtkItem.h">
<polygon fill="white" stroke="black" points="408.163,-55.5 408.163,-73.5 485.837,-73.5 485.837,-55.5 408.163,-55.5"/>
<text text-anchor="middle" x="447" y="-61.5" font-family="Helvetica,sans-Serif" font-size="10.00">vtkvmtkItem.h</text>
</a>
</g>
</g>
<!-- Node5&#45;&gt;Node6 -->
<g id="edge10" class="edge"><title>Node5&#45;&gt;Node6</title>
<path fill="none" stroke="midnightblue" d="M560.648,-110.45C538.414,-101.656 502.572,-87.4802 477.088,-77.4006"/>
<polygon fill="midnightblue" stroke="midnightblue" points="478.13,-74.0487 467.543,-73.6253 475.555,-80.558 478.13,-74.0487"/>
</g>
<!-- Node5&#45;&gt;Node7 -->
<g id="edge14" class="edge"><title>Node5&#45;&gt;Node7</title>
<path fill="none" stroke="midnightblue" d="M546.281,-110.471C462.847,-91.1755 251.15,-42.2177 158.532,-20.7985"/>
<polygon fill="midnightblue" stroke="midnightblue" points="159.162,-17.352 148.631,-18.5088 157.585,-24.172 159.162,-17.352"/>
</g>
<!-- Node5&#45;&gt;Node8 -->
<g id="edge15" class="edge"><title>Node5&#45;&gt;Node8</title>
<path fill="none" stroke="midnightblue" d="M598.814,-110.382C640.005,-91.6117 742.048,-45.1111 790.983,-22.8117"/>
<polygon fill="midnightblue" stroke="midnightblue" points="792.655,-25.8961 800.303,-18.5644 789.752,-19.5263 792.655,-25.8961"/>
</g>
<!-- Node6&#45;&gt;Node1 -->
<g id="edge11" class="edge"><title>Node6&#45;&gt;Node1</title>
<path fill="none" stroke="midnightblue" d="M447,-55.2188C447,-48.1769 447,-37.8083 447,-28.8277"/>
<polygon fill="midnightblue" stroke="midnightblue" points="450.5,-28.5495 447,-18.5496 443.5,-28.5496 450.5,-28.5495"/>
</g>
<!-- Node6&#45;&gt;Node7 -->
<g id="edge12" class="edge"><title>Node6&#45;&gt;Node7</title>
<path fill="none" stroke="midnightblue" d="M408.149,-57.3165C346.672,-47.5318 227.169,-28.5119 160.973,-17.9762"/>
<polygon fill="midnightblue" stroke="midnightblue" points="161.249,-14.4762 150.823,-16.3608 160.149,-21.3892 161.249,-14.4762"/>
</g>
<!-- Node6&#45;&gt;Node8 -->
<g id="edge13" class="edge"><title>Node6&#45;&gt;Node8</title>
<path fill="none" stroke="midnightblue" d="M486.002,-57.9282C549.12,-48.9114 674.364,-31.0194 751.687,-19.9733"/>
<polygon fill="midnightblue" stroke="midnightblue" points="752.397,-23.4074 761.802,-18.5283 751.407,-16.4778 752.397,-23.4074"/>
</g>
<!-- Node10&#45;&gt;Node1 -->
<g id="edge22" class="edge"><title>Node10&#45;&gt;Node1</title>
<path fill="none" stroke="midnightblue" d="M466.557,-220.478C460.477,-200.974 443.653,-149.754 423,-110 414.135,-92.9358 404.572,-92.4045 399,-74 396.553,-65.9179 395.622,-62.7391 399,-55 404.345,-42.7565 414.903,-32.3735 424.76,-24.7242"/>
<polygon fill="midnightblue" stroke="midnightblue" points="427.02,-27.4099 433.092,-18.7278 422.931,-21.7282 427.02,-27.4099"/>
</g>
<!-- Node10&#45;&gt;Node4 -->
<g id="edge33" class="edge"><title>Node10&#45;&gt;Node4</title>
<path fill="none" stroke="midnightblue" d="M508.488,-220.45C554.34,-211.104 630.014,-195.678 679.688,-185.552"/>
<polygon fill="midnightblue" stroke="midnightblue" points="680.467,-188.965 689.567,-183.538 679.069,-182.106 680.467,-188.965"/>
</g>
<!-- Node10&#45;&gt;Node7 -->
<g id="edge34" class="edge"><title>Node10&#45;&gt;Node7</title>
<path fill="none" stroke="midnightblue" d="M408.09,-220.488C371.589,-214.039 325.038,-202.843 287,-184 217.338,-149.491 201.624,-132.999 151,-74 138.818,-59.8019 128.452,-41.0369 121.819,-27.594"/>
<polygon fill="midnightblue" stroke="midnightblue" points="124.959,-26.0458 117.506,-18.5153 118.636,-29.0498 124.959,-26.0458"/>
</g>
<!-- Node10&#45;&gt;Node8 -->
<g id="edge35" class="edge"><title>Node10&#45;&gt;Node8</title>
<path fill="none" stroke="midnightblue" d="M470.403,-220.427C473.226,-206.745 480.94,-179.116 499,-165 563.28,-114.759 603.67,-160.327 679,-129 719.519,-112.15 727.866,-102.772 761,-74 777.883,-59.3394 794.673,-39.8922 805.61,-26.3992"/>
<polygon fill="midnightblue" stroke="midnightblue" points="808.406,-28.5065 811.894,-18.5023 802.928,-24.1477 808.406,-28.5065"/>
</g>
<!-- Node10&#45;&gt;Node9 -->
<g id="edge23" class="edge"><title>Node10&#45;&gt;Node9</title>
<path fill="none" stroke="midnightblue" d="M482.821,-220.45C497.252,-212.045 520.125,-198.724 537.23,-188.762"/>
<polygon fill="midnightblue" stroke="midnightblue" points="539.169,-191.683 546.049,-183.625 535.646,-185.634 539.169,-191.683"/>
</g>
<!-- Node11 -->
<g id="node12" class="node"><title>Node11</title>
<g id="a_node12"><a xlink:href="vtkvmtkDataSetItems_8h.html" target="_top" xlink:title="vtkvmtkDataSetItems.h">
<polygon fill="white" stroke="black" points="295.596,-165.5 295.596,-183.5 414.404,-183.5 414.404,-165.5 295.596,-165.5"/>
<text text-anchor="middle" x="355" y="-171.5" font-family="Helvetica,sans-Serif" font-size="10.00">vtkvmtkDataSetItems.h</text>
</a>
</g>
</g>
<!-- Node10&#45;&gt;Node11 -->
<g id="edge24" class="edge"><title>Node10&#45;&gt;Node11</title>
<path fill="none" stroke="midnightblue" d="M451.686,-220.45C433.105,-211.812 403.354,-197.98 381.757,-187.94"/>
<polygon fill="midnightblue" stroke="midnightblue" points="383.021,-184.667 372.477,-183.625 380.069,-191.015 383.021,-184.667"/>
</g>
<!-- Node11&#45;&gt;Node1 -->
<g id="edge25" class="edge"><title>Node11&#45;&gt;Node1</title>
<path fill="none" stroke="midnightblue" d="M346.549,-165.22C338.72,-156.907 327.611,-143.31 323,-129 320.41,-120.963 320.639,-118.108 323,-110 331.101,-82.1813 336.484,-74.4052 358,-55 373.911,-40.6498 395.296,-29.759 413.116,-22.344"/>
<polygon fill="midnightblue" stroke="midnightblue" points="414.589,-25.5252 422.592,-18.5823 412.006,-19.0191 414.589,-25.5252"/>
</g>
<!-- Node11&#45;&gt;Node7 -->
<g id="edge31" class="edge"><title>Node11&#45;&gt;Node7</title>
<path fill="none" stroke="midnightblue" d="M336.678,-165.487C303.046,-150.322 229.965,-115.225 176,-74 157.343,-59.748 138.931,-39.9652 127.081,-26.2848"/>
<polygon fill="midnightblue" stroke="midnightblue" points="129.748,-24.0178 120.608,-18.6594 124.412,-28.548 129.748,-24.0178"/>
</g>
<!-- Node11&#45;&gt;Node8 -->
<g id="edge32" class="edge"><title>Node11&#45;&gt;Node8</title>
<path fill="none" stroke="midnightblue" d="M414.498,-167.637C487.267,-159.912 605.844,-145.372 647,-129 679.934,-115.898 762.879,-53.2349 799.793,-24.7047"/>
<polygon fill="midnightblue" stroke="midnightblue" points="801.979,-27.4392 807.735,-18.5443 797.688,-21.9083 801.979,-27.4392"/>
</g>
<!-- Node12 -->
<g id="node13" class="node"><title>Node12</title>
<g id="a_node13"><a xlink:href="vtkvmtkItems_8h.html" target="_top" xlink:title="vtkvmtkItems.h">
<polygon fill="white" stroke="black" points="331.663,-110.5 331.663,-128.5 414.337,-128.5 414.337,-110.5 331.663,-110.5"/>
<text text-anchor="middle" x="373" y="-116.5" font-family="Helvetica,sans-Serif" font-size="10.00">vtkvmtkItems.h</text>
</a>
</g>
</g>
<!-- Node11&#45;&gt;Node12 -->
<g id="edge26" class="edge"><title>Node11&#45;&gt;Node12</title>
<path fill="none" stroke="midnightblue" d="M357.812,-165.219C360.257,-158.02 363.883,-147.346 366.978,-138.231"/>
<polygon fill="midnightblue" stroke="midnightblue" points="370.364,-139.144 370.266,-128.55 363.736,-136.893 370.364,-139.144"/>
</g>
<!-- Node12&#45;&gt;Node1 -->
<g id="edge27" class="edge"><title>Node12&#45;&gt;Node1</title>
<path fill="none" stroke="midnightblue" d="M369.185,-110.425C363.771,-97.6841 355.609,-72.5642 366,-55 375.066,-39.6759 391.492,-29.2755 407.193,-22.4095"/>
<polygon fill="midnightblue" stroke="midnightblue" points="408.811,-25.5327 416.804,-18.5789 406.219,-19.0302 408.811,-25.5327"/>
</g>
<!-- Node12&#45;&gt;Node6 -->
<g id="edge28" class="edge"><title>Node12&#45;&gt;Node6</title>
<path fill="none" stroke="midnightblue" d="M384.239,-110.45C395.648,-102.279 413.546,-89.4604 427.314,-79.5996"/>
<polygon fill="midnightblue" stroke="midnightblue" points="429.563,-82.2936 435.655,-73.6253 425.487,-76.6027 429.563,-82.2936"/>
</g>
<!-- Node12&#45;&gt;Node7 -->
<g id="edge29" class="edge"><title>Node12&#45;&gt;Node7</title>
<path fill="none" stroke="midnightblue" d="M332.003,-110.498C299.201,-103.282 252.487,-91.156 214,-74 183.839,-60.5552 152.172,-38.9945 132.754,-24.7883"/>
<polygon fill="midnightblue" stroke="midnightblue" points="134.618,-21.8125 124.505,-18.6535 130.441,-27.4295 134.618,-21.8125"/>
</g>
<!-- Node12&#45;&gt;Node8 -->
<g id="edge30" class="edge"><title>Node12&#45;&gt;Node8</title>
<path fill="none" stroke="midnightblue" d="M406.084,-110.471C485.426,-91.2146 686.494,-42.416 775.028,-20.9291"/>
<polygon fill="midnightblue" stroke="midnightblue" points="776.108,-24.2686 785.001,-18.5088 774.457,-17.4661 776.108,-24.2686"/>
</g>
<!-- Node13&#45;&gt;Node1 -->
<g id="edge37" class="edge"><title>Node13&#45;&gt;Node1</title>
<path fill="none" stroke="midnightblue" d="M435.104,-275.449C389.005,-264.053 317.417,-238.236 287,-184 263.35,-141.83 254.876,-133.115 336,-55 354.695,-36.9987 381.598,-25.9671 404.236,-19.3907"/>
<polygon fill="midnightblue" stroke="midnightblue" points="405.228,-22.7482 413.965,-16.7557 403.398,-15.9916 405.228,-22.7482"/>
</g>
<!-- Node13&#45;&gt;Node3 -->
<g id="edge40" class="edge"><title>Node13&#45;&gt;Node3</title>
<path fill="none" stroke="midnightblue" d="M515.273,-275.45C559.621,-266.123 632.753,-250.742 680.904,-240.615"/>
<polygon fill="midnightblue" stroke="midnightblue" points="681.715,-244.022 690.78,-238.538 680.274,-237.171 681.715,-244.022"/>
</g>
<!-- Node13&#45;&gt;Node7 -->
<g id="edge41" class="edge"><title>Node13&#45;&gt;Node7</title>
<path fill="none" stroke="midnightblue" d="M430.019,-281.852C316.769,-276.604 38,-255.558 38,-175.5 38,-175.5 38,-175.5 38,-118.5 38,-79.0599 72.317,-43.8584 94.8312,-25.0079"/>
<polygon fill="midnightblue" stroke="midnightblue" points="97.1877,-27.6042 102.786,-18.6091 92.8002,-22.1498 97.1877,-27.6042"/>
</g>
<!-- Node13&#45;&gt;Node8 -->
<g id="edge42" class="edge"><title>Node13&#45;&gt;Node8</title>
<path fill="none" stroke="midnightblue" d="M523.833,-281.327C598.433,-277.103 740.106,-265.738 782,-239 847.279,-197.337 835.89,-151.413 838,-74 838.23,-65.5587 839.77,-63.2568 838,-55 835.978,-45.5664 831.795,-35.7177 827.776,-27.6909"/>
<polygon fill="midnightblue" stroke="midnightblue" points="830.75,-25.8317 822.946,-18.6665 824.579,-29.1348 830.75,-25.8317"/>
</g>
<!-- Node13&#45;&gt;Node9 -->
<g id="edge38" class="edge"><title>Node13&#45;&gt;Node9</title>
<path fill="none" stroke="midnightblue" d="M494.706,-275.385C509.165,-267.891 529.09,-255.439 541,-239 550.705,-225.605 555.502,-207.231 557.842,-193.693"/>
<polygon fill="midnightblue" stroke="midnightblue" points="561.324,-194.071 559.284,-183.675 554.395,-193.074 561.324,-194.071"/>
</g>
<!-- Node13&#45;&gt;Node11 -->
<g id="edge39" class="edge"><title>Node13&#45;&gt;Node11</title>
<path fill="none" stroke="midnightblue" d="M456.552,-275.412C439.277,-267.858 414.608,-255.306 397,-239 382.641,-225.703 370.842,-206.545 363.445,-192.755"/>
<polygon fill="midnightblue" stroke="midnightblue" points="366.542,-191.122 358.864,-183.822 360.313,-194.317 366.542,-191.122"/>
</g>
<!-- Node14&#45;&gt;Node1 -->
<g id="edge44" class="edge"><title>Node14&#45;&gt;Node1</title>
<path fill="none" stroke="midnightblue" d="M959.94,-58.0277C844.567,-47.3375 591.679,-23.9056 490.3,-14.5121"/>
<polygon fill="midnightblue" stroke="midnightblue" points="490.4,-11.0064 480.119,-13.5687 489.754,-17.9765 490.4,-11.0064"/>
</g>
<!-- Node14&#45;&gt;Node8 -->
<g id="edge46" class="edge"><title>Node14&#45;&gt;Node8</title>
<path fill="none" stroke="midnightblue" d="M988.472,-55.4504C953.692,-46.2794 896.714,-31.2555 858.307,-21.1283"/>
<polygon fill="midnightblue" stroke="midnightblue" points="859.047,-17.7037 848.485,-18.5383 857.262,-24.4724 859.047,-17.7037"/>
</g>
<!-- Node15 -->
<g id="node16" class="node"><title>Node15</title>
<polygon fill="white" stroke="#bfbfbf" points="978.302,-0.5 978.302,-18.5 1059.7,-18.5 1059.7,-0.5 978.302,-0.5"/>
<text text-anchor="middle" x="1019" y="-6.5" font-family="Helvetica,sans-Serif" font-size="10.00">vtkDataArray.h</text>
</g>
<!-- Node14&#45;&gt;Node15 -->
<g id="edge45" class="edge"><title>Node14&#45;&gt;Node15</title>
<path fill="none" stroke="midnightblue" d="M1019,-55.2188C1019,-48.1769 1019,-37.8083 1019,-28.8277"/>
<polygon fill="midnightblue" stroke="midnightblue" points="1022.5,-28.5495 1019,-18.5496 1015.5,-28.5496 1022.5,-28.5495"/>
</g>
</g>
</svg>
        <g id="navigator" transform="translate(0 0)" fill="#404254">
                <rect fill="#f2f5e9" fill-opacity="0.5" stroke="#606060" stroke-width=".5" x="0" y="0" width="60" height="60"/>
                <use id="zoomplus" xlink:href="#zoomPlus" x="17" y="9" onmousedown="handleZoom(evt,'in')"/>
                <use id="zoomminus" xlink:href="#zoomMin" x="42" y="9" onmousedown="handleZoom(evt,'out')"/>
                <use id="reset" xlink:href="#resetDef" x="30" y="36" onmousedown="handleReset()"/>
                <g id="arrowUp" xlink:href="#dirArrow" transform="translate(30 24)" onmousedown="handlePan(0,-1)">
                  <use xlink:href="#rim" fill="#404040">
                        <set attributeName="fill" to="#808080" begin="arrowUp.mouseover" end="arrowUp.mouseout"/>
                  </use>
                  <path fill="none" stroke="white" stroke-width="1.5" d="M0,-3.0v7 M-2.5,-0.5L0,-3.0L2.5,-0.5"/>
                </g>
                <g id="arrowRight" xlink:href="#dirArrow" transform="rotate(90) translate(36 -43)" onmousedown="handlePan(1,0)">
                  <use xlink:href="#rim" fill="#404040">
                        <set attributeName="fill" to="#808080" begin="arrowRight.mouseover" end="arrowRight.mouseout"/>
                  </use>
                  <path fill="none" stroke="white" stroke-width="1.5" d="M0,-3.0v7 M-2.5,-0.5L0,-3.0L2.5,-0.5"/>
                </g>
                <g id="arrowDown" xlink:href="#dirArrow" transform="rotate(180) translate(-30 -48)" onmousedown="handlePan(0,1)">
                  <use xlink:href="#rim" fill="#404040">
                        <set attributeName="fill" to="#808080" begin="arrowDown.mouseover" end="arrowDown.mouseout"/>
                  </use>
                  <path fill="none" stroke="white" stroke-width="1.5" d="M0,-3.0v7 M-2.5,-0.5L0,-3.0L2.5,-0.5"/>
                </g>
                <g id="arrowLeft" xlink:href="#dirArrow" transform="rotate(270) translate(-36 17)" onmousedown="handlePan(-1,0)">
                  <use xlink:href="#rim" fill="#404040">
                        <set attributeName="fill" to="#808080" begin="arrowLeft.mouseover" end="arrowLeft.mouseout"/>
                  </use>
                  <path fill="none" stroke="white" stroke-width="1.5" d="M0,-3.0v7 M-2.5,-0.5L0,-3.0L2.5,-0.5"/>
                </g>
        </g>
        <svg viewBox="0 0 15 15" width="100%" height="30px" preserveAspectRatio="xMaxYMin meet">
         <g id="arrow_out" transform="scale(0.3 0.3)">
          <a xlink:href="vtkvmtkSparseMatrix_8h__incl_org.svg" target="_base">
           <rect id="button" ry="5" rx="5" y="6" x="6" height="38" width="38"
                fill="#f2f5e9" fill-opacity="0.5" stroke="#606060" stroke-width="1.0"/>
           <path id="arrow"
             d="M 11.500037,31.436501 C 11.940474,20.09759 22.043105,11.32322 32.158766,21.979434 L 37.068811,17.246167 C 37.068811,17.246167 37.088388,32 37.088388,32 L 22.160133,31.978069 C 22.160133,31.978069 26.997745,27.140456 26.997745,27.140456 C 18.528582,18.264221 13.291696,25.230495 11.500037,31.436501 z"
             style="fill:#404040;"/>
          </a>
         </g>
        </svg>
</svg>
