<?xml version="1.0" encoding="UTF-8" standalone="no"?>
<!DOCTYPE svg PUBLIC "-//W3C//DTD SVG 1.1//EN"
 "http://www.w3.org/Graphics/SVG/1.1/DTD/svg11.dtd">
<!-- Generated by graphviz version 2.38.0 (20140413.2041)
 -->
<!-- Title: vtkvmtkConstants.h Pages: 1 -->
<svg width="2674pt" height="397pt"
 viewBox="0.00 0.00 2673.82 397.00" xmlns="http://www.w3.org/2000/svg" xmlns:xlink="http://www.w3.org/1999/xlink">
<g id="graph0" class="graph" transform="scale(1 1) rotate(0) translate(4 393)">
<title>vtkvmtkConstants.h</title>
<polygon fill="white" stroke="none" points="-4,4 -4,-393 2669.82,-393 2669.82,4 -4,4"/>
<!-- Node1 -->
<g id="node1" class="node"><title>Node1</title>
<polygon fill="#bfbfbf" stroke="black" points="1192.6,-370.5 1192.6,-388.5 1295.85,-388.5 1295.85,-370.5 1192.6,-370.5"/>
<text text-anchor="middle" x="1244.23" y="-376.5" font-family="Helvetica,sans-Serif" font-size="10.00">vtkvmtkConstants.h</text>
</g>
<!-- Node2 -->
<g id="node2" class="node"><title>Node2</title>
<g id="a_node2"><a xlink:href="vtkvmtkMath_8h.html" target="_top" xlink:title="vtkvmtkMath.h">
<polygon fill="white" stroke="black" points="0,-310.5 0,-328.5 80.458,-328.5 80.458,-310.5 0,-310.5"/>
<text text-anchor="middle" x="40.229" y="-316.5" font-family="Helvetica,sans-Serif" font-size="10.00">vtkvmtkMath.h</text>
</a>
</g>
</g>
<!-- Node1&#45;&gt;Node2 -->
<g id="edge1" class="edge"><title>Node1&#45;&gt;Node2</title>
<path fill="none" stroke="midnightblue" d="M1182.36,-377.949C974.708,-375.813 303.667,-366.504 90.229,-334 82.1401,-332.768 73.484,-330.706 65.686,-328.56"/>
<polygon fill="midnightblue" stroke="midnightblue" points="1182.45,-381.45 1192.48,-378.051 1182.52,-374.45 1182.45,-381.45"/>
</g>
<!-- Node3 -->
<g id="node3" class="node"><title>Node3</title>
<g id="a_node3"><a xlink:href="vtkvmtkNonManifoldFastMarching_8h.html" target="_top" xlink:title="vtkvmtkNonManifoldFastMarching.h">
<polygon fill="white" stroke="black" points="98.7563,-310.5 98.7563,-328.5 273.702,-328.5 273.702,-310.5 98.7563,-310.5"/>
<text text-anchor="middle" x="186.229" y="-316.5" font-family="Helvetica,sans-Serif" font-size="10.00">vtkvmtkNonManifoldFastMarching.h</text>
</a>
</g>
</g>
<!-- Node1&#45;&gt;Node3 -->
<g id="edge2" class="edge"><title>Node1&#45;&gt;Node3</title>
<path fill="none" stroke="midnightblue" d="M1182.42,-377.608C1029.59,-374.973 621.787,-365.331 283.229,-334 268.33,-332.621 252.213,-330.595 237.474,-328.53"/>
<polygon fill="midnightblue" stroke="midnightblue" points="1182.49,-381.109 1192.55,-377.778 1182.61,-374.11 1182.49,-381.109"/>
</g>
<!-- Node4 -->
<g id="node4" class="node"><title>Node4</title>
<g id="a_node4"><a xlink:href="vtkvmtkSparseMatrixRow_8h.html" target="_top" xlink:title="vtkvmtkSparseMatrixRow.h">
<polygon fill="white" stroke="black" points="291.934,-310.5 291.934,-328.5 428.524,-328.5 428.524,-310.5 291.934,-310.5"/>
<text text-anchor="middle" x="360.229" y="-316.5" font-family="Helvetica,sans-Serif" font-size="10.00">vtkvmtkSparseMatrixRow.h</text>
</a>
</g>
</g>
<!-- Node1&#45;&gt;Node4 -->
<g id="edge3" class="edge"><title>Node1&#45;&gt;Node4</title>
<path fill="none" stroke="midnightblue" d="M1182.42,-377.585C1046.98,-375.035 714.047,-365.785 437.229,-334 425.364,-332.638 412.557,-330.617 400.858,-328.551"/>
<polygon fill="midnightblue" stroke="midnightblue" points="1182.53,-381.088 1192.59,-377.771 1182.66,-374.089 1182.53,-381.088"/>
</g>
<!-- Node18 -->
<g id="node18" class="node"><title>Node18</title>
<g id="a_node18"><a xlink:href="vtkvmtkNeighborhoods_8h.html" target="_top" xlink:title="vtkvmtkNeighborhoods.h">
<polygon fill="white" stroke="black" points="446.202,-310.5 446.202,-328.5 572.256,-328.5 572.256,-310.5 446.202,-310.5"/>
<text text-anchor="middle" x="509.229" y="-316.5" font-family="Helvetica,sans-Serif" font-size="10.00">vtkvmtkNeighborhoods.h</text>
</a>
</g>
</g>
<!-- Node1&#45;&gt;Node18 -->
<g id="edge18" class="edge"><title>Node1&#45;&gt;Node18</title>
<path fill="none" stroke="midnightblue" d="M1182.2,-376.785C1064.58,-372.992 801.193,-361.904 581.229,-334 570.252,-332.608 558.421,-330.602 547.583,-328.562"/>
<polygon fill="midnightblue" stroke="midnightblue" points="1182.34,-380.291 1192.45,-377.109 1182.56,-373.295 1182.34,-380.291"/>
</g>
<!-- Node19 -->
<g id="node19" class="node"><title>Node19</title>
<g id="a_node19"><a xlink:href="vtkvmtkStencils_8h.html" target="_top" xlink:title="vtkvmtkStencils.h">
<polygon fill="white" stroke="black" points="590.608,-310.5 590.608,-328.5 683.85,-328.5 683.85,-310.5 590.608,-310.5"/>
<text text-anchor="middle" x="637.229" y="-316.5" font-family="Helvetica,sans-Serif" font-size="10.00">vtkvmtkStencils.h</text>
</a>
</g>
</g>
<!-- Node1&#45;&gt;Node19 -->
<g id="edge20" class="edge"><title>Node1&#45;&gt;Node19</title>
<path fill="none" stroke="midnightblue" d="M1182.36,-376.743C1079.86,-373.112 868.63,-362.571 692.229,-334 683.688,-332.617 674.52,-330.589 666.165,-328.524"/>
<polygon fill="midnightblue" stroke="midnightblue" points="1182.41,-380.247 1192.53,-377.093 1182.66,-373.251 1182.41,-380.247"/>
</g>
<!-- Node21 -->
<g id="node21" class="node"><title>Node21</title>
<g id="a_node21"><a xlink:href="vtkvmtkEmptyNeighborhood_8h.html" target="_top" xlink:title="vtkvmtkEmptyNeighborhood.h">
<polygon fill="white" stroke="black" points="701.532,-310.5 701.532,-328.5 850.926,-328.5 850.926,-310.5 701.532,-310.5"/>
<text text-anchor="middle" x="776.229" y="-316.5" font-family="Helvetica,sans-Serif" font-size="10.00">vtkvmtkEmptyNeighborhood.h</text>
</a>
</g>
</g>
<!-- Node1&#45;&gt;Node21 -->
<g id="edge23" class="edge"><title>Node1&#45;&gt;Node21</title>
<path fill="none" stroke="midnightblue" d="M1182.25,-372.165C1106.25,-364.202 973.566,-349.667 860.229,-334 848.378,-332.362 835.616,-330.409 823.708,-328.504"/>
<polygon fill="midnightblue" stroke="midnightblue" points="1182.28,-375.687 1192.59,-373.244 1183,-368.725 1182.28,-375.687"/>
</g>
<!-- Node22 -->
<g id="node22" class="node"><title>Node22</title>
<g id="a_node22"><a xlink:href="vtkvmtkEmptyStencil_8h.html" target="_top" xlink:title="vtkvmtkEmptyStencil.h">
<polygon fill="white" stroke="black" points="868.938,-310.5 868.938,-328.5 985.52,-328.5 985.52,-310.5 868.938,-310.5"/>
<text text-anchor="middle" x="927.229" y="-316.5" font-family="Helvetica,sans-Serif" font-size="10.00">vtkvmtkEmptyStencil.h</text>
</a>
</g>
</g>
<!-- Node1&#45;&gt;Node22 -->
<g id="edge24" class="edge"><title>Node1&#45;&gt;Node22</title>
<path fill="none" stroke="midnightblue" d="M1187.06,-368.704C1136.35,-359.923 1060.28,-346.531 994.229,-334 985.136,-332.275 975.364,-330.348 966.171,-328.502"/>
<polygon fill="midnightblue" stroke="midnightblue" points="1186.72,-372.197 1197.17,-370.452 1187.91,-365.299 1186.72,-372.197"/>
</g>
<!-- Node23 -->
<g id="node23" class="node"><title>Node23</title>
<g id="a_node23"><a xlink:href="vtkvmtkPolyDataAreaWeightedUmbrellaStencil_8h.html" target="_top" xlink:title="vtkvmtkPolyDataAreaWeighted\lUmbrellaStencil.h">
<polygon fill="white" stroke="black" points="1003.4,-305.5 1003.4,-333.5 1157.06,-333.5 1157.06,-305.5 1003.4,-305.5"/>
<text text-anchor="start" x="1011.4" y="-321.5" font-family="Helvetica,sans-Serif" font-size="10.00">vtkvmtkPolyDataAreaWeighted</text>
<text text-anchor="middle" x="1080.23" y="-311.5" font-family="Helvetica,sans-Serif" font-size="10.00">UmbrellaStencil.h</text>
</a>
</g>
</g>
<!-- Node1&#45;&gt;Node23 -->
<g id="edge25" class="edge"><title>Node1&#45;&gt;Node23</title>
<path fill="none" stroke="midnightblue" d="M1211.94,-367.081C1184.64,-357.425 1145.52,-343.592 1117.01,-333.51"/>
<polygon fill="midnightblue" stroke="midnightblue" points="1210.83,-370.401 1221.43,-370.435 1213.16,-363.801 1210.83,-370.401"/>
</g>
<!-- Node24 -->
<g id="node24" class="node"><title>Node24</title>
<g id="a_node24"><a xlink:href="vtkvmtkPolyDataFELaplaceBeltramiStencil_8h.html" target="_top" xlink:title="vtkvmtkPolyDataFELaplace\lBeltramiStencil.h">
<polygon fill="white" stroke="black" points="1175.09,-305.5 1175.09,-333.5 1313.36,-333.5 1313.36,-305.5 1175.09,-305.5"/>
<text text-anchor="start" x="1183.09" y="-321.5" font-family="Helvetica,sans-Serif" font-size="10.00">vtkvmtkPolyDataFELaplace</text>
<text text-anchor="middle" x="1244.23" y="-311.5" font-family="Helvetica,sans-Serif" font-size="10.00">BeltramiStencil.h</text>
</a>
</g>
</g>
<!-- Node1&#45;&gt;Node24 -->
<g id="edge26" class="edge"><title>Node1&#45;&gt;Node24</title>
<path fill="none" stroke="midnightblue" d="M1244.23,-360.321C1244.23,-351.747 1244.23,-341.7 1244.23,-333.843"/>
<polygon fill="midnightblue" stroke="midnightblue" points="1240.73,-360.435 1244.23,-370.435 1247.73,-360.435 1240.73,-360.435"/>
</g>
<!-- Node25 -->
<g id="node25" class="node"><title>Node25</title>
<g id="a_node25"><a xlink:href="vtkvmtkPolyDataFVFELaplaceBeltramiStencil_8h.html" target="_top" xlink:title="vtkvmtkPolyDataFVFELaplace\lBeltramiStencil.h">
<polygon fill="white" stroke="black" points="1331.7,-305.5 1331.7,-333.5 1482.75,-333.5 1482.75,-305.5 1331.7,-305.5"/>
<text text-anchor="start" x="1339.7" y="-321.5" font-family="Helvetica,sans-Serif" font-size="10.00">vtkvmtkPolyDataFVFELaplace</text>
<text text-anchor="middle" x="1407.23" y="-311.5" font-family="Helvetica,sans-Serif" font-size="10.00">BeltramiStencil.h</text>
</a>
</g>
</g>
<!-- Node1&#45;&gt;Node25 -->
<g id="edge27" class="edge"><title>Node1&#45;&gt;Node25</title>
<path fill="none" stroke="midnightblue" d="M1276.32,-367.081C1303.46,-357.425 1342.33,-343.592 1370.67,-333.51"/>
<polygon fill="midnightblue" stroke="midnightblue" points="1275.14,-363.785 1266.89,-370.435 1277.49,-370.38 1275.14,-363.785"/>
</g>
<!-- Node26 -->
<g id="node26" class="node"><title>Node26</title>
<g id="a_node26"><a xlink:href="vtkvmtkPolyDataGradientStencil_8h.html" target="_top" xlink:title="vtkvmtkPolyDataGradientStencil.h">
<polygon fill="white" stroke="black" points="1500.64,-310.5 1500.64,-328.5 1667.81,-328.5 1667.81,-310.5 1500.64,-310.5"/>
<text text-anchor="middle" x="1584.23" y="-316.5" font-family="Helvetica,sans-Serif" font-size="10.00">vtkvmtkPolyDataGradientStencil.h</text>
</a>
</g>
</g>
<!-- Node1&#45;&gt;Node26 -->
<g id="edge28" class="edge"><title>Node1&#45;&gt;Node26</title>
<path fill="none" stroke="midnightblue" d="M1301.41,-368.745C1367.69,-357.44 1475.66,-339.021 1537.25,-328.515"/>
<polygon fill="midnightblue" stroke="midnightblue" points="1300.42,-365.364 1291.15,-370.496 1301.59,-372.265 1300.42,-365.364"/>
</g>
<!-- Node27 -->
<g id="node27" class="node"><title>Node27</title>
<g id="a_node27"><a xlink:href="vtkvmtkPolyDataManifoldExtendedNeighborhood_8h.html" target="_top" xlink:title="vtkvmtkPolyDataManifoldExtended\lNeighborhood.h">
<polygon fill="white" stroke="black" points="1674.97,-240.5 1674.97,-268.5 1845.49,-268.5 1845.49,-240.5 1674.97,-240.5"/>
<text text-anchor="start" x="1682.97" y="-256.5" font-family="Helvetica,sans-Serif" font-size="10.00">vtkvmtkPolyDataManifoldExtended</text>
<text text-anchor="middle" x="1760.23" y="-246.5" font-family="Helvetica,sans-Serif" font-size="10.00">Neighborhood.h</text>
</a>
</g>
</g>
<!-- Node1&#45;&gt;Node27 -->
<g id="edge29" class="edge"><title>Node1&#45;&gt;Node27</title>
<path fill="none" stroke="midnightblue" d="M1306.31,-377.006C1409.84,-373.709 1612.73,-363.58 1677.23,-334 1693.91,-326.352 1729.82,-288.763 1748.47,-268.501"/>
<polygon fill="midnightblue" stroke="midnightblue" points="1305.9,-373.517 1296.01,-377.322 1306.11,-380.514 1305.9,-373.517"/>
</g>
<!-- Node28 -->
<g id="node28" class="node"><title>Node28</title>
<g id="a_node28"><a xlink:href="vtkvmtkPolyDataManifoldNeighborhood_8h.html" target="_top" xlink:title="vtkvmtkPolyDataManifoldNeighborhood.h">
<polygon fill="white" stroke="black" points="1724.52,-310.5 1724.52,-328.5 1923.94,-328.5 1923.94,-310.5 1724.52,-310.5"/>
<text text-anchor="middle" x="1824.23" y="-316.5" font-family="Helvetica,sans-Serif" font-size="10.00">vtkvmtkPolyDataManifoldNeighborhood.h</text>
</a>
</g>
</g>
<!-- Node1&#45;&gt;Node28 -->
<g id="edge30" class="edge"><title>Node1&#45;&gt;Node28</title>
<path fill="none" stroke="midnightblue" d="M1306.21,-373.031C1395.54,-365.048 1565.65,-349.462 1710.23,-334 1725.98,-332.315 1742.95,-330.375 1758.85,-328.5"/>
<polygon fill="midnightblue" stroke="midnightblue" points="1305.64,-369.569 1295.99,-373.944 1306.26,-376.541 1305.64,-369.569"/>
</g>
<!-- Node29 -->
<g id="node29" class="node"><title>Node29</title>
<g id="a_node29"><a xlink:href="vtkvmtkPolyDataNeighborhood_8h.html" target="_top" xlink:title="vtkvmtkPolyDataNeighborhood.h">
<polygon fill="white" stroke="black" points="1942.41,-310.5 1942.41,-328.5 2104.04,-328.5 2104.04,-310.5 1942.41,-310.5"/>
<text text-anchor="middle" x="2023.23" y="-316.5" font-family="Helvetica,sans-Serif" font-size="10.00">vtkvmtkPolyDataNeighborhood.h</text>
</a>
</g>
</g>
<!-- Node1&#45;&gt;Node29 -->
<g id="edge32" class="edge"><title>Node1&#45;&gt;Node29</title>
<path fill="none" stroke="midnightblue" d="M1306.39,-376.245C1427.36,-371.466 1702.77,-358.683 1933.23,-334 1946.74,-332.553 1961.33,-330.555 1974.75,-328.539"/>
<polygon fill="midnightblue" stroke="midnightblue" points="1306.07,-372.754 1296.22,-376.642 1306.35,-379.749 1306.07,-372.754"/>
</g>
<!-- Node30 -->
<g id="node30" class="node"><title>Node30</title>
<g id="a_node30"><a xlink:href="vtkvmtkPolyDataStencilFlowFilter_8h.html" target="_top" xlink:title="vtkvmtkPolyDataStencilFlow\lFilter.h">
<polygon fill="white" stroke="black" points="2122.43,-305.5 2122.43,-333.5 2264.02,-333.5 2264.02,-305.5 2122.43,-305.5"/>
<text text-anchor="start" x="2130.43" y="-321.5" font-family="Helvetica,sans-Serif" font-size="10.00">vtkvmtkPolyDataStencilFlow</text>
<text text-anchor="middle" x="2193.23" y="-311.5" font-family="Helvetica,sans-Serif" font-size="10.00">Filter.h</text>
</a>
</g>
</g>
<!-- Node1&#45;&gt;Node30 -->
<g id="edge33" class="edge"><title>Node1&#45;&gt;Node30</title>
<path fill="none" stroke="midnightblue" d="M1306.63,-377.785C1449.69,-375.604 1812.17,-366.997 2113.23,-334 2116.17,-333.678 2119.17,-333.317 2122.19,-332.928"/>
<polygon fill="midnightblue" stroke="midnightblue" points="1306.26,-374.29 1296.31,-377.937 1306.36,-381.289 1306.26,-374.29"/>
</g>
<!-- Node31 -->
<g id="node31" class="node"><title>Node31</title>
<g id="a_node31"><a xlink:href="vtkvmtkPolyDataUmbrellaStencil_8h.html" target="_top" xlink:title="vtkvmtkPolyDataUmbrellaStencil.h">
<polygon fill="white" stroke="black" points="2281.82,-310.5 2281.82,-328.5 2450.64,-328.5 2450.64,-310.5 2281.82,-310.5"/>
<text text-anchor="middle" x="2366.23" y="-316.5" font-family="Helvetica,sans-Serif" font-size="10.00">vtkvmtkPolyDataUmbrellaStencil.h</text>
</a>
</g>
</g>
<!-- Node1&#45;&gt;Node31 -->
<g id="edge34" class="edge"><title>Node1&#45;&gt;Node31</title>
<path fill="none" stroke="midnightblue" d="M1306.16,-377.998C1466.4,-376.227 1907.62,-368.353 2273.23,-334 2287.69,-332.642 2303.33,-330.596 2317.59,-328.505"/>
<polygon fill="midnightblue" stroke="midnightblue" points="1305.98,-374.499 1296.02,-378.106 1306.05,-381.499 1305.98,-374.499"/>
</g>
<!-- Node32 -->
<g id="node32" class="node"><title>Node32</title>
<g id="a_node32"><a xlink:href="vtkvmtkUnstructuredGridNeighborhood_8h.html" target="_top" xlink:title="vtkvmtkUnstructuredGridNeighborhood.h">
<polygon fill="white" stroke="black" points="2468.63,-310.5 2468.63,-328.5 2665.82,-328.5 2665.82,-310.5 2468.63,-310.5"/>
<text text-anchor="middle" x="2567.23" y="-316.5" font-family="Helvetica,sans-Serif" font-size="10.00">vtkvmtkUnstructuredGridNeighborhood.h</text>
</a>
</g>
</g>
<!-- Node1&#45;&gt;Node32 -->
<g id="edge35" class="edge"><title>Node1&#45;&gt;Node32</title>
<path fill="none" stroke="midnightblue" d="M1306.15,-378.149C1485.11,-376.721 2018.33,-369.561 2459.23,-334 2475.99,-332.648 2494.15,-330.604 2510.71,-328.513"/>
<polygon fill="midnightblue" stroke="midnightblue" points="1306.11,-374.649 1296.13,-378.226 1306.16,-381.649 1306.11,-374.649"/>
</g>
<!-- Node5 -->
<g id="node5" class="node"><title>Node5</title>
<g id="a_node5"><a xlink:href="vtkvmtkSparseMatrix_8h.html" target="_top" xlink:title="vtkvmtkSparseMatrix.h">
<polygon fill="white" stroke="black" points="434.663,-245.5 434.663,-263.5 551.795,-263.5 551.795,-245.5 434.663,-245.5"/>
<text text-anchor="middle" x="493.229" y="-251.5" font-family="Helvetica,sans-Serif" font-size="10.00">vtkvmtkSparseMatrix.h</text>
</a>
</g>
</g>
<!-- Node4&#45;&gt;Node5 -->
<g id="edge4" class="edge"><title>Node4&#45;&gt;Node5</title>
<path fill="none" stroke="midnightblue" d="M386.464,-306.073C413.071,-293.47 453.469,-274.334 476.18,-263.576"/>
<polygon fill="midnightblue" stroke="midnightblue" points="384.883,-302.949 377.344,-310.393 387.88,-309.275 384.883,-302.949"/>
</g>
<!-- Node6 -->
<g id="node6" class="node"><title>Node6</title>
<g id="a_node6"><a xlink:href="vtkvmtkLinearSystem_8h.html" target="_top" xlink:title="vtkvmtkLinearSystem.h">
<polygon fill="white" stroke="black" points="222.547,-185.5 222.547,-203.5 341.911,-203.5 341.911,-185.5 222.547,-185.5"/>
<text text-anchor="middle" x="282.229" y="-191.5" font-family="Helvetica,sans-Serif" font-size="10.00">vtkvmtkLinearSystem.h</text>
</a>
</g>
</g>
<!-- Node5&#45;&gt;Node6 -->
<g id="edge5" class="edge"><title>Node5&#45;&gt;Node6</title>
<path fill="none" stroke="midnightblue" d="M454.182,-242.767C412.938,-231.43 348.838,-213.81 311.658,-203.589"/>
<polygon fill="midnightblue" stroke="midnightblue" points="453.32,-246.16 463.89,-245.435 455.176,-239.41 453.32,-246.16"/>
</g>
<!-- Node12 -->
<g id="node12" class="node"><title>Node12</title>
<g id="a_node12"><a xlink:href="vtkvmtkFEAssembler_8h.html" target="_top" xlink:title="vtkvmtkFEAssembler.h">
<polygon fill="white" stroke="black" points="682.382,-185.5 682.382,-203.5 800.076,-203.5 800.076,-185.5 682.382,-185.5"/>
<text text-anchor="middle" x="741.229" y="-191.5" font-family="Helvetica,sans-Serif" font-size="10.00">vtkvmtkFEAssembler.h</text>
</a>
</g>
</g>
<!-- Node5&#45;&gt;Node12 -->
<g id="edge12" class="edge"><title>Node5&#45;&gt;Node12</title>
<path fill="none" stroke="midnightblue" d="M537.351,-243.181C585.863,-231.836 662.773,-213.848 706.959,-203.515"/>
<polygon fill="midnightblue" stroke="midnightblue" points="536.392,-239.811 527.452,-245.496 537.986,-246.627 536.392,-239.811"/>
</g>
<!-- Node7 -->
<g id="node7" class="node"><title>Node7</title>
<g id="a_node7"><a xlink:href="vtkvmtkBoundaryConditions_8h.html" target="_top" xlink:title="vtkvmtkBoundaryConditions.h">
<polygon fill="white" stroke="black" points="55.0864,-125.5 55.0864,-143.5 203.372,-143.5 203.372,-125.5 55.0864,-125.5"/>
<text text-anchor="middle" x="129.229" y="-131.5" font-family="Helvetica,sans-Serif" font-size="10.00">vtkvmtkBoundaryConditions.h</text>
</a>
</g>
</g>
<!-- Node6&#45;&gt;Node7 -->
<g id="edge6" class="edge"><title>Node6&#45;&gt;Node7</title>
<path fill="none" stroke="midnightblue" d="M251.441,-181.829C221.591,-170.513 177.076,-153.638 150.816,-143.683"/>
<polygon fill="midnightblue" stroke="midnightblue" points="250.364,-185.163 260.955,-185.435 252.845,-178.618 250.364,-185.163"/>
</g>
<!-- Node9 -->
<g id="node9" class="node"><title>Node9</title>
<g id="a_node9"><a xlink:href="vtkvmtkEllipticProblem_8h.html" target="_top" xlink:title="vtkvmtkEllipticProblem.h">
<polygon fill="white" stroke="black" points="120.049,-0.5 120.049,-18.5 244.409,-18.5 244.409,-0.5 120.049,-0.5"/>
<text text-anchor="middle" x="182.229" y="-6.5" font-family="Helvetica,sans-Serif" font-size="10.00">vtkvmtkEllipticProblem.h</text>
</a>
</g>
</g>
<!-- Node6&#45;&gt;Node9 -->
<g id="edge9" class="edge"><title>Node6&#45;&gt;Node9</title>
<path fill="none" stroke="midnightblue" d="M269.426,-177.314C263.227,-169.09 255.915,-158.789 250.229,-149 227.154,-109.274 228.053,-95.9507 207.229,-55 200.642,-42.046 192.234,-27.4265 187.042,-18.5918"/>
<polygon fill="midnightblue" stroke="midnightblue" points="266.707,-179.518 275.586,-185.298 272.249,-175.243 266.707,-179.518"/>
</g>
<!-- Node10 -->
<g id="node10" class="node"><title>Node10</title>
<g id="a_node10"><a xlink:href="vtkvmtkLinearSystemSolver_8h.html" target="_top" xlink:title="vtkvmtkLinearSystemSolver.h">
<polygon fill="white" stroke="black" points="259.648,-125.5 259.648,-143.5 406.81,-143.5 406.81,-125.5 259.648,-125.5"/>
<text text-anchor="middle" x="333.229" y="-131.5" font-family="Helvetica,sans-Serif" font-size="10.00">vtkvmtkLinearSystemSolver.h</text>
</a>
</g>
</g>
<!-- Node6&#45;&gt;Node10 -->
<g id="edge10" class="edge"><title>Node6&#45;&gt;Node10</title>
<path fill="none" stroke="midnightblue" d="M295.996,-177.844C305.614,-166.905 318.08,-152.728 325.868,-143.872"/>
<polygon fill="midnightblue" stroke="midnightblue" points="293.295,-175.614 289.32,-185.435 298.552,-180.237 293.295,-175.614"/>
</g>
<!-- Node8 -->
<g id="node8" class="node"><title>Node8</title>
<g id="a_node8"><a xlink:href="vtkvmtkDirichletBoundaryConditions_8h.html" target="_top" xlink:title="vtkvmtkDirichletBoundary\lConditions.h">
<polygon fill="white" stroke="black" points="69.8228,-55.5 69.8228,-83.5 198.635,-83.5 198.635,-55.5 69.8228,-55.5"/>
<text text-anchor="start" x="77.8228" y="-71.5" font-family="Helvetica,sans-Serif" font-size="10.00">vtkvmtkDirichletBoundary</text>
<text text-anchor="middle" x="134.229" y="-61.5" font-family="Helvetica,sans-Serif" font-size="10.00">Conditions.h</text>
</a>
</g>
</g>
<!-- Node7&#45;&gt;Node8 -->
<g id="edge7" class="edge"><title>Node7&#45;&gt;Node8</title>
<path fill="none" stroke="midnightblue" d="M130.686,-115.137C131.483,-105.105 132.451,-92.906 133.174,-83.7981"/>
<polygon fill="midnightblue" stroke="midnightblue" points="127.185,-115.018 129.883,-125.264 134.163,-115.572 127.185,-115.018"/>
</g>
<!-- Node8&#45;&gt;Node9 -->
<g id="edge8" class="edge"><title>Node8&#45;&gt;Node9</title>
<path fill="none" stroke="midnightblue" d="M151.669,-47.4264C159.888,-37.4957 169.218,-26.2217 175.384,-18.7715"/>
<polygon fill="midnightblue" stroke="midnightblue" points="148.8,-45.4034 145.121,-55.3389 154.193,-49.8664 148.8,-45.4034"/>
</g>
<!-- Node11 -->
<g id="node11" class="node"><title>Node11</title>
<g id="a_node11"><a xlink:href="vtkvmtkOpenNLLinearSystemSolver_8h.html" target="_top" xlink:title="vtkvmtkOpenNLLinearSystem\lSolver.h">
<polygon fill="white" stroke="black" points="259.094,-55.5 259.094,-83.5 407.364,-83.5 407.364,-55.5 259.094,-55.5"/>
<text text-anchor="start" x="267.094" y="-71.5" font-family="Helvetica,sans-Serif" font-size="10.00">vtkvmtkOpenNLLinearSystem</text>
<text text-anchor="middle" x="333.229" y="-61.5" font-family="Helvetica,sans-Serif" font-size="10.00">Solver.h</text>
</a>
</g>
</g>
<!-- Node10&#45;&gt;Node11 -->
<g id="edge11" class="edge"><title>Node10&#45;&gt;Node11</title>
<path fill="none" stroke="midnightblue" d="M333.229,-115.137C333.229,-105.105 333.229,-92.906 333.229,-83.7981"/>
<polygon fill="midnightblue" stroke="midnightblue" points="329.729,-115.264 333.229,-125.264 336.729,-115.264 329.729,-115.264"/>
</g>
<!-- Node13 -->
<g id="node13" class="node"><title>Node13</title>
<g id="a_node13"><a xlink:href="vtkvmtkPolyDataFEGradientAssembler_8h.html" target="_top" xlink:title="vtkvmtkPolyDataFEGradient\lAssembler.h">
<polygon fill="white" stroke="black" points="424.431,-120.5 424.431,-148.5 566.027,-148.5 566.027,-120.5 424.431,-120.5"/>
<text text-anchor="start" x="432.431" y="-136.5" font-family="Helvetica,sans-Serif" font-size="10.00">vtkvmtkPolyDataFEGradient</text>
<text text-anchor="middle" x="495.229" y="-126.5" font-family="Helvetica,sans-Serif" font-size="10.00">Assembler.h</text>
</a>
</g>
</g>
<!-- Node12&#45;&gt;Node13 -->
<g id="edge13" class="edge"><title>Node12&#45;&gt;Node13</title>
<path fill="none" stroke="midnightblue" d="M697.314,-183.146C656.287,-173.473 594.881,-158.995 550.53,-148.538"/>
<polygon fill="midnightblue" stroke="midnightblue" points="696.746,-186.608 707.282,-185.496 698.352,-179.795 696.746,-186.608"/>
</g>
<!-- Node14 -->
<g id="node14" class="node"><title>Node14</title>
<g id="a_node14"><a xlink:href="vtkvmtkPolyDataFELaplaceAssembler_8h.html" target="_top" xlink:title="vtkvmtkPolyDataFELaplace\lAssembler.h">
<polygon fill="white" stroke="black" points="584.094,-120.5 584.094,-148.5 722.364,-148.5 722.364,-120.5 584.094,-120.5"/>
<text text-anchor="start" x="592.094" y="-136.5" font-family="Helvetica,sans-Serif" font-size="10.00">vtkvmtkPolyDataFELaplace</text>
<text text-anchor="middle" x="653.229" y="-126.5" font-family="Helvetica,sans-Serif" font-size="10.00">Assembler.h</text>
</a>
</g>
</g>
<!-- Node12&#45;&gt;Node14 -->
<g id="edge14" class="edge"><title>Node12&#45;&gt;Node14</title>
<path fill="none" stroke="midnightblue" d="M720.353,-179.74C706.059,-170.32 687.217,-157.901 673.136,-148.62"/>
<polygon fill="midnightblue" stroke="midnightblue" points="718.717,-182.855 728.993,-185.435 722.569,-177.01 718.717,-182.855"/>
</g>
<!-- Node15 -->
<g id="node15" class="node"><title>Node15</title>
<g id="a_node15"><a xlink:href="vtkvmtkUnstructuredGridFEGradientAssembler_8h.html" target="_top" xlink:title="vtkvmtkUnstructuredGridFEGradient\lAssembler.h">
<polygon fill="white" stroke="black" points="740.65,-120.5 740.65,-148.5 917.808,-148.5 917.808,-120.5 740.65,-120.5"/>
<text text-anchor="start" x="748.65" y="-136.5" font-family="Helvetica,sans-Serif" font-size="10.00">vtkvmtkUnstructuredGridFEGradient</text>
<text text-anchor="middle" x="829.229" y="-126.5" font-family="Helvetica,sans-Serif" font-size="10.00">Assembler.h</text>
</a>
</g>
</g>
<!-- Node12&#45;&gt;Node15 -->
<g id="edge15" class="edge"><title>Node12&#45;&gt;Node15</title>
<path fill="none" stroke="midnightblue" d="M762.106,-179.74C776.399,-170.32 795.241,-157.901 809.322,-148.62"/>
<polygon fill="midnightblue" stroke="midnightblue" points="759.889,-177.01 753.465,-185.435 763.741,-182.855 759.889,-177.01"/>
</g>
<!-- Node16 -->
<g id="node16" class="node"><title>Node16</title>
<g id="a_node16"><a xlink:href="vtkvmtkUnstructuredGridFELaplaceAssembler_8h.html" target="_top" xlink:title="vtkvmtkUnstructuredGridFELaplace\lAssembler.h">
<polygon fill="white" stroke="black" points="935.313,-120.5 935.313,-148.5 1109.15,-148.5 1109.15,-120.5 935.313,-120.5"/>
<text text-anchor="start" x="943.313" y="-136.5" font-family="Helvetica,sans-Serif" font-size="10.00">vtkvmtkUnstructuredGridFELaplace</text>
<text text-anchor="middle" x="1022.23" y="-126.5" font-family="Helvetica,sans-Serif" font-size="10.00">Assembler.h</text>
</a>
</g>
</g>
<!-- Node12&#45;&gt;Node16 -->
<g id="edge16" class="edge"><title>Node12&#45;&gt;Node16</title>
<path fill="none" stroke="midnightblue" d="M789.911,-183.452C836.767,-173.78 907.862,-159.106 959.06,-148.538"/>
<polygon fill="midnightblue" stroke="midnightblue" points="789.092,-180.047 780.006,-185.496 790.507,-186.902 789.092,-180.047"/>
</g>
<!-- Node17 -->
<g id="node17" class="node"><title>Node17</title>
<g id="a_node17"><a xlink:href="vtkvmtkUnstructuredGridFEVorticityAssembler_8h.html" target="_top" xlink:title="vtkvmtkUnstructuredGridFEVorticity\lAssembler.h">
<polygon fill="white" stroke="black" points="1127.32,-120.5 1127.32,-148.5 1301.14,-148.5 1301.14,-120.5 1127.32,-120.5"/>
<text text-anchor="start" x="1135.32" y="-136.5" font-family="Helvetica,sans-Serif" font-size="10.00">vtkvmtkUnstructuredGridFEVorticity</text>
<text text-anchor="middle" x="1214.23" y="-126.5" font-family="Helvetica,sans-Serif" font-size="10.00">Assembler.h</text>
</a>
</g>
</g>
<!-- Node12&#45;&gt;Node17 -->
<g id="edge17" class="edge"><title>Node12&#45;&gt;Node17</title>
<path fill="none" stroke="midnightblue" d="M810.722,-185.765C886.41,-177.232 1011.01,-162.865 1118.23,-149 1121.15,-148.622 1124.12,-148.233 1127.12,-147.836"/>
<polygon fill="midnightblue" stroke="midnightblue" points="809.92,-182.333 800.374,-186.93 810.703,-189.29 809.92,-182.333"/>
</g>
<!-- Node18&#45;&gt;Node5 -->
<g id="edge19" class="edge"><title>Node18&#45;&gt;Node5</title>
<path fill="none" stroke="midnightblue" d="M504.602,-300.281C501.515,-288.128 497.609,-272.747 495.271,-263.539"/>
<polygon fill="midnightblue" stroke="midnightblue" points="501.283,-301.433 507.137,-310.264 508.068,-299.71 501.283,-301.433"/>
</g>
<!-- Node19&#45;&gt;Node5 -->
<g id="edge21" class="edge"><title>Node19&#45;&gt;Node5</title>
<path fill="none" stroke="midnightblue" d="M609.202,-306.238C580.401,-293.638 536.385,-274.381 511.689,-263.576"/>
<polygon fill="midnightblue" stroke="midnightblue" points="608.134,-309.591 618.698,-310.393 610.94,-303.178 608.134,-309.591"/>
</g>
<!-- Node20 -->
<g id="node20" class="node"><title>Node20</title>
<g id="a_node20"><a xlink:href="vtkvmtkPolyDataMeanCurvature_8h.html" target="_top" xlink:title="vtkvmtkPolyDataMeanCurvature.h">
<polygon fill="white" stroke="black" points="569.367,-245.5 569.367,-263.5 737.091,-263.5 737.091,-245.5 569.367,-245.5"/>
<text text-anchor="middle" x="653.229" y="-251.5" font-family="Helvetica,sans-Serif" font-size="10.00">vtkvmtkPolyDataMeanCurvature.h</text>
</a>
</g>
</g>
<!-- Node19&#45;&gt;Node20 -->
<g id="edge22" class="edge"><title>Node19&#45;&gt;Node20</title>
<path fill="none" stroke="midnightblue" d="M641.856,-300.281C644.943,-288.128 648.849,-272.747 651.187,-263.539"/>
<polygon fill="midnightblue" stroke="midnightblue" points="638.39,-299.71 639.321,-310.264 645.175,-301.433 638.39,-299.71"/>
</g>
<!-- Node28&#45;&gt;Node27 -->
<g id="edge31" class="edge"><title>Node28&#45;&gt;Node27</title>
<path fill="none" stroke="midnightblue" d="M1808.47,-302.984C1797.81,-292.495 1783.89,-278.787 1773.74,-268.798"/>
<polygon fill="midnightblue" stroke="midnightblue" points="1806.28,-305.743 1815.86,-310.264 1811.19,-300.754 1806.28,-305.743"/>
</g>
</g>
</svg>
