<?xml version="1.0" encoding="UTF-8" standalone="no"?>
<!DOCTYPE svg PUBLIC "-//W3C//DTD SVG 1.1//EN"
 "http://www.w3.org/Graphics/SVG/1.1/DTD/svg11.dtd">
<!-- Generated by graphviz version 2.38.0 (20140413.2041)
 -->
<!-- Title: vtkvmtkNeighborhood.h Pages: 1 -->
<svg width="302pt" height="192pt"
 viewBox="0.00 0.00 302.42 192.00" xmlns="http://www.w3.org/2000/svg" xmlns:xlink="http://www.w3.org/1999/xlink">
<g id="graph0" class="graph" transform="scale(1 1) rotate(0) translate(4 188)">
<title>vtkvmtkNeighborhood.h</title>
<polygon fill="white" stroke="none" points="-4,4 -4,-188 298.421,-188 298.421,4 -4,4"/>
<!-- Node0 -->
<g id="node1" class="node"><title>Node0</title>
<polygon fill="#bfbfbf" stroke="black" points="63.4829,-165.5 63.4829,-183.5 184.537,-183.5 184.537,-165.5 63.4829,-165.5"/>
<text text-anchor="middle" x="124.01" y="-171.5" font-family="Helvetica,sans-Serif" font-size="10.00">vtkvmtkNeighborhood.h</text>
</g>
<!-- Node1 -->
<g id="node2" class="node"><title>Node1</title>
<polygon fill="white" stroke="#bfbfbf" points="0,-0.5 0,-18.5 66.0195,-18.5 66.0195,-0.5 0,-0.5"/>
<text text-anchor="middle" x="33.0098" y="-6.5" font-family="Helvetica,sans-Serif" font-size="10.00">vtkObject.h</text>
</g>
<!-- Node0&#45;&gt;Node1 -->
<g id="edge1" class="edge"><title>Node0&#45;&gt;Node1</title>
<path fill="none" stroke="midnightblue" d="M104.782,-165.48C89.7094,-158.186 69.4356,-145.964 58.0098,-129 37.3243,-98.2883 33.2679,-53.752 32.7507,-28.9459"/>
<polygon fill="midnightblue" stroke="midnightblue" points="36.2503,-28.7672 32.7193,-18.7781 29.2503,-28.7889 36.2503,-28.7672"/>
</g>
<!-- Node2 -->
<g id="node3" class="node"><title>Node2</title>
<g id="a_node3"><a xlink:href="vtkvmtkDataSetItem_8h.html" target="_top" xlink:title="vtkvmtkDataSetItem.h">
<polygon fill="white" stroke="black" points="67.106,-110.5 67.106,-128.5 180.914,-128.5 180.914,-110.5 67.106,-110.5"/>
<text text-anchor="middle" x="124.01" y="-116.5" font-family="Helvetica,sans-Serif" font-size="10.00">vtkvmtkDataSetItem.h</text>
</a>
</g>
</g>
<!-- Node0&#45;&gt;Node2 -->
<g id="edge2" class="edge"><title>Node0&#45;&gt;Node2</title>
<path fill="none" stroke="midnightblue" d="M124.01,-165.219C124.01,-158.177 124.01,-147.808 124.01,-138.828"/>
<polygon fill="midnightblue" stroke="midnightblue" points="127.51,-138.55 124.01,-128.55 120.51,-138.55 127.51,-138.55"/>
</g>
<!-- Node5 -->
<g id="node6" class="node"><title>Node5</title>
<polygon fill="white" stroke="#bfbfbf" points="175.599,-0.5 175.599,-18.5 294.421,-18.5 294.421,-0.5 175.599,-0.5"/>
<text text-anchor="middle" x="235.01" y="-6.5" font-family="Helvetica,sans-Serif" font-size="10.00">vtkvmtkWin32Header.h</text>
</g>
<!-- Node0&#45;&gt;Node5 -->
<g id="edge10" class="edge"><title>Node0&#45;&gt;Node5</title>
<path fill="none" stroke="midnightblue" d="M139.84,-165.443C154.183,-157.576 175.269,-144.541 190.01,-129 209.628,-108.317 212.872,-100.643 223.01,-74 228.626,-59.2394 231.694,-41.5121 233.319,-28.5436"/>
<polygon fill="midnightblue" stroke="midnightblue" points="236.802,-28.8856 234.402,-18.5663 229.843,-28.13 236.802,-28.8856"/>
</g>
<!-- Node2&#45;&gt;Node1 -->
<g id="edge3" class="edge"><title>Node2&#45;&gt;Node1</title>
<path fill="none" stroke="midnightblue" d="M117.17,-110.382C102.216,-92.6349 66.3748,-50.0981 46.6308,-26.6656"/>
<polygon fill="midnightblue" stroke="midnightblue" points="49.0491,-24.1038 39.9289,-18.7118 43.6959,-28.6143 49.0491,-24.1038"/>
</g>
<!-- Node3 -->
<g id="node4" class="node"><title>Node3</title>
<g id="a_node4"><a xlink:href="vtkvmtkItem_8h.html" target="_top" xlink:title="vtkvmtkItem.h">
<polygon fill="white" stroke="black" points="114.172,-55.5 114.172,-73.5 191.847,-73.5 191.847,-55.5 114.172,-55.5"/>
<text text-anchor="middle" x="153.01" y="-61.5" font-family="Helvetica,sans-Serif" font-size="10.00">vtkvmtkItem.h</text>
</a>
</g>
</g>
<!-- Node2&#45;&gt;Node3 -->
<g id="edge4" class="edge"><title>Node2&#45;&gt;Node3</title>
<path fill="none" stroke="midnightblue" d="M128.541,-110.219C132.608,-102.786 138.703,-91.646 143.793,-82.3446"/>
<polygon fill="midnightblue" stroke="midnightblue" points="146.876,-84.0023 148.605,-73.5496 140.735,-80.6421 146.876,-84.0023"/>
</g>
<!-- Node4 -->
<g id="node5" class="node"><title>Node4</title>
<polygon fill="white" stroke="#bfbfbf" points="84.3843,-0.5 84.3843,-18.5 157.635,-18.5 157.635,-0.5 84.3843,-0.5"/>
<text text-anchor="middle" x="121.01" y="-6.5" font-family="Helvetica,sans-Serif" font-size="10.00">vtkDataSet.h</text>
</g>
<!-- Node2&#45;&gt;Node4 -->
<g id="edge8" class="edge"><title>Node2&#45;&gt;Node4</title>
<path fill="none" stroke="midnightblue" d="M119.309,-110.3C114.621,-101.611 107.737,-87.3326 105.01,-74 101.806,-58.3368 106.95,-40.7207 112.237,-28.0235"/>
<polygon fill="midnightblue" stroke="midnightblue" points="115.542,-29.2142 116.532,-18.6657 109.18,-26.2942 115.542,-29.2142"/>
</g>
<!-- Node2&#45;&gt;Node5 -->
<g id="edge9" class="edge"><title>Node2&#45;&gt;Node5</title>
<path fill="none" stroke="midnightblue" d="M144.396,-110.488C161.234,-103.058 184.901,-90.6399 201.01,-74 213.638,-60.9553 222.878,-42.2824 228.512,-28.561"/>
<polygon fill="midnightblue" stroke="midnightblue" points="231.935,-29.4104 232.252,-18.8204 225.4,-26.901 231.935,-29.4104"/>
</g>
<!-- Node3&#45;&gt;Node1 -->
<g id="edge5" class="edge"><title>Node3&#45;&gt;Node1</title>
<path fill="none" stroke="midnightblue" d="M134.784,-55.4504C115.049,-46.734 83.3433,-32.7306 60.5625,-22.6691"/>
<polygon fill="midnightblue" stroke="midnightblue" points="61.9683,-19.4639 51.4067,-18.6253 59.1402,-25.8672 61.9683,-19.4639"/>
</g>
<!-- Node3&#45;&gt;Node4 -->
<g id="edge6" class="edge"><title>Node3&#45;&gt;Node4</title>
<path fill="none" stroke="midnightblue" d="M148.01,-55.2188C143.522,-47.7856 136.796,-36.646 131.18,-27.3446"/>
<polygon fill="midnightblue" stroke="midnightblue" points="134.035,-25.3012 125.87,-18.5496 128.042,-28.9193 134.035,-25.3012"/>
</g>
<!-- Node3&#45;&gt;Node5 -->
<g id="edge7" class="edge"><title>Node3&#45;&gt;Node5</title>
<path fill="none" stroke="midnightblue" d="M165.464,-55.4504C178.227,-47.201 198.317,-34.2158 213.63,-24.3187"/>
<polygon fill="midnightblue" stroke="midnightblue" points="215.94,-26.9931 222.439,-18.6253 212.14,-21.1142 215.94,-26.9931"/>
</g>
</g>
</svg>
