<?xml version="1.0" encoding="UTF-8" standalone="no"?>
<!DOCTYPE svg PUBLIC "-//W3C//DTD SVG 1.1//EN"
 "http://www.w3.org/Graphics/SVG/1.1/DTD/svg11.dtd">
<!-- Generated by graphviz version 2.38.0 (20140413.2041)
 -->
<!-- Title: vtkvmtkPolyDataSizingFunction.h Pages: 1 -->
<svg width="343pt" height="82pt"
 viewBox="0.00 0.00 343.38 82.00" xmlns="http://www.w3.org/2000/svg" xmlns:xlink="http://www.w3.org/1999/xlink">
<g id="graph0" class="graph" transform="scale(1 1) rotate(0) translate(4 78)">
<title>vtkvmtkPolyDataSizingFunction.h</title>
<polygon fill="white" stroke="none" points="-4,4 -4,-78 339.376,-78 339.376,4 -4,4"/>
<!-- Node0 -->
<g id="node1" class="node"><title>Node0</title>
<polygon fill="#bfbfbf" stroke="black" points="85.7686,-55.5 85.7686,-73.5 250.162,-73.5 250.162,-55.5 85.7686,-55.5"/>
<text text-anchor="middle" x="167.965" y="-61.5" font-family="Helvetica,sans-Serif" font-size="10.00">vtkvmtkPolyDataSizingFunction.h</text>
</g>
<!-- Node1 -->
<g id="node2" class="node"><title>Node1</title>
<polygon fill="white" stroke="#bfbfbf" points="0,-0.5 0,-18.5 119.931,-18.5 119.931,-0.5 0,-0.5"/>
<text text-anchor="middle" x="59.9653" y="-6.5" font-family="Helvetica,sans-Serif" font-size="10.00">vtkPolyDataAlgorithm.h</text>
</g>
<!-- Node0&#45;&gt;Node1 -->
<g id="edge1" class="edge"><title>Node0&#45;&gt;Node1</title>
<path fill="none" stroke="midnightblue" d="M151.562,-55.4504C134.039,-46.8508 106.028,-33.1048 85.5909,-23.0755"/>
<polygon fill="midnightblue" stroke="midnightblue" points="87.0418,-19.8888 76.5226,-18.6253 83.9579,-26.1729 87.0418,-19.8888"/>
</g>
<!-- Node2 -->
<g id="node3" class="node"><title>Node2</title>
<polygon fill="white" stroke="#bfbfbf" points="137.456,-0.5 137.456,-18.5 198.475,-18.5 198.475,-0.5 137.456,-0.5"/>
<text text-anchor="middle" x="167.965" y="-6.5" font-family="Helvetica,sans-Serif" font-size="10.00">vtkIdList.h</text>
</g>
<!-- Node0&#45;&gt;Node2 -->
<g id="edge2" class="edge"><title>Node0&#45;&gt;Node2</title>
<path fill="none" stroke="midnightblue" d="M167.965,-55.2188C167.965,-48.1769 167.965,-37.8083 167.965,-28.8277"/>
<polygon fill="midnightblue" stroke="midnightblue" points="171.465,-28.5495 167.965,-18.5496 164.465,-28.5496 171.465,-28.5495"/>
</g>
<!-- Node3 -->
<g id="node4" class="node"><title>Node3</title>
<polygon fill="white" stroke="#bfbfbf" points="216.554,-0.5 216.554,-18.5 335.376,-18.5 335.376,-0.5 216.554,-0.5"/>
<text text-anchor="middle" x="275.965" y="-6.5" font-family="Helvetica,sans-Serif" font-size="10.00">vtkvmtkWin32Header.h</text>
</g>
<!-- Node0&#45;&gt;Node3 -->
<g id="edge3" class="edge"><title>Node0&#45;&gt;Node3</title>
<path fill="none" stroke="midnightblue" d="M184.368,-55.4504C201.892,-46.8508 229.903,-33.1048 250.34,-23.0755"/>
<polygon fill="midnightblue" stroke="midnightblue" points="251.973,-26.1729 259.408,-18.6253 248.889,-19.8888 251.973,-26.1729"/>
</g>
</g>
</svg>
