<?xml version="1.0" encoding="UTF-8" standalone="no"?>
<!DOCTYPE svg PUBLIC "-//W3C//DTD SVG 1.1//EN"
 "http://www.w3.org/Graphics/SVG/1.1/DTD/svg11.dtd">
<!-- Generated by graphviz version 2.38.0 (20140413.2041)
 -->
<!-- Title: vtkvmtkPolyDataCenterlineAbscissaMetricFilter.h Pages: 1 -->
<svg width="360pt" height="157pt"
 viewBox="0.00 0.00 360.26 157.00" xmlns="http://www.w3.org/2000/svg" xmlns:xlink="http://www.w3.org/1999/xlink">
<g id="graph0" class="graph" transform="scale(1 1) rotate(0) translate(4 153)">
<title>vtkvmtkPolyDataCenterlineAbscissaMetricFilter.h</title>
<polygon fill="white" stroke="none" points="-4,4 -4,-153 356.258,-153 356.258,4 -4,4"/>
<!-- Node0 -->
<g id="node1" class="node"><title>Node0</title>
<polygon fill="#bfbfbf" stroke="black" points="128.389,-120.5 128.389,-148.5 264.433,-148.5 264.433,-120.5 128.389,-120.5"/>
<text text-anchor="start" x="136.389" y="-136.5" font-family="Helvetica,sans-Serif" font-size="10.00">vtkvmtkPolyDataCenterline</text>
<text text-anchor="middle" x="196.411" y="-126.5" font-family="Helvetica,sans-Serif" font-size="10.00">AbscissaMetricFilter.h</text>
</g>
<!-- Node1 -->
<g id="node2" class="node"><title>Node1</title>
<g id="a_node2"><a xlink:href="vtkvmtkPolyDataCenterlineMetricFilter_8h.html" target="_top" xlink:title="vtkvmtkPolyDataCenterline\lMetricFilter.h">
<polygon fill="white" stroke="black" points="128.389,-55.5 128.389,-83.5 264.433,-83.5 264.433,-55.5 128.389,-55.5"/>
<text text-anchor="start" x="136.389" y="-71.5" font-family="Helvetica,sans-Serif" font-size="10.00">vtkvmtkPolyDataCenterline</text>
<text text-anchor="middle" x="196.411" y="-61.5" font-family="Helvetica,sans-Serif" font-size="10.00">MetricFilter.h</text>
</a>
</g>
</g>
<!-- Node0&#45;&gt;Node1 -->
<g id="edge1" class="edge"><title>Node0&#45;&gt;Node1</title>
<path fill="none" stroke="midnightblue" d="M196.411,-120.446C196.411,-112.759 196.411,-102.81 196.411,-93.8163"/>
<polygon fill="midnightblue" stroke="midnightblue" points="199.911,-93.5369 196.411,-83.5369 192.911,-93.537 199.911,-93.5369"/>
</g>
<!-- Node3 -->
<g id="node4" class="node"><title>Node3</title>
<polygon fill="white" stroke="#bfbfbf" points="0,-0.5 0,-18.5 118.822,-18.5 118.822,-0.5 0,-0.5"/>
<text text-anchor="middle" x="59.4111" y="-6.5" font-family="Helvetica,sans-Serif" font-size="10.00">vtkvmtkWin32Header.h</text>
</g>
<!-- Node0&#45;&gt;Node3 -->
<g id="edge5" class="edge"><title>Node0&#45;&gt;Node3</title>
<path fill="none" stroke="midnightblue" d="M171.793,-120.354C155.954,-111.272 135.416,-98.2873 119.411,-84 100.099,-66.7606 81.8864,-42.988 70.7011,-27.2005"/>
<polygon fill="midnightblue" stroke="midnightblue" points="73.5464,-25.1614 64.9723,-18.9375 67.7937,-29.1498 73.5464,-25.1614"/>
</g>
<!-- Node4 -->
<g id="node5" class="node"><title>Node4</title>
<polygon fill="white" stroke="#bfbfbf" points="274.564,-0.5 274.564,-18.5 352.258,-18.5 352.258,-0.5 274.564,-0.5"/>
<text text-anchor="middle" x="313.411" y="-6.5" font-family="Helvetica,sans-Serif" font-size="10.00">vtkPolyData.h</text>
</g>
<!-- Node0&#45;&gt;Node4 -->
<g id="edge6" class="edge"><title>Node0&#45;&gt;Node4</title>
<path fill="none" stroke="midnightblue" d="M223.786,-120.327C239.708,-111.66 259.345,-99.1316 273.411,-84 288.681,-67.5739 300.08,-44.2309 306.724,-28.2864"/>
<polygon fill="midnightblue" stroke="midnightblue" points="310.13,-29.1921 310.553,-18.6058 303.62,-26.6173 310.13,-29.1921"/>
</g>
<!-- Node2 -->
<g id="node3" class="node"><title>Node2</title>
<polygon fill="white" stroke="#bfbfbf" points="136.446,-0.5 136.446,-18.5 256.376,-18.5 256.376,-0.5 136.446,-0.5"/>
<text text-anchor="middle" x="196.411" y="-6.5" font-family="Helvetica,sans-Serif" font-size="10.00">vtkPolyDataAlgorithm.h</text>
</g>
<!-- Node1&#45;&gt;Node2 -->
<g id="edge2" class="edge"><title>Node1&#45;&gt;Node2</title>
<path fill="none" stroke="midnightblue" d="M196.411,-55.3389C196.411,-47.5305 196.411,-37.5122 196.411,-28.9265"/>
<polygon fill="midnightblue" stroke="midnightblue" points="199.911,-28.7714 196.411,-18.7715 192.911,-28.7715 199.911,-28.7714"/>
</g>
<!-- Node1&#45;&gt;Node3 -->
<g id="edge3" class="edge"><title>Node1&#45;&gt;Node3</title>
<path fill="none" stroke="midnightblue" d="M165.666,-55.4837C142.438,-45.65 110.787,-32.2505 88.0822,-22.6381"/>
<polygon fill="midnightblue" stroke="midnightblue" points="89.2197,-19.319 78.6464,-18.6434 86.4906,-25.7651 89.2197,-19.319"/>
</g>
<!-- Node1&#45;&gt;Node4 -->
<g id="edge4" class="edge"><title>Node1&#45;&gt;Node4</title>
<path fill="none" stroke="midnightblue" d="M222.668,-55.4837C242.149,-45.8264 268.568,-32.73 287.875,-23.159"/>
<polygon fill="midnightblue" stroke="midnightblue" points="289.579,-26.2208 296.984,-18.6434 286.47,-19.9491 289.579,-26.2208"/>
</g>
</g>
</svg>
