<?xml version="1.0" encoding="UTF-8" standalone="no"?>
<!DOCTYPE svg PUBLIC "-//W3C//DTD SVG 1.1//EN"
 "http://www.w3.org/Graphics/SVG/1.1/DTD/svg11.dtd">
<!-- Generated by graphviz version 2.38.0 (20140413.2041)
 -->
<!-- Title: vtkvmtkPolyDataCenterlineGroupsClipper.h Pages: 1 -->
<svg width="439pt" height="92pt"
 viewBox="0.00 0.00 439.38 92.00" xmlns="http://www.w3.org/2000/svg" xmlns:xlink="http://www.w3.org/1999/xlink">
<g id="graph0" class="graph" transform="scale(1 1) rotate(0) translate(4 88)">
<title>vtkvmtkPolyDataCenterlineGroupsClipper.h</title>
<polygon fill="white" stroke="none" points="-4,4 -4,-88 435.376,-88 435.376,4 -4,4"/>
<!-- Node0 -->
<g id="node1" class="node"><title>Node0</title>
<polygon fill="#bfbfbf" stroke="black" points="151.943,-55.5 151.943,-83.5 287.987,-83.5 287.987,-55.5 151.943,-55.5"/>
<text text-anchor="start" x="159.943" y="-71.5" font-family="Helvetica,sans-Serif" font-size="10.00">vtkvmtkPolyDataCenterline</text>
<text text-anchor="middle" x="219.965" y="-61.5" font-family="Helvetica,sans-Serif" font-size="10.00">GroupsClipper.h</text>
</g>
<!-- Node1 -->
<g id="node2" class="node"><title>Node1</title>
<polygon fill="white" stroke="#bfbfbf" points="0,-0.5 0,-18.5 119.931,-18.5 119.931,-0.5 0,-0.5"/>
<text text-anchor="middle" x="59.9653" y="-6.5" font-family="Helvetica,sans-Serif" font-size="10.00">vtkPolyDataAlgorithm.h</text>
</g>
<!-- Node0&#45;&gt;Node1 -->
<g id="edge1" class="edge"><title>Node0&#45;&gt;Node1</title>
<path fill="none" stroke="midnightblue" d="M184.058,-55.4837C156.444,-45.4736 118.637,-31.7686 92.0331,-22.1246"/>
<polygon fill="midnightblue" stroke="midnightblue" points="93.0241,-18.761 82.4299,-18.6434 90.6385,-25.3419 93.0241,-18.761"/>
</g>
<!-- Node2 -->
<g id="node3" class="node"><title>Node2</title>
<polygon fill="white" stroke="#bfbfbf" points="138.118,-0.5 138.118,-18.5 215.812,-18.5 215.812,-0.5 138.118,-0.5"/>
<text text-anchor="middle" x="176.965" y="-6.5" font-family="Helvetica,sans-Serif" font-size="10.00">vtkPolyData.h</text>
</g>
<!-- Node0&#45;&gt;Node2 -->
<g id="edge2" class="edge"><title>Node0&#45;&gt;Node2</title>
<path fill="none" stroke="midnightblue" d="M210.208,-55.3389C203.964,-46.9164 195.813,-35.9226 189.145,-26.929"/>
<polygon fill="midnightblue" stroke="midnightblue" points="191.865,-24.7201 183.098,-18.7715 186.242,-28.8891 191.865,-24.7201"/>
</g>
<!-- Node3 -->
<g id="node4" class="node"><title>Node3</title>
<polygon fill="white" stroke="#bfbfbf" points="233.456,-0.5 233.456,-18.5 294.475,-18.5 294.475,-0.5 233.456,-0.5"/>
<text text-anchor="middle" x="263.965" y="-6.5" font-family="Helvetica,sans-Serif" font-size="10.00">vtkIdList.h</text>
</g>
<!-- Node0&#45;&gt;Node3 -->
<g id="edge3" class="edge"><title>Node0&#45;&gt;Node3</title>
<path fill="none" stroke="midnightblue" d="M229.95,-55.3389C236.339,-46.9164 244.679,-35.9226 251.502,-26.929"/>
<polygon fill="midnightblue" stroke="midnightblue" points="254.435,-28.8538 257.69,-18.7715 248.858,-24.623 254.435,-28.8538"/>
</g>
<!-- Node4 -->
<g id="node5" class="node"><title>Node4</title>
<polygon fill="white" stroke="#bfbfbf" points="312.554,-0.5 312.554,-18.5 431.376,-18.5 431.376,-0.5 312.554,-0.5"/>
<text text-anchor="middle" x="371.965" y="-6.5" font-family="Helvetica,sans-Serif" font-size="10.00">vtkvmtkWin32Header.h</text>
</g>
<!-- Node0&#45;&gt;Node4 -->
<g id="edge4" class="edge"><title>Node0&#45;&gt;Node4</title>
<path fill="none" stroke="midnightblue" d="M254.077,-55.4837C280.195,-45.5177 315.911,-31.8893 341.166,-22.2523"/>
<polygon fill="midnightblue" stroke="midnightblue" points="342.529,-25.4786 350.624,-18.6434 340.033,-18.9385 342.529,-25.4786"/>
</g>
</g>
</svg>
