<?xml version="1.0" encoding="UTF-8" standalone="no"?>
<!DOCTYPE svg PUBLIC "-//W3C//DTD SVG 1.1//EN"
 "http://www.w3.org/Graphics/SVG/1.1/DTD/svg11.dtd">
<!-- Generated by graphviz version 2.38.0 (20140413.2041)
 -->
<!-- Title: vtkvmtkSurfaceProjection.h Pages: 1 -->
<svg width="360pt" height="82pt"
 viewBox="0.00 0.00 360.38 82.00" xmlns="http://www.w3.org/2000/svg" xmlns:xlink="http://www.w3.org/1999/xlink">
<g id="graph0" class="graph" transform="scale(1 1) rotate(0) translate(4 78)">
<title>vtkvmtkSurfaceProjection.h</title>
<polygon fill="white" stroke="none" points="-4,4 -4,-78 356.376,-78 356.376,4 -4,4"/>
<!-- Node0 -->
<g id="node1" class="node"><title>Node0</title>
<polygon fill="#bfbfbf" stroke="black" points="108.387,-55.5 108.387,-73.5 245.544,-73.5 245.544,-55.5 108.387,-55.5"/>
<text text-anchor="middle" x="176.965" y="-61.5" font-family="Helvetica,sans-Serif" font-size="10.00">vtkvmtkSurfaceProjection.h</text>
</g>
<!-- Node1 -->
<g id="node2" class="node"><title>Node1</title>
<polygon fill="white" stroke="#bfbfbf" points="0,-0.5 0,-18.5 119.931,-18.5 119.931,-0.5 0,-0.5"/>
<text text-anchor="middle" x="59.9653" y="-6.5" font-family="Helvetica,sans-Serif" font-size="10.00">vtkPolyDataAlgorithm.h</text>
</g>
<!-- Node0&#45;&gt;Node1 -->
<g id="edge1" class="edge"><title>Node0&#45;&gt;Node1</title>
<path fill="none" stroke="midnightblue" d="M159.196,-55.4504C140.04,-46.7729 109.316,-32.8556 87.1273,-22.8041"/>
<polygon fill="midnightblue" stroke="midnightblue" points="88.4556,-19.5635 77.9023,-18.6253 85.5671,-25.9398 88.4556,-19.5635"/>
</g>
<!-- Node2 -->
<g id="node3" class="node"><title>Node2</title>
<polygon fill="white" stroke="#bfbfbf" points="138.118,-0.5 138.118,-18.5 215.812,-18.5 215.812,-0.5 138.118,-0.5"/>
<text text-anchor="middle" x="176.965" y="-6.5" font-family="Helvetica,sans-Serif" font-size="10.00">vtkPolyData.h</text>
</g>
<!-- Node0&#45;&gt;Node2 -->
<g id="edge2" class="edge"><title>Node0&#45;&gt;Node2</title>
<path fill="none" stroke="midnightblue" d="M176.965,-55.2188C176.965,-48.1769 176.965,-37.8083 176.965,-28.8277"/>
<polygon fill="midnightblue" stroke="midnightblue" points="180.465,-28.5495 176.965,-18.5496 173.465,-28.5496 180.465,-28.5495"/>
</g>
<!-- Node3 -->
<g id="node4" class="node"><title>Node3</title>
<polygon fill="white" stroke="#bfbfbf" points="233.554,-0.5 233.554,-18.5 352.376,-18.5 352.376,-0.5 233.554,-0.5"/>
<text text-anchor="middle" x="292.965" y="-6.5" font-family="Helvetica,sans-Serif" font-size="10.00">vtkvmtkWin32Header.h</text>
</g>
<!-- Node0&#45;&gt;Node3 -->
<g id="edge3" class="edge"><title>Node0&#45;&gt;Node3</title>
<path fill="none" stroke="midnightblue" d="M194.583,-55.4504C213.575,-46.7729 244.036,-32.8556 266.036,-22.8041"/>
<polygon fill="midnightblue" stroke="midnightblue" points="267.541,-25.9646 275.182,-18.6253 264.631,-19.5977 267.541,-25.9646"/>
</g>
</g>
</svg>
