<?xml version="1.0" encoding="UTF-8" standalone="no"?>
<!DOCTYPE svg PUBLIC "-//W3C//DTD SVG 1.1//EN"
 "http://www.w3.org/Graphics/SVG/1.1/DTD/svg11.dtd">
<!-- Generated by graphviz version 2.38.0 (20140413.2041)
 -->
<!-- Title: vtkvmtkMeshVorticity.h Pages: 1 -->
<svg width="431pt" height="82pt"
 viewBox="0.00 0.00 431.16 82.00" xmlns="http://www.w3.org/2000/svg" xmlns:xlink="http://www.w3.org/1999/xlink">
<g id="graph0" class="graph" transform="scale(1 1) rotate(0) translate(4 78)">
<title>vtkvmtkMeshVorticity.h</title>
<polygon fill="white" stroke="none" points="-4,4 -4,-78 427.157,-78 427.157,4 -4,4"/>
<!-- Node0 -->
<g id="node1" class="node"><title>Node0</title>
<polygon fill="#bfbfbf" stroke="black" points="171.268,-55.5 171.268,-73.5 288.225,-73.5 288.225,-55.5 171.268,-55.5"/>
<text text-anchor="middle" x="229.746" y="-61.5" font-family="Helvetica,sans-Serif" font-size="10.00">vtkvmtkMeshVorticity.h</text>
</g>
<!-- Node1 -->
<g id="node2" class="node"><title>Node1</title>
<polygon fill="white" stroke="#bfbfbf" points="0,-0.5 0,-18.5 155.492,-18.5 155.492,-0.5 0,-0.5"/>
<text text-anchor="middle" x="77.7461" y="-6.5" font-family="Helvetica,sans-Serif" font-size="10.00">vtkUnstructuredGridAlgorithm.h</text>
</g>
<!-- Node0&#45;&gt;Node1 -->
<g id="edge1" class="edge"><title>Node0&#45;&gt;Node1</title>
<path fill="none" stroke="midnightblue" d="M206.661,-55.4504C181.105,-46.5395 139.701,-32.1029 110.731,-22.0014"/>
<polygon fill="midnightblue" stroke="midnightblue" points="111.644,-18.613 101.049,-18.6253 109.339,-25.2227 111.644,-18.613"/>
</g>
<!-- Node2 -->
<g id="node3" class="node"><title>Node2</title>
<polygon fill="white" stroke="#bfbfbf" points="173.118,-0.5 173.118,-18.5 286.374,-18.5 286.374,-0.5 173.118,-0.5"/>
<text text-anchor="middle" x="229.746" y="-6.5" font-family="Helvetica,sans-Serif" font-size="10.00">vtkUnstructuredGrid.h</text>
</g>
<!-- Node0&#45;&gt;Node2 -->
<g id="edge2" class="edge"><title>Node0&#45;&gt;Node2</title>
<path fill="none" stroke="midnightblue" d="M229.746,-55.2188C229.746,-48.1769 229.746,-37.8083 229.746,-28.8277"/>
<polygon fill="midnightblue" stroke="midnightblue" points="233.246,-28.5495 229.746,-18.5496 226.246,-28.5496 233.246,-28.5495"/>
</g>
<!-- Node3 -->
<g id="node4" class="node"><title>Node3</title>
<polygon fill="white" stroke="#bfbfbf" points="304.335,-0.5 304.335,-18.5 423.157,-18.5 423.157,-0.5 304.335,-0.5"/>
<text text-anchor="middle" x="363.746" y="-6.5" font-family="Helvetica,sans-Serif" font-size="10.00">vtkvmtkWin32Header.h</text>
</g>
<!-- Node0&#45;&gt;Node3 -->
<g id="edge3" class="edge"><title>Node0&#45;&gt;Node3</title>
<path fill="none" stroke="midnightblue" d="M250.098,-55.4504C272.332,-46.6562 308.174,-32.4802 333.658,-22.4006"/>
<polygon fill="midnightblue" stroke="midnightblue" points="335.191,-25.558 343.203,-18.6253 332.616,-19.0487 335.191,-25.558"/>
</g>
</g>
</svg>
