<?xml version="1.0" encoding="UTF-8" standalone="no"?>
<!DOCTYPE svg PUBLIC "-//W3C//DTD SVG 1.1//EN"
 "http://www.w3.org/Graphics/SVG/1.1/DTD/svg11.dtd">
<!-- Generated by graphviz version 2.38.0 (20140413.2041)
 -->
<!-- Title: vtkvmtkNonManifoldSteepestDescent.h Pages: 1 -->
<svg width="364pt" height="92pt"
 viewBox="0.00 0.00 364.38 92.00" xmlns="http://www.w3.org/2000/svg" xmlns:xlink="http://www.w3.org/1999/xlink">
<g id="graph0" class="graph" transform="scale(1 1) rotate(0) translate(4 88)">
<title>vtkvmtkNonManifoldSteepestDescent.h</title>
<polygon fill="white" stroke="none" points="-4,4 -4,-88 360.376,-88 360.376,4 -4,4"/>
<!-- Node0 -->
<g id="node1" class="node"><title>Node0</title>
<polygon fill="#bfbfbf" stroke="black" points="106.214,-55.5 106.214,-83.5 251.716,-83.5 251.716,-55.5 106.214,-55.5"/>
<text text-anchor="start" x="114.214" y="-71.5" font-family="Helvetica,sans-Serif" font-size="10.00">vtkvmtkNonManifoldSteepest</text>
<text text-anchor="middle" x="178.965" y="-61.5" font-family="Helvetica,sans-Serif" font-size="10.00">Descent.h</text>
</g>
<!-- Node1 -->
<g id="node2" class="node"><title>Node1</title>
<polygon fill="white" stroke="#bfbfbf" points="0,-0.5 0,-18.5 119.931,-18.5 119.931,-0.5 0,-0.5"/>
<text text-anchor="middle" x="59.9653" y="-6.5" font-family="Helvetica,sans-Serif" font-size="10.00">vtkPolyDataAlgorithm.h</text>
</g>
<!-- Node0&#45;&gt;Node1 -->
<g id="edge1" class="edge"><title>Node0&#45;&gt;Node1</title>
<path fill="none" stroke="midnightblue" d="M152.259,-55.4837C132.355,-45.7823 105.33,-32.6103 85.6696,-23.0281"/>
<polygon fill="midnightblue" stroke="midnightblue" points="87.196,-19.8785 76.6734,-18.6434 84.129,-26.1709 87.196,-19.8785"/>
</g>
<!-- Node2 -->
<g id="node3" class="node"><title>Node2</title>
<polygon fill="white" stroke="#bfbfbf" points="138.268,-0.5 138.268,-18.5 219.663,-18.5 219.663,-0.5 138.268,-0.5"/>
<text text-anchor="middle" x="178.965" y="-6.5" font-family="Helvetica,sans-Serif" font-size="10.00">vtkDataArray.h</text>
</g>
<!-- Node0&#45;&gt;Node2 -->
<g id="edge2" class="edge"><title>Node0&#45;&gt;Node2</title>
<path fill="none" stroke="midnightblue" d="M178.965,-55.3389C178.965,-47.5305 178.965,-37.5122 178.965,-28.9265"/>
<polygon fill="midnightblue" stroke="midnightblue" points="182.465,-28.7714 178.965,-18.7715 175.465,-28.7715 182.465,-28.7714"/>
</g>
<!-- Node3 -->
<g id="node4" class="node"><title>Node3</title>
<polygon fill="white" stroke="#bfbfbf" points="237.554,-0.5 237.554,-18.5 356.376,-18.5 356.376,-0.5 237.554,-0.5"/>
<text text-anchor="middle" x="296.965" y="-6.5" font-family="Helvetica,sans-Serif" font-size="10.00">vtkvmtkWin32Header.h</text>
</g>
<!-- Node0&#45;&gt;Node3 -->
<g id="edge3" class="edge"><title>Node0&#45;&gt;Node3</title>
<path fill="none" stroke="midnightblue" d="M205.447,-55.4837C225.094,-45.8264 251.739,-32.73 271.211,-23.159"/>
<polygon fill="midnightblue" stroke="midnightblue" points="272.967,-26.1957 280.398,-18.6434 269.879,-19.9136 272.967,-26.1957"/>
</g>
</g>
</svg>
