<?xml version="1.0" encoding="UTF-8" standalone="no"?>
<!DOCTYPE svg PUBLIC "-//W3C//DTD SVG 1.1//EN"
 "http://www.w3.org/Graphics/SVG/1.1/DTD/svg11.dtd">
<!-- Generated by graphviz version 2.38.0 (20140413.2041)
 -->
<!-- Title: vtkvmtkFDNEUTReader.h Pages: 1 -->
<svg width="290pt" height="82pt"
 viewBox="0.00 0.00 290.16 82.00" xmlns="http://www.w3.org/2000/svg" xmlns:xlink="http://www.w3.org/1999/xlink">
<g id="graph0" class="graph" transform="scale(1 1) rotate(0) translate(4 78)">
<title>vtkvmtkFDNEUTReader.h</title>
<polygon fill="white" stroke="none" points="-4,4 -4,-78 286.165,-78 286.165,4 -4,4"/>
<!-- Node0 -->
<g id="node1" class="node"><title>Node0</title>
<polygon fill="#bfbfbf" stroke="black" points="68.8965,-55.5 68.8965,-73.5 199.926,-73.5 199.926,-55.5 68.8965,-55.5"/>
<text text-anchor="middle" x="134.411" y="-61.5" font-family="Helvetica,sans-Serif" font-size="10.00">vtkvmtkFDNEUTReader.h</text>
</g>
<!-- Node1 -->
<g id="node2" class="node"><title>Node1</title>
<polygon fill="white" stroke="#bfbfbf" points="0,-0.5 0,-18.5 118.822,-18.5 118.822,-0.5 0,-0.5"/>
<text text-anchor="middle" x="59.4111" y="-6.5" font-family="Helvetica,sans-Serif" font-size="10.00">vtkvmtkWin32Header.h</text>
</g>
<!-- Node0&#45;&gt;Node1 -->
<g id="edge1" class="edge"><title>Node0&#45;&gt;Node1</title>
<path fill="none" stroke="midnightblue" d="M123.02,-55.4504C111.457,-47.2788 93.3174,-34.4604 79.3634,-24.5996"/>
<polygon fill="midnightblue" stroke="midnightblue" points="81.0958,-21.5381 70.9092,-18.6253 77.056,-27.2548 81.0958,-21.5381"/>
</g>
<!-- Node2 -->
<g id="node3" class="node"><title>Node2</title>
<polygon fill="white" stroke="#bfbfbf" points="136.658,-0.5 136.658,-18.5 282.165,-18.5 282.165,-0.5 136.658,-0.5"/>
<text text-anchor="middle" x="209.411" y="-6.5" font-family="Helvetica,sans-Serif" font-size="10.00">vtkUnstructuredGridReader.h</text>
</g>
<!-- Node0&#45;&gt;Node2 -->
<g id="edge2" class="edge"><title>Node0&#45;&gt;Node2</title>
<path fill="none" stroke="midnightblue" d="M145.802,-55.4504C157.366,-47.2788 175.505,-34.4604 189.459,-24.5996"/>
<polygon fill="midnightblue" stroke="midnightblue" points="191.766,-27.2548 197.913,-18.6253 187.726,-21.5381 191.766,-27.2548"/>
</g>
</g>
</svg>
