<?xml version="1.0" encoding="UTF-8" standalone="no"?>
<!DOCTYPE svg PUBLIC "-//W3C//DTD SVG 1.1//EN"
 "http://www.w3.org/Graphics/SVG/1.1/DTD/svg11.dtd">
<!-- Generated by graphviz version 2.38.0 (20140413.2041)
 -->
<!-- Title: vtkvmtkSparseMatrixRow.h Pages: 1 -->
<svg width="540pt" height="302pt"
 viewBox="0.00 0.00 539.63 302.00" xmlns="http://www.w3.org/2000/svg" xmlns:xlink="http://www.w3.org/1999/xlink">
<g id="graph0" class="graph" transform="scale(1 1) rotate(0) translate(4 298)">
<title>vtkvmtkSparseMatrixRow.h</title>
<polygon fill="white" stroke="none" points="-4,4 -4,-298 535.625,-298 535.625,4 -4,4"/>
<!-- Node0 -->
<g id="node1" class="node"><title>Node0</title>
<polygon fill="#bfbfbf" stroke="black" points="259.705,-275.5 259.705,-293.5 396.295,-293.5 396.295,-275.5 259.705,-275.5"/>
<text text-anchor="middle" x="328" y="-281.5" font-family="Helvetica,sans-Serif" font-size="10.00">vtkvmtkSparseMatrixRow.h</text>
</g>
<!-- Node1 -->
<g id="node2" class="node"><title>Node1</title>
<polygon fill="white" stroke="#bfbfbf" points="42.9902,-0.5 42.9902,-18.5 109.01,-18.5 109.01,-0.5 42.9902,-0.5"/>
<text text-anchor="middle" x="76" y="-6.5" font-family="Helvetica,sans-Serif" font-size="10.00">vtkObject.h</text>
</g>
<!-- Node0&#45;&gt;Node1 -->
<g id="edge1" class="edge"><title>Node0&#45;&gt;Node1</title>
<path fill="none" stroke="midnightblue" d="M262.806,-275.489C167.151,-261.887 0,-230.281 0,-175.5 0,-175.5 0,-175.5 0,-118.5 0,-79.0599 34.317,-43.8584 56.8312,-25.0079"/>
<polygon fill="midnightblue" stroke="midnightblue" points="59.1877,-27.6042 64.7859,-18.6091 54.8002,-22.1498 59.1877,-27.6042"/>
</g>
<!-- Node2 -->
<g id="node3" class="node"><title>Node2</title>
<g id="a_node3"><a xlink:href="vtkvmtkStencil_8h.html" target="_top" xlink:title="vtkvmtkStencil.h">
<polygon fill="white" stroke="black" points="211.879,-220.5 211.879,-238.5 300.121,-238.5 300.121,-220.5 211.879,-220.5"/>
<text text-anchor="middle" x="256" y="-226.5" font-family="Helvetica,sans-Serif" font-size="10.00">vtkvmtkStencil.h</text>
</a>
</g>
</g>
<!-- Node0&#45;&gt;Node2 -->
<g id="edge2" class="edge"><title>Node0&#45;&gt;Node2</title>
<path fill="none" stroke="midnightblue" d="M317.065,-275.45C305.964,-267.279 288.55,-254.46 275.154,-244.6"/>
<polygon fill="midnightblue" stroke="midnightblue" points="277.166,-241.735 267.038,-238.625 273.017,-247.372 277.166,-241.735"/>
</g>
<!-- Node3 -->
<g id="node4" class="node"><title>Node3</title>
<g id="a_node4"><a xlink:href="vtkvmtkNeighborhood_8h.html" target="_top" xlink:title="vtkvmtkNeighborhood.h">
<polygon fill="white" stroke="black" points="195.473,-165.5 195.473,-183.5 316.527,-183.5 316.527,-165.5 195.473,-165.5"/>
<text text-anchor="middle" x="256" y="-171.5" font-family="Helvetica,sans-Serif" font-size="10.00">vtkvmtkNeighborhood.h</text>
</a>
</g>
</g>
<!-- Node0&#45;&gt;Node3 -->
<g id="edge16" class="edge"><title>Node0&#45;&gt;Node3</title>
<path fill="none" stroke="midnightblue" d="M327.097,-275.455C325.358,-262.756 320.631,-237.693 309,-220 301.06,-207.921 288.876,-197.367 278.192,-189.572"/>
<polygon fill="midnightblue" stroke="midnightblue" points="279.913,-186.507 269.696,-183.701 275.933,-192.265 279.913,-186.507"/>
</g>
<!-- Node7 -->
<g id="node8" class="node"><title>Node7</title>
<polygon fill="white" stroke="#bfbfbf" points="264.589,-0.5 264.589,-18.5 383.411,-18.5 383.411,-0.5 264.589,-0.5"/>
<text text-anchor="middle" x="324" y="-6.5" font-family="Helvetica,sans-Serif" font-size="10.00">vtkvmtkWin32Header.h</text>
</g>
<!-- Node0&#45;&gt;Node7 -->
<g id="edge18" class="edge"><title>Node0&#45;&gt;Node7</title>
<path fill="none" stroke="midnightblue" d="M338.624,-275.257C358.652,-258.698 400,-219.217 400,-175.5 400,-175.5 400,-175.5 400,-118.5 400,-79.0599 365.683,-43.8584 343.169,-25.0079"/>
<polygon fill="midnightblue" stroke="midnightblue" points="345.2,-22.1498 335.214,-18.6091 340.812,-27.6042 345.2,-22.1498"/>
</g>
<!-- Node8 -->
<g id="node9" class="node"><title>Node8</title>
<g id="a_node9"><a xlink:href="vtkvmtkConstants_8h.html" target="_top" xlink:title="vtkvmtkConstants.h">
<polygon fill="white" stroke="black" points="428.375,-220.5 428.375,-238.5 531.625,-238.5 531.625,-220.5 428.375,-220.5"/>
<text text-anchor="middle" x="480" y="-226.5" font-family="Helvetica,sans-Serif" font-size="10.00">vtkvmtkConstants.h</text>
</a>
</g>
</g>
<!-- Node0&#45;&gt;Node8 -->
<g id="edge17" class="edge"><title>Node0&#45;&gt;Node8</title>
<path fill="none" stroke="midnightblue" d="M351.086,-275.45C376.642,-266.539 418.045,-252.103 447.015,-242.001"/>
<polygon fill="midnightblue" stroke="midnightblue" points="448.407,-245.223 456.697,-238.625 446.102,-238.613 448.407,-245.223"/>
</g>
<!-- Node2&#45;&gt;Node1 -->
<g id="edge3" class="edge"><title>Node2&#45;&gt;Node1</title>
<path fill="none" stroke="midnightblue" d="M240.633,-220.487C225.819,-212.372 203.181,-198.917 186,-184 137.44,-141.84 121.524,-131.13 92,-74 84.6529,-59.7827 80.548,-42.0013 78.3411,-28.8739"/>
<polygon fill="midnightblue" stroke="midnightblue" points="81.7695,-28.1293 76.8566,-18.7424 74.8434,-29.1442 81.7695,-28.1293"/>
</g>
<!-- Node2&#45;&gt;Node3 -->
<g id="edge4" class="edge"><title>Node2&#45;&gt;Node3</title>
<path fill="none" stroke="midnightblue" d="M256,-220.219C256,-213.177 256,-202.808 256,-193.828"/>
<polygon fill="midnightblue" stroke="midnightblue" points="259.5,-193.55 256,-183.55 252.5,-193.55 259.5,-193.55"/>
</g>
<!-- Node2&#45;&gt;Node7 -->
<g id="edge15" class="edge"><title>Node2&#45;&gt;Node7</title>
<path fill="none" stroke="midnightblue" d="M278.563,-220.392C294.623,-213.364 315.2,-201.533 326,-184 356.179,-135.008 345.15,-111.961 337,-55 335.715,-46.0167 333.04,-36.3144 330.449,-28.269"/>
<polygon fill="midnightblue" stroke="midnightblue" points="333.668,-26.8663 327.106,-18.5481 327.048,-29.1428 333.668,-26.8663"/>
</g>
<!-- Node3&#45;&gt;Node1 -->
<g id="edge5" class="edge"><title>Node3&#45;&gt;Node1</title>
<path fill="none" stroke="midnightblue" d="M236.852,-165.394C205.628,-151.256 143.656,-119.222 108,-74 96.9026,-59.9253 88.1001,-41.3907 82.5588,-27.982"/>
<polygon fill="midnightblue" stroke="midnightblue" points="85.7507,-26.5349 78.8325,-18.5106 79.2367,-29.0977 85.7507,-26.5349"/>
</g>
<!-- Node4 -->
<g id="node5" class="node"><title>Node4</title>
<g id="a_node5"><a xlink:href="vtkvmtkDataSetItem_8h.html" target="_top" xlink:title="vtkvmtkDataSetItem.h">
<polygon fill="white" stroke="black" points="182.096,-110.5 182.096,-128.5 295.904,-128.5 295.904,-110.5 182.096,-110.5"/>
<text text-anchor="middle" x="239" y="-116.5" font-family="Helvetica,sans-Serif" font-size="10.00">vtkvmtkDataSetItem.h</text>
</a>
</g>
</g>
<!-- Node3&#45;&gt;Node4 -->
<g id="edge6" class="edge"><title>Node3&#45;&gt;Node4</title>
<path fill="none" stroke="midnightblue" d="M253.344,-165.219C251.035,-158.02 247.611,-147.346 244.687,-138.231"/>
<polygon fill="midnightblue" stroke="midnightblue" points="247.969,-137.003 241.582,-128.55 241.304,-139.141 247.969,-137.003"/>
</g>
<!-- Node3&#45;&gt;Node7 -->
<g id="edge14" class="edge"><title>Node3&#45;&gt;Node7</title>
<path fill="none" stroke="midnightblue" d="M269.125,-165.348C280.554,-157.505 296.574,-144.562 305,-129 322.391,-96.8784 324.874,-53.1784 324.71,-28.8222"/>
<polygon fill="midnightblue" stroke="midnightblue" points="328.203,-28.4708 324.472,-18.555 321.205,-28.6337 328.203,-28.4708"/>
</g>
<!-- Node4&#45;&gt;Node1 -->
<g id="edge7" class="edge"><title>Node4&#45;&gt;Node1</title>
<path fill="none" stroke="midnightblue" d="M210.716,-110.418C188.309,-103.157 156.906,-91.0084 133,-74 114.582,-60.8965 97.871,-40.8558 87.3744,-26.8018"/>
<polygon fill="midnightblue" stroke="midnightblue" points="90.1139,-24.6172 81.4186,-18.5639 84.4412,-28.7184 90.1139,-24.6172"/>
</g>
<!-- Node5 -->
<g id="node6" class="node"><title>Node5</title>
<g id="a_node6"><a xlink:href="vtkvmtkItem_8h.html" target="_top" xlink:title="vtkvmtkItem.h">
<polygon fill="white" stroke="black" points="142.163,-55.5 142.163,-73.5 219.837,-73.5 219.837,-55.5 142.163,-55.5"/>
<text text-anchor="middle" x="181" y="-61.5" font-family="Helvetica,sans-Serif" font-size="10.00">vtkvmtkItem.h</text>
</a>
</g>
</g>
<!-- Node4&#45;&gt;Node5 -->
<g id="edge8" class="edge"><title>Node4&#45;&gt;Node5</title>
<path fill="none" stroke="midnightblue" d="M229.938,-110.219C221.204,-102.238 207.794,-89.9842 197.219,-80.3207"/>
<polygon fill="midnightblue" stroke="midnightblue" points="199.552,-77.7116 189.809,-73.5496 194.83,-82.879 199.552,-77.7116"/>
</g>
<!-- Node6 -->
<g id="node7" class="node"><title>Node6</title>
<polygon fill="white" stroke="#bfbfbf" points="158.375,-0.5 158.375,-18.5 231.625,-18.5 231.625,-0.5 158.375,-0.5"/>
<text text-anchor="middle" x="195" y="-6.5" font-family="Helvetica,sans-Serif" font-size="10.00">vtkDataSet.h</text>
</g>
<!-- Node4&#45;&gt;Node6 -->
<g id="edge12" class="edge"><title>Node4&#45;&gt;Node6</title>
<path fill="none" stroke="midnightblue" d="M238.979,-110.331C238.674,-97.8908 236.99,-73.6738 229,-55 224.458,-44.3853 216.814,-34.043 209.923,-26.0044"/>
<polygon fill="midnightblue" stroke="midnightblue" points="212.48,-23.6142 203.176,-18.5465 207.289,-28.3103 212.48,-23.6142"/>
</g>
<!-- Node4&#45;&gt;Node7 -->
<g id="edge13" class="edge"><title>Node4&#45;&gt;Node7</title>
<path fill="none" stroke="midnightblue" d="M245.389,-110.382C259.357,-92.6349 292.835,-50.0981 311.277,-26.6656"/>
<polygon fill="midnightblue" stroke="midnightblue" points="314.103,-28.7345 317.537,-18.7118 308.602,-24.4053 314.103,-28.7345"/>
</g>
<!-- Node5&#45;&gt;Node1 -->
<g id="edge9" class="edge"><title>Node5&#45;&gt;Node1</title>
<path fill="none" stroke="midnightblue" d="M165.053,-55.4504C148.093,-46.8897 121.029,-33.2291 101.184,-23.2119"/>
<polygon fill="midnightblue" stroke="midnightblue" points="102.602,-20.007 92.0973,-18.6253 99.4474,-26.256 102.602,-20.007"/>
</g>
<!-- Node5&#45;&gt;Node6 -->
<g id="edge10" class="edge"><title>Node5&#45;&gt;Node6</title>
<path fill="none" stroke="midnightblue" d="M183.188,-55.2188C185.089,-48.0204 187.909,-37.3458 190.316,-28.2311"/>
<polygon fill="midnightblue" stroke="midnightblue" points="193.704,-29.1118 192.874,-18.5496 186.936,-27.324 193.704,-29.1118"/>
</g>
<!-- Node5&#45;&gt;Node7 -->
<g id="edge11" class="edge"><title>Node5&#45;&gt;Node7</title>
<path fill="none" stroke="midnightblue" d="M202.719,-55.4504C226.656,-46.5784 265.373,-32.2288 292.61,-22.134"/>
<polygon fill="midnightblue" stroke="midnightblue" points="293.917,-25.3825 302.077,-18.6253 291.484,-18.8188 293.917,-25.3825"/>
</g>
</g>
</svg>
