<?xml version="1.0" encoding="UTF-8" standalone="no"?>
<!DOCTYPE svg PUBLIC "-//W3C//DTD SVG 1.1//EN"
 "http://www.w3.org/Graphics/SVG/1.1/DTD/svg11.dtd">
<!-- Generated by graphviz version 2.38.0 (20140413.2041)
 -->
<!-- Title: vtkvmtkFluentWriter.h Pages: 1 -->
<svg width="284pt" height="82pt"
 viewBox="0.00 0.00 284.01 82.00" xmlns="http://www.w3.org/2000/svg" xmlns:xlink="http://www.w3.org/1999/xlink">
<g id="graph0" class="graph" transform="scale(1 1) rotate(0) translate(4 78)">
<title>vtkvmtkFluentWriter.h</title>
<polygon fill="white" stroke="none" points="-4,4 -4,-78 280.008,-78 280.008,4 -4,4"/>
<!-- Node0 -->
<g id="node1" class="node"><title>Node0</title>
<polygon fill="#bfbfbf" stroke="black" points="76.4326,-55.5 76.4326,-73.5 188.39,-73.5 188.39,-55.5 76.4326,-55.5"/>
<text text-anchor="middle" x="132.411" y="-61.5" font-family="Helvetica,sans-Serif" font-size="10.00">vtkvmtkFluentWriter.h</text>
</g>
<!-- Node1 -->
<g id="node2" class="node"><title>Node1</title>
<polygon fill="white" stroke="#bfbfbf" points="0,-0.5 0,-18.5 118.822,-18.5 118.822,-0.5 0,-0.5"/>
<text text-anchor="middle" x="59.4111" y="-6.5" font-family="Helvetica,sans-Serif" font-size="10.00">vtkvmtkWin32Header.h</text>
</g>
<!-- Node0&#45;&gt;Node1 -->
<g id="edge1" class="edge"><title>Node0&#45;&gt;Node1</title>
<path fill="none" stroke="midnightblue" d="M121.324,-55.4504C110.069,-47.2788 92.4132,-34.4604 78.8314,-24.5996"/>
<polygon fill="midnightblue" stroke="midnightblue" points="80.7511,-21.6682 70.6026,-18.6253 76.6385,-27.3327 80.7511,-21.6682"/>
</g>
<!-- Node2 -->
<g id="node3" class="node"><title>Node2</title>
<polygon fill="white" stroke="#bfbfbf" points="136.814,-0.5 136.814,-18.5 276.008,-18.5 276.008,-0.5 136.814,-0.5"/>
<text text-anchor="middle" x="206.411" y="-6.5" font-family="Helvetica,sans-Serif" font-size="10.00">vtkUnstructuredGridWriter.h</text>
</g>
<!-- Node0&#45;&gt;Node2 -->
<g id="edge2" class="edge"><title>Node0&#45;&gt;Node2</title>
<path fill="none" stroke="midnightblue" d="M143.65,-55.4504C155.06,-47.2788 172.957,-34.4604 186.725,-24.5996"/>
<polygon fill="midnightblue" stroke="midnightblue" points="188.974,-27.2936 195.066,-18.6253 184.898,-21.6027 188.974,-27.2936"/>
</g>
</g>
</svg>
