<?xml version="1.0" encoding="UTF-8" standalone="no"?>
<!DOCTYPE svg PUBLIC "-//W3C//DTD SVG 1.1//EN"
 "http://www.w3.org/Graphics/SVG/1.1/DTD/svg11.dtd">
<!-- Generated by graphviz version 2.38.0 (20140413.2041)
 -->
<!-- Title: vtkvmtkCenterlineSplittingAndGroupingFilter.h Pages: 1 -->
<svg width="517pt" height="102pt"
 viewBox="0.00 0.00 516.84 102.00" xmlns="http://www.w3.org/2000/svg" xmlns:xlink="http://www.w3.org/1999/xlink">
<g id="graph0" class="graph" transform="scale(1 1) rotate(0) translate(4 98)">
<title>vtkvmtkCenterlineSplittingAndGroupingFilter.h</title>
<polygon fill="white" stroke="none" points="-4,4 -4,-98 512.839,-98 512.839,4 -4,4"/>
<!-- Node3 -->
<g id="node1" class="node"><title>Node3</title>
<polygon fill="#bfbfbf" stroke="black" points="194.956,-65.5 194.956,-93.5 326,-93.5 326,-65.5 194.956,-65.5"/>
<text text-anchor="start" x="202.956" y="-81.5" font-family="Helvetica,sans-Serif" font-size="10.00">vtkvmtkCenterlineSplitting</text>
<text text-anchor="middle" x="260.478" y="-71.5" font-family="Helvetica,sans-Serif" font-size="10.00">AndGroupingFilter.h</text>
</g>
<!-- Node4 -->
<g id="node2" class="node"><title>Node4</title>
<g id="a_node2"><a xlink:href="vtkvmtkCenterlineBranchExtractor_8h.html" target="_top" xlink:title="vtkvmtkCenterlineBranchExtractor.h">
<polygon fill="white" stroke="black" points="0,-5.5 0,-23.5 174.955,-23.5 174.955,-5.5 0,-5.5"/>
<text text-anchor="middle" x="87.4775" y="-11.5" font-family="Helvetica,sans-Serif" font-size="10.00">vtkvmtkCenterlineBranchExtractor.h</text>
</a>
</g>
</g>
<!-- Node3&#45;&gt;Node4 -->
<g id="edge1" class="edge"><title>Node3&#45;&gt;Node4</title>
<path fill="none" stroke="midnightblue" d="M214.918,-61.9091C180.941,-49.536 136.01,-33.1737 109.578,-23.548"/>
<polygon fill="midnightblue" stroke="midnightblue" points="214.038,-65.3132 224.632,-65.4464 216.433,-58.7358 214.038,-65.3132"/>
</g>
<!-- Node5 -->
<g id="node3" class="node"><title>Node5</title>
<g id="a_node3"><a xlink:href="vtkvmtkCenterlineEndpointExtractor_8h.html" target="_top" xlink:title="vtkvmtkCenterlineEndpoint\lExtractor.h">
<polygon fill="white" stroke="black" points="193.005,-0.5 193.005,-28.5 327.95,-28.5 327.95,-0.5 193.005,-0.5"/>
<text text-anchor="start" x="201.005" y="-16.5" font-family="Helvetica,sans-Serif" font-size="10.00">vtkvmtkCenterlineEndpoint</text>
<text text-anchor="middle" x="260.478" y="-6.5" font-family="Helvetica,sans-Serif" font-size="10.00">Extractor.h</text>
</a>
</g>
</g>
<!-- Node3&#45;&gt;Node5 -->
<g id="edge2" class="edge"><title>Node3&#45;&gt;Node5</title>
<path fill="none" stroke="midnightblue" d="M260.478,-55.1641C260.478,-46.1693 260.478,-36.2205 260.478,-28.5369"/>
<polygon fill="midnightblue" stroke="midnightblue" points="256.978,-55.4463 260.478,-65.4464 263.978,-55.4464 256.978,-55.4463"/>
</g>
<!-- Node6 -->
<g id="node4" class="node"><title>Node6</title>
<g id="a_node4"><a xlink:href="vtkvmtkCenterlineSplitExtractor_8h.html" target="_top" xlink:title="vtkvmtkCenterlineSplitExtractor.h">
<polygon fill="white" stroke="black" points="346.116,-5.5 346.116,-23.5 508.839,-23.5 508.839,-5.5 346.116,-5.5"/>
<text text-anchor="middle" x="427.478" y="-11.5" font-family="Helvetica,sans-Serif" font-size="10.00">vtkvmtkCenterlineSplitExtractor.h</text>
</a>
</g>
</g>
<!-- Node3&#45;&gt;Node6 -->
<g id="edge3" class="edge"><title>Node3&#45;&gt;Node6</title>
<path fill="none" stroke="midnightblue" d="M304.457,-61.9091C337.255,-49.536 380.628,-33.1737 406.144,-23.548"/>
<polygon fill="midnightblue" stroke="midnightblue" points="303.201,-58.6419 295.08,-65.4464 305.672,-65.1914 303.201,-58.6419"/>
</g>
</g>
</svg>
