<?xml version="1.0" encoding="UTF-8" standalone="no"?>
<!DOCTYPE svg PUBLIC "-//W3C//DTD SVG 1.1//EN"
 "http://www.w3.org/Graphics/SVG/1.1/DTD/svg11.dtd">
<!-- Generated by graphviz version 2.38.0 (20140413.2041)
 -->
<!-- Title: vtkvmtkLinearToQuadraticMeshFilter.h Pages: 1 -->
<svg width="469pt" height="92pt"
 viewBox="0.00 0.00 469.16 92.00" xmlns="http://www.w3.org/2000/svg" xmlns:xlink="http://www.w3.org/1999/xlink">
<g id="graph0" class="graph" transform="scale(1 1) rotate(0) translate(4 88)">
<title>vtkvmtkLinearToQuadraticMeshFilter.h</title>
<polygon fill="white" stroke="none" points="-4,4 -4,-88 465.157,-88 465.157,4 -4,4"/>
<!-- Node0 -->
<g id="node1" class="node"><title>Node0</title>
<polygon fill="#bfbfbf" stroke="black" points="188.946,-55.5 188.946,-83.5 320.546,-83.5 320.546,-55.5 188.946,-55.5"/>
<text text-anchor="start" x="196.946" y="-71.5" font-family="Helvetica,sans-Serif" font-size="10.00">vtkvmtkLinearToQuadratic</text>
<text text-anchor="middle" x="254.746" y="-61.5" font-family="Helvetica,sans-Serif" font-size="10.00">MeshFilter.h</text>
</g>
<!-- Node1 -->
<g id="node2" class="node"><title>Node1</title>
<polygon fill="white" stroke="#bfbfbf" points="0,-0.5 0,-18.5 155.492,-18.5 155.492,-0.5 0,-0.5"/>
<text text-anchor="middle" x="77.7461" y="-6.5" font-family="Helvetica,sans-Serif" font-size="10.00">vtkUnstructuredGridAlgorithm.h</text>
</g>
<!-- Node0&#45;&gt;Node1 -->
<g id="edge1" class="edge"><title>Node0&#45;&gt;Node1</title>
<path fill="none" stroke="midnightblue" d="M215.024,-55.4837C184.116,-45.3555 141.664,-31.4448 112.185,-21.785"/>
<polygon fill="midnightblue" stroke="midnightblue" points="112.932,-18.3467 102.339,-18.5587 110.752,-24.9987 112.932,-18.3467"/>
</g>
<!-- Node2 -->
<g id="node3" class="node"><title>Node2</title>
<polygon fill="white" stroke="#bfbfbf" points="173.899,-0.5 173.899,-18.5 251.593,-18.5 251.593,-0.5 173.899,-0.5"/>
<text text-anchor="middle" x="212.746" y="-6.5" font-family="Helvetica,sans-Serif" font-size="10.00">vtkPolyData.h</text>
</g>
<!-- Node0&#45;&gt;Node2 -->
<g id="edge2" class="edge"><title>Node0&#45;&gt;Node2</title>
<path fill="none" stroke="midnightblue" d="M245.216,-55.3389C239.117,-46.9164 231.156,-35.9226 224.643,-26.929"/>
<polygon fill="midnightblue" stroke="midnightblue" points="227.436,-24.8181 218.736,-18.7715 221.766,-28.9237 227.436,-24.8181"/>
</g>
<!-- Node3 -->
<g id="node4" class="node"><title>Node3</title>
<polygon fill="white" stroke="#bfbfbf" points="269.574,-0.5 269.574,-18.5 323.918,-18.5 323.918,-0.5 269.574,-0.5"/>
<text text-anchor="middle" x="296.746" y="-6.5" font-family="Helvetica,sans-Serif" font-size="10.00">vtkCell.h</text>
</g>
<!-- Node0&#45;&gt;Node3 -->
<g id="edge3" class="edge"><title>Node0&#45;&gt;Node3</title>
<path fill="none" stroke="midnightblue" d="M264.277,-55.3389C270.376,-46.9164 278.337,-35.9226 284.849,-26.929"/>
<polygon fill="midnightblue" stroke="midnightblue" points="287.726,-28.9237 290.756,-18.7715 282.056,-24.8181 287.726,-28.9237"/>
</g>
<!-- Node4 -->
<g id="node5" class="node"><title>Node4</title>
<polygon fill="white" stroke="#bfbfbf" points="342.335,-0.5 342.335,-18.5 461.157,-18.5 461.157,-0.5 342.335,-0.5"/>
<text text-anchor="middle" x="401.746" y="-6.5" font-family="Helvetica,sans-Serif" font-size="10.00">vtkvmtkWin32Header.h</text>
</g>
<!-- Node0&#45;&gt;Node4 -->
<g id="edge4" class="edge"><title>Node0&#45;&gt;Node4</title>
<path fill="none" stroke="midnightblue" d="M287.736,-55.4837C312.883,-45.5618 347.23,-32.0098 371.635,-22.3804"/>
<polygon fill="midnightblue" stroke="midnightblue" points="373.089,-25.5694 381.107,-18.6434 370.52,-19.058 373.089,-25.5694"/>
</g>
</g>
</svg>
