<?xml version="1.0" encoding="UTF-8" standalone="no"?>
<!DOCTYPE svg PUBLIC "-//W3C//DTD SVG 1.1//EN"
 "http://www.w3.org/Graphics/SVG/1.1/DTD/svg11.dtd">
<!-- Generated by graphviz version 2.38.0 (20140413.2041)
 -->
<!-- Title: vtkvmtkReferenceSystemUtilities.h Pages: 1 -->
<svg width="210pt" height="82pt"
 viewBox="0.00 0.00 210.42 82.00" xmlns="http://www.w3.org/2000/svg" xmlns:xlink="http://www.w3.org/1999/xlink">
<g id="graph0" class="graph" transform="scale(1 1) rotate(0) translate(4 78)">
<title>vtkvmtkReferenceSystemUtilities.h</title>
<polygon fill="white" stroke="none" points="-4,4 -4,-78 206.421,-78 206.421,4 -4,4"/>
<!-- Node0 -->
<g id="node1" class="node"><title>Node0</title>
<polygon fill="#bfbfbf" stroke="black" points="3.04443,-55.5 3.04443,-73.5 172.975,-73.5 172.975,-55.5 3.04443,-55.5"/>
<text text-anchor="middle" x="88.0098" y="-61.5" font-family="Helvetica,sans-Serif" font-size="10.00">vtkvmtkReferenceSystemUtilities.h</text>
</g>
<!-- Node1 -->
<g id="node2" class="node"><title>Node1</title>
<polygon fill="white" stroke="#bfbfbf" points="0,-0.5 0,-18.5 66.0195,-18.5 66.0195,-0.5 0,-0.5"/>
<text text-anchor="middle" x="33.0098" y="-6.5" font-family="Helvetica,sans-Serif" font-size="10.00">vtkObject.h</text>
</g>
<!-- Node0&#45;&gt;Node1 -->
<g id="edge1" class="edge"><title>Node0&#45;&gt;Node1</title>
<path fill="none" stroke="midnightblue" d="M79.416,-55.2188C71.2152,-47.3162 58.6668,-35.2241 48.6855,-25.6057"/>
<polygon fill="midnightblue" stroke="midnightblue" points="50.9925,-22.9682 41.3631,-18.5496 46.1353,-28.0088 50.9925,-22.9682"/>
</g>
<!-- Node2 -->
<g id="node3" class="node"><title>Node2</title>
<polygon fill="white" stroke="#bfbfbf" points="83.5986,-0.5 83.5986,-18.5 202.421,-18.5 202.421,-0.5 83.5986,-0.5"/>
<text text-anchor="middle" x="143.01" y="-6.5" font-family="Helvetica,sans-Serif" font-size="10.00">vtkvmtkWin32Header.h</text>
</g>
<!-- Node0&#45;&gt;Node2 -->
<g id="edge2" class="edge"><title>Node0&#45;&gt;Node2</title>
<path fill="none" stroke="midnightblue" d="M96.6035,-55.2188C104.804,-47.3162 117.353,-35.2241 127.334,-25.6057"/>
<polygon fill="midnightblue" stroke="midnightblue" points="129.884,-28.0088 134.656,-18.5496 125.027,-22.9682 129.884,-28.0088"/>
</g>
</g>
</svg>
